%TF.GenerationSoftware,Altium Limited,Altium Designer,18.1.6 (161)*%
G04 Layer_Color=32768*
%FSLAX26Y26*%
%MOIN*%
%TF.FileFunction,Other,Mechanical_15*%
%TF.Part,Single*%
G01*
G75*
%TA.AperFunction,NonConductor*%
%ADD75C,0.003937*%
%ADD77C,0.001968*%
D75*
X2674685Y3470000D02*
X2714055D01*
X2694370Y3450315D02*
Y3489685D01*
X2943740Y4220000D02*
X2983110D01*
X2963425Y4200315D02*
Y4239685D01*
X2072839Y2074322D02*
X2100678Y2102161D01*
X2072839D02*
X2100678Y2074322D01*
X3171811Y3553504D02*
X3211181D01*
X3191496Y3533819D02*
Y3573189D01*
X3050315Y4045000D02*
X3089685D01*
X3070000Y4025315D02*
Y4064685D01*
X3370000Y2980315D02*
Y3019685D01*
X3350315Y3000000D02*
X3389685D01*
X3230315Y2975000D02*
X3269685D01*
X3250000Y2955315D02*
Y2994685D01*
X3460000Y2982913D02*
Y3022283D01*
X3440315Y3002598D02*
X3479685D01*
X2490000Y2360315D02*
Y2399685D01*
X2470315Y2380000D02*
X2509685D01*
X3020000Y2690315D02*
Y2729685D01*
X3000315Y2710000D02*
X3039685D01*
X3120000Y2690315D02*
Y2729685D01*
X3100315Y2710000D02*
X3139685D01*
X2480315Y2380000D02*
X2519685D01*
X2500000Y2360315D02*
Y2399685D01*
X3595000Y2400315D02*
Y2439685D01*
X3575315Y2420000D02*
X3614685D01*
X3450315Y2650000D02*
X3489685D01*
X3470000Y2630315D02*
Y2669685D01*
X3348708Y2590315D02*
Y2629685D01*
X3329023Y2610000D02*
X3368393D01*
X2765315Y2415000D02*
X2804685D01*
X2785000Y2395315D02*
Y2434685D01*
X2765315Y2325000D02*
X2804685D01*
X2785000Y2305315D02*
Y2344685D01*
X3685000Y2400315D02*
Y2439685D01*
X3665315Y2420000D02*
X3704685D01*
X3265315Y2435000D02*
X3304685D01*
X3285000Y2415315D02*
Y2454685D01*
X3265315Y2507598D02*
X3304685D01*
X3285000Y2487913D02*
Y2527283D01*
X3450315Y2575000D02*
X3489685D01*
X3470000Y2555315D02*
Y2594685D01*
X3586607Y2650000D02*
X3625977D01*
X3606292Y2630315D02*
Y2669685D01*
X3037598Y2265315D02*
Y2304685D01*
X3017913Y2285000D02*
X3057283D01*
X3110000Y2265315D02*
Y2304685D01*
X3090315Y2285000D02*
X3129685D01*
X2663780Y2553031D02*
X2703150D01*
X2683465Y2533346D02*
Y2572716D01*
X2668780Y2630000D02*
X2708150D01*
X2688465Y2610315D02*
Y2649685D01*
X2518780Y2630000D02*
X2558150D01*
X2538465Y2610315D02*
Y2649685D01*
X2520315Y2550000D02*
X2559685D01*
X2540000Y2530315D02*
Y2569685D01*
X2680000Y3055315D02*
Y3094685D01*
X2660315Y3075000D02*
X2699685D01*
X2580000Y3055315D02*
Y3094685D01*
X2560315Y3075000D02*
X2599685D01*
X2950315Y3055000D02*
X2989685D01*
X2970000Y3035315D02*
Y3074685D01*
X2950315Y3145000D02*
X2989685D01*
X2970000Y3125315D02*
Y3164685D01*
X2793465Y2855315D02*
Y2894685D01*
X2773780Y2875000D02*
X2813150D01*
X2662284Y2840000D02*
X2701654D01*
X2681969Y2820315D02*
Y2859685D01*
X2662284Y2915000D02*
X2701654D01*
X2681969Y2895315D02*
Y2934685D01*
X2523780Y2905000D02*
X2563150D01*
X2543465Y2885315D02*
Y2924685D01*
X2525315Y2840000D02*
X2564685D01*
X2545000Y2820315D02*
Y2859685D01*
X3585315Y2575000D02*
X3624685D01*
X3605000Y2555315D02*
Y2594685D01*
X3120000Y2720315D02*
Y2759685D01*
X3100315Y2740000D02*
X3139685D01*
X2798465Y2570315D02*
Y2609685D01*
X2778780Y2590000D02*
X2818150D01*
X3010000Y4155315D02*
Y4194685D01*
X2990315Y4175000D02*
X3029685D01*
X3075000Y3865315D02*
Y3904685D01*
X3055315Y3885000D02*
X3094685D01*
X2260000Y2190315D02*
Y2229685D01*
X2240315Y2210000D02*
X2279685D01*
X2265000Y2105315D02*
Y2144685D01*
X2245315Y2125000D02*
X2284685D01*
X2261535Y2026798D02*
Y2066168D01*
X2241850Y2046483D02*
X2281220D01*
X1800000Y3225315D02*
Y3264685D01*
X1780315Y3245000D02*
X1819685D01*
X1800000Y3140315D02*
Y3179685D01*
X1780315Y3160000D02*
X1819685D01*
X1800000Y3060315D02*
Y3099685D01*
X1780315Y3080000D02*
X1819685D01*
X2235000Y4165315D02*
Y4204685D01*
X2215315Y4185000D02*
X2254685D01*
X2231535Y4030315D02*
Y4069685D01*
X2211850Y4050000D02*
X2251220D01*
X2235000Y4095315D02*
Y4134685D01*
X2215315Y4115000D02*
X2254685D01*
X2750000Y1985315D02*
Y2024685D01*
X2730315Y2005000D02*
X2769685D01*
X2630000Y1780315D02*
Y1819685D01*
X2610315Y1800000D02*
X2649685D01*
X2870000Y1665315D02*
Y1704685D01*
X2850315Y1685000D02*
X2889685D01*
X3065315Y1785000D02*
X3104685D01*
X3085000Y1765315D02*
Y1804685D01*
X3145669Y1785000D02*
X3185039D01*
X3165354Y1765315D02*
Y1804685D01*
X3225315Y1785000D02*
X3264685D01*
X3245000Y1765315D02*
Y1804685D01*
X3149606Y1633858D02*
Y1673228D01*
X3129921Y1653543D02*
X3169291D01*
X4015000Y1980315D02*
Y2019685D01*
X3995315Y2000000D02*
X4034685D01*
X4045000Y2110315D02*
Y2149685D01*
X4025315Y2130000D02*
X4064685D01*
X4050000Y2215315D02*
Y2254685D01*
X4030315Y2235000D02*
X4069685D01*
X4189744Y2107528D02*
X4217582Y2079689D01*
X4189744D02*
X4217582Y2107528D01*
X4625984Y3149606D02*
X4665354D01*
X4645669Y3129921D02*
Y3169291D01*
X3995000Y3971851D02*
Y4011221D01*
X3975315Y3991535D02*
X4014685D01*
X3990000Y4060315D02*
Y4099685D01*
X3970315Y4080000D02*
X4009685D01*
X3990000Y4155315D02*
Y4194685D01*
X3970315Y4175000D02*
X4009685D01*
X4176081Y4176081D02*
X4203919Y4203919D01*
X4176081D02*
X4203919Y4176081D01*
X3055315Y4545000D02*
X3094685D01*
X3075000Y4525315D02*
Y4564685D01*
X3640000Y4370315D02*
Y4409685D01*
X3620315Y4390000D02*
X3659685D01*
X3205315Y4545000D02*
X3244685D01*
X3225000Y4525315D02*
Y4564685D01*
X3129921Y4545000D02*
X3169291D01*
X3149606Y4525315D02*
Y4564685D01*
X3149606Y4625984D02*
Y4665354D01*
X3129921Y4645669D02*
X3169291D01*
X2086081Y4213919D02*
X2113919Y4186081D01*
X2086081D02*
X2113919Y4213919D01*
X3096811Y3553504D02*
X3136181D01*
X3116496Y3533819D02*
Y3573189D01*
X2850000Y3996850D02*
Y4036220D01*
X2830315Y4016535D02*
X2869685D01*
X2920000Y4150315D02*
Y4189685D01*
X2900315Y4170000D02*
X2939685D01*
X2623898Y3700000D02*
X2663268D01*
X2643583Y3680315D02*
Y3719685D01*
X3375315Y3795000D02*
X3414685D01*
X3395000Y3775315D02*
Y3814685D01*
X4100000Y2975315D02*
Y3014685D01*
X4080315Y2995000D02*
X4119685D01*
X3375315Y3973228D02*
X3414685D01*
X3395000Y3953543D02*
Y3992913D01*
X4100000Y3410315D02*
Y3449685D01*
X4080315Y3430000D02*
X4119685D01*
X3280000Y4153819D02*
Y4193189D01*
X3260315Y4173504D02*
X3299685D01*
X3190000Y4155315D02*
Y4194685D01*
X3170315Y4175000D02*
X3209685D01*
X3600315Y3979724D02*
X3639685D01*
X3620000Y3960039D02*
Y3999410D01*
X4520000Y3070315D02*
Y3109685D01*
X4500315Y3090000D02*
X4539685D01*
X4520000Y3150315D02*
Y3189685D01*
X4500315Y3170000D02*
X4539685D01*
X4520000Y3225315D02*
Y3264685D01*
X4500315Y3245000D02*
X4539685D01*
X3645000Y2002318D02*
Y2041688D01*
X3625315Y2022003D02*
X3664685D01*
X3515315Y2135000D02*
X3554685D01*
X3535000Y2115315D02*
Y2154685D01*
X1653543Y3129921D02*
Y3169291D01*
X1633858Y3149606D02*
X1673228D01*
X3600315Y3795000D02*
X3639685D01*
X3620000Y3775315D02*
Y3814685D01*
D77*
X2906968Y3292835D02*
Y3647165D01*
X2481772Y3292835D02*
Y3647165D01*
Y3292835D02*
X2906968D01*
X2481772Y3647165D02*
X2906968D01*
X2908307Y4190472D02*
Y4249528D01*
X3018543Y4190472D02*
Y4249528D01*
X2908307Y4190472D02*
X3018543D01*
X2908307Y4249528D02*
X3018543D01*
X2054744Y2173150D02*
X2171667Y2056227D01*
X1990714Y2109121D02*
X2107637Y1992198D01*
X1990714Y2109121D02*
X2054744Y2173150D01*
X2107637Y1992198D02*
X2171667Y2056227D01*
X3222992Y3498386D02*
Y3608622D01*
X3160000Y3498386D02*
Y3608622D01*
X3222992D01*
X3160000Y3498386D02*
X3222992D01*
X3125118Y4015472D02*
Y4074528D01*
X3014882Y4015472D02*
Y4074528D01*
X3125118D01*
X3014882Y4015472D02*
X3125118D01*
X3340472Y3055118D02*
X3399528D01*
X3340472Y2944882D02*
X3399528D01*
Y3055118D01*
X3340472Y2944882D02*
Y3055118D01*
X3305118Y2945472D02*
Y3004528D01*
X3194882Y2945472D02*
Y3004528D01*
Y2945472D02*
X3305118D01*
X3194882Y3004528D02*
X3305118D01*
X3428504Y3057716D02*
X3491496D01*
X3428504Y2947480D02*
X3491496D01*
Y3057716D01*
X3428504Y2947480D02*
Y3057716D01*
X2407323Y2309134D02*
X2572677D01*
X2407323Y2450866D02*
X2572677D01*
Y2309134D02*
Y2450866D01*
X2407323Y2309134D02*
Y2450866D01*
X2988504Y2654882D02*
X3051496D01*
X2988504Y2765118D02*
X3051496D01*
Y2654882D02*
Y2765118D01*
X2988504Y2654882D02*
Y2765118D01*
X3088504Y2654882D02*
X3151496D01*
X3088504Y2765118D02*
X3151496D01*
Y2654882D02*
Y2765118D01*
X3088504Y2654882D02*
Y2765118D01*
X2444882Y2348504D02*
Y2411496D01*
X2555118Y2348504D02*
Y2411496D01*
X2444882Y2348504D02*
X2555118D01*
X2444882Y2411496D02*
X2555118D01*
X3565472Y2364882D02*
X3624528D01*
X3565472Y2475118D02*
X3624528D01*
X3565472Y2364882D02*
Y2475118D01*
X3624528Y2364882D02*
Y2475118D01*
X3525118Y2618504D02*
Y2681496D01*
X3414882Y2618504D02*
Y2681496D01*
Y2618504D02*
X3525118D01*
X3414882Y2681496D02*
X3525118D01*
X3319180Y2554882D02*
X3378236D01*
X3319180Y2665118D02*
X3378236D01*
X3319180Y2554882D02*
Y2665118D01*
X3378236Y2554882D02*
Y2665118D01*
X2729882Y2383504D02*
Y2446496D01*
X2840118Y2383504D02*
Y2446496D01*
X2729882D02*
X2840118D01*
X2729882Y2383504D02*
X2840118D01*
X2729882Y2295472D02*
Y2354528D01*
X2840118Y2295472D02*
Y2354528D01*
X2729882D02*
X2840118D01*
X2729882Y2295472D02*
X2840118D01*
X3653504Y2364882D02*
X3716496D01*
X3653504Y2475118D02*
X3716496D01*
X3653504Y2364882D02*
Y2475118D01*
X3716496Y2364882D02*
Y2475118D01*
X3229882Y2405472D02*
Y2464528D01*
X3340118Y2405472D02*
Y2464528D01*
X3229882D02*
X3340118D01*
X3229882Y2405472D02*
X3340118D01*
X3229882Y2476102D02*
Y2539095D01*
X3340118Y2476102D02*
Y2539095D01*
X3229882D02*
X3340118D01*
X3229882Y2476102D02*
X3340118D01*
X3525118Y2543504D02*
Y2606496D01*
X3414882Y2543504D02*
Y2606496D01*
Y2543504D02*
X3525118D01*
X3414882Y2606496D02*
X3525118D01*
X3551174Y2620472D02*
Y2679528D01*
X3661410Y2620472D02*
Y2679528D01*
X3551174D02*
X3661410D01*
X3551174Y2620472D02*
X3661410D01*
X3006102Y2229882D02*
X3069095D01*
X3006102Y2340118D02*
X3069095D01*
X3006102Y2229882D02*
Y2340118D01*
X3069095Y2229882D02*
Y2340118D01*
X3080472Y2229882D02*
X3139528D01*
X3080472Y2340118D02*
X3139528D01*
X3080472Y2229882D02*
Y2340118D01*
X3139528Y2229882D02*
Y2340118D01*
X2628347Y2521535D02*
Y2584528D01*
X2738583Y2521535D02*
Y2584528D01*
X2628347D02*
X2738583D01*
X2628347Y2521535D02*
X2738583D01*
X2633347Y2598504D02*
Y2661496D01*
X2743583Y2598504D02*
Y2661496D01*
X2633347D02*
X2743583D01*
X2633347Y2598504D02*
X2743583D01*
X2483347Y2600472D02*
Y2659528D01*
X2593583Y2600472D02*
Y2659528D01*
X2483347D02*
X2593583D01*
X2483347Y2600472D02*
X2593583D01*
X2595118Y2520472D02*
Y2579528D01*
X2484882Y2520472D02*
Y2579528D01*
Y2520472D02*
X2595118D01*
X2484882Y2579528D02*
X2595118D01*
X2650472Y3130118D02*
X2709528D01*
X2650472Y3019882D02*
X2709528D01*
Y3130118D01*
X2650472Y3019882D02*
Y3130118D01*
X2548504D02*
X2611496D01*
X2548504Y3019882D02*
X2611496D01*
Y3130118D01*
X2548504Y3019882D02*
Y3130118D01*
X3025118Y3023504D02*
Y3086496D01*
X2914882Y3023504D02*
Y3086496D01*
Y3023504D02*
X3025118D01*
X2914882Y3086496D02*
X3025118D01*
Y3115472D02*
Y3174528D01*
X2914882Y3115472D02*
Y3174528D01*
Y3115472D02*
X3025118D01*
X2914882Y3174528D02*
X3025118D01*
X2763937Y2930118D02*
X2822992D01*
X2763937Y2819882D02*
X2822992D01*
Y2930118D01*
X2763937Y2819882D02*
Y2930118D01*
X2626851Y2808504D02*
Y2871496D01*
X2737087Y2808504D02*
Y2871496D01*
X2626851D02*
X2737087D01*
X2626851Y2808504D02*
X2737087D01*
X2626851Y2883504D02*
Y2946496D01*
X2737087Y2883504D02*
Y2946496D01*
X2626851D02*
X2737087D01*
X2626851Y2883504D02*
X2737087D01*
X2488347Y2875472D02*
Y2934528D01*
X2598583Y2875472D02*
Y2934528D01*
X2488347D02*
X2598583D01*
X2488347Y2875472D02*
X2598583D01*
X2600118Y2810472D02*
Y2869528D01*
X2489882Y2810472D02*
Y2869528D01*
Y2810472D02*
X2600118D01*
X2489882Y2869528D02*
X2600118D01*
X3660118Y2545472D02*
Y2604528D01*
X3549882Y2545472D02*
Y2604528D01*
Y2545472D02*
X3660118D01*
X3549882Y2604528D02*
X3660118D01*
X3251890Y2563819D02*
Y2916181D01*
X2988110Y2563819D02*
X3251890D01*
X2988110D02*
Y2916181D01*
X3251890D01*
X2768937Y2534882D02*
X2827992D01*
X2768937Y2645118D02*
X2827992D01*
X2768937Y2534882D02*
Y2645118D01*
X2827992Y2534882D02*
Y2645118D01*
X2980472Y4230118D02*
X3039528D01*
X2980472Y4119882D02*
X3039528D01*
Y4230118D01*
X2980472Y4119882D02*
Y4230118D01*
X2933268Y3688150D02*
X3216732D01*
X2933268Y4081850D02*
X3216732D01*
Y3688150D02*
Y4081850D01*
X2933268Y3688150D02*
Y4081850D01*
X2204882Y2239528D02*
X2315118D01*
X2204882Y2180472D02*
X2315118D01*
X2204882D02*
Y2239528D01*
X2315118Y2180472D02*
Y2239528D01*
X2209882Y2154528D02*
X2320118D01*
X2209882Y2095472D02*
X2320118D01*
X2209882D02*
Y2154528D01*
X2320118Y2095472D02*
Y2154528D01*
X2206417Y2076011D02*
X2316653D01*
X2206417Y2016956D02*
X2316653D01*
X2206417D02*
Y2076011D01*
X2316653Y2016956D02*
Y2076011D01*
X1744882Y3274528D02*
X1855118D01*
X1744882Y3215472D02*
X1855118D01*
X1744882D02*
Y3274528D01*
X1855118Y3215472D02*
Y3274528D01*
X1744882Y3189528D02*
X1855118D01*
X1744882Y3130472D02*
X1855118D01*
X1744882D02*
Y3189528D01*
X1855118Y3130472D02*
Y3189528D01*
X1744882Y3109528D02*
X1855118D01*
X1744882Y3050472D02*
X1855118D01*
X1744882D02*
Y3109528D01*
X1855118Y3050472D02*
Y3109528D01*
X2179882Y4214528D02*
X2290118D01*
X2179882Y4155472D02*
X2290118D01*
X2179882D02*
Y4214528D01*
X2290118Y4155472D02*
Y4214528D01*
X2176417Y4079528D02*
X2286653D01*
X2176417Y4020472D02*
X2286653D01*
X2176417D02*
Y4079528D01*
X2286653Y4020472D02*
Y4079528D01*
X2179882Y4144528D02*
X2290118D01*
X2179882Y4085472D02*
X2290118D01*
X2179882D02*
Y4144528D01*
X2290118Y4085472D02*
Y4144528D01*
X2694882Y1975473D02*
X2805118D01*
X2694882Y2034528D02*
X2805118D01*
Y1975473D02*
Y2034528D01*
X2694882Y1975473D02*
Y2034528D01*
X2574882Y1770473D02*
X2685118D01*
X2574882Y1829528D02*
X2685118D01*
Y1770473D02*
Y1829528D01*
X2574882Y1770473D02*
Y1829528D01*
X2814882Y1655473D02*
X2925118D01*
X2814882Y1714528D02*
X2925118D01*
Y1655473D02*
Y1714528D01*
X2814882Y1655473D02*
Y1714528D01*
X3055472Y1729882D02*
Y1840118D01*
X3114528Y1729882D02*
Y1840118D01*
X3055472Y1729882D02*
X3114528D01*
X3055472Y1840118D02*
X3114528D01*
X3135827Y1729882D02*
Y1840118D01*
X3194882Y1729882D02*
Y1840118D01*
X3135827Y1729882D02*
X3194882D01*
X3135827Y1840118D02*
X3194882D01*
X3215472Y1729882D02*
Y1840118D01*
X3274528Y1729882D02*
Y1840118D01*
X3215472Y1729882D02*
X3274528D01*
X3215472Y1840118D02*
X3274528D01*
X3066929Y1690945D02*
X3232283D01*
X3066929Y1600394D02*
X3232283D01*
X3066929D02*
Y1690945D01*
X3232283Y1600394D02*
Y1690945D01*
X3959882Y1970473D02*
X4070118D01*
X3959882Y2029528D02*
X4070118D01*
Y1970473D02*
Y2029528D01*
X3959882Y1970473D02*
Y2029528D01*
X3989882Y2100472D02*
X4100118D01*
X3989882Y2159528D02*
X4100118D01*
Y2100472D02*
Y2159528D01*
X3989882Y2100472D02*
Y2159528D01*
X3994882Y2205472D02*
X4105118D01*
X3994882Y2264528D02*
X4105118D01*
Y2205472D02*
Y2264528D01*
X3994882Y2205472D02*
Y2264528D01*
X4118755Y2061593D02*
X4235678Y2178517D01*
X4182784Y1997564D02*
X4299707Y2114487D01*
X4118755Y2061593D02*
X4182784Y1997564D01*
X4235678Y2178517D02*
X4299707Y2114487D01*
X4608268Y3066929D02*
Y3232284D01*
X4698819Y3066929D02*
Y3232284D01*
X4608268Y3066929D02*
X4698819D01*
X4608268Y3232284D02*
X4698819D01*
X3939882Y3962008D02*
X4050118D01*
X3939882Y4021063D02*
X4050118D01*
Y3962008D02*
Y4021063D01*
X3939882Y3962008D02*
Y4021063D01*
X3934882Y4050472D02*
X4045118D01*
X3934882Y4109528D02*
X4045118D01*
Y4050472D02*
Y4109528D01*
X3934882Y4050472D02*
Y4109528D01*
Y4145472D02*
X4045118D01*
X3934882Y4204528D02*
X4045118D01*
Y4145472D02*
Y4204528D01*
X3934882Y4145472D02*
Y4204528D01*
X4105092Y4222015D02*
X4222015Y4105092D01*
X4169121Y4286044D02*
X4286044Y4169121D01*
X4222015Y4105092D02*
X4286044Y4169121D01*
X4105092Y4222015D02*
X4169121Y4286044D01*
X3104528Y4489882D02*
Y4600118D01*
X3045472Y4489882D02*
Y4600118D01*
X3104528D01*
X3045472Y4489882D02*
X3104528D01*
X3462835Y4177402D02*
X3817165D01*
X3462835Y4602598D02*
X3817165D01*
X3462835Y4177402D02*
Y4602598D01*
X3817165Y4177402D02*
Y4602598D01*
X3254528Y4489882D02*
Y4600118D01*
X3195472Y4489882D02*
Y4600118D01*
X3254528D01*
X3195472Y4489882D02*
X3254528D01*
X3179133D02*
Y4600118D01*
X3120078Y4489882D02*
Y4600118D01*
X3179133D01*
X3120078Y4489882D02*
X3179133D01*
X3066929Y4608268D02*
X3232284D01*
X3066929Y4698819D02*
X3232284D01*
Y4608268D02*
Y4698819D01*
X3066929Y4608268D02*
Y4698819D01*
X2067985Y4115092D02*
X2184909Y4232015D01*
X2003956Y4179121D02*
X2120879Y4296044D01*
X2184909Y4232015D01*
X2003956Y4179121D02*
X2067985Y4115092D01*
X2687165Y3803346D02*
Y3846653D01*
X2777716Y3803346D02*
Y3846653D01*
X2687165D02*
X2777716D01*
X2687165Y3803346D02*
X2777716D01*
X2713740Y3825000D02*
X2751142D01*
X2732441Y3806299D02*
Y3843701D01*
X2687284Y3748346D02*
Y3791653D01*
X2777835Y3748346D02*
Y3791653D01*
X2687284D02*
X2777835D01*
X2687284Y3748346D02*
X2777835D01*
X2713858Y3770000D02*
X2751260D01*
X2732559Y3751299D02*
Y3788701D01*
X3147992Y3498386D02*
Y3608622D01*
X3085000Y3498386D02*
Y3608622D01*
X3147992D01*
X3085000Y3498386D02*
X3147992D01*
X2820472Y4071653D02*
X2879528D01*
X2820472Y3961417D02*
X2879528D01*
Y4071653D01*
X2820472Y3961417D02*
Y4071653D01*
X2890472Y4225118D02*
X2949528D01*
X2890472Y4114882D02*
X2949528D01*
Y4225118D01*
X2890472Y4114882D02*
Y4225118D01*
X2588465Y3670472D02*
Y3729528D01*
X2698701Y3670472D02*
Y3729528D01*
X2588465D02*
X2698701D01*
X2588465Y3670472D02*
X2698701D01*
X2627835Y3883662D02*
Y3926969D01*
X2537284Y3883662D02*
Y3926969D01*
Y3883662D02*
X2627835D01*
X2537284Y3926969D02*
X2627835D01*
X2563858Y3905315D02*
X2601260D01*
X2582559Y3886614D02*
Y3924016D01*
X2722284Y3868346D02*
Y3911653D01*
X2812835Y3868346D02*
Y3911653D01*
X2722284D02*
X2812835D01*
X2722284Y3868346D02*
X2812835D01*
X2748858Y3890000D02*
X2786260D01*
X2767559Y3871299D02*
Y3908701D01*
X3326102Y3755630D02*
Y3834370D01*
X3463898Y3755630D02*
Y3834370D01*
X3326102D02*
X3463898D01*
X3326102Y3755630D02*
X3463898D01*
X4068504Y3050118D02*
X4131496D01*
X4068504Y2939882D02*
X4131496D01*
Y3050118D01*
X4068504Y2939882D02*
Y3050118D01*
X3326102Y3933858D02*
Y4012599D01*
X3463898Y3933858D02*
Y4012599D01*
X3326102D02*
X3463898D01*
X3326102Y3933858D02*
X3463898D01*
X4068504Y3485118D02*
X4131496D01*
X4068504Y3374882D02*
X4131496D01*
Y3485118D01*
X4068504Y3374882D02*
Y3485118D01*
X3248504Y4228622D02*
X3311496D01*
X3248504Y4118386D02*
X3311496D01*
Y4228622D01*
X3248504Y4118386D02*
Y4228622D01*
X3158504Y4230118D02*
X3221496D01*
X3158504Y4119882D02*
X3221496D01*
Y4230118D01*
X3158504Y4119882D02*
Y4230118D01*
X3552480Y3946851D02*
Y4012599D01*
X3687520D01*
X3687520Y3946851D02*
Y4012599D01*
X3552480Y3946851D02*
X3687520D01*
X4464882Y3060472D02*
X4575118D01*
X4464882Y3119528D02*
X4575118D01*
Y3060472D02*
Y3119528D01*
X4464882Y3060472D02*
Y3119528D01*
Y3140472D02*
X4575118D01*
X4464882Y3199528D02*
X4575118D01*
Y3140472D02*
Y3199528D01*
X4464882Y3140472D02*
Y3199528D01*
Y3215472D02*
X4575118D01*
X4464882Y3274528D02*
X4575118D01*
Y3215472D02*
Y3274528D01*
X4464882Y3215472D02*
Y3274528D01*
X3613504Y2077121D02*
X3676496D01*
X3613504Y1966885D02*
X3676496D01*
X3613504D02*
Y2077121D01*
X3676496Y1966885D02*
Y2077121D01*
X3479882Y2105472D02*
Y2164528D01*
X3590118Y2105472D02*
Y2164528D01*
X3479882Y2105472D02*
X3590118D01*
X3479882Y2164528D02*
X3590118D01*
X1600394Y3066929D02*
X1690945D01*
X1600394Y3232284D02*
X1690945D01*
X1600394Y3066929D02*
Y3232284D01*
X1690945Y3066929D02*
Y3232284D01*
X3552480Y3762126D02*
Y3827874D01*
X3687520D01*
X3687520Y3762126D02*
Y3827874D01*
X3552480Y3762126D02*
X3687520D01*
%TF.MD5,71aefafca46f5d4209f3a1aa61d4c1d6*%
M02*
