%TF.GenerationSoftware,Altium Limited,Altium Designer,18.1.6 (161)*%
G04 Layer_Color=32896*
%FSLAX25Y25*%
%MOIN*%
%TF.FileFunction,Legend,Bot*%
%TF.Part,Single*%
G01*
G75*
%TA.AperFunction,NonConductor*%
%ADD39C,0.00300*%
%ADD40C,0.01575*%
%ADD41C,0.00787*%
%ADD42C,0.00700*%
D39*
X290961Y429071D02*
X338961D01*
X290961D02*
Y446571D01*
X338961D01*
Y429071D02*
Y446571D01*
Y192850D02*
Y210350D01*
X290961D02*
X338961D01*
X290961Y192850D02*
Y210350D01*
Y192850D02*
X338961D01*
D40*
X269627Y352445D02*
Y370555D01*
D41*
X272481Y352445D02*
X302403D01*
X272481Y370555D02*
X302403D01*
X272481Y352445D02*
Y355299D01*
X302403Y352445D02*
Y355299D01*
X272481Y367701D02*
Y370555D01*
X302403Y367701D02*
Y370555D01*
X252803Y235736D02*
X253197D01*
X252803Y240264D02*
X253197D01*
X267539Y343835D02*
X267933D01*
X267539Y348165D02*
X267933D01*
X311803Y424665D02*
X312197D01*
X311803Y420335D02*
X312197D01*
X371803Y388547D02*
X372197D01*
X371803Y384216D02*
X372197D01*
X359603Y392653D02*
X359996D01*
X359603Y388323D02*
X359996D01*
X261303Y359236D02*
X261697D01*
X261303Y363764D02*
X261697D01*
X261303Y351236D02*
X261697D01*
X261303Y355764D02*
X261697D01*
D42*
X313167Y362916D02*
X313751Y363499D01*
X314917D01*
X315500Y362916D01*
Y360583D01*
X314917Y360000D01*
X313751D01*
X313167Y360583D01*
X312001Y360000D02*
X310835D01*
X311418D01*
Y363499D01*
X312001Y362916D01*
X306753Y363499D02*
X309085D01*
Y361749D01*
X307919Y362333D01*
X307336D01*
X306753Y361749D01*
Y360583D01*
X307336Y360000D01*
X308502D01*
X309085Y360583D01*
X255567Y246816D02*
X256151Y247399D01*
X257317D01*
X257900Y246816D01*
Y244483D01*
X257317Y243900D01*
X256151D01*
X255567Y244483D01*
X254401Y246816D02*
X253818Y247399D01*
X252652D01*
X252069Y246816D01*
Y246233D01*
X252652Y245649D01*
X253235D01*
X252652D01*
X252069Y245066D01*
Y244483D01*
X252652Y243900D01*
X253818D01*
X254401Y244483D01*
X250902Y243900D02*
X249736D01*
X250319D01*
Y247399D01*
X250902Y246816D01*
X283000Y344500D02*
Y347999D01*
X281251D01*
X280667Y347416D01*
Y346249D01*
X281251Y345666D01*
X283000D01*
X281834D02*
X280667Y344500D01*
X279501Y347416D02*
X278918Y347999D01*
X277752D01*
X277169Y347416D01*
Y346833D01*
X277752Y346249D01*
X278335D01*
X277752D01*
X277169Y345666D01*
Y345083D01*
X277752Y344500D01*
X278918D01*
X279501Y345083D01*
X276002Y344500D02*
X274836D01*
X275419D01*
Y347999D01*
X276002Y347416D01*
X374511Y390500D02*
Y393999D01*
X372762D01*
X372179Y393416D01*
Y392249D01*
X372762Y391666D01*
X374511D01*
X373345D02*
X372179Y390500D01*
X368680Y393999D02*
X371012D01*
Y392249D01*
X369846Y392833D01*
X369263D01*
X368680Y392249D01*
Y391083D01*
X369263Y390500D01*
X370429D01*
X371012Y391083D01*
X367514Y390500D02*
X366347D01*
X366931D01*
Y393999D01*
X367514Y393416D01*
X389000Y384500D02*
Y387999D01*
X387251D01*
X386667Y387416D01*
Y386249D01*
X387251Y385666D01*
X389000D01*
X387834D02*
X386667Y384500D01*
X383169Y387999D02*
X385501D01*
Y386249D01*
X384335Y386833D01*
X383752D01*
X383169Y386249D01*
Y385083D01*
X383752Y384500D01*
X384918D01*
X385501Y385083D01*
X382002Y387416D02*
X381419Y387999D01*
X380253D01*
X379670Y387416D01*
Y385083D01*
X380253Y384500D01*
X381419D01*
X382002Y385083D01*
Y387416D01*
X262167Y348416D02*
X262751Y348999D01*
X263917D01*
X264500Y348416D01*
Y346083D01*
X263917Y345500D01*
X262751D01*
X262167Y346083D01*
X261001Y348416D02*
X260418Y348999D01*
X259252D01*
X258669Y348416D01*
Y347833D01*
X259252Y347249D01*
X259835D01*
X259252D01*
X258669Y346666D01*
Y346083D01*
X259252Y345500D01*
X260418D01*
X261001Y346083D01*
X257502Y348416D02*
X256919Y348999D01*
X255753D01*
X255170Y348416D01*
Y346083D01*
X255753Y345500D01*
X256919D01*
X257502Y346083D01*
Y348416D01*
X252167Y362916D02*
X252751Y363499D01*
X253917D01*
X254500Y362916D01*
Y360583D01*
X253917Y360000D01*
X252751D01*
X252167Y360583D01*
X248669Y360000D02*
X251001D01*
X248669Y362333D01*
Y362916D01*
X249252Y363499D01*
X250418D01*
X251001Y362916D01*
X247502Y360583D02*
X246919Y360000D01*
X245753D01*
X245170Y360583D01*
Y362916D01*
X245753Y363499D01*
X246919D01*
X247502Y362916D01*
Y362333D01*
X246919Y361749D01*
X245170D01*
X305000Y421000D02*
Y424499D01*
X303251D01*
X302667Y423916D01*
Y422749D01*
X303251Y422166D01*
X305000D01*
X303834D02*
X302667Y421000D01*
X301501Y423916D02*
X300918Y424499D01*
X299752D01*
X299169Y423916D01*
Y423333D01*
X299752Y422749D01*
X300335D01*
X299752D01*
X299169Y422166D01*
Y421583D01*
X299752Y421000D01*
X300918D01*
X301501Y421583D01*
X295670Y421000D02*
X298002D01*
X295670Y423333D01*
Y423916D01*
X296253Y424499D01*
X297419D01*
X298002Y423916D01*
%TF.MD5,ea380fa4358f667696095cc6c203efc1*%
M02*
