%TF.GenerationSoftware,Altium Limited,Altium Designer,18.1.6 (161)*%
G04 Layer_Color=8388736*
%FSLAX26Y26*%
%MOIN*%
%TF.FileFunction,Soldermask,Top*%
%TF.Part,Single*%
G01*
G75*
%TA.AperFunction,SMDPad,CuDef*%
%ADD46R,0.041465X0.059181*%
%ADD47R,0.061150X0.045402*%
%ADD48R,0.045402X0.061150*%
%TA.AperFunction,ComponentPad*%
%ADD50C,0.058000*%
%ADD51O,0.089102X0.089102*%
%TA.AperFunction,ViaPad*%
%ADD52C,0.033000*%
%ADD53C,0.038000*%
%ADD54C,0.058000*%
%TA.AperFunction,SMDPad,CuDef*%
%ADD56R,0.145795X0.084772*%
G04:AMPARAMS|DCode=57|XSize=47.37mil|YSize=43.433mil|CornerRadius=0mil|HoleSize=0mil|Usage=FLASHONLY|Rotation=315.000|XOffset=0mil|YOffset=0mil|HoleType=Round|Shape=Rectangle|*
%AMROTATEDRECTD57*
4,1,4,-0.032104,0.001392,-0.001392,0.032104,0.032104,-0.001392,0.001392,-0.032104,-0.032104,0.001392,0.0*
%
%ADD57ROTATEDRECTD57*%

G04:AMPARAMS|DCode=58|XSize=23.748mil|YSize=39.496mil|CornerRadius=0mil|HoleSize=0mil|Usage=FLASHONLY|Rotation=315.000|XOffset=0mil|YOffset=0mil|HoleType=Round|Shape=Rectangle|*
%AMROTATEDRECTD58*
4,1,4,-0.022360,-0.005568,0.005568,0.022360,0.022360,0.005568,-0.005568,-0.022360,-0.022360,-0.005568,0.0*
%
%ADD58ROTATEDRECTD58*%

%ADD59R,0.059181X0.041465*%
%ADD60R,0.047370X0.031622*%
%ADD61R,0.045402X0.043433*%
%ADD62R,0.054457X0.030835*%
%ADD63R,0.102488X0.250913*%
%ADD64O,0.063118X0.021779*%
%ADD65R,0.047370X0.043433*%
%ADD66R,0.023748X0.039496*%
G04:AMPARAMS|DCode=67|XSize=47.37mil|YSize=43.433mil|CornerRadius=0mil|HoleSize=0mil|Usage=FLASHONLY|Rotation=45.000|XOffset=0mil|YOffset=0mil|HoleType=Round|Shape=Rectangle|*
%AMROTATEDRECTD67*
4,1,4,-0.001392,-0.032104,-0.032104,-0.001392,0.001392,0.032104,0.032104,0.001392,-0.001392,-0.032104,0.0*
%
%ADD67ROTATEDRECTD67*%

G04:AMPARAMS|DCode=68|XSize=23.748mil|YSize=39.496mil|CornerRadius=0mil|HoleSize=0mil|Usage=FLASHONLY|Rotation=45.000|XOffset=0mil|YOffset=0mil|HoleType=Round|Shape=Rectangle|*
%AMROTATEDRECTD68*
4,1,4,0.005568,-0.022360,-0.022360,0.005568,-0.005568,0.022360,0.022360,-0.005568,0.005568,-0.022360,0.0*
%
%ADD68ROTATEDRECTD68*%

%ADD69R,0.043433X0.047370*%
%ADD70R,0.039496X0.023748*%
%ADD71R,0.084772X0.145795*%
%ADD72R,0.035559X0.043433*%
%ADD73R,0.053276X0.065087*%
%ADD74R,0.058591X0.065874*%
D46*
X3283465Y2975000D02*
D03*
X3216535D02*
D03*
X2751535Y2325000D02*
D03*
X2818465D02*
D03*
X3251535Y2435000D02*
D03*
X3318465D02*
D03*
X3572827Y2650000D02*
D03*
X3639756D02*
D03*
X2505000Y2630000D02*
D03*
X2571929D02*
D03*
X2573465Y2550000D02*
D03*
X2506535D02*
D03*
X3003465Y3145000D02*
D03*
X2936535D02*
D03*
X2510000Y2905000D02*
D03*
X2576929D02*
D03*
X2578465Y2840000D02*
D03*
X2511535D02*
D03*
X3638465Y2575000D02*
D03*
X3571535D02*
D03*
X2226535Y2210000D02*
D03*
X2293465D02*
D03*
X2231535Y2125000D02*
D03*
X2298465D02*
D03*
X2228071Y2046483D02*
D03*
X2295000D02*
D03*
X1766535Y3245000D02*
D03*
X1833465D02*
D03*
X1766535Y3160000D02*
D03*
X1833465D02*
D03*
X1766535Y3080000D02*
D03*
X1833465D02*
D03*
X2201535Y4185000D02*
D03*
X2268465D02*
D03*
X2198071Y4050000D02*
D03*
X2265000D02*
D03*
X2201535Y4115000D02*
D03*
X2268465D02*
D03*
X2783465Y2005000D02*
D03*
X2716535D02*
D03*
X2663465Y1800000D02*
D03*
X2596535D02*
D03*
X2903465Y1685000D02*
D03*
X2836535D02*
D03*
X4048465Y2000000D02*
D03*
X3981535D02*
D03*
X4078465Y2130000D02*
D03*
X4011535D02*
D03*
X4083465Y2235000D02*
D03*
X4016535D02*
D03*
X4028465Y3991535D02*
D03*
X3961535D02*
D03*
X4023465Y4080000D02*
D03*
X3956535D02*
D03*
X4023465Y4175000D02*
D03*
X3956535D02*
D03*
X2610118Y3700000D02*
D03*
X2677047D02*
D03*
X4553465Y3090000D02*
D03*
X4486535D02*
D03*
X4553465Y3170000D02*
D03*
X4486535D02*
D03*
X4553465Y3245000D02*
D03*
X4486535D02*
D03*
D47*
X3191496Y3585000D02*
D03*
Y3522008D02*
D03*
X3460000Y3034094D02*
D03*
Y2971102D02*
D03*
X3685000Y2388504D02*
D03*
Y2451496D02*
D03*
X3037598Y2253504D02*
D03*
Y2316496D02*
D03*
X2580000Y3106496D02*
D03*
Y3043504D02*
D03*
X3116496Y3585000D02*
D03*
Y3522008D02*
D03*
X4100000Y3026496D02*
D03*
Y2963504D02*
D03*
Y3461496D02*
D03*
Y3398504D02*
D03*
X3280000Y4205000D02*
D03*
Y4142008D02*
D03*
X3190000Y4206496D02*
D03*
Y4143504D02*
D03*
D48*
X3501496Y2650000D02*
D03*
X3438504D02*
D03*
X2753504Y2415000D02*
D03*
X2816496D02*
D03*
X3253504Y2507598D02*
D03*
X3316496D02*
D03*
X3501496Y2575000D02*
D03*
X3438504D02*
D03*
X2651969Y2553031D02*
D03*
X2714961D02*
D03*
X2656969Y2630000D02*
D03*
X2719961D02*
D03*
X3001496Y3055000D02*
D03*
X2938504D02*
D03*
X2650472Y2840000D02*
D03*
X2713465D02*
D03*
X2650472Y2915000D02*
D03*
X2713465D02*
D03*
D50*
X2949606Y4330709D02*
D03*
X3049606D02*
D03*
X3149606D02*
D03*
X3249606D02*
D03*
X3349606Y4335709D02*
D03*
Y4430709D02*
D03*
X3249606D02*
D03*
X3149606D02*
D03*
X3049606D02*
D03*
X2949606D02*
D03*
Y2068504D02*
D03*
X3049606D02*
D03*
X3149606D02*
D03*
X3249606D02*
D03*
X3349606D02*
D03*
Y1973504D02*
D03*
X3249606Y1968504D02*
D03*
X3149606D02*
D03*
X3049606D02*
D03*
X2949606D02*
D03*
X4265000Y2965000D02*
D03*
Y3465000D02*
D03*
D51*
X3520000Y1890000D02*
D03*
D52*
X4500000Y3750000D02*
D03*
X4575000Y3600000D02*
D03*
X4500000Y2850000D02*
D03*
X4350000Y4050000D02*
D03*
X4425000Y3900000D02*
D03*
X4350000Y3750000D02*
D03*
X4425000Y3600000D02*
D03*
X4350000Y3450000D02*
D03*
X4425000Y3300000D02*
D03*
X4350000Y3150000D02*
D03*
X4425000Y3000000D02*
D03*
X4350000Y2850000D02*
D03*
X4425000Y2700000D02*
D03*
X4350000Y2550000D02*
D03*
X4275000Y3900000D02*
D03*
X4200000Y3750000D02*
D03*
X4275000Y3600000D02*
D03*
Y3300000D02*
D03*
X4200000Y3150000D02*
D03*
Y2850000D02*
D03*
X4275000Y2700000D02*
D03*
Y2400000D02*
D03*
X4200000Y2250000D02*
D03*
X4125000Y3900000D02*
D03*
X4050000Y3750000D02*
D03*
X4125000Y3300000D02*
D03*
X4050000Y3150000D02*
D03*
Y2850000D02*
D03*
X3975000Y3900000D02*
D03*
X3900000Y3750000D02*
D03*
Y3450000D02*
D03*
Y3150000D02*
D03*
Y2850000D02*
D03*
Y2550000D02*
D03*
X3975000Y2400000D02*
D03*
X3900000Y2250000D02*
D03*
X3975000Y2100000D02*
D03*
X3825000Y4200000D02*
D03*
X3750000Y4050000D02*
D03*
Y3750000D02*
D03*
X3825000Y3600000D02*
D03*
X3750000Y3450000D02*
D03*
X3825000Y3300000D02*
D03*
Y3000000D02*
D03*
Y2700000D02*
D03*
X3750000Y2550000D02*
D03*
X3825000Y2400000D02*
D03*
X3750000Y2250000D02*
D03*
X3825000Y2100000D02*
D03*
X3750000Y1950000D02*
D03*
X3600000Y4350000D02*
D03*
Y4050000D02*
D03*
X3675000Y3900000D02*
D03*
Y3600000D02*
D03*
X3600000Y3450000D02*
D03*
X3675000Y3300000D02*
D03*
X3600000Y3150000D02*
D03*
X3675000Y3000000D02*
D03*
X3600000Y2850000D02*
D03*
Y2250000D02*
D03*
X3675000Y2100000D02*
D03*
X3450000Y4350000D02*
D03*
X3525000Y4200000D02*
D03*
X3450000Y4050000D02*
D03*
X3525000Y3900000D02*
D03*
Y3600000D02*
D03*
X3450000Y3450000D02*
D03*
X3525000Y3300000D02*
D03*
X3450000Y3150000D02*
D03*
X3525000Y3000000D02*
D03*
X3450000Y2850000D02*
D03*
X3375000Y4200000D02*
D03*
Y3600000D02*
D03*
X3300000Y3450000D02*
D03*
X3375000Y3300000D02*
D03*
X3300000Y3150000D02*
D03*
Y2850000D02*
D03*
Y2250000D02*
D03*
X3150000Y3450000D02*
D03*
X3225000Y3300000D02*
D03*
X3150000Y3150000D02*
D03*
Y2550000D02*
D03*
X3000000Y3450000D02*
D03*
X3075000Y3300000D02*
D03*
Y3000000D02*
D03*
X3000000Y2550000D02*
D03*
X3075000Y2400000D02*
D03*
X2925000Y3600000D02*
D03*
Y3300000D02*
D03*
X2850000Y3150000D02*
D03*
Y2250000D02*
D03*
X2700000Y4350000D02*
D03*
X2775000Y3600000D02*
D03*
X2700000Y3450000D02*
D03*
X2775000Y3300000D02*
D03*
Y2700000D02*
D03*
X2550000Y4350000D02*
D03*
X2625000Y4200000D02*
D03*
X2550000Y4050000D02*
D03*
X2625000Y3600000D02*
D03*
Y3300000D02*
D03*
Y2700000D02*
D03*
X2550000Y2250000D02*
D03*
X2475000Y4200000D02*
D03*
X2400000Y4050000D02*
D03*
X2475000Y3900000D02*
D03*
X2400000Y3750000D02*
D03*
X2475000Y3600000D02*
D03*
X2400000Y3450000D02*
D03*
X2475000Y3300000D02*
D03*
X2400000Y3150000D02*
D03*
Y2250000D02*
D03*
X2475000Y2100000D02*
D03*
X2325000Y3900000D02*
D03*
X2250000Y3750000D02*
D03*
X2325000Y3600000D02*
D03*
X2250000Y3450000D02*
D03*
X2325000Y3300000D02*
D03*
X2250000Y3150000D02*
D03*
X2325000Y3000000D02*
D03*
X2250000Y2850000D02*
D03*
X2325000Y2700000D02*
D03*
X2250000Y2550000D02*
D03*
X2325000Y2400000D02*
D03*
X2175000Y3900000D02*
D03*
X2100000Y3750000D02*
D03*
X2175000Y3600000D02*
D03*
X2100000Y3450000D02*
D03*
X2175000Y3300000D02*
D03*
X2100000Y3150000D02*
D03*
X2175000Y3000000D02*
D03*
X2100000Y2850000D02*
D03*
X2175000Y2700000D02*
D03*
X2100000Y2550000D02*
D03*
X2175000Y2400000D02*
D03*
X2025000Y3900000D02*
D03*
X1950000Y3750000D02*
D03*
X2025000Y3600000D02*
D03*
X1950000Y3450000D02*
D03*
X2025000Y3300000D02*
D03*
Y3000000D02*
D03*
X1950000Y2850000D02*
D03*
X2025000Y2700000D02*
D03*
X1950000Y2550000D02*
D03*
X2025000Y2400000D02*
D03*
X1875000Y3600000D02*
D03*
Y3300000D02*
D03*
Y2700000D02*
D03*
D53*
X3344724Y4635000D02*
D03*
X2912220Y4505000D02*
D03*
X3745000Y2068504D02*
D03*
X3375000Y4590000D02*
D03*
X3930000Y4334460D02*
D03*
X3080000Y4130000D02*
D03*
X2571929Y2480000D02*
D03*
X2625000Y2330000D02*
D03*
X2895000Y3922047D02*
D03*
X2700000Y2215000D02*
D03*
X2423032Y3060000D02*
D03*
X2510000Y2980000D02*
D03*
X2700000Y2380000D02*
D03*
X3160000Y2965000D02*
D03*
X2945000Y2740000D02*
D03*
X2910000Y3965000D02*
D03*
X2605000Y3855000D02*
D03*
X2555000Y3700000D02*
D03*
X3775000Y4510261D02*
D03*
X2077043Y4015000D02*
D03*
X3348708Y1786292D02*
D03*
X2335000Y4308465D02*
D03*
X2270000Y4310000D02*
D03*
X2205000D02*
D03*
X3900000Y4399457D02*
D03*
X3965000Y4260061D02*
D03*
X2420000Y1935000D02*
D03*
X2470000Y1860000D02*
D03*
X2766306Y1826306D02*
D03*
X3415000Y1756958D02*
D03*
X1745000Y2965000D02*
D03*
X4558110Y2990000D02*
D03*
X2860000Y3600000D02*
D03*
X2995000Y1700000D02*
D03*
X3930000Y1920000D02*
D03*
X2995000Y4560000D02*
D03*
X4600000Y3020000D02*
D03*
X4645000Y3025000D02*
D03*
X2020000Y2290000D02*
D03*
X2059875Y2185000D02*
D03*
X2355000Y2025000D02*
D03*
X1780000Y3015000D02*
D03*
X1705000Y3340000D02*
D03*
X4519631Y3319631D02*
D03*
X4130000Y2180000D02*
D03*
X4055000Y2055000D02*
D03*
X4290000Y4120000D02*
D03*
X4120000Y2010000D02*
D03*
X3020000Y1660000D02*
D03*
X2005000Y2190000D02*
D03*
X1660000Y3290000D02*
D03*
D54*
X3075000Y3810000D02*
D03*
Y3885000D02*
D03*
Y3960000D02*
D03*
D56*
X2829213Y3470000D02*
D03*
X2559528D02*
D03*
D57*
X2045000Y2130000D02*
D03*
X2128517Y2046483D02*
D03*
X4231758Y4148242D02*
D03*
X4148242Y4231758D02*
D03*
D58*
X2110421Y2089634D02*
D03*
X2088150Y2111905D02*
D03*
X4166337Y4188608D02*
D03*
X4188608Y4166337D02*
D03*
D59*
X3370000Y3033465D02*
D03*
Y2966535D02*
D03*
X3595000Y2386535D02*
D03*
Y2453465D02*
D03*
X3348708Y2576535D02*
D03*
Y2643465D02*
D03*
X3110000Y2251535D02*
D03*
Y2318465D02*
D03*
X2680000Y3108465D02*
D03*
Y3041535D02*
D03*
X2793465Y2908465D02*
D03*
Y2841535D02*
D03*
X2798465Y2556535D02*
D03*
Y2623465D02*
D03*
X3010000Y4208465D02*
D03*
Y4141535D02*
D03*
X3085000Y1751535D02*
D03*
Y1818465D02*
D03*
X3165354Y1751535D02*
D03*
Y1818465D02*
D03*
X3245000Y1751535D02*
D03*
Y1818465D02*
D03*
X3075000Y4578465D02*
D03*
Y4511535D02*
D03*
X3225000Y4578465D02*
D03*
Y4511535D02*
D03*
X3149606Y4578465D02*
D03*
Y4511535D02*
D03*
X2850000Y4050000D02*
D03*
Y3983071D02*
D03*
X2920000Y4203465D02*
D03*
Y4136535D02*
D03*
D60*
X2544134Y2417402D02*
D03*
Y2380000D02*
D03*
Y2342599D02*
D03*
X2435866D02*
D03*
Y2380000D02*
D03*
Y2417402D02*
D03*
D61*
X3395787Y2362598D02*
D03*
X3494213Y2400000D02*
D03*
X3395787Y2437402D02*
D03*
X2875787Y2342598D02*
D03*
X2974213Y2380000D02*
D03*
X2875787Y2417402D02*
D03*
X2862717Y3077402D02*
D03*
X2764291Y3040000D02*
D03*
X2862717Y3002598D02*
D03*
X2788425Y2147402D02*
D03*
X2690000Y2110000D02*
D03*
X2788425Y2072598D02*
D03*
X2669213Y1947402D02*
D03*
X2570787Y1910000D02*
D03*
X2669213Y1872598D02*
D03*
X2909213Y1822402D02*
D03*
X2810787Y1785000D02*
D03*
X2909213Y1747598D02*
D03*
D62*
X3015276Y2890000D02*
D03*
Y2840000D02*
D03*
Y2790000D02*
D03*
Y2740000D02*
D03*
Y2690000D02*
D03*
Y2640000D02*
D03*
Y2590000D02*
D03*
X3224724D02*
D03*
Y2640000D02*
D03*
Y2690000D02*
D03*
Y2740000D02*
D03*
Y2790000D02*
D03*
Y2840000D02*
D03*
Y2890000D02*
D03*
D63*
X3075000Y3885000D02*
D03*
D64*
X3185236Y3718661D02*
D03*
Y3744252D02*
D03*
Y3769843D02*
D03*
Y3795433D02*
D03*
Y3821024D02*
D03*
Y3846614D02*
D03*
Y3872205D02*
D03*
Y3897795D02*
D03*
Y3923386D02*
D03*
Y3948976D02*
D03*
Y3974567D02*
D03*
Y4000157D02*
D03*
Y4025748D02*
D03*
Y4051339D02*
D03*
X2964764Y3718661D02*
D03*
Y3744252D02*
D03*
Y3769843D02*
D03*
Y3795433D02*
D03*
Y3821024D02*
D03*
Y3846614D02*
D03*
Y3872205D02*
D03*
Y3897795D02*
D03*
Y3923386D02*
D03*
Y3948976D02*
D03*
Y3974567D02*
D03*
Y4000157D02*
D03*
Y4025748D02*
D03*
Y4051339D02*
D03*
D65*
X3090551Y1653543D02*
D03*
X3208661D02*
D03*
X3208661Y4645669D02*
D03*
X3090551D02*
D03*
D66*
X3165354Y1671260D02*
D03*
X3133858D02*
D03*
X3133858Y4627953D02*
D03*
X3165354D02*
D03*
D67*
X4161905Y2051850D02*
D03*
X4245421Y2135366D02*
D03*
X2141758Y4241758D02*
D03*
X2058242Y4158242D02*
D03*
D68*
X4202271Y2117271D02*
D03*
X4180000Y2095000D02*
D03*
X2101392Y4176337D02*
D03*
X2123663Y4198608D02*
D03*
D69*
X4645669Y3090551D02*
D03*
Y3208661D02*
D03*
X1653543Y3090551D02*
D03*
Y3208661D02*
D03*
D70*
X4627953Y3165354D02*
D03*
Y3133858D02*
D03*
X1671260Y3165354D02*
D03*
Y3133858D02*
D03*
D71*
X3640000Y4255158D02*
D03*
Y4524842D02*
D03*
D72*
X2704882Y3825000D02*
D03*
X2760000D02*
D03*
X2705000Y3770000D02*
D03*
X2760118D02*
D03*
X2610118Y3905315D02*
D03*
X2555000D02*
D03*
X2740000Y3890000D02*
D03*
X2795118D02*
D03*
D73*
X3359567Y3795000D02*
D03*
X3430433D02*
D03*
X3359567Y3973228D02*
D03*
X3430433D02*
D03*
D74*
X3581713Y3979724D02*
D03*
X3658287D02*
D03*
X3581713Y3795000D02*
D03*
X3658287D02*
D03*
%TF.MD5,ad6181eac98d98a8d8e14300d3e5f07a*%
M02*
