%TF.GenerationSoftware,Altium Limited,Altium Designer,18.1.6 (161)*%
G04 Layer_Color=2752767*
%FSLAX26Y26*%
%MOIN*%
%TF.FileFunction,Drawing*%
%TF.Part,Single*%
G01*
G75*
%TA.AperFunction,NonConductor*%
%ADD85C,0.005000*%
%ADD86C,0.006667*%
D85*
X2929606Y4310709D02*
Y4350709D01*
X2969606D01*
Y4310709D01*
X2929606D01*
X3029606D02*
Y4350709D01*
X3069606D01*
Y4310709D01*
X3029606D01*
X3129606D02*
Y4350709D01*
X3169606D01*
Y4310709D01*
X3129606D01*
X3229606D02*
Y4350709D01*
X3269606D01*
Y4310709D01*
X3229606D01*
X3329606Y4315709D02*
Y4355709D01*
X3369606D01*
Y4315709D01*
X3329606D01*
Y4410709D02*
Y4450709D01*
X3369606D01*
Y4410709D01*
X3329606D01*
X3229606D02*
Y4450709D01*
X3269606D01*
Y4410709D01*
X3229606D01*
X3129606D02*
Y4450709D01*
X3169606D01*
Y4410709D01*
X3129606D01*
X3029606D02*
Y4450709D01*
X3069606D01*
Y4410709D01*
X3029606D01*
X2929606D02*
Y4450709D01*
X2969606D01*
Y4410709D01*
X2929606D01*
Y2048504D02*
Y2088504D01*
X2969606D01*
Y2048504D01*
X2929606D01*
X3029606D02*
Y2088504D01*
X3069606D01*
Y2048504D01*
X3029606D01*
X3129606D02*
Y2088504D01*
X3169606D01*
Y2048504D01*
X3129606D01*
X3229606D02*
Y2088504D01*
X3269606D01*
Y2048504D01*
X3229606D01*
X3329606D02*
Y2088504D01*
X3369606D01*
Y2048504D01*
X3329606D01*
Y1953504D02*
Y1993504D01*
X3369606D01*
Y1953504D01*
X3329606D01*
X3229606Y1948504D02*
Y1988504D01*
X3269606D01*
Y1948504D01*
X3229606D01*
X3129606D02*
Y1988504D01*
X3169606D01*
Y1948504D01*
X3129606D01*
X3029606D02*
Y1988504D01*
X3069606D01*
Y1948504D01*
X3029606D01*
X2929606D02*
Y1988504D01*
X2969606D01*
Y1948504D01*
X2929606D01*
X4245000Y2945000D02*
Y2985000D01*
X4285000D01*
Y2945000D01*
X4245000D01*
Y3445000D02*
Y3485000D01*
X4285000D01*
Y3445000D01*
X4245000D01*
X4500000Y3730000D02*
X4480000Y3770000D01*
X4520000D01*
X4500000Y3730000D01*
X4575000Y3580000D02*
X4555000Y3620000D01*
X4595000D01*
X4575000Y3580000D01*
X4500000Y2830000D02*
X4480000Y2870000D01*
X4520000D01*
X4500000Y2830000D01*
X4350000Y4030000D02*
X4330000Y4070000D01*
X4370000D01*
X4350000Y4030000D01*
X4425000Y3880000D02*
X4405000Y3920000D01*
X4445000D01*
X4425000Y3880000D01*
X4350000Y3730000D02*
X4330000Y3770000D01*
X4370000D01*
X4350000Y3730000D01*
X4425000Y3580000D02*
X4405000Y3620000D01*
X4445000D01*
X4425000Y3580000D01*
X4350000Y3430000D02*
X4330000Y3470000D01*
X4370000D01*
X4350000Y3430000D01*
X4425000Y3280000D02*
X4405000Y3320000D01*
X4445000D01*
X4425000Y3280000D01*
X4350000Y3130000D02*
X4330000Y3170000D01*
X4370000D01*
X4350000Y3130000D01*
X4425000Y2980000D02*
X4405000Y3020000D01*
X4445000D01*
X4425000Y2980000D01*
X4350000Y2830000D02*
X4330000Y2870000D01*
X4370000D01*
X4350000Y2830000D01*
X4425000Y2680000D02*
X4405000Y2720000D01*
X4445000D01*
X4425000Y2680000D01*
X4350000Y2530000D02*
X4330000Y2570000D01*
X4370000D01*
X4350000Y2530000D01*
X4275000Y3880000D02*
X4255000Y3920000D01*
X4295000D01*
X4275000Y3880000D01*
X4200000Y3730000D02*
X4180000Y3770000D01*
X4220000D01*
X4200000Y3730000D01*
X4275000Y3580000D02*
X4255000Y3620000D01*
X4295000D01*
X4275000Y3580000D01*
Y3280000D02*
X4255000Y3320000D01*
X4295000D01*
X4275000Y3280000D01*
X4200000Y3130000D02*
X4180000Y3170000D01*
X4220000D01*
X4200000Y3130000D01*
Y2830000D02*
X4180000Y2870000D01*
X4220000D01*
X4200000Y2830000D01*
X4275000Y2680000D02*
X4255000Y2720000D01*
X4295000D01*
X4275000Y2680000D01*
Y2380000D02*
X4255000Y2420000D01*
X4295000D01*
X4275000Y2380000D01*
X4200000Y2230000D02*
X4180000Y2270000D01*
X4220000D01*
X4200000Y2230000D01*
X4125000Y3880000D02*
X4105000Y3920000D01*
X4145000D01*
X4125000Y3880000D01*
X4050000Y3730000D02*
X4030000Y3770000D01*
X4070000D01*
X4050000Y3730000D01*
X4125000Y3280000D02*
X4105000Y3320000D01*
X4145000D01*
X4125000Y3280000D01*
X4050000Y3130000D02*
X4030000Y3170000D01*
X4070000D01*
X4050000Y3130000D01*
Y2830000D02*
X4030000Y2870000D01*
X4070000D01*
X4050000Y2830000D01*
X3975000Y3880000D02*
X3955000Y3920000D01*
X3995000D01*
X3975000Y3880000D01*
X3900000Y3730000D02*
X3880000Y3770000D01*
X3920000D01*
X3900000Y3730000D01*
Y3430000D02*
X3880000Y3470000D01*
X3920000D01*
X3900000Y3430000D01*
Y3130000D02*
X3880000Y3170000D01*
X3920000D01*
X3900000Y3130000D01*
Y2830000D02*
X3880000Y2870000D01*
X3920000D01*
X3900000Y2830000D01*
Y2530000D02*
X3880000Y2570000D01*
X3920000D01*
X3900000Y2530000D01*
X3975000Y2380000D02*
X3955000Y2420000D01*
X3995000D01*
X3975000Y2380000D01*
X3900000Y2230000D02*
X3880000Y2270000D01*
X3920000D01*
X3900000Y2230000D01*
X3975000Y2080000D02*
X3955000Y2120000D01*
X3995000D01*
X3975000Y2080000D01*
X3825000Y4180000D02*
X3805000Y4220000D01*
X3845000D01*
X3825000Y4180000D01*
X3750000Y4030000D02*
X3730000Y4070000D01*
X3770000D01*
X3750000Y4030000D01*
Y3730000D02*
X3730000Y3770000D01*
X3770000D01*
X3750000Y3730000D01*
X3825000Y3580000D02*
X3805000Y3620000D01*
X3845000D01*
X3825000Y3580000D01*
X3750000Y3430000D02*
X3730000Y3470000D01*
X3770000D01*
X3750000Y3430000D01*
X3825000Y3280000D02*
X3805000Y3320000D01*
X3845000D01*
X3825000Y3280000D01*
Y2980000D02*
X3805000Y3020000D01*
X3845000D01*
X3825000Y2980000D01*
Y2680000D02*
X3805000Y2720000D01*
X3845000D01*
X3825000Y2680000D01*
X3750000Y2530000D02*
X3730000Y2570000D01*
X3770000D01*
X3750000Y2530000D01*
X3825000Y2380000D02*
X3805000Y2420000D01*
X3845000D01*
X3825000Y2380000D01*
X3750000Y2230000D02*
X3730000Y2270000D01*
X3770000D01*
X3750000Y2230000D01*
X3825000Y2080000D02*
X3805000Y2120000D01*
X3845000D01*
X3825000Y2080000D01*
X3750000Y1930000D02*
X3730000Y1970000D01*
X3770000D01*
X3750000Y1930000D01*
X3600000Y4330000D02*
X3580000Y4370000D01*
X3620000D01*
X3600000Y4330000D01*
Y4030000D02*
X3580000Y4070000D01*
X3620000D01*
X3600000Y4030000D01*
X3675000Y3880000D02*
X3655000Y3920000D01*
X3695000D01*
X3675000Y3880000D01*
Y3580000D02*
X3655000Y3620000D01*
X3695000D01*
X3675000Y3580000D01*
X3600000Y3430000D02*
X3580000Y3470000D01*
X3620000D01*
X3600000Y3430000D01*
X3675000Y3280000D02*
X3655000Y3320000D01*
X3695000D01*
X3675000Y3280000D01*
X3600000Y3130000D02*
X3580000Y3170000D01*
X3620000D01*
X3600000Y3130000D01*
X3675000Y2980000D02*
X3655000Y3020000D01*
X3695000D01*
X3675000Y2980000D01*
X3600000Y2830000D02*
X3580000Y2870000D01*
X3620000D01*
X3600000Y2830000D01*
Y2230000D02*
X3580000Y2270000D01*
X3620000D01*
X3600000Y2230000D01*
X3675000Y2080000D02*
X3655000Y2120000D01*
X3695000D01*
X3675000Y2080000D01*
X3450000Y4330000D02*
X3430000Y4370000D01*
X3470000D01*
X3450000Y4330000D01*
X3525000Y4180000D02*
X3505000Y4220000D01*
X3545000D01*
X3525000Y4180000D01*
X3450000Y4030000D02*
X3430000Y4070000D01*
X3470000D01*
X3450000Y4030000D01*
X3525000Y3880000D02*
X3505000Y3920000D01*
X3545000D01*
X3525000Y3880000D01*
Y3580000D02*
X3505000Y3620000D01*
X3545000D01*
X3525000Y3580000D01*
X3450000Y3430000D02*
X3430000Y3470000D01*
X3470000D01*
X3450000Y3430000D01*
X3525000Y3280000D02*
X3505000Y3320000D01*
X3545000D01*
X3525000Y3280000D01*
X3450000Y3130000D02*
X3430000Y3170000D01*
X3470000D01*
X3450000Y3130000D01*
X3525000Y2980000D02*
X3505000Y3020000D01*
X3545000D01*
X3525000Y2980000D01*
X3450000Y2830000D02*
X3430000Y2870000D01*
X3470000D01*
X3450000Y2830000D01*
X3375000Y4180000D02*
X3355000Y4220000D01*
X3395000D01*
X3375000Y4180000D01*
Y3580000D02*
X3355000Y3620000D01*
X3395000D01*
X3375000Y3580000D01*
X3300000Y3430000D02*
X3280000Y3470000D01*
X3320000D01*
X3300000Y3430000D01*
X3375000Y3280000D02*
X3355000Y3320000D01*
X3395000D01*
X3375000Y3280000D01*
X3300000Y3130000D02*
X3280000Y3170000D01*
X3320000D01*
X3300000Y3130000D01*
Y2830000D02*
X3280000Y2870000D01*
X3320000D01*
X3300000Y2830000D01*
Y2230000D02*
X3280000Y2270000D01*
X3320000D01*
X3300000Y2230000D01*
X3150000Y3430000D02*
X3130000Y3470000D01*
X3170000D01*
X3150000Y3430000D01*
X3225000Y3280000D02*
X3205000Y3320000D01*
X3245000D01*
X3225000Y3280000D01*
X3150000Y3130000D02*
X3130000Y3170000D01*
X3170000D01*
X3150000Y3130000D01*
Y2530000D02*
X3130000Y2570000D01*
X3170000D01*
X3150000Y2530000D01*
X3000000Y3430000D02*
X2980000Y3470000D01*
X3020000D01*
X3000000Y3430000D01*
X3075000Y3280000D02*
X3055000Y3320000D01*
X3095000D01*
X3075000Y3280000D01*
Y2980000D02*
X3055000Y3020000D01*
X3095000D01*
X3075000Y2980000D01*
X3000000Y2530000D02*
X2980000Y2570000D01*
X3020000D01*
X3000000Y2530000D01*
X3075000Y2380000D02*
X3055000Y2420000D01*
X3095000D01*
X3075000Y2380000D01*
X2925000Y3580000D02*
X2905000Y3620000D01*
X2945000D01*
X2925000Y3580000D01*
Y3280000D02*
X2905000Y3320000D01*
X2945000D01*
X2925000Y3280000D01*
X2850000Y3130000D02*
X2830000Y3170000D01*
X2870000D01*
X2850000Y3130000D01*
Y2230000D02*
X2830000Y2270000D01*
X2870000D01*
X2850000Y2230000D01*
X2700000Y4330000D02*
X2680000Y4370000D01*
X2720000D01*
X2700000Y4330000D01*
X2775000Y3580000D02*
X2755000Y3620000D01*
X2795000D01*
X2775000Y3580000D01*
X2700000Y3430000D02*
X2680000Y3470000D01*
X2720000D01*
X2700000Y3430000D01*
X2775000Y3280000D02*
X2755000Y3320000D01*
X2795000D01*
X2775000Y3280000D01*
Y2680000D02*
X2755000Y2720000D01*
X2795000D01*
X2775000Y2680000D01*
X2550000Y4330000D02*
X2530000Y4370000D01*
X2570000D01*
X2550000Y4330000D01*
X2625000Y4180000D02*
X2605000Y4220000D01*
X2645000D01*
X2625000Y4180000D01*
X2550000Y4030000D02*
X2530000Y4070000D01*
X2570000D01*
X2550000Y4030000D01*
X2625000Y3580000D02*
X2605000Y3620000D01*
X2645000D01*
X2625000Y3580000D01*
Y3280000D02*
X2605000Y3320000D01*
X2645000D01*
X2625000Y3280000D01*
Y2680000D02*
X2605000Y2720000D01*
X2645000D01*
X2625000Y2680000D01*
X2550000Y2230000D02*
X2530000Y2270000D01*
X2570000D01*
X2550000Y2230000D01*
X2475000Y4180000D02*
X2455000Y4220000D01*
X2495000D01*
X2475000Y4180000D01*
X2400000Y4030000D02*
X2380000Y4070000D01*
X2420000D01*
X2400000Y4030000D01*
X2475000Y3880000D02*
X2455000Y3920000D01*
X2495000D01*
X2475000Y3880000D01*
X2400000Y3730000D02*
X2380000Y3770000D01*
X2420000D01*
X2400000Y3730000D01*
X2475000Y3580000D02*
X2455000Y3620000D01*
X2495000D01*
X2475000Y3580000D01*
X2400000Y3430000D02*
X2380000Y3470000D01*
X2420000D01*
X2400000Y3430000D01*
X2475000Y3280000D02*
X2455000Y3320000D01*
X2495000D01*
X2475000Y3280000D01*
X2400000Y3130000D02*
X2380000Y3170000D01*
X2420000D01*
X2400000Y3130000D01*
Y2230000D02*
X2380000Y2270000D01*
X2420000D01*
X2400000Y2230000D01*
X2475000Y2080000D02*
X2455000Y2120000D01*
X2495000D01*
X2475000Y2080000D01*
X2325000Y3880000D02*
X2305000Y3920000D01*
X2345000D01*
X2325000Y3880000D01*
X2250000Y3730000D02*
X2230000Y3770000D01*
X2270000D01*
X2250000Y3730000D01*
X2325000Y3580000D02*
X2305000Y3620000D01*
X2345000D01*
X2325000Y3580000D01*
X2250000Y3430000D02*
X2230000Y3470000D01*
X2270000D01*
X2250000Y3430000D01*
X2325000Y3280000D02*
X2305000Y3320000D01*
X2345000D01*
X2325000Y3280000D01*
X2250000Y3130000D02*
X2230000Y3170000D01*
X2270000D01*
X2250000Y3130000D01*
X2325000Y2980000D02*
X2305000Y3020000D01*
X2345000D01*
X2325000Y2980000D01*
X2250000Y2830000D02*
X2230000Y2870000D01*
X2270000D01*
X2250000Y2830000D01*
X2325000Y2680000D02*
X2305000Y2720000D01*
X2345000D01*
X2325000Y2680000D01*
X2250000Y2530000D02*
X2230000Y2570000D01*
X2270000D01*
X2250000Y2530000D01*
X2325000Y2380000D02*
X2305000Y2420000D01*
X2345000D01*
X2325000Y2380000D01*
X2175000Y3880000D02*
X2155000Y3920000D01*
X2195000D01*
X2175000Y3880000D01*
X2100000Y3730000D02*
X2080000Y3770000D01*
X2120000D01*
X2100000Y3730000D01*
X2175000Y3580000D02*
X2155000Y3620000D01*
X2195000D01*
X2175000Y3580000D01*
X2100000Y3430000D02*
X2080000Y3470000D01*
X2120000D01*
X2100000Y3430000D01*
X2175000Y3280000D02*
X2155000Y3320000D01*
X2195000D01*
X2175000Y3280000D01*
X2100000Y3130000D02*
X2080000Y3170000D01*
X2120000D01*
X2100000Y3130000D01*
X2175000Y2980000D02*
X2155000Y3020000D01*
X2195000D01*
X2175000Y2980000D01*
X2100000Y2830000D02*
X2080000Y2870000D01*
X2120000D01*
X2100000Y2830000D01*
X2175000Y2680000D02*
X2155000Y2720000D01*
X2195000D01*
X2175000Y2680000D01*
X2100000Y2530000D02*
X2080000Y2570000D01*
X2120000D01*
X2100000Y2530000D01*
X2175000Y2380000D02*
X2155000Y2420000D01*
X2195000D01*
X2175000Y2380000D01*
X2025000Y3880000D02*
X2005000Y3920000D01*
X2045000D01*
X2025000Y3880000D01*
X1950000Y3730000D02*
X1930000Y3770000D01*
X1970000D01*
X1950000Y3730000D01*
X2025000Y3580000D02*
X2005000Y3620000D01*
X2045000D01*
X2025000Y3580000D01*
X1950000Y3430000D02*
X1930000Y3470000D01*
X1970000D01*
X1950000Y3430000D01*
X2025000Y3280000D02*
X2005000Y3320000D01*
X2045000D01*
X2025000Y3280000D01*
Y2980000D02*
X2005000Y3020000D01*
X2045000D01*
X2025000Y2980000D01*
X1950000Y2830000D02*
X1930000Y2870000D01*
X1970000D01*
X1950000Y2830000D01*
X2025000Y2680000D02*
X2005000Y2720000D01*
X2045000D01*
X2025000Y2680000D01*
X1950000Y2530000D02*
X1930000Y2570000D01*
X1970000D01*
X1950000Y2530000D01*
X2025000Y2380000D02*
X2005000Y2420000D01*
X2045000D01*
X2025000Y2380000D01*
X1875000Y3580000D02*
X1855000Y3620000D01*
X1895000D01*
X1875000Y3580000D01*
Y3280000D02*
X1855000Y3320000D01*
X1895000D01*
X1875000Y3280000D01*
Y2680000D02*
X1855000Y2720000D01*
X1895000D01*
X1875000Y2680000D01*
X3344724Y4615000D02*
X3354724Y4625000D01*
X3364724D01*
X3354724Y4635000D01*
X3364724Y4645000D01*
X3354724D01*
X3344724Y4655000D01*
X3334724Y4645000D01*
X3324724D01*
X3334724Y4635000D01*
X3324724Y4625000D01*
X3334724D01*
X3344724Y4615000D01*
X2912220Y4485000D02*
X2922220Y4495000D01*
X2932220D01*
X2922220Y4505000D01*
X2932220Y4515000D01*
X2922220D01*
X2912220Y4525000D01*
X2902220Y4515000D01*
X2892220D01*
X2902220Y4505000D01*
X2892220Y4495000D01*
X2902220D01*
X2912220Y4485000D01*
X3745000Y2048504D02*
X3755000Y2058504D01*
X3765000D01*
X3755000Y2068504D01*
X3765000Y2078504D01*
X3755000D01*
X3745000Y2088504D01*
X3735000Y2078504D01*
X3725000D01*
X3735000Y2068504D01*
X3725000Y2058504D01*
X3735000D01*
X3745000Y2048504D01*
X3375000Y4570000D02*
X3385000Y4580000D01*
X3395000D01*
X3385000Y4590000D01*
X3395000Y4600000D01*
X3385000D01*
X3375000Y4610000D01*
X3365000Y4600000D01*
X3355000D01*
X3365000Y4590000D01*
X3355000Y4580000D01*
X3365000D01*
X3375000Y4570000D01*
X3930000Y4314460D02*
X3940000Y4324460D01*
X3950000D01*
X3940000Y4334460D01*
X3950000Y4344460D01*
X3940000D01*
X3930000Y4354460D01*
X3920000Y4344460D01*
X3910000D01*
X3920000Y4334460D01*
X3910000Y4324460D01*
X3920000D01*
X3930000Y4314460D01*
X3080000Y4110000D02*
X3090000Y4120000D01*
X3100000D01*
X3090000Y4130000D01*
X3100000Y4140000D01*
X3090000D01*
X3080000Y4150000D01*
X3070000Y4140000D01*
X3060000D01*
X3070000Y4130000D01*
X3060000Y4120000D01*
X3070000D01*
X3080000Y4110000D01*
X2571929Y2460000D02*
X2581929Y2470000D01*
X2591929D01*
X2581929Y2480000D01*
X2591929Y2490000D01*
X2581929D01*
X2571929Y2500000D01*
X2561929Y2490000D01*
X2551929D01*
X2561929Y2480000D01*
X2551929Y2470000D01*
X2561929D01*
X2571929Y2460000D01*
X2625000Y2310000D02*
X2635000Y2320000D01*
X2645000D01*
X2635000Y2330000D01*
X2645000Y2340000D01*
X2635000D01*
X2625000Y2350000D01*
X2615000Y2340000D01*
X2605000D01*
X2615000Y2330000D01*
X2605000Y2320000D01*
X2615000D01*
X2625000Y2310000D01*
X2895000Y3902047D02*
X2905000Y3912047D01*
X2915000D01*
X2905000Y3922047D01*
X2915000Y3932047D01*
X2905000D01*
X2895000Y3942047D01*
X2885000Y3932047D01*
X2875000D01*
X2885000Y3922047D01*
X2875000Y3912047D01*
X2885000D01*
X2895000Y3902047D01*
X2700000Y2195000D02*
X2710000Y2205000D01*
X2720000D01*
X2710000Y2215000D01*
X2720000Y2225000D01*
X2710000D01*
X2700000Y2235000D01*
X2690000Y2225000D01*
X2680000D01*
X2690000Y2215000D01*
X2680000Y2205000D01*
X2690000D01*
X2700000Y2195000D01*
X2423032Y3040000D02*
X2433032Y3050000D01*
X2443032D01*
X2433032Y3060000D01*
X2443032Y3070000D01*
X2433032D01*
X2423032Y3080000D01*
X2413032Y3070000D01*
X2403032D01*
X2413032Y3060000D01*
X2403032Y3050000D01*
X2413032D01*
X2423032Y3040000D01*
X2510000Y2960000D02*
X2520000Y2970000D01*
X2530000D01*
X2520000Y2980000D01*
X2530000Y2990000D01*
X2520000D01*
X2510000Y3000000D01*
X2500000Y2990000D01*
X2490000D01*
X2500000Y2980000D01*
X2490000Y2970000D01*
X2500000D01*
X2510000Y2960000D01*
X2700000Y2360000D02*
X2710000Y2370000D01*
X2720000D01*
X2710000Y2380000D01*
X2720000Y2390000D01*
X2710000D01*
X2700000Y2400000D01*
X2690000Y2390000D01*
X2680000D01*
X2690000Y2380000D01*
X2680000Y2370000D01*
X2690000D01*
X2700000Y2360000D01*
X3160000Y2945000D02*
X3170000Y2955000D01*
X3180000D01*
X3170000Y2965000D01*
X3180000Y2975000D01*
X3170000D01*
X3160000Y2985000D01*
X3150000Y2975000D01*
X3140000D01*
X3150000Y2965000D01*
X3140000Y2955000D01*
X3150000D01*
X3160000Y2945000D01*
X2945000Y2720000D02*
X2955000Y2730000D01*
X2965000D01*
X2955000Y2740000D01*
X2965000Y2750000D01*
X2955000D01*
X2945000Y2760000D01*
X2935000Y2750000D01*
X2925000D01*
X2935000Y2740000D01*
X2925000Y2730000D01*
X2935000D01*
X2945000Y2720000D01*
X2910000Y3945000D02*
X2920000Y3955000D01*
X2930000D01*
X2920000Y3965000D01*
X2930000Y3975000D01*
X2920000D01*
X2910000Y3985000D01*
X2900000Y3975000D01*
X2890000D01*
X2900000Y3965000D01*
X2890000Y3955000D01*
X2900000D01*
X2910000Y3945000D01*
X3075000Y3790000D02*
X3085000Y3800000D01*
X3095000D01*
X3085000Y3810000D01*
X3095000Y3820000D01*
X3085000D01*
X3075000Y3830000D01*
X3065000Y3820000D01*
X3055000D01*
X3065000Y3810000D01*
X3055000Y3800000D01*
X3065000D01*
X3075000Y3790000D01*
Y3865000D02*
X3085000Y3875000D01*
X3095000D01*
X3085000Y3885000D01*
X3095000Y3895000D01*
X3085000D01*
X3075000Y3905000D01*
X3065000Y3895000D01*
X3055000D01*
X3065000Y3885000D01*
X3055000Y3875000D01*
X3065000D01*
X3075000Y3865000D01*
Y3940000D02*
X3085000Y3950000D01*
X3095000D01*
X3085000Y3960000D01*
X3095000Y3970000D01*
X3085000D01*
X3075000Y3980000D01*
X3065000Y3970000D01*
X3055000D01*
X3065000Y3960000D01*
X3055000Y3950000D01*
X3065000D01*
X3075000Y3940000D01*
X2605000Y3835000D02*
X2615000Y3845000D01*
X2625000D01*
X2615000Y3855000D01*
X2625000Y3865000D01*
X2615000D01*
X2605000Y3875000D01*
X2595000Y3865000D01*
X2585000D01*
X2595000Y3855000D01*
X2585000Y3845000D01*
X2595000D01*
X2605000Y3835000D01*
X2555000Y3680000D02*
X2565000Y3690000D01*
X2575000D01*
X2565000Y3700000D01*
X2575000Y3710000D01*
X2565000D01*
X2555000Y3720000D01*
X2545000Y3710000D01*
X2535000D01*
X2545000Y3700000D01*
X2535000Y3690000D01*
X2545000D01*
X2555000Y3680000D01*
X3775000Y4490261D02*
X3785000Y4500261D01*
X3795000D01*
X3785000Y4510261D01*
X3795000Y4520261D01*
X3785000D01*
X3775000Y4530261D01*
X3765000Y4520261D01*
X3755000D01*
X3765000Y4510261D01*
X3755000Y4500261D01*
X3765000D01*
X3775000Y4490261D01*
X2077043Y3995000D02*
X2087043Y4005000D01*
X2097043D01*
X2087043Y4015000D01*
X2097043Y4025000D01*
X2087043D01*
X2077043Y4035000D01*
X2067043Y4025000D01*
X2057043D01*
X2067043Y4015000D01*
X2057043Y4005000D01*
X2067043D01*
X2077043Y3995000D01*
X3348708Y1766292D02*
X3358708Y1776292D01*
X3368708D01*
X3358708Y1786292D01*
X3368708Y1796292D01*
X3358708D01*
X3348708Y1806292D01*
X3338708Y1796292D01*
X3328708D01*
X3338708Y1786292D01*
X3328708Y1776292D01*
X3338708D01*
X3348708Y1766292D01*
X2335000Y4288465D02*
X2345000Y4298465D01*
X2355000D01*
X2345000Y4308465D01*
X2355000Y4318465D01*
X2345000D01*
X2335000Y4328465D01*
X2325000Y4318465D01*
X2315000D01*
X2325000Y4308465D01*
X2315000Y4298465D01*
X2325000D01*
X2335000Y4288465D01*
X2270000Y4290000D02*
X2280000Y4300000D01*
X2290000D01*
X2280000Y4310000D01*
X2290000Y4320000D01*
X2280000D01*
X2270000Y4330000D01*
X2260000Y4320000D01*
X2250000D01*
X2260000Y4310000D01*
X2250000Y4300000D01*
X2260000D01*
X2270000Y4290000D01*
X2205000D02*
X2215000Y4300000D01*
X2225000D01*
X2215000Y4310000D01*
X2225000Y4320000D01*
X2215000D01*
X2205000Y4330000D01*
X2195000Y4320000D01*
X2185000D01*
X2195000Y4310000D01*
X2185000Y4300000D01*
X2195000D01*
X2205000Y4290000D01*
X3900000Y4379457D02*
X3910000Y4389457D01*
X3920000D01*
X3910000Y4399457D01*
X3920000Y4409457D01*
X3910000D01*
X3900000Y4419457D01*
X3890000Y4409457D01*
X3880000D01*
X3890000Y4399457D01*
X3880000Y4389457D01*
X3890000D01*
X3900000Y4379457D01*
X3965000Y4240061D02*
X3975000Y4250061D01*
X3985000D01*
X3975000Y4260061D01*
X3985000Y4270061D01*
X3975000D01*
X3965000Y4280061D01*
X3955000Y4270061D01*
X3945000D01*
X3955000Y4260061D01*
X3945000Y4250061D01*
X3955000D01*
X3965000Y4240061D01*
X2420000Y1915000D02*
X2430000Y1925000D01*
X2440000D01*
X2430000Y1935000D01*
X2440000Y1945000D01*
X2430000D01*
X2420000Y1955000D01*
X2410000Y1945000D01*
X2400000D01*
X2410000Y1935000D01*
X2400000Y1925000D01*
X2410000D01*
X2420000Y1915000D01*
X2470000Y1840000D02*
X2480000Y1850000D01*
X2490000D01*
X2480000Y1860000D01*
X2490000Y1870000D01*
X2480000D01*
X2470000Y1880000D01*
X2460000Y1870000D01*
X2450000D01*
X2460000Y1860000D01*
X2450000Y1850000D01*
X2460000D01*
X2470000Y1840000D01*
X2766306Y1806306D02*
X2776306Y1816306D01*
X2786306D01*
X2776306Y1826306D01*
X2786306Y1836306D01*
X2776306D01*
X2766306Y1846306D01*
X2756306Y1836306D01*
X2746306D01*
X2756306Y1826306D01*
X2746306Y1816306D01*
X2756306D01*
X2766306Y1806306D01*
X3415000Y1736958D02*
X3425000Y1746958D01*
X3435000D01*
X3425000Y1756958D01*
X3435000Y1766958D01*
X3425000D01*
X3415000Y1776958D01*
X3405000Y1766958D01*
X3395000D01*
X3405000Y1756958D01*
X3395000Y1746958D01*
X3405000D01*
X3415000Y1736958D01*
X1745000Y2945000D02*
X1755000Y2955000D01*
X1765000D01*
X1755000Y2965000D01*
X1765000Y2975000D01*
X1755000D01*
X1745000Y2985000D01*
X1735000Y2975000D01*
X1725000D01*
X1735000Y2965000D01*
X1725000Y2955000D01*
X1735000D01*
X1745000Y2945000D01*
X4558110Y2970000D02*
X4568110Y2980000D01*
X4578110D01*
X4568110Y2990000D01*
X4578110Y3000000D01*
X4568110D01*
X4558110Y3010000D01*
X4548110Y3000000D01*
X4538110D01*
X4548110Y2990000D01*
X4538110Y2980000D01*
X4548110D01*
X4558110Y2970000D01*
X2860000Y3580000D02*
X2870000Y3590000D01*
X2880000D01*
X2870000Y3600000D01*
X2880000Y3610000D01*
X2870000D01*
X2860000Y3620000D01*
X2850000Y3610000D01*
X2840000D01*
X2850000Y3600000D01*
X2840000Y3590000D01*
X2850000D01*
X2860000Y3580000D01*
X2995000Y1680000D02*
X3005000Y1690000D01*
X3015000D01*
X3005000Y1700000D01*
X3015000Y1710000D01*
X3005000D01*
X2995000Y1720000D01*
X2985000Y1710000D01*
X2975000D01*
X2985000Y1700000D01*
X2975000Y1690000D01*
X2985000D01*
X2995000Y1680000D01*
X3930000Y1900000D02*
X3940000Y1910000D01*
X3950000D01*
X3940000Y1920000D01*
X3950000Y1930000D01*
X3940000D01*
X3930000Y1940000D01*
X3920000Y1930000D01*
X3910000D01*
X3920000Y1920000D01*
X3910000Y1910000D01*
X3920000D01*
X3930000Y1900000D01*
X2995000Y4540000D02*
X3005000Y4550000D01*
X3015000D01*
X3005000Y4560000D01*
X3015000Y4570000D01*
X3005000D01*
X2995000Y4580000D01*
X2985000Y4570000D01*
X2975000D01*
X2985000Y4560000D01*
X2975000Y4550000D01*
X2985000D01*
X2995000Y4540000D01*
X4600000Y3000000D02*
X4610000Y3010000D01*
X4620000D01*
X4610000Y3020000D01*
X4620000Y3030000D01*
X4610000D01*
X4600000Y3040000D01*
X4590000Y3030000D01*
X4580000D01*
X4590000Y3020000D01*
X4580000Y3010000D01*
X4590000D01*
X4600000Y3000000D01*
X4645000Y3005000D02*
X4655000Y3015000D01*
X4665000D01*
X4655000Y3025000D01*
X4665000Y3035000D01*
X4655000D01*
X4645000Y3045000D01*
X4635000Y3035000D01*
X4625000D01*
X4635000Y3025000D01*
X4625000Y3015000D01*
X4635000D01*
X4645000Y3005000D01*
X2020000Y2270000D02*
X2030000Y2280000D01*
X2040000D01*
X2030000Y2290000D01*
X2040000Y2300000D01*
X2030000D01*
X2020000Y2310000D01*
X2010000Y2300000D01*
X2000000D01*
X2010000Y2290000D01*
X2000000Y2280000D01*
X2010000D01*
X2020000Y2270000D01*
X2059875Y2165000D02*
X2069875Y2175000D01*
X2079875D01*
X2069875Y2185000D01*
X2079875Y2195000D01*
X2069875D01*
X2059875Y2205000D01*
X2049875Y2195000D01*
X2039875D01*
X2049875Y2185000D01*
X2039875Y2175000D01*
X2049875D01*
X2059875Y2165000D01*
X2355000Y2005000D02*
X2365000Y2015000D01*
X2375000D01*
X2365000Y2025000D01*
X2375000Y2035000D01*
X2365000D01*
X2355000Y2045000D01*
X2345000Y2035000D01*
X2335000D01*
X2345000Y2025000D01*
X2335000Y2015000D01*
X2345000D01*
X2355000Y2005000D01*
X1780000Y2995000D02*
X1790000Y3005000D01*
X1800000D01*
X1790000Y3015000D01*
X1800000Y3025000D01*
X1790000D01*
X1780000Y3035000D01*
X1770000Y3025000D01*
X1760000D01*
X1770000Y3015000D01*
X1760000Y3005000D01*
X1770000D01*
X1780000Y2995000D01*
X1705000Y3320000D02*
X1715000Y3330000D01*
X1725000D01*
X1715000Y3340000D01*
X1725000Y3350000D01*
X1715000D01*
X1705000Y3360000D01*
X1695000Y3350000D01*
X1685000D01*
X1695000Y3340000D01*
X1685000Y3330000D01*
X1695000D01*
X1705000Y3320000D01*
X4519631Y3299631D02*
X4529631Y3309631D01*
X4539631D01*
X4529631Y3319631D01*
X4539631Y3329631D01*
X4529631D01*
X4519631Y3339631D01*
X4509631Y3329631D01*
X4499631D01*
X4509631Y3319631D01*
X4499631Y3309631D01*
X4509631D01*
X4519631Y3299631D01*
X4130000Y2160000D02*
X4140000Y2170000D01*
X4150000D01*
X4140000Y2180000D01*
X4150000Y2190000D01*
X4140000D01*
X4130000Y2200000D01*
X4120000Y2190000D01*
X4110000D01*
X4120000Y2180000D01*
X4110000Y2170000D01*
X4120000D01*
X4130000Y2160000D01*
X4055000Y2035000D02*
X4065000Y2045000D01*
X4075000D01*
X4065000Y2055000D01*
X4075000Y2065000D01*
X4065000D01*
X4055000Y2075000D01*
X4045000Y2065000D01*
X4035000D01*
X4045000Y2055000D01*
X4035000Y2045000D01*
X4045000D01*
X4055000Y2035000D01*
X4290000Y4100000D02*
X4300000Y4110000D01*
X4310000D01*
X4300000Y4120000D01*
X4310000Y4130000D01*
X4300000D01*
X4290000Y4140000D01*
X4280000Y4130000D01*
X4270000D01*
X4280000Y4120000D01*
X4270000Y4110000D01*
X4280000D01*
X4290000Y4100000D01*
X4120000Y1990000D02*
X4130000Y2000000D01*
X4140000D01*
X4130000Y2010000D01*
X4140000Y2020000D01*
X4130000D01*
X4120000Y2030000D01*
X4110000Y2020000D01*
X4100000D01*
X4110000Y2010000D01*
X4100000Y2000000D01*
X4110000D01*
X4120000Y1990000D01*
X3020000Y1640000D02*
X3030000Y1650000D01*
X3040000D01*
X3030000Y1660000D01*
X3040000Y1670000D01*
X3030000D01*
X3020000Y1680000D01*
X3010000Y1670000D01*
X3000000D01*
X3010000Y1660000D01*
X3000000Y1650000D01*
X3010000D01*
X3020000Y1640000D01*
X2005000Y2170000D02*
X2015000Y2180000D01*
X2025000D01*
X2015000Y2190000D01*
X2025000Y2200000D01*
X2015000D01*
X2005000Y2210000D01*
X1995000Y2200000D01*
X1985000D01*
X1995000Y2190000D01*
X1985000Y2180000D01*
X1995000D01*
X2005000Y2170000D01*
X1660000Y3270000D02*
X1670000Y3280000D01*
X1680000D01*
X1670000Y3290000D01*
X1680000Y3300000D01*
X1670000D01*
X1660000Y3310000D01*
X1650000Y3300000D01*
X1640000D01*
X1650000Y3290000D01*
X1640000Y3280000D01*
X1650000D01*
X1660000Y3270000D01*
D86*
X3540000Y1890000D02*
G03*
X3540000Y1890000I-20000J0D01*
G01*
%TF.MD5,74f358faa67668b1dbd292eb6bf99435*%
M02*
