%TF.GenerationSoftware,Altium Limited,Altium Designer,18.1.6 (161)*%
G04 Layer_Color=16711935*
%FSLAX25Y25*%
%MOIN*%
%TF.FileFunction,Other,Mechanical_13*%
%TF.Part,Single*%
G01*
G75*
%TA.AperFunction,NonConductor*%
%ADD75C,0.00394*%
%ADD76R,0.00984X0.02362*%
G36*
X272642Y211464D02*
X272640D01*
X272633D01*
X272622D01*
X272607Y211466D01*
X272591Y211468D01*
X272573Y211472D01*
X272554Y211475D01*
X272534Y211483D01*
X272533D01*
X272531Y211484D01*
X272520Y211488D01*
X272503Y211495D01*
X272482Y211506D01*
X272456Y211521D01*
X272427Y211539D01*
X272398Y211559D01*
X272367Y211584D01*
X272365D01*
X272363Y211588D01*
X272352Y211597D01*
X272336Y211614D01*
X272312Y211637D01*
X272285Y211665D01*
X272252Y211699D01*
X272216Y211741D01*
X272178Y211787D01*
X272176Y211788D01*
X272170Y211796D01*
X272161Y211807D01*
X272150Y211819D01*
X272136Y211836D01*
X272119Y211856D01*
X272101Y211876D01*
X272081Y211899D01*
X272038Y211945D01*
X271994Y211990D01*
X271972Y212012D01*
X271950Y212032D01*
X271930Y212051D01*
X271910Y212065D01*
X271908D01*
X271906Y212069D01*
X271901Y212072D01*
X271894Y212076D01*
X271874Y212089D01*
X271850Y212103D01*
X271821Y212116D01*
X271790Y212129D01*
X271755Y212136D01*
X271723Y212140D01*
X271721D01*
X271719D01*
X271708Y212138D01*
X271690Y212136D01*
X271670Y212130D01*
X271644Y212123D01*
X271619Y212110D01*
X271593Y212094D01*
X271568Y212072D01*
X271564Y212069D01*
X271557Y212059D01*
X271548Y212047D01*
X271535Y212027D01*
X271524Y212001D01*
X271513Y211972D01*
X271506Y211938D01*
X271504Y211899D01*
Y211889D01*
X271506Y211881D01*
X271508Y211859D01*
X271513Y211834D01*
X271521Y211807D01*
X271533Y211776D01*
X271550Y211747D01*
X271572Y211719D01*
X271575Y211716D01*
X271584Y211708D01*
X271599Y211697D01*
X271621Y211686D01*
X271646Y211674D01*
X271679Y211663D01*
X271715Y211655D01*
X271757Y211652D01*
X271741Y211493D01*
X271739D01*
X271734Y211495D01*
X271724D01*
X271712Y211497D01*
X271697Y211501D01*
X271681Y211504D01*
X271661Y211510D01*
X271641Y211515D01*
X271597Y211530D01*
X271553Y211552D01*
X271532Y211564D01*
X271510Y211581D01*
X271490Y211597D01*
X271472Y211615D01*
X271470Y211617D01*
X271468Y211621D01*
X271462Y211626D01*
X271457Y211635D01*
X271450Y211646D01*
X271442Y211659D01*
X271433Y211674D01*
X271424Y211692D01*
X271415Y211712D01*
X271406Y211734D01*
X271399Y211757D01*
X271391Y211783D01*
X271386Y211810D01*
X271380Y211839D01*
X271379Y211870D01*
X271377Y211903D01*
Y211921D01*
X271379Y211934D01*
X271380Y211948D01*
X271382Y211967D01*
X271386Y211987D01*
X271390Y212007D01*
X271402Y212054D01*
X271421Y212101D01*
X271431Y212125D01*
X271444Y212149D01*
X271461Y212171D01*
X271479Y212191D01*
X271481Y212192D01*
X271482Y212196D01*
X271490Y212200D01*
X271497Y212207D01*
X271506Y212216D01*
X271519Y212225D01*
X271532Y212234D01*
X271548Y212245D01*
X271583Y212263D01*
X271626Y212282D01*
X271648Y212289D01*
X271673Y212293D01*
X271699Y212296D01*
X271726Y212298D01*
X271730D01*
X271739D01*
X271754Y212296D01*
X271774Y212294D01*
X271795Y212291D01*
X271821Y212283D01*
X271848Y212276D01*
X271876Y212265D01*
X271879Y212263D01*
X271888Y212260D01*
X271903Y212252D01*
X271923Y212242D01*
X271945Y212227D01*
X271972Y212209D01*
X271999Y212187D01*
X272030Y212161D01*
X272034Y212158D01*
X272045Y212149D01*
X272054Y212140D01*
X272063Y212130D01*
X272074Y212120D01*
X272089Y212105D01*
X272103Y212090D01*
X272119Y212072D01*
X272138Y212054D01*
X272158Y212032D01*
X272178Y212009D01*
X272201Y211983D01*
X272225Y211954D01*
X272250Y211925D01*
X272252Y211923D01*
X272256Y211919D01*
X272261Y211912D01*
X272269Y211903D01*
X272280Y211892D01*
X272290Y211879D01*
X272314Y211850D01*
X272341Y211819D01*
X272369Y211790D01*
X272392Y211765D01*
X272401Y211754D01*
X272411Y211745D01*
X272412Y211743D01*
X272418Y211737D01*
X272425Y211730D01*
X272436Y211721D01*
X272449Y211712D01*
X272462Y211701D01*
X272493Y211679D01*
Y212300D01*
X272642D01*
Y211464D01*
D02*
G37*
G36*
X272077Y211328D02*
X272099D01*
X272123Y211326D01*
X272148Y211324D01*
X272207Y211319D01*
X272267Y211310D01*
X272325Y211299D01*
X272352Y211292D01*
X272380Y211282D01*
X272381D01*
X272385Y211281D01*
X272392Y211277D01*
X272401Y211273D01*
X272414Y211270D01*
X272427Y211262D01*
X272458Y211248D01*
X272491Y211230D01*
X272527Y211206D01*
X272560Y211179D01*
X272591Y211146D01*
Y211144D01*
X272594Y211142D01*
X272598Y211137D01*
X272602Y211129D01*
X272607Y211120D01*
X272614Y211111D01*
X272627Y211084D01*
X272640Y211051D01*
X272653Y211013D01*
X272660Y210967D01*
X272664Y210918D01*
Y210900D01*
X272662Y210888D01*
X272660Y210873D01*
X272656Y210855D01*
X272653Y210835D01*
X272647Y210813D01*
X272640Y210791D01*
X272633Y210767D01*
X272622Y210744D01*
X272609Y210720D01*
X272594Y210696D01*
X272576Y210673D01*
X272556Y210651D01*
X272534Y210631D01*
X272533Y210629D01*
X272527Y210625D01*
X272518Y210620D01*
X272503Y210611D01*
X272487Y210602D01*
X272465Y210593D01*
X272440Y210580D01*
X272411Y210569D01*
X272378Y210558D01*
X272340Y210547D01*
X272298Y210536D01*
X272250Y210527D01*
X272200Y210518D01*
X272145Y210513D01*
X272085Y210509D01*
X272021Y210507D01*
X272019D01*
X272012D01*
X271999D01*
X271985D01*
X271965Y210509D01*
X271943D01*
X271919Y210511D01*
X271892Y210513D01*
X271835Y210518D01*
X271775Y210527D01*
X271715Y210538D01*
X271688Y210545D01*
X271661Y210553D01*
X271659D01*
X271655Y210554D01*
X271648Y210558D01*
X271639Y210562D01*
X271626Y210565D01*
X271613Y210573D01*
X271583Y210587D01*
X271550Y210605D01*
X271515Y210629D01*
X271481Y210656D01*
X271451Y210689D01*
Y210691D01*
X271448Y210693D01*
X271444Y210698D01*
X271441Y210705D01*
X271433Y210715D01*
X271428Y210725D01*
X271413Y210753D01*
X271400Y210786D01*
X271388Y210824D01*
X271380Y210869D01*
X271377Y210918D01*
Y210935D01*
X271379Y210955D01*
X271382Y210979D01*
X271388Y211006D01*
X271395Y211035D01*
X271404Y211066D01*
X271419Y211095D01*
Y211097D01*
X271421Y211099D01*
X271426Y211108D01*
X271435Y211122D01*
X271448Y211140D01*
X271466Y211160D01*
X271486Y211182D01*
X271510Y211202D01*
X271537Y211222D01*
X271541Y211224D01*
X271550Y211231D01*
X271566Y211239D01*
X271590Y211251D01*
X271617Y211262D01*
X271648Y211277D01*
X271684Y211290D01*
X271724Y211301D01*
X271726D01*
X271730Y211302D01*
X271735Y211304D01*
X271744Y211306D01*
X271755Y211308D01*
X271768Y211310D01*
X271784Y211313D01*
X271803Y211315D01*
X271823Y211319D01*
X271845Y211321D01*
X271870Y211322D01*
X271896Y211326D01*
X271925Y211328D01*
X271954D01*
X271987Y211330D01*
X272021D01*
X272023D01*
X272030D01*
X272043D01*
X272058D01*
X272077Y211328D01*
D02*
G37*
G36*
Y210349D02*
X272099D01*
X272123Y210347D01*
X272148Y210345D01*
X272207Y210340D01*
X272267Y210331D01*
X272325Y210320D01*
X272352Y210312D01*
X272380Y210303D01*
X272381D01*
X272385Y210301D01*
X272392Y210298D01*
X272401Y210294D01*
X272414Y210291D01*
X272427Y210283D01*
X272458Y210269D01*
X272491Y210250D01*
X272527Y210227D01*
X272560Y210199D01*
X272591Y210167D01*
Y210165D01*
X272594Y210163D01*
X272598Y210158D01*
X272602Y210150D01*
X272607Y210141D01*
X272614Y210132D01*
X272627Y210105D01*
X272640Y210072D01*
X272653Y210034D01*
X272660Y209988D01*
X272664Y209939D01*
Y209921D01*
X272662Y209908D01*
X272660Y209894D01*
X272656Y209876D01*
X272653Y209856D01*
X272647Y209834D01*
X272640Y209812D01*
X272633Y209788D01*
X272622Y209765D01*
X272609Y209741D01*
X272594Y209717D01*
X272576Y209694D01*
X272556Y209672D01*
X272534Y209652D01*
X272533Y209650D01*
X272527Y209646D01*
X272518Y209641D01*
X272503Y209632D01*
X272487Y209623D01*
X272465Y209613D01*
X272440Y209601D01*
X272411Y209590D01*
X272378Y209579D01*
X272340Y209568D01*
X272298Y209557D01*
X272250Y209548D01*
X272200Y209539D01*
X272145Y209533D01*
X272085Y209530D01*
X272021Y209528D01*
X272019D01*
X272012D01*
X271999D01*
X271985D01*
X271965Y209530D01*
X271943D01*
X271919Y209532D01*
X271892Y209533D01*
X271835Y209539D01*
X271775Y209548D01*
X271715Y209559D01*
X271688Y209566D01*
X271661Y209573D01*
X271659D01*
X271655Y209575D01*
X271648Y209579D01*
X271639Y209582D01*
X271626Y209586D01*
X271613Y209593D01*
X271583Y209608D01*
X271550Y209626D01*
X271515Y209650D01*
X271481Y209677D01*
X271451Y209710D01*
Y209712D01*
X271448Y209714D01*
X271444Y209719D01*
X271441Y209726D01*
X271433Y209735D01*
X271428Y209746D01*
X271413Y209774D01*
X271400Y209806D01*
X271388Y209845D01*
X271380Y209890D01*
X271377Y209939D01*
Y209956D01*
X271379Y209976D01*
X271382Y209999D01*
X271388Y210027D01*
X271395Y210056D01*
X271404Y210087D01*
X271419Y210116D01*
Y210118D01*
X271421Y210119D01*
X271426Y210128D01*
X271435Y210143D01*
X271448Y210161D01*
X271466Y210181D01*
X271486Y210203D01*
X271510Y210223D01*
X271537Y210243D01*
X271541Y210245D01*
X271550Y210252D01*
X271566Y210260D01*
X271590Y210272D01*
X271617Y210283D01*
X271648Y210298D01*
X271684Y210311D01*
X271724Y210321D01*
X271726D01*
X271730Y210323D01*
X271735Y210325D01*
X271744Y210327D01*
X271755Y210329D01*
X271768Y210331D01*
X271784Y210334D01*
X271803Y210336D01*
X271823Y210340D01*
X271845Y210342D01*
X271870Y210343D01*
X271896Y210347D01*
X271925Y210349D01*
X271954D01*
X271987Y210351D01*
X272021D01*
X272023D01*
X272030D01*
X272043D01*
X272058D01*
X272077Y210349D01*
D02*
G37*
G36*
X271522Y209373D02*
X271526Y209370D01*
X271533Y209362D01*
X271544Y209355D01*
X271557Y209344D01*
X271572Y209330D01*
X271590Y209315D01*
X271612Y209299D01*
X271633Y209282D01*
X271659Y209262D01*
X271688Y209242D01*
X271717Y209222D01*
X271750Y209200D01*
X271784Y209178D01*
X271823Y209157D01*
X271861Y209135D01*
X271863Y209133D01*
X271870Y209129D01*
X271881Y209124D01*
X271897Y209115D01*
X271917Y209106D01*
X271939Y209095D01*
X271965Y209082D01*
X271994Y209069D01*
X272027Y209055D01*
X272059Y209038D01*
X272096Y209024D01*
X272134Y209009D01*
X272212Y208980D01*
X272296Y208953D01*
X272298D01*
X272303Y208951D01*
X272312Y208949D01*
X272323Y208945D01*
X272338Y208942D01*
X272356Y208938D01*
X272376Y208933D01*
X272398Y208929D01*
X272423Y208924D01*
X272451Y208918D01*
X272509Y208909D01*
X272573Y208900D01*
X272642Y208895D01*
Y208736D01*
X272640D01*
X272635D01*
X272627D01*
X272616Y208738D01*
X272602D01*
X272584Y208740D01*
X272564Y208742D01*
X272542Y208744D01*
X272516Y208747D01*
X272491Y208751D01*
X272460Y208756D01*
X272429Y208762D01*
X272396Y208767D01*
X272360Y208774D01*
X272285Y208793D01*
X272283D01*
X272276Y208794D01*
X272265Y208798D01*
X272249Y208804D01*
X272230Y208809D01*
X272209Y208816D01*
X272183Y208824D01*
X272156Y208835D01*
X272125Y208845D01*
X272094Y208856D01*
X272025Y208884D01*
X271952Y208916D01*
X271879Y208953D01*
X271877Y208955D01*
X271870Y208958D01*
X271861Y208964D01*
X271846Y208971D01*
X271830Y208980D01*
X271810Y208993D01*
X271788Y209006D01*
X271764Y209020D01*
X271712Y209055D01*
X271657Y209091D01*
X271601Y209133D01*
X271548Y209177D01*
Y208560D01*
X271399D01*
Y209375D01*
X271521D01*
X271522Y209373D01*
D02*
G37*
G36*
X272642Y208159D02*
X271654Y207501D01*
X272642D01*
Y207340D01*
X271382D01*
Y207511D01*
X272372Y208172D01*
X271382D01*
Y208332D01*
X272642D01*
Y208159D01*
D02*
G37*
G36*
Y206277D02*
X272640D01*
X272633D01*
X272622D01*
X272607Y206279D01*
X272591Y206281D01*
X272573Y206285D01*
X272554Y206288D01*
X272534Y206296D01*
X272533D01*
X272531Y206297D01*
X272520Y206301D01*
X272503Y206308D01*
X272482Y206319D01*
X272456Y206334D01*
X272427Y206352D01*
X272398Y206372D01*
X272367Y206398D01*
X272365D01*
X272363Y206401D01*
X272352Y206410D01*
X272336Y206427D01*
X272312Y206450D01*
X272285Y206478D01*
X272252Y206512D01*
X272216Y206554D01*
X272178Y206599D01*
X272176Y206601D01*
X272170Y206609D01*
X272161Y206620D01*
X272150Y206632D01*
X272136Y206649D01*
X272119Y206669D01*
X272101Y206689D01*
X272081Y206712D01*
X272038Y206758D01*
X271994Y206803D01*
X271972Y206825D01*
X271950Y206845D01*
X271930Y206863D01*
X271910Y206878D01*
X271908D01*
X271906Y206882D01*
X271901Y206885D01*
X271894Y206889D01*
X271874Y206902D01*
X271850Y206916D01*
X271821Y206929D01*
X271790Y206942D01*
X271755Y206949D01*
X271723Y206953D01*
X271721D01*
X271719D01*
X271708Y206951D01*
X271690Y206949D01*
X271670Y206943D01*
X271644Y206936D01*
X271619Y206924D01*
X271593Y206907D01*
X271568Y206885D01*
X271564Y206882D01*
X271557Y206873D01*
X271548Y206860D01*
X271535Y206840D01*
X271524Y206814D01*
X271513Y206785D01*
X271506Y206751D01*
X271504Y206712D01*
Y206701D01*
X271506Y206694D01*
X271508Y206672D01*
X271513Y206647D01*
X271521Y206620D01*
X271533Y206589D01*
X271550Y206559D01*
X271572Y206532D01*
X271575Y206529D01*
X271584Y206521D01*
X271599Y206510D01*
X271621Y206499D01*
X271646Y206487D01*
X271679Y206476D01*
X271715Y206469D01*
X271757Y206465D01*
X271741Y206307D01*
X271739D01*
X271734Y206308D01*
X271724D01*
X271712Y206310D01*
X271697Y206314D01*
X271681Y206317D01*
X271661Y206323D01*
X271641Y206328D01*
X271597Y206343D01*
X271553Y206365D01*
X271532Y206378D01*
X271510Y206394D01*
X271490Y206410D01*
X271472Y206429D01*
X271470Y206430D01*
X271468Y206434D01*
X271462Y206439D01*
X271457Y206449D01*
X271450Y206459D01*
X271442Y206472D01*
X271433Y206487D01*
X271424Y206505D01*
X271415Y206525D01*
X271406Y206547D01*
X271399Y206570D01*
X271391Y206596D01*
X271386Y206623D01*
X271380Y206652D01*
X271379Y206683D01*
X271377Y206716D01*
Y206734D01*
X271379Y206747D01*
X271380Y206762D01*
X271382Y206780D01*
X271386Y206800D01*
X271390Y206820D01*
X271402Y206867D01*
X271421Y206914D01*
X271431Y206938D01*
X271444Y206962D01*
X271461Y206984D01*
X271479Y207004D01*
X271481Y207005D01*
X271482Y207009D01*
X271490Y207013D01*
X271497Y207020D01*
X271506Y207029D01*
X271519Y207038D01*
X271532Y207047D01*
X271548Y207058D01*
X271583Y207076D01*
X271626Y207095D01*
X271648Y207102D01*
X271673Y207105D01*
X271699Y207109D01*
X271726Y207111D01*
X271730D01*
X271739D01*
X271754Y207109D01*
X271774Y207107D01*
X271795Y207104D01*
X271821Y207096D01*
X271848Y207089D01*
X271876Y207078D01*
X271879Y207076D01*
X271888Y207073D01*
X271903Y207066D01*
X271923Y207055D01*
X271945Y207040D01*
X271972Y207022D01*
X271999Y207000D01*
X272030Y206975D01*
X272034Y206971D01*
X272045Y206962D01*
X272054Y206953D01*
X272063Y206943D01*
X272074Y206933D01*
X272089Y206918D01*
X272103Y206904D01*
X272119Y206885D01*
X272138Y206867D01*
X272158Y206845D01*
X272178Y206822D01*
X272201Y206796D01*
X272225Y206767D01*
X272250Y206738D01*
X272252Y206736D01*
X272256Y206732D01*
X272261Y206725D01*
X272269Y206716D01*
X272280Y206705D01*
X272290Y206692D01*
X272314Y206663D01*
X272341Y206632D01*
X272369Y206603D01*
X272392Y206578D01*
X272401Y206567D01*
X272411Y206558D01*
X272412Y206556D01*
X272418Y206550D01*
X272425Y206543D01*
X272436Y206534D01*
X272449Y206525D01*
X272462Y206514D01*
X272493Y206492D01*
Y207113D01*
X272642D01*
Y206277D01*
D02*
G37*
G36*
X270969Y207619D02*
X270967D01*
X270959D01*
X270949D01*
X270934Y207621D01*
X270918Y207622D01*
X270899Y207626D01*
X270881Y207630D01*
X270861Y207637D01*
X270859D01*
X270858Y207639D01*
X270847Y207642D01*
X270830Y207650D01*
X270808Y207661D01*
X270783Y207675D01*
X270754Y207693D01*
X270725Y207713D01*
X270694Y207739D01*
X270692D01*
X270690Y207743D01*
X270679Y207752D01*
X270663Y207768D01*
X270639Y207792D01*
X270612Y207819D01*
X270579Y207854D01*
X270543Y207895D01*
X270504Y207941D01*
X270503Y207943D01*
X270497Y207950D01*
X270488Y207961D01*
X270477Y207974D01*
X270462Y207990D01*
X270446Y208010D01*
X270428Y208030D01*
X270408Y208054D01*
X270364Y208099D01*
X270321Y208145D01*
X270299Y208167D01*
X270277Y208187D01*
X270257Y208205D01*
X270237Y208219D01*
X270235D01*
X270233Y208223D01*
X270228Y208227D01*
X270220Y208230D01*
X270200Y208243D01*
X270177Y208258D01*
X270148Y208270D01*
X270117Y208283D01*
X270082Y208290D01*
X270049Y208294D01*
X270048D01*
X270046D01*
X270035Y208292D01*
X270017Y208290D01*
X269997Y208285D01*
X269971Y208278D01*
X269946Y208265D01*
X269920Y208248D01*
X269895Y208227D01*
X269891Y208223D01*
X269884Y208214D01*
X269875Y208201D01*
X269862Y208181D01*
X269851Y208156D01*
X269840Y208126D01*
X269833Y208092D01*
X269831Y208054D01*
Y208043D01*
X269833Y208035D01*
X269835Y208014D01*
X269840Y207988D01*
X269847Y207961D01*
X269860Y207930D01*
X269877Y207901D01*
X269898Y207874D01*
X269902Y207870D01*
X269911Y207863D01*
X269926Y207852D01*
X269948Y207841D01*
X269973Y207828D01*
X270006Y207817D01*
X270042Y207810D01*
X270084Y207806D01*
X270068Y207648D01*
X270066D01*
X270060Y207650D01*
X270051D01*
X270039Y207651D01*
X270024Y207655D01*
X270007Y207659D01*
X269988Y207664D01*
X269968Y207670D01*
X269924Y207684D01*
X269880Y207706D01*
X269858Y207719D01*
X269836Y207735D01*
X269816Y207752D01*
X269798Y207770D01*
X269796Y207772D01*
X269795Y207775D01*
X269789Y207781D01*
X269784Y207790D01*
X269776Y207801D01*
X269769Y207814D01*
X269760Y207828D01*
X269751Y207846D01*
X269742Y207866D01*
X269733Y207888D01*
X269725Y207912D01*
X269718Y207937D01*
X269713Y207965D01*
X269707Y207994D01*
X269705Y208025D01*
X269704Y208057D01*
Y208076D01*
X269705Y208088D01*
X269707Y208103D01*
X269709Y208121D01*
X269713Y208141D01*
X269716Y208161D01*
X269729Y208208D01*
X269747Y208256D01*
X269758Y208279D01*
X269771Y208303D01*
X269787Y208325D01*
X269806Y208345D01*
X269807Y208347D01*
X269809Y208350D01*
X269816Y208354D01*
X269824Y208361D01*
X269833Y208370D01*
X269846Y208380D01*
X269858Y208389D01*
X269875Y208400D01*
X269909Y208418D01*
X269953Y208436D01*
X269975Y208443D01*
X270000Y208447D01*
X270026Y208451D01*
X270053Y208452D01*
X270057D01*
X270066D01*
X270080Y208451D01*
X270100Y208449D01*
X270122Y208445D01*
X270148Y208438D01*
X270175Y208431D01*
X270202Y208419D01*
X270206Y208418D01*
X270215Y208414D01*
X270230Y208407D01*
X270250Y208396D01*
X270271Y208381D01*
X270299Y208363D01*
X270326Y208341D01*
X270357Y208316D01*
X270361Y208312D01*
X270372Y208303D01*
X270381Y208294D01*
X270390Y208285D01*
X270401Y208274D01*
X270415Y208259D01*
X270430Y208245D01*
X270446Y208227D01*
X270464Y208208D01*
X270484Y208187D01*
X270504Y208163D01*
X270528Y208137D01*
X270552Y208108D01*
X270577Y208079D01*
X270579Y208077D01*
X270583Y208074D01*
X270588Y208067D01*
X270595Y208057D01*
X270606Y208047D01*
X270617Y208034D01*
X270641Y208005D01*
X270668Y207974D01*
X270695Y207944D01*
X270719Y207919D01*
X270728Y207908D01*
X270737Y207899D01*
X270739Y207897D01*
X270745Y207892D01*
X270752Y207885D01*
X270763Y207875D01*
X270776Y207866D01*
X270788Y207855D01*
X270819Y207834D01*
Y208454D01*
X270969D01*
Y207619D01*
D02*
G37*
G36*
X271067Y207455D02*
Y207453D01*
X271065Y207450D01*
X271061Y207442D01*
X271058Y207431D01*
X271052Y207419D01*
X271045Y207404D01*
X271038Y207388D01*
X271029Y207369D01*
X271007Y207329D01*
X270981Y207284D01*
X270949Y207235D01*
X270912Y207184D01*
Y207182D01*
X270916Y207178D01*
X270919Y207169D01*
X270925Y207160D01*
X270930Y207146D01*
X270938Y207131D01*
X270943Y207113D01*
X270950Y207093D01*
X270958Y207071D01*
X270965Y207047D01*
X270978Y206995D01*
X270987Y206936D01*
X270988Y206905D01*
X270990Y206874D01*
Y206858D01*
X270988Y206845D01*
Y206831D01*
X270987Y206813D01*
X270983Y206792D01*
X270979Y206771D01*
X270970Y206723D01*
X270956Y206670D01*
X270936Y206616D01*
X270923Y206591D01*
X270908Y206563D01*
X270907Y206561D01*
X270905Y206558D01*
X270899Y206550D01*
X270894Y206541D01*
X270885Y206529D01*
X270874Y206516D01*
X270848Y206485D01*
X270816Y206450D01*
X270776Y206416D01*
X270730Y206381D01*
X270677Y206350D01*
X270675D01*
X270670Y206347D01*
X270663Y206343D01*
X270652Y206339D01*
X270637Y206334D01*
X270621Y206327D01*
X270601Y206319D01*
X270579Y206314D01*
X270555Y206307D01*
X270530Y206299D01*
X270503Y206294D01*
X270472Y206287D01*
X270408Y206279D01*
X270341Y206276D01*
X270339D01*
X270332D01*
X270322D01*
X270310Y206277D01*
X270293D01*
X270273Y206279D01*
X270251Y206281D01*
X270228Y206285D01*
X270175Y206294D01*
X270119Y206307D01*
X270058Y206325D01*
X270000Y206350D01*
X269998Y206352D01*
X269993Y206354D01*
X269986Y206358D01*
X269975Y206365D01*
X269962Y206372D01*
X269948Y206381D01*
X269913Y206407D01*
X269877Y206436D01*
X269838Y206474D01*
X269800Y206516D01*
X269767Y206565D01*
X269765Y206567D01*
X269764Y206572D01*
X269760Y206579D01*
X269755Y206591D01*
X269749Y206603D01*
X269742Y206618D01*
X269735Y206636D01*
X269727Y206656D01*
X269720Y206680D01*
X269713Y206703D01*
X269700Y206756D01*
X269691Y206814D01*
X269687Y206845D01*
Y206894D01*
X269689Y206907D01*
Y206924D01*
X269691Y206940D01*
X269694Y206962D01*
X269698Y206984D01*
X269707Y207031D01*
X269722Y207085D01*
X269744Y207138D01*
X269756Y207166D01*
X269771Y207193D01*
X269773Y207195D01*
X269775Y207198D01*
X269780Y207206D01*
X269785Y207217D01*
X269795Y207227D01*
X269806Y207242D01*
X269831Y207273D01*
X269864Y207306D01*
X269904Y207342D01*
X269951Y207377D01*
X270004Y207406D01*
X270006D01*
X270011Y207410D01*
X270019Y207413D01*
X270029Y207417D01*
X270044Y207424D01*
X270060Y207430D01*
X270080Y207437D01*
X270102Y207444D01*
X270126Y207450D01*
X270151Y207457D01*
X270179Y207464D01*
X270208Y207470D01*
X270271Y207477D01*
X270339Y207480D01*
X270341D01*
X270346D01*
X270353D01*
X270364D01*
X270379Y207479D01*
X270395D01*
X270413Y207477D01*
X270432Y207475D01*
X270475Y207470D01*
X270523Y207460D01*
X270572Y207450D01*
X270619Y207433D01*
X270621D01*
X270624Y207431D01*
X270632Y207428D01*
X270639Y207424D01*
X270650Y207419D01*
X270663Y207413D01*
X270692Y207399D01*
X270726Y207379D01*
X270763Y207353D01*
X270799Y207324D01*
X270836Y207291D01*
Y207293D01*
X270839Y207297D01*
X270843Y207302D01*
X270848Y207311D01*
X270856Y207320D01*
X270863Y207333D01*
X270879Y207360D01*
X270899Y207393D01*
X270919Y207430D01*
X270936Y207468D01*
X270952Y207504D01*
X271067Y207455D01*
D02*
G37*
G36*
X260720Y191464D02*
X260719D01*
X260711D01*
X260700D01*
X260686Y191466D01*
X260669Y191468D01*
X260651Y191472D01*
X260633Y191475D01*
X260613Y191483D01*
X260611D01*
X260610Y191484D01*
X260598Y191488D01*
X260582Y191495D01*
X260560Y191506D01*
X260535Y191521D01*
X260506Y191539D01*
X260477Y191559D01*
X260446Y191585D01*
X260444D01*
X260442Y191588D01*
X260431Y191597D01*
X260415Y191614D01*
X260391Y191637D01*
X260364Y191665D01*
X260331Y191699D01*
X260295Y191741D01*
X260256Y191787D01*
X260255Y191788D01*
X260249Y191796D01*
X260240Y191807D01*
X260229Y191819D01*
X260214Y191836D01*
X260198Y191856D01*
X260180Y191876D01*
X260160Y191899D01*
X260116Y191945D01*
X260073Y191990D01*
X260051Y192012D01*
X260029Y192032D01*
X260009Y192051D01*
X259989Y192065D01*
X259987D01*
X259985Y192069D01*
X259980Y192072D01*
X259972Y192076D01*
X259952Y192089D01*
X259929Y192103D01*
X259900Y192116D01*
X259869Y192129D01*
X259834Y192136D01*
X259801Y192140D01*
X259800D01*
X259798D01*
X259787Y192138D01*
X259769Y192136D01*
X259749Y192130D01*
X259723Y192123D01*
X259698Y192111D01*
X259672Y192094D01*
X259647Y192072D01*
X259643Y192069D01*
X259636Y192060D01*
X259627Y192047D01*
X259614Y192027D01*
X259603Y192001D01*
X259592Y191972D01*
X259585Y191938D01*
X259583Y191899D01*
Y191888D01*
X259585Y191881D01*
X259587Y191859D01*
X259592Y191834D01*
X259599Y191807D01*
X259612Y191776D01*
X259629Y191746D01*
X259650Y191719D01*
X259654Y191716D01*
X259663Y191708D01*
X259678Y191697D01*
X259699Y191686D01*
X259725Y191674D01*
X259758Y191663D01*
X259794Y191656D01*
X259836Y191652D01*
X259820Y191493D01*
X259818D01*
X259812Y191495D01*
X259803D01*
X259790Y191497D01*
X259776Y191501D01*
X259759Y191504D01*
X259739Y191510D01*
X259719Y191515D01*
X259676Y191530D01*
X259632Y191552D01*
X259610Y191565D01*
X259588Y191581D01*
X259568Y191597D01*
X259550Y191615D01*
X259548Y191617D01*
X259547Y191621D01*
X259541Y191626D01*
X259536Y191636D01*
X259528Y191646D01*
X259521Y191659D01*
X259512Y191674D01*
X259503Y191692D01*
X259494Y191712D01*
X259485Y191734D01*
X259477Y191757D01*
X259470Y191783D01*
X259465Y191810D01*
X259459Y191839D01*
X259457Y191870D01*
X259456Y191903D01*
Y191921D01*
X259457Y191934D01*
X259459Y191948D01*
X259461Y191967D01*
X259465Y191987D01*
X259468Y192007D01*
X259481Y192054D01*
X259499Y192101D01*
X259510Y192125D01*
X259523Y192149D01*
X259539Y192171D01*
X259558Y192191D01*
X259559Y192192D01*
X259561Y192196D01*
X259568Y192200D01*
X259576Y192207D01*
X259585Y192216D01*
X259597Y192225D01*
X259610Y192234D01*
X259627Y192245D01*
X259661Y192263D01*
X259705Y192282D01*
X259727Y192289D01*
X259752Y192292D01*
X259778Y192296D01*
X259805Y192298D01*
X259809D01*
X259818D01*
X259832Y192296D01*
X259852Y192294D01*
X259874Y192291D01*
X259900Y192283D01*
X259927Y192276D01*
X259954Y192265D01*
X259958Y192263D01*
X259967Y192260D01*
X259982Y192253D01*
X260002Y192242D01*
X260023Y192227D01*
X260051Y192209D01*
X260078Y192187D01*
X260109Y192162D01*
X260113Y192158D01*
X260123Y192149D01*
X260133Y192140D01*
X260142Y192130D01*
X260153Y192120D01*
X260167Y192105D01*
X260182Y192090D01*
X260198Y192072D01*
X260216Y192054D01*
X260236Y192032D01*
X260256Y192009D01*
X260280Y191983D01*
X260304Y191954D01*
X260329Y191925D01*
X260331Y191923D01*
X260335Y191919D01*
X260340Y191912D01*
X260347Y191903D01*
X260358Y191892D01*
X260369Y191879D01*
X260393Y191850D01*
X260420Y191819D01*
X260448Y191790D01*
X260471Y191765D01*
X260480Y191754D01*
X260489Y191745D01*
X260491Y191743D01*
X260497Y191737D01*
X260504Y191730D01*
X260515Y191721D01*
X260528Y191712D01*
X260540Y191701D01*
X260571Y191679D01*
Y192300D01*
X260720D01*
Y191464D01*
D02*
G37*
G36*
X260156Y191328D02*
X260178D01*
X260202Y191326D01*
X260227Y191324D01*
X260285Y191319D01*
X260346Y191310D01*
X260404Y191299D01*
X260431Y191291D01*
X260458Y191282D01*
X260460D01*
X260464Y191281D01*
X260471Y191277D01*
X260480Y191273D01*
X260493Y191270D01*
X260506Y191262D01*
X260537Y191248D01*
X260569Y191230D01*
X260606Y191206D01*
X260639Y191179D01*
X260669Y191146D01*
Y191144D01*
X260673Y191142D01*
X260677Y191137D01*
X260680Y191130D01*
X260686Y191120D01*
X260693Y191111D01*
X260706Y191084D01*
X260719Y191051D01*
X260731Y191013D01*
X260739Y190968D01*
X260742Y190918D01*
Y190900D01*
X260740Y190887D01*
X260739Y190873D01*
X260735Y190855D01*
X260731Y190835D01*
X260726Y190813D01*
X260719Y190791D01*
X260711Y190767D01*
X260700Y190744D01*
X260688Y190720D01*
X260673Y190696D01*
X260655Y190673D01*
X260635Y190651D01*
X260613Y190631D01*
X260611Y190629D01*
X260606Y190625D01*
X260597Y190620D01*
X260582Y190611D01*
X260566Y190602D01*
X260544Y190593D01*
X260518Y190580D01*
X260489Y190569D01*
X260457Y190558D01*
X260418Y190547D01*
X260377Y190536D01*
X260329Y190527D01*
X260278Y190518D01*
X260224Y190513D01*
X260163Y190509D01*
X260100Y190507D01*
X260098D01*
X260091D01*
X260078D01*
X260064D01*
X260043Y190509D01*
X260022D01*
X259998Y190511D01*
X259971Y190513D01*
X259914Y190518D01*
X259854Y190527D01*
X259794Y190538D01*
X259767Y190545D01*
X259739Y190553D01*
X259738D01*
X259734Y190554D01*
X259727Y190558D01*
X259718Y190562D01*
X259705Y190565D01*
X259692Y190573D01*
X259661Y190587D01*
X259629Y190605D01*
X259594Y190629D01*
X259559Y190656D01*
X259530Y190689D01*
Y190691D01*
X259526Y190693D01*
X259523Y190698D01*
X259519Y190706D01*
X259512Y190715D01*
X259507Y190726D01*
X259492Y190753D01*
X259479Y190786D01*
X259467Y190824D01*
X259459Y190869D01*
X259456Y190918D01*
Y190935D01*
X259457Y190955D01*
X259461Y190979D01*
X259467Y191006D01*
X259474Y191035D01*
X259483Y191066D01*
X259497Y191095D01*
Y191097D01*
X259499Y191099D01*
X259505Y191108D01*
X259514Y191122D01*
X259526Y191140D01*
X259545Y191161D01*
X259565Y191182D01*
X259588Y191202D01*
X259616Y191222D01*
X259619Y191224D01*
X259629Y191231D01*
X259645Y191239D01*
X259668Y191252D01*
X259696Y191262D01*
X259727Y191277D01*
X259763Y191290D01*
X259803Y191301D01*
X259805D01*
X259809Y191302D01*
X259814Y191304D01*
X259823Y191306D01*
X259834Y191308D01*
X259847Y191310D01*
X259863Y191313D01*
X259881Y191315D01*
X259901Y191319D01*
X259923Y191321D01*
X259949Y191323D01*
X259974Y191326D01*
X260003Y191328D01*
X260033D01*
X260065Y191330D01*
X260100D01*
X260102D01*
X260109D01*
X260122D01*
X260136D01*
X260156Y191328D01*
D02*
G37*
G36*
Y190349D02*
X260178D01*
X260202Y190347D01*
X260227Y190345D01*
X260285Y190340D01*
X260346Y190331D01*
X260404Y190320D01*
X260431Y190312D01*
X260458Y190303D01*
X260460D01*
X260464Y190301D01*
X260471Y190298D01*
X260480Y190294D01*
X260493Y190290D01*
X260506Y190283D01*
X260537Y190269D01*
X260569Y190251D01*
X260606Y190227D01*
X260639Y190199D01*
X260669Y190167D01*
Y190165D01*
X260673Y190163D01*
X260677Y190158D01*
X260680Y190150D01*
X260686Y190141D01*
X260693Y190132D01*
X260706Y190105D01*
X260719Y190072D01*
X260731Y190034D01*
X260739Y189988D01*
X260742Y189939D01*
Y189921D01*
X260740Y189908D01*
X260739Y189894D01*
X260735Y189875D01*
X260731Y189856D01*
X260726Y189834D01*
X260719Y189812D01*
X260711Y189788D01*
X260700Y189764D01*
X260688Y189741D01*
X260673Y189717D01*
X260655Y189694D01*
X260635Y189672D01*
X260613Y189652D01*
X260611Y189650D01*
X260606Y189646D01*
X260597Y189641D01*
X260582Y189632D01*
X260566Y189623D01*
X260544Y189613D01*
X260518Y189601D01*
X260489Y189590D01*
X260457Y189579D01*
X260418Y189568D01*
X260377Y189557D01*
X260329Y189548D01*
X260278Y189539D01*
X260224Y189533D01*
X260163Y189530D01*
X260100Y189528D01*
X260098D01*
X260091D01*
X260078D01*
X260064D01*
X260043Y189530D01*
X260022D01*
X259998Y189532D01*
X259971Y189533D01*
X259914Y189539D01*
X259854Y189548D01*
X259794Y189559D01*
X259767Y189566D01*
X259739Y189573D01*
X259738D01*
X259734Y189575D01*
X259727Y189579D01*
X259718Y189583D01*
X259705Y189586D01*
X259692Y189594D01*
X259661Y189608D01*
X259629Y189626D01*
X259594Y189650D01*
X259559Y189677D01*
X259530Y189710D01*
Y189712D01*
X259526Y189714D01*
X259523Y189719D01*
X259519Y189726D01*
X259512Y189735D01*
X259507Y189746D01*
X259492Y189774D01*
X259479Y189806D01*
X259467Y189845D01*
X259459Y189890D01*
X259456Y189939D01*
Y189956D01*
X259457Y189976D01*
X259461Y189999D01*
X259467Y190027D01*
X259474Y190056D01*
X259483Y190087D01*
X259497Y190116D01*
Y190118D01*
X259499Y190119D01*
X259505Y190129D01*
X259514Y190143D01*
X259526Y190161D01*
X259545Y190181D01*
X259565Y190203D01*
X259588Y190223D01*
X259616Y190243D01*
X259619Y190245D01*
X259629Y190252D01*
X259645Y190260D01*
X259668Y190272D01*
X259696Y190283D01*
X259727Y190298D01*
X259763Y190311D01*
X259803Y190322D01*
X259805D01*
X259809Y190323D01*
X259814Y190325D01*
X259823Y190327D01*
X259834Y190329D01*
X259847Y190331D01*
X259863Y190334D01*
X259881Y190336D01*
X259901Y190340D01*
X259923Y190341D01*
X259949Y190343D01*
X259974Y190347D01*
X260003Y190349D01*
X260033D01*
X260065Y190351D01*
X260100D01*
X260102D01*
X260109D01*
X260122D01*
X260136D01*
X260156Y190349D01*
D02*
G37*
G36*
X259601Y189373D02*
X259605Y189370D01*
X259612Y189362D01*
X259623Y189355D01*
X259636Y189344D01*
X259650Y189330D01*
X259668Y189315D01*
X259690Y189299D01*
X259712Y189282D01*
X259738Y189262D01*
X259767Y189242D01*
X259796Y189222D01*
X259829Y189200D01*
X259863Y189179D01*
X259901Y189157D01*
X259940Y189135D01*
X259942Y189133D01*
X259949Y189129D01*
X259960Y189124D01*
X259976Y189115D01*
X259996Y189106D01*
X260018Y189095D01*
X260043Y189082D01*
X260073Y189069D01*
X260105Y189055D01*
X260138Y189038D01*
X260174Y189024D01*
X260213Y189009D01*
X260291Y188980D01*
X260375Y188953D01*
X260377D01*
X260382Y188951D01*
X260391Y188949D01*
X260402Y188945D01*
X260417Y188942D01*
X260435Y188938D01*
X260455Y188933D01*
X260477Y188929D01*
X260502Y188924D01*
X260529Y188918D01*
X260588Y188909D01*
X260651Y188900D01*
X260720Y188895D01*
Y188736D01*
X260719D01*
X260713D01*
X260706D01*
X260695Y188738D01*
X260680D01*
X260662Y188740D01*
X260642Y188742D01*
X260620Y188743D01*
X260595Y188747D01*
X260569Y188751D01*
X260539Y188756D01*
X260507Y188762D01*
X260475Y188767D01*
X260438Y188775D01*
X260364Y188793D01*
X260362D01*
X260355Y188795D01*
X260344Y188798D01*
X260327Y188804D01*
X260309Y188809D01*
X260287Y188816D01*
X260262Y188824D01*
X260234Y188835D01*
X260204Y188845D01*
X260173Y188856D01*
X260104Y188884D01*
X260031Y188916D01*
X259958Y188953D01*
X259956Y188955D01*
X259949Y188958D01*
X259940Y188964D01*
X259925Y188971D01*
X259909Y188980D01*
X259889Y188993D01*
X259867Y189006D01*
X259843Y189020D01*
X259790Y189055D01*
X259736Y189091D01*
X259679Y189133D01*
X259627Y189177D01*
Y188560D01*
X259477D01*
Y189375D01*
X259599D01*
X259601Y189373D01*
D02*
G37*
G36*
X260720Y188159D02*
X259732Y187501D01*
X260720D01*
Y187340D01*
X259461D01*
Y187511D01*
X260451Y188172D01*
X259461D01*
Y188332D01*
X260720D01*
Y188159D01*
D02*
G37*
G36*
Y186277D02*
X260719D01*
X260711D01*
X260700D01*
X260686Y186279D01*
X260669Y186281D01*
X260651Y186285D01*
X260633Y186288D01*
X260613Y186296D01*
X260611D01*
X260610Y186297D01*
X260598Y186301D01*
X260582Y186308D01*
X260560Y186319D01*
X260535Y186334D01*
X260506Y186352D01*
X260477Y186372D01*
X260446Y186398D01*
X260444D01*
X260442Y186401D01*
X260431Y186410D01*
X260415Y186427D01*
X260391Y186450D01*
X260364Y186478D01*
X260331Y186512D01*
X260295Y186554D01*
X260256Y186600D01*
X260255Y186601D01*
X260249Y186609D01*
X260240Y186620D01*
X260229Y186632D01*
X260214Y186649D01*
X260198Y186669D01*
X260180Y186689D01*
X260160Y186712D01*
X260116Y186758D01*
X260073Y186803D01*
X260051Y186825D01*
X260029Y186845D01*
X260009Y186863D01*
X259989Y186878D01*
X259987D01*
X259985Y186882D01*
X259980Y186885D01*
X259972Y186889D01*
X259952Y186902D01*
X259929Y186916D01*
X259900Y186929D01*
X259869Y186942D01*
X259834Y186949D01*
X259801Y186953D01*
X259800D01*
X259798D01*
X259787Y186951D01*
X259769Y186949D01*
X259749Y186943D01*
X259723Y186936D01*
X259698Y186924D01*
X259672Y186907D01*
X259647Y186885D01*
X259643Y186882D01*
X259636Y186873D01*
X259627Y186860D01*
X259614Y186840D01*
X259603Y186814D01*
X259592Y186785D01*
X259585Y186751D01*
X259583Y186712D01*
Y186702D01*
X259585Y186694D01*
X259587Y186672D01*
X259592Y186647D01*
X259599Y186620D01*
X259612Y186589D01*
X259629Y186559D01*
X259650Y186532D01*
X259654Y186529D01*
X259663Y186521D01*
X259678Y186510D01*
X259699Y186500D01*
X259725Y186487D01*
X259758Y186476D01*
X259794Y186469D01*
X259836Y186465D01*
X259820Y186307D01*
X259818D01*
X259812Y186308D01*
X259803D01*
X259790Y186310D01*
X259776Y186314D01*
X259759Y186318D01*
X259739Y186323D01*
X259719Y186328D01*
X259676Y186343D01*
X259632Y186365D01*
X259610Y186378D01*
X259588Y186394D01*
X259568Y186410D01*
X259550Y186428D01*
X259548Y186430D01*
X259547Y186434D01*
X259541Y186439D01*
X259536Y186449D01*
X259528Y186459D01*
X259521Y186472D01*
X259512Y186487D01*
X259503Y186505D01*
X259494Y186525D01*
X259485Y186547D01*
X259477Y186570D01*
X259470Y186596D01*
X259465Y186623D01*
X259459Y186652D01*
X259457Y186683D01*
X259456Y186716D01*
Y186734D01*
X259457Y186747D01*
X259459Y186761D01*
X259461Y186780D01*
X259465Y186800D01*
X259468Y186820D01*
X259481Y186867D01*
X259499Y186914D01*
X259510Y186938D01*
X259523Y186962D01*
X259539Y186984D01*
X259558Y187004D01*
X259559Y187005D01*
X259561Y187009D01*
X259568Y187013D01*
X259576Y187020D01*
X259585Y187029D01*
X259597Y187038D01*
X259610Y187047D01*
X259627Y187058D01*
X259661Y187076D01*
X259705Y187095D01*
X259727Y187102D01*
X259752Y187106D01*
X259778Y187109D01*
X259805Y187111D01*
X259809D01*
X259818D01*
X259832Y187109D01*
X259852Y187107D01*
X259874Y187104D01*
X259900Y187096D01*
X259927Y187089D01*
X259954Y187078D01*
X259958Y187076D01*
X259967Y187073D01*
X259982Y187065D01*
X260002Y187055D01*
X260023Y187040D01*
X260051Y187022D01*
X260078Y187000D01*
X260109Y186975D01*
X260113Y186971D01*
X260123Y186962D01*
X260133Y186953D01*
X260142Y186943D01*
X260153Y186933D01*
X260167Y186918D01*
X260182Y186904D01*
X260198Y186885D01*
X260216Y186867D01*
X260236Y186845D01*
X260256Y186822D01*
X260280Y186796D01*
X260304Y186767D01*
X260329Y186738D01*
X260331Y186736D01*
X260335Y186732D01*
X260340Y186725D01*
X260347Y186716D01*
X260358Y186705D01*
X260369Y186692D01*
X260393Y186663D01*
X260420Y186632D01*
X260448Y186603D01*
X260471Y186578D01*
X260480Y186567D01*
X260489Y186558D01*
X260491Y186556D01*
X260497Y186550D01*
X260504Y186543D01*
X260515Y186534D01*
X260528Y186525D01*
X260540Y186514D01*
X260571Y186492D01*
Y187113D01*
X260720D01*
Y186277D01*
D02*
G37*
G36*
X258703Y188465D02*
X258718Y188463D01*
X258734Y188460D01*
X258752Y188456D01*
X258772Y188452D01*
X258816Y188438D01*
X258840Y188427D01*
X258862Y188416D01*
X258885Y188401D01*
X258909Y188385D01*
X258933Y188367D01*
X258954Y188345D01*
X258956Y188343D01*
X258960Y188339D01*
X258965Y188332D01*
X258973Y188323D01*
X258982Y188312D01*
X258991Y188298D01*
X259002Y188281D01*
X259011Y188261D01*
X259022Y188241D01*
X259033Y188217D01*
X259042Y188194D01*
X259051Y188167D01*
X259058Y188137D01*
X259064Y188107D01*
X259067Y188076D01*
X259069Y188041D01*
Y188025D01*
X259067Y188014D01*
X259065Y187999D01*
X259064Y187983D01*
X259060Y187965D01*
X259056Y187944D01*
X259045Y187901D01*
X259027Y187855D01*
X259016Y187832D01*
X259004Y187810D01*
X258987Y187788D01*
X258971Y187766D01*
X258969Y187764D01*
X258965Y187761D01*
X258960Y187755D01*
X258953Y187750D01*
X258944Y187741D01*
X258931Y187732D01*
X258918Y187721D01*
X258902Y187710D01*
X258883Y187699D01*
X258865Y187688D01*
X258822Y187668D01*
X258771Y187652D01*
X258743Y187646D01*
X258714Y187642D01*
X258694Y187797D01*
X258696D01*
X258700Y187799D01*
X258707Y187801D01*
X258716Y187803D01*
X258727Y187804D01*
X258740Y187808D01*
X258767Y187817D01*
X258800Y187830D01*
X258831Y187846D01*
X258860Y187864D01*
X258885Y187886D01*
X258887Y187890D01*
X258894Y187897D01*
X258904Y187912D01*
X258913Y187930D01*
X258924Y187952D01*
X258933Y187979D01*
X258940Y188010D01*
X258942Y188043D01*
Y188054D01*
X258940Y188061D01*
X258938Y188081D01*
X258933Y188107D01*
X258924Y188136D01*
X258911Y188167D01*
X258892Y188198D01*
X258867Y188227D01*
X258863Y188230D01*
X258853Y188239D01*
X258836Y188250D01*
X258814Y188265D01*
X258787Y188279D01*
X258756Y188290D01*
X258720Y188299D01*
X258680Y188303D01*
X258678D01*
X258674D01*
X258669D01*
X258661Y188301D01*
X258641Y188299D01*
X258618Y188294D01*
X258589Y188287D01*
X258559Y188274D01*
X258530Y188256D01*
X258503Y188232D01*
X258499Y188228D01*
X258492Y188219D01*
X258481Y188205D01*
X258469Y188185D01*
X258456Y188159D01*
X258445Y188128D01*
X258437Y188094D01*
X258434Y188056D01*
Y188039D01*
X258436Y188026D01*
X258437Y188010D01*
X258441Y187992D01*
X258445Y187970D01*
X258450Y187946D01*
X258314Y187965D01*
Y187974D01*
X258316Y187981D01*
Y188005D01*
X258312Y188025D01*
X258308Y188048D01*
X258303Y188076D01*
X258294Y188107D01*
X258281Y188136D01*
X258265Y188167D01*
Y188168D01*
X258263Y188170D01*
X258256Y188179D01*
X258243Y188192D01*
X258226Y188207D01*
X258203Y188221D01*
X258175Y188234D01*
X258144Y188243D01*
X258126Y188247D01*
X258106D01*
X258104D01*
X258103D01*
X258092D01*
X258077Y188243D01*
X258057Y188239D01*
X258035Y188232D01*
X258012Y188223D01*
X257988Y188208D01*
X257966Y188188D01*
X257964Y188187D01*
X257957Y188178D01*
X257948Y188165D01*
X257937Y188148D01*
X257928Y188127D01*
X257919Y188101D01*
X257912Y188072D01*
X257910Y188039D01*
Y188025D01*
X257913Y188008D01*
X257917Y187986D01*
X257924Y187963D01*
X257933Y187939D01*
X257948Y187914D01*
X257966Y187890D01*
X257968Y187888D01*
X257977Y187881D01*
X257990Y187870D01*
X258008Y187857D01*
X258032Y187844D01*
X258061Y187832D01*
X258095Y187821D01*
X258135Y187813D01*
X258108Y187659D01*
X258106D01*
X258101Y187661D01*
X258094Y187662D01*
X258083Y187664D01*
X258070Y187668D01*
X258055Y187673D01*
X258021Y187684D01*
X257981Y187703D01*
X257941Y187724D01*
X257903Y187752D01*
X257868Y187786D01*
X257866Y187788D01*
X257864Y187792D01*
X257861Y187797D01*
X257855Y187804D01*
X257848Y187813D01*
X257841Y187826D01*
X257833Y187839D01*
X257824Y187855D01*
X257810Y187892D01*
X257795Y187934D01*
X257786Y187983D01*
X257782Y188008D01*
Y188054D01*
X257784Y188074D01*
X257788Y188097D01*
X257793Y188127D01*
X257802Y188159D01*
X257813Y188192D01*
X257828Y188225D01*
Y188227D01*
X257830Y188228D01*
X257835Y188239D01*
X257846Y188256D01*
X257859Y188274D01*
X257877Y188296D01*
X257897Y188318D01*
X257921Y188339D01*
X257948Y188358D01*
X257952Y188359D01*
X257961Y188365D01*
X257977Y188372D01*
X257997Y188381D01*
X258021Y188390D01*
X258048Y188398D01*
X258079Y188403D01*
X258110Y188405D01*
X258114D01*
X258124D01*
X258139Y188403D01*
X258159Y188400D01*
X258183Y188394D01*
X258208Y188385D01*
X258234Y188374D01*
X258259Y188359D01*
X258263Y188358D01*
X258270Y188352D01*
X258283Y188341D01*
X258297Y188327D01*
X258314Y188309D01*
X258332Y188287D01*
X258348Y188261D01*
X258365Y188230D01*
Y188232D01*
X258367Y188236D01*
X258368Y188241D01*
X258370Y188249D01*
X258378Y188268D01*
X258388Y188294D01*
X258403Y188323D01*
X258421Y188352D01*
X258445Y188380D01*
X258472Y188405D01*
X258476Y188407D01*
X258487Y188414D01*
X258505Y188425D01*
X258528Y188436D01*
X258558Y188447D01*
X258592Y188458D01*
X258632Y188465D01*
X258676Y188467D01*
X258678D01*
X258683D01*
X258692D01*
X258703Y188465D01*
D02*
G37*
G36*
X259145Y187455D02*
Y187453D01*
X259144Y187450D01*
X259140Y187442D01*
X259136Y187431D01*
X259131Y187419D01*
X259124Y187404D01*
X259116Y187388D01*
X259107Y187369D01*
X259085Y187329D01*
X259060Y187284D01*
X259027Y187235D01*
X258991Y187184D01*
Y187182D01*
X258995Y187178D01*
X258998Y187169D01*
X259004Y187160D01*
X259009Y187146D01*
X259016Y187131D01*
X259022Y187113D01*
X259029Y187093D01*
X259036Y187071D01*
X259044Y187047D01*
X259056Y186995D01*
X259065Y186936D01*
X259067Y186905D01*
X259069Y186874D01*
Y186858D01*
X259067Y186845D01*
Y186831D01*
X259065Y186812D01*
X259062Y186793D01*
X259058Y186771D01*
X259049Y186723D01*
X259034Y186670D01*
X259015Y186616D01*
X259002Y186591D01*
X258987Y186563D01*
X258985Y186561D01*
X258983Y186558D01*
X258978Y186550D01*
X258973Y186541D01*
X258963Y186529D01*
X258953Y186516D01*
X258927Y186485D01*
X258894Y186450D01*
X258854Y186416D01*
X258809Y186381D01*
X258756Y186350D01*
X258754D01*
X258749Y186347D01*
X258741Y186343D01*
X258731Y186339D01*
X258716Y186334D01*
X258700Y186327D01*
X258680Y186319D01*
X258658Y186314D01*
X258634Y186307D01*
X258609Y186299D01*
X258581Y186294D01*
X258550Y186286D01*
X258487Y186279D01*
X258419Y186276D01*
X258418D01*
X258410D01*
X258401D01*
X258388Y186277D01*
X258372D01*
X258352Y186279D01*
X258330Y186281D01*
X258307Y186285D01*
X258254Y186294D01*
X258197Y186307D01*
X258137Y186325D01*
X258079Y186350D01*
X258077Y186352D01*
X258072Y186354D01*
X258064Y186357D01*
X258053Y186365D01*
X258041Y186372D01*
X258026Y186381D01*
X257992Y186407D01*
X257955Y186436D01*
X257917Y186474D01*
X257879Y186516D01*
X257846Y186565D01*
X257844Y186567D01*
X257842Y186572D01*
X257839Y186580D01*
X257833Y186591D01*
X257828Y186603D01*
X257821Y186618D01*
X257813Y186636D01*
X257806Y186656D01*
X257799Y186680D01*
X257791Y186703D01*
X257779Y186756D01*
X257770Y186814D01*
X257766Y186845D01*
Y186894D01*
X257768Y186907D01*
Y186924D01*
X257770Y186940D01*
X257773Y186962D01*
X257777Y186984D01*
X257786Y187031D01*
X257801Y187085D01*
X257822Y187138D01*
X257835Y187166D01*
X257850Y187193D01*
X257852Y187195D01*
X257853Y187198D01*
X257859Y187206D01*
X257864Y187216D01*
X257873Y187227D01*
X257884Y187242D01*
X257910Y187273D01*
X257943Y187306D01*
X257982Y187342D01*
X258030Y187377D01*
X258083Y187406D01*
X258085D01*
X258090Y187409D01*
X258097Y187413D01*
X258108Y187417D01*
X258123Y187424D01*
X258139Y187429D01*
X258159Y187437D01*
X258181Y187444D01*
X258205Y187450D01*
X258230Y187457D01*
X258257Y187464D01*
X258286Y187469D01*
X258350Y187477D01*
X258418Y187480D01*
X258419D01*
X258425D01*
X258432D01*
X258443D01*
X258458Y187479D01*
X258474D01*
X258492Y187477D01*
X258510Y187475D01*
X258554Y187469D01*
X258601Y187460D01*
X258650Y187450D01*
X258698Y187433D01*
X258700D01*
X258703Y187431D01*
X258711Y187428D01*
X258718Y187424D01*
X258729Y187419D01*
X258741Y187413D01*
X258771Y187399D01*
X258805Y187379D01*
X258842Y187353D01*
X258878Y187324D01*
X258914Y187291D01*
Y187293D01*
X258918Y187297D01*
X258922Y187302D01*
X258927Y187311D01*
X258934Y187320D01*
X258942Y187333D01*
X258958Y187360D01*
X258978Y187393D01*
X258998Y187429D01*
X259015Y187468D01*
X259031Y187504D01*
X259145Y187455D01*
D02*
G37*
G36*
X284720Y178964D02*
X284719D01*
X284711D01*
X284700D01*
X284686Y178966D01*
X284669Y178968D01*
X284651Y178972D01*
X284633Y178975D01*
X284613Y178983D01*
X284611D01*
X284610Y178984D01*
X284598Y178988D01*
X284582Y178995D01*
X284560Y179006D01*
X284535Y179021D01*
X284506Y179039D01*
X284477Y179059D01*
X284446Y179085D01*
X284444D01*
X284442Y179088D01*
X284431Y179097D01*
X284415Y179114D01*
X284391Y179137D01*
X284364Y179165D01*
X284331Y179199D01*
X284295Y179241D01*
X284256Y179287D01*
X284255Y179288D01*
X284249Y179296D01*
X284240Y179307D01*
X284229Y179319D01*
X284214Y179336D01*
X284198Y179356D01*
X284180Y179376D01*
X284160Y179399D01*
X284116Y179445D01*
X284073Y179490D01*
X284051Y179512D01*
X284029Y179532D01*
X284009Y179551D01*
X283989Y179565D01*
X283987D01*
X283985Y179569D01*
X283980Y179572D01*
X283972Y179576D01*
X283952Y179589D01*
X283929Y179603D01*
X283900Y179616D01*
X283869Y179629D01*
X283834Y179636D01*
X283801Y179640D01*
X283800D01*
X283798D01*
X283787Y179638D01*
X283769Y179636D01*
X283749Y179630D01*
X283723Y179623D01*
X283698Y179611D01*
X283672Y179594D01*
X283647Y179572D01*
X283643Y179569D01*
X283636Y179560D01*
X283627Y179547D01*
X283614Y179527D01*
X283603Y179501D01*
X283592Y179472D01*
X283585Y179438D01*
X283583Y179399D01*
Y179388D01*
X283585Y179381D01*
X283587Y179359D01*
X283592Y179334D01*
X283599Y179307D01*
X283612Y179276D01*
X283629Y179246D01*
X283650Y179219D01*
X283654Y179216D01*
X283663Y179208D01*
X283678Y179197D01*
X283699Y179186D01*
X283725Y179174D01*
X283758Y179163D01*
X283794Y179156D01*
X283836Y179152D01*
X283820Y178993D01*
X283818D01*
X283812Y178995D01*
X283803D01*
X283790Y178997D01*
X283776Y179001D01*
X283759Y179004D01*
X283739Y179010D01*
X283719Y179015D01*
X283676Y179030D01*
X283632Y179052D01*
X283610Y179065D01*
X283588Y179081D01*
X283568Y179097D01*
X283550Y179115D01*
X283548Y179117D01*
X283547Y179121D01*
X283541Y179126D01*
X283536Y179136D01*
X283528Y179146D01*
X283521Y179159D01*
X283512Y179174D01*
X283503Y179192D01*
X283494Y179212D01*
X283485Y179234D01*
X283477Y179257D01*
X283470Y179283D01*
X283465Y179310D01*
X283459Y179339D01*
X283457Y179370D01*
X283456Y179403D01*
Y179421D01*
X283457Y179434D01*
X283459Y179448D01*
X283461Y179467D01*
X283465Y179487D01*
X283468Y179507D01*
X283481Y179554D01*
X283499Y179601D01*
X283510Y179625D01*
X283523Y179649D01*
X283539Y179671D01*
X283558Y179691D01*
X283559Y179692D01*
X283561Y179696D01*
X283568Y179700D01*
X283576Y179707D01*
X283585Y179716D01*
X283597Y179725D01*
X283610Y179734D01*
X283627Y179745D01*
X283661Y179763D01*
X283705Y179782D01*
X283727Y179789D01*
X283752Y179792D01*
X283778Y179796D01*
X283805Y179798D01*
X283809D01*
X283818D01*
X283832Y179796D01*
X283852Y179794D01*
X283874Y179791D01*
X283900Y179783D01*
X283927Y179776D01*
X283954Y179765D01*
X283958Y179763D01*
X283967Y179760D01*
X283982Y179753D01*
X284002Y179742D01*
X284023Y179727D01*
X284051Y179709D01*
X284078Y179687D01*
X284109Y179662D01*
X284113Y179658D01*
X284123Y179649D01*
X284133Y179640D01*
X284142Y179630D01*
X284153Y179620D01*
X284167Y179605D01*
X284182Y179590D01*
X284198Y179572D01*
X284216Y179554D01*
X284236Y179532D01*
X284256Y179509D01*
X284280Y179483D01*
X284304Y179454D01*
X284329Y179425D01*
X284331Y179423D01*
X284335Y179419D01*
X284340Y179412D01*
X284347Y179403D01*
X284358Y179392D01*
X284369Y179379D01*
X284393Y179350D01*
X284420Y179319D01*
X284448Y179290D01*
X284471Y179265D01*
X284480Y179254D01*
X284489Y179245D01*
X284491Y179243D01*
X284497Y179237D01*
X284504Y179230D01*
X284515Y179221D01*
X284528Y179212D01*
X284540Y179201D01*
X284571Y179179D01*
Y179800D01*
X284720D01*
Y178964D01*
D02*
G37*
G36*
X284156Y178828D02*
X284178D01*
X284202Y178826D01*
X284227Y178824D01*
X284285Y178819D01*
X284346Y178810D01*
X284404Y178799D01*
X284431Y178791D01*
X284458Y178782D01*
X284460D01*
X284464Y178781D01*
X284471Y178777D01*
X284480Y178773D01*
X284493Y178770D01*
X284506Y178762D01*
X284537Y178748D01*
X284569Y178730D01*
X284606Y178706D01*
X284639Y178679D01*
X284669Y178646D01*
Y178644D01*
X284673Y178642D01*
X284677Y178637D01*
X284680Y178630D01*
X284686Y178620D01*
X284693Y178611D01*
X284706Y178584D01*
X284719Y178551D01*
X284731Y178513D01*
X284739Y178468D01*
X284742Y178418D01*
Y178400D01*
X284740Y178387D01*
X284739Y178373D01*
X284735Y178355D01*
X284731Y178335D01*
X284726Y178313D01*
X284719Y178291D01*
X284711Y178267D01*
X284700Y178244D01*
X284688Y178220D01*
X284673Y178196D01*
X284655Y178173D01*
X284635Y178151D01*
X284613Y178131D01*
X284611Y178129D01*
X284606Y178125D01*
X284597Y178120D01*
X284582Y178111D01*
X284566Y178102D01*
X284544Y178093D01*
X284518Y178080D01*
X284489Y178069D01*
X284457Y178058D01*
X284418Y178047D01*
X284377Y178036D01*
X284329Y178027D01*
X284278Y178018D01*
X284224Y178013D01*
X284163Y178009D01*
X284100Y178007D01*
X284098D01*
X284091D01*
X284078D01*
X284064D01*
X284043Y178009D01*
X284022D01*
X283998Y178011D01*
X283971Y178013D01*
X283914Y178018D01*
X283854Y178027D01*
X283794Y178038D01*
X283767Y178045D01*
X283739Y178053D01*
X283738D01*
X283734Y178054D01*
X283727Y178058D01*
X283718Y178062D01*
X283705Y178065D01*
X283692Y178073D01*
X283661Y178087D01*
X283629Y178105D01*
X283594Y178129D01*
X283559Y178156D01*
X283530Y178189D01*
Y178191D01*
X283526Y178193D01*
X283523Y178198D01*
X283519Y178206D01*
X283512Y178215D01*
X283506Y178226D01*
X283492Y178253D01*
X283479Y178286D01*
X283467Y178324D01*
X283459Y178369D01*
X283456Y178418D01*
Y178435D01*
X283457Y178455D01*
X283461Y178479D01*
X283467Y178506D01*
X283474Y178535D01*
X283483Y178566D01*
X283497Y178595D01*
Y178597D01*
X283499Y178599D01*
X283505Y178608D01*
X283514Y178622D01*
X283526Y178640D01*
X283545Y178661D01*
X283565Y178682D01*
X283588Y178702D01*
X283616Y178722D01*
X283619Y178724D01*
X283629Y178731D01*
X283645Y178739D01*
X283668Y178752D01*
X283696Y178762D01*
X283727Y178777D01*
X283763Y178790D01*
X283803Y178801D01*
X283805D01*
X283809Y178802D01*
X283814Y178804D01*
X283823Y178806D01*
X283834Y178808D01*
X283847Y178810D01*
X283863Y178813D01*
X283881Y178815D01*
X283902Y178819D01*
X283923Y178821D01*
X283949Y178823D01*
X283974Y178826D01*
X284003Y178828D01*
X284033D01*
X284065Y178830D01*
X284100D01*
X284102D01*
X284109D01*
X284122D01*
X284136D01*
X284156Y178828D01*
D02*
G37*
G36*
Y177849D02*
X284178D01*
X284202Y177847D01*
X284227Y177845D01*
X284285Y177840D01*
X284346Y177831D01*
X284404Y177820D01*
X284431Y177812D01*
X284458Y177803D01*
X284460D01*
X284464Y177801D01*
X284471Y177798D01*
X284480Y177794D01*
X284493Y177790D01*
X284506Y177783D01*
X284537Y177769D01*
X284569Y177751D01*
X284606Y177727D01*
X284639Y177699D01*
X284669Y177667D01*
Y177665D01*
X284673Y177663D01*
X284677Y177658D01*
X284680Y177650D01*
X284686Y177641D01*
X284693Y177632D01*
X284706Y177605D01*
X284719Y177572D01*
X284731Y177534D01*
X284739Y177488D01*
X284742Y177439D01*
Y177421D01*
X284740Y177408D01*
X284739Y177394D01*
X284735Y177375D01*
X284731Y177356D01*
X284726Y177334D01*
X284719Y177312D01*
X284711Y177288D01*
X284700Y177264D01*
X284688Y177241D01*
X284673Y177217D01*
X284655Y177194D01*
X284635Y177172D01*
X284613Y177152D01*
X284611Y177150D01*
X284606Y177146D01*
X284597Y177141D01*
X284582Y177132D01*
X284566Y177123D01*
X284544Y177113D01*
X284518Y177101D01*
X284489Y177090D01*
X284457Y177079D01*
X284418Y177068D01*
X284377Y177057D01*
X284329Y177048D01*
X284278Y177039D01*
X284224Y177033D01*
X284163Y177030D01*
X284100Y177028D01*
X284098D01*
X284091D01*
X284078D01*
X284064D01*
X284043Y177030D01*
X284022D01*
X283998Y177032D01*
X283971Y177033D01*
X283914Y177039D01*
X283854Y177048D01*
X283794Y177059D01*
X283767Y177066D01*
X283739Y177073D01*
X283738D01*
X283734Y177075D01*
X283727Y177079D01*
X283718Y177083D01*
X283705Y177086D01*
X283692Y177094D01*
X283661Y177108D01*
X283629Y177126D01*
X283594Y177150D01*
X283559Y177177D01*
X283530Y177210D01*
Y177212D01*
X283526Y177214D01*
X283523Y177219D01*
X283519Y177226D01*
X283512Y177235D01*
X283506Y177246D01*
X283492Y177274D01*
X283479Y177306D01*
X283467Y177345D01*
X283459Y177390D01*
X283456Y177439D01*
Y177456D01*
X283457Y177476D01*
X283461Y177499D01*
X283467Y177527D01*
X283474Y177556D01*
X283483Y177587D01*
X283497Y177616D01*
Y177618D01*
X283499Y177619D01*
X283505Y177629D01*
X283514Y177643D01*
X283526Y177661D01*
X283545Y177681D01*
X283565Y177703D01*
X283588Y177723D01*
X283616Y177743D01*
X283619Y177745D01*
X283629Y177752D01*
X283645Y177760D01*
X283668Y177772D01*
X283696Y177783D01*
X283727Y177798D01*
X283763Y177811D01*
X283803Y177822D01*
X283805D01*
X283809Y177823D01*
X283814Y177825D01*
X283823Y177827D01*
X283834Y177829D01*
X283847Y177831D01*
X283863Y177834D01*
X283881Y177836D01*
X283902Y177840D01*
X283923Y177841D01*
X283949Y177843D01*
X283974Y177847D01*
X284003Y177849D01*
X284033D01*
X284065Y177851D01*
X284100D01*
X284102D01*
X284109D01*
X284122D01*
X284136D01*
X284156Y177849D01*
D02*
G37*
G36*
X283601Y176873D02*
X283605Y176870D01*
X283612Y176862D01*
X283623Y176855D01*
X283636Y176844D01*
X283650Y176830D01*
X283668Y176815D01*
X283690Y176799D01*
X283712Y176782D01*
X283738Y176762D01*
X283767Y176742D01*
X283796Y176722D01*
X283829Y176700D01*
X283863Y176679D01*
X283902Y176657D01*
X283940Y176635D01*
X283942Y176633D01*
X283949Y176629D01*
X283960Y176624D01*
X283976Y176615D01*
X283996Y176606D01*
X284018Y176595D01*
X284043Y176582D01*
X284073Y176569D01*
X284105Y176555D01*
X284138Y176538D01*
X284174Y176524D01*
X284213Y176509D01*
X284291Y176480D01*
X284375Y176453D01*
X284377D01*
X284382Y176451D01*
X284391Y176449D01*
X284402Y176445D01*
X284417Y176442D01*
X284435Y176438D01*
X284455Y176433D01*
X284477Y176429D01*
X284502Y176424D01*
X284529Y176418D01*
X284588Y176409D01*
X284651Y176400D01*
X284720Y176395D01*
Y176236D01*
X284719D01*
X284713D01*
X284706D01*
X284695Y176238D01*
X284680D01*
X284662Y176240D01*
X284642Y176242D01*
X284620Y176243D01*
X284595Y176247D01*
X284569Y176251D01*
X284539Y176256D01*
X284507Y176262D01*
X284475Y176267D01*
X284438Y176275D01*
X284364Y176293D01*
X284362D01*
X284355Y176295D01*
X284344Y176298D01*
X284327Y176304D01*
X284309Y176309D01*
X284287Y176316D01*
X284262Y176324D01*
X284234Y176335D01*
X284204Y176345D01*
X284173Y176356D01*
X284103Y176384D01*
X284031Y176416D01*
X283958Y176453D01*
X283956Y176455D01*
X283949Y176458D01*
X283940Y176464D01*
X283925Y176471D01*
X283909Y176480D01*
X283889Y176493D01*
X283867Y176506D01*
X283843Y176520D01*
X283790Y176555D01*
X283736Y176591D01*
X283679Y176633D01*
X283627Y176677D01*
Y176060D01*
X283477D01*
Y176875D01*
X283599D01*
X283601Y176873D01*
D02*
G37*
G36*
X284720Y175659D02*
X283732Y175001D01*
X284720D01*
Y174840D01*
X283461D01*
Y175011D01*
X284451Y175672D01*
X283461D01*
Y175832D01*
X284720D01*
Y175659D01*
D02*
G37*
G36*
Y173777D02*
X284719D01*
X284711D01*
X284700D01*
X284686Y173779D01*
X284669Y173781D01*
X284651Y173785D01*
X284633Y173788D01*
X284613Y173796D01*
X284611D01*
X284610Y173797D01*
X284598Y173801D01*
X284582Y173808D01*
X284560Y173819D01*
X284535Y173834D01*
X284506Y173852D01*
X284477Y173872D01*
X284446Y173898D01*
X284444D01*
X284442Y173901D01*
X284431Y173910D01*
X284415Y173927D01*
X284391Y173950D01*
X284364Y173978D01*
X284331Y174012D01*
X284295Y174054D01*
X284256Y174100D01*
X284255Y174101D01*
X284249Y174109D01*
X284240Y174120D01*
X284229Y174132D01*
X284214Y174149D01*
X284198Y174169D01*
X284180Y174189D01*
X284160Y174212D01*
X284116Y174258D01*
X284073Y174303D01*
X284051Y174325D01*
X284029Y174345D01*
X284009Y174363D01*
X283989Y174378D01*
X283987D01*
X283985Y174382D01*
X283980Y174385D01*
X283972Y174389D01*
X283952Y174402D01*
X283929Y174416D01*
X283900Y174429D01*
X283869Y174442D01*
X283834Y174449D01*
X283801Y174453D01*
X283800D01*
X283798D01*
X283787Y174451D01*
X283769Y174449D01*
X283749Y174443D01*
X283723Y174436D01*
X283698Y174424D01*
X283672Y174407D01*
X283647Y174385D01*
X283643Y174382D01*
X283636Y174373D01*
X283627Y174360D01*
X283614Y174340D01*
X283603Y174314D01*
X283592Y174285D01*
X283585Y174251D01*
X283583Y174212D01*
Y174202D01*
X283585Y174194D01*
X283587Y174172D01*
X283592Y174147D01*
X283599Y174120D01*
X283612Y174089D01*
X283629Y174059D01*
X283650Y174032D01*
X283654Y174029D01*
X283663Y174021D01*
X283678Y174010D01*
X283699Y174000D01*
X283725Y173987D01*
X283758Y173976D01*
X283794Y173969D01*
X283836Y173965D01*
X283820Y173807D01*
X283818D01*
X283812Y173808D01*
X283803D01*
X283790Y173810D01*
X283776Y173814D01*
X283759Y173818D01*
X283739Y173823D01*
X283719Y173828D01*
X283676Y173843D01*
X283632Y173865D01*
X283610Y173878D01*
X283588Y173894D01*
X283568Y173910D01*
X283550Y173928D01*
X283548Y173930D01*
X283547Y173934D01*
X283541Y173939D01*
X283536Y173949D01*
X283528Y173959D01*
X283521Y173972D01*
X283512Y173987D01*
X283503Y174005D01*
X283494Y174025D01*
X283485Y174047D01*
X283477Y174070D01*
X283470Y174096D01*
X283465Y174123D01*
X283459Y174152D01*
X283457Y174183D01*
X283456Y174216D01*
Y174234D01*
X283457Y174247D01*
X283459Y174261D01*
X283461Y174280D01*
X283465Y174300D01*
X283468Y174320D01*
X283481Y174367D01*
X283499Y174414D01*
X283510Y174438D01*
X283523Y174462D01*
X283539Y174484D01*
X283558Y174504D01*
X283559Y174505D01*
X283561Y174509D01*
X283568Y174513D01*
X283576Y174520D01*
X283585Y174529D01*
X283597Y174538D01*
X283610Y174547D01*
X283627Y174558D01*
X283661Y174576D01*
X283705Y174595D01*
X283727Y174602D01*
X283752Y174606D01*
X283778Y174609D01*
X283805Y174611D01*
X283809D01*
X283818D01*
X283832Y174609D01*
X283852Y174607D01*
X283874Y174604D01*
X283900Y174596D01*
X283927Y174589D01*
X283954Y174578D01*
X283958Y174576D01*
X283967Y174573D01*
X283982Y174565D01*
X284002Y174555D01*
X284023Y174540D01*
X284051Y174522D01*
X284078Y174500D01*
X284109Y174475D01*
X284113Y174471D01*
X284123Y174462D01*
X284133Y174453D01*
X284142Y174443D01*
X284153Y174433D01*
X284167Y174418D01*
X284182Y174404D01*
X284198Y174385D01*
X284216Y174367D01*
X284236Y174345D01*
X284256Y174322D01*
X284280Y174296D01*
X284304Y174267D01*
X284329Y174238D01*
X284331Y174236D01*
X284335Y174232D01*
X284340Y174225D01*
X284347Y174216D01*
X284358Y174205D01*
X284369Y174192D01*
X284393Y174163D01*
X284420Y174132D01*
X284448Y174103D01*
X284471Y174078D01*
X284480Y174067D01*
X284489Y174058D01*
X284491Y174056D01*
X284497Y174050D01*
X284504Y174043D01*
X284515Y174034D01*
X284528Y174025D01*
X284540Y174014D01*
X284571Y173992D01*
Y174613D01*
X284720D01*
Y173777D01*
D02*
G37*
G36*
X283047Y175568D02*
X282063D01*
X282064Y175566D01*
X282072Y175557D01*
X282083Y175547D01*
X282095Y175528D01*
X282112Y175508D01*
X282130Y175483D01*
X282150Y175454D01*
X282170Y175421D01*
Y175419D01*
X282172Y175417D01*
X282179Y175406D01*
X282188Y175388D01*
X282199Y175366D01*
X282212Y175341D01*
X282225Y175313D01*
X282237Y175286D01*
X282248Y175259D01*
X282099D01*
Y175261D01*
X282095Y175264D01*
X282094Y175272D01*
X282088Y175281D01*
X282083Y175292D01*
X282075Y175304D01*
X282057Y175335D01*
X282037Y175372D01*
X282012Y175408D01*
X281982Y175446D01*
X281952Y175485D01*
X281950Y175486D01*
X281948Y175488D01*
X281943Y175494D01*
X281937Y175501D01*
X281919Y175517D01*
X281897Y175539D01*
X281872Y175561D01*
X281842Y175585D01*
X281813Y175605D01*
X281782Y175623D01*
Y175723D01*
X283047D01*
Y175568D01*
D02*
G37*
G36*
X283145Y174955D02*
Y174953D01*
X283144Y174950D01*
X283140Y174942D01*
X283136Y174931D01*
X283131Y174919D01*
X283124Y174904D01*
X283116Y174888D01*
X283107Y174869D01*
X283085Y174829D01*
X283060Y174784D01*
X283027Y174735D01*
X282991Y174684D01*
Y174682D01*
X282995Y174678D01*
X282998Y174669D01*
X283004Y174660D01*
X283009Y174646D01*
X283016Y174631D01*
X283022Y174613D01*
X283029Y174593D01*
X283036Y174571D01*
X283044Y174547D01*
X283056Y174495D01*
X283065Y174436D01*
X283067Y174405D01*
X283069Y174374D01*
Y174358D01*
X283067Y174345D01*
Y174331D01*
X283065Y174312D01*
X283062Y174293D01*
X283058Y174271D01*
X283049Y174223D01*
X283034Y174170D01*
X283014Y174116D01*
X283002Y174091D01*
X282987Y174063D01*
X282985Y174061D01*
X282983Y174058D01*
X282978Y174050D01*
X282973Y174041D01*
X282963Y174029D01*
X282953Y174016D01*
X282927Y173985D01*
X282894Y173950D01*
X282854Y173916D01*
X282809Y173881D01*
X282756Y173850D01*
X282754D01*
X282749Y173847D01*
X282741Y173843D01*
X282731Y173839D01*
X282716Y173834D01*
X282700Y173827D01*
X282680Y173819D01*
X282658Y173814D01*
X282634Y173807D01*
X282609Y173799D01*
X282581Y173794D01*
X282550Y173786D01*
X282487Y173779D01*
X282419Y173776D01*
X282417D01*
X282410D01*
X282401D01*
X282388Y173777D01*
X282372D01*
X282352Y173779D01*
X282330Y173781D01*
X282307Y173785D01*
X282254Y173794D01*
X282197Y173807D01*
X282137Y173825D01*
X282079Y173850D01*
X282077Y173852D01*
X282072Y173854D01*
X282064Y173857D01*
X282053Y173865D01*
X282041Y173872D01*
X282026Y173881D01*
X281992Y173907D01*
X281955Y173936D01*
X281917Y173974D01*
X281879Y174016D01*
X281846Y174065D01*
X281844Y174067D01*
X281842Y174072D01*
X281839Y174080D01*
X281833Y174091D01*
X281828Y174103D01*
X281821Y174118D01*
X281813Y174136D01*
X281806Y174156D01*
X281799Y174180D01*
X281791Y174203D01*
X281779Y174256D01*
X281770Y174314D01*
X281766Y174345D01*
Y174394D01*
X281768Y174407D01*
Y174424D01*
X281770Y174440D01*
X281773Y174462D01*
X281777Y174484D01*
X281786Y174531D01*
X281801Y174585D01*
X281822Y174638D01*
X281835Y174666D01*
X281850Y174693D01*
X281852Y174695D01*
X281853Y174698D01*
X281859Y174706D01*
X281864Y174716D01*
X281873Y174727D01*
X281884Y174742D01*
X281910Y174773D01*
X281943Y174806D01*
X281982Y174842D01*
X282030Y174877D01*
X282083Y174906D01*
X282084D01*
X282090Y174909D01*
X282097Y174913D01*
X282108Y174917D01*
X282123Y174924D01*
X282139Y174929D01*
X282159Y174937D01*
X282181Y174944D01*
X282205Y174950D01*
X282230Y174957D01*
X282257Y174964D01*
X282287Y174969D01*
X282350Y174977D01*
X282417Y174980D01*
X282419D01*
X282425D01*
X282432D01*
X282443D01*
X282458Y174979D01*
X282474D01*
X282492Y174977D01*
X282510Y174975D01*
X282554Y174969D01*
X282601Y174960D01*
X282650Y174950D01*
X282698Y174933D01*
X282700D01*
X282703Y174931D01*
X282711Y174928D01*
X282718Y174924D01*
X282729Y174919D01*
X282741Y174913D01*
X282771Y174899D01*
X282805Y174879D01*
X282842Y174853D01*
X282878Y174824D01*
X282914Y174791D01*
Y174793D01*
X282918Y174797D01*
X282922Y174802D01*
X282927Y174811D01*
X282934Y174820D01*
X282942Y174833D01*
X282958Y174860D01*
X282978Y174893D01*
X282998Y174929D01*
X283014Y174968D01*
X283031Y175004D01*
X283145Y174955D01*
D02*
G37*
%LPC*%
G36*
X272077Y211171D02*
X272021D01*
X272019D01*
X272018D01*
X272008D01*
X271992D01*
X271970Y211170D01*
X271947D01*
X271917Y211168D01*
X271886Y211166D01*
X271852Y211162D01*
X271783Y211153D01*
X271748Y211148D01*
X271715Y211140D01*
X271684Y211133D01*
X271655Y211122D01*
X271630Y211111D01*
X271608Y211099D01*
X271606D01*
X271604Y211095D01*
X271599Y211091D01*
X271592Y211086D01*
X271575Y211069D01*
X271555Y211049D01*
X271537Y211022D01*
X271521Y210991D01*
X271513Y210975D01*
X271508Y210957D01*
X271506Y210937D01*
X271504Y210917D01*
Y210906D01*
X271506Y210898D01*
X271510Y210878D01*
X271515Y210855D01*
X271526Y210827D01*
X271543Y210798D01*
X271553Y210784D01*
X271564Y210769D01*
X271579Y210756D01*
X271595Y210744D01*
X271597D01*
X271601Y210740D01*
X271608Y210736D01*
X271617Y210731D01*
X271632Y210725D01*
X271648Y210718D01*
X271668Y210713D01*
X271692Y210705D01*
X271719Y210698D01*
X271750Y210691D01*
X271784Y210684D01*
X271823Y210678D01*
X271866Y210673D01*
X271914Y210669D01*
X271965Y210667D01*
X272021Y210665D01*
X272025D01*
X272034D01*
X272050D01*
X272072Y210667D01*
X272096D01*
X272125Y210669D01*
X272156Y210671D01*
X272188Y210675D01*
X272259Y210684D01*
X272294Y210689D01*
X272327Y210696D01*
X272358Y210704D01*
X272387Y210715D01*
X272412Y210725D01*
X272434Y210738D01*
X272436D01*
X272438Y210742D01*
X272451Y210751D01*
X272467Y210767D01*
X272485Y210787D01*
X272503Y210815D01*
X272520Y210846D01*
X272533Y210880D01*
X272534Y210898D01*
X272536Y210918D01*
Y210929D01*
X272534Y210937D01*
X272531Y210955D01*
X272523Y210980D01*
X272511Y211008D01*
X272493Y211038D01*
X272482Y211053D01*
X272467Y211068D01*
X272452Y211082D01*
X272434Y211097D01*
X272432D01*
X272429Y211100D01*
X272423Y211104D01*
X272414Y211108D01*
X272401Y211115D01*
X272385Y211120D01*
X272367Y211128D01*
X272345Y211135D01*
X272318Y211140D01*
X272289Y211148D01*
X272254Y211155D01*
X272218Y211160D01*
X272174Y211164D01*
X272129Y211168D01*
X272077Y211171D01*
D02*
G37*
G36*
Y210192D02*
X272021D01*
X272019D01*
X272018D01*
X272008D01*
X271992D01*
X271970Y210190D01*
X271947D01*
X271917Y210189D01*
X271886Y210187D01*
X271852Y210183D01*
X271783Y210174D01*
X271748Y210169D01*
X271715Y210161D01*
X271684Y210154D01*
X271655Y210143D01*
X271630Y210132D01*
X271608Y210119D01*
X271606D01*
X271604Y210116D01*
X271599Y210112D01*
X271592Y210107D01*
X271575Y210090D01*
X271555Y210070D01*
X271537Y210043D01*
X271521Y210012D01*
X271513Y209996D01*
X271508Y209978D01*
X271506Y209958D01*
X271504Y209937D01*
Y209927D01*
X271506Y209919D01*
X271510Y209899D01*
X271515Y209876D01*
X271526Y209848D01*
X271543Y209819D01*
X271553Y209805D01*
X271564Y209790D01*
X271579Y209777D01*
X271595Y209765D01*
X271597D01*
X271601Y209761D01*
X271608Y209757D01*
X271617Y209752D01*
X271632Y209746D01*
X271648Y209739D01*
X271668Y209734D01*
X271692Y209726D01*
X271719Y209719D01*
X271750Y209712D01*
X271784Y209704D01*
X271823Y209699D01*
X271866Y209694D01*
X271914Y209690D01*
X271965Y209688D01*
X272021Y209686D01*
X272025D01*
X272034D01*
X272050D01*
X272072Y209688D01*
X272096D01*
X272125Y209690D01*
X272156Y209692D01*
X272188Y209695D01*
X272259Y209704D01*
X272294Y209710D01*
X272327Y209717D01*
X272358Y209724D01*
X272387Y209735D01*
X272412Y209746D01*
X272434Y209759D01*
X272436D01*
X272438Y209763D01*
X272451Y209772D01*
X272467Y209788D01*
X272485Y209808D01*
X272503Y209836D01*
X272520Y209866D01*
X272533Y209901D01*
X272534Y209919D01*
X272536Y209939D01*
Y209950D01*
X272534Y209958D01*
X272531Y209976D01*
X272523Y210001D01*
X272511Y210028D01*
X272493Y210059D01*
X272482Y210074D01*
X272467Y210088D01*
X272452Y210103D01*
X272434Y210118D01*
X272432D01*
X272429Y210121D01*
X272423Y210125D01*
X272414Y210128D01*
X272401Y210136D01*
X272385Y210141D01*
X272367Y210149D01*
X272345Y210156D01*
X272318Y210161D01*
X272289Y210169D01*
X272254Y210176D01*
X272218Y210181D01*
X272174Y210185D01*
X272129Y210189D01*
X272077Y210192D01*
D02*
G37*
G36*
X270341Y207309D02*
X270339D01*
X270333D01*
X270326D01*
X270315D01*
X270301Y207308D01*
X270286D01*
X270268Y207306D01*
X270250Y207302D01*
X270208Y207297D01*
X270162Y207288D01*
X270117Y207275D01*
X270073Y207257D01*
X270071D01*
X270068Y207255D01*
X270062Y207251D01*
X270055Y207247D01*
X270033Y207235D01*
X270007Y207218D01*
X269978Y207196D01*
X269949Y207169D01*
X269920Y207138D01*
X269895Y207104D01*
Y207102D01*
X269891Y207100D01*
X269889Y207095D01*
X269884Y207085D01*
X269880Y207076D01*
X269875Y207066D01*
X269862Y207038D01*
X269851Y207005D01*
X269840Y206967D01*
X269833Y206924D01*
X269831Y206878D01*
Y206860D01*
X269833Y206847D01*
X269835Y206831D01*
X269838Y206813D01*
X269842Y206792D01*
X269847Y206771D01*
X269855Y206745D01*
X269862Y206721D01*
X269873Y206696D01*
X269886Y206669D01*
X269900Y206643D01*
X269918Y206618D01*
X269937Y206592D01*
X269960Y206569D01*
X269962Y206567D01*
X269966Y206563D01*
X269973Y206558D01*
X269984Y206550D01*
X269997Y206540D01*
X270013Y206530D01*
X270033Y206520D01*
X270055Y206509D01*
X270080Y206496D01*
X270110Y206485D01*
X270140Y206476D01*
X270175Y206467D01*
X270211Y206458D01*
X270251Y206452D01*
X270295Y206449D01*
X270341Y206447D01*
X270344D01*
X270352D01*
X270364D01*
X270381Y206449D01*
X270401Y206450D01*
X270424Y206454D01*
X270452Y206458D01*
X270479Y206461D01*
X270541Y206476D01*
X270572Y206485D01*
X270603Y206498D01*
X270634Y206510D01*
X270663Y206527D01*
X270692Y206545D01*
X270717Y206567D01*
X270719Y206569D01*
X270723Y206572D01*
X270730Y206579D01*
X270737Y206589D01*
X270748Y206601D01*
X270759Y206616D01*
X270770Y206632D01*
X270783Y206652D01*
X270796Y206672D01*
X270807Y206696D01*
X270817Y206721D01*
X270828Y206749D01*
X270836Y206780D01*
X270843Y206811D01*
X270847Y206843D01*
X270848Y206878D01*
Y206894D01*
X270847Y206911D01*
X270845Y206933D01*
X270841Y206960D01*
X270834Y206987D01*
X270827Y207018D01*
X270816Y207047D01*
X270814Y207044D01*
X270807Y207034D01*
X270797Y207018D01*
X270786Y206998D01*
X270776Y206973D01*
X270763Y206945D01*
X270752Y206914D01*
X270743Y206882D01*
X270623Y206924D01*
Y206925D01*
X270624Y206931D01*
X270626Y206938D01*
X270630Y206947D01*
X270634Y206960D01*
X270639Y206975D01*
X270652Y207007D01*
X270670Y207045D01*
X270690Y207085D01*
X270714Y207124D01*
X270743Y207162D01*
X270741Y207164D01*
X270737Y207169D01*
X270728Y207176D01*
X270717Y207186D01*
X270703Y207196D01*
X270686Y207209D01*
X270666Y207222D01*
X270643Y207237D01*
X270615Y207249D01*
X270585Y207262D01*
X270552Y207275D01*
X270517Y207286D01*
X270477Y207297D01*
X270435Y207304D01*
X270390Y207308D01*
X270341Y207309D01*
D02*
G37*
G36*
X260156Y191171D02*
X260100D01*
X260098D01*
X260096D01*
X260087D01*
X260071D01*
X260049Y191170D01*
X260025D01*
X259996Y191168D01*
X259965Y191166D01*
X259931Y191162D01*
X259861Y191153D01*
X259827Y191148D01*
X259794Y191140D01*
X259763Y191133D01*
X259734Y191122D01*
X259709Y191111D01*
X259687Y191099D01*
X259685D01*
X259683Y191095D01*
X259678Y191091D01*
X259670Y191086D01*
X259654Y191069D01*
X259634Y191050D01*
X259616Y191022D01*
X259599Y190991D01*
X259592Y190975D01*
X259587Y190957D01*
X259585Y190937D01*
X259583Y190917D01*
Y190906D01*
X259585Y190898D01*
X259588Y190878D01*
X259594Y190855D01*
X259605Y190827D01*
X259621Y190798D01*
X259632Y190784D01*
X259643Y190769D01*
X259658Y190756D01*
X259674Y190744D01*
X259676D01*
X259679Y190740D01*
X259687Y190736D01*
X259696Y190731D01*
X259710Y190726D01*
X259727Y190718D01*
X259747Y190713D01*
X259770Y190706D01*
X259798Y190698D01*
X259829Y190691D01*
X259863Y190684D01*
X259901Y190678D01*
X259945Y190673D01*
X259993Y190669D01*
X260043Y190667D01*
X260100Y190665D01*
X260104D01*
X260113D01*
X260129D01*
X260151Y190667D01*
X260174D01*
X260204Y190669D01*
X260234Y190671D01*
X260267Y190674D01*
X260338Y190684D01*
X260373Y190689D01*
X260406Y190696D01*
X260437Y190704D01*
X260466Y190715D01*
X260491Y190726D01*
X260513Y190738D01*
X260515D01*
X260517Y190742D01*
X260529Y190751D01*
X260546Y190767D01*
X260564Y190787D01*
X260582Y190815D01*
X260598Y190846D01*
X260611Y190880D01*
X260613Y190898D01*
X260615Y190918D01*
Y190929D01*
X260613Y190937D01*
X260610Y190955D01*
X260602Y190980D01*
X260589Y191008D01*
X260571Y191039D01*
X260560Y191053D01*
X260546Y191068D01*
X260531Y191082D01*
X260513Y191097D01*
X260511D01*
X260507Y191100D01*
X260502Y191104D01*
X260493Y191108D01*
X260480Y191115D01*
X260464Y191120D01*
X260446Y191128D01*
X260424Y191135D01*
X260397Y191140D01*
X260367Y191148D01*
X260333Y191155D01*
X260296Y191161D01*
X260253Y191164D01*
X260207Y191168D01*
X260156Y191171D01*
D02*
G37*
G36*
Y190192D02*
X260100D01*
X260098D01*
X260096D01*
X260087D01*
X260071D01*
X260049Y190190D01*
X260025D01*
X259996Y190189D01*
X259965Y190187D01*
X259931Y190183D01*
X259861Y190174D01*
X259827Y190169D01*
X259794Y190161D01*
X259763Y190154D01*
X259734Y190143D01*
X259709Y190132D01*
X259687Y190119D01*
X259685D01*
X259683Y190116D01*
X259678Y190112D01*
X259670Y190107D01*
X259654Y190090D01*
X259634Y190070D01*
X259616Y190043D01*
X259599Y190012D01*
X259592Y189996D01*
X259587Y189978D01*
X259585Y189957D01*
X259583Y189937D01*
Y189927D01*
X259585Y189919D01*
X259588Y189899D01*
X259594Y189875D01*
X259605Y189848D01*
X259621Y189819D01*
X259632Y189805D01*
X259643Y189790D01*
X259658Y189777D01*
X259674Y189764D01*
X259676D01*
X259679Y189761D01*
X259687Y189757D01*
X259696Y189752D01*
X259710Y189746D01*
X259727Y189739D01*
X259747Y189734D01*
X259770Y189726D01*
X259798Y189719D01*
X259829Y189712D01*
X259863Y189705D01*
X259901Y189699D01*
X259945Y189694D01*
X259993Y189690D01*
X260043Y189688D01*
X260100Y189686D01*
X260104D01*
X260113D01*
X260129D01*
X260151Y189688D01*
X260174D01*
X260204Y189690D01*
X260234Y189692D01*
X260267Y189695D01*
X260338Y189705D01*
X260373Y189710D01*
X260406Y189717D01*
X260437Y189725D01*
X260466Y189735D01*
X260491Y189746D01*
X260513Y189759D01*
X260515D01*
X260517Y189763D01*
X260529Y189772D01*
X260546Y189788D01*
X260564Y189808D01*
X260582Y189836D01*
X260598Y189866D01*
X260611Y189901D01*
X260613Y189919D01*
X260615Y189939D01*
Y189950D01*
X260613Y189957D01*
X260610Y189976D01*
X260602Y190001D01*
X260589Y190028D01*
X260571Y190059D01*
X260560Y190074D01*
X260546Y190088D01*
X260531Y190103D01*
X260513Y190118D01*
X260511D01*
X260507Y190121D01*
X260502Y190125D01*
X260493Y190129D01*
X260480Y190136D01*
X260464Y190141D01*
X260446Y190149D01*
X260424Y190156D01*
X260397Y190161D01*
X260367Y190169D01*
X260333Y190176D01*
X260296Y190181D01*
X260253Y190185D01*
X260207Y190189D01*
X260156Y190192D01*
D02*
G37*
G36*
X258419Y187309D02*
X258418D01*
X258412D01*
X258405D01*
X258394D01*
X258379Y187308D01*
X258365D01*
X258347Y187306D01*
X258328Y187302D01*
X258286Y187297D01*
X258241Y187287D01*
X258195Y187275D01*
X258152Y187257D01*
X258150D01*
X258146Y187255D01*
X258141Y187251D01*
X258134Y187248D01*
X258112Y187235D01*
X258086Y187218D01*
X258057Y187197D01*
X258028Y187169D01*
X257999Y187138D01*
X257973Y187104D01*
Y187102D01*
X257970Y187100D01*
X257968Y187095D01*
X257962Y187085D01*
X257959Y187076D01*
X257953Y187065D01*
X257941Y187038D01*
X257930Y187005D01*
X257919Y186967D01*
X257912Y186924D01*
X257910Y186878D01*
Y186860D01*
X257912Y186847D01*
X257913Y186831D01*
X257917Y186812D01*
X257921Y186793D01*
X257926Y186771D01*
X257933Y186745D01*
X257941Y186722D01*
X257952Y186696D01*
X257964Y186669D01*
X257979Y186643D01*
X257997Y186618D01*
X258015Y186592D01*
X258039Y186569D01*
X258041Y186567D01*
X258044Y186563D01*
X258052Y186558D01*
X258063Y186550D01*
X258075Y186539D01*
X258092Y186530D01*
X258112Y186520D01*
X258134Y186509D01*
X258159Y186496D01*
X258188Y186485D01*
X258219Y186476D01*
X258254Y186467D01*
X258290Y186458D01*
X258330Y186452D01*
X258374Y186449D01*
X258419Y186447D01*
X258423D01*
X258430D01*
X258443D01*
X258459Y186449D01*
X258479Y186450D01*
X258503Y186454D01*
X258530Y186458D01*
X258558Y186461D01*
X258619Y186476D01*
X258650Y186485D01*
X258681Y186498D01*
X258712Y186510D01*
X258741Y186527D01*
X258771Y186545D01*
X258796Y186567D01*
X258798Y186569D01*
X258802Y186572D01*
X258809Y186580D01*
X258816Y186589D01*
X258827Y186601D01*
X258838Y186616D01*
X258849Y186632D01*
X258862Y186652D01*
X258874Y186672D01*
X258885Y186696D01*
X258896Y186722D01*
X258907Y186749D01*
X258914Y186780D01*
X258922Y186811D01*
X258925Y186843D01*
X258927Y186878D01*
Y186894D01*
X258925Y186911D01*
X258924Y186933D01*
X258920Y186960D01*
X258913Y186987D01*
X258905Y187018D01*
X258894Y187047D01*
X258892Y187044D01*
X258885Y187034D01*
X258876Y187018D01*
X258865Y186998D01*
X258854Y186973D01*
X258842Y186945D01*
X258831Y186914D01*
X258822Y186882D01*
X258701Y186924D01*
Y186925D01*
X258703Y186931D01*
X258705Y186938D01*
X258709Y186947D01*
X258712Y186960D01*
X258718Y186975D01*
X258731Y187007D01*
X258749Y187046D01*
X258769Y187085D01*
X258792Y187124D01*
X258822Y187162D01*
X258820Y187164D01*
X258816Y187169D01*
X258807Y187177D01*
X258796Y187186D01*
X258782Y187197D01*
X258765Y187209D01*
X258745Y187222D01*
X258721Y187237D01*
X258694Y187249D01*
X258663Y187262D01*
X258630Y187275D01*
X258596Y187286D01*
X258556Y187297D01*
X258514Y187304D01*
X258469Y187308D01*
X258419Y187309D01*
D02*
G37*
G36*
X284156Y178671D02*
X284100D01*
X284098D01*
X284096D01*
X284087D01*
X284071D01*
X284049Y178670D01*
X284025D01*
X283996Y178668D01*
X283965Y178666D01*
X283931Y178662D01*
X283861Y178653D01*
X283827Y178648D01*
X283794Y178640D01*
X283763Y178633D01*
X283734Y178622D01*
X283709Y178611D01*
X283687Y178599D01*
X283685D01*
X283683Y178595D01*
X283678Y178591D01*
X283670Y178586D01*
X283654Y178569D01*
X283634Y178550D01*
X283616Y178522D01*
X283599Y178491D01*
X283592Y178475D01*
X283587Y178457D01*
X283585Y178437D01*
X283583Y178417D01*
Y178406D01*
X283585Y178398D01*
X283588Y178378D01*
X283594Y178355D01*
X283605Y178327D01*
X283621Y178298D01*
X283632Y178284D01*
X283643Y178269D01*
X283658Y178256D01*
X283674Y178244D01*
X283676D01*
X283679Y178240D01*
X283687Y178236D01*
X283696Y178231D01*
X283710Y178226D01*
X283727Y178218D01*
X283747Y178213D01*
X283770Y178206D01*
X283798Y178198D01*
X283829Y178191D01*
X283863Y178184D01*
X283902Y178178D01*
X283945Y178173D01*
X283993Y178169D01*
X284043Y178167D01*
X284100Y178165D01*
X284103D01*
X284113D01*
X284129D01*
X284151Y178167D01*
X284174D01*
X284204Y178169D01*
X284234Y178171D01*
X284267Y178174D01*
X284338Y178184D01*
X284373Y178189D01*
X284406Y178196D01*
X284436Y178204D01*
X284466Y178215D01*
X284491Y178226D01*
X284513Y178238D01*
X284515D01*
X284517Y178242D01*
X284529Y178251D01*
X284546Y178267D01*
X284564Y178287D01*
X284582Y178315D01*
X284598Y178346D01*
X284611Y178380D01*
X284613Y178398D01*
X284615Y178418D01*
Y178429D01*
X284613Y178437D01*
X284610Y178455D01*
X284602Y178480D01*
X284589Y178508D01*
X284571Y178539D01*
X284560Y178553D01*
X284546Y178568D01*
X284531Y178582D01*
X284513Y178597D01*
X284511D01*
X284507Y178600D01*
X284502Y178604D01*
X284493Y178608D01*
X284480Y178615D01*
X284464Y178620D01*
X284446Y178628D01*
X284424Y178635D01*
X284397Y178640D01*
X284367Y178648D01*
X284333Y178655D01*
X284296Y178661D01*
X284253Y178664D01*
X284207Y178668D01*
X284156Y178671D01*
D02*
G37*
G36*
Y177692D02*
X284100D01*
X284098D01*
X284096D01*
X284087D01*
X284071D01*
X284049Y177690D01*
X284025D01*
X283996Y177689D01*
X283965Y177687D01*
X283931Y177683D01*
X283861Y177674D01*
X283827Y177669D01*
X283794Y177661D01*
X283763Y177654D01*
X283734Y177643D01*
X283709Y177632D01*
X283687Y177619D01*
X283685D01*
X283683Y177616D01*
X283678Y177612D01*
X283670Y177607D01*
X283654Y177590D01*
X283634Y177570D01*
X283616Y177543D01*
X283599Y177512D01*
X283592Y177496D01*
X283587Y177478D01*
X283585Y177457D01*
X283583Y177437D01*
Y177427D01*
X283585Y177419D01*
X283588Y177399D01*
X283594Y177375D01*
X283605Y177348D01*
X283621Y177319D01*
X283632Y177305D01*
X283643Y177290D01*
X283658Y177277D01*
X283674Y177264D01*
X283676D01*
X283679Y177261D01*
X283687Y177257D01*
X283696Y177252D01*
X283710Y177246D01*
X283727Y177239D01*
X283747Y177234D01*
X283770Y177226D01*
X283798Y177219D01*
X283829Y177212D01*
X283863Y177205D01*
X283902Y177199D01*
X283945Y177194D01*
X283993Y177190D01*
X284043Y177188D01*
X284100Y177186D01*
X284103D01*
X284113D01*
X284129D01*
X284151Y177188D01*
X284174D01*
X284204Y177190D01*
X284234Y177192D01*
X284267Y177195D01*
X284338Y177205D01*
X284373Y177210D01*
X284406Y177217D01*
X284436Y177225D01*
X284466Y177235D01*
X284491Y177246D01*
X284513Y177259D01*
X284515D01*
X284517Y177263D01*
X284529Y177272D01*
X284546Y177288D01*
X284564Y177308D01*
X284582Y177336D01*
X284598Y177366D01*
X284611Y177401D01*
X284613Y177419D01*
X284615Y177439D01*
Y177450D01*
X284613Y177457D01*
X284610Y177476D01*
X284602Y177501D01*
X284589Y177528D01*
X284571Y177559D01*
X284560Y177574D01*
X284546Y177588D01*
X284531Y177603D01*
X284513Y177618D01*
X284511D01*
X284507Y177621D01*
X284502Y177625D01*
X284493Y177629D01*
X284480Y177636D01*
X284464Y177641D01*
X284446Y177649D01*
X284424Y177656D01*
X284397Y177661D01*
X284367Y177669D01*
X284333Y177676D01*
X284296Y177681D01*
X284253Y177685D01*
X284207Y177689D01*
X284156Y177692D01*
D02*
G37*
G36*
X282419Y174809D02*
X282417D01*
X282412D01*
X282405D01*
X282394D01*
X282379Y174808D01*
X282365D01*
X282347Y174806D01*
X282328Y174802D01*
X282287Y174797D01*
X282241Y174787D01*
X282195Y174775D01*
X282152Y174757D01*
X282150D01*
X282146Y174755D01*
X282141Y174751D01*
X282134Y174748D01*
X282112Y174735D01*
X282086Y174718D01*
X282057Y174697D01*
X282028Y174669D01*
X281999Y174638D01*
X281973Y174604D01*
Y174602D01*
X281970Y174600D01*
X281968Y174595D01*
X281962Y174585D01*
X281959Y174576D01*
X281953Y174565D01*
X281941Y174538D01*
X281930Y174505D01*
X281919Y174467D01*
X281912Y174424D01*
X281910Y174378D01*
Y174360D01*
X281912Y174347D01*
X281913Y174331D01*
X281917Y174312D01*
X281921Y174293D01*
X281926Y174271D01*
X281933Y174245D01*
X281941Y174222D01*
X281952Y174196D01*
X281964Y174169D01*
X281979Y174143D01*
X281997Y174118D01*
X282015Y174092D01*
X282039Y174069D01*
X282041Y174067D01*
X282044Y174063D01*
X282052Y174058D01*
X282063Y174050D01*
X282075Y174039D01*
X282092Y174030D01*
X282112Y174020D01*
X282134Y174009D01*
X282159Y173996D01*
X282188Y173985D01*
X282219Y173976D01*
X282254Y173967D01*
X282290Y173958D01*
X282330Y173952D01*
X282374Y173949D01*
X282419Y173947D01*
X282423D01*
X282430D01*
X282443D01*
X282459Y173949D01*
X282479Y173950D01*
X282503Y173954D01*
X282530Y173958D01*
X282558Y173961D01*
X282620Y173976D01*
X282650Y173985D01*
X282681Y173998D01*
X282712Y174010D01*
X282741Y174027D01*
X282771Y174045D01*
X282796Y174067D01*
X282798Y174069D01*
X282802Y174072D01*
X282809Y174080D01*
X282816Y174089D01*
X282827Y174101D01*
X282838Y174116D01*
X282849Y174132D01*
X282862Y174152D01*
X282874Y174172D01*
X282885Y174196D01*
X282896Y174222D01*
X282907Y174249D01*
X282914Y174280D01*
X282922Y174311D01*
X282925Y174343D01*
X282927Y174378D01*
Y174394D01*
X282925Y174411D01*
X282924Y174433D01*
X282920Y174460D01*
X282913Y174487D01*
X282905Y174518D01*
X282894Y174547D01*
X282892Y174544D01*
X282885Y174534D01*
X282876Y174518D01*
X282865Y174498D01*
X282854Y174473D01*
X282842Y174445D01*
X282831Y174414D01*
X282822Y174382D01*
X282701Y174424D01*
Y174425D01*
X282703Y174431D01*
X282705Y174438D01*
X282709Y174447D01*
X282712Y174460D01*
X282718Y174475D01*
X282731Y174507D01*
X282749Y174546D01*
X282769Y174585D01*
X282792Y174624D01*
X282822Y174662D01*
X282820Y174664D01*
X282816Y174669D01*
X282807Y174677D01*
X282796Y174686D01*
X282782Y174697D01*
X282765Y174709D01*
X282745Y174722D01*
X282721Y174737D01*
X282694Y174749D01*
X282663Y174762D01*
X282630Y174775D01*
X282596Y174786D01*
X282556Y174797D01*
X282514Y174804D01*
X282469Y174808D01*
X282419Y174809D01*
D02*
G37*
%LPD*%
D75*
X205196Y210912D02*
G03*
X210764Y205344I2784J-2784D01*
G01*
X373677Y367815D02*
G03*
X373677Y367815I-1969J0D01*
G01*
X311024Y164370D02*
G03*
X318898Y164370I3937J0D01*
G01*
X418278Y205881D02*
G03*
X423846Y211449I2784J2784D01*
G01*
X465551Y311024D02*
G03*
X465551Y318898I0J3937D01*
G01*
X422480Y416912D02*
G03*
X416912Y422480I-2784J2784D01*
G01*
X318898Y465551D02*
G03*
X311024Y465551I-3937J0D01*
G01*
X212088Y423480D02*
G03*
X206520Y417912I-2784J-2784D01*
G01*
X164370Y318898D02*
G03*
X164370Y311024I0J-3937D01*
G01*
X281465Y343126D02*
Y358874D01*
X247016D02*
X281465D01*
X247016Y343126D02*
Y358874D01*
Y343126D02*
X281465D01*
X272481Y352445D02*
Y370555D01*
X302403Y352445D02*
Y370555D01*
X272481Y352445D02*
X302403D01*
X272481Y370555D02*
X302403D01*
X248669Y235146D02*
Y240854D01*
X257331Y235146D02*
Y240854D01*
X248669Y235146D02*
X257331D01*
X248669Y240854D02*
X257331D01*
X263405Y343342D02*
Y348657D01*
X272067Y343342D02*
Y348657D01*
X263405Y343342D02*
X272067D01*
X263405Y348657D02*
X272067D01*
X384354Y335669D02*
Y344331D01*
X378646Y335669D02*
Y344331D01*
X384354D01*
X378646Y335669D02*
X384354D01*
X391854D02*
Y344331D01*
X386146Y335669D02*
Y344331D01*
X391854D01*
X386146Y335669D02*
X391854D01*
X344312Y306669D02*
Y315331D01*
X350020Y306669D02*
Y315331D01*
X344312Y306669D02*
X350020D01*
X344312Y315331D02*
X350020D01*
X362146Y306421D02*
Y315082D01*
X367855Y306421D02*
Y315082D01*
X362146Y306421D02*
X367855D01*
X362146Y315082D02*
X367855D01*
X377354Y306669D02*
Y315331D01*
X371646Y306669D02*
Y315331D01*
X377354D01*
X371646Y306669D02*
X377354D01*
X335646Y305669D02*
Y314331D01*
X341354Y305669D02*
Y314331D01*
X335646Y305669D02*
X341354D01*
X335646Y314331D02*
X341354D01*
X244910Y380496D02*
X253571D01*
X244910Y385811D02*
X253571D01*
Y380496D02*
Y385811D01*
X244910Y380496D02*
Y385811D01*
X307669Y425157D02*
X316331D01*
X307669Y419842D02*
X316331D01*
Y425157D01*
X307669Y419842D02*
Y425157D01*
X298768Y376215D02*
X305215Y369768D01*
X298768Y376215D02*
Y403232D01*
X332232D01*
Y376215D02*
Y403232D01*
X325785Y369768D02*
X332232Y376215D01*
X305215Y369768D02*
X325785D01*
X376331Y383724D02*
Y389039D01*
X367669Y383724D02*
Y389039D01*
X376331D01*
X367669Y383724D02*
X376331D01*
X203805Y212304D02*
X205197Y213696D01*
X203805Y212304D02*
X212156Y203953D01*
X213548Y205345D01*
X205197Y213696D02*
X213548Y205345D01*
X334965Y343020D02*
Y351681D01*
X329256Y343020D02*
Y351681D01*
X334965D01*
X329256Y343020D02*
X334965D01*
X364130Y387831D02*
Y393146D01*
X355469Y387831D02*
Y393146D01*
X364130D01*
X355469Y387831D02*
X364130D01*
X279669Y323342D02*
Y328658D01*
X288331Y323342D02*
Y328658D01*
X279669D02*
X288331D01*
X279669Y323342D02*
X288331D01*
X285083Y333669D02*
X290398D01*
X285083Y342331D02*
X290398D01*
X285083Y333669D02*
Y342331D01*
X290398Y333669D02*
Y342331D01*
X279669Y314146D02*
Y319854D01*
X288331Y314146D02*
Y319854D01*
X279669D02*
X288331D01*
X279669Y314146D02*
X288331D01*
X245555Y231996D02*
X252445D01*
X245555Y244004D02*
X252445D01*
Y231996D02*
Y244004D01*
X245555Y231996D02*
Y244004D01*
X257169Y358646D02*
Y364354D01*
X265831Y358646D02*
Y364354D01*
X257169Y358646D02*
X265831D01*
X257169Y364354D02*
X265831D01*
X257169Y350646D02*
Y356354D01*
X265831Y350646D02*
Y356354D01*
X257169Y350646D02*
X265831D01*
X257169Y356354D02*
X265831D01*
X226929Y282343D02*
Y287657D01*
X235591Y282343D02*
Y287657D01*
X226929D02*
X235591D01*
X226929Y282343D02*
X235591D01*
X230405Y355528D02*
X236114D01*
X230405Y346866D02*
X236114D01*
Y355528D01*
X230405Y346866D02*
Y355528D01*
X241590Y336410D02*
Y341725D01*
X232929Y336410D02*
Y341725D01*
Y336410D02*
X241590D01*
X232929Y341725D02*
X241590D01*
X219146Y383831D02*
X224854D01*
X219146Y375169D02*
X224854D01*
Y383831D01*
X219146Y375169D02*
Y383831D01*
X210343D02*
X215657D01*
X210343Y375169D02*
X215657D01*
Y383831D01*
X210343Y375169D02*
Y383831D01*
X226929Y273146D02*
Y278854D01*
X235591Y273146D02*
Y278854D01*
X226929D02*
X235591D01*
X226929Y273146D02*
X235591D01*
X230102Y320331D02*
X235417D01*
X230102Y311669D02*
X235417D01*
Y320331D01*
X230102Y311669D02*
Y320331D01*
X237165D02*
X242874D01*
X237165Y311669D02*
X242874D01*
Y320331D01*
X237165Y311669D02*
Y320331D01*
X237906Y355528D02*
X243614D01*
X237906Y346866D02*
X243614D01*
Y355528D01*
X237906Y346866D02*
Y355528D01*
X230602Y360495D02*
X235917D01*
X230602Y369157D02*
X235917D01*
X230602Y360495D02*
Y369157D01*
X235917Y360495D02*
Y369157D01*
X204669Y351386D02*
Y357095D01*
X213331Y351386D02*
Y357095D01*
X204669D02*
X213331D01*
X204669Y351386D02*
X213331D01*
X204669Y344342D02*
Y349658D01*
X213331Y344342D02*
Y349658D01*
X204669D02*
X213331D01*
X204669Y344342D02*
X213331D01*
X242689Y398984D02*
X248398D01*
X242689Y390323D02*
X248398D01*
Y398984D01*
X242689Y390323D02*
Y398984D01*
X250386Y398484D02*
X256095D01*
X250386Y389823D02*
X256095D01*
Y398484D01*
X250386Y389823D02*
Y398484D01*
X250583Y413484D02*
X255898D01*
X250583Y404823D02*
X255898D01*
Y413484D01*
X250583Y404823D02*
Y413484D01*
X242583Y404669D02*
X247898D01*
X242583Y413331D02*
X247898D01*
X242583Y404669D02*
Y413331D01*
X247898Y404669D02*
Y413331D01*
X298362Y323342D02*
Y328658D01*
X307024Y323342D02*
Y328658D01*
X298362D02*
X307024D01*
X298362Y323342D02*
X307024D01*
X298362Y315146D02*
Y320854D01*
X307024Y315146D02*
Y320854D01*
X298362D02*
X307024D01*
X298362Y315146D02*
X307024D01*
X304598Y357331D02*
X310307D01*
X304598Y348669D02*
X310307D01*
Y357331D01*
X304598Y348669D02*
Y357331D01*
X295575D02*
X300890D01*
X295575Y348669D02*
X300890D01*
Y357331D01*
X295575Y348669D02*
Y357331D01*
X281571Y370520D02*
Y375835D01*
X272909Y370520D02*
Y375835D01*
Y370520D02*
X281571D01*
X272909Y375835D02*
X281571D01*
X270886Y388657D02*
X276594D01*
X270886Y379996D02*
X276594D01*
Y388657D01*
X270886Y379996D02*
Y388657D01*
X278386D02*
X284095D01*
X278386Y379996D02*
X284095D01*
Y388657D01*
X278386Y379996D02*
Y388657D01*
X277583Y402508D02*
X282898D01*
X277583Y393846D02*
X282898D01*
Y402508D01*
X277583Y393846D02*
Y402508D01*
X271083Y393693D02*
X276398D01*
X271083Y402354D02*
X276398D01*
X271083Y393693D02*
Y402354D01*
X276398Y393693D02*
Y402354D01*
X238102Y369028D02*
X243417D01*
X238102Y360366D02*
X243417D01*
Y369028D01*
X238102Y360366D02*
Y369028D01*
X336670Y353642D02*
Y371358D01*
X375252Y353642D02*
Y371358D01*
X336670Y353642D02*
X375252D01*
X336670Y371358D02*
X375252D01*
X221669Y223657D02*
X230331D01*
X221669Y218342D02*
X230331D01*
X221669D02*
Y223657D01*
X230331Y218342D02*
Y223657D01*
X221669Y215482D02*
X230331D01*
X221669Y210167D02*
X230331D01*
X221669D02*
Y215482D01*
X230331Y210167D02*
Y215482D01*
X221669Y207306D02*
X230331D01*
X221669Y201991D02*
X230331D01*
X221669D02*
Y207306D01*
X230331Y201991D02*
Y207306D01*
X175669Y327157D02*
X184331D01*
X175669Y321843D02*
X184331D01*
X175669D02*
Y327157D01*
X184331Y321843D02*
Y327157D01*
X175669Y318657D02*
X184331D01*
X175669Y313342D02*
X184331D01*
X175669D02*
Y318657D01*
X184331Y313342D02*
Y318657D01*
X175669Y310658D02*
X184331D01*
X175669Y305343D02*
X184331D01*
X175669D02*
Y310658D01*
X184331Y305343D02*
Y310658D01*
X219169Y421158D02*
X227831D01*
X219169Y415842D02*
X227831D01*
X219169D02*
Y421158D01*
X227831Y415842D02*
Y421158D01*
X218823Y407657D02*
X227484D01*
X218823Y402343D02*
X227484D01*
X218823D02*
Y407657D01*
X227484Y402343D02*
Y407657D01*
X219169Y414157D02*
X227831D01*
X219169Y408843D02*
X227831D01*
X219169D02*
Y414157D01*
X227831Y408843D02*
Y414157D01*
X270669Y197843D02*
X279331D01*
X270669Y203157D02*
X279331D01*
Y197843D02*
Y203157D01*
X270669Y197843D02*
Y203157D01*
X273342Y186669D02*
Y195331D01*
X278658Y186669D02*
Y195331D01*
X273342Y186669D02*
X278658D01*
X273342Y195331D02*
X278658D01*
X284169Y166342D02*
X292831D01*
X284169Y171658D02*
X292831D01*
Y166342D02*
Y171658D01*
X284169Y166342D02*
Y171658D01*
X305842Y174169D02*
Y182831D01*
X311157Y174169D02*
Y182831D01*
X305842Y174169D02*
X311157D01*
X305842Y182831D02*
X311157D01*
X313878Y174169D02*
Y182831D01*
X319193Y174169D02*
Y182831D01*
X313878Y174169D02*
X319193D01*
X313878Y182831D02*
X319193D01*
X321843Y174169D02*
Y182831D01*
X327157Y174169D02*
Y182831D01*
X321843Y174169D02*
X327157D01*
X321843Y182831D02*
X327157D01*
X309055Y164371D02*
Y166339D01*
Y164371D02*
X320866D01*
Y166339D01*
X309055D02*
X320866D01*
X397169Y197343D02*
X405831D01*
X397169Y202658D02*
X405831D01*
Y197343D02*
Y202658D01*
X397169Y197343D02*
Y202658D01*
X400169Y210343D02*
X408831D01*
X400169Y215657D02*
X408831D01*
Y210343D02*
Y215657D01*
X400169Y210343D02*
Y215657D01*
X400669Y220843D02*
X409331D01*
X400669Y226157D02*
X409331D01*
Y220843D02*
Y226157D01*
X400669Y220843D02*
Y226157D01*
X415494Y205882D02*
X416886Y204490D01*
X425238Y212841D01*
X423846Y214233D02*
X425238Y212841D01*
X415494Y205882D02*
X423846Y214233D01*
X463582Y309055D02*
X465551D01*
Y320866D01*
X463582D02*
X465551D01*
X463582Y309055D02*
Y320866D01*
X395169Y396496D02*
X403831D01*
X395169Y401811D02*
X403831D01*
Y396496D02*
Y401811D01*
X395169Y396496D02*
Y401811D01*
X394669Y405342D02*
X403331D01*
X394669Y410658D02*
X403331D01*
Y405342D02*
Y410658D01*
X394669Y405342D02*
Y410658D01*
Y414843D02*
X403331D01*
X394669Y420157D02*
X403331D01*
Y414843D02*
Y420157D01*
X394669Y414843D02*
Y420157D01*
X422479Y414128D02*
X423871Y415520D01*
X415520Y423871D02*
X423871Y415520D01*
X414128Y422479D02*
X415520Y423871D01*
X414128Y422479D02*
X422479Y414128D01*
X310157Y450169D02*
Y458831D01*
X304842Y450169D02*
Y458831D01*
X310157D01*
X304842Y450169D02*
X310157D01*
X422785Y346398D02*
X429232Y339951D01*
Y312933D02*
Y339951D01*
X395768Y312933D02*
X429232D01*
X395768D02*
Y339951D01*
X402215Y346398D01*
X422785D01*
X325157Y450169D02*
Y458831D01*
X319843Y450169D02*
Y458831D01*
X325157D01*
X319843Y450169D02*
X325157D01*
X317618D02*
Y458831D01*
X312303Y450169D02*
Y458831D01*
X317618D01*
X312303Y450169D02*
X317618D01*
X320866Y463582D02*
Y465551D01*
X309055D02*
X320866D01*
X309055Y463582D02*
Y465551D01*
Y463582D02*
X320866D01*
X213480Y424871D02*
X214872Y423479D01*
X205129Y416520D02*
X213480Y424871D01*
X205129Y416520D02*
X206521Y415128D01*
X214872Y423479D01*
X348091Y400201D02*
X351831D01*
X348091Y393311D02*
X351831D01*
Y400201D01*
X348091Y393311D02*
Y400201D01*
X342591Y400189D02*
X346331D01*
X342591Y393299D02*
X346331D01*
Y400189D01*
X342591Y393299D02*
Y400189D01*
X327465Y343020D02*
Y351681D01*
X321756Y343020D02*
Y351681D01*
X327465D01*
X321756Y343020D02*
X327465D01*
X369831Y389342D02*
Y394657D01*
X361169Y389342D02*
Y394657D01*
Y389342D02*
X369831D01*
X361169Y394657D02*
X369831D01*
X389331Y376343D02*
Y381658D01*
X380669Y376343D02*
Y381658D01*
Y376343D02*
X389331D01*
X380669Y381658D02*
X389331D01*
X334803Y409972D02*
X340118D01*
X334803Y401311D02*
X340118D01*
Y409972D01*
X334803Y401311D02*
Y409972D01*
X356122Y408299D02*
X359862D01*
X356122Y415189D02*
X359862D01*
X356122Y408299D02*
Y415189D01*
X359862Y408299D02*
Y415189D01*
X354591Y396689D02*
X358331D01*
X354591Y389799D02*
X358331D01*
Y396689D01*
X354591Y389799D02*
Y396689D01*
X344107Y334831D02*
X349815D01*
X344107Y326169D02*
X349815D01*
Y334831D01*
X344107Y326169D02*
Y334831D01*
X361929D02*
X367638D01*
X361929Y326169D02*
X367638D01*
Y334831D01*
X361929Y326169D02*
Y334831D01*
X447669Y306343D02*
X456331D01*
X447669Y311658D02*
X456331D01*
Y306343D02*
Y311658D01*
X447669Y306343D02*
Y311658D01*
Y314342D02*
X456331D01*
X447669Y319657D02*
X456331D01*
Y314342D02*
Y319657D01*
X447669Y314342D02*
Y319657D01*
Y321843D02*
X456331D01*
X447669Y327157D02*
X456331D01*
Y321843D02*
Y327157D01*
X447669Y321843D02*
Y327157D01*
X269000Y216118D02*
X279039D01*
X269000Y205882D02*
X279039D01*
X269000D02*
Y216118D01*
X279039Y205882D02*
Y216118D01*
X257079Y196118D02*
X267118D01*
X257079Y185882D02*
X267118D01*
X257079D02*
Y196118D01*
X267118Y185882D02*
Y196118D01*
X281079Y183618D02*
X291118D01*
X281079Y173382D02*
X291118D01*
X281079D02*
Y183618D01*
X291118Y173382D02*
Y183618D01*
X166339Y309055D02*
Y320866D01*
X164371Y309055D02*
X166339D01*
X164371D02*
Y320866D01*
X166339D01*
D76*
X268508Y211000D02*
D03*
X279433Y207358D02*
D03*
Y214642D02*
D03*
X256587Y191000D02*
D03*
X267512Y187358D02*
D03*
Y194642D02*
D03*
X280587Y178500D02*
D03*
X291512Y174858D02*
D03*
Y182142D02*
D03*
%TF.MD5,09baaebd63e6d3c0da31ff378b80284f*%
M02*
