%TF.GenerationSoftware,Altium Limited,Altium Designer,18.1.6 (161)*%
G04 Layer_Color=8421504*
%FSLAX26Y26*%
%MOIN*%
%TF.FileFunction,Paste,Top*%
%TF.Part,Single*%
G01*
G75*
%TA.AperFunction,SMDPad,CuDef*%
%ADD11R,0.137795X0.076772*%
G04:AMPARAMS|DCode=12|XSize=39.37mil|YSize=35.433mil|CornerRadius=0mil|HoleSize=0mil|Usage=FLASHONLY|Rotation=315.000|XOffset=0mil|YOffset=0mil|HoleType=Round|Shape=Rectangle|*
%AMROTATEDRECTD12*
4,1,4,-0.026447,0.001392,-0.001392,0.026447,0.026447,-0.001392,0.001392,-0.026447,-0.026447,0.001392,0.0*
%
%ADD12ROTATEDRECTD12*%

G04:AMPARAMS|DCode=13|XSize=15.748mil|YSize=31.496mil|CornerRadius=0mil|HoleSize=0mil|Usage=FLASHONLY|Rotation=315.000|XOffset=0mil|YOffset=0mil|HoleType=Round|Shape=Rectangle|*
%AMROTATEDRECTD13*
4,1,4,-0.016703,-0.005568,0.005568,0.016703,0.016703,0.005568,-0.005568,-0.016703,-0.016703,-0.005568,0.0*
%
%ADD13ROTATEDRECTD13*%

%ADD14R,0.053150X0.037402*%
%ADD15R,0.051181X0.033465*%
%ADD16R,0.033465X0.051181*%
%ADD17R,0.039370X0.023622*%
%ADD18R,0.037402X0.035433*%
%ADD19R,0.037402X0.053150*%
%ADD20R,0.046457X0.022835*%
%ADD21R,0.094488X0.242913*%
%ADD22O,0.055118X0.013780*%
%ADD23R,0.039370X0.035433*%
%ADD24R,0.015748X0.031496*%
G04:AMPARAMS|DCode=25|XSize=39.37mil|YSize=35.433mil|CornerRadius=0mil|HoleSize=0mil|Usage=FLASHONLY|Rotation=45.000|XOffset=0mil|YOffset=0mil|HoleType=Round|Shape=Rectangle|*
%AMROTATEDRECTD25*
4,1,4,-0.001392,-0.026447,-0.026447,-0.001392,0.001392,0.026447,0.026447,0.001392,-0.001392,-0.026447,0.0*
%
%ADD25ROTATEDRECTD25*%

G04:AMPARAMS|DCode=26|XSize=15.748mil|YSize=31.496mil|CornerRadius=0mil|HoleSize=0mil|Usage=FLASHONLY|Rotation=45.000|XOffset=0mil|YOffset=0mil|HoleType=Round|Shape=Rectangle|*
%AMROTATEDRECTD26*
4,1,4,0.005568,-0.016703,-0.016703,0.005568,-0.005568,0.016703,0.016703,-0.005568,0.005568,-0.016703,0.0*
%
%ADD26ROTATEDRECTD26*%

%ADD27R,0.035433X0.039370*%
%ADD28R,0.031496X0.015748*%
%ADD29R,0.076772X0.137795*%
%ADD30R,0.027559X0.035433*%
%ADD31R,0.045276X0.057087*%
%ADD32R,0.050591X0.057874*%
D11*
X2829213Y3470000D02*
D03*
X2559528D02*
D03*
D12*
X2045000Y2130000D02*
D03*
X2128517Y2046483D02*
D03*
X4231758Y4148242D02*
D03*
X4148242Y4231758D02*
D03*
D13*
X2110421Y2089634D02*
D03*
X2088150Y2111905D02*
D03*
X4166337Y4188608D02*
D03*
X4188608Y4166337D02*
D03*
D14*
X3191496Y3585000D02*
D03*
Y3522008D02*
D03*
X3460000Y3034094D02*
D03*
Y2971102D02*
D03*
X3685000Y2388504D02*
D03*
Y2451496D02*
D03*
X3037598Y2253504D02*
D03*
Y2316496D02*
D03*
X2580000Y3106496D02*
D03*
Y3043504D02*
D03*
X3116496Y3585000D02*
D03*
Y3522008D02*
D03*
X4100000Y3026496D02*
D03*
Y2963504D02*
D03*
Y3461496D02*
D03*
Y3398504D02*
D03*
X3280000Y4205000D02*
D03*
Y4142008D02*
D03*
X3190000Y4206496D02*
D03*
Y4143504D02*
D03*
D15*
X3370000Y3033465D02*
D03*
Y2966535D02*
D03*
X3595000Y2386535D02*
D03*
Y2453465D02*
D03*
X3348708Y2576535D02*
D03*
Y2643465D02*
D03*
X3110000Y2251535D02*
D03*
Y2318465D02*
D03*
X2680000Y3108465D02*
D03*
Y3041535D02*
D03*
X2793465Y2908465D02*
D03*
Y2841535D02*
D03*
X2798465Y2556535D02*
D03*
Y2623465D02*
D03*
X3010000Y4208465D02*
D03*
Y4141535D02*
D03*
X3085000Y1751535D02*
D03*
Y1818465D02*
D03*
X3165354Y1751535D02*
D03*
Y1818465D02*
D03*
X3245000Y1751535D02*
D03*
Y1818465D02*
D03*
X3075000Y4578465D02*
D03*
Y4511535D02*
D03*
X3225000Y4578465D02*
D03*
Y4511535D02*
D03*
X3149606Y4578465D02*
D03*
Y4511535D02*
D03*
X2850000Y4050000D02*
D03*
Y3983071D02*
D03*
X2920000Y4203465D02*
D03*
Y4136535D02*
D03*
D16*
X3283465Y2975000D02*
D03*
X3216535D02*
D03*
X2751535Y2325000D02*
D03*
X2818465D02*
D03*
X3251535Y2435000D02*
D03*
X3318465D02*
D03*
X3572827Y2650000D02*
D03*
X3639756D02*
D03*
X2505000Y2630000D02*
D03*
X2571929D02*
D03*
X2573465Y2550000D02*
D03*
X2506535D02*
D03*
X3003465Y3145000D02*
D03*
X2936535D02*
D03*
X2510000Y2905000D02*
D03*
X2576929D02*
D03*
X2578465Y2840000D02*
D03*
X2511535D02*
D03*
X3638465Y2575000D02*
D03*
X3571535D02*
D03*
X2226535Y2210000D02*
D03*
X2293465D02*
D03*
X2231535Y2125000D02*
D03*
X2298465D02*
D03*
X2228071Y2046483D02*
D03*
X2295000D02*
D03*
X1766535Y3245000D02*
D03*
X1833465D02*
D03*
X1766535Y3160000D02*
D03*
X1833465D02*
D03*
X1766535Y3080000D02*
D03*
X1833465D02*
D03*
X2201535Y4185000D02*
D03*
X2268465D02*
D03*
X2198071Y4050000D02*
D03*
X2265000D02*
D03*
X2201535Y4115000D02*
D03*
X2268465D02*
D03*
X2783465Y2005000D02*
D03*
X2716535D02*
D03*
X2663465Y1800000D02*
D03*
X2596535D02*
D03*
X2903465Y1685000D02*
D03*
X2836535D02*
D03*
X4048465Y2000000D02*
D03*
X3981535D02*
D03*
X4078465Y2130000D02*
D03*
X4011535D02*
D03*
X4083465Y2235000D02*
D03*
X4016535D02*
D03*
X4028465Y3991535D02*
D03*
X3961535D02*
D03*
X4023465Y4080000D02*
D03*
X3956535D02*
D03*
X4023465Y4175000D02*
D03*
X3956535D02*
D03*
X2610118Y3700000D02*
D03*
X2677047D02*
D03*
X4553465Y3090000D02*
D03*
X4486535D02*
D03*
X4553465Y3170000D02*
D03*
X4486535D02*
D03*
X4553465Y3245000D02*
D03*
X4486535D02*
D03*
D17*
X2544134Y2417402D02*
D03*
Y2380000D02*
D03*
Y2342599D02*
D03*
X2435866D02*
D03*
Y2380000D02*
D03*
Y2417402D02*
D03*
D18*
X3395787Y2362598D02*
D03*
X3494213Y2400000D02*
D03*
X3395787Y2437402D02*
D03*
X2875787Y2342598D02*
D03*
X2974213Y2380000D02*
D03*
X2875787Y2417402D02*
D03*
X2862717Y3077402D02*
D03*
X2764291Y3040000D02*
D03*
X2862717Y3002598D02*
D03*
X2788425Y2147402D02*
D03*
X2690000Y2110000D02*
D03*
X2788425Y2072598D02*
D03*
X2669213Y1947402D02*
D03*
X2570787Y1910000D02*
D03*
X2669213Y1872598D02*
D03*
X2909213Y1822402D02*
D03*
X2810787Y1785000D02*
D03*
X2909213Y1747598D02*
D03*
D19*
X3501496Y2650000D02*
D03*
X3438504D02*
D03*
X2753504Y2415000D02*
D03*
X2816496D02*
D03*
X3253504Y2507598D02*
D03*
X3316496D02*
D03*
X3501496Y2575000D02*
D03*
X3438504D02*
D03*
X2651969Y2553031D02*
D03*
X2714961D02*
D03*
X2656969Y2630000D02*
D03*
X2719961D02*
D03*
X3001496Y3055000D02*
D03*
X2938504D02*
D03*
X2650472Y2840000D02*
D03*
X2713465D02*
D03*
X2650472Y2915000D02*
D03*
X2713465D02*
D03*
D20*
X3015276Y2890000D02*
D03*
Y2840000D02*
D03*
Y2790000D02*
D03*
Y2740000D02*
D03*
Y2690000D02*
D03*
Y2640000D02*
D03*
Y2590000D02*
D03*
X3224724D02*
D03*
Y2640000D02*
D03*
Y2690000D02*
D03*
Y2740000D02*
D03*
Y2790000D02*
D03*
Y2840000D02*
D03*
Y2890000D02*
D03*
D21*
X3075000Y3885000D02*
D03*
D22*
X3185236Y3718661D02*
D03*
Y3744252D02*
D03*
Y3769843D02*
D03*
Y3795433D02*
D03*
Y3821024D02*
D03*
Y3846614D02*
D03*
Y3872205D02*
D03*
Y3897795D02*
D03*
Y3923386D02*
D03*
Y3948976D02*
D03*
Y3974567D02*
D03*
Y4000157D02*
D03*
Y4025748D02*
D03*
Y4051339D02*
D03*
X2964764Y3718661D02*
D03*
Y3744252D02*
D03*
Y3769843D02*
D03*
Y3795433D02*
D03*
Y3821024D02*
D03*
Y3846614D02*
D03*
Y3872205D02*
D03*
Y3897795D02*
D03*
Y3923386D02*
D03*
Y3948976D02*
D03*
Y3974567D02*
D03*
Y4000157D02*
D03*
Y4025748D02*
D03*
Y4051339D02*
D03*
D23*
X3090551Y1653543D02*
D03*
X3208661D02*
D03*
X3208661Y4645669D02*
D03*
X3090551D02*
D03*
D24*
X3165354Y1671260D02*
D03*
X3133858D02*
D03*
X3133858Y4627953D02*
D03*
X3165354D02*
D03*
D25*
X4161905Y2051850D02*
D03*
X4245421Y2135366D02*
D03*
X2141758Y4241758D02*
D03*
X2058242Y4158242D02*
D03*
D26*
X4202271Y2117271D02*
D03*
X4180000Y2095000D02*
D03*
X2101392Y4176337D02*
D03*
X2123663Y4198608D02*
D03*
D27*
X4645669Y3090551D02*
D03*
Y3208661D02*
D03*
X1653543Y3090551D02*
D03*
Y3208661D02*
D03*
D28*
X4627953Y3165354D02*
D03*
Y3133858D02*
D03*
X1671260Y3165354D02*
D03*
Y3133858D02*
D03*
D29*
X3640000Y4255158D02*
D03*
Y4524842D02*
D03*
D30*
X2704882Y3825000D02*
D03*
X2760000D02*
D03*
X2705000Y3770000D02*
D03*
X2760118D02*
D03*
X2610118Y3905315D02*
D03*
X2555000D02*
D03*
X2740000Y3890000D02*
D03*
X2795118D02*
D03*
D31*
X3359567Y3795000D02*
D03*
X3430433D02*
D03*
X3359567Y3973228D02*
D03*
X3430433D02*
D03*
D32*
X3581713Y3979724D02*
D03*
X3658287D02*
D03*
X3581713Y3795000D02*
D03*
X3658287D02*
D03*
%TF.MD5,397987a53ef5c1e372fd004c6bea6152*%
M02*
