%TF.GenerationSoftware,Altium Limited,Altium Designer,18.1.6 (161)*%
G04 Layer_Physical_Order=2*
G04 Layer_Color=16711680*
%FSLAX26Y26*%
%MOIN*%
%TF.FileFunction,Copper,L2,Bot,Signal*%
%TF.Part,Single*%
G01*
G75*
%TA.AperFunction,SMDPad,CuDef*%
%ADD14R,0.053150X0.037402*%
%ADD16R,0.033465X0.051181*%
%ADD19R,0.037402X0.053150*%
%TA.AperFunction,Conductor*%
%ADD33C,0.010000*%
%ADD34C,0.020000*%
%TA.AperFunction,ComponentPad*%
%ADD36C,0.050000*%
%ADD37O,0.081102X0.081102*%
%TA.AperFunction,ViaPad*%
%ADD38C,0.025000*%
%ADD39C,0.030000*%
%ADD40C,0.050000*%
%TA.AperFunction,SMDPad,CuDef*%
%ADD41R,0.029528X0.017716*%
G36*
X3265491Y4720615D02*
X3342437Y4713037D01*
X3418919Y4701692D01*
X3494751Y4686608D01*
X3569753Y4667821D01*
X3643742Y4645377D01*
X3716541Y4619329D01*
X3787974Y4589740D01*
X3857869Y4556682D01*
X3926058Y4520235D01*
X3992376Y4480485D01*
X4056664Y4437529D01*
X4118767Y4391471D01*
X4178535Y4342420D01*
X4235824Y4290496D01*
X4290496Y4235824D01*
X4342420Y4178535D01*
X4391471Y4118767D01*
X4437529Y4056664D01*
X4480485Y3992376D01*
X4520235Y3926058D01*
X4556682Y3857869D01*
X4589740Y3787974D01*
X4619329Y3716541D01*
X4645377Y3643742D01*
X4667821Y3569753D01*
X4686608Y3494751D01*
X4701692Y3418919D01*
X4713037Y3342437D01*
X4720615Y3265491D01*
X4724409Y3188265D01*
Y3149606D01*
Y3110947D01*
X4720615Y3033722D01*
X4713037Y2956776D01*
X4701692Y2880294D01*
X4686608Y2804461D01*
X4667821Y2729460D01*
X4645377Y2655470D01*
X4619329Y2582672D01*
X4589740Y2511239D01*
X4556682Y2441344D01*
X4520235Y2373155D01*
X4480485Y2306836D01*
X4437529Y2242548D01*
X4391471Y2180446D01*
X4342420Y2120678D01*
X4290496Y2063389D01*
X4235824Y2008716D01*
X4178535Y1956792D01*
X4118767Y1907742D01*
X4056664Y1861683D01*
X3992376Y1818727D01*
X3926058Y1778978D01*
X3857869Y1742530D01*
X3787974Y1709472D01*
X3716541Y1679884D01*
X3643742Y1653836D01*
X3569753Y1631391D01*
X3494751Y1612605D01*
X3418919Y1597521D01*
X3342437Y1586176D01*
X3265491Y1578597D01*
X3188265Y1574803D01*
X3110947D01*
X3033722Y1578597D01*
X2956776Y1586176D01*
X2880294Y1597521D01*
X2804461Y1612605D01*
X2729460Y1631391D01*
X2655470Y1653836D01*
X2582672Y1679884D01*
X2511239Y1709472D01*
X2441344Y1742530D01*
X2373155Y1778978D01*
X2306836Y1818727D01*
X2242548Y1861683D01*
X2180446Y1907742D01*
X2120678Y1956792D01*
X2063389Y2008716D01*
X2008716Y2063389D01*
X1956792Y2120678D01*
X1907742Y2180446D01*
X1861683Y2242548D01*
X1818727Y2306836D01*
X1778978Y2373155D01*
X1742530Y2441344D01*
X1709472Y2511239D01*
X1679884Y2582672D01*
X1653836Y2655470D01*
X1631391Y2729460D01*
X1612605Y2804461D01*
X1597521Y2880294D01*
X1586176Y2956776D01*
X1578597Y3033722D01*
X1574803Y3110947D01*
Y3149606D01*
Y3188265D01*
X1578597Y3265491D01*
X1586176Y3342437D01*
X1597521Y3418919D01*
X1612605Y3494751D01*
X1631391Y3569753D01*
X1653836Y3643742D01*
X1679884Y3716541D01*
X1709472Y3787974D01*
X1742530Y3857869D01*
X1778978Y3926058D01*
X1818727Y3992376D01*
X1861683Y4056664D01*
X1907742Y4118767D01*
X1956792Y4178535D01*
X2008716Y4235824D01*
X2063389Y4290496D01*
X2120678Y4342420D01*
X2180446Y4391471D01*
X2242548Y4437529D01*
X2306836Y4480485D01*
X2373155Y4520235D01*
X2441344Y4556682D01*
X2511239Y4589740D01*
X2582672Y4619329D01*
X2655470Y4645377D01*
X2729460Y4667821D01*
X2804461Y4686608D01*
X2880294Y4701692D01*
X2956776Y4713037D01*
X3033722Y4720615D01*
X3110947Y4724409D01*
X3188265D01*
X3265491Y4720615D01*
D02*
G37*
%LPC*%
G36*
X3149606Y4538035D02*
X3076942Y4536132D01*
X3004476Y4530429D01*
X2932408Y4520941D01*
X2926109Y4519774D01*
X2920024Y4523840D01*
X2912220Y4525392D01*
X2904417Y4523840D01*
X2897801Y4519419D01*
X2894976Y4515191D01*
X2891098Y4514420D01*
X2888747Y4512849D01*
X2860936Y4507694D01*
X2790255Y4490725D01*
X2720558Y4470080D01*
X2652038Y4445816D01*
X2584881Y4417999D01*
X2519273Y4386705D01*
X2455392Y4352021D01*
X2393414Y4314041D01*
X2333508Y4272869D01*
X2275840Y4228618D01*
X2220566Y4181410D01*
X2167839Y4131374D01*
X2117803Y4078646D01*
X2080306Y4034743D01*
X2077043Y4035392D01*
X2069239Y4033840D01*
X2062624Y4029419D01*
X2058203Y4022804D01*
X2056651Y4015000D01*
X2058199Y4007218D01*
X2026344Y3965704D01*
X1985172Y3905799D01*
X1947192Y3843821D01*
X1912507Y3779940D01*
X1881214Y3714331D01*
X1853397Y3647175D01*
X1829132Y3578654D01*
X1808487Y3508958D01*
X1791518Y3438277D01*
X1778272Y3366804D01*
X1768784Y3294737D01*
X1763081Y3222271D01*
X1761178Y3149606D01*
X1763081Y3076942D01*
X1766759Y3030206D01*
X1765581Y3029419D01*
X1761160Y3022804D01*
X1759608Y3015000D01*
X1761160Y3007196D01*
X1765581Y3000581D01*
X1769655Y2997859D01*
X1778272Y2932408D01*
X1791518Y2860936D01*
X1808487Y2790255D01*
X1829132Y2720558D01*
X1853397Y2652038D01*
X1881214Y2584881D01*
X1912507Y2519273D01*
X1947192Y2455392D01*
X1985172Y2393414D01*
X2026344Y2333508D01*
X2070595Y2275840D01*
X2117803Y2220566D01*
X2167839Y2167839D01*
X2220566Y2117803D01*
X2275840Y2070595D01*
X2333508Y2026344D01*
X2334711Y2025517D01*
X2334608Y2025000D01*
X2336160Y2017196D01*
X2340581Y2010581D01*
X2347196Y2006160D01*
X2355000Y2004608D01*
X2362804Y2006160D01*
X2362840Y2006185D01*
X2393414Y1985172D01*
X2455392Y1947192D01*
X2519273Y1912507D01*
X2584881Y1881214D01*
X2652038Y1853397D01*
X2720558Y1829132D01*
X2746905Y1821328D01*
X2747466Y1818503D01*
X2751887Y1811887D01*
X2758503Y1807466D01*
X2766306Y1805914D01*
X2774110Y1807466D01*
X2780127Y1811487D01*
X2790255Y1808487D01*
X2860936Y1791518D01*
X2932408Y1778272D01*
X3004476Y1768784D01*
X3076942Y1763081D01*
X3149606Y1761178D01*
X3222271Y1763081D01*
X3294737Y1768784D01*
X3332988Y1773820D01*
X3334289Y1771873D01*
X3340905Y1767452D01*
X3348708Y1765900D01*
X3356512Y1767452D01*
X3363127Y1771873D01*
X3367488Y1778398D01*
X3438277Y1791518D01*
X3508958Y1808487D01*
X3578654Y1829132D01*
X3647175Y1853397D01*
X3714331Y1881214D01*
X3779940Y1912507D01*
X3843821Y1947192D01*
X3905799Y1985172D01*
X3965704Y2026344D01*
X4023373Y2070595D01*
X4078646Y2117803D01*
X4123965Y2160809D01*
X4130000Y2159608D01*
X4137804Y2161160D01*
X4144419Y2165581D01*
X4148840Y2172196D01*
X4150392Y2180000D01*
X4148840Y2187804D01*
X4144419Y2194419D01*
X4137804Y2198840D01*
X4130000Y2200392D01*
X4122196Y2198840D01*
X4115581Y2194419D01*
X4111160Y2187804D01*
X4109608Y2180000D01*
X4110370Y2176169D01*
X4064925Y2133042D01*
X4010467Y2086532D01*
X3953650Y2042935D01*
X3894630Y2002371D01*
X3833567Y1964951D01*
X3772196Y1931630D01*
X3771084Y1932055D01*
X3769049Y1938010D01*
X3771195Y1941221D01*
X3771946Y1945000D01*
X3728054D01*
X3728805Y1941221D01*
X3733778Y1933778D01*
X3741221Y1928805D01*
X3750000Y1927059D01*
X3752087Y1927474D01*
X3753675Y1922692D01*
X3705990Y1899948D01*
X3639826Y1872542D01*
X3572317Y1848636D01*
X3547453Y1841271D01*
X3545494Y1845844D01*
X3556053Y1853946D01*
X3564156Y1864506D01*
X3569250Y1876803D01*
X3570329Y1885000D01*
X3525000D01*
Y1834868D01*
X3525050Y1834634D01*
X3503651Y1828295D01*
X3434013Y1811577D01*
X3364478Y1798689D01*
X3363127Y1800711D01*
X3356512Y1805131D01*
X3348708Y1806684D01*
X3340905Y1805131D01*
X3334289Y1800711D01*
X3329869Y1794095D01*
X3329867Y1794085D01*
X3292593Y1789178D01*
X3221198Y1783559D01*
X3149606Y1781685D01*
X3078015Y1783559D01*
X3006620Y1789178D01*
X2935616Y1798526D01*
X2865199Y1811577D01*
X2795562Y1828295D01*
X2785722Y1831210D01*
X2785146Y1834110D01*
X2780725Y1840725D01*
X2774110Y1845146D01*
X2766306Y1846698D01*
X2758503Y1845146D01*
X2752413Y1841077D01*
X2726895Y1848636D01*
X2659387Y1872542D01*
X2593222Y1899948D01*
X2528583Y1930779D01*
X2465646Y1964951D01*
X2404583Y2002371D01*
X2374943Y2022742D01*
X2375392Y2025000D01*
X2373840Y2032804D01*
X2369419Y2039419D01*
X2362804Y2043840D01*
X2355000Y2045392D01*
X2347196Y2043840D01*
X2345700Y2042840D01*
X2345562Y2042935D01*
X2288745Y2086532D01*
X2234288Y2133042D01*
X2182340Y2182340D01*
X2133042Y2234288D01*
X2086532Y2288745D01*
X2042935Y2345562D01*
X2024449Y2372459D01*
X2027071Y2377471D01*
X2033779Y2378805D01*
X2041222Y2383778D01*
X2046195Y2391221D01*
X2046946Y2395000D01*
X2025000D01*
Y2400000D01*
X2020000D01*
Y2421946D01*
X2016221Y2421195D01*
X2008778Y2416222D01*
X2004775Y2410229D01*
X2000070Y2409731D01*
X1999058Y2409989D01*
X1964951Y2465646D01*
X1930779Y2528583D01*
X1929628Y2530996D01*
X1933778Y2533778D01*
X1941221Y2528805D01*
X1945000Y2528054D01*
Y2545000D01*
X1923038D01*
X1922961Y2544974D01*
X1899948Y2593222D01*
X1872542Y2659387D01*
X1867565Y2673440D01*
X1870000Y2676254D01*
Y2700000D01*
Y2721946D01*
X1866221Y2721195D01*
X1858778Y2716222D01*
X1857719Y2714636D01*
X1852757Y2715256D01*
X1848636Y2726895D01*
X1828295Y2795562D01*
X1811577Y2865199D01*
X1798526Y2935616D01*
X1790333Y2997850D01*
X1794419Y3000581D01*
X1798840Y3007196D01*
X1800392Y3015000D01*
X1798840Y3022804D01*
X1794419Y3029419D01*
X1787804Y3033840D01*
X1787024Y3033995D01*
X1783559Y3078015D01*
X1781685Y3149606D01*
X1783559Y3221198D01*
X1789178Y3292593D01*
X1798526Y3363596D01*
X1811577Y3434013D01*
X1828295Y3503651D01*
X1848636Y3572317D01*
X1852939Y3584471D01*
X1857901Y3585092D01*
X1858778Y3583778D01*
X1866221Y3578805D01*
X1870000Y3578054D01*
Y3600000D01*
Y3624153D01*
X1867865Y3626619D01*
X1872542Y3639826D01*
X1899948Y3705990D01*
X1922692Y3753675D01*
X1927474Y3752087D01*
X1927059Y3750000D01*
X1928805Y3741221D01*
X1933778Y3733778D01*
X1941221Y3728805D01*
X1945000Y3728054D01*
Y3750000D01*
Y3771946D01*
X1941221Y3771195D01*
X1938010Y3769049D01*
X1932055Y3771084D01*
X1931630Y3772196D01*
X1964951Y3833567D01*
X1999310Y3889635D01*
X1999621Y3889744D01*
X2005026Y3889394D01*
X2008778Y3883778D01*
X2016221Y3878805D01*
X2020000Y3878054D01*
Y3900000D01*
X2025000D01*
Y3905000D01*
X2046946D01*
X2046195Y3908779D01*
X2041222Y3916222D01*
X2033779Y3921195D01*
X2027547Y3922434D01*
X2025076Y3927666D01*
X2042935Y3953650D01*
X2074717Y3995071D01*
X2077043Y3994608D01*
X2084847Y3996160D01*
X2091462Y4000581D01*
X2095883Y4007196D01*
X2097435Y4015000D01*
X2096106Y4021678D01*
X2133042Y4064925D01*
X2182340Y4116873D01*
X2234288Y4166170D01*
X2288745Y4212681D01*
X2345562Y4256278D01*
X2404583Y4296842D01*
X2465646Y4334261D01*
X2528583Y4368433D01*
X2529552Y4368895D01*
X2532945Y4364974D01*
X2528805Y4358779D01*
X2528054Y4355000D01*
X2571946D01*
X2571195Y4358779D01*
X2566222Y4366222D01*
X2558779Y4371194D01*
X2550000Y4372941D01*
X2549394Y4372820D01*
X2547806Y4377602D01*
X2593222Y4399265D01*
X2659387Y4426671D01*
X2726895Y4450577D01*
X2795562Y4470917D01*
X2865199Y4487636D01*
X2895960Y4493337D01*
X2897801Y4490581D01*
X2904417Y4486160D01*
X2912220Y4484608D01*
X2920024Y4486160D01*
X2926639Y4490581D01*
X2931060Y4497196D01*
X2931606Y4499943D01*
X2935616Y4500686D01*
X3006620Y4510034D01*
X3078015Y4515653D01*
X3149606Y4517528D01*
X3221198Y4515653D01*
X3292593Y4510034D01*
X3363596Y4500686D01*
X3434013Y4487636D01*
X3503651Y4470917D01*
X3572317Y4450577D01*
X3639826Y4426671D01*
X3705990Y4399265D01*
X3770630Y4368433D01*
X3833567Y4334261D01*
X3894630Y4296842D01*
X3945034Y4262200D01*
X3944608Y4260061D01*
X3946160Y4252258D01*
X3950581Y4245642D01*
X3957196Y4241222D01*
X3965000Y4239670D01*
X3972804Y4241222D01*
X3973054Y4241389D01*
X4010467Y4212681D01*
X4064925Y4166170D01*
X4116873Y4116873D01*
X4166170Y4064925D01*
X4212681Y4010467D01*
X4256278Y3953650D01*
X4274015Y3927843D01*
X4271760Y3922296D01*
X4266221Y3921195D01*
X4258778Y3916222D01*
X4253806Y3908779D01*
X4253054Y3905000D01*
X4275000D01*
Y3900000D01*
X4280000D01*
Y3878054D01*
X4283779Y3878805D01*
X4291222Y3883778D01*
X4294563Y3888779D01*
X4300421Y3888789D01*
X4334261Y3833567D01*
X4368433Y3770630D01*
X4364423Y3767423D01*
X4358779Y3771195D01*
X4355000Y3771946D01*
Y3750000D01*
Y3728054D01*
X4358779Y3728805D01*
X4366222Y3733778D01*
X4371194Y3741221D01*
X4372880Y3749693D01*
X4373261Y3749918D01*
X4378310Y3749923D01*
X4399265Y3705990D01*
X4426671Y3639826D01*
X4431542Y3626071D01*
X4430000Y3624290D01*
Y3600000D01*
Y3578054D01*
X4433779Y3578805D01*
X4441222Y3583778D01*
X4441584Y3584321D01*
X4446546Y3583701D01*
X4450577Y3572317D01*
X4470917Y3503651D01*
X4487636Y3434013D01*
X4500686Y3363596D01*
X4504681Y3333256D01*
X4500791Y3327434D01*
X4499239Y3319631D01*
X4500791Y3311827D01*
X4505211Y3305211D01*
X4511827Y3300791D01*
X4519631Y3299239D01*
X4527434Y3300791D01*
X4534050Y3305211D01*
X4538470Y3311827D01*
X4540022Y3319631D01*
X4538470Y3327434D01*
X4534050Y3334050D01*
X4527434Y3338470D01*
X4524597Y3339035D01*
X4520941Y3366804D01*
X4507694Y3438277D01*
X4490725Y3508958D01*
X4470080Y3578654D01*
X4445816Y3647175D01*
X4417999Y3714331D01*
X4386705Y3779940D01*
X4352021Y3843821D01*
X4314041Y3905799D01*
X4272869Y3965704D01*
X4228618Y4023373D01*
X4181410Y4078646D01*
X4131374Y4131374D01*
X4078646Y4181410D01*
X4023373Y4228618D01*
X3984995Y4258066D01*
X3985392Y4260061D01*
X3983840Y4267865D01*
X3979419Y4274481D01*
X3972804Y4278901D01*
X3965000Y4280453D01*
X3957196Y4278901D01*
X3957060Y4278810D01*
X3905799Y4314041D01*
X3843821Y4352021D01*
X3779940Y4386705D01*
X3714331Y4417999D01*
X3647175Y4445816D01*
X3578654Y4470080D01*
X3508958Y4490725D01*
X3438277Y4507694D01*
X3366804Y4520941D01*
X3294737Y4530429D01*
X3222271Y4536132D01*
X3149606Y4538035D01*
D02*
G37*
G36*
X3354606Y4465353D02*
Y4435709D01*
X3384250D01*
X3383705Y4439846D01*
X3380178Y4448360D01*
X3374568Y4455671D01*
X3367257Y4461281D01*
X3358743Y4464808D01*
X3354606Y4465353D01*
D02*
G37*
G36*
X3254606D02*
Y4435709D01*
X3284250D01*
X3283705Y4439846D01*
X3280178Y4448360D01*
X3274568Y4455671D01*
X3267257Y4461281D01*
X3258743Y4464808D01*
X3254606Y4465353D01*
D02*
G37*
G36*
X3244606Y4465353D02*
X3240469Y4464808D01*
X3231955Y4461281D01*
X3224644Y4455671D01*
X3219034Y4448360D01*
X3215507Y4439846D01*
X3214962Y4435709D01*
X3244606D01*
Y4465353D01*
D02*
G37*
G36*
X3344606D02*
X3340469Y4464808D01*
X3331955Y4461281D01*
X3324644Y4455671D01*
X3319034Y4448360D01*
X3315507Y4439846D01*
X3314962Y4435709D01*
X3344606D01*
Y4465353D01*
D02*
G37*
G36*
X2949606Y4460968D02*
X2941774Y4459937D01*
X2934477Y4456914D01*
X2928210Y4452105D01*
X2923401Y4445838D01*
X2920378Y4438541D01*
X2919347Y4430709D01*
X2920378Y4422877D01*
X2923401Y4415580D01*
X2928210Y4409313D01*
X2934477Y4404504D01*
X2941774Y4401481D01*
X2949606Y4400450D01*
X2957438Y4401481D01*
X2964735Y4404504D01*
X2971002Y4409313D01*
X2975811Y4415580D01*
X2978834Y4422877D01*
X2979865Y4430709D01*
X2978834Y4438541D01*
X2975811Y4445838D01*
X2971002Y4452105D01*
X2964735Y4456914D01*
X2957438Y4459937D01*
X2949606Y4460968D01*
D02*
G37*
G36*
X3244606Y4425709D02*
X3214962D01*
X3215507Y4421572D01*
X3219034Y4413058D01*
X3224644Y4405747D01*
X3231955Y4400137D01*
X3240469Y4396610D01*
X3244606Y4396065D01*
Y4425709D01*
D02*
G37*
G36*
X3344606D02*
X3314962D01*
X3315507Y4421572D01*
X3319034Y4413058D01*
X3324644Y4405747D01*
X3331955Y4400137D01*
X3340469Y4396610D01*
X3344606Y4396065D01*
Y4425709D01*
D02*
G37*
G36*
X3384250D02*
X3354606D01*
Y4396065D01*
X3358743Y4396610D01*
X3367257Y4400137D01*
X3374568Y4405747D01*
X3380178Y4413058D01*
X3383705Y4421572D01*
X3384250Y4425709D01*
D02*
G37*
G36*
X3284250D02*
X3254606D01*
Y4396065D01*
X3258743Y4396610D01*
X3267257Y4400137D01*
X3274568Y4405747D01*
X3280178Y4413058D01*
X3283705Y4421572D01*
X3284250Y4425709D01*
D02*
G37*
G36*
X3605000Y4371946D02*
Y4355000D01*
X3621946D01*
X3621195Y4358779D01*
X3616222Y4366222D01*
X3608779Y4371194D01*
X3605000Y4371946D01*
D02*
G37*
G36*
X3595000D02*
X3591221Y4371194D01*
X3583778Y4366222D01*
X3578805Y4358779D01*
X3578054Y4355000D01*
X3595000D01*
Y4371946D01*
D02*
G37*
G36*
X3455000D02*
Y4355000D01*
X3471946D01*
X3471195Y4358779D01*
X3466222Y4366222D01*
X3458779Y4371194D01*
X3455000Y4371946D01*
D02*
G37*
G36*
X3445000D02*
X3441221Y4371194D01*
X3433778Y4366222D01*
X3428805Y4358779D01*
X3428054Y4355000D01*
X3445000D01*
Y4371946D01*
D02*
G37*
G36*
X2705000D02*
Y4355000D01*
X2721946D01*
X2721195Y4358779D01*
X2716222Y4366222D01*
X2708779Y4371194D01*
X2705000Y4371946D01*
D02*
G37*
G36*
X2695000D02*
X2691221Y4371194D01*
X2683778Y4366222D01*
X2678805Y4358779D01*
X2678054Y4355000D01*
X2695000D01*
Y4371946D01*
D02*
G37*
G36*
X2721946Y4345000D02*
X2705000D01*
Y4328054D01*
X2708779Y4328806D01*
X2716222Y4333778D01*
X2721195Y4341221D01*
X2721946Y4345000D01*
D02*
G37*
G36*
X2695000D02*
X2678054D01*
X2678805Y4341221D01*
X2683778Y4333778D01*
X2691221Y4328806D01*
X2695000Y4328054D01*
Y4345000D01*
D02*
G37*
G36*
X2571946D02*
X2555000D01*
Y4328054D01*
X2558779Y4328806D01*
X2566222Y4333778D01*
X2571195Y4341221D01*
X2571946Y4345000D01*
D02*
G37*
G36*
X2545000D02*
X2528054D01*
X2528805Y4341221D01*
X2533778Y4333778D01*
X2541221Y4328806D01*
X2545000Y4328054D01*
Y4345000D01*
D02*
G37*
G36*
X3621946D02*
X3605000D01*
Y4328054D01*
X3608779Y4328806D01*
X3616222Y4333778D01*
X3621195Y4341221D01*
X3621946Y4345000D01*
D02*
G37*
G36*
X3595000D02*
X3578054D01*
X3578805Y4341221D01*
X3583778Y4333778D01*
X3591221Y4328806D01*
X3595000Y4328054D01*
Y4345000D01*
D02*
G37*
G36*
X3471946D02*
X3455000D01*
Y4328054D01*
X3458779Y4328806D01*
X3466222Y4333778D01*
X3471195Y4341221D01*
X3471946Y4345000D01*
D02*
G37*
G36*
X3445000D02*
X3428054D01*
X3428805Y4341221D01*
X3433778Y4333778D01*
X3441221Y4328806D01*
X3445000Y4328054D01*
Y4345000D01*
D02*
G37*
G36*
X2995000Y4580392D02*
X2987196Y4578840D01*
X2980581Y4574419D01*
X2976160Y4567804D01*
X2975876Y4566373D01*
X2926247Y4559840D01*
X2852747Y4546217D01*
X2780061Y4528767D01*
X2708388Y4507536D01*
X2637924Y4482584D01*
X2568863Y4453978D01*
X2501393Y4421796D01*
X2435700Y4386128D01*
X2371964Y4347070D01*
X2343007Y4327168D01*
X2342804Y4327304D01*
X2335000Y4328856D01*
X2327196Y4327304D01*
X2320581Y4322884D01*
X2316160Y4316268D01*
X2314608Y4308465D01*
X2314751Y4307749D01*
X2310359Y4304731D01*
X2251055Y4259225D01*
X2194213Y4210677D01*
X2139991Y4159222D01*
X2088535Y4104999D01*
X2039988Y4048158D01*
X1994482Y3988853D01*
X1952142Y3927249D01*
X1913085Y3863512D01*
X1877416Y3797819D01*
X1845235Y3730350D01*
X1816629Y3661288D01*
X1791676Y3590825D01*
X1770446Y3519151D01*
X1752995Y3446465D01*
X1739373Y3372965D01*
X1729616Y3298853D01*
X1723751Y3224332D01*
X1721794Y3149606D01*
X1723751Y3074880D01*
X1729616Y3000359D01*
X1732228Y2980520D01*
X1730581Y2979419D01*
X1726160Y2972804D01*
X1724608Y2965000D01*
X1726160Y2957196D01*
X1730581Y2950581D01*
X1736708Y2946486D01*
X1739373Y2926247D01*
X1752995Y2852747D01*
X1770446Y2780061D01*
X1791676Y2708388D01*
X1816629Y2637924D01*
X1845235Y2568863D01*
X1877416Y2501393D01*
X1913085Y2435700D01*
X1952142Y2371964D01*
X1994482Y2310359D01*
X2002536Y2299863D01*
X2001160Y2297804D01*
X1999608Y2290000D01*
X2001160Y2282196D01*
X2005581Y2275581D01*
X2012196Y2271160D01*
X2020000Y2269608D01*
X2024990Y2270601D01*
X2039988Y2251055D01*
X2088535Y2194213D01*
X2139991Y2139991D01*
X2194213Y2088535D01*
X2251055Y2039988D01*
X2310359Y1994482D01*
X2371964Y1952142D01*
X2399644Y1935180D01*
X2399608Y1935000D01*
X2401160Y1927196D01*
X2405581Y1920581D01*
X2412196Y1916160D01*
X2420000Y1914608D01*
X2427804Y1916160D01*
X2429180Y1917080D01*
X2435700Y1913085D01*
X2501393Y1877416D01*
X2568863Y1845235D01*
X2637924Y1816629D01*
X2708388Y1791676D01*
X2780061Y1770446D01*
X2852747Y1752995D01*
X2926247Y1739373D01*
X3000359Y1729616D01*
X3074880Y1723751D01*
X3149606Y1721794D01*
X3224332Y1723751D01*
X3298853Y1729616D01*
X3372965Y1739373D01*
X3399420Y1744276D01*
X3400581Y1742539D01*
X3407196Y1738118D01*
X3415000Y1736566D01*
X3422804Y1738118D01*
X3429419Y1742539D01*
X3433840Y1749154D01*
X3434150Y1750713D01*
X3446465Y1752995D01*
X3519151Y1770446D01*
X3590825Y1791676D01*
X3661288Y1816629D01*
X3730350Y1845235D01*
X3797819Y1877416D01*
X3863512Y1913085D01*
X3927249Y1952142D01*
X3988853Y1994482D01*
X4045044Y2037599D01*
X4047196Y2036160D01*
X4055000Y2034608D01*
X4062804Y2036160D01*
X4069419Y2040581D01*
X4073840Y2047196D01*
X4075392Y2055000D01*
X4073989Y2062050D01*
X4104999Y2088535D01*
X4159222Y2139991D01*
X4210677Y2194213D01*
X4259225Y2251055D01*
X4304731Y2310359D01*
X4347070Y2371964D01*
X4386128Y2435700D01*
X4421796Y2501393D01*
X4453978Y2568863D01*
X4482584Y2637924D01*
X4507536Y2708388D01*
X4528767Y2780061D01*
X4546217Y2852747D01*
X4559840Y2926247D01*
X4565748Y2971127D01*
X4565914Y2971160D01*
X4572529Y2975581D01*
X4576950Y2982196D01*
X4578502Y2990000D01*
X4576950Y2997804D01*
X4572529Y3004419D01*
X4565914Y3008840D01*
X4558110Y3010392D01*
X4550307Y3008840D01*
X4543691Y3004419D01*
X4539271Y2997804D01*
X4537718Y2990000D01*
X4539271Y2982196D01*
X4543691Y2975581D01*
X4545499Y2974373D01*
X4539585Y2929455D01*
X4526393Y2858276D01*
X4521301Y2858242D01*
X4521194Y2858779D01*
X4516222Y2866222D01*
X4508779Y2871195D01*
X4505000Y2871946D01*
Y2850000D01*
Y2828054D01*
X4508779Y2828805D01*
X4515289Y2833155D01*
X4518852Y2831480D01*
X4519825Y2830630D01*
X4508958Y2785369D01*
X4488033Y2714725D01*
X4463439Y2645273D01*
X4435243Y2577204D01*
X4403524Y2510703D01*
X4368368Y2445954D01*
X4329872Y2383133D01*
X4288140Y2322413D01*
X4243288Y2263961D01*
X4227029Y2244924D01*
X4226873Y2245000D01*
X4205000D01*
Y2228054D01*
X4206259Y2228304D01*
X4208935Y2223738D01*
X4195438Y2207936D01*
X4144721Y2154491D01*
X4091277Y2103775D01*
X4057470Y2074901D01*
X4055000Y2075392D01*
X4047196Y2073840D01*
X4040581Y2069419D01*
X4036160Y2062804D01*
X4034709Y2055508D01*
X3976799Y2011073D01*
X3916079Y1969341D01*
X3853259Y1930844D01*
X3788509Y1895688D01*
X3722009Y1863969D01*
X3653939Y1835774D01*
X3584488Y1811180D01*
X3513844Y1790254D01*
X3442202Y1773054D01*
X3429831Y1770762D01*
X3429419Y1771377D01*
X3422804Y1775798D01*
X3415000Y1777350D01*
X3407196Y1775798D01*
X3400581Y1771377D01*
X3396160Y1764762D01*
X3396111Y1764512D01*
X3369757Y1759628D01*
X3296710Y1750011D01*
X3223259Y1744230D01*
X3149606Y1742301D01*
X3075954Y1744230D01*
X3002503Y1750011D01*
X2929455Y1759628D01*
X2857011Y1773054D01*
X2785369Y1790254D01*
X2714725Y1811180D01*
X2645273Y1835774D01*
X2577204Y1863969D01*
X2510703Y1895688D01*
X2445954Y1930844D01*
X2440259Y1934334D01*
X2440392Y1935000D01*
X2438840Y1942804D01*
X2434419Y1949419D01*
X2427804Y1953840D01*
X2420000Y1955392D01*
X2412196Y1953840D01*
X2410394Y1952635D01*
X2383133Y1969341D01*
X2322413Y2011073D01*
X2263961Y2055925D01*
X2207936Y2103775D01*
X2154491Y2154491D01*
X2103775Y2207936D01*
X2055925Y2263961D01*
X2039476Y2285397D01*
X2040392Y2290000D01*
X2038840Y2297804D01*
X2034419Y2304419D01*
X2027804Y2308840D01*
X2020350Y2310322D01*
X2011073Y2322413D01*
X1969341Y2383133D01*
X1930844Y2445954D01*
X1895688Y2510703D01*
X1863969Y2577204D01*
X1835774Y2645273D01*
X1811180Y2714725D01*
X1790254Y2785369D01*
X1773054Y2857011D01*
X1759628Y2929455D01*
X1757054Y2949001D01*
X1759419Y2950581D01*
X1763840Y2957196D01*
X1765392Y2965000D01*
X1763840Y2972804D01*
X1759419Y2979419D01*
X1752804Y2983840D01*
X1752459Y2983908D01*
X1750011Y3002503D01*
X1744230Y3075954D01*
X1742301Y3149606D01*
X1744230Y3223259D01*
X1750011Y3296710D01*
X1759628Y3369757D01*
X1773054Y3442202D01*
X1790254Y3513844D01*
X1811180Y3584488D01*
X1835774Y3653939D01*
X1863969Y3722009D01*
X1895688Y3788509D01*
X1930844Y3853259D01*
X1969341Y3916079D01*
X2011073Y3976799D01*
X2055925Y4035252D01*
X2103775Y4091277D01*
X2154491Y4144721D01*
X2207936Y4195438D01*
X2263961Y4243288D01*
X2322413Y4288140D01*
X2325867Y4290513D01*
X2327196Y4289625D01*
X2335000Y4288073D01*
X2342804Y4289625D01*
X2349419Y4294045D01*
X2353840Y4300661D01*
X2355392Y4308465D01*
X2354982Y4310524D01*
X2383133Y4329872D01*
X2445954Y4368368D01*
X2510703Y4403524D01*
X2577204Y4435243D01*
X2645273Y4463439D01*
X2714725Y4488033D01*
X2785369Y4508958D01*
X2857011Y4526158D01*
X2929455Y4539585D01*
X2980129Y4546256D01*
X2980581Y4545581D01*
X2987196Y4541160D01*
X2995000Y4539608D01*
X3002804Y4541160D01*
X3009419Y4545581D01*
X3012357Y4549977D01*
X3075954Y4554983D01*
X3149606Y4556911D01*
X3223259Y4554983D01*
X3296710Y4549202D01*
X3369757Y4539585D01*
X3442202Y4526158D01*
X3513844Y4508958D01*
X3584488Y4488033D01*
X3653939Y4463439D01*
X3722009Y4435243D01*
X3788509Y4403524D01*
X3853259Y4368368D01*
X3909749Y4333751D01*
X3911160Y4326656D01*
X3915581Y4320041D01*
X3922196Y4315620D01*
X3930000Y4314068D01*
X3937804Y4315620D01*
X3944419Y4320041D01*
X3948840Y4326656D01*
X3950392Y4334460D01*
X3948840Y4342264D01*
X3944419Y4348879D01*
X3937804Y4353300D01*
X3930000Y4354852D01*
X3922196Y4353300D01*
X3919750Y4351665D01*
X3863512Y4386128D01*
X3797819Y4421796D01*
X3730350Y4453978D01*
X3661288Y4482584D01*
X3590825Y4507536D01*
X3519151Y4528767D01*
X3446465Y4546217D01*
X3372965Y4559840D01*
X3298853Y4569597D01*
X3224332Y4575462D01*
X3149606Y4577418D01*
X3074880Y4575462D01*
X3012028Y4570515D01*
X3009419Y4574419D01*
X3002804Y4578840D01*
X2995000Y4580392D01*
D02*
G37*
G36*
X3349606Y4365968D02*
X3341774Y4364937D01*
X3334477Y4361914D01*
X3328210Y4357105D01*
X3323401Y4350838D01*
X3320378Y4343541D01*
X3319347Y4335709D01*
X3320378Y4327877D01*
X3323401Y4320580D01*
X3328210Y4314313D01*
X3334477Y4309504D01*
X3341774Y4306481D01*
X3349606Y4305450D01*
X3357438Y4306481D01*
X3364735Y4309504D01*
X3371002Y4314313D01*
X3375811Y4320580D01*
X3378834Y4327877D01*
X3379865Y4335709D01*
X3378834Y4343541D01*
X3375811Y4350838D01*
X3371002Y4357105D01*
X3364735Y4361914D01*
X3357438Y4364937D01*
X3349606Y4365968D01*
D02*
G37*
G36*
X3249606Y4360968D02*
X3241774Y4359937D01*
X3234477Y4356914D01*
X3228210Y4352105D01*
X3223401Y4345838D01*
X3220378Y4338541D01*
X3219347Y4330709D01*
X3220378Y4322877D01*
X3223401Y4315580D01*
X3228210Y4309313D01*
X3234477Y4304504D01*
X3241774Y4301481D01*
X3249606Y4300450D01*
X3257438Y4301481D01*
X3264735Y4304504D01*
X3271002Y4309313D01*
X3275811Y4315580D01*
X3278834Y4322877D01*
X3279865Y4330709D01*
X3278834Y4338541D01*
X3275811Y4345838D01*
X3271002Y4352105D01*
X3264735Y4356914D01*
X3257438Y4359937D01*
X3249606Y4360968D01*
D02*
G37*
G36*
X3049606D02*
X3041774Y4359937D01*
X3034477Y4356914D01*
X3028210Y4352105D01*
X3023401Y4345838D01*
X3020378Y4338541D01*
X3019347Y4330709D01*
X3020378Y4322877D01*
X3023401Y4315580D01*
X3028210Y4309313D01*
X3034477Y4304504D01*
X3041774Y4301481D01*
X3049606Y4300450D01*
X3057438Y4301481D01*
X3064735Y4304504D01*
X3071002Y4309313D01*
X3075811Y4315580D01*
X3078834Y4322877D01*
X3079865Y4330709D01*
X3078834Y4338541D01*
X3075811Y4345838D01*
X3071002Y4352105D01*
X3064735Y4356914D01*
X3057438Y4359937D01*
X3049606Y4360968D01*
D02*
G37*
G36*
X2956693Y4255591D02*
X2934961D01*
Y4225000D01*
X2956693D01*
Y4255591D01*
D02*
G37*
G36*
X2924961D02*
X2903228D01*
Y4225000D01*
X2924961D01*
Y4255591D01*
D02*
G37*
G36*
X3830000Y4221946D02*
Y4205000D01*
X3846946D01*
X3846195Y4208779D01*
X3841222Y4216222D01*
X3833779Y4221194D01*
X3830000Y4221946D01*
D02*
G37*
G36*
X3820000D02*
X3816221Y4221194D01*
X3808778Y4216222D01*
X3803805Y4208779D01*
X3803054Y4205000D01*
X3820000D01*
Y4221946D01*
D02*
G37*
G36*
X3530000D02*
Y4205000D01*
X3546946D01*
X3546195Y4208779D01*
X3541222Y4216222D01*
X3533779Y4221194D01*
X3530000Y4221946D01*
D02*
G37*
G36*
X3520000D02*
X3516221Y4221194D01*
X3508778Y4216222D01*
X3503805Y4208779D01*
X3503054Y4205000D01*
X3520000D01*
Y4221946D01*
D02*
G37*
G36*
X3380000D02*
Y4205000D01*
X3396946D01*
X3396195Y4208779D01*
X3391222Y4216222D01*
X3383779Y4221194D01*
X3380000Y4221946D01*
D02*
G37*
G36*
X3370000D02*
X3366221Y4221194D01*
X3358778Y4216222D01*
X3353805Y4208779D01*
X3353054Y4205000D01*
X3370000D01*
Y4221946D01*
D02*
G37*
G36*
X2630000D02*
Y4205000D01*
X2646946D01*
X2646195Y4208779D01*
X2641222Y4216222D01*
X2633779Y4221194D01*
X2630000Y4221946D01*
D02*
G37*
G36*
X2620000D02*
X2616221Y4221194D01*
X2608778Y4216222D01*
X2603805Y4208779D01*
X2603054Y4205000D01*
X2620000D01*
Y4221946D01*
D02*
G37*
G36*
X2480000D02*
Y4205000D01*
X2496946D01*
X2496195Y4208779D01*
X2491222Y4216222D01*
X2483779Y4221194D01*
X2480000Y4221946D01*
D02*
G37*
G36*
X2470000D02*
X2466221Y4221194D01*
X2458778Y4216222D01*
X2453805Y4208779D01*
X2453054Y4205000D01*
X2470000D01*
Y4221946D01*
D02*
G37*
G36*
X2956693Y4215000D02*
X2934961D01*
Y4184409D01*
X2956693D01*
Y4215000D01*
D02*
G37*
G36*
X2924961D02*
X2903228D01*
Y4184409D01*
X2924961D01*
Y4215000D01*
D02*
G37*
G36*
X2646946Y4195000D02*
X2630000D01*
Y4178054D01*
X2633779Y4178806D01*
X2641222Y4183778D01*
X2646195Y4191221D01*
X2646946Y4195000D01*
D02*
G37*
G36*
X2620000D02*
X2603054D01*
X2603805Y4191221D01*
X2608778Y4183778D01*
X2616221Y4178806D01*
X2620000Y4178054D01*
Y4195000D01*
D02*
G37*
G36*
X2496946D02*
X2480000D01*
Y4178054D01*
X2483779Y4178806D01*
X2491222Y4183778D01*
X2496195Y4191221D01*
X2496946Y4195000D01*
D02*
G37*
G36*
X2470000D02*
X2453054D01*
X2453805Y4191221D01*
X2458778Y4183778D01*
X2466221Y4178806D01*
X2470000Y4178054D01*
Y4195000D01*
D02*
G37*
G36*
X3846946D02*
X3830000D01*
Y4178054D01*
X3833779Y4178806D01*
X3841222Y4183778D01*
X3846195Y4191221D01*
X3846946Y4195000D01*
D02*
G37*
G36*
X3820000D02*
X3803054D01*
X3803805Y4191221D01*
X3808778Y4183778D01*
X3816221Y4178806D01*
X3820000Y4178054D01*
Y4195000D01*
D02*
G37*
G36*
X3546946D02*
X3530000D01*
Y4178054D01*
X3533779Y4178806D01*
X3541222Y4183778D01*
X3546195Y4191221D01*
X3546946Y4195000D01*
D02*
G37*
G36*
X3520000D02*
X3503054D01*
X3503805Y4191221D01*
X3508778Y4183778D01*
X3516221Y4178806D01*
X3520000Y4178054D01*
Y4195000D01*
D02*
G37*
G36*
X3396946D02*
X3380000D01*
Y4178054D01*
X3383779Y4178806D01*
X3391222Y4183778D01*
X3396195Y4191221D01*
X3396946Y4195000D01*
D02*
G37*
G36*
X3370000D02*
X3353054D01*
X3353805Y4191221D01*
X3358778Y4183778D01*
X3366221Y4178806D01*
X3370000Y4178054D01*
Y4195000D01*
D02*
G37*
G36*
X3149606Y4360968D02*
X3141774Y4359937D01*
X3134477Y4356914D01*
X3128210Y4352105D01*
X3123401Y4345838D01*
X3120378Y4338541D01*
X3119347Y4330709D01*
X3120378Y4322877D01*
X3123401Y4315580D01*
X3128210Y4309313D01*
X3134477Y4304504D01*
X3139410Y4302460D01*
Y4203829D01*
X3084982Y4149401D01*
X3080000Y4150392D01*
X3072196Y4148840D01*
X3065581Y4144419D01*
X3061160Y4137804D01*
X3059608Y4130000D01*
X3061160Y4122196D01*
X3065581Y4115581D01*
X3072196Y4111160D01*
X3080000Y4109608D01*
X3087804Y4111160D01*
X3094419Y4115581D01*
X3098840Y4122196D01*
X3100392Y4130000D01*
X3099401Y4134982D01*
X3156816Y4192396D01*
X3159026Y4195704D01*
X3159802Y4199606D01*
Y4302460D01*
X3164735Y4304504D01*
X3171002Y4309313D01*
X3175811Y4315580D01*
X3178834Y4322877D01*
X3179865Y4330709D01*
X3178834Y4338541D01*
X3175811Y4345838D01*
X3171002Y4352105D01*
X3164735Y4356914D01*
X3157438Y4359937D01*
X3149606Y4360968D01*
D02*
G37*
G36*
X3149606Y4661124D02*
X3075440Y4659304D01*
X3001452Y4653846D01*
X2927820Y4644765D01*
X2854724Y4632081D01*
X2782337Y4615826D01*
X2710836Y4596039D01*
X2640391Y4572767D01*
X2571173Y4546067D01*
X2503349Y4516003D01*
X2437082Y4482646D01*
X2372531Y4446079D01*
X2309852Y4406388D01*
X2249196Y4363669D01*
X2206239Y4330145D01*
X2205000Y4330392D01*
X2197196Y4328840D01*
X2190581Y4324419D01*
X2186160Y4317804D01*
X2185272Y4313335D01*
X2134533Y4269567D01*
X2080802Y4218411D01*
X2029645Y4164680D01*
X1981187Y4108503D01*
X1935543Y4050017D01*
X1892825Y3989361D01*
X1853134Y3926682D01*
X1816566Y3862131D01*
X1783210Y3795864D01*
X1753146Y3728039D01*
X1726445Y3658821D01*
X1703174Y3588377D01*
X1683386Y3516875D01*
X1667131Y3444489D01*
X1654448Y3371392D01*
X1646242Y3304861D01*
X1645581Y3304419D01*
X1641160Y3297804D01*
X1639608Y3290000D01*
X1641160Y3282196D01*
X1643914Y3278075D01*
X1639909Y3223773D01*
X1638088Y3149606D01*
X1639909Y3075440D01*
X1645367Y3001452D01*
X1654448Y2927820D01*
X1667131Y2854724D01*
X1683386Y2782337D01*
X1703174Y2710836D01*
X1726445Y2640391D01*
X1753146Y2571173D01*
X1783210Y2503349D01*
X1816566Y2437082D01*
X1853134Y2372531D01*
X1892825Y2309852D01*
X1935543Y2249196D01*
X1981187Y2190709D01*
X1985450Y2185767D01*
X1986160Y2182196D01*
X1990581Y2175581D01*
X1997196Y2171160D01*
X1998227Y2170956D01*
X2029645Y2134533D01*
X2080802Y2080802D01*
X2134533Y2029645D01*
X2190709Y1981187D01*
X2249196Y1935543D01*
X2309852Y1892825D01*
X2372531Y1853134D01*
X2437082Y1816566D01*
X2503349Y1783210D01*
X2571173Y1753146D01*
X2640391Y1726445D01*
X2710836Y1703174D01*
X2782337Y1683386D01*
X2854724Y1667131D01*
X2927820Y1654448D01*
X3001452Y1645367D01*
X3006454Y1644997D01*
X3012196Y1641160D01*
X3020000Y1639608D01*
X3027804Y1641160D01*
X3030853Y1643198D01*
X3075440Y1639909D01*
X3149606Y1638088D01*
X3223773Y1639909D01*
X3297761Y1645367D01*
X3371392Y1654448D01*
X3444489Y1667131D01*
X3516875Y1683386D01*
X3588377Y1703174D01*
X3658821Y1726445D01*
X3728039Y1753146D01*
X3795864Y1783210D01*
X3862131Y1816566D01*
X3926682Y1853134D01*
X3989361Y1892825D01*
X4050017Y1935543D01*
X4108503Y1981187D01*
X4118591Y1989889D01*
X4120000Y1989608D01*
X4127804Y1991160D01*
X4134419Y1995581D01*
X4138840Y2002196D01*
X4140078Y2008424D01*
X4164680Y2029645D01*
X4218411Y2080802D01*
X4269567Y2134533D01*
X4318026Y2190709D01*
X4363669Y2249196D01*
X4406388Y2309852D01*
X4446079Y2372531D01*
X4482646Y2437082D01*
X4516003Y2503349D01*
X4546067Y2571173D01*
X4572767Y2640391D01*
X4596039Y2710836D01*
X4615826Y2782337D01*
X4632081Y2854724D01*
X4644765Y2927820D01*
X4653846Y3001452D01*
X4654266Y3007137D01*
X4659419Y3010581D01*
X4663840Y3017196D01*
X4665392Y3025000D01*
X4663840Y3032804D01*
X4659419Y3039419D01*
X4652804Y3043840D01*
X4645000Y3045392D01*
X4637196Y3043840D01*
X4630581Y3039419D01*
X4626160Y3032804D01*
X4624608Y3025000D01*
X4624505Y3024952D01*
X4618840Y3027804D01*
X4614419Y3034419D01*
X4607804Y3038840D01*
X4600000Y3040392D01*
X4592196Y3038840D01*
X4585581Y3034419D01*
X4581160Y3027804D01*
X4579608Y3020000D01*
X4581160Y3012196D01*
X4585581Y3005581D01*
X4588768Y3003451D01*
X4588370Y2998386D01*
X4578484Y2923294D01*
X4564681Y2848823D01*
X4547000Y2775176D01*
X4525489Y2702555D01*
X4500207Y2631160D01*
X4471222Y2561185D01*
X4438615Y2492823D01*
X4402475Y2426262D01*
X4362901Y2361683D01*
X4320002Y2299264D01*
X4273895Y2239176D01*
X4224705Y2181583D01*
X4172570Y2126643D01*
X4117630Y2074507D01*
X4060037Y2025318D01*
X3999948Y1979211D01*
X3939530Y1937686D01*
X3937804Y1938840D01*
X3930000Y1940392D01*
X3922196Y1938840D01*
X3915581Y1934419D01*
X3911160Y1927804D01*
X3909608Y1920000D01*
X3909750Y1919288D01*
X3872951Y1896737D01*
X3806389Y1860597D01*
X3738028Y1827991D01*
X3668053Y1799006D01*
X3596658Y1773724D01*
X3524037Y1752212D01*
X3450390Y1734531D01*
X3375918Y1720729D01*
X3300826Y1710843D01*
X3225320Y1704900D01*
X3149606Y1702918D01*
X3073892Y1704900D01*
X3012554Y1709728D01*
X3009419Y1714419D01*
X3002804Y1718840D01*
X2995000Y1720392D01*
X2987196Y1718840D01*
X2980581Y1714419D01*
X2979824Y1713287D01*
X2923294Y1720729D01*
X2848823Y1734531D01*
X2775176Y1752212D01*
X2702555Y1773724D01*
X2631160Y1799006D01*
X2561185Y1827991D01*
X2492823Y1860597D01*
X2489964Y1862150D01*
X2488840Y1867804D01*
X2484419Y1874419D01*
X2477804Y1878840D01*
X2470000Y1880392D01*
X2462196Y1878840D01*
X2460864Y1877950D01*
X2426262Y1896737D01*
X2361683Y1936311D01*
X2299264Y1979211D01*
X2239176Y2025318D01*
X2181583Y2074507D01*
X2126643Y2126643D01*
X2078696Y2177169D01*
X2078714Y2177196D01*
X2080267Y2185000D01*
X2078714Y2192804D01*
X2074294Y2199419D01*
X2067678Y2203840D01*
X2059875Y2205392D01*
X2055000Y2204422D01*
X2025318Y2239176D01*
X1979211Y2299264D01*
X1936311Y2361683D01*
X1896737Y2426262D01*
X1860597Y2492823D01*
X1827991Y2561185D01*
X1799006Y2631160D01*
X1773724Y2702555D01*
X1752212Y2775176D01*
X1734531Y2848823D01*
X1720729Y2923294D01*
X1710843Y2998386D01*
X1704900Y3073892D01*
X1702918Y3149606D01*
X1704900Y3225320D01*
X1710843Y3300826D01*
X1713589Y3321685D01*
X1719419Y3325581D01*
X1723840Y3332196D01*
X1725392Y3340000D01*
X1723840Y3347804D01*
X1719419Y3354419D01*
X1718021Y3355353D01*
X1720729Y3375918D01*
X1734531Y3450390D01*
X1752212Y3524037D01*
X1773724Y3596658D01*
X1799006Y3668053D01*
X1827991Y3738028D01*
X1860597Y3806389D01*
X1896737Y3872951D01*
X1936311Y3937529D01*
X1979211Y3999948D01*
X2025318Y4060037D01*
X2074507Y4117630D01*
X2126643Y4172570D01*
X2181583Y4224705D01*
X2239176Y4273895D01*
X2261919Y4291346D01*
X2262196Y4291160D01*
X2270000Y4289608D01*
X2277804Y4291160D01*
X2284419Y4295581D01*
X2288840Y4302196D01*
X2290392Y4310000D01*
X2289841Y4312771D01*
X2299264Y4320002D01*
X2361683Y4362901D01*
X2426262Y4402475D01*
X2492823Y4438615D01*
X2561185Y4471222D01*
X2631160Y4500207D01*
X2702555Y4525489D01*
X2775176Y4547000D01*
X2848823Y4564681D01*
X2923294Y4578484D01*
X2998386Y4588370D01*
X3073892Y4594312D01*
X3149606Y4596295D01*
X3225320Y4594312D01*
X3300826Y4588370D01*
X3356975Y4580978D01*
X3360581Y4575581D01*
X3367196Y4571160D01*
X3375000Y4569608D01*
X3382804Y4571160D01*
X3389419Y4575581D01*
X3389657Y4575937D01*
X3450390Y4564681D01*
X3524037Y4547000D01*
X3596658Y4525489D01*
X3668053Y4500207D01*
X3738028Y4471222D01*
X3806389Y4438615D01*
X3872951Y4402475D01*
X3879849Y4398248D01*
X3881160Y4391653D01*
X3885581Y4385037D01*
X3892196Y4380617D01*
X3900000Y4379065D01*
X3907804Y4380617D01*
X3914419Y4385037D01*
X3918840Y4391653D01*
X3920392Y4399457D01*
X3918840Y4407260D01*
X3916794Y4410321D01*
X3920364Y4413979D01*
X3972411Y4381020D01*
X4031842Y4339164D01*
X4089148Y4294442D01*
X4144191Y4246962D01*
X4196838Y4196838D01*
X4246962Y4144191D01*
X4270141Y4117319D01*
X4271160Y4112196D01*
X4275581Y4105581D01*
X4282196Y4101160D01*
X4290000Y4099608D01*
X4297804Y4101160D01*
X4304419Y4105581D01*
X4308840Y4112196D01*
X4310392Y4120000D01*
X4308840Y4127804D01*
X4304419Y4134419D01*
X4297804Y4138840D01*
X4290626Y4140267D01*
X4269567Y4164680D01*
X4218411Y4218411D01*
X4164680Y4269567D01*
X4108503Y4318026D01*
X4050017Y4363669D01*
X3989361Y4406388D01*
X3926682Y4446079D01*
X3862131Y4482646D01*
X3795864Y4516003D01*
X3794094Y4516787D01*
X3793840Y4518065D01*
X3789419Y4524681D01*
X3782804Y4529101D01*
X3775000Y4530653D01*
X3767196Y4529101D01*
X3766845Y4528866D01*
X3728039Y4546067D01*
X3658821Y4572767D01*
X3588377Y4596039D01*
X3516875Y4615826D01*
X3444489Y4632081D01*
X3371392Y4644765D01*
X3361433Y4645993D01*
X3359144Y4649419D01*
X3352528Y4653840D01*
X3344724Y4655392D01*
X3336921Y4653840D01*
X3330827Y4649768D01*
X3297761Y4653846D01*
X3223773Y4659304D01*
X3149606Y4661124D01*
D02*
G37*
G36*
X4355000Y4071946D02*
Y4055000D01*
X4371946D01*
X4371194Y4058779D01*
X4366222Y4066222D01*
X4358779Y4071195D01*
X4355000Y4071946D01*
D02*
G37*
G36*
X4345000D02*
X4341221Y4071195D01*
X4333778Y4066222D01*
X4328806Y4058779D01*
X4328054Y4055000D01*
X4345000D01*
Y4071946D01*
D02*
G37*
G36*
X3755000D02*
Y4055000D01*
X3771946D01*
X3771195Y4058779D01*
X3766222Y4066222D01*
X3758779Y4071195D01*
X3755000Y4071946D01*
D02*
G37*
G36*
X3745000D02*
X3741221Y4071195D01*
X3733778Y4066222D01*
X3728805Y4058779D01*
X3728054Y4055000D01*
X3745000D01*
Y4071946D01*
D02*
G37*
G36*
X3605000D02*
Y4055000D01*
X3621946D01*
X3621195Y4058779D01*
X3616222Y4066222D01*
X3608779Y4071195D01*
X3605000Y4071946D01*
D02*
G37*
G36*
X3595000D02*
X3591221Y4071195D01*
X3583778Y4066222D01*
X3578805Y4058779D01*
X3578054Y4055000D01*
X3595000D01*
Y4071946D01*
D02*
G37*
G36*
X3455000D02*
Y4055000D01*
X3471946D01*
X3471195Y4058779D01*
X3466222Y4066222D01*
X3458779Y4071195D01*
X3455000Y4071946D01*
D02*
G37*
G36*
X3445000D02*
X3441221Y4071195D01*
X3433778Y4066222D01*
X3428805Y4058779D01*
X3428054Y4055000D01*
X3445000D01*
Y4071946D01*
D02*
G37*
G36*
X2555000D02*
Y4055000D01*
X2571946D01*
X2571195Y4058779D01*
X2566222Y4066222D01*
X2558779Y4071195D01*
X2555000Y4071946D01*
D02*
G37*
G36*
X2545000D02*
X2541221Y4071195D01*
X2533778Y4066222D01*
X2528805Y4058779D01*
X2528054Y4055000D01*
X2545000D01*
Y4071946D01*
D02*
G37*
G36*
X2405000D02*
Y4055000D01*
X2421946D01*
X2421195Y4058779D01*
X2416222Y4066222D01*
X2408779Y4071195D01*
X2405000Y4071946D01*
D02*
G37*
G36*
X2395000D02*
X2391221Y4071195D01*
X2383778Y4066222D01*
X2378805Y4058779D01*
X2378054Y4055000D01*
X2395000D01*
Y4071946D01*
D02*
G37*
G36*
X3130197Y4080590D02*
X3108464D01*
Y4050000D01*
X3130197D01*
Y4080590D01*
D02*
G37*
G36*
X3098464D02*
X3076732D01*
Y4050000D01*
X3098464D01*
Y4080590D01*
D02*
G37*
G36*
X4371946Y4045000D02*
X4355000D01*
Y4028054D01*
X4358779Y4028805D01*
X4366222Y4033778D01*
X4371194Y4041221D01*
X4371946Y4045000D01*
D02*
G37*
G36*
X4345000D02*
X4328054D01*
X4328806Y4041221D01*
X4333778Y4033778D01*
X4341221Y4028805D01*
X4345000Y4028054D01*
Y4045000D01*
D02*
G37*
G36*
X3771946D02*
X3755000D01*
Y4028054D01*
X3758779Y4028805D01*
X3766222Y4033778D01*
X3771195Y4041221D01*
X3771946Y4045000D01*
D02*
G37*
G36*
X3745000D02*
X3728054D01*
X3728805Y4041221D01*
X3733778Y4033778D01*
X3741221Y4028805D01*
X3745000Y4028054D01*
Y4045000D01*
D02*
G37*
G36*
X3621946D02*
X3605000D01*
Y4028054D01*
X3608779Y4028805D01*
X3616222Y4033778D01*
X3621195Y4041221D01*
X3621946Y4045000D01*
D02*
G37*
G36*
X3595000D02*
X3578054D01*
X3578805Y4041221D01*
X3583778Y4033778D01*
X3591221Y4028805D01*
X3595000Y4028054D01*
Y4045000D01*
D02*
G37*
G36*
X3471946D02*
X3455000D01*
Y4028054D01*
X3458779Y4028805D01*
X3466222Y4033778D01*
X3471195Y4041221D01*
X3471946Y4045000D01*
D02*
G37*
G36*
X3445000D02*
X3428054D01*
X3428805Y4041221D01*
X3433778Y4033778D01*
X3441221Y4028805D01*
X3445000Y4028054D01*
Y4045000D01*
D02*
G37*
G36*
X2571946D02*
X2555000D01*
Y4028054D01*
X2558779Y4028805D01*
X2566222Y4033778D01*
X2571195Y4041221D01*
X2571946Y4045000D01*
D02*
G37*
G36*
X2545000D02*
X2528054D01*
X2528805Y4041221D01*
X2533778Y4033778D01*
X2541221Y4028805D01*
X2545000Y4028054D01*
Y4045000D01*
D02*
G37*
G36*
X2421946D02*
X2405000D01*
Y4028054D01*
X2408779Y4028805D01*
X2416222Y4033778D01*
X2421195Y4041221D01*
X2421946Y4045000D01*
D02*
G37*
G36*
X2395000D02*
X2378054D01*
X2378805Y4041221D01*
X2383778Y4033778D01*
X2391221Y4028805D01*
X2395000Y4028054D01*
Y4045000D01*
D02*
G37*
G36*
X3130197Y4040000D02*
X3108464D01*
Y4009410D01*
X3130197D01*
Y4040000D01*
D02*
G37*
G36*
X3098464D02*
X3076732D01*
Y4009410D01*
X3098464D01*
Y4040000D01*
D02*
G37*
G36*
X3149606Y4460968D02*
X3141774Y4459937D01*
X3134477Y4456914D01*
X3128210Y4452105D01*
X3123401Y4445838D01*
X3120378Y4438541D01*
X3119347Y4430709D01*
X3120378Y4422877D01*
X3123401Y4415580D01*
X3128210Y4409313D01*
X3133649Y4405139D01*
X3135128Y4399547D01*
X3092790Y4357210D01*
X3090580Y4353902D01*
X3089804Y4350000D01*
Y4224223D01*
X3017790Y4152210D01*
X3015580Y4148902D01*
X3014804Y4145000D01*
Y4075590D01*
X3014803D01*
Y4014410D01*
X3014804D01*
Y3949223D01*
X2997824Y3932243D01*
X2912241D01*
X2909419Y3936466D01*
X2902804Y3940887D01*
X2895000Y3942439D01*
X2887196Y3940887D01*
X2880581Y3936466D01*
X2880294Y3936037D01*
X2875294Y3937554D01*
Y4234768D01*
X2941980Y4301454D01*
X2949606Y4300450D01*
X2957438Y4301481D01*
X2964735Y4304504D01*
X2971002Y4309313D01*
X2972186Y4310855D01*
X2977186Y4309158D01*
Y4250591D01*
X2975157D01*
Y4189409D01*
X2977186D01*
Y3990316D01*
X2962066Y3975196D01*
X2927241D01*
X2924419Y3979419D01*
X2917804Y3983840D01*
X2910000Y3985392D01*
X2902196Y3983840D01*
X2895581Y3979419D01*
X2891160Y3972804D01*
X2889608Y3965000D01*
X2891160Y3957196D01*
X2895581Y3950581D01*
X2902196Y3946160D01*
X2910000Y3944608D01*
X2917804Y3946160D01*
X2924419Y3950581D01*
X2927241Y3954804D01*
X2966289D01*
X2970191Y3955580D01*
X2973499Y3957790D01*
X2994591Y3978883D01*
X2996802Y3982191D01*
X2997578Y3986093D01*
Y4189409D01*
X3018622D01*
Y4250591D01*
X2997578D01*
Y4331111D01*
X3056816Y4390349D01*
X3059026Y4393657D01*
X3059802Y4397559D01*
Y4402460D01*
X3064735Y4404504D01*
X3071002Y4409313D01*
X3075811Y4415580D01*
X3078834Y4422877D01*
X3079865Y4430709D01*
X3078834Y4438541D01*
X3075811Y4445838D01*
X3071002Y4452105D01*
X3064735Y4456914D01*
X3057438Y4459937D01*
X3049606Y4460968D01*
X3041774Y4459937D01*
X3034477Y4456914D01*
X3028210Y4452105D01*
X3023401Y4445838D01*
X3020378Y4438541D01*
X3019347Y4430709D01*
X3020378Y4422877D01*
X3023401Y4415580D01*
X3028210Y4409313D01*
X3034477Y4404504D01*
X3034890Y4404333D01*
X3036063Y4398435D01*
X2981880Y4344252D01*
X2976174Y4344962D01*
X2975811Y4345838D01*
X2971002Y4352105D01*
X2964735Y4356914D01*
X2957438Y4359937D01*
X2949606Y4360968D01*
X2941774Y4359937D01*
X2934477Y4356914D01*
X2928210Y4352105D01*
X2923401Y4345838D01*
X2920378Y4338541D01*
X2919347Y4330709D01*
X2920351Y4323083D01*
X2849186Y4251917D01*
X2845870Y4246956D01*
X2844706Y4241103D01*
Y3613110D01*
X2841160Y3607804D01*
X2839608Y3600000D01*
X2841160Y3592196D01*
X2845581Y3585581D01*
X2852196Y3581160D01*
X2860000Y3579608D01*
X2867804Y3581160D01*
X2874419Y3585581D01*
X2878840Y3592196D01*
X2880392Y3600000D01*
X2878840Y3607804D01*
X2875294Y3613110D01*
Y3906541D01*
X2880294Y3908057D01*
X2880581Y3907628D01*
X2887196Y3903208D01*
X2895000Y3901655D01*
X2902804Y3903208D01*
X2909419Y3907628D01*
X2912241Y3911851D01*
X3002047D01*
X3005949Y3912627D01*
X3009257Y3914838D01*
X3032210Y3937790D01*
X3034420Y3941098D01*
X3035196Y3945000D01*
Y3955890D01*
X3040196Y3956218D01*
X3040901Y3950863D01*
X3044428Y3942349D01*
X3050038Y3935038D01*
X3057349Y3929428D01*
X3065863Y3925901D01*
X3072462Y3925032D01*
X3072542Y3925021D01*
Y3919979D01*
X3072462Y3919968D01*
X3065863Y3919099D01*
X3057349Y3915572D01*
X3050038Y3909962D01*
X3044428Y3902651D01*
X3040901Y3894137D01*
X3040356Y3890000D01*
X3109644D01*
X3109099Y3894137D01*
X3105572Y3902651D01*
X3099962Y3909962D01*
X3092651Y3915572D01*
X3084137Y3919099D01*
X3077538Y3919968D01*
X3077458Y3919979D01*
Y3925021D01*
X3077538Y3925032D01*
X3084137Y3925901D01*
X3092651Y3929428D01*
X3099962Y3935038D01*
X3105572Y3942349D01*
X3109099Y3950863D01*
X3109644Y3955000D01*
X3075000D01*
Y3960000D01*
X3070000D01*
Y3994644D01*
X3065863Y3994099D01*
X3057349Y3990572D01*
X3050038Y3984962D01*
X3044428Y3977651D01*
X3040901Y3969137D01*
X3040196Y3963782D01*
X3035196Y3964110D01*
Y4014410D01*
X3058268D01*
Y4075590D01*
X3035196D01*
Y4140777D01*
X3107210Y4212790D01*
X3109420Y4216098D01*
X3110196Y4220000D01*
Y4345777D01*
X3156816Y4392396D01*
X3159026Y4395704D01*
X3159802Y4399606D01*
Y4402460D01*
X3164735Y4404504D01*
X3171002Y4409313D01*
X3175811Y4415580D01*
X3178834Y4422877D01*
X3179865Y4430709D01*
X3178834Y4438541D01*
X3175811Y4445838D01*
X3171002Y4452105D01*
X3164735Y4456914D01*
X3157438Y4459937D01*
X3149606Y4460968D01*
D02*
G37*
G36*
X3080000Y3994644D02*
Y3965000D01*
X3109644D01*
X3109099Y3969137D01*
X3105572Y3977651D01*
X3099962Y3984962D01*
X3092651Y3990572D01*
X3084137Y3994099D01*
X3080000Y3994644D01*
D02*
G37*
G36*
X4430000Y3921946D02*
Y3905000D01*
X4446946D01*
X4446194Y3908779D01*
X4441222Y3916222D01*
X4433779Y3921195D01*
X4430000Y3921946D01*
D02*
G37*
G36*
X4420000D02*
X4416221Y3921195D01*
X4408778Y3916222D01*
X4403806Y3908779D01*
X4403054Y3905000D01*
X4420000D01*
Y3921946D01*
D02*
G37*
G36*
X4130000D02*
Y3905000D01*
X4146946D01*
X4146194Y3908779D01*
X4141222Y3916222D01*
X4133779Y3921195D01*
X4130000Y3921946D01*
D02*
G37*
G36*
X4120000D02*
X4116221Y3921195D01*
X4108778Y3916222D01*
X4103806Y3908779D01*
X4103054Y3905000D01*
X4120000D01*
Y3921946D01*
D02*
G37*
G36*
X3980000D02*
Y3905000D01*
X3996946D01*
X3996195Y3908779D01*
X3991222Y3916222D01*
X3983779Y3921195D01*
X3980000Y3921946D01*
D02*
G37*
G36*
X3970000D02*
X3966221Y3921195D01*
X3958778Y3916222D01*
X3953805Y3908779D01*
X3953054Y3905000D01*
X3970000D01*
Y3921946D01*
D02*
G37*
G36*
X3680000D02*
Y3905000D01*
X3696946D01*
X3696195Y3908779D01*
X3691222Y3916222D01*
X3683779Y3921195D01*
X3680000Y3921946D01*
D02*
G37*
G36*
X3670000D02*
X3666221Y3921195D01*
X3658778Y3916222D01*
X3653805Y3908779D01*
X3653054Y3905000D01*
X3670000D01*
Y3921946D01*
D02*
G37*
G36*
X3530000D02*
Y3905000D01*
X3546946D01*
X3546195Y3908779D01*
X3541222Y3916222D01*
X3533779Y3921195D01*
X3530000Y3921946D01*
D02*
G37*
G36*
X3520000D02*
X3516221Y3921195D01*
X3508778Y3916222D01*
X3503805Y3908779D01*
X3503054Y3905000D01*
X3520000D01*
Y3921946D01*
D02*
G37*
G36*
X2480000D02*
Y3905000D01*
X2496946D01*
X2496195Y3908779D01*
X2491222Y3916222D01*
X2483779Y3921195D01*
X2480000Y3921946D01*
D02*
G37*
G36*
X2470000D02*
X2466221Y3921195D01*
X2458778Y3916222D01*
X2453805Y3908779D01*
X2453054Y3905000D01*
X2470000D01*
Y3921946D01*
D02*
G37*
G36*
X2330000D02*
Y3905000D01*
X2346946D01*
X2346195Y3908779D01*
X2341222Y3916222D01*
X2333779Y3921195D01*
X2330000Y3921946D01*
D02*
G37*
G36*
X2320000D02*
X2316221Y3921195D01*
X2308778Y3916222D01*
X2303805Y3908779D01*
X2303054Y3905000D01*
X2320000D01*
Y3921946D01*
D02*
G37*
G36*
X2180000D02*
Y3905000D01*
X2196946D01*
X2196195Y3908779D01*
X2191222Y3916222D01*
X2183779Y3921195D01*
X2180000Y3921946D01*
D02*
G37*
G36*
X2170000D02*
X2166221Y3921195D01*
X2158778Y3916222D01*
X2153805Y3908779D01*
X2153054Y3905000D01*
X2170000D01*
Y3921946D01*
D02*
G37*
G36*
X4446946Y3895000D02*
X4430000D01*
Y3878054D01*
X4433779Y3878805D01*
X4441222Y3883778D01*
X4446194Y3891221D01*
X4446946Y3895000D01*
D02*
G37*
G36*
X4420000D02*
X4403054D01*
X4403806Y3891221D01*
X4408778Y3883778D01*
X4416221Y3878805D01*
X4420000Y3878054D01*
Y3895000D01*
D02*
G37*
G36*
X4270000D02*
X4253054D01*
X4253806Y3891221D01*
X4258778Y3883778D01*
X4266221Y3878805D01*
X4270000Y3878054D01*
Y3895000D01*
D02*
G37*
G36*
X4146946D02*
X4130000D01*
Y3878054D01*
X4133779Y3878805D01*
X4141222Y3883778D01*
X4146194Y3891221D01*
X4146946Y3895000D01*
D02*
G37*
G36*
X4120000D02*
X4103054D01*
X4103806Y3891221D01*
X4108778Y3883778D01*
X4116221Y3878805D01*
X4120000Y3878054D01*
Y3895000D01*
D02*
G37*
G36*
X3996946D02*
X3980000D01*
Y3878054D01*
X3983779Y3878805D01*
X3991222Y3883778D01*
X3996195Y3891221D01*
X3996946Y3895000D01*
D02*
G37*
G36*
X3970000D02*
X3953054D01*
X3953805Y3891221D01*
X3958778Y3883778D01*
X3966221Y3878805D01*
X3970000Y3878054D01*
Y3895000D01*
D02*
G37*
G36*
X3696946D02*
X3680000D01*
Y3878054D01*
X3683779Y3878805D01*
X3691222Y3883778D01*
X3696195Y3891221D01*
X3696946Y3895000D01*
D02*
G37*
G36*
X3670000D02*
X3653054D01*
X3653805Y3891221D01*
X3658778Y3883778D01*
X3666221Y3878805D01*
X3670000Y3878054D01*
Y3895000D01*
D02*
G37*
G36*
X3546946D02*
X3530000D01*
Y3878054D01*
X3533779Y3878805D01*
X3541222Y3883778D01*
X3546195Y3891221D01*
X3546946Y3895000D01*
D02*
G37*
G36*
X3520000D02*
X3503054D01*
X3503805Y3891221D01*
X3508778Y3883778D01*
X3516221Y3878805D01*
X3520000Y3878054D01*
Y3895000D01*
D02*
G37*
G36*
X2496946D02*
X2480000D01*
Y3878054D01*
X2483779Y3878805D01*
X2491222Y3883778D01*
X2496195Y3891221D01*
X2496946Y3895000D01*
D02*
G37*
G36*
X2470000D02*
X2453054D01*
X2453805Y3891221D01*
X2458778Y3883778D01*
X2466221Y3878805D01*
X2470000Y3878054D01*
Y3895000D01*
D02*
G37*
G36*
X2346946D02*
X2330000D01*
Y3878054D01*
X2333779Y3878805D01*
X2341222Y3883778D01*
X2346195Y3891221D01*
X2346946Y3895000D01*
D02*
G37*
G36*
X2320000D02*
X2303054D01*
X2303805Y3891221D01*
X2308778Y3883778D01*
X2316221Y3878805D01*
X2320000Y3878054D01*
Y3895000D01*
D02*
G37*
G36*
X2196946D02*
X2180000D01*
Y3878054D01*
X2183779Y3878805D01*
X2191222Y3883778D01*
X2196195Y3891221D01*
X2196946Y3895000D01*
D02*
G37*
G36*
X2170000D02*
X2153054D01*
X2153805Y3891221D01*
X2158778Y3883778D01*
X2166221Y3878805D01*
X2170000Y3878054D01*
Y3895000D01*
D02*
G37*
G36*
X2046946D02*
X2030000D01*
Y3878054D01*
X2033779Y3878805D01*
X2041222Y3883778D01*
X2046195Y3891221D01*
X2046946Y3895000D01*
D02*
G37*
G36*
X2605000Y3875392D02*
X2597196Y3873840D01*
X2590581Y3869419D01*
X2586160Y3862804D01*
X2584608Y3855000D01*
X2585599Y3850018D01*
X2547790Y3812210D01*
X2545580Y3808902D01*
X2544804Y3805000D01*
Y3717241D01*
X2540581Y3714419D01*
X2536160Y3707804D01*
X2534608Y3700000D01*
X2536160Y3692196D01*
X2540581Y3685581D01*
X2547196Y3681160D01*
X2555000Y3679608D01*
X2562804Y3681160D01*
X2569419Y3685581D01*
X2573840Y3692196D01*
X2575392Y3700000D01*
X2573840Y3707804D01*
X2569419Y3714419D01*
X2565196Y3717241D01*
Y3800777D01*
X2600018Y3835599D01*
X2605000Y3834608D01*
X2612804Y3836160D01*
X2619419Y3840581D01*
X2623840Y3847196D01*
X2625392Y3855000D01*
X2623840Y3862804D01*
X2619419Y3869419D01*
X2612804Y3873840D01*
X2605000Y3875392D01*
D02*
G37*
G36*
X3109644Y3880000D02*
X3040356D01*
X3040901Y3875863D01*
X3044428Y3867349D01*
X3050038Y3860038D01*
X3057349Y3854428D01*
X3065863Y3850901D01*
X3072462Y3850032D01*
X3072542Y3850021D01*
Y3844979D01*
X3072462Y3844968D01*
X3065863Y3844099D01*
X3057349Y3840572D01*
X3050038Y3834962D01*
X3044428Y3827651D01*
X3040901Y3819137D01*
X3040356Y3815000D01*
X3109644D01*
X3109099Y3819137D01*
X3105572Y3827651D01*
X3099962Y3834962D01*
X3092651Y3840572D01*
X3084137Y3844099D01*
X3077538Y3844968D01*
X3077458Y3844979D01*
Y3850021D01*
X3077538Y3850032D01*
X3084137Y3850901D01*
X3092651Y3854428D01*
X3099962Y3860038D01*
X3105572Y3867349D01*
X3109099Y3875863D01*
X3109644Y3880000D01*
D02*
G37*
G36*
Y3805000D02*
X3080000D01*
Y3775356D01*
X3084137Y3775901D01*
X3092651Y3779428D01*
X3099962Y3785038D01*
X3105572Y3792349D01*
X3109099Y3800863D01*
X3109644Y3805000D01*
D02*
G37*
G36*
X3070000D02*
X3040356D01*
X3040901Y3800863D01*
X3044428Y3792349D01*
X3050038Y3785038D01*
X3057349Y3779428D01*
X3065863Y3775901D01*
X3070000Y3775356D01*
Y3805000D01*
D02*
G37*
G36*
X4505000Y3771946D02*
Y3755000D01*
X4521946D01*
X4521194Y3758779D01*
X4516222Y3766222D01*
X4508779Y3771195D01*
X4505000Y3771946D01*
D02*
G37*
G36*
X4495000D02*
X4491221Y3771195D01*
X4483778Y3766222D01*
X4478806Y3758779D01*
X4478054Y3755000D01*
X4495000D01*
Y3771946D01*
D02*
G37*
G36*
X4345000D02*
X4341221Y3771195D01*
X4333778Y3766222D01*
X4328806Y3758779D01*
X4328054Y3755000D01*
X4345000D01*
Y3771946D01*
D02*
G37*
G36*
X4205000D02*
Y3755000D01*
X4221946D01*
X4221194Y3758779D01*
X4216222Y3766222D01*
X4208779Y3771195D01*
X4205000Y3771946D01*
D02*
G37*
G36*
X4195000D02*
X4191221Y3771195D01*
X4183778Y3766222D01*
X4178806Y3758779D01*
X4178054Y3755000D01*
X4195000D01*
Y3771946D01*
D02*
G37*
G36*
X4055000D02*
Y3755000D01*
X4071946D01*
X4071195Y3758779D01*
X4066222Y3766222D01*
X4058779Y3771195D01*
X4055000Y3771946D01*
D02*
G37*
G36*
X4045000D02*
X4041221Y3771195D01*
X4033778Y3766222D01*
X4028805Y3758779D01*
X4028054Y3755000D01*
X4045000D01*
Y3771946D01*
D02*
G37*
G36*
X3905000D02*
Y3755000D01*
X3921946D01*
X3921195Y3758779D01*
X3916222Y3766222D01*
X3908779Y3771195D01*
X3905000Y3771946D01*
D02*
G37*
G36*
X3895000D02*
X3891221Y3771195D01*
X3883778Y3766222D01*
X3878805Y3758779D01*
X3878054Y3755000D01*
X3895000D01*
Y3771946D01*
D02*
G37*
G36*
X3755000D02*
Y3755000D01*
X3771946D01*
X3771195Y3758779D01*
X3766222Y3766222D01*
X3758779Y3771195D01*
X3755000Y3771946D01*
D02*
G37*
G36*
X3745000D02*
X3741221Y3771195D01*
X3733778Y3766222D01*
X3728805Y3758779D01*
X3728054Y3755000D01*
X3745000D01*
Y3771946D01*
D02*
G37*
G36*
X2405000D02*
Y3755000D01*
X2421946D01*
X2421195Y3758779D01*
X2416222Y3766222D01*
X2408779Y3771195D01*
X2405000Y3771946D01*
D02*
G37*
G36*
X2395000D02*
X2391221Y3771195D01*
X2383778Y3766222D01*
X2378805Y3758779D01*
X2378054Y3755000D01*
X2395000D01*
Y3771946D01*
D02*
G37*
G36*
X2255000D02*
Y3755000D01*
X2271946D01*
X2271195Y3758779D01*
X2266222Y3766222D01*
X2258779Y3771195D01*
X2255000Y3771946D01*
D02*
G37*
G36*
X2245000D02*
X2241221Y3771195D01*
X2233778Y3766222D01*
X2228805Y3758779D01*
X2228054Y3755000D01*
X2245000D01*
Y3771946D01*
D02*
G37*
G36*
X2105000D02*
Y3755000D01*
X2121946D01*
X2121195Y3758779D01*
X2116222Y3766222D01*
X2108779Y3771195D01*
X2105000Y3771946D01*
D02*
G37*
G36*
X2095000D02*
X2091221Y3771195D01*
X2083778Y3766222D01*
X2078805Y3758779D01*
X2078054Y3755000D01*
X2095000D01*
Y3771946D01*
D02*
G37*
G36*
X1955000D02*
Y3755000D01*
X1971946D01*
X1971195Y3758779D01*
X1966222Y3766222D01*
X1958779Y3771195D01*
X1955000Y3771946D01*
D02*
G37*
G36*
X2421946Y3745000D02*
X2405000D01*
Y3728054D01*
X2408779Y3728805D01*
X2416222Y3733778D01*
X2421195Y3741221D01*
X2421946Y3745000D01*
D02*
G37*
G36*
X2395000D02*
X2378054D01*
X2378805Y3741221D01*
X2383778Y3733778D01*
X2391221Y3728805D01*
X2395000Y3728054D01*
Y3745000D01*
D02*
G37*
G36*
X2271946D02*
X2255000D01*
Y3728054D01*
X2258779Y3728805D01*
X2266222Y3733778D01*
X2271195Y3741221D01*
X2271946Y3745000D01*
D02*
G37*
G36*
X2245000D02*
X2228054D01*
X2228805Y3741221D01*
X2233778Y3733778D01*
X2241221Y3728805D01*
X2245000Y3728054D01*
Y3745000D01*
D02*
G37*
G36*
X2121946D02*
X2105000D01*
Y3728054D01*
X2108779Y3728805D01*
X2116222Y3733778D01*
X2121195Y3741221D01*
X2121946Y3745000D01*
D02*
G37*
G36*
X2095000D02*
X2078054D01*
X2078805Y3741221D01*
X2083778Y3733778D01*
X2091221Y3728805D01*
X2095000Y3728054D01*
Y3745000D01*
D02*
G37*
G36*
X1971946D02*
X1955000D01*
Y3728054D01*
X1958779Y3728805D01*
X1966222Y3733778D01*
X1971195Y3741221D01*
X1971946Y3745000D01*
D02*
G37*
G36*
X4521946D02*
X4505000D01*
Y3728054D01*
X4508779Y3728805D01*
X4516222Y3733778D01*
X4521194Y3741221D01*
X4521946Y3745000D01*
D02*
G37*
G36*
X4495000D02*
X4478054D01*
X4478806Y3741221D01*
X4483778Y3733778D01*
X4491221Y3728805D01*
X4495000Y3728054D01*
Y3745000D01*
D02*
G37*
G36*
X4345000D02*
X4328054D01*
X4328806Y3741221D01*
X4333778Y3733778D01*
X4341221Y3728805D01*
X4345000Y3728054D01*
Y3745000D01*
D02*
G37*
G36*
X4221946D02*
X4205000D01*
Y3728054D01*
X4208779Y3728805D01*
X4216222Y3733778D01*
X4221194Y3741221D01*
X4221946Y3745000D01*
D02*
G37*
G36*
X4195000D02*
X4178054D01*
X4178806Y3741221D01*
X4183778Y3733778D01*
X4191221Y3728805D01*
X4195000Y3728054D01*
Y3745000D01*
D02*
G37*
G36*
X4071946D02*
X4055000D01*
Y3728054D01*
X4058779Y3728805D01*
X4066222Y3733778D01*
X4071195Y3741221D01*
X4071946Y3745000D01*
D02*
G37*
G36*
X4045000D02*
X4028054D01*
X4028805Y3741221D01*
X4033778Y3733778D01*
X4041221Y3728805D01*
X4045000Y3728054D01*
Y3745000D01*
D02*
G37*
G36*
X3921946D02*
X3905000D01*
Y3728054D01*
X3908779Y3728805D01*
X3916222Y3733778D01*
X3921195Y3741221D01*
X3921946Y3745000D01*
D02*
G37*
G36*
X3895000D02*
X3878054D01*
X3878805Y3741221D01*
X3883778Y3733778D01*
X3891221Y3728805D01*
X3895000Y3728054D01*
Y3745000D01*
D02*
G37*
G36*
X3771946D02*
X3755000D01*
Y3728054D01*
X3758779Y3728805D01*
X3766222Y3733778D01*
X3771195Y3741221D01*
X3771946Y3745000D01*
D02*
G37*
G36*
X3745000D02*
X3728054D01*
X3728805Y3741221D01*
X3733778Y3733778D01*
X3741221Y3728805D01*
X3745000Y3728054D01*
Y3745000D01*
D02*
G37*
G36*
X4580000Y3621946D02*
Y3605000D01*
X4596946D01*
X4596194Y3608779D01*
X4591222Y3616222D01*
X4583779Y3621195D01*
X4580000Y3621946D01*
D02*
G37*
G36*
X4570000D02*
X4566221Y3621195D01*
X4558778Y3616222D01*
X4553806Y3608779D01*
X4553054Y3605000D01*
X4570000D01*
Y3621946D01*
D02*
G37*
G36*
X4420000D02*
X4416221Y3621195D01*
X4408778Y3616222D01*
X4403806Y3608779D01*
X4403054Y3605000D01*
X4420000D01*
Y3621946D01*
D02*
G37*
G36*
X4280000D02*
Y3605000D01*
X4296946D01*
X4296194Y3608779D01*
X4291222Y3616222D01*
X4283779Y3621195D01*
X4280000Y3621946D01*
D02*
G37*
G36*
X4270000D02*
X4266221Y3621195D01*
X4258778Y3616222D01*
X4253806Y3608779D01*
X4253054Y3605000D01*
X4270000D01*
Y3621946D01*
D02*
G37*
G36*
X3830000D02*
Y3605000D01*
X3846946D01*
X3846195Y3608779D01*
X3841222Y3616222D01*
X3833779Y3621195D01*
X3830000Y3621946D01*
D02*
G37*
G36*
X3820000D02*
X3816221Y3621195D01*
X3808778Y3616222D01*
X3803805Y3608779D01*
X3803054Y3605000D01*
X3820000D01*
Y3621946D01*
D02*
G37*
G36*
X3680000D02*
Y3605000D01*
X3696946D01*
X3696195Y3608779D01*
X3691222Y3616222D01*
X3683779Y3621195D01*
X3680000Y3621946D01*
D02*
G37*
G36*
X3670000D02*
X3666221Y3621195D01*
X3658778Y3616222D01*
X3653805Y3608779D01*
X3653054Y3605000D01*
X3670000D01*
Y3621946D01*
D02*
G37*
G36*
X3530000D02*
Y3605000D01*
X3546946D01*
X3546195Y3608779D01*
X3541222Y3616222D01*
X3533779Y3621195D01*
X3530000Y3621946D01*
D02*
G37*
G36*
X3520000D02*
X3516221Y3621195D01*
X3508778Y3616222D01*
X3503805Y3608779D01*
X3503054Y3605000D01*
X3520000D01*
Y3621946D01*
D02*
G37*
G36*
X3380000D02*
Y3605000D01*
X3396946D01*
X3396195Y3608779D01*
X3391222Y3616222D01*
X3383779Y3621195D01*
X3380000Y3621946D01*
D02*
G37*
G36*
X3370000D02*
X3366221Y3621195D01*
X3358778Y3616222D01*
X3353805Y3608779D01*
X3353054Y3605000D01*
X3370000D01*
Y3621946D01*
D02*
G37*
G36*
X2930000D02*
Y3605000D01*
X2946946D01*
X2946195Y3608779D01*
X2941222Y3616222D01*
X2933779Y3621195D01*
X2930000Y3621946D01*
D02*
G37*
G36*
X2920000D02*
X2916221Y3621195D01*
X2908778Y3616222D01*
X2903805Y3608779D01*
X2903054Y3605000D01*
X2920000D01*
Y3621946D01*
D02*
G37*
G36*
X2780000D02*
Y3605000D01*
X2796946D01*
X2796195Y3608779D01*
X2791222Y3616222D01*
X2783779Y3621195D01*
X2780000Y3621946D01*
D02*
G37*
G36*
X2770000D02*
X2766221Y3621195D01*
X2758778Y3616222D01*
X2753805Y3608779D01*
X2753054Y3605000D01*
X2770000D01*
Y3621946D01*
D02*
G37*
G36*
X2630000D02*
Y3605000D01*
X2646946D01*
X2646195Y3608779D01*
X2641222Y3616222D01*
X2633779Y3621195D01*
X2630000Y3621946D01*
D02*
G37*
G36*
X2620000D02*
X2616221Y3621195D01*
X2608778Y3616222D01*
X2603805Y3608779D01*
X2603054Y3605000D01*
X2620000D01*
Y3621946D01*
D02*
G37*
G36*
X2480000D02*
Y3605000D01*
X2496946D01*
X2496195Y3608779D01*
X2491222Y3616222D01*
X2483779Y3621195D01*
X2480000Y3621946D01*
D02*
G37*
G36*
X2470000D02*
X2466221Y3621195D01*
X2458778Y3616222D01*
X2453805Y3608779D01*
X2453054Y3605000D01*
X2470000D01*
Y3621946D01*
D02*
G37*
G36*
X2330000D02*
Y3605000D01*
X2346946D01*
X2346195Y3608779D01*
X2341222Y3616222D01*
X2333779Y3621195D01*
X2330000Y3621946D01*
D02*
G37*
G36*
X2320000D02*
X2316221Y3621195D01*
X2308778Y3616222D01*
X2303805Y3608779D01*
X2303054Y3605000D01*
X2320000D01*
Y3621946D01*
D02*
G37*
G36*
X2180000D02*
Y3605000D01*
X2196946D01*
X2196195Y3608779D01*
X2191222Y3616222D01*
X2183779Y3621195D01*
X2180000Y3621946D01*
D02*
G37*
G36*
X2170000D02*
X2166221Y3621195D01*
X2158778Y3616222D01*
X2153805Y3608779D01*
X2153054Y3605000D01*
X2170000D01*
Y3621946D01*
D02*
G37*
G36*
X2030000D02*
Y3605000D01*
X2046946D01*
X2046195Y3608779D01*
X2041222Y3616222D01*
X2033779Y3621195D01*
X2030000Y3621946D01*
D02*
G37*
G36*
X2020000D02*
X2016221Y3621195D01*
X2008778Y3616222D01*
X2003805Y3608779D01*
X2003054Y3605000D01*
X2020000D01*
Y3621946D01*
D02*
G37*
G36*
X1880000D02*
Y3605000D01*
X1896946D01*
X1896195Y3608779D01*
X1891222Y3616222D01*
X1883779Y3621195D01*
X1880000Y3621946D01*
D02*
G37*
G36*
X4596946Y3595000D02*
X4580000D01*
Y3578054D01*
X4583779Y3578805D01*
X4591222Y3583778D01*
X4596194Y3591221D01*
X4596946Y3595000D01*
D02*
G37*
G36*
X4570000D02*
X4553054D01*
X4553806Y3591221D01*
X4558778Y3583778D01*
X4566221Y3578805D01*
X4570000Y3578054D01*
Y3595000D01*
D02*
G37*
G36*
X4420000D02*
X4403054D01*
X4403806Y3591221D01*
X4408778Y3583778D01*
X4416221Y3578805D01*
X4420000Y3578054D01*
Y3595000D01*
D02*
G37*
G36*
X4296946D02*
X4280000D01*
Y3578054D01*
X4283779Y3578805D01*
X4291222Y3583778D01*
X4296194Y3591221D01*
X4296946Y3595000D01*
D02*
G37*
G36*
X4270000D02*
X4253054D01*
X4253806Y3591221D01*
X4258778Y3583778D01*
X4266221Y3578805D01*
X4270000Y3578054D01*
Y3595000D01*
D02*
G37*
G36*
X3846946D02*
X3830000D01*
Y3578054D01*
X3833779Y3578805D01*
X3841222Y3583778D01*
X3846195Y3591221D01*
X3846946Y3595000D01*
D02*
G37*
G36*
X3820000D02*
X3803054D01*
X3803805Y3591221D01*
X3808778Y3583778D01*
X3816221Y3578805D01*
X3820000Y3578054D01*
Y3595000D01*
D02*
G37*
G36*
X3696946D02*
X3680000D01*
Y3578054D01*
X3683779Y3578805D01*
X3691222Y3583778D01*
X3696195Y3591221D01*
X3696946Y3595000D01*
D02*
G37*
G36*
X3670000D02*
X3653054D01*
X3653805Y3591221D01*
X3658778Y3583778D01*
X3666221Y3578805D01*
X3670000Y3578054D01*
Y3595000D01*
D02*
G37*
G36*
X3546946D02*
X3530000D01*
Y3578054D01*
X3533779Y3578805D01*
X3541222Y3583778D01*
X3546195Y3591221D01*
X3546946Y3595000D01*
D02*
G37*
G36*
X3520000D02*
X3503054D01*
X3503805Y3591221D01*
X3508778Y3583778D01*
X3516221Y3578805D01*
X3520000Y3578054D01*
Y3595000D01*
D02*
G37*
G36*
X3396946D02*
X3380000D01*
Y3578054D01*
X3383779Y3578805D01*
X3391222Y3583778D01*
X3396195Y3591221D01*
X3396946Y3595000D01*
D02*
G37*
G36*
X3370000D02*
X3353054D01*
X3353805Y3591221D01*
X3358778Y3583778D01*
X3366221Y3578805D01*
X3370000Y3578054D01*
Y3595000D01*
D02*
G37*
G36*
X2946946D02*
X2930000D01*
Y3578054D01*
X2933779Y3578805D01*
X2941222Y3583778D01*
X2946195Y3591221D01*
X2946946Y3595000D01*
D02*
G37*
G36*
X2920000D02*
X2903054D01*
X2903805Y3591221D01*
X2908778Y3583778D01*
X2916221Y3578805D01*
X2920000Y3578054D01*
Y3595000D01*
D02*
G37*
G36*
X2796946D02*
X2780000D01*
Y3578054D01*
X2783779Y3578805D01*
X2791222Y3583778D01*
X2796195Y3591221D01*
X2796946Y3595000D01*
D02*
G37*
G36*
X2770000D02*
X2753054D01*
X2753805Y3591221D01*
X2758778Y3583778D01*
X2766221Y3578805D01*
X2770000Y3578054D01*
Y3595000D01*
D02*
G37*
G36*
X2646946D02*
X2630000D01*
Y3578054D01*
X2633779Y3578805D01*
X2641222Y3583778D01*
X2646195Y3591221D01*
X2646946Y3595000D01*
D02*
G37*
G36*
X2620000D02*
X2603054D01*
X2603805Y3591221D01*
X2608778Y3583778D01*
X2616221Y3578805D01*
X2620000Y3578054D01*
Y3595000D01*
D02*
G37*
G36*
X2496946D02*
X2480000D01*
Y3578054D01*
X2483779Y3578805D01*
X2491222Y3583778D01*
X2496195Y3591221D01*
X2496946Y3595000D01*
D02*
G37*
G36*
X2470000D02*
X2453054D01*
X2453805Y3591221D01*
X2458778Y3583778D01*
X2466221Y3578805D01*
X2470000Y3578054D01*
Y3595000D01*
D02*
G37*
G36*
X2346946D02*
X2330000D01*
Y3578054D01*
X2333779Y3578805D01*
X2341222Y3583778D01*
X2346195Y3591221D01*
X2346946Y3595000D01*
D02*
G37*
G36*
X2320000D02*
X2303054D01*
X2303805Y3591221D01*
X2308778Y3583778D01*
X2316221Y3578805D01*
X2320000Y3578054D01*
Y3595000D01*
D02*
G37*
G36*
X2196946D02*
X2180000D01*
Y3578054D01*
X2183779Y3578805D01*
X2191222Y3583778D01*
X2196195Y3591221D01*
X2196946Y3595000D01*
D02*
G37*
G36*
X2170000D02*
X2153054D01*
X2153805Y3591221D01*
X2158778Y3583778D01*
X2166221Y3578805D01*
X2170000Y3578054D01*
Y3595000D01*
D02*
G37*
G36*
X2046946D02*
X2030000D01*
Y3578054D01*
X2033779Y3578805D01*
X2041222Y3583778D01*
X2046195Y3591221D01*
X2046946Y3595000D01*
D02*
G37*
G36*
X2020000D02*
X2003054D01*
X2003805Y3591221D01*
X2008778Y3583778D01*
X2016221Y3578805D01*
X2020000Y3578054D01*
Y3595000D01*
D02*
G37*
G36*
X1896946D02*
X1880000D01*
Y3578054D01*
X1883779Y3578805D01*
X1891222Y3583778D01*
X1896195Y3591221D01*
X1896946Y3595000D01*
D02*
G37*
G36*
X4355000Y3471946D02*
Y3455000D01*
X4371946D01*
X4371194Y3458779D01*
X4366222Y3466222D01*
X4358779Y3471195D01*
X4355000Y3471946D01*
D02*
G37*
G36*
X4345000D02*
X4341221Y3471195D01*
X4333778Y3466222D01*
X4328806Y3458779D01*
X4328054Y3455000D01*
X4345000D01*
Y3471946D01*
D02*
G37*
G36*
X3905000D02*
Y3455000D01*
X3921946D01*
X3921195Y3458779D01*
X3916222Y3466222D01*
X3908779Y3471195D01*
X3905000Y3471946D01*
D02*
G37*
G36*
X3895000D02*
X3891221Y3471195D01*
X3883778Y3466222D01*
X3878805Y3458779D01*
X3878054Y3455000D01*
X3895000D01*
Y3471946D01*
D02*
G37*
G36*
X3755000D02*
Y3455000D01*
X3771946D01*
X3771195Y3458779D01*
X3766222Y3466222D01*
X3758779Y3471195D01*
X3755000Y3471946D01*
D02*
G37*
G36*
X3745000D02*
X3741221Y3471195D01*
X3733778Y3466222D01*
X3728805Y3458779D01*
X3728054Y3455000D01*
X3745000D01*
Y3471946D01*
D02*
G37*
G36*
X3605000D02*
Y3455000D01*
X3621946D01*
X3621195Y3458779D01*
X3616222Y3466222D01*
X3608779Y3471195D01*
X3605000Y3471946D01*
D02*
G37*
G36*
X3595000D02*
X3591221Y3471195D01*
X3583778Y3466222D01*
X3578805Y3458779D01*
X3578054Y3455000D01*
X3595000D01*
Y3471946D01*
D02*
G37*
G36*
X3455000D02*
Y3455000D01*
X3471946D01*
X3471195Y3458779D01*
X3466222Y3466222D01*
X3458779Y3471195D01*
X3455000Y3471946D01*
D02*
G37*
G36*
X3445000D02*
X3441221Y3471195D01*
X3433778Y3466222D01*
X3428805Y3458779D01*
X3428054Y3455000D01*
X3445000D01*
Y3471946D01*
D02*
G37*
G36*
X3305000D02*
Y3455000D01*
X3321946D01*
X3321195Y3458779D01*
X3316222Y3466222D01*
X3308779Y3471195D01*
X3305000Y3471946D01*
D02*
G37*
G36*
X3295000D02*
X3291221Y3471195D01*
X3283778Y3466222D01*
X3278805Y3458779D01*
X3278054Y3455000D01*
X3295000D01*
Y3471946D01*
D02*
G37*
G36*
X3155000D02*
Y3455000D01*
X3171946D01*
X3171195Y3458779D01*
X3166222Y3466222D01*
X3158779Y3471195D01*
X3155000Y3471946D01*
D02*
G37*
G36*
X3145000D02*
X3141221Y3471195D01*
X3133778Y3466222D01*
X3128805Y3458779D01*
X3128054Y3455000D01*
X3145000D01*
Y3471946D01*
D02*
G37*
G36*
X3005000D02*
Y3455000D01*
X3021946D01*
X3021195Y3458779D01*
X3016222Y3466222D01*
X3008779Y3471195D01*
X3005000Y3471946D01*
D02*
G37*
G36*
X2995000D02*
X2991221Y3471195D01*
X2983778Y3466222D01*
X2978805Y3458779D01*
X2978054Y3455000D01*
X2995000D01*
Y3471946D01*
D02*
G37*
G36*
X2705000D02*
Y3455000D01*
X2721946D01*
X2721195Y3458779D01*
X2716222Y3466222D01*
X2708779Y3471195D01*
X2705000Y3471946D01*
D02*
G37*
G36*
X2695000D02*
X2691221Y3471195D01*
X2683778Y3466222D01*
X2678805Y3458779D01*
X2678054Y3455000D01*
X2695000D01*
Y3471946D01*
D02*
G37*
G36*
X2405000D02*
Y3455000D01*
X2421946D01*
X2421195Y3458779D01*
X2416222Y3466222D01*
X2408779Y3471195D01*
X2405000Y3471946D01*
D02*
G37*
G36*
X2395000D02*
X2391221Y3471195D01*
X2383778Y3466222D01*
X2378805Y3458779D01*
X2378054Y3455000D01*
X2395000D01*
Y3471946D01*
D02*
G37*
G36*
X2255000D02*
Y3455000D01*
X2271946D01*
X2271195Y3458779D01*
X2266222Y3466222D01*
X2258779Y3471195D01*
X2255000Y3471946D01*
D02*
G37*
G36*
X2245000D02*
X2241221Y3471195D01*
X2233778Y3466222D01*
X2228805Y3458779D01*
X2228054Y3455000D01*
X2245000D01*
Y3471946D01*
D02*
G37*
G36*
X2105000D02*
Y3455000D01*
X2121946D01*
X2121195Y3458779D01*
X2116222Y3466222D01*
X2108779Y3471195D01*
X2105000Y3471946D01*
D02*
G37*
G36*
X2095000D02*
X2091221Y3471195D01*
X2083778Y3466222D01*
X2078805Y3458779D01*
X2078054Y3455000D01*
X2095000D01*
Y3471946D01*
D02*
G37*
G36*
X1955000D02*
Y3455000D01*
X1971946D01*
X1971195Y3458779D01*
X1966222Y3466222D01*
X1958779Y3471195D01*
X1955000Y3471946D01*
D02*
G37*
G36*
X1945000D02*
X1941221Y3471195D01*
X1933778Y3466222D01*
X1928805Y3458779D01*
X1928054Y3455000D01*
X1945000D01*
Y3471946D01*
D02*
G37*
G36*
X4265000Y3495259D02*
X4257168Y3494228D01*
X4249871Y3491205D01*
X4243604Y3486396D01*
X4238795Y3480129D01*
X4235772Y3472832D01*
X4234741Y3465000D01*
X4235772Y3457168D01*
X4238795Y3449871D01*
X4243604Y3443604D01*
X4249871Y3438795D01*
X4257168Y3435772D01*
X4265000Y3434741D01*
X4272832Y3435772D01*
X4280129Y3438795D01*
X4286396Y3443604D01*
X4291205Y3449871D01*
X4294228Y3457168D01*
X4295259Y3465000D01*
X4294228Y3472832D01*
X4291205Y3480129D01*
X4286396Y3486396D01*
X4280129Y3491205D01*
X4272832Y3494228D01*
X4265000Y3495259D01*
D02*
G37*
G36*
X4371946Y3445000D02*
X4355000D01*
Y3428054D01*
X4358779Y3428805D01*
X4366222Y3433778D01*
X4371194Y3441221D01*
X4371946Y3445000D01*
D02*
G37*
G36*
X4345000D02*
X4328054D01*
X4328806Y3441221D01*
X4333778Y3433778D01*
X4341221Y3428805D01*
X4345000Y3428054D01*
Y3445000D01*
D02*
G37*
G36*
X3921946D02*
X3905000D01*
Y3428054D01*
X3908779Y3428805D01*
X3916222Y3433778D01*
X3921195Y3441221D01*
X3921946Y3445000D01*
D02*
G37*
G36*
X3895000D02*
X3878054D01*
X3878805Y3441221D01*
X3883778Y3433778D01*
X3891221Y3428805D01*
X3895000Y3428054D01*
Y3445000D01*
D02*
G37*
G36*
X3771946D02*
X3755000D01*
Y3428054D01*
X3758779Y3428805D01*
X3766222Y3433778D01*
X3771195Y3441221D01*
X3771946Y3445000D01*
D02*
G37*
G36*
X3745000D02*
X3728054D01*
X3728805Y3441221D01*
X3733778Y3433778D01*
X3741221Y3428805D01*
X3745000Y3428054D01*
Y3445000D01*
D02*
G37*
G36*
X3621946D02*
X3605000D01*
Y3428054D01*
X3608779Y3428805D01*
X3616222Y3433778D01*
X3621195Y3441221D01*
X3621946Y3445000D01*
D02*
G37*
G36*
X3595000D02*
X3578054D01*
X3578805Y3441221D01*
X3583778Y3433778D01*
X3591221Y3428805D01*
X3595000Y3428054D01*
Y3445000D01*
D02*
G37*
G36*
X3471946D02*
X3455000D01*
Y3428054D01*
X3458779Y3428805D01*
X3466222Y3433778D01*
X3471195Y3441221D01*
X3471946Y3445000D01*
D02*
G37*
G36*
X3445000D02*
X3428054D01*
X3428805Y3441221D01*
X3433778Y3433778D01*
X3441221Y3428805D01*
X3445000Y3428054D01*
Y3445000D01*
D02*
G37*
G36*
X3321946D02*
X3305000D01*
Y3428054D01*
X3308779Y3428805D01*
X3316222Y3433778D01*
X3321195Y3441221D01*
X3321946Y3445000D01*
D02*
G37*
G36*
X3295000D02*
X3278054D01*
X3278805Y3441221D01*
X3283778Y3433778D01*
X3291221Y3428805D01*
X3295000Y3428054D01*
Y3445000D01*
D02*
G37*
G36*
X3171946D02*
X3155000D01*
Y3428054D01*
X3158779Y3428805D01*
X3166222Y3433778D01*
X3171195Y3441221D01*
X3171946Y3445000D01*
D02*
G37*
G36*
X3145000D02*
X3128054D01*
X3128805Y3441221D01*
X3133778Y3433778D01*
X3141221Y3428805D01*
X3145000Y3428054D01*
Y3445000D01*
D02*
G37*
G36*
X3021946D02*
X3005000D01*
Y3428054D01*
X3008779Y3428805D01*
X3016222Y3433778D01*
X3021195Y3441221D01*
X3021946Y3445000D01*
D02*
G37*
G36*
X2995000D02*
X2978054D01*
X2978805Y3441221D01*
X2983778Y3433778D01*
X2991221Y3428805D01*
X2995000Y3428054D01*
Y3445000D01*
D02*
G37*
G36*
X2721946D02*
X2705000D01*
Y3428054D01*
X2708779Y3428805D01*
X2716222Y3433778D01*
X2721195Y3441221D01*
X2721946Y3445000D01*
D02*
G37*
G36*
X2695000D02*
X2678054D01*
X2678805Y3441221D01*
X2683778Y3433778D01*
X2691221Y3428805D01*
X2695000Y3428054D01*
Y3445000D01*
D02*
G37*
G36*
X2421946D02*
X2405000D01*
Y3428054D01*
X2408779Y3428805D01*
X2416222Y3433778D01*
X2421195Y3441221D01*
X2421946Y3445000D01*
D02*
G37*
G36*
X2395000D02*
X2378054D01*
X2378805Y3441221D01*
X2383778Y3433778D01*
X2391221Y3428805D01*
X2395000Y3428054D01*
Y3445000D01*
D02*
G37*
G36*
X2271946D02*
X2255000D01*
Y3428054D01*
X2258779Y3428805D01*
X2266222Y3433778D01*
X2271195Y3441221D01*
X2271946Y3445000D01*
D02*
G37*
G36*
X2245000D02*
X2228054D01*
X2228805Y3441221D01*
X2233778Y3433778D01*
X2241221Y3428805D01*
X2245000Y3428054D01*
Y3445000D01*
D02*
G37*
G36*
X2121946D02*
X2105000D01*
Y3428054D01*
X2108779Y3428805D01*
X2116222Y3433778D01*
X2121195Y3441221D01*
X2121946Y3445000D01*
D02*
G37*
G36*
X2095000D02*
X2078054D01*
X2078805Y3441221D01*
X2083778Y3433778D01*
X2091221Y3428805D01*
X2095000Y3428054D01*
Y3445000D01*
D02*
G37*
G36*
X1971946D02*
X1955000D01*
Y3428054D01*
X1958779Y3428805D01*
X1966222Y3433778D01*
X1971195Y3441221D01*
X1971946Y3445000D01*
D02*
G37*
G36*
X1945000D02*
X1928054D01*
X1928805Y3441221D01*
X1933778Y3433778D01*
X1941221Y3428805D01*
X1945000Y3428054D01*
Y3445000D01*
D02*
G37*
G36*
X4430000Y3321946D02*
Y3305000D01*
X4446946D01*
X4446194Y3308779D01*
X4441222Y3316222D01*
X4433779Y3321195D01*
X4430000Y3321946D01*
D02*
G37*
G36*
X4420000D02*
X4416221Y3321195D01*
X4408778Y3316222D01*
X4403806Y3308779D01*
X4403054Y3305000D01*
X4420000D01*
Y3321946D01*
D02*
G37*
G36*
X4280000D02*
Y3305000D01*
X4296946D01*
X4296194Y3308779D01*
X4291222Y3316222D01*
X4283779Y3321195D01*
X4280000Y3321946D01*
D02*
G37*
G36*
X4270000D02*
X4266221Y3321195D01*
X4258778Y3316222D01*
X4253806Y3308779D01*
X4253054Y3305000D01*
X4270000D01*
Y3321946D01*
D02*
G37*
G36*
X4130000D02*
Y3305000D01*
X4146946D01*
X4146194Y3308779D01*
X4141222Y3316222D01*
X4133779Y3321195D01*
X4130000Y3321946D01*
D02*
G37*
G36*
X4120000D02*
X4116221Y3321195D01*
X4108778Y3316222D01*
X4103806Y3308779D01*
X4103054Y3305000D01*
X4120000D01*
Y3321946D01*
D02*
G37*
G36*
X3830000D02*
Y3305000D01*
X3846946D01*
X3846195Y3308779D01*
X3841222Y3316222D01*
X3833779Y3321195D01*
X3830000Y3321946D01*
D02*
G37*
G36*
X3820000D02*
X3816221Y3321195D01*
X3808778Y3316222D01*
X3803805Y3308779D01*
X3803054Y3305000D01*
X3820000D01*
Y3321946D01*
D02*
G37*
G36*
X3680000D02*
Y3305000D01*
X3696946D01*
X3696195Y3308779D01*
X3691222Y3316222D01*
X3683779Y3321195D01*
X3680000Y3321946D01*
D02*
G37*
G36*
X3670000D02*
X3666221Y3321195D01*
X3658778Y3316222D01*
X3653805Y3308779D01*
X3653054Y3305000D01*
X3670000D01*
Y3321946D01*
D02*
G37*
G36*
X3530000D02*
Y3305000D01*
X3546946D01*
X3546195Y3308779D01*
X3541222Y3316222D01*
X3533779Y3321195D01*
X3530000Y3321946D01*
D02*
G37*
G36*
X3520000D02*
X3516221Y3321195D01*
X3508778Y3316222D01*
X3503805Y3308779D01*
X3503054Y3305000D01*
X3520000D01*
Y3321946D01*
D02*
G37*
G36*
X3380000D02*
Y3305000D01*
X3396946D01*
X3396195Y3308779D01*
X3391222Y3316222D01*
X3383779Y3321195D01*
X3380000Y3321946D01*
D02*
G37*
G36*
X3370000D02*
X3366221Y3321195D01*
X3358778Y3316222D01*
X3353805Y3308779D01*
X3353054Y3305000D01*
X3370000D01*
Y3321946D01*
D02*
G37*
G36*
X3230000D02*
Y3305000D01*
X3246946D01*
X3246195Y3308779D01*
X3241222Y3316222D01*
X3233779Y3321195D01*
X3230000Y3321946D01*
D02*
G37*
G36*
X3220000D02*
X3216221Y3321195D01*
X3208778Y3316222D01*
X3203805Y3308779D01*
X3203054Y3305000D01*
X3220000D01*
Y3321946D01*
D02*
G37*
G36*
X3080000D02*
Y3305000D01*
X3096946D01*
X3096195Y3308779D01*
X3091222Y3316222D01*
X3083779Y3321195D01*
X3080000Y3321946D01*
D02*
G37*
G36*
X3070000D02*
X3066221Y3321195D01*
X3058778Y3316222D01*
X3053805Y3308779D01*
X3053054Y3305000D01*
X3070000D01*
Y3321946D01*
D02*
G37*
G36*
X2930000D02*
Y3305000D01*
X2946946D01*
X2946195Y3308779D01*
X2941222Y3316222D01*
X2933779Y3321195D01*
X2930000Y3321946D01*
D02*
G37*
G36*
X2920000D02*
X2916221Y3321195D01*
X2908778Y3316222D01*
X2903805Y3308779D01*
X2903054Y3305000D01*
X2920000D01*
Y3321946D01*
D02*
G37*
G36*
X2780000D02*
Y3305000D01*
X2796946D01*
X2796195Y3308779D01*
X2791222Y3316222D01*
X2783779Y3321195D01*
X2780000Y3321946D01*
D02*
G37*
G36*
X2770000D02*
X2766221Y3321195D01*
X2758778Y3316222D01*
X2753805Y3308779D01*
X2753054Y3305000D01*
X2770000D01*
Y3321946D01*
D02*
G37*
G36*
X2630000D02*
Y3305000D01*
X2646946D01*
X2646195Y3308779D01*
X2641222Y3316222D01*
X2633779Y3321195D01*
X2630000Y3321946D01*
D02*
G37*
G36*
X2620000D02*
X2616221Y3321195D01*
X2608778Y3316222D01*
X2603805Y3308779D01*
X2603054Y3305000D01*
X2620000D01*
Y3321946D01*
D02*
G37*
G36*
X2480000D02*
Y3305000D01*
X2496946D01*
X2496195Y3308779D01*
X2491222Y3316222D01*
X2483779Y3321195D01*
X2480000Y3321946D01*
D02*
G37*
G36*
X2470000D02*
X2466221Y3321195D01*
X2458778Y3316222D01*
X2453805Y3308779D01*
X2453054Y3305000D01*
X2470000D01*
Y3321946D01*
D02*
G37*
G36*
X2330000D02*
Y3305000D01*
X2346946D01*
X2346195Y3308779D01*
X2341222Y3316222D01*
X2333779Y3321195D01*
X2330000Y3321946D01*
D02*
G37*
G36*
X2320000D02*
X2316221Y3321195D01*
X2308778Y3316222D01*
X2303805Y3308779D01*
X2303054Y3305000D01*
X2320000D01*
Y3321946D01*
D02*
G37*
G36*
X2180000D02*
Y3305000D01*
X2196946D01*
X2196195Y3308779D01*
X2191222Y3316222D01*
X2183779Y3321195D01*
X2180000Y3321946D01*
D02*
G37*
G36*
X2170000D02*
X2166221Y3321195D01*
X2158778Y3316222D01*
X2153805Y3308779D01*
X2153054Y3305000D01*
X2170000D01*
Y3321946D01*
D02*
G37*
G36*
X2030000D02*
Y3305000D01*
X2046946D01*
X2046195Y3308779D01*
X2041222Y3316222D01*
X2033779Y3321195D01*
X2030000Y3321946D01*
D02*
G37*
G36*
X2020000D02*
X2016221Y3321195D01*
X2008778Y3316222D01*
X2003805Y3308779D01*
X2003054Y3305000D01*
X2020000D01*
Y3321946D01*
D02*
G37*
G36*
X1880000D02*
Y3305000D01*
X1896946D01*
X1896195Y3308779D01*
X1891222Y3316222D01*
X1883779Y3321195D01*
X1880000Y3321946D01*
D02*
G37*
G36*
X1870000D02*
X1866221Y3321195D01*
X1858778Y3316222D01*
X1853805Y3308779D01*
X1853054Y3305000D01*
X1870000D01*
Y3321946D01*
D02*
G37*
G36*
X4446946Y3295000D02*
X4430000D01*
Y3278054D01*
X4433779Y3278805D01*
X4441222Y3283778D01*
X4446194Y3291221D01*
X4446946Y3295000D01*
D02*
G37*
G36*
X4420000D02*
X4403054D01*
X4403806Y3291221D01*
X4408778Y3283778D01*
X4416221Y3278805D01*
X4420000Y3278054D01*
Y3295000D01*
D02*
G37*
G36*
X4296946D02*
X4280000D01*
Y3278054D01*
X4283779Y3278805D01*
X4291222Y3283778D01*
X4296194Y3291221D01*
X4296946Y3295000D01*
D02*
G37*
G36*
X4270000D02*
X4253054D01*
X4253806Y3291221D01*
X4258778Y3283778D01*
X4266221Y3278805D01*
X4270000Y3278054D01*
Y3295000D01*
D02*
G37*
G36*
X4146946D02*
X4130000D01*
Y3278054D01*
X4133779Y3278805D01*
X4141222Y3283778D01*
X4146194Y3291221D01*
X4146946Y3295000D01*
D02*
G37*
G36*
X4120000D02*
X4103054D01*
X4103806Y3291221D01*
X4108778Y3283778D01*
X4116221Y3278805D01*
X4120000Y3278054D01*
Y3295000D01*
D02*
G37*
G36*
X3846946D02*
X3830000D01*
Y3278054D01*
X3833779Y3278805D01*
X3841222Y3283778D01*
X3846195Y3291221D01*
X3846946Y3295000D01*
D02*
G37*
G36*
X3820000D02*
X3803054D01*
X3803805Y3291221D01*
X3808778Y3283778D01*
X3816221Y3278805D01*
X3820000Y3278054D01*
Y3295000D01*
D02*
G37*
G36*
X3696946D02*
X3680000D01*
Y3278054D01*
X3683779Y3278805D01*
X3691222Y3283778D01*
X3696195Y3291221D01*
X3696946Y3295000D01*
D02*
G37*
G36*
X3670000D02*
X3653054D01*
X3653805Y3291221D01*
X3658778Y3283778D01*
X3666221Y3278805D01*
X3670000Y3278054D01*
Y3295000D01*
D02*
G37*
G36*
X3546946D02*
X3530000D01*
Y3278054D01*
X3533779Y3278805D01*
X3541222Y3283778D01*
X3546195Y3291221D01*
X3546946Y3295000D01*
D02*
G37*
G36*
X3520000D02*
X3503054D01*
X3503805Y3291221D01*
X3508778Y3283778D01*
X3516221Y3278805D01*
X3520000Y3278054D01*
Y3295000D01*
D02*
G37*
G36*
X3396946D02*
X3380000D01*
Y3278054D01*
X3383779Y3278805D01*
X3391222Y3283778D01*
X3396195Y3291221D01*
X3396946Y3295000D01*
D02*
G37*
G36*
X3370000D02*
X3353054D01*
X3353805Y3291221D01*
X3358778Y3283778D01*
X3366221Y3278805D01*
X3370000Y3278054D01*
Y3295000D01*
D02*
G37*
G36*
X3246946D02*
X3230000D01*
Y3278054D01*
X3233779Y3278805D01*
X3241222Y3283778D01*
X3246195Y3291221D01*
X3246946Y3295000D01*
D02*
G37*
G36*
X3220000D02*
X3203054D01*
X3203805Y3291221D01*
X3208778Y3283778D01*
X3216221Y3278805D01*
X3220000Y3278054D01*
Y3295000D01*
D02*
G37*
G36*
X3096946D02*
X3080000D01*
Y3278054D01*
X3083779Y3278805D01*
X3091222Y3283778D01*
X3096195Y3291221D01*
X3096946Y3295000D01*
D02*
G37*
G36*
X3070000D02*
X3053054D01*
X3053805Y3291221D01*
X3058778Y3283778D01*
X3066221Y3278805D01*
X3070000Y3278054D01*
Y3295000D01*
D02*
G37*
G36*
X2946946D02*
X2930000D01*
Y3278054D01*
X2933779Y3278805D01*
X2941222Y3283778D01*
X2946195Y3291221D01*
X2946946Y3295000D01*
D02*
G37*
G36*
X2920000D02*
X2903054D01*
X2903805Y3291221D01*
X2908778Y3283778D01*
X2916221Y3278805D01*
X2920000Y3278054D01*
Y3295000D01*
D02*
G37*
G36*
X2796946D02*
X2780000D01*
Y3278054D01*
X2783779Y3278805D01*
X2791222Y3283778D01*
X2796195Y3291221D01*
X2796946Y3295000D01*
D02*
G37*
G36*
X2770000D02*
X2753054D01*
X2753805Y3291221D01*
X2758778Y3283778D01*
X2766221Y3278805D01*
X2770000Y3278054D01*
Y3295000D01*
D02*
G37*
G36*
X2646946D02*
X2630000D01*
Y3278054D01*
X2633779Y3278805D01*
X2641222Y3283778D01*
X2646195Y3291221D01*
X2646946Y3295000D01*
D02*
G37*
G36*
X2620000D02*
X2603054D01*
X2603805Y3291221D01*
X2608778Y3283778D01*
X2616221Y3278805D01*
X2620000Y3278054D01*
Y3295000D01*
D02*
G37*
G36*
X2496946D02*
X2480000D01*
Y3278054D01*
X2483779Y3278805D01*
X2491222Y3283778D01*
X2496195Y3291221D01*
X2496946Y3295000D01*
D02*
G37*
G36*
X2470000D02*
X2453054D01*
X2453805Y3291221D01*
X2458778Y3283778D01*
X2466221Y3278805D01*
X2470000Y3278054D01*
Y3295000D01*
D02*
G37*
G36*
X2346946D02*
X2330000D01*
Y3278054D01*
X2333779Y3278805D01*
X2341222Y3283778D01*
X2346195Y3291221D01*
X2346946Y3295000D01*
D02*
G37*
G36*
X2320000D02*
X2303054D01*
X2303805Y3291221D01*
X2308778Y3283778D01*
X2316221Y3278805D01*
X2320000Y3278054D01*
Y3295000D01*
D02*
G37*
G36*
X2196946D02*
X2180000D01*
Y3278054D01*
X2183779Y3278805D01*
X2191222Y3283778D01*
X2196195Y3291221D01*
X2196946Y3295000D01*
D02*
G37*
G36*
X2170000D02*
X2153054D01*
X2153805Y3291221D01*
X2158778Y3283778D01*
X2166221Y3278805D01*
X2170000Y3278054D01*
Y3295000D01*
D02*
G37*
G36*
X2046946D02*
X2030000D01*
Y3278054D01*
X2033779Y3278805D01*
X2041222Y3283778D01*
X2046195Y3291221D01*
X2046946Y3295000D01*
D02*
G37*
G36*
X2020000D02*
X2003054D01*
X2003805Y3291221D01*
X2008778Y3283778D01*
X2016221Y3278805D01*
X2020000Y3278054D01*
Y3295000D01*
D02*
G37*
G36*
X1896946D02*
X1880000D01*
Y3278054D01*
X1883779Y3278805D01*
X1891222Y3283778D01*
X1896195Y3291221D01*
X1896946Y3295000D01*
D02*
G37*
G36*
X1870000D02*
X1853054D01*
X1853805Y3291221D01*
X1858778Y3283778D01*
X1866221Y3278805D01*
X1870000Y3278054D01*
Y3295000D01*
D02*
G37*
G36*
X4355000Y3171946D02*
Y3155000D01*
X4371946D01*
X4371194Y3158779D01*
X4366222Y3166222D01*
X4358779Y3171195D01*
X4355000Y3171946D01*
D02*
G37*
G36*
X4345000D02*
X4341221Y3171195D01*
X4333778Y3166222D01*
X4328806Y3158779D01*
X4328054Y3155000D01*
X4345000D01*
Y3171946D01*
D02*
G37*
G36*
X4205000D02*
Y3155000D01*
X4221946D01*
X4221194Y3158779D01*
X4216222Y3166222D01*
X4208779Y3171195D01*
X4205000Y3171946D01*
D02*
G37*
G36*
X4195000D02*
X4191221Y3171195D01*
X4183778Y3166222D01*
X4178806Y3158779D01*
X4178054Y3155000D01*
X4195000D01*
Y3171946D01*
D02*
G37*
G36*
X4055000D02*
Y3155000D01*
X4071946D01*
X4071195Y3158779D01*
X4066222Y3166222D01*
X4058779Y3171195D01*
X4055000Y3171946D01*
D02*
G37*
G36*
X4045000D02*
X4041221Y3171195D01*
X4033778Y3166222D01*
X4028805Y3158779D01*
X4028054Y3155000D01*
X4045000D01*
Y3171946D01*
D02*
G37*
G36*
X3905000D02*
Y3155000D01*
X3921946D01*
X3921195Y3158779D01*
X3916222Y3166222D01*
X3908779Y3171195D01*
X3905000Y3171946D01*
D02*
G37*
G36*
X3895000D02*
X3891221Y3171195D01*
X3883778Y3166222D01*
X3878805Y3158779D01*
X3878054Y3155000D01*
X3895000D01*
Y3171946D01*
D02*
G37*
G36*
X3605000D02*
Y3155000D01*
X3621946D01*
X3621195Y3158779D01*
X3616222Y3166222D01*
X3608779Y3171195D01*
X3605000Y3171946D01*
D02*
G37*
G36*
X3595000D02*
X3591221Y3171195D01*
X3583778Y3166222D01*
X3578805Y3158779D01*
X3578054Y3155000D01*
X3595000D01*
Y3171946D01*
D02*
G37*
G36*
X3455000D02*
Y3155000D01*
X3471946D01*
X3471195Y3158779D01*
X3466222Y3166222D01*
X3458779Y3171195D01*
X3455000Y3171946D01*
D02*
G37*
G36*
X3445000D02*
X3441221Y3171195D01*
X3433778Y3166222D01*
X3428805Y3158779D01*
X3428054Y3155000D01*
X3445000D01*
Y3171946D01*
D02*
G37*
G36*
X3305000D02*
Y3155000D01*
X3321946D01*
X3321195Y3158779D01*
X3316222Y3166222D01*
X3308779Y3171195D01*
X3305000Y3171946D01*
D02*
G37*
G36*
X3295000D02*
X3291221Y3171195D01*
X3283778Y3166222D01*
X3278805Y3158779D01*
X3278054Y3155000D01*
X3295000D01*
Y3171946D01*
D02*
G37*
G36*
X3155000D02*
Y3155000D01*
X3171946D01*
X3171195Y3158779D01*
X3166222Y3166222D01*
X3158779Y3171195D01*
X3155000Y3171946D01*
D02*
G37*
G36*
X3145000D02*
X3141221Y3171195D01*
X3133778Y3166222D01*
X3128805Y3158779D01*
X3128054Y3155000D01*
X3145000D01*
Y3171946D01*
D02*
G37*
G36*
X2855000D02*
Y3155000D01*
X2871946D01*
X2871195Y3158779D01*
X2866222Y3166222D01*
X2858779Y3171195D01*
X2855000Y3171946D01*
D02*
G37*
G36*
X2845000D02*
X2841221Y3171195D01*
X2833778Y3166222D01*
X2828805Y3158779D01*
X2828054Y3155000D01*
X2845000D01*
Y3171946D01*
D02*
G37*
G36*
X2405000D02*
Y3155000D01*
X2421946D01*
X2421195Y3158779D01*
X2416222Y3166222D01*
X2408779Y3171195D01*
X2405000Y3171946D01*
D02*
G37*
G36*
X2395000D02*
X2391221Y3171195D01*
X2383778Y3166222D01*
X2378805Y3158779D01*
X2378054Y3155000D01*
X2395000D01*
Y3171946D01*
D02*
G37*
G36*
X2255000D02*
Y3155000D01*
X2271946D01*
X2271195Y3158779D01*
X2266222Y3166222D01*
X2258779Y3171195D01*
X2255000Y3171946D01*
D02*
G37*
G36*
X2245000D02*
X2241221Y3171195D01*
X2233778Y3166222D01*
X2228805Y3158779D01*
X2228054Y3155000D01*
X2245000D01*
Y3171946D01*
D02*
G37*
G36*
X2105000D02*
Y3155000D01*
X2121946D01*
X2121195Y3158779D01*
X2116222Y3166222D01*
X2108779Y3171195D01*
X2105000Y3171946D01*
D02*
G37*
G36*
X2095000D02*
X2091221Y3171195D01*
X2083778Y3166222D01*
X2078805Y3158779D01*
X2078054Y3155000D01*
X2095000D01*
Y3171946D01*
D02*
G37*
G36*
X4371946Y3145000D02*
X4355000D01*
Y3128054D01*
X4358779Y3128805D01*
X4366222Y3133778D01*
X4371194Y3141221D01*
X4371946Y3145000D01*
D02*
G37*
G36*
X4345000D02*
X4328054D01*
X4328806Y3141221D01*
X4333778Y3133778D01*
X4341221Y3128805D01*
X4345000Y3128054D01*
Y3145000D01*
D02*
G37*
G36*
X4221946D02*
X4205000D01*
Y3128054D01*
X4208779Y3128805D01*
X4216222Y3133778D01*
X4221194Y3141221D01*
X4221946Y3145000D01*
D02*
G37*
G36*
X4195000D02*
X4178054D01*
X4178806Y3141221D01*
X4183778Y3133778D01*
X4191221Y3128805D01*
X4195000Y3128054D01*
Y3145000D01*
D02*
G37*
G36*
X4071946D02*
X4055000D01*
Y3128054D01*
X4058779Y3128805D01*
X4066222Y3133778D01*
X4071195Y3141221D01*
X4071946Y3145000D01*
D02*
G37*
G36*
X4045000D02*
X4028054D01*
X4028805Y3141221D01*
X4033778Y3133778D01*
X4041221Y3128805D01*
X4045000Y3128054D01*
Y3145000D01*
D02*
G37*
G36*
X3921946D02*
X3905000D01*
Y3128054D01*
X3908779Y3128805D01*
X3916222Y3133778D01*
X3921195Y3141221D01*
X3921946Y3145000D01*
D02*
G37*
G36*
X3895000D02*
X3878054D01*
X3878805Y3141221D01*
X3883778Y3133778D01*
X3891221Y3128805D01*
X3895000Y3128054D01*
Y3145000D01*
D02*
G37*
G36*
X3621946D02*
X3605000D01*
Y3128054D01*
X3608779Y3128805D01*
X3616222Y3133778D01*
X3621195Y3141221D01*
X3621946Y3145000D01*
D02*
G37*
G36*
X3595000D02*
X3578054D01*
X3578805Y3141221D01*
X3583778Y3133778D01*
X3591221Y3128805D01*
X3595000Y3128054D01*
Y3145000D01*
D02*
G37*
G36*
X3471946D02*
X3455000D01*
Y3128054D01*
X3458779Y3128805D01*
X3466222Y3133778D01*
X3471195Y3141221D01*
X3471946Y3145000D01*
D02*
G37*
G36*
X3445000D02*
X3428054D01*
X3428805Y3141221D01*
X3433778Y3133778D01*
X3441221Y3128805D01*
X3445000Y3128054D01*
Y3145000D01*
D02*
G37*
G36*
X3321946D02*
X3305000D01*
Y3128054D01*
X3308779Y3128805D01*
X3316222Y3133778D01*
X3321195Y3141221D01*
X3321946Y3145000D01*
D02*
G37*
G36*
X3295000D02*
X3278054D01*
X3278805Y3141221D01*
X3283778Y3133778D01*
X3291221Y3128805D01*
X3295000Y3128054D01*
Y3145000D01*
D02*
G37*
G36*
X3171946D02*
X3155000D01*
Y3128054D01*
X3158779Y3128805D01*
X3166222Y3133778D01*
X3171195Y3141221D01*
X3171946Y3145000D01*
D02*
G37*
G36*
X3145000D02*
X3128054D01*
X3128805Y3141221D01*
X3133778Y3133778D01*
X3141221Y3128805D01*
X3145000Y3128054D01*
Y3145000D01*
D02*
G37*
G36*
X2871946D02*
X2855000D01*
Y3128054D01*
X2858779Y3128805D01*
X2866222Y3133778D01*
X2871195Y3141221D01*
X2871946Y3145000D01*
D02*
G37*
G36*
X2845000D02*
X2828054D01*
X2828805Y3141221D01*
X2833778Y3133778D01*
X2841221Y3128805D01*
X2845000Y3128054D01*
Y3145000D01*
D02*
G37*
G36*
X2421946D02*
X2405000D01*
Y3128054D01*
X2408779Y3128805D01*
X2416222Y3133778D01*
X2421195Y3141221D01*
X2421946Y3145000D01*
D02*
G37*
G36*
X2395000D02*
X2378054D01*
X2378805Y3141221D01*
X2383778Y3133778D01*
X2391221Y3128805D01*
X2395000Y3128054D01*
Y3145000D01*
D02*
G37*
G36*
X2271946D02*
X2255000D01*
Y3128054D01*
X2258779Y3128805D01*
X2266222Y3133778D01*
X2271195Y3141221D01*
X2271946Y3145000D01*
D02*
G37*
G36*
X2245000D02*
X2228054D01*
X2228805Y3141221D01*
X2233778Y3133778D01*
X2241221Y3128805D01*
X2245000Y3128054D01*
Y3145000D01*
D02*
G37*
G36*
X2121946D02*
X2105000D01*
Y3128054D01*
X2108779Y3128805D01*
X2116222Y3133778D01*
X2121195Y3141221D01*
X2121946Y3145000D01*
D02*
G37*
G36*
X2095000D02*
X2078054D01*
X2078805Y3141221D01*
X2083778Y3133778D01*
X2091221Y3128805D01*
X2095000Y3128054D01*
Y3145000D01*
D02*
G37*
G36*
X4430000Y3021946D02*
Y3005000D01*
X4446946D01*
X4446194Y3008779D01*
X4441222Y3016222D01*
X4433779Y3021195D01*
X4430000Y3021946D01*
D02*
G37*
G36*
X4420000D02*
X4416221Y3021195D01*
X4408778Y3016222D01*
X4403806Y3008779D01*
X4403054Y3005000D01*
X4420000D01*
Y3021946D01*
D02*
G37*
G36*
X3830000D02*
Y3005000D01*
X3846946D01*
X3846195Y3008779D01*
X3841222Y3016222D01*
X3833779Y3021195D01*
X3830000Y3021946D01*
D02*
G37*
G36*
X3820000D02*
X3816221Y3021195D01*
X3808778Y3016222D01*
X3803805Y3008779D01*
X3803054Y3005000D01*
X3820000D01*
Y3021946D01*
D02*
G37*
G36*
X3680000D02*
Y3005000D01*
X3696946D01*
X3696195Y3008779D01*
X3691222Y3016222D01*
X3683779Y3021195D01*
X3680000Y3021946D01*
D02*
G37*
G36*
X3670000D02*
X3666221Y3021195D01*
X3658778Y3016222D01*
X3653805Y3008779D01*
X3653054Y3005000D01*
X3670000D01*
Y3021946D01*
D02*
G37*
G36*
X3530000D02*
Y3005000D01*
X3546946D01*
X3546195Y3008779D01*
X3541222Y3016222D01*
X3533779Y3021195D01*
X3530000Y3021946D01*
D02*
G37*
G36*
X3520000D02*
X3516221Y3021195D01*
X3508778Y3016222D01*
X3503805Y3008779D01*
X3503054Y3005000D01*
X3520000D01*
Y3021946D01*
D02*
G37*
G36*
X3080000D02*
Y3005000D01*
X3096946D01*
X3096195Y3008779D01*
X3091222Y3016222D01*
X3083779Y3021195D01*
X3080000Y3021946D01*
D02*
G37*
G36*
X3070000D02*
X3066221Y3021195D01*
X3058778Y3016222D01*
X3053805Y3008779D01*
X3053054Y3005000D01*
X3070000D01*
Y3021946D01*
D02*
G37*
G36*
X2330000D02*
Y3005000D01*
X2346946D01*
X2346195Y3008779D01*
X2341222Y3016222D01*
X2333779Y3021195D01*
X2330000Y3021946D01*
D02*
G37*
G36*
X2320000D02*
X2316221Y3021195D01*
X2308778Y3016222D01*
X2303805Y3008779D01*
X2303054Y3005000D01*
X2320000D01*
Y3021946D01*
D02*
G37*
G36*
X2180000D02*
Y3005000D01*
X2196946D01*
X2196195Y3008779D01*
X2191222Y3016222D01*
X2183779Y3021195D01*
X2180000Y3021946D01*
D02*
G37*
G36*
X2170000D02*
X2166221Y3021195D01*
X2158778Y3016222D01*
X2153805Y3008779D01*
X2153054Y3005000D01*
X2170000D01*
Y3021946D01*
D02*
G37*
G36*
X2030000D02*
Y3005000D01*
X2046946D01*
X2046195Y3008779D01*
X2041222Y3016222D01*
X2033779Y3021195D01*
X2030000Y3021946D01*
D02*
G37*
G36*
X2020000D02*
X2016221Y3021195D01*
X2008778Y3016222D01*
X2003805Y3008779D01*
X2003054Y3005000D01*
X2020000D01*
Y3021946D01*
D02*
G37*
G36*
X4446946Y2995000D02*
X4430000D01*
Y2978054D01*
X4433779Y2978805D01*
X4441222Y2983778D01*
X4446194Y2991221D01*
X4446946Y2995000D01*
D02*
G37*
G36*
X4420000D02*
X4403054D01*
X4403806Y2991221D01*
X4408778Y2983778D01*
X4416221Y2978805D01*
X4420000Y2978054D01*
Y2995000D01*
D02*
G37*
G36*
X3846946D02*
X3830000D01*
Y2978054D01*
X3833779Y2978805D01*
X3841222Y2983778D01*
X3846195Y2991221D01*
X3846946Y2995000D01*
D02*
G37*
G36*
X3820000D02*
X3803054D01*
X3803805Y2991221D01*
X3808778Y2983778D01*
X3816221Y2978805D01*
X3820000Y2978054D01*
Y2995000D01*
D02*
G37*
G36*
X3696946D02*
X3680000D01*
Y2978054D01*
X3683779Y2978805D01*
X3691222Y2983778D01*
X3696195Y2991221D01*
X3696946Y2995000D01*
D02*
G37*
G36*
X3670000D02*
X3653054D01*
X3653805Y2991221D01*
X3658778Y2983778D01*
X3666221Y2978805D01*
X3670000Y2978054D01*
Y2995000D01*
D02*
G37*
G36*
X3546946D02*
X3530000D01*
Y2978054D01*
X3533779Y2978805D01*
X3541222Y2983778D01*
X3546195Y2991221D01*
X3546946Y2995000D01*
D02*
G37*
G36*
X3520000D02*
X3503054D01*
X3503805Y2991221D01*
X3508778Y2983778D01*
X3516221Y2978805D01*
X3520000Y2978054D01*
Y2995000D01*
D02*
G37*
G36*
X3096946D02*
X3080000D01*
Y2978054D01*
X3083779Y2978805D01*
X3091222Y2983778D01*
X3096195Y2991221D01*
X3096946Y2995000D01*
D02*
G37*
G36*
X3070000D02*
X3053054D01*
X3053805Y2991221D01*
X3058778Y2983778D01*
X3066221Y2978805D01*
X3070000Y2978054D01*
Y2995000D01*
D02*
G37*
G36*
X2346946D02*
X2330000D01*
Y2978054D01*
X2333779Y2978805D01*
X2341222Y2983778D01*
X2346195Y2991221D01*
X2346946Y2995000D01*
D02*
G37*
G36*
X2320000D02*
X2303054D01*
X2303805Y2991221D01*
X2308778Y2983778D01*
X2316221Y2978805D01*
X2320000Y2978054D01*
Y2995000D01*
D02*
G37*
G36*
X2196946D02*
X2180000D01*
Y2978054D01*
X2183779Y2978805D01*
X2191222Y2983778D01*
X2196195Y2991221D01*
X2196946Y2995000D01*
D02*
G37*
G36*
X2170000D02*
X2153054D01*
X2153805Y2991221D01*
X2158778Y2983778D01*
X2166221Y2978805D01*
X2170000Y2978054D01*
Y2995000D01*
D02*
G37*
G36*
X2046946D02*
X2030000D01*
Y2978054D01*
X2033779Y2978805D01*
X2041222Y2983778D01*
X2046195Y2991221D01*
X2046946Y2995000D01*
D02*
G37*
G36*
X2020000D02*
X2003054D01*
X2003805Y2991221D01*
X2008778Y2983778D01*
X2016221Y2978805D01*
X2020000Y2978054D01*
Y2995000D01*
D02*
G37*
G36*
X2423032Y3080392D02*
X2415228Y3078840D01*
X2408612Y3074419D01*
X2404192Y3067804D01*
X2402640Y3060000D01*
X2404192Y3052196D01*
X2408612Y3045581D01*
X2415228Y3041160D01*
X2423032Y3039608D01*
X2430835Y3041160D01*
X2432984Y3042597D01*
X2490599Y2984982D01*
X2489608Y2980000D01*
X2491160Y2972196D01*
X2495581Y2965581D01*
X2502196Y2961160D01*
X2510000Y2959608D01*
X2517804Y2961160D01*
X2524419Y2965581D01*
X2528840Y2972196D01*
X2530392Y2980000D01*
X2528840Y2987804D01*
X2524419Y2994419D01*
X2517804Y2998840D01*
X2510000Y3000392D01*
X2505018Y2999401D01*
X2443176Y3061243D01*
X2441871Y3067804D01*
X2437451Y3074419D01*
X2430835Y3078840D01*
X2423032Y3080392D01*
D02*
G37*
G36*
X3160000Y2985392D02*
X3152196Y2983840D01*
X3145581Y2979419D01*
X3141160Y2972804D01*
X3139608Y2965000D01*
X3140599Y2960018D01*
X3112790Y2932209D01*
X3110580Y2928902D01*
X3109804Y2925000D01*
Y2765197D01*
X3088425D01*
Y2751692D01*
X3051575D01*
Y2765197D01*
X2988425D01*
Y2751692D01*
X2961242D01*
X2959419Y2754419D01*
X2952804Y2758840D01*
X2945000Y2760392D01*
X2937196Y2758840D01*
X2930581Y2754419D01*
X2926160Y2747804D01*
X2924608Y2740000D01*
X2926160Y2732196D01*
X2928382Y2728871D01*
X2701481Y2400097D01*
X2700000Y2400392D01*
X2692196Y2398840D01*
X2685581Y2394419D01*
X2682759Y2390196D01*
X2555197D01*
Y2411575D01*
X2507795D01*
Y2348425D01*
X2555197D01*
Y2369804D01*
X2682759D01*
X2685581Y2365581D01*
X2689804Y2362759D01*
Y2232241D01*
X2685581Y2229419D01*
X2681160Y2222804D01*
X2679608Y2215000D01*
X2681160Y2207196D01*
X2685581Y2200581D01*
X2692196Y2196160D01*
X2700000Y2194608D01*
X2707804Y2196160D01*
X2714419Y2200581D01*
X2718840Y2207196D01*
X2720392Y2215000D01*
X2718840Y2222804D01*
X2714419Y2229419D01*
X2710196Y2232241D01*
Y2362759D01*
X2714419Y2365581D01*
X2718840Y2372196D01*
X2720392Y2380000D01*
X2718840Y2387804D01*
X2718315Y2388588D01*
X2947047Y2720015D01*
X2952804Y2721160D01*
X2959419Y2725581D01*
X2963241Y2731300D01*
X2988425D01*
Y2717795D01*
X3051575D01*
Y2731300D01*
X3088425D01*
Y2717795D01*
X3151575D01*
Y2765197D01*
X3130196D01*
Y2920776D01*
X3155018Y2945599D01*
X3160000Y2944608D01*
X3167804Y2946160D01*
X3174419Y2950581D01*
X3178840Y2957196D01*
X3180392Y2965000D01*
X3178840Y2972804D01*
X3174419Y2979419D01*
X3167804Y2983840D01*
X3160000Y2985392D01*
D02*
G37*
G36*
X4265000Y2995259D02*
X4257168Y2994228D01*
X4249871Y2991205D01*
X4243604Y2986396D01*
X4238795Y2980129D01*
X4235772Y2972832D01*
X4234741Y2965000D01*
X4235772Y2957168D01*
X4238795Y2949871D01*
X4243604Y2943604D01*
X4249871Y2938795D01*
X4257168Y2935772D01*
X4265000Y2934741D01*
X4272832Y2935772D01*
X4280129Y2938795D01*
X4286396Y2943604D01*
X4291205Y2949871D01*
X4294228Y2957168D01*
X4295259Y2965000D01*
X4294228Y2972832D01*
X4291205Y2980129D01*
X4286396Y2986396D01*
X4280129Y2991205D01*
X4272832Y2994228D01*
X4265000Y2995259D01*
D02*
G37*
G36*
X4495000Y2871946D02*
X4491221Y2871195D01*
X4483778Y2866222D01*
X4478806Y2858779D01*
X4478054Y2855000D01*
X4495000D01*
Y2871946D01*
D02*
G37*
G36*
X4355000D02*
Y2855000D01*
X4371946D01*
X4371194Y2858779D01*
X4366222Y2866222D01*
X4358779Y2871195D01*
X4355000Y2871946D01*
D02*
G37*
G36*
X4345000D02*
X4341221Y2871195D01*
X4333778Y2866222D01*
X4328806Y2858779D01*
X4328054Y2855000D01*
X4345000D01*
Y2871946D01*
D02*
G37*
G36*
X4205000D02*
Y2855000D01*
X4221946D01*
X4221194Y2858779D01*
X4216222Y2866222D01*
X4208779Y2871195D01*
X4205000Y2871946D01*
D02*
G37*
G36*
X4195000D02*
X4191221Y2871195D01*
X4183778Y2866222D01*
X4178806Y2858779D01*
X4178054Y2855000D01*
X4195000D01*
Y2871946D01*
D02*
G37*
G36*
X4055000D02*
Y2855000D01*
X4071946D01*
X4071195Y2858779D01*
X4066222Y2866222D01*
X4058779Y2871195D01*
X4055000Y2871946D01*
D02*
G37*
G36*
X4045000D02*
X4041221Y2871195D01*
X4033778Y2866222D01*
X4028805Y2858779D01*
X4028054Y2855000D01*
X4045000D01*
Y2871946D01*
D02*
G37*
G36*
X3905000D02*
Y2855000D01*
X3921946D01*
X3921195Y2858779D01*
X3916222Y2866222D01*
X3908779Y2871195D01*
X3905000Y2871946D01*
D02*
G37*
G36*
X3895000D02*
X3891221Y2871195D01*
X3883778Y2866222D01*
X3878805Y2858779D01*
X3878054Y2855000D01*
X3895000D01*
Y2871946D01*
D02*
G37*
G36*
X3605000D02*
Y2855000D01*
X3621946D01*
X3621195Y2858779D01*
X3616222Y2866222D01*
X3608779Y2871195D01*
X3605000Y2871946D01*
D02*
G37*
G36*
X3595000D02*
X3591221Y2871195D01*
X3583778Y2866222D01*
X3578805Y2858779D01*
X3578054Y2855000D01*
X3595000D01*
Y2871946D01*
D02*
G37*
G36*
X3455000D02*
Y2855000D01*
X3471946D01*
X3471195Y2858779D01*
X3466222Y2866222D01*
X3458779Y2871195D01*
X3455000Y2871946D01*
D02*
G37*
G36*
X3445000D02*
X3441221Y2871195D01*
X3433778Y2866222D01*
X3428805Y2858779D01*
X3428054Y2855000D01*
X3445000D01*
Y2871946D01*
D02*
G37*
G36*
X3305000D02*
Y2855000D01*
X3321946D01*
X3321195Y2858779D01*
X3316222Y2866222D01*
X3308779Y2871195D01*
X3305000Y2871946D01*
D02*
G37*
G36*
X3295000D02*
X3291221Y2871195D01*
X3283778Y2866222D01*
X3278805Y2858779D01*
X3278054Y2855000D01*
X3295000D01*
Y2871946D01*
D02*
G37*
G36*
X2255000D02*
Y2855000D01*
X2271946D01*
X2271195Y2858779D01*
X2266222Y2866222D01*
X2258779Y2871195D01*
X2255000Y2871946D01*
D02*
G37*
G36*
X2245000D02*
X2241221Y2871195D01*
X2233778Y2866222D01*
X2228805Y2858779D01*
X2228054Y2855000D01*
X2245000D01*
Y2871946D01*
D02*
G37*
G36*
X2105000D02*
Y2855000D01*
X2121946D01*
X2121195Y2858779D01*
X2116222Y2866222D01*
X2108779Y2871195D01*
X2105000Y2871946D01*
D02*
G37*
G36*
X2095000D02*
X2091221Y2871195D01*
X2083778Y2866222D01*
X2078805Y2858779D01*
X2078054Y2855000D01*
X2095000D01*
Y2871946D01*
D02*
G37*
G36*
X1955000D02*
Y2855000D01*
X1971946D01*
X1971195Y2858779D01*
X1966222Y2866222D01*
X1958779Y2871195D01*
X1955000Y2871946D01*
D02*
G37*
G36*
X1945000D02*
X1941221Y2871195D01*
X1933778Y2866222D01*
X1928805Y2858779D01*
X1928054Y2855000D01*
X1945000D01*
Y2871946D01*
D02*
G37*
G36*
X4495000Y2845000D02*
X4478054D01*
X4478806Y2841221D01*
X4483778Y2833778D01*
X4491221Y2828805D01*
X4495000Y2828054D01*
Y2845000D01*
D02*
G37*
G36*
X4371946D02*
X4355000D01*
Y2828054D01*
X4358779Y2828805D01*
X4366222Y2833778D01*
X4371194Y2841221D01*
X4371946Y2845000D01*
D02*
G37*
G36*
X4345000D02*
X4328054D01*
X4328806Y2841221D01*
X4333778Y2833778D01*
X4341221Y2828805D01*
X4345000Y2828054D01*
Y2845000D01*
D02*
G37*
G36*
X4221946D02*
X4205000D01*
Y2828054D01*
X4208779Y2828805D01*
X4216222Y2833778D01*
X4221194Y2841221D01*
X4221946Y2845000D01*
D02*
G37*
G36*
X4195000D02*
X4178054D01*
X4178806Y2841221D01*
X4183778Y2833778D01*
X4191221Y2828805D01*
X4195000Y2828054D01*
Y2845000D01*
D02*
G37*
G36*
X4071946D02*
X4055000D01*
Y2828054D01*
X4058779Y2828805D01*
X4066222Y2833778D01*
X4071195Y2841221D01*
X4071946Y2845000D01*
D02*
G37*
G36*
X4045000D02*
X4028054D01*
X4028805Y2841221D01*
X4033778Y2833778D01*
X4041221Y2828805D01*
X4045000Y2828054D01*
Y2845000D01*
D02*
G37*
G36*
X3921946D02*
X3905000D01*
Y2828054D01*
X3908779Y2828805D01*
X3916222Y2833778D01*
X3921195Y2841221D01*
X3921946Y2845000D01*
D02*
G37*
G36*
X3895000D02*
X3878054D01*
X3878805Y2841221D01*
X3883778Y2833778D01*
X3891221Y2828805D01*
X3895000Y2828054D01*
Y2845000D01*
D02*
G37*
G36*
X3621946D02*
X3605000D01*
Y2828054D01*
X3608779Y2828805D01*
X3616222Y2833778D01*
X3621195Y2841221D01*
X3621946Y2845000D01*
D02*
G37*
G36*
X3595000D02*
X3578054D01*
X3578805Y2841221D01*
X3583778Y2833778D01*
X3591221Y2828805D01*
X3595000Y2828054D01*
Y2845000D01*
D02*
G37*
G36*
X3471946D02*
X3455000D01*
Y2828054D01*
X3458779Y2828805D01*
X3466222Y2833778D01*
X3471195Y2841221D01*
X3471946Y2845000D01*
D02*
G37*
G36*
X3445000D02*
X3428054D01*
X3428805Y2841221D01*
X3433778Y2833778D01*
X3441221Y2828805D01*
X3445000Y2828054D01*
Y2845000D01*
D02*
G37*
G36*
X3321946D02*
X3305000D01*
Y2828054D01*
X3308779Y2828805D01*
X3316222Y2833778D01*
X3321195Y2841221D01*
X3321946Y2845000D01*
D02*
G37*
G36*
X3295000D02*
X3278054D01*
X3278805Y2841221D01*
X3283778Y2833778D01*
X3291221Y2828805D01*
X3295000Y2828054D01*
Y2845000D01*
D02*
G37*
G36*
X2271946D02*
X2255000D01*
Y2828054D01*
X2258779Y2828805D01*
X2266222Y2833778D01*
X2271195Y2841221D01*
X2271946Y2845000D01*
D02*
G37*
G36*
X2245000D02*
X2228054D01*
X2228805Y2841221D01*
X2233778Y2833778D01*
X2241221Y2828805D01*
X2245000Y2828054D01*
Y2845000D01*
D02*
G37*
G36*
X2121946D02*
X2105000D01*
Y2828054D01*
X2108779Y2828805D01*
X2116222Y2833778D01*
X2121195Y2841221D01*
X2121946Y2845000D01*
D02*
G37*
G36*
X2095000D02*
X2078054D01*
X2078805Y2841221D01*
X2083778Y2833778D01*
X2091221Y2828805D01*
X2095000Y2828054D01*
Y2845000D01*
D02*
G37*
G36*
X1971946D02*
X1955000D01*
Y2828054D01*
X1958779Y2828805D01*
X1966222Y2833778D01*
X1971195Y2841221D01*
X1971946Y2845000D01*
D02*
G37*
G36*
X1945000D02*
X1928054D01*
X1928805Y2841221D01*
X1933778Y2833778D01*
X1941221Y2828805D01*
X1945000Y2828054D01*
Y2845000D01*
D02*
G37*
G36*
X4430000Y2721946D02*
Y2705000D01*
X4446946D01*
X4446194Y2708779D01*
X4441222Y2716222D01*
X4433779Y2721195D01*
X4430000Y2721946D01*
D02*
G37*
G36*
X4420000D02*
X4416221Y2721195D01*
X4408778Y2716222D01*
X4403806Y2708779D01*
X4403054Y2705000D01*
X4420000D01*
Y2721946D01*
D02*
G37*
G36*
X4280000D02*
Y2705000D01*
X4296946D01*
X4296194Y2708779D01*
X4291222Y2716222D01*
X4283779Y2721195D01*
X4280000Y2721946D01*
D02*
G37*
G36*
X4270000D02*
X4266221Y2721195D01*
X4258778Y2716222D01*
X4253806Y2708779D01*
X4253054Y2705000D01*
X4270000D01*
Y2721946D01*
D02*
G37*
G36*
X3830000D02*
Y2705000D01*
X3846946D01*
X3846195Y2708779D01*
X3841222Y2716222D01*
X3833779Y2721195D01*
X3830000Y2721946D01*
D02*
G37*
G36*
X3820000D02*
X3816221Y2721195D01*
X3808778Y2716222D01*
X3803805Y2708779D01*
X3803054Y2705000D01*
X3820000D01*
Y2721946D01*
D02*
G37*
G36*
X2780000D02*
Y2705000D01*
X2796946D01*
X2796195Y2708779D01*
X2791222Y2716222D01*
X2783779Y2721195D01*
X2780000Y2721946D01*
D02*
G37*
G36*
X2770000D02*
X2766221Y2721195D01*
X2758778Y2716222D01*
X2753805Y2708779D01*
X2753054Y2705000D01*
X2770000D01*
Y2721946D01*
D02*
G37*
G36*
X2630000D02*
Y2705000D01*
X2646946D01*
X2646195Y2708779D01*
X2641222Y2716222D01*
X2633779Y2721195D01*
X2630000Y2721946D01*
D02*
G37*
G36*
X2620000D02*
X2616221Y2721195D01*
X2608778Y2716222D01*
X2603805Y2708779D01*
X2603054Y2705000D01*
X2620000D01*
Y2721946D01*
D02*
G37*
G36*
X2330000D02*
Y2705000D01*
X2346946D01*
X2346195Y2708779D01*
X2341222Y2716222D01*
X2333779Y2721195D01*
X2330000Y2721946D01*
D02*
G37*
G36*
X2320000D02*
X2316221Y2721195D01*
X2308778Y2716222D01*
X2303805Y2708779D01*
X2303054Y2705000D01*
X2320000D01*
Y2721946D01*
D02*
G37*
G36*
X2180000D02*
Y2705000D01*
X2196946D01*
X2196195Y2708779D01*
X2191222Y2716222D01*
X2183779Y2721195D01*
X2180000Y2721946D01*
D02*
G37*
G36*
X2170000D02*
X2166221Y2721195D01*
X2158778Y2716222D01*
X2153805Y2708779D01*
X2153054Y2705000D01*
X2170000D01*
Y2721946D01*
D02*
G37*
G36*
X2030000D02*
Y2705000D01*
X2046946D01*
X2046195Y2708779D01*
X2041222Y2716222D01*
X2033779Y2721195D01*
X2030000Y2721946D01*
D02*
G37*
G36*
X2020000D02*
X2016221Y2721195D01*
X2008778Y2716222D01*
X2003805Y2708779D01*
X2003054Y2705000D01*
X2020000D01*
Y2721946D01*
D02*
G37*
G36*
X1880000D02*
Y2705000D01*
X1896946D01*
X1896195Y2708779D01*
X1891222Y2716222D01*
X1883779Y2721195D01*
X1880000Y2721946D01*
D02*
G37*
G36*
X3156575Y2707205D02*
X3125000D01*
Y2683504D01*
X3156575D01*
Y2707205D01*
D02*
G37*
G36*
X3115000D02*
X3083425D01*
Y2683504D01*
X3115000D01*
Y2707205D01*
D02*
G37*
G36*
X3056575D02*
X3025000D01*
Y2683504D01*
X3056575D01*
Y2707205D01*
D02*
G37*
G36*
X3015000D02*
X2983425D01*
Y2683504D01*
X3015000D01*
Y2707205D01*
D02*
G37*
G36*
X4446946Y2695000D02*
X4430000D01*
Y2678054D01*
X4433779Y2678805D01*
X4441222Y2683778D01*
X4446194Y2691221D01*
X4446946Y2695000D01*
D02*
G37*
G36*
X4420000D02*
X4403054D01*
X4403806Y2691221D01*
X4408778Y2683778D01*
X4416221Y2678805D01*
X4420000Y2678054D01*
Y2695000D01*
D02*
G37*
G36*
X4296946D02*
X4280000D01*
Y2678054D01*
X4283779Y2678805D01*
X4291222Y2683778D01*
X4296194Y2691221D01*
X4296946Y2695000D01*
D02*
G37*
G36*
X4270000D02*
X4253054D01*
X4253806Y2691221D01*
X4258778Y2683778D01*
X4266221Y2678805D01*
X4270000Y2678054D01*
Y2695000D01*
D02*
G37*
G36*
X3846946D02*
X3830000D01*
Y2678054D01*
X3833779Y2678805D01*
X3841222Y2683778D01*
X3846195Y2691221D01*
X3846946Y2695000D01*
D02*
G37*
G36*
X3820000D02*
X3803054D01*
X3803805Y2691221D01*
X3808778Y2683778D01*
X3816221Y2678805D01*
X3820000Y2678054D01*
Y2695000D01*
D02*
G37*
G36*
X2796946D02*
X2780000D01*
Y2678054D01*
X2783779Y2678805D01*
X2791222Y2683778D01*
X2796195Y2691221D01*
X2796946Y2695000D01*
D02*
G37*
G36*
X2770000D02*
X2753054D01*
X2753805Y2691221D01*
X2758778Y2683778D01*
X2766221Y2678805D01*
X2770000Y2678054D01*
Y2695000D01*
D02*
G37*
G36*
X2646946D02*
X2630000D01*
Y2678054D01*
X2633779Y2678805D01*
X2641222Y2683778D01*
X2646195Y2691221D01*
X2646946Y2695000D01*
D02*
G37*
G36*
X2620000D02*
X2603054D01*
X2603805Y2691221D01*
X2608778Y2683778D01*
X2616221Y2678805D01*
X2620000Y2678054D01*
Y2695000D01*
D02*
G37*
G36*
X2346946D02*
X2330000D01*
Y2678054D01*
X2333779Y2678805D01*
X2341222Y2683778D01*
X2346195Y2691221D01*
X2346946Y2695000D01*
D02*
G37*
G36*
X2320000D02*
X2303054D01*
X2303805Y2691221D01*
X2308778Y2683778D01*
X2316221Y2678805D01*
X2320000Y2678054D01*
Y2695000D01*
D02*
G37*
G36*
X2196946D02*
X2180000D01*
Y2678054D01*
X2183779Y2678805D01*
X2191222Y2683778D01*
X2196195Y2691221D01*
X2196946Y2695000D01*
D02*
G37*
G36*
X2170000D02*
X2153054D01*
X2153805Y2691221D01*
X2158778Y2683778D01*
X2166221Y2678805D01*
X2170000Y2678054D01*
Y2695000D01*
D02*
G37*
G36*
X2046946D02*
X2030000D01*
Y2678054D01*
X2033779Y2678805D01*
X2041222Y2683778D01*
X2046195Y2691221D01*
X2046946Y2695000D01*
D02*
G37*
G36*
X2020000D02*
X2003054D01*
X2003805Y2691221D01*
X2008778Y2683778D01*
X2016221Y2678805D01*
X2020000Y2678054D01*
Y2695000D01*
D02*
G37*
G36*
X1896946D02*
X1880000D01*
Y2678054D01*
X1883779Y2678805D01*
X1891222Y2683778D01*
X1896195Y2691221D01*
X1896946Y2695000D01*
D02*
G37*
G36*
X3156575Y2673504D02*
X3125000D01*
Y2649803D01*
X3156575D01*
Y2673504D01*
D02*
G37*
G36*
X3115000D02*
X3083425D01*
Y2649803D01*
X3115000D01*
Y2673504D01*
D02*
G37*
G36*
X3056575D02*
X3025000D01*
Y2649803D01*
X3056575D01*
Y2673504D01*
D02*
G37*
G36*
X3015000D02*
X2983425D01*
Y2649803D01*
X3015000D01*
Y2673504D01*
D02*
G37*
G36*
X4355000Y2571946D02*
Y2555000D01*
X4371946D01*
X4371194Y2558779D01*
X4366222Y2566222D01*
X4358779Y2571195D01*
X4355000Y2571946D01*
D02*
G37*
G36*
X4345000D02*
X4341221Y2571195D01*
X4333778Y2566222D01*
X4328806Y2558779D01*
X4328054Y2555000D01*
X4345000D01*
Y2571946D01*
D02*
G37*
G36*
X3905000D02*
Y2555000D01*
X3921946D01*
X3921195Y2558779D01*
X3916222Y2566222D01*
X3908779Y2571195D01*
X3905000Y2571946D01*
D02*
G37*
G36*
X3895000D02*
X3891221Y2571195D01*
X3883778Y2566222D01*
X3878805Y2558779D01*
X3878054Y2555000D01*
X3895000D01*
Y2571946D01*
D02*
G37*
G36*
X3755000D02*
Y2555000D01*
X3771946D01*
X3771195Y2558779D01*
X3766222Y2566222D01*
X3758779Y2571195D01*
X3755000Y2571946D01*
D02*
G37*
G36*
X3745000D02*
X3741221Y2571195D01*
X3733778Y2566222D01*
X3728805Y2558779D01*
X3728054Y2555000D01*
X3745000D01*
Y2571946D01*
D02*
G37*
G36*
X3155000D02*
Y2555000D01*
X3171946D01*
X3171195Y2558779D01*
X3166222Y2566222D01*
X3158779Y2571195D01*
X3155000Y2571946D01*
D02*
G37*
G36*
X3145000D02*
X3141221Y2571195D01*
X3133778Y2566222D01*
X3128805Y2558779D01*
X3128054Y2555000D01*
X3145000D01*
Y2571946D01*
D02*
G37*
G36*
X3005000D02*
Y2555000D01*
X3021946D01*
X3021195Y2558779D01*
X3016222Y2566222D01*
X3008779Y2571195D01*
X3005000Y2571946D01*
D02*
G37*
G36*
X2995000D02*
X2991221Y2571195D01*
X2983778Y2566222D01*
X2978805Y2558779D01*
X2978054Y2555000D01*
X2995000D01*
Y2571946D01*
D02*
G37*
G36*
X2255000D02*
Y2555000D01*
X2271946D01*
X2271195Y2558779D01*
X2266222Y2566222D01*
X2258779Y2571195D01*
X2255000Y2571946D01*
D02*
G37*
G36*
X2245000D02*
X2241221Y2571195D01*
X2233778Y2566222D01*
X2228805Y2558779D01*
X2228054Y2555000D01*
X2245000D01*
Y2571946D01*
D02*
G37*
G36*
X2105000D02*
Y2555000D01*
X2121946D01*
X2121195Y2558779D01*
X2116222Y2566222D01*
X2108779Y2571195D01*
X2105000Y2571946D01*
D02*
G37*
G36*
X2095000D02*
X2091221Y2571195D01*
X2083778Y2566222D01*
X2078805Y2558779D01*
X2078054Y2555000D01*
X2095000D01*
Y2571946D01*
D02*
G37*
G36*
X1955000D02*
Y2555000D01*
X1971946D01*
X1971195Y2558779D01*
X1966222Y2566222D01*
X1958779Y2571195D01*
X1955000Y2571946D01*
D02*
G37*
G36*
X1945000D02*
X1941221Y2571195D01*
X1933778Y2566222D01*
X1928805Y2558779D01*
X1928054Y2555000D01*
X1945000D01*
Y2571946D01*
D02*
G37*
G36*
X4371946Y2545000D02*
X4355000D01*
Y2528054D01*
X4358779Y2528805D01*
X4366222Y2533778D01*
X4371194Y2541221D01*
X4371946Y2545000D01*
D02*
G37*
G36*
X4345000D02*
X4328054D01*
X4328806Y2541221D01*
X4333778Y2533778D01*
X4341221Y2528805D01*
X4345000Y2528054D01*
Y2545000D01*
D02*
G37*
G36*
X3921946D02*
X3905000D01*
Y2528054D01*
X3908779Y2528805D01*
X3916222Y2533778D01*
X3921195Y2541221D01*
X3921946Y2545000D01*
D02*
G37*
G36*
X3895000D02*
X3878054D01*
X3878805Y2541221D01*
X3883778Y2533778D01*
X3891221Y2528805D01*
X3895000Y2528054D01*
Y2545000D01*
D02*
G37*
G36*
X3771946D02*
X3755000D01*
Y2528054D01*
X3758779Y2528805D01*
X3766222Y2533778D01*
X3771195Y2541221D01*
X3771946Y2545000D01*
D02*
G37*
G36*
X3745000D02*
X3728054D01*
X3728805Y2541221D01*
X3733778Y2533778D01*
X3741221Y2528805D01*
X3745000Y2528054D01*
Y2545000D01*
D02*
G37*
G36*
X3171946D02*
X3155000D01*
Y2528054D01*
X3158779Y2528805D01*
X3166222Y2533778D01*
X3171195Y2541221D01*
X3171946Y2545000D01*
D02*
G37*
G36*
X3145000D02*
X3128054D01*
X3128805Y2541221D01*
X3133778Y2533778D01*
X3141221Y2528805D01*
X3145000Y2528054D01*
Y2545000D01*
D02*
G37*
G36*
X3021946D02*
X3005000D01*
Y2528054D01*
X3008779Y2528805D01*
X3016222Y2533778D01*
X3021195Y2541221D01*
X3021946Y2545000D01*
D02*
G37*
G36*
X2995000D02*
X2978054D01*
X2978805Y2541221D01*
X2983778Y2533778D01*
X2991221Y2528805D01*
X2995000Y2528054D01*
Y2545000D01*
D02*
G37*
G36*
X2271946D02*
X2255000D01*
Y2528054D01*
X2258779Y2528805D01*
X2266222Y2533778D01*
X2271195Y2541221D01*
X2271946Y2545000D01*
D02*
G37*
G36*
X2245000D02*
X2228054D01*
X2228805Y2541221D01*
X2233778Y2533778D01*
X2241221Y2528805D01*
X2245000Y2528054D01*
Y2545000D01*
D02*
G37*
G36*
X2121946D02*
X2105000D01*
Y2528054D01*
X2108779Y2528805D01*
X2116222Y2533778D01*
X2121195Y2541221D01*
X2121946Y2545000D01*
D02*
G37*
G36*
X2095000D02*
X2078054D01*
X2078805Y2541221D01*
X2083778Y2533778D01*
X2091221Y2528805D01*
X2095000Y2528054D01*
Y2545000D01*
D02*
G37*
G36*
X1971946D02*
X1955000D01*
Y2528054D01*
X1958779Y2528805D01*
X1966222Y2533778D01*
X1971195Y2541221D01*
X1971946Y2545000D01*
D02*
G37*
G36*
X2571929Y2500392D02*
X2564126Y2498840D01*
X2557510Y2494419D01*
X2553090Y2487804D01*
X2551537Y2480000D01*
X2552528Y2475018D01*
X2542706Y2465196D01*
X2450000D01*
X2446098Y2464420D01*
X2442790Y2462210D01*
X2422790Y2442210D01*
X2420580Y2438902D01*
X2419804Y2435000D01*
Y2269175D01*
X2414804Y2267169D01*
X2408779Y2271195D01*
X2405000Y2271946D01*
Y2250000D01*
Y2228054D01*
X2408779Y2228805D01*
X2414804Y2232831D01*
X2419804Y2230825D01*
Y2180000D01*
X2420580Y2176098D01*
X2422790Y2172790D01*
X2469282Y2126299D01*
X2467830Y2121515D01*
X2466221Y2121195D01*
X2458778Y2116222D01*
X2453805Y2108779D01*
X2453054Y2105000D01*
X2475000D01*
Y2100000D01*
X2480000D01*
Y2078054D01*
X2483779Y2078805D01*
X2491222Y2083778D01*
X2496195Y2091221D01*
X2496515Y2092830D01*
X2501299Y2094282D01*
X2634286Y1961294D01*
X2637594Y1959084D01*
X2641496Y1958308D01*
X2921357D01*
X2923401Y1953375D01*
X2928210Y1947108D01*
X2934477Y1942299D01*
X2941774Y1939276D01*
X2949606Y1938245D01*
X2957438Y1939276D01*
X2964735Y1942299D01*
X2971002Y1947108D01*
X2975811Y1953375D01*
X2978834Y1960672D01*
X2979865Y1968504D01*
X2978834Y1976336D01*
X2975811Y1983633D01*
X2971002Y1989900D01*
X2964735Y1994709D01*
X2957438Y1997732D01*
X2949606Y1998763D01*
X2941774Y1997732D01*
X2934477Y1994709D01*
X2928210Y1989900D01*
X2923401Y1983633D01*
X2921357Y1978700D01*
X2645719D01*
X2440196Y2184223D01*
Y2343425D01*
X2463504D01*
Y2380000D01*
Y2416575D01*
X2440196D01*
Y2430777D01*
X2454223Y2444804D01*
X2546929D01*
X2550831Y2445580D01*
X2554139Y2447790D01*
X2566948Y2460599D01*
X2571929Y2459608D01*
X2579733Y2461160D01*
X2586348Y2465581D01*
X2590769Y2472196D01*
X2592321Y2480000D01*
X2590769Y2487804D01*
X2586348Y2494419D01*
X2579733Y2498840D01*
X2571929Y2500392D01*
D02*
G37*
G36*
X4280000Y2421946D02*
Y2405000D01*
X4296946D01*
X4296194Y2408779D01*
X4291222Y2416222D01*
X4283779Y2421195D01*
X4280000Y2421946D01*
D02*
G37*
G36*
X4270000D02*
X4266221Y2421195D01*
X4258778Y2416222D01*
X4253806Y2408779D01*
X4253054Y2405000D01*
X4270000D01*
Y2421946D01*
D02*
G37*
G36*
X3980000D02*
Y2405000D01*
X3996946D01*
X3996195Y2408779D01*
X3991222Y2416222D01*
X3983779Y2421195D01*
X3980000Y2421946D01*
D02*
G37*
G36*
X3970000D02*
X3966221Y2421195D01*
X3958778Y2416222D01*
X3953805Y2408779D01*
X3953054Y2405000D01*
X3970000D01*
Y2421946D01*
D02*
G37*
G36*
X3830000D02*
Y2405000D01*
X3846946D01*
X3846195Y2408779D01*
X3841222Y2416222D01*
X3833779Y2421195D01*
X3830000Y2421946D01*
D02*
G37*
G36*
X3820000D02*
X3816221Y2421195D01*
X3808778Y2416222D01*
X3803805Y2408779D01*
X3803054Y2405000D01*
X3820000D01*
Y2421946D01*
D02*
G37*
G36*
X3080000D02*
Y2405000D01*
X3096946D01*
X3096195Y2408779D01*
X3091222Y2416222D01*
X3083779Y2421195D01*
X3080000Y2421946D01*
D02*
G37*
G36*
X3070000D02*
X3066221Y2421195D01*
X3058778Y2416222D01*
X3053805Y2408779D01*
X3053054Y2405000D01*
X3070000D01*
Y2421946D01*
D02*
G37*
G36*
X2330000D02*
Y2405000D01*
X2346946D01*
X2346195Y2408779D01*
X2341222Y2416222D01*
X2333779Y2421195D01*
X2330000Y2421946D01*
D02*
G37*
G36*
X2320000D02*
X2316221Y2421195D01*
X2308778Y2416222D01*
X2303805Y2408779D01*
X2303054Y2405000D01*
X2320000D01*
Y2421946D01*
D02*
G37*
G36*
X2180000D02*
Y2405000D01*
X2196946D01*
X2196195Y2408779D01*
X2191222Y2416222D01*
X2183779Y2421195D01*
X2180000Y2421946D01*
D02*
G37*
G36*
X2170000D02*
X2166221Y2421195D01*
X2158778Y2416222D01*
X2153805Y2408779D01*
X2153054Y2405000D01*
X2170000D01*
Y2421946D01*
D02*
G37*
G36*
X2030000D02*
Y2405000D01*
X2046946D01*
X2046195Y2408779D01*
X2041222Y2416222D01*
X2033779Y2421195D01*
X2030000Y2421946D01*
D02*
G37*
G36*
X2497205Y2416575D02*
X2473504D01*
Y2385000D01*
X2497205D01*
Y2416575D01*
D02*
G37*
G36*
X4296946Y2395000D02*
X4280000D01*
Y2378054D01*
X4283779Y2378805D01*
X4291222Y2383778D01*
X4296194Y2391221D01*
X4296946Y2395000D01*
D02*
G37*
G36*
X4270000D02*
X4253054D01*
X4253806Y2391221D01*
X4258778Y2383778D01*
X4266221Y2378805D01*
X4270000Y2378054D01*
Y2395000D01*
D02*
G37*
G36*
X3996946D02*
X3980000D01*
Y2378054D01*
X3983779Y2378805D01*
X3991222Y2383778D01*
X3996195Y2391221D01*
X3996946Y2395000D01*
D02*
G37*
G36*
X3970000D02*
X3953054D01*
X3953805Y2391221D01*
X3958778Y2383778D01*
X3966221Y2378805D01*
X3970000Y2378054D01*
Y2395000D01*
D02*
G37*
G36*
X3846946D02*
X3830000D01*
Y2378054D01*
X3833779Y2378805D01*
X3841222Y2383778D01*
X3846195Y2391221D01*
X3846946Y2395000D01*
D02*
G37*
G36*
X3820000D02*
X3803054D01*
X3803805Y2391221D01*
X3808778Y2383778D01*
X3816221Y2378805D01*
X3820000Y2378054D01*
Y2395000D01*
D02*
G37*
G36*
X3096946D02*
X3080000D01*
Y2378054D01*
X3083779Y2378805D01*
X3091222Y2383778D01*
X3096195Y2391221D01*
X3096946Y2395000D01*
D02*
G37*
G36*
X3070000D02*
X3053054D01*
X3053805Y2391221D01*
X3058778Y2383778D01*
X3066221Y2378805D01*
X3070000Y2378054D01*
Y2395000D01*
D02*
G37*
G36*
X2346946D02*
X2330000D01*
Y2378054D01*
X2333779Y2378805D01*
X2341222Y2383778D01*
X2346195Y2391221D01*
X2346946Y2395000D01*
D02*
G37*
G36*
X2320000D02*
X2303054D01*
X2303805Y2391221D01*
X2308778Y2383778D01*
X2316221Y2378805D01*
X2320000Y2378054D01*
Y2395000D01*
D02*
G37*
G36*
X2196946D02*
X2180000D01*
Y2378054D01*
X2183779Y2378805D01*
X2191222Y2383778D01*
X2196195Y2391221D01*
X2196946Y2395000D01*
D02*
G37*
G36*
X2170000D02*
X2153054D01*
X2153805Y2391221D01*
X2158778Y2383778D01*
X2166221Y2378805D01*
X2170000Y2378054D01*
Y2395000D01*
D02*
G37*
G36*
X2497205Y2375000D02*
X2473504D01*
Y2343425D01*
X2497205D01*
Y2375000D01*
D02*
G37*
G36*
X4205000Y2271946D02*
Y2255000D01*
X4221946D01*
X4221194Y2258779D01*
X4216222Y2266222D01*
X4208779Y2271195D01*
X4205000Y2271946D01*
D02*
G37*
G36*
X4195000D02*
X4191221Y2271195D01*
X4183778Y2266222D01*
X4178806Y2258779D01*
X4178054Y2255000D01*
X4195000D01*
Y2271946D01*
D02*
G37*
G36*
X3905000D02*
Y2255000D01*
X3921946D01*
X3921195Y2258779D01*
X3916222Y2266222D01*
X3908779Y2271195D01*
X3905000Y2271946D01*
D02*
G37*
G36*
X3895000D02*
X3891221Y2271195D01*
X3883778Y2266222D01*
X3878805Y2258779D01*
X3878054Y2255000D01*
X3895000D01*
Y2271946D01*
D02*
G37*
G36*
X3755000D02*
Y2255000D01*
X3771946D01*
X3771195Y2258779D01*
X3766222Y2266222D01*
X3758779Y2271195D01*
X3755000Y2271946D01*
D02*
G37*
G36*
X3745000D02*
X3741221Y2271195D01*
X3733778Y2266222D01*
X3728805Y2258779D01*
X3728054Y2255000D01*
X3745000D01*
Y2271946D01*
D02*
G37*
G36*
X3605000D02*
Y2255000D01*
X3621946D01*
X3621195Y2258779D01*
X3616222Y2266222D01*
X3608779Y2271195D01*
X3605000Y2271946D01*
D02*
G37*
G36*
X3595000D02*
X3591221Y2271195D01*
X3583778Y2266222D01*
X3578805Y2258779D01*
X3578054Y2255000D01*
X3595000D01*
Y2271946D01*
D02*
G37*
G36*
X3305000D02*
Y2255000D01*
X3321946D01*
X3321195Y2258779D01*
X3316222Y2266222D01*
X3308779Y2271195D01*
X3305000Y2271946D01*
D02*
G37*
G36*
X3295000D02*
X3291221Y2271195D01*
X3283778Y2266222D01*
X3278805Y2258779D01*
X3278054Y2255000D01*
X3295000D01*
Y2271946D01*
D02*
G37*
G36*
X2855000D02*
Y2255000D01*
X2871946D01*
X2871195Y2258779D01*
X2866222Y2266222D01*
X2858779Y2271195D01*
X2855000Y2271946D01*
D02*
G37*
G36*
X2845000D02*
X2841221Y2271195D01*
X2833778Y2266222D01*
X2828805Y2258779D01*
X2828054Y2255000D01*
X2845000D01*
Y2271946D01*
D02*
G37*
G36*
X2555000D02*
Y2255000D01*
X2571946D01*
X2571195Y2258779D01*
X2566222Y2266222D01*
X2558779Y2271195D01*
X2555000Y2271946D01*
D02*
G37*
G36*
X2545000D02*
X2541221Y2271195D01*
X2533778Y2266222D01*
X2528805Y2258779D01*
X2528054Y2255000D01*
X2545000D01*
Y2271946D01*
D02*
G37*
G36*
X2395000D02*
X2391221Y2271195D01*
X2383778Y2266222D01*
X2378805Y2258779D01*
X2378054Y2255000D01*
X2395000D01*
Y2271946D01*
D02*
G37*
G36*
X4195000Y2245000D02*
X4178054D01*
X4178806Y2241221D01*
X4183778Y2233778D01*
X4191221Y2228805D01*
X4195000Y2228054D01*
Y2245000D01*
D02*
G37*
G36*
X3921946D02*
X3905000D01*
Y2228054D01*
X3908779Y2228805D01*
X3916222Y2233778D01*
X3921195Y2241221D01*
X3921946Y2245000D01*
D02*
G37*
G36*
X3895000D02*
X3878054D01*
X3878805Y2241221D01*
X3883778Y2233778D01*
X3891221Y2228805D01*
X3895000Y2228054D01*
Y2245000D01*
D02*
G37*
G36*
X3771946D02*
X3755000D01*
Y2228054D01*
X3758779Y2228805D01*
X3766222Y2233778D01*
X3771195Y2241221D01*
X3771946Y2245000D01*
D02*
G37*
G36*
X3745000D02*
X3728054D01*
X3728805Y2241221D01*
X3733778Y2233778D01*
X3741221Y2228805D01*
X3745000Y2228054D01*
Y2245000D01*
D02*
G37*
G36*
X3621946D02*
X3605000D01*
Y2228054D01*
X3608779Y2228805D01*
X3616222Y2233778D01*
X3621195Y2241221D01*
X3621946Y2245000D01*
D02*
G37*
G36*
X3595000D02*
X3578054D01*
X3578805Y2241221D01*
X3583778Y2233778D01*
X3591221Y2228805D01*
X3595000Y2228054D01*
Y2245000D01*
D02*
G37*
G36*
X3321946D02*
X3305000D01*
Y2228054D01*
X3308779Y2228805D01*
X3316222Y2233778D01*
X3321195Y2241221D01*
X3321946Y2245000D01*
D02*
G37*
G36*
X3295000D02*
X3278054D01*
X3278805Y2241221D01*
X3283778Y2233778D01*
X3291221Y2228805D01*
X3295000Y2228054D01*
Y2245000D01*
D02*
G37*
G36*
X2871946D02*
X2855000D01*
Y2228054D01*
X2858779Y2228805D01*
X2866222Y2233778D01*
X2871195Y2241221D01*
X2871946Y2245000D01*
D02*
G37*
G36*
X2845000D02*
X2828054D01*
X2828805Y2241221D01*
X2833778Y2233778D01*
X2841221Y2228805D01*
X2845000Y2228054D01*
Y2245000D01*
D02*
G37*
G36*
X2571946D02*
X2555000D01*
Y2228054D01*
X2558779Y2228805D01*
X2566222Y2233778D01*
X2571195Y2241221D01*
X2571946Y2245000D01*
D02*
G37*
G36*
X2545000D02*
X2528054D01*
X2528805Y2241221D01*
X2533778Y2233778D01*
X2541221Y2228805D01*
X2545000Y2228054D01*
Y2245000D01*
D02*
G37*
G36*
X2395000D02*
X2378054D01*
X2378805Y2241221D01*
X2383778Y2233778D01*
X2391221Y2228805D01*
X2395000Y2228054D01*
Y2245000D01*
D02*
G37*
G36*
X3980000Y2121946D02*
Y2105000D01*
X3996946D01*
X3996195Y2108779D01*
X3991222Y2116222D01*
X3983779Y2121195D01*
X3980000Y2121946D01*
D02*
G37*
G36*
X3970000D02*
X3966221Y2121195D01*
X3958778Y2116222D01*
X3953805Y2108779D01*
X3953054Y2105000D01*
X3970000D01*
Y2121946D01*
D02*
G37*
G36*
X3830000D02*
Y2105000D01*
X3846946D01*
X3846195Y2108779D01*
X3841222Y2116222D01*
X3833779Y2121195D01*
X3830000Y2121946D01*
D02*
G37*
G36*
X3820000D02*
X3816221Y2121195D01*
X3808778Y2116222D01*
X3803805Y2108779D01*
X3803054Y2105000D01*
X3820000D01*
Y2121946D01*
D02*
G37*
G36*
X3680000D02*
Y2105000D01*
X3696946D01*
X3696195Y2108779D01*
X3691222Y2116222D01*
X3683779Y2121195D01*
X3680000Y2121946D01*
D02*
G37*
G36*
X3670000D02*
X3666221Y2121195D01*
X3658778Y2116222D01*
X3653805Y2108779D01*
X3653054Y2105000D01*
X3670000D01*
Y2121946D01*
D02*
G37*
G36*
X3523268Y2165590D02*
X3479803D01*
Y2145196D01*
X3140000D01*
X3136098Y2144420D01*
X3132790Y2142210D01*
X3092790Y2102210D01*
X3090580Y2098902D01*
X3089804Y2095000D01*
Y2023121D01*
X3062371Y1995688D01*
X3057438Y1997732D01*
X3049606Y1998763D01*
X3041774Y1997732D01*
X3034477Y1994709D01*
X3028210Y1989900D01*
X3023401Y1983633D01*
X3020378Y1976336D01*
X3019347Y1968504D01*
X3020378Y1960672D01*
X3023401Y1953375D01*
X3028210Y1947108D01*
X3034477Y1942299D01*
X3041774Y1939276D01*
X3049606Y1938245D01*
X3057438Y1939276D01*
X3064735Y1942299D01*
X3071002Y1947108D01*
X3075811Y1953375D01*
X3078834Y1960672D01*
X3079865Y1968504D01*
X3078834Y1976336D01*
X3076790Y1981269D01*
X3107210Y2011688D01*
X3109420Y2014996D01*
X3110196Y2018898D01*
Y2090777D01*
X3144223Y2124804D01*
X3479803D01*
Y2104410D01*
X3523268D01*
Y2165590D01*
D02*
G37*
G36*
X3996946Y2095000D02*
X3980000D01*
Y2078054D01*
X3983779Y2078805D01*
X3991222Y2083778D01*
X3996195Y2091221D01*
X3996946Y2095000D01*
D02*
G37*
G36*
X3970000D02*
X3953054D01*
X3953805Y2091221D01*
X3958778Y2083778D01*
X3966221Y2078805D01*
X3970000Y2078054D01*
Y2095000D01*
D02*
G37*
G36*
X3846946D02*
X3830000D01*
Y2078054D01*
X3833779Y2078805D01*
X3841222Y2083778D01*
X3846195Y2091221D01*
X3846946Y2095000D01*
D02*
G37*
G36*
X3820000D02*
X3803054D01*
X3803805Y2091221D01*
X3808778Y2083778D01*
X3816221Y2078805D01*
X3820000Y2078054D01*
Y2095000D01*
D02*
G37*
G36*
X2470000D02*
X2453054D01*
X2453805Y2091221D01*
X2458778Y2083778D01*
X2466221Y2078805D01*
X2470000Y2078054D01*
Y2095000D01*
D02*
G37*
G36*
X3696946D02*
X3653054D01*
X3653805Y2091221D01*
X3656492Y2087200D01*
X3653820Y2082200D01*
X3650000D01*
Y2058499D01*
X3681575D01*
Y2078367D01*
X3683779Y2078805D01*
X3691222Y2083778D01*
X3696195Y2091221D01*
X3696946Y2095000D01*
D02*
G37*
G36*
X3640000Y2082200D02*
X3608425D01*
Y2058499D01*
X3640000D01*
Y2082200D01*
D02*
G37*
G36*
X3049606Y2098763D02*
X3041774Y2097732D01*
X3034477Y2094709D01*
X3028210Y2089900D01*
X3023401Y2083633D01*
X3020378Y2076336D01*
X3019347Y2068504D01*
X3020378Y2060672D01*
X3023401Y2053375D01*
X3028210Y2047108D01*
X3034477Y2042299D01*
X3041774Y2039276D01*
X3049606Y2038245D01*
X3057438Y2039276D01*
X3064735Y2042299D01*
X3071002Y2047108D01*
X3075811Y2053375D01*
X3078834Y2060672D01*
X3079865Y2068504D01*
X3078834Y2076336D01*
X3075811Y2083633D01*
X3071002Y2089900D01*
X3064735Y2094709D01*
X3057438Y2097732D01*
X3049606Y2098763D01*
D02*
G37*
G36*
X2625000Y2350392D02*
X2617196Y2348840D01*
X2610581Y2344419D01*
X2606160Y2337804D01*
X2604608Y2330000D01*
X2606160Y2322196D01*
X2610581Y2315581D01*
X2614804Y2312759D01*
Y2152559D01*
X2615580Y2148657D01*
X2617790Y2145349D01*
X2701845Y2061294D01*
X2705153Y2059084D01*
X2709055Y2058308D01*
X2921357D01*
X2923401Y2053375D01*
X2928210Y2047108D01*
X2934477Y2042299D01*
X2941774Y2039276D01*
X2949606Y2038245D01*
X2957438Y2039276D01*
X2964735Y2042299D01*
X2971002Y2047108D01*
X2975811Y2053375D01*
X2978834Y2060672D01*
X2979865Y2068504D01*
X2978834Y2076336D01*
X2975811Y2083633D01*
X2971002Y2089900D01*
X2964735Y2094709D01*
X2957438Y2097732D01*
X2949606Y2098763D01*
X2941774Y2097732D01*
X2934477Y2094709D01*
X2928210Y2089900D01*
X2923401Y2083633D01*
X2921357Y2078700D01*
X2713278D01*
X2635196Y2156782D01*
Y2312759D01*
X2639419Y2315581D01*
X2643840Y2322196D01*
X2645392Y2330000D01*
X2643840Y2337804D01*
X2639419Y2344419D01*
X2632804Y2348840D01*
X2625000Y2350392D01*
D02*
G37*
G36*
X3349606Y2098763D02*
X3341774Y2097732D01*
X3334477Y2094709D01*
X3328210Y2089900D01*
X3323401Y2083633D01*
X3320378Y2076336D01*
X3319347Y2068504D01*
X3320378Y2060672D01*
X3323401Y2053375D01*
X3328210Y2047108D01*
X3334477Y2042299D01*
X3339554Y2040196D01*
X3338559Y2035196D01*
X3260653D01*
X3259658Y2040196D01*
X3264735Y2042299D01*
X3271002Y2047108D01*
X3275811Y2053375D01*
X3278834Y2060672D01*
X3279865Y2068504D01*
X3278834Y2076336D01*
X3275811Y2083633D01*
X3271002Y2089900D01*
X3264735Y2094709D01*
X3257438Y2097732D01*
X3249606Y2098763D01*
X3241774Y2097732D01*
X3234477Y2094709D01*
X3228210Y2089900D01*
X3223401Y2083633D01*
X3220378Y2076336D01*
X3219347Y2068504D01*
X3220378Y2060672D01*
X3223401Y2053375D01*
X3228210Y2047108D01*
X3234477Y2042299D01*
X3239554Y2040196D01*
X3238559Y2035196D01*
X3197333D01*
X3176790Y2055739D01*
X3178834Y2060672D01*
X3179865Y2068504D01*
X3178834Y2076336D01*
X3175811Y2083633D01*
X3171002Y2089900D01*
X3164735Y2094709D01*
X3157438Y2097732D01*
X3149606Y2098763D01*
X3141774Y2097732D01*
X3134477Y2094709D01*
X3128210Y2089900D01*
X3123401Y2083633D01*
X3120378Y2076336D01*
X3119347Y2068504D01*
X3120378Y2060672D01*
X3123401Y2053375D01*
X3128210Y2047108D01*
X3134477Y2042299D01*
X3141774Y2039276D01*
X3149606Y2038245D01*
X3157438Y2039276D01*
X3162371Y2041320D01*
X3185900Y2017790D01*
X3189208Y2015580D01*
X3193110Y2014804D01*
X3393218D01*
X3439404Y1968618D01*
X3442712Y1966407D01*
X3446614Y1965631D01*
X3461772D01*
Y1953268D01*
X3486535D01*
X3511299D01*
Y1967126D01*
X3506299D01*
Y1989685D01*
X3466772D01*
Y1986023D01*
X3450837D01*
X3404651Y2032210D01*
X3401343Y2034420D01*
X3397441Y2035196D01*
X3360653D01*
X3359658Y2040196D01*
X3364735Y2042299D01*
X3371002Y2047108D01*
X3375811Y2053375D01*
X3378834Y2060672D01*
X3379865Y2068504D01*
X3378834Y2076336D01*
X3375811Y2083633D01*
X3371002Y2089900D01*
X3364735Y2094709D01*
X3357438Y2097732D01*
X3349606Y2098763D01*
D02*
G37*
G36*
X3681575Y2048499D02*
X3650000D01*
Y2024798D01*
X3681575D01*
Y2048499D01*
D02*
G37*
G36*
X3640000D02*
X3608425D01*
Y2024798D01*
X3640000D01*
Y2048499D01*
D02*
G37*
G36*
X3755000Y1971946D02*
Y1955000D01*
X3771946D01*
X3771195Y1958779D01*
X3766222Y1966222D01*
X3758779Y1971195D01*
X3755000Y1971946D01*
D02*
G37*
G36*
X3745000D02*
X3741221Y1971195D01*
X3733778Y1966222D01*
X3728805Y1958779D01*
X3728054Y1955000D01*
X3745000D01*
Y1971946D01*
D02*
G37*
G36*
X3349606Y2003763D02*
X3341774Y2002732D01*
X3334477Y1999709D01*
X3328210Y1994900D01*
X3323401Y1988633D01*
X3320378Y1981336D01*
X3319347Y1973504D01*
X3320378Y1965672D01*
X3323401Y1958375D01*
X3328210Y1952108D01*
X3334477Y1947299D01*
X3341774Y1944276D01*
X3349606Y1943245D01*
X3357438Y1944276D01*
X3364735Y1947299D01*
X3371002Y1952108D01*
X3375811Y1958375D01*
X3378834Y1965672D01*
X3379865Y1973504D01*
X3378834Y1981336D01*
X3375811Y1988633D01*
X3371002Y1994900D01*
X3364735Y1999709D01*
X3357438Y2002732D01*
X3349606Y2003763D01*
D02*
G37*
G36*
X3590197Y2165590D02*
X3546732D01*
Y2104410D01*
X3561733D01*
Y2066782D01*
X3546255Y2051304D01*
X3544045Y2047996D01*
X3543269Y2044094D01*
Y1989685D01*
X3533701D01*
Y1944227D01*
X3528701Y1939842D01*
X3525000Y1940329D01*
Y1895000D01*
X3570329D01*
X3569250Y1903197D01*
X3564156Y1915494D01*
X3556053Y1926054D01*
X3551680Y1929410D01*
X3553377Y1934410D01*
X3573228D01*
Y1936807D01*
X3601496D01*
X3605398Y1937583D01*
X3608706Y1939793D01*
X3635718Y1966806D01*
X3676575D01*
Y1980311D01*
X3695507D01*
X3699409Y1981087D01*
X3702716Y1983297D01*
X3752210Y2032790D01*
X3754420Y2036098D01*
X3755196Y2040000D01*
Y2051263D01*
X3759419Y2054085D01*
X3763840Y2060700D01*
X3765392Y2068504D01*
X3763840Y2076308D01*
X3759419Y2082923D01*
X3752804Y2087344D01*
X3745000Y2088896D01*
X3737196Y2087344D01*
X3730581Y2082923D01*
X3726160Y2076308D01*
X3724608Y2068504D01*
X3726160Y2060700D01*
X3730581Y2054085D01*
X3734804Y2051263D01*
Y2044223D01*
X3691284Y2000703D01*
X3676575D01*
Y2014208D01*
X3613425D01*
Y1973351D01*
X3597273Y1957199D01*
X3573228D01*
Y1989685D01*
X3563660D01*
Y2039871D01*
X3579139Y2055349D01*
X3581349Y2058657D01*
X3582125Y2062559D01*
Y2104410D01*
X3590197D01*
Y2165590D01*
D02*
G37*
G36*
X3249606Y1998763D02*
X3241774Y1997732D01*
X3234477Y1994709D01*
X3228210Y1989900D01*
X3223401Y1983633D01*
X3220378Y1976336D01*
X3219347Y1968504D01*
X3220378Y1960672D01*
X3223401Y1953375D01*
X3228210Y1947108D01*
X3234477Y1942299D01*
X3241774Y1939276D01*
X3249606Y1938245D01*
X3257438Y1939276D01*
X3264735Y1942299D01*
X3271002Y1947108D01*
X3275811Y1953375D01*
X3278834Y1960672D01*
X3279865Y1968504D01*
X3278834Y1976336D01*
X3275811Y1983633D01*
X3271002Y1989900D01*
X3264735Y1994709D01*
X3257438Y1997732D01*
X3249606Y1998763D01*
D02*
G37*
G36*
X3149606D02*
X3141774Y1997732D01*
X3134477Y1994709D01*
X3128210Y1989900D01*
X3123401Y1983633D01*
X3120378Y1976336D01*
X3119347Y1968504D01*
X3120378Y1960672D01*
X3123401Y1953375D01*
X3128210Y1947108D01*
X3134477Y1942299D01*
X3141774Y1939276D01*
X3149606Y1938245D01*
X3157438Y1939276D01*
X3164735Y1942299D01*
X3171002Y1947108D01*
X3175811Y1953375D01*
X3178834Y1960672D01*
X3179865Y1968504D01*
X3178834Y1976336D01*
X3175811Y1983633D01*
X3171002Y1989900D01*
X3164735Y1994709D01*
X3157438Y1997732D01*
X3149606Y1998763D01*
D02*
G37*
G36*
X3511716Y1943268D02*
X3486535D01*
X3461772D01*
Y1929410D01*
X3480521D01*
X3482685Y1924410D01*
X3475844Y1915494D01*
X3470750Y1903197D01*
X3469671Y1895000D01*
X3515000D01*
Y1940388D01*
X3511716Y1943268D01*
D02*
G37*
G36*
X3515000Y1885000D02*
X3469671D01*
X3470750Y1876803D01*
X3475844Y1864506D01*
X3483947Y1853946D01*
X3494506Y1845844D01*
X3506803Y1840750D01*
X3515000Y1839671D01*
Y1885000D01*
D02*
G37*
%LPD*%
D14*
X3020000Y2678504D02*
D03*
Y2741496D02*
D03*
X3120000Y2678504D02*
D03*
Y2741496D02*
D03*
X3645000Y2053499D02*
D03*
Y1990507D02*
D03*
D16*
X2929961Y4220000D02*
D03*
X2996890D02*
D03*
X3103465Y4045000D02*
D03*
X3036535D02*
D03*
X3501535Y2135000D02*
D03*
X3568465D02*
D03*
D19*
X2468504Y2380000D02*
D03*
X2531496D02*
D03*
D33*
X4517069Y3319313D02*
G03*
X2901288Y4505000I-1367463J-169706D01*
G01*
D02*
G03*
X1778054Y3016946I248318J-1355394D01*
G01*
D02*
G03*
X4129341Y2180651I1371552J132661D01*
G01*
X3929207Y4333256D02*
G03*
X4557916Y2990022I-779601J-1183650D01*
G01*
X3899424Y4398497D02*
G03*
X4600518Y3019954I-749818J-1248891D01*
G01*
X2901288Y4505000D02*
X2912220D01*
X2895000D02*
X2901288D01*
X1778054Y3016946D02*
X1780000Y3015000D01*
X3745000Y2040000D02*
Y2068504D01*
X3930000Y4334460D02*
Y4335000D01*
X2987382Y3986093D02*
Y4335335D01*
X3049606Y4397559D01*
X2966289Y3965000D02*
X2987382Y3986093D01*
X3080000Y4130000D02*
X3149606Y4199606D01*
X3100000Y4220000D02*
Y4350000D01*
X3551929Y1947003D02*
X3601496D01*
X3193110Y2025000D02*
X3397441D01*
X3571929Y2062559D02*
Y2135000D01*
X3553465Y1975827D02*
Y2044094D01*
X3571929Y2062559D01*
X3397441Y2025000D02*
X3446614Y1975827D01*
X3149606Y2068504D02*
X3193110Y2025000D01*
X3446614Y1975827D02*
X3486535D01*
X3695507Y1990507D02*
X3745000Y2040000D01*
X3645000Y1990507D02*
X3695507D01*
X2430000Y2180000D02*
X2641496Y1968504D01*
X2430000Y2180000D02*
Y2435000D01*
X2450000Y2455000D01*
X2546929D01*
X2571929Y2480000D01*
X2709055Y2068504D02*
X2949606D01*
X2625000Y2152559D02*
X2709055Y2068504D01*
X2625000Y2152559D02*
Y2330000D01*
X2895000Y3922047D02*
X3002047D01*
X2910000Y3965000D02*
X2966289D01*
X2641496Y1968504D02*
X2949606D01*
X2700000Y2215000D02*
Y2380000D01*
X2423032Y3060000D02*
X2430000D01*
X2510000Y2980000D01*
X2945000Y2735000D02*
Y2740000D01*
X2700000Y2380000D02*
X2945000Y2735000D01*
X2531496Y2380000D02*
X2700000D01*
X3120000Y2925000D02*
X3160000Y2965000D01*
X3120000Y2741496D02*
Y2925000D01*
X2945000Y2740000D02*
X2946496Y2741496D01*
X3020000D01*
X3120000D01*
X3025000Y3945000D02*
Y4145000D01*
X3002047Y3922047D02*
X3025000Y3945000D01*
X3049606Y4397559D02*
Y4430709D01*
X3025000Y4145000D02*
X3100000Y4220000D01*
Y4350000D02*
X3149606Y4399606D01*
Y4430709D01*
Y4199606D02*
Y4330709D01*
X2555000Y3805000D02*
X2605000Y3855000D01*
X2555000Y3700000D02*
Y3805000D01*
X3601496Y1947003D02*
X3645000Y1990507D01*
X3049606Y1968504D02*
X3100000Y2018898D01*
Y2095000D01*
X3140000Y2135000D01*
X3505000D01*
X3900000Y4399457D02*
Y4400000D01*
X3415000Y1755000D02*
Y1756958D01*
X2990000Y1700000D02*
X2995000D01*
X2059875Y2185000D02*
X2060000D01*
X4055000Y2055000D02*
X4060000Y2060000D01*
D34*
X4288993Y4119143D02*
G03*
X4640502Y3025375I-1139387J-969537D01*
G01*
X2860000Y3600000D02*
Y4241103D01*
X2949606Y4330709D01*
X3775000Y4510261D02*
Y4511535D01*
D36*
X2949606Y4330709D02*
D03*
X3049606D02*
D03*
X3149606D02*
D03*
X3249606D02*
D03*
X3349606Y4335709D02*
D03*
Y4430709D02*
D03*
X3249606D02*
D03*
X3149606D02*
D03*
X3049606D02*
D03*
X2949606D02*
D03*
Y2068504D02*
D03*
X3049606D02*
D03*
X3149606D02*
D03*
X3249606D02*
D03*
X3349606D02*
D03*
Y1973504D02*
D03*
X3249606Y1968504D02*
D03*
X3149606D02*
D03*
X3049606D02*
D03*
X2949606D02*
D03*
X4265000Y2965000D02*
D03*
Y3465000D02*
D03*
D37*
X3520000Y1890000D02*
D03*
D38*
X4500000Y3750000D02*
D03*
X4575000Y3600000D02*
D03*
X4500000Y2850000D02*
D03*
X4350000Y4050000D02*
D03*
X4425000Y3900000D02*
D03*
X4350000Y3750000D02*
D03*
X4425000Y3600000D02*
D03*
X4350000Y3450000D02*
D03*
X4425000Y3300000D02*
D03*
X4350000Y3150000D02*
D03*
X4425000Y3000000D02*
D03*
X4350000Y2850000D02*
D03*
X4425000Y2700000D02*
D03*
X4350000Y2550000D02*
D03*
X4275000Y3900000D02*
D03*
X4200000Y3750000D02*
D03*
X4275000Y3600000D02*
D03*
Y3300000D02*
D03*
X4200000Y3150000D02*
D03*
Y2850000D02*
D03*
X4275000Y2700000D02*
D03*
Y2400000D02*
D03*
X4200000Y2250000D02*
D03*
X4125000Y3900000D02*
D03*
X4050000Y3750000D02*
D03*
X4125000Y3300000D02*
D03*
X4050000Y3150000D02*
D03*
Y2850000D02*
D03*
X3975000Y3900000D02*
D03*
X3900000Y3750000D02*
D03*
Y3450000D02*
D03*
Y3150000D02*
D03*
Y2850000D02*
D03*
Y2550000D02*
D03*
X3975000Y2400000D02*
D03*
X3900000Y2250000D02*
D03*
X3975000Y2100000D02*
D03*
X3825000Y4200000D02*
D03*
X3750000Y4050000D02*
D03*
Y3750000D02*
D03*
X3825000Y3600000D02*
D03*
X3750000Y3450000D02*
D03*
X3825000Y3300000D02*
D03*
Y3000000D02*
D03*
Y2700000D02*
D03*
X3750000Y2550000D02*
D03*
X3825000Y2400000D02*
D03*
X3750000Y2250000D02*
D03*
X3825000Y2100000D02*
D03*
X3750000Y1950000D02*
D03*
X3600000Y4350000D02*
D03*
Y4050000D02*
D03*
X3675000Y3900000D02*
D03*
Y3600000D02*
D03*
X3600000Y3450000D02*
D03*
X3675000Y3300000D02*
D03*
X3600000Y3150000D02*
D03*
X3675000Y3000000D02*
D03*
X3600000Y2850000D02*
D03*
Y2250000D02*
D03*
X3675000Y2100000D02*
D03*
X3450000Y4350000D02*
D03*
X3525000Y4200000D02*
D03*
X3450000Y4050000D02*
D03*
X3525000Y3900000D02*
D03*
Y3600000D02*
D03*
X3450000Y3450000D02*
D03*
X3525000Y3300000D02*
D03*
X3450000Y3150000D02*
D03*
X3525000Y3000000D02*
D03*
X3450000Y2850000D02*
D03*
X3375000Y4200000D02*
D03*
Y3600000D02*
D03*
X3300000Y3450000D02*
D03*
X3375000Y3300000D02*
D03*
X3300000Y3150000D02*
D03*
Y2850000D02*
D03*
Y2250000D02*
D03*
X3150000Y3450000D02*
D03*
X3225000Y3300000D02*
D03*
X3150000Y3150000D02*
D03*
Y2550000D02*
D03*
X3000000Y3450000D02*
D03*
X3075000Y3300000D02*
D03*
Y3000000D02*
D03*
X3000000Y2550000D02*
D03*
X3075000Y2400000D02*
D03*
X2925000Y3600000D02*
D03*
Y3300000D02*
D03*
X2850000Y3150000D02*
D03*
Y2250000D02*
D03*
X2700000Y4350000D02*
D03*
X2775000Y3600000D02*
D03*
X2700000Y3450000D02*
D03*
X2775000Y3300000D02*
D03*
Y2700000D02*
D03*
X2550000Y4350000D02*
D03*
X2625000Y4200000D02*
D03*
X2550000Y4050000D02*
D03*
X2625000Y3600000D02*
D03*
Y3300000D02*
D03*
Y2700000D02*
D03*
X2550000Y2250000D02*
D03*
X2475000Y4200000D02*
D03*
X2400000Y4050000D02*
D03*
X2475000Y3900000D02*
D03*
X2400000Y3750000D02*
D03*
X2475000Y3600000D02*
D03*
X2400000Y3450000D02*
D03*
X2475000Y3300000D02*
D03*
X2400000Y3150000D02*
D03*
Y2250000D02*
D03*
X2475000Y2100000D02*
D03*
X2325000Y3900000D02*
D03*
X2250000Y3750000D02*
D03*
X2325000Y3600000D02*
D03*
X2250000Y3450000D02*
D03*
X2325000Y3300000D02*
D03*
X2250000Y3150000D02*
D03*
X2325000Y3000000D02*
D03*
X2250000Y2850000D02*
D03*
X2325000Y2700000D02*
D03*
X2250000Y2550000D02*
D03*
X2325000Y2400000D02*
D03*
X2175000Y3900000D02*
D03*
X2100000Y3750000D02*
D03*
X2175000Y3600000D02*
D03*
X2100000Y3450000D02*
D03*
X2175000Y3300000D02*
D03*
X2100000Y3150000D02*
D03*
X2175000Y3000000D02*
D03*
X2100000Y2850000D02*
D03*
X2175000Y2700000D02*
D03*
X2100000Y2550000D02*
D03*
X2175000Y2400000D02*
D03*
X2025000Y3900000D02*
D03*
X1950000Y3750000D02*
D03*
X2025000Y3600000D02*
D03*
X1950000Y3450000D02*
D03*
X2025000Y3300000D02*
D03*
Y3000000D02*
D03*
X1950000Y2850000D02*
D03*
X2025000Y2700000D02*
D03*
X1950000Y2550000D02*
D03*
X2025000Y2400000D02*
D03*
X1875000Y3600000D02*
D03*
Y3300000D02*
D03*
Y2700000D02*
D03*
D39*
X3344724Y4635000D02*
D03*
X2912220Y4505000D02*
D03*
X3745000Y2068504D02*
D03*
X3375000Y4590000D02*
D03*
X3930000Y4334460D02*
D03*
X3080000Y4130000D02*
D03*
X2571929Y2480000D02*
D03*
X2625000Y2330000D02*
D03*
X2895000Y3922047D02*
D03*
X2700000Y2215000D02*
D03*
X2423032Y3060000D02*
D03*
X2510000Y2980000D02*
D03*
X2700000Y2380000D02*
D03*
X3160000Y2965000D02*
D03*
X2945000Y2740000D02*
D03*
X2910000Y3965000D02*
D03*
X2605000Y3855000D02*
D03*
X2555000Y3700000D02*
D03*
X3775000Y4510261D02*
D03*
X2077043Y4015000D02*
D03*
X3348708Y1786292D02*
D03*
X2335000Y4308465D02*
D03*
X2270000Y4310000D02*
D03*
X2205000D02*
D03*
X3900000Y4399457D02*
D03*
X3965000Y4260061D02*
D03*
X2420000Y1935000D02*
D03*
X2470000Y1860000D02*
D03*
X2766306Y1826306D02*
D03*
X3415000Y1756958D02*
D03*
X1745000Y2965000D02*
D03*
X4558110Y2990000D02*
D03*
X2860000Y3600000D02*
D03*
X2995000Y1700000D02*
D03*
X3930000Y1920000D02*
D03*
X2995000Y4560000D02*
D03*
X4600000Y3020000D02*
D03*
X4645000Y3025000D02*
D03*
X2020000Y2290000D02*
D03*
X2059875Y2185000D02*
D03*
X2355000Y2025000D02*
D03*
X1780000Y3015000D02*
D03*
X1705000Y3340000D02*
D03*
X4519631Y3319631D02*
D03*
X4130000Y2180000D02*
D03*
X4055000Y2055000D02*
D03*
X4290000Y4120000D02*
D03*
X4120000Y2010000D02*
D03*
X3020000Y1660000D02*
D03*
X2005000Y2190000D02*
D03*
X1660000Y3290000D02*
D03*
D40*
X3075000Y3810000D02*
D03*
Y3885000D02*
D03*
Y3960000D02*
D03*
D41*
X3553465Y1948268D02*
D03*
Y1975827D02*
D03*
X3486535D02*
D03*
Y1948268D02*
D03*
%TF.MD5,61def3ef8e5417d5f3c141fd203ea8d5*%
M02*
