%TF.GenerationSoftware,Altium Limited,Altium Designer,18.1.6 (161)*%
G04 Layer_Color=255*
%FSLAX25Y25*%
%MOIN*%
%TF.FileFunction,Pads,Bot*%
%TF.Part,Single*%
G01*
G75*
%TA.AperFunction,SMDPad,CuDef*%
%ADD16R,0.03347X0.05118*%
%ADD21R,0.03740X0.05315*%
%TA.AperFunction,ComponentPad*%
%ADD35C,0.05000*%
%ADD36C,0.07874*%
%TA.AperFunction,SMDPad,CuDef*%
%ADD38R,0.08661X0.09252*%
D16*
X264390Y346000D02*
D03*
X271083D02*
D03*
X315347Y422500D02*
D03*
X308653D02*
D03*
X375346Y386381D02*
D03*
X368653D02*
D03*
X363146Y390488D02*
D03*
X356453D02*
D03*
D21*
X249850Y238000D02*
D03*
X256150D02*
D03*
X258350Y361500D02*
D03*
X264650D02*
D03*
X258350Y353500D02*
D03*
X264650D02*
D03*
D35*
X294961Y433071D02*
D03*
X304961D02*
D03*
X314961D02*
D03*
X324961D02*
D03*
X334961Y433571D02*
D03*
Y443071D02*
D03*
X324961D02*
D03*
X314961D02*
D03*
X304961D02*
D03*
X294961D02*
D03*
Y206850D02*
D03*
X304961D02*
D03*
X314961D02*
D03*
X324961D02*
D03*
X334961D02*
D03*
Y197350D02*
D03*
X324961Y196850D02*
D03*
X314961D02*
D03*
X304961D02*
D03*
X294961D02*
D03*
D36*
X332423Y289500D02*
D03*
X382423D02*
D03*
D38*
X275926Y361500D02*
D03*
X298958D02*
D03*
%TF.MD5,49923a67dc4874883c5563cd9e433b6f*%
M02*
