%TF.GenerationSoftware,Altium Limited,Altium Designer,18.1.6 (161)*%
G04 Layer_Physical_Order=2*
G04 Layer_Color=16711680*
%FSLAX25Y25*%
%MOIN*%
%TF.FileFunction,Copper,L2,Bot,Signal*%
%TF.Part,Single*%
G01*
G75*
%TA.AperFunction,Conductor*%
%ADD11C,0.01000*%
%TA.AperFunction,SMDPad,CuDef*%
%ADD16R,0.03347X0.05118*%
%ADD21R,0.03740X0.05315*%
%TA.AperFunction,Conductor*%
%ADD34C,0.02000*%
%TA.AperFunction,ComponentPad*%
%ADD35C,0.05000*%
%ADD36C,0.07874*%
%TA.AperFunction,ViaPad*%
%ADD37C,0.03000*%
%TA.AperFunction,SMDPad,CuDef*%
%ADD38R,0.08661X0.09252*%
G36*
X309727Y444564D02*
X311202Y444196D01*
X311940Y443108D01*
X311935Y443071D01*
X312038Y442288D01*
X312340Y441558D01*
X312821Y440931D01*
X313448Y440450D01*
X313941Y440246D01*
Y439539D01*
X314019Y439149D01*
X314240Y438818D01*
X315030Y438028D01*
X315023Y437845D01*
X314229Y436000D01*
X314177Y435994D01*
X313448Y435691D01*
X312821Y435211D01*
X312340Y434584D01*
X312038Y433854D01*
X311935Y433071D01*
X312038Y432288D01*
X312340Y431558D01*
X312821Y430931D01*
X313448Y430450D01*
X313941Y430246D01*
Y427305D01*
X313918Y427252D01*
X313085Y426643D01*
X311327Y426059D01*
Y426059D01*
X309154D01*
Y422500D01*
Y418941D01*
X311327D01*
Y418941D01*
X313231Y418711D01*
X314139Y418113D01*
X314327Y417855D01*
Y416153D01*
X314405Y415763D01*
X314626Y415433D01*
X356279Y373779D01*
X356610Y373558D01*
X357000Y373480D01*
X375276D01*
X375558Y373058D01*
X376220Y372616D01*
X377000Y372461D01*
X377780Y372616D01*
X378442Y373058D01*
X378884Y373720D01*
X379039Y374500D01*
X378884Y375280D01*
X378442Y375942D01*
X377780Y376384D01*
X377000Y376539D01*
X376220Y376384D01*
X375558Y375942D01*
X375276Y375520D01*
X357422D01*
X316366Y416576D01*
Y419441D01*
X317520D01*
Y421210D01*
X319520Y422038D01*
X351791Y389767D01*
X352122Y389546D01*
X352512Y389469D01*
X354280D01*
Y387429D01*
X355433D01*
Y386381D01*
X355511Y385991D01*
X355732Y385660D01*
X359060Y382332D01*
X358961Y381834D01*
X359116Y381054D01*
X359558Y380392D01*
X360220Y379950D01*
X361000Y379795D01*
X361780Y379950D01*
X362986Y379742D01*
X363558Y379058D01*
X364220Y378616D01*
X365000Y378461D01*
X365780Y378616D01*
X366442Y379058D01*
X366884Y379720D01*
X367039Y380500D01*
X366940Y380998D01*
X368875Y382933D01*
X369095Y383263D01*
X370812Y383285D01*
X372673Y382822D01*
Y382822D01*
X374846D01*
Y386381D01*
Y389940D01*
X372673D01*
Y389940D01*
X370775Y390186D01*
X369857Y390774D01*
X369673Y391026D01*
Y392846D01*
X369596Y393237D01*
X369374Y393567D01*
X355366Y407576D01*
X355035Y407797D01*
X354845Y408720D01*
X355000Y409500D01*
X354845Y410280D01*
X354403Y410942D01*
X353741Y411384D01*
X352961Y411539D01*
X352463Y411440D01*
X348682Y415221D01*
X348351Y415442D01*
X347961Y415520D01*
X339185D01*
X338903Y415942D01*
X338241Y416384D01*
X337461Y416539D01*
X336681Y416384D01*
X336019Y415942D01*
X335577Y415280D01*
X335480Y414791D01*
X334539Y414249D01*
X333492Y413950D01*
X322020Y425422D01*
Y429025D01*
X322478Y429483D01*
X324020Y430213D01*
X324177Y430148D01*
X324961Y430045D01*
X325744Y430148D01*
X326473Y430450D01*
X327100Y430931D01*
X327581Y431558D01*
X327883Y432288D01*
X327987Y433071D01*
X327883Y433854D01*
X327581Y434584D01*
X327100Y435211D01*
X326473Y435691D01*
X325744Y435994D01*
X324961Y436097D01*
X324177Y435994D01*
X324020Y435928D01*
X322478Y436659D01*
X322084Y437053D01*
Y439089D01*
X322478Y439483D01*
X324020Y440213D01*
X324177Y440148D01*
X324961Y440045D01*
X325744Y440148D01*
X326473Y440450D01*
X327100Y440931D01*
X327581Y441558D01*
X327883Y442288D01*
X327939Y442707D01*
X328801Y443648D01*
X329748Y444319D01*
X331935Y444031D01*
X332038Y443854D01*
X331935Y443071D01*
X332038Y442288D01*
X332340Y441558D01*
X332821Y440931D01*
X333448Y440450D01*
X334177Y440148D01*
X334961Y440045D01*
X335744Y440148D01*
X336473Y440450D01*
X337100Y440931D01*
X337581Y441558D01*
X337883Y442288D01*
X339959Y442727D01*
X342036Y442342D01*
X348666Y440750D01*
X355203Y438814D01*
X361630Y436538D01*
X367929Y433929D01*
X374082Y430994D01*
X380074Y427740D01*
X385887Y424178D01*
X391506Y420316D01*
X396915Y416166D01*
X402099Y411738D01*
X407045Y407045D01*
X411738Y402099D01*
X416166Y396915D01*
X420316Y391506D01*
X424178Y385887D01*
X427740Y380074D01*
X430994Y374082D01*
X433929Y367929D01*
X436538Y361630D01*
X438814Y355203D01*
X440750Y348666D01*
X442342Y342036D01*
X443584Y335333D01*
X444474Y328573D01*
X445009Y321776D01*
X445188Y314961D01*
X445009Y308145D01*
X444474Y301348D01*
X443584Y294589D01*
X442342Y287885D01*
X440750Y281255D01*
X438814Y274718D01*
X436538Y268291D01*
X433929Y261993D01*
X430994Y255839D01*
X427740Y249847D01*
X424178Y244034D01*
X420316Y238415D01*
X416166Y233006D01*
X415342Y232041D01*
X314961D01*
X314578Y231883D01*
X314419Y231500D01*
Y229500D01*
X314578Y229117D01*
X314961Y228959D01*
X410060D01*
X410919Y226959D01*
X407045Y222876D01*
X402099Y218183D01*
X396915Y213755D01*
X391506Y209605D01*
X385887Y205743D01*
X380074Y202181D01*
X374082Y198928D01*
X367929Y195992D01*
X361630Y193383D01*
X355203Y191107D01*
X348666Y189171D01*
X342036Y187580D01*
X335333Y186337D01*
X328573Y185447D01*
X321776Y184912D01*
X314961Y184734D01*
X308145Y184912D01*
X301348Y185447D01*
X294589Y186337D01*
X293461Y186546D01*
X293276Y187476D01*
X292724Y188302D01*
X291897Y188855D01*
X290921Y189049D01*
X289946Y188855D01*
X289119Y188302D01*
X288566Y187476D01*
X286617Y187884D01*
X281255Y189171D01*
X274718Y191107D01*
X268291Y193383D01*
X267211Y193831D01*
X267609Y195831D01*
X292136D01*
X292340Y195337D01*
X292821Y194711D01*
X293448Y194230D01*
X294177Y193928D01*
X294961Y193825D01*
X295744Y193928D01*
X296474Y194230D01*
X297100Y194711D01*
X297581Y195337D01*
X297883Y196067D01*
X297987Y196850D01*
X297883Y197634D01*
X297581Y198363D01*
X297100Y198990D01*
X296474Y199471D01*
X295744Y199773D01*
X294961Y199876D01*
X294177Y199773D01*
X293448Y199471D01*
X292821Y198990D01*
X292340Y198363D01*
X292136Y197870D01*
X264572D01*
X244020Y218422D01*
Y228959D01*
X261480D01*
Y215256D01*
X261455D01*
X261636Y213412D01*
X261661Y213331D01*
X262174Y211639D01*
X263047Y210005D01*
X264223Y208573D01*
X265655Y207398D01*
X267289Y206524D01*
X268980Y206011D01*
X269062Y205986D01*
X270905Y205805D01*
Y205831D01*
X292136D01*
X292340Y205338D01*
X292821Y204711D01*
X293448Y204230D01*
X294177Y203928D01*
X294961Y203824D01*
X295744Y203928D01*
X296474Y204230D01*
X297100Y204711D01*
X297581Y205338D01*
X297883Y206067D01*
X297987Y206850D01*
X297883Y207634D01*
X297581Y208363D01*
X297100Y208990D01*
X296474Y209471D01*
X295744Y209773D01*
X294961Y209876D01*
X294177Y209773D01*
X293448Y209471D01*
X292821Y208990D01*
X292340Y208363D01*
X292136Y207870D01*
X270905D01*
X270888Y207867D01*
X269464Y208007D01*
X268077Y208427D01*
X266799Y209110D01*
X265679Y210030D01*
X264760Y211150D01*
X264077Y212427D01*
X263656Y213814D01*
X263516Y215238D01*
X263520Y215256D01*
Y228959D01*
X268980D01*
Y224000D01*
X269058Y223610D01*
X269279Y223279D01*
X271779Y220779D01*
X272110Y220558D01*
X272500Y220480D01*
X311393D01*
X319094Y212779D01*
X319425Y212558D01*
X319815Y212480D01*
X326999D01*
X332015Y207464D01*
X331935Y206850D01*
X332038Y206067D01*
X332340Y205338D01*
X332821Y204711D01*
X333448Y204230D01*
X334177Y203928D01*
X334961Y203824D01*
X335744Y203928D01*
X336473Y204230D01*
X337100Y204711D01*
X337581Y205338D01*
X337883Y206067D01*
X337986Y206850D01*
X337883Y207634D01*
X337581Y208363D01*
X337100Y208990D01*
X336473Y209471D01*
X335744Y209773D01*
X334961Y209876D01*
X334177Y209773D01*
X333448Y209471D01*
X333133Y209230D01*
X328142Y214221D01*
X327811Y214442D01*
X327421Y214520D01*
X320237D01*
X312536Y222221D01*
X312205Y222442D01*
X311815Y222520D01*
X272922D01*
X271020Y224422D01*
Y228959D01*
X308953D01*
X309335Y229117D01*
X309494Y229500D01*
Y231500D01*
X309335Y231883D01*
X308953Y232041D01*
X271020D01*
Y236276D01*
X271442Y236558D01*
X271884Y237220D01*
X272039Y238000D01*
X271940Y238498D01*
X276721Y243279D01*
X276942Y243610D01*
X277020Y244000D01*
Y253435D01*
X277669Y253861D01*
X279645Y254178D01*
X280198Y253351D01*
X281025Y252799D01*
X281500Y252704D01*
Y255153D01*
X282000D01*
Y255654D01*
X284450D01*
X284355Y256129D01*
X283802Y256956D01*
X282976Y257508D01*
X282650Y257573D01*
X281882Y259343D01*
X281862Y259614D01*
X287221Y264972D01*
X287442Y265303D01*
X287520Y265693D01*
Y344356D01*
X287521Y344356D01*
X288182Y344798D01*
X288624Y345460D01*
X288779Y346240D01*
X288624Y347021D01*
X288182Y347682D01*
X287521Y348124D01*
X286740Y348279D01*
X285840Y350139D01*
Y420421D01*
X285681Y420804D01*
X285298Y420962D01*
X242727D01*
X242134Y422872D01*
X244034Y424178D01*
X249847Y427740D01*
X255839Y430994D01*
X258758Y432386D01*
X258829Y432355D01*
X260114Y431153D01*
X265296D01*
X265201Y431629D01*
X264649Y432456D01*
X264272Y432708D01*
X264183Y434362D01*
X264325Y434895D01*
X268291Y436538D01*
X273703Y438454D01*
X274116Y438220D01*
X274558Y437558D01*
X275220Y437116D01*
X275846Y436992D01*
X280848Y431989D01*
X281344Y431658D01*
X281929Y431541D01*
X292353D01*
X292821Y430931D01*
X293448Y430450D01*
X294177Y430148D01*
X294961Y430045D01*
X295744Y430148D01*
X296474Y430450D01*
X297100Y430931D01*
X297581Y431558D01*
X297883Y432288D01*
X297987Y433071D01*
X297883Y433854D01*
X297581Y434584D01*
X297100Y435211D01*
X296474Y435691D01*
X295744Y435994D01*
X294961Y436097D01*
X294177Y435994D01*
X293448Y435691D01*
X292821Y435211D01*
X292353Y434600D01*
X282563D01*
X279129Y438034D01*
X279701Y440290D01*
X281255Y440750D01*
X287885Y442342D01*
X289963Y442727D01*
X292038Y442288D01*
X292340Y441558D01*
X292821Y440931D01*
X293448Y440450D01*
X294177Y440148D01*
X294961Y440045D01*
X295744Y440148D01*
X296474Y440450D01*
X297100Y440931D01*
X297581Y441558D01*
X297883Y442288D01*
X297987Y443071D01*
X297883Y443854D01*
X297986Y444031D01*
X300173Y444319D01*
X301120Y443648D01*
X301983Y442707D01*
X302038Y442288D01*
X302340Y441558D01*
X302821Y440931D01*
X303448Y440450D01*
X304177Y440148D01*
X304961Y440045D01*
X305744Y440148D01*
X306473Y440450D01*
X307100Y440931D01*
X307581Y441558D01*
X307883Y442288D01*
X307986Y443071D01*
X309304Y444568D01*
X309727Y444564D01*
D02*
G37*
G36*
X348939Y404940D02*
X349829Y403500D01*
X352500D01*
Y403000D01*
X353000D01*
Y400551D01*
X353475Y400645D01*
X354302Y401198D01*
X354855Y402025D01*
X354913Y402317D01*
X356753Y403093D01*
X356954Y403104D01*
X364011Y396047D01*
X363182Y394047D01*
X360473D01*
Y393918D01*
X358626Y393547D01*
X358473Y393547D01*
X354280D01*
Y392990D01*
X352280Y392162D01*
X341213Y403229D01*
X342041Y405229D01*
X348577D01*
X348939Y404940D01*
D02*
G37*
G36*
X228459Y409585D02*
Y384877D01*
X227720Y384730D01*
X227058Y384288D01*
X226616Y383627D01*
X226461Y382846D01*
X226616Y382066D01*
X227058Y381404D01*
X227720Y380962D01*
X228459Y380816D01*
Y325921D01*
X228617Y325539D01*
X229000Y325380D01*
X236597D01*
X238461Y324500D01*
X238616Y323720D01*
X239058Y323058D01*
X239720Y322616D01*
X240500Y322461D01*
X241280Y322616D01*
X241942Y323058D01*
X242384Y323720D01*
X242539Y324500D01*
X244403Y325380D01*
X285298D01*
X285480Y325258D01*
Y266116D01*
X275279Y255914D01*
X275058Y255584D01*
X274980Y255193D01*
Y244422D01*
X270498Y239940D01*
X270000Y240039D01*
X269220Y239884D01*
X268558Y239442D01*
X268276Y239020D01*
X258520D01*
Y241158D01*
X254513D01*
X252720Y241657D01*
X251987Y241657D01*
X250350D01*
Y238000D01*
Y234343D01*
X251987D01*
X252720Y234343D01*
X254513Y234842D01*
X258520D01*
Y236980D01*
X262007D01*
X262205Y234980D01*
X261720Y234884D01*
X261058Y234442D01*
X260616Y233780D01*
X260461Y233000D01*
X258612Y232041D01*
X244020D01*
Y243078D01*
X245422Y244480D01*
X254693D01*
X255083Y244558D01*
X255414Y244779D01*
X256695Y246060D01*
X257193Y245961D01*
X257973Y246116D01*
X258635Y246558D01*
X259077Y247220D01*
X259232Y248000D01*
X259077Y248780D01*
X258635Y249442D01*
X257973Y249884D01*
X257193Y250039D01*
X256413Y249884D01*
X255751Y249442D01*
X255309Y248780D01*
X255154Y248000D01*
X253687Y246520D01*
X245000D01*
X244610Y246442D01*
X244279Y246221D01*
X242279Y244221D01*
X242058Y243890D01*
X241980Y243500D01*
Y232041D01*
X214760D01*
X214627Y231986D01*
X213755Y233006D01*
X209605Y238415D01*
X205743Y244034D01*
X202181Y249847D01*
X198928Y255839D01*
X195992Y261993D01*
X193383Y268291D01*
X191107Y274718D01*
X189171Y281255D01*
X187580Y287885D01*
X186337Y294589D01*
X185447Y301348D01*
X184912Y308145D01*
X184734Y314961D01*
X184912Y321776D01*
X185447Y328573D01*
X186337Y335333D01*
X187580Y342036D01*
X189171Y348666D01*
X191107Y355203D01*
X193383Y361630D01*
X195992Y367929D01*
X198928Y374082D01*
X202181Y380074D01*
X205743Y385887D01*
X209605Y391506D01*
X213755Y396915D01*
X218183Y402099D01*
X222876Y407045D01*
X226459Y410445D01*
X228459Y409585D01*
D02*
G37*
%LPC*%
G36*
X334961Y436597D02*
X334177Y436494D01*
X333448Y436191D01*
X332821Y435710D01*
X332340Y435084D01*
X332038Y434354D01*
X331935Y433571D01*
X332038Y432788D01*
X332340Y432058D01*
X332821Y431431D01*
X333448Y430950D01*
X334177Y430648D01*
X334961Y430545D01*
X335744Y430648D01*
X336473Y430950D01*
X337100Y431431D01*
X337581Y432058D01*
X337883Y432788D01*
X337986Y433571D01*
X337883Y434354D01*
X337581Y435084D01*
X337100Y435710D01*
X336473Y436191D01*
X335744Y436494D01*
X334961Y436597D01*
D02*
G37*
G36*
X304961Y436097D02*
X304177Y435994D01*
X303448Y435691D01*
X302821Y435211D01*
X302340Y434584D01*
X302038Y433854D01*
X301935Y433071D01*
X302038Y432288D01*
X302340Y431558D01*
X302821Y430931D01*
X303448Y430450D01*
X304177Y430148D01*
X304961Y430045D01*
X305744Y430148D01*
X306473Y430450D01*
X307100Y430931D01*
X307581Y431558D01*
X307883Y432288D01*
X307986Y433071D01*
X307883Y433854D01*
X307581Y434584D01*
X307100Y435211D01*
X306473Y435691D01*
X305744Y435994D01*
X304961Y436097D01*
D02*
G37*
G36*
X265296Y430154D02*
X263347D01*
Y428204D01*
X263822Y428299D01*
X264649Y428851D01*
X265201Y429678D01*
X265296Y430154D01*
D02*
G37*
G36*
X262347D02*
X260397D01*
X260491Y429678D01*
X261044Y428851D01*
X261871Y428299D01*
X262347Y428204D01*
Y430154D01*
D02*
G37*
G36*
X308154Y426059D02*
X305980D01*
Y423000D01*
X308154D01*
Y426059D01*
D02*
G37*
G36*
Y422000D02*
X305980D01*
Y418941D01*
X308154D01*
Y422000D01*
D02*
G37*
G36*
X373461Y418036D02*
Y416087D01*
X375410D01*
X375316Y416562D01*
X374763Y417389D01*
X373936Y417942D01*
X373461Y418036D01*
D02*
G37*
G36*
X372461D02*
X371986Y417942D01*
X371159Y417389D01*
X370606Y416562D01*
X370511Y416087D01*
X372461D01*
Y418036D01*
D02*
G37*
G36*
X375410Y415087D02*
X373461D01*
Y413137D01*
X373936Y413232D01*
X374763Y413784D01*
X375316Y414611D01*
X375410Y415087D01*
D02*
G37*
G36*
X372461D02*
X370511D01*
X370606Y414611D01*
X371159Y413784D01*
X371986Y413232D01*
X372461Y413137D01*
Y415087D01*
D02*
G37*
G36*
X305500Y411449D02*
Y409500D01*
X307450D01*
X307355Y409975D01*
X306802Y410802D01*
X305976Y411355D01*
X305500Y411449D01*
D02*
G37*
G36*
X304500D02*
X304025Y411355D01*
X303198Y410802D01*
X302645Y409975D01*
X302551Y409500D01*
X304500D01*
Y411449D01*
D02*
G37*
G36*
X294500Y409949D02*
Y408000D01*
X296449D01*
X296355Y408475D01*
X295802Y409302D01*
X294975Y409855D01*
X294500Y409949D01*
D02*
G37*
G36*
X293500D02*
X293024Y409855D01*
X292198Y409302D01*
X291645Y408475D01*
X291550Y408000D01*
X293500D01*
Y409949D01*
D02*
G37*
G36*
X307450Y408500D02*
X305500D01*
Y406551D01*
X305976Y406645D01*
X306802Y407198D01*
X307355Y408025D01*
X307450Y408500D01*
D02*
G37*
G36*
X304500D02*
X302551D01*
X302645Y408025D01*
X303198Y407198D01*
X304025Y406645D01*
X304500Y406551D01*
Y408500D01*
D02*
G37*
G36*
X296449Y407000D02*
X294500D01*
Y405051D01*
X294975Y405145D01*
X295802Y405698D01*
X296355Y406525D01*
X296449Y407000D01*
D02*
G37*
G36*
X293500D02*
X291550D01*
X291645Y406525D01*
X292198Y405698D01*
X293024Y405145D01*
X293500Y405051D01*
Y407000D01*
D02*
G37*
G36*
X377461Y404450D02*
Y402500D01*
X379410D01*
X379316Y402976D01*
X378763Y403802D01*
X377936Y404355D01*
X377461Y404450D01*
D02*
G37*
G36*
X376461D02*
X375986Y404355D01*
X375159Y403802D01*
X374606Y402976D01*
X374511Y402500D01*
X376461D01*
Y404450D01*
D02*
G37*
G36*
X379410Y401500D02*
X377461D01*
Y399551D01*
X377936Y399645D01*
X378763Y400198D01*
X379316Y401024D01*
X379410Y401500D01*
D02*
G37*
G36*
X376461D02*
X374511D01*
X374606Y401024D01*
X375159Y400198D01*
X375986Y399645D01*
X376461Y399551D01*
Y401500D01*
D02*
G37*
G36*
X295461Y397950D02*
Y396000D01*
X297410D01*
X297316Y396476D01*
X296763Y397302D01*
X295936Y397855D01*
X295461Y397950D01*
D02*
G37*
G36*
X294461D02*
X293985Y397855D01*
X293158Y397302D01*
X292606Y396476D01*
X292511Y396000D01*
X294461D01*
Y397950D01*
D02*
G37*
G36*
X297410Y395000D02*
X295461D01*
Y393051D01*
X295936Y393145D01*
X296763Y393698D01*
X297316Y394525D01*
X297410Y395000D01*
D02*
G37*
G36*
X294461D02*
X292511D01*
X292606Y394525D01*
X293158Y393698D01*
X293985Y393145D01*
X294461Y393051D01*
Y395000D01*
D02*
G37*
G36*
X378020Y389940D02*
X375846D01*
Y386881D01*
X378020D01*
Y389940D01*
D02*
G37*
G36*
X304500Y388450D02*
Y386500D01*
X306450D01*
X306355Y386976D01*
X305802Y387802D01*
X304976Y388355D01*
X304500Y388450D01*
D02*
G37*
G36*
X303500D02*
X303025Y388355D01*
X302198Y387802D01*
X301645Y386976D01*
X301551Y386500D01*
X303500D01*
Y388450D01*
D02*
G37*
G36*
X306450Y385500D02*
X304500D01*
Y383551D01*
X304976Y383645D01*
X305802Y384198D01*
X306355Y385024D01*
X306450Y385500D01*
D02*
G37*
G36*
X303500D02*
X301551D01*
X301645Y385024D01*
X302198Y384198D01*
X303025Y383645D01*
X303500Y383551D01*
Y385500D01*
D02*
G37*
G36*
X378020Y385881D02*
X375846D01*
Y382822D01*
X378020D01*
Y385881D01*
D02*
G37*
G36*
X304288Y367126D02*
X299458D01*
Y362000D01*
X304288D01*
Y367126D01*
D02*
G37*
G36*
X298458D02*
X293627D01*
Y362000D01*
X298458D01*
Y367126D01*
D02*
G37*
G36*
X365450Y361500D02*
X363500D01*
Y359550D01*
X363976Y359645D01*
X364802Y360198D01*
X365355Y361024D01*
X365450Y361500D01*
D02*
G37*
G36*
X362500D02*
X360550D01*
X360645Y361024D01*
X361198Y360198D01*
X362024Y359645D01*
X362500Y359550D01*
Y361500D01*
D02*
G37*
G36*
X357949D02*
X356000D01*
Y359550D01*
X356475Y359645D01*
X357302Y360198D01*
X357855Y361024D01*
X357949Y361500D01*
D02*
G37*
G36*
X355000D02*
X353050D01*
X353145Y361024D01*
X353698Y360198D01*
X354524Y359645D01*
X355000Y359550D01*
Y361500D01*
D02*
G37*
G36*
X350950D02*
X349000D01*
Y359550D01*
X349476Y359645D01*
X350302Y360198D01*
X350855Y361024D01*
X350950Y361500D01*
D02*
G37*
G36*
X348000D02*
X346051D01*
X346145Y361024D01*
X346698Y360198D01*
X347524Y359645D01*
X348000Y359550D01*
Y361500D01*
D02*
G37*
G36*
X370500Y369029D02*
X334500D01*
X333915Y368913D01*
X333419Y368581D01*
X325346Y360508D01*
X324720Y360384D01*
X324058Y359942D01*
X323616Y359280D01*
X323461Y358500D01*
X323616Y357720D01*
X324058Y357058D01*
X324720Y356616D01*
X325500Y356461D01*
X326280Y356616D01*
X326942Y357058D01*
X327384Y357720D01*
X327508Y358346D01*
X335134Y365971D01*
X346343D01*
X346949Y363971D01*
X346698Y363802D01*
X346145Y362976D01*
X346051Y362500D01*
X350950D01*
X350855Y362976D01*
X350302Y363802D01*
X350051Y363971D01*
X350657Y365971D01*
X353343D01*
X353949Y363971D01*
X353698Y363802D01*
X353145Y362976D01*
X353050Y362500D01*
X357949D01*
X357855Y362976D01*
X357302Y363802D01*
X357051Y363971D01*
X357657Y365971D01*
X360843D01*
X361449Y363971D01*
X361198Y363802D01*
X360645Y362976D01*
X360550Y362500D01*
X365450D01*
X365355Y362976D01*
X364802Y363802D01*
X364551Y363971D01*
X365157Y365971D01*
X369866D01*
X375992Y359846D01*
X376116Y359220D01*
X376558Y358558D01*
X377220Y358116D01*
X378000Y357961D01*
X378780Y358116D01*
X379442Y358558D01*
X379884Y359220D01*
X380039Y360000D01*
X379884Y360780D01*
X379442Y361442D01*
X378780Y361884D01*
X378154Y362009D01*
X371581Y368581D01*
X371085Y368913D01*
X370500Y369029D01*
D02*
G37*
G36*
X304288Y361000D02*
X299458D01*
Y355874D01*
X304288D01*
Y361000D01*
D02*
G37*
G36*
X298458D02*
X293627D01*
Y355874D01*
X298458D01*
Y361000D01*
D02*
G37*
G36*
X375000Y341449D02*
Y339500D01*
X376950D01*
X376855Y339976D01*
X376302Y340802D01*
X375476Y341355D01*
X375000Y341449D01*
D02*
G37*
G36*
X374000D02*
X373524Y341355D01*
X372698Y340802D01*
X372145Y339976D01*
X372050Y339500D01*
X374000D01*
Y341449D01*
D02*
G37*
G36*
X376950Y338500D02*
X375000D01*
Y336550D01*
X375476Y336645D01*
X376302Y337198D01*
X376855Y338024D01*
X376950Y338500D01*
D02*
G37*
G36*
X374000D02*
X372050D01*
X372145Y338024D01*
X372698Y337198D01*
X373524Y336645D01*
X374000Y336550D01*
Y338500D01*
D02*
G37*
G36*
X330461Y328949D02*
Y327000D01*
X332410D01*
X332316Y327476D01*
X331763Y328302D01*
X330936Y328855D01*
X330461Y328949D01*
D02*
G37*
G36*
X329461D02*
X328986Y328855D01*
X328158Y328302D01*
X327606Y327476D01*
X327511Y327000D01*
X329461D01*
Y328949D01*
D02*
G37*
G36*
X377000Y327950D02*
Y326000D01*
X378949D01*
X378855Y326476D01*
X378302Y327302D01*
X377476Y327855D01*
X377000Y327950D01*
D02*
G37*
G36*
X376000D02*
X375524Y327855D01*
X374698Y327302D01*
X374145Y326476D01*
X374050Y326000D01*
X376000D01*
Y327950D01*
D02*
G37*
G36*
X338000Y326950D02*
Y325000D01*
X339949D01*
X339855Y325476D01*
X339302Y326302D01*
X338475Y326855D01*
X338000Y326950D01*
D02*
G37*
G36*
X337000D02*
X336525Y326855D01*
X335698Y326302D01*
X335145Y325476D01*
X335051Y325000D01*
X337000D01*
Y326950D01*
D02*
G37*
G36*
X332410Y326000D02*
X330461D01*
Y324050D01*
X330936Y324145D01*
X331763Y324698D01*
X332316Y325524D01*
X332410Y326000D01*
D02*
G37*
G36*
X329461D02*
X327511D01*
X327606Y325524D01*
X328158Y324698D01*
X328986Y324145D01*
X329461Y324050D01*
Y326000D01*
D02*
G37*
G36*
X378949Y325000D02*
X377000D01*
Y323050D01*
X377476Y323145D01*
X378302Y323698D01*
X378855Y324524D01*
X378949Y325000D01*
D02*
G37*
G36*
X376000D02*
X374050D01*
X374145Y324524D01*
X374698Y323698D01*
X375524Y323145D01*
X376000Y323050D01*
Y325000D01*
D02*
G37*
G36*
X339949Y324000D02*
X338000D01*
Y322050D01*
X338475Y322145D01*
X339302Y322698D01*
X339855Y323524D01*
X339949Y324000D01*
D02*
G37*
G36*
X337000D02*
X335051D01*
X335145Y323524D01*
X335698Y322698D01*
X336525Y322145D01*
X337000Y322050D01*
Y324000D01*
D02*
G37*
G36*
X411500Y299950D02*
X411025Y299855D01*
X410198Y299302D01*
X410111Y299173D01*
X410079Y299160D01*
X407921D01*
X407889Y299173D01*
X407802Y299302D01*
X406976Y299855D01*
X406500Y299950D01*
Y297500D01*
Y295051D01*
X406976Y295145D01*
X407802Y295698D01*
X407889Y295827D01*
X407921Y295840D01*
X410079D01*
X410111Y295827D01*
X410198Y295698D01*
X410951Y295194D01*
X411049Y294879D01*
X411123Y293086D01*
X410698Y292802D01*
X410145Y291975D01*
X410050Y291500D01*
X414950D01*
X414855Y291975D01*
X414302Y292802D01*
X413549Y293306D01*
X413451Y293621D01*
X413377Y295414D01*
X413802Y295698D01*
X414355Y296525D01*
X414450Y297000D01*
X412000D01*
Y297500D01*
X411500D01*
Y299950D01*
D02*
G37*
G36*
X412500D02*
Y298000D01*
X414450D01*
X414355Y298476D01*
X413802Y299302D01*
X412976Y299855D01*
X412500Y299950D01*
D02*
G37*
G36*
X405500D02*
X405024Y299855D01*
X404198Y299302D01*
X403645Y298476D01*
X403550Y298000D01*
X405500D01*
Y299950D01*
D02*
G37*
G36*
Y297000D02*
X403550D01*
X403645Y296525D01*
X404198Y295698D01*
X405024Y295145D01*
X405500Y295051D01*
Y297000D01*
D02*
G37*
G36*
X414950Y290500D02*
X413000D01*
Y288550D01*
X413476Y288645D01*
X414302Y289198D01*
X414855Y290024D01*
X414950Y290500D01*
D02*
G37*
G36*
X412000D02*
X410050D01*
X410145Y290024D01*
X410698Y289198D01*
X411524Y288645D01*
X412000Y288550D01*
Y290500D01*
D02*
G37*
G36*
X382423Y293975D02*
X381265Y293823D01*
X380185Y293376D01*
X379258Y292665D01*
X378547Y291738D01*
X378100Y290658D01*
X377948Y289500D01*
X378100Y288342D01*
X378547Y287262D01*
X379258Y286335D01*
X380185Y285624D01*
X381265Y285177D01*
X382423Y285025D01*
X383581Y285177D01*
X384661Y285624D01*
X385587Y286335D01*
X386299Y287262D01*
X386746Y288342D01*
X386898Y289500D01*
X386746Y290658D01*
X386299Y291738D01*
X385587Y292665D01*
X384661Y293376D01*
X383581Y293823D01*
X382423Y293975D01*
D02*
G37*
G36*
X332423D02*
X331265Y293823D01*
X330185Y293376D01*
X329258Y292665D01*
X328547Y291738D01*
X328100Y290658D01*
X327948Y289500D01*
X328100Y288342D01*
X328547Y287262D01*
X329258Y286335D01*
X330185Y285624D01*
X331265Y285177D01*
X332423Y285025D01*
X333581Y285177D01*
X334661Y285624D01*
X335587Y286335D01*
X336299Y287262D01*
X336746Y288342D01*
X336898Y289500D01*
X336746Y290658D01*
X336299Y291738D01*
X335587Y292665D01*
X334661Y293376D01*
X333581Y293823D01*
X332423Y293975D01*
D02*
G37*
G36*
X360000Y265950D02*
Y264000D01*
X361949D01*
X361855Y264475D01*
X361302Y265302D01*
X360475Y265855D01*
X360000Y265950D01*
D02*
G37*
G36*
X359000D02*
X358524Y265855D01*
X357698Y265302D01*
X357145Y264475D01*
X357050Y264000D01*
X359000D01*
Y265950D01*
D02*
G37*
G36*
X334000Y265603D02*
Y263653D01*
X335949D01*
X335855Y264129D01*
X335302Y264956D01*
X334475Y265509D01*
X334000Y265603D01*
D02*
G37*
G36*
X333000D02*
X332524Y265509D01*
X331698Y264956D01*
X331145Y264129D01*
X331050Y263653D01*
X333000D01*
Y265603D01*
D02*
G37*
G36*
X361949Y263000D02*
X360000D01*
Y261051D01*
X360475Y261145D01*
X361302Y261698D01*
X361855Y262525D01*
X361949Y263000D01*
D02*
G37*
G36*
X359000D02*
X357050D01*
X357145Y262525D01*
X357698Y261698D01*
X358524Y261145D01*
X359000Y261051D01*
Y263000D01*
D02*
G37*
G36*
X335949Y262653D02*
X334000D01*
Y260704D01*
X334475Y260799D01*
X335302Y261351D01*
X335855Y262178D01*
X335949Y262653D01*
D02*
G37*
G36*
X333000D02*
X331050D01*
X331145Y262178D01*
X331698Y261351D01*
X332524Y260799D01*
X333000Y260704D01*
Y262653D01*
D02*
G37*
G36*
X284450Y254654D02*
X282500D01*
Y252704D01*
X282976Y252799D01*
X283802Y253351D01*
X284355Y254178D01*
X284450Y254654D01*
D02*
G37*
G36*
X342500Y254450D02*
Y252500D01*
X344449D01*
X344355Y252976D01*
X343802Y253802D01*
X342975Y254355D01*
X342500Y254450D01*
D02*
G37*
G36*
X341500D02*
X341024Y254355D01*
X340198Y253802D01*
X339645Y252976D01*
X339550Y252500D01*
X341500D01*
Y254450D01*
D02*
G37*
G36*
X364500Y253949D02*
Y252000D01*
X366449D01*
X366355Y252476D01*
X365802Y253302D01*
X364976Y253855D01*
X364500Y253949D01*
D02*
G37*
G36*
X363500D02*
X363024Y253855D01*
X362198Y253302D01*
X361645Y252476D01*
X361550Y252000D01*
X363500D01*
Y253949D01*
D02*
G37*
G36*
X344449Y251500D02*
X342500D01*
Y249551D01*
X342975Y249645D01*
X343802Y250198D01*
X344355Y251025D01*
X344449Y251500D01*
D02*
G37*
G36*
X341500D02*
X339550D01*
X339645Y251025D01*
X340198Y250198D01*
X341024Y249645D01*
X341500Y249551D01*
Y251500D01*
D02*
G37*
G36*
X366449Y251000D02*
X364500D01*
Y249050D01*
X364976Y249145D01*
X365802Y249698D01*
X366355Y250524D01*
X366449Y251000D01*
D02*
G37*
G36*
X363500D02*
X361550D01*
X361645Y250524D01*
X362198Y249698D01*
X363024Y249145D01*
X363500Y249050D01*
Y251000D01*
D02*
G37*
G36*
X252000Y226449D02*
Y224500D01*
X253949D01*
X253855Y224975D01*
X253302Y225802D01*
X252476Y226355D01*
X252000Y226449D01*
D02*
G37*
G36*
X251000D02*
X250524Y226355D01*
X249698Y225802D01*
X249145Y224975D01*
X249050Y224500D01*
X251000D01*
Y226449D01*
D02*
G37*
G36*
X253949Y223500D02*
X252000D01*
Y221550D01*
X252476Y221645D01*
X253302Y222198D01*
X253855Y223025D01*
X253949Y223500D01*
D02*
G37*
G36*
X251000D02*
X249050D01*
X249145Y223025D01*
X249698Y222198D01*
X250524Y221645D01*
X251000Y221550D01*
Y223500D01*
D02*
G37*
G36*
X315461Y210315D02*
Y207350D01*
X318425D01*
X318371Y207764D01*
X318018Y208615D01*
X317457Y209347D01*
X316726Y209908D01*
X315874Y210260D01*
X315461Y210315D01*
D02*
G37*
G36*
X305461D02*
Y207350D01*
X308425D01*
X308370Y207764D01*
X308018Y208615D01*
X307457Y209347D01*
X306726Y209908D01*
X305874Y210260D01*
X305461Y210315D01*
D02*
G37*
G36*
X314461D02*
X314047Y210260D01*
X313195Y209908D01*
X312464Y209347D01*
X311903Y208615D01*
X311551Y207764D01*
X311496Y207350D01*
X314461D01*
Y210315D01*
D02*
G37*
G36*
X304461D02*
X304047Y210260D01*
X303196Y209908D01*
X302464Y209347D01*
X301903Y208615D01*
X301551Y207764D01*
X301496Y207350D01*
X304461D01*
Y210315D01*
D02*
G37*
G36*
X324961Y209876D02*
X324177Y209773D01*
X323448Y209471D01*
X322821Y208990D01*
X322340Y208363D01*
X322038Y207634D01*
X321935Y206850D01*
X322038Y206067D01*
X322340Y205338D01*
X322821Y204711D01*
X323448Y204230D01*
X324177Y203928D01*
X324961Y203824D01*
X325744Y203928D01*
X326473Y204230D01*
X327100Y204711D01*
X327581Y205338D01*
X327883Y206067D01*
X327987Y206850D01*
X327883Y207634D01*
X327581Y208363D01*
X327100Y208990D01*
X326473Y209471D01*
X325744Y209773D01*
X324961Y209876D01*
D02*
G37*
G36*
X318425Y206350D02*
X315461D01*
Y203386D01*
X315874Y203440D01*
X316726Y203793D01*
X317457Y204354D01*
X318018Y205085D01*
X318371Y205937D01*
X318425Y206350D01*
D02*
G37*
G36*
X308425D02*
X305461D01*
Y203386D01*
X305874Y203440D01*
X306726Y203793D01*
X307457Y204354D01*
X308018Y205085D01*
X308370Y205937D01*
X308425Y206350D01*
D02*
G37*
G36*
X314461D02*
X311496D01*
X311551Y205937D01*
X311903Y205085D01*
X312464Y204354D01*
X313195Y203793D01*
X314047Y203440D01*
X314461Y203386D01*
Y206350D01*
D02*
G37*
G36*
X304461D02*
X301496D01*
X301551Y205937D01*
X301903Y205085D01*
X302464Y204354D01*
X303196Y203793D01*
X304047Y203440D01*
X304461Y203386D01*
Y206350D01*
D02*
G37*
G36*
X334961Y200376D02*
X334177Y200273D01*
X333448Y199971D01*
X332821Y199490D01*
X332340Y198863D01*
X332038Y198134D01*
X331935Y197350D01*
X332038Y196567D01*
X332340Y195837D01*
X332821Y195211D01*
X333448Y194730D01*
X334177Y194428D01*
X334961Y194325D01*
X335744Y194428D01*
X336473Y194730D01*
X337100Y195211D01*
X337581Y195837D01*
X337883Y196567D01*
X337986Y197350D01*
X337883Y198134D01*
X337581Y198863D01*
X337100Y199490D01*
X336473Y199971D01*
X335744Y200273D01*
X334961Y200376D01*
D02*
G37*
G36*
X324961Y199876D02*
X324177Y199773D01*
X323448Y199471D01*
X322821Y198990D01*
X322340Y198363D01*
X322038Y197634D01*
X321935Y196850D01*
X322038Y196067D01*
X322340Y195337D01*
X322821Y194711D01*
X323448Y194230D01*
X324177Y193928D01*
X324961Y193825D01*
X325744Y193928D01*
X326473Y194230D01*
X327100Y194711D01*
X327581Y195337D01*
X327883Y196067D01*
X327987Y196850D01*
X327883Y197634D01*
X327581Y198363D01*
X327100Y198990D01*
X326473Y199471D01*
X325744Y199773D01*
X324961Y199876D01*
D02*
G37*
G36*
X314961D02*
X314177Y199773D01*
X313448Y199471D01*
X312821Y198990D01*
X312340Y198363D01*
X312038Y197634D01*
X311935Y196850D01*
X312038Y196067D01*
X312340Y195337D01*
X312821Y194711D01*
X313448Y194230D01*
X314177Y193928D01*
X314961Y193825D01*
X315744Y193928D01*
X316474Y194230D01*
X317100Y194711D01*
X317581Y195337D01*
X317883Y196067D01*
X317986Y196850D01*
X317883Y197634D01*
X317581Y198363D01*
X317100Y198990D01*
X316474Y199471D01*
X315744Y199773D01*
X314961Y199876D01*
D02*
G37*
G36*
X304961D02*
X304177Y199773D01*
X303448Y199471D01*
X302821Y198990D01*
X302340Y198363D01*
X302038Y197634D01*
X301935Y196850D01*
X302038Y196067D01*
X302340Y195337D01*
X302821Y194711D01*
X303448Y194230D01*
X304177Y193928D01*
X304961Y193825D01*
X305744Y193928D01*
X306473Y194230D01*
X307100Y194711D01*
X307581Y195337D01*
X307883Y196067D01*
X307986Y196850D01*
X307883Y197634D01*
X307581Y198363D01*
X307100Y198990D01*
X306473Y199471D01*
X305744Y199773D01*
X304961Y199876D01*
D02*
G37*
G36*
X352000Y402500D02*
X350050D01*
X350145Y402025D01*
X350698Y401198D01*
X351524Y400645D01*
X352000Y400551D01*
Y402500D01*
D02*
G37*
G36*
X199352Y351449D02*
Y349500D01*
X201301D01*
X201207Y349975D01*
X200654Y350802D01*
X199827Y351355D01*
X199352Y351449D01*
D02*
G37*
G36*
X198352D02*
X197876Y351355D01*
X197049Y350802D01*
X196497Y349975D01*
X196402Y349500D01*
X198352D01*
Y351449D01*
D02*
G37*
G36*
X201301Y348500D02*
X199352D01*
Y346550D01*
X199827Y346645D01*
X200654Y347198D01*
X201207Y348025D01*
X201301Y348500D01*
D02*
G37*
G36*
X198352D02*
X196402D01*
X196497Y348025D01*
X197049Y347198D01*
X197876Y346645D01*
X198352Y346550D01*
Y348500D01*
D02*
G37*
G36*
Y333949D02*
Y332000D01*
X200301D01*
X200207Y332475D01*
X199654Y333302D01*
X198827Y333855D01*
X198352Y333949D01*
D02*
G37*
G36*
X197352D02*
X196876Y333855D01*
X196049Y333302D01*
X195497Y332475D01*
X195402Y332000D01*
X197352D01*
Y333949D01*
D02*
G37*
G36*
X219500Y332949D02*
Y331000D01*
X221449D01*
X221355Y331475D01*
X220802Y332302D01*
X219975Y332855D01*
X219500Y332949D01*
D02*
G37*
G36*
X218500D02*
X218024Y332855D01*
X217198Y332302D01*
X216645Y331475D01*
X216550Y331000D01*
X218500D01*
Y332949D01*
D02*
G37*
G36*
X200301Y331000D02*
X198352D01*
Y329050D01*
X198827Y329145D01*
X199654Y329698D01*
X200207Y330524D01*
X200301Y331000D01*
D02*
G37*
G36*
X197352D02*
X195402D01*
X195497Y330524D01*
X196049Y329698D01*
X196876Y329145D01*
X197352Y329050D01*
Y331000D01*
D02*
G37*
G36*
X221449Y330000D02*
X219500D01*
Y328050D01*
X219975Y328145D01*
X220802Y328698D01*
X221355Y329524D01*
X221449Y330000D01*
D02*
G37*
G36*
X218500D02*
X216550D01*
X216645Y329524D01*
X217198Y328698D01*
X218024Y328145D01*
X218500Y328050D01*
Y330000D01*
D02*
G37*
G36*
X264884Y320950D02*
Y319000D01*
X266833D01*
X266739Y319476D01*
X266186Y320302D01*
X265359Y320855D01*
X264884Y320950D01*
D02*
G37*
G36*
X263884D02*
X263408Y320855D01*
X262582Y320302D01*
X262029Y319476D01*
X261934Y319000D01*
X263884D01*
Y320950D01*
D02*
G37*
G36*
X220000Y318950D02*
Y317000D01*
X221950D01*
X221855Y317476D01*
X221302Y318302D01*
X220476Y318855D01*
X220000Y318950D01*
D02*
G37*
G36*
X219000D02*
X218525Y318855D01*
X217698Y318302D01*
X217145Y317476D01*
X217051Y317000D01*
X219000D01*
Y318950D01*
D02*
G37*
G36*
X266833Y318000D02*
X264884D01*
Y316051D01*
X265359Y316145D01*
X266186Y316698D01*
X266739Y317525D01*
X266833Y318000D01*
D02*
G37*
G36*
X263884D02*
X261934D01*
X262029Y317525D01*
X262582Y316698D01*
X263408Y316145D01*
X263884Y316051D01*
Y318000D01*
D02*
G37*
G36*
X221950Y316000D02*
X220000D01*
Y314051D01*
X220476Y314145D01*
X221302Y314698D01*
X221855Y315525D01*
X221950Y316000D01*
D02*
G37*
G36*
X219000D02*
X217051D01*
X217145Y315525D01*
X217698Y314698D01*
X218525Y314145D01*
X219000Y314051D01*
Y316000D01*
D02*
G37*
G36*
X204500Y309949D02*
Y308000D01*
X206450D01*
X206355Y308475D01*
X205802Y309302D01*
X204976Y309855D01*
X204500Y309949D01*
D02*
G37*
G36*
X203500D02*
X203025Y309855D01*
X202198Y309302D01*
X201645Y308475D01*
X201551Y308000D01*
X203500D01*
Y309949D01*
D02*
G37*
G36*
X254000Y309450D02*
Y307500D01*
X255949D01*
X255855Y307976D01*
X255302Y308802D01*
X254475Y309355D01*
X254000Y309450D01*
D02*
G37*
G36*
X253000D02*
X252524Y309355D01*
X251698Y308802D01*
X251145Y307976D01*
X251050Y307500D01*
X253000D01*
Y309450D01*
D02*
G37*
G36*
X206450Y307000D02*
X204500D01*
Y305050D01*
X204976Y305145D01*
X205802Y305698D01*
X206355Y306524D01*
X206450Y307000D01*
D02*
G37*
G36*
X203500D02*
X201551D01*
X201645Y306524D01*
X202198Y305698D01*
X203025Y305145D01*
X203500Y305050D01*
Y307000D01*
D02*
G37*
G36*
X255949Y306500D02*
X254000D01*
Y304551D01*
X254475Y304645D01*
X255302Y305198D01*
X255855Y306025D01*
X255949Y306500D01*
D02*
G37*
G36*
X253000D02*
X251050D01*
X251145Y306025D01*
X251698Y305198D01*
X252524Y304645D01*
X253000Y304551D01*
Y306500D01*
D02*
G37*
G36*
X218500Y287949D02*
Y286000D01*
X220449D01*
X220355Y286475D01*
X219802Y287302D01*
X218975Y287855D01*
X218500Y287949D01*
D02*
G37*
G36*
X217500D02*
X217024Y287855D01*
X216198Y287302D01*
X215645Y286475D01*
X215550Y286000D01*
X217500D01*
Y287949D01*
D02*
G37*
G36*
X220449Y285000D02*
X218500D01*
Y283050D01*
X218975Y283145D01*
X219802Y283698D01*
X220355Y284524D01*
X220449Y285000D01*
D02*
G37*
G36*
X217500D02*
X215550D01*
X215645Y284524D01*
X216198Y283698D01*
X217024Y283145D01*
X217500Y283050D01*
Y285000D01*
D02*
G37*
G36*
X198352Y276449D02*
Y274500D01*
X200301D01*
X200207Y274975D01*
X199654Y275802D01*
X198827Y276355D01*
X198352Y276449D01*
D02*
G37*
G36*
X197352D02*
X196876Y276355D01*
X196049Y275802D01*
X195497Y274975D01*
X195402Y274500D01*
X197352D01*
Y276449D01*
D02*
G37*
G36*
X200301Y273500D02*
X198352D01*
Y271550D01*
X198827Y271645D01*
X199654Y272198D01*
X200207Y273025D01*
X200301Y273500D01*
D02*
G37*
G36*
X197352D02*
X195402D01*
X195497Y273025D01*
X196049Y272198D01*
X196876Y271645D01*
X197352Y271550D01*
Y273500D01*
D02*
G37*
G36*
X224500Y269950D02*
Y268000D01*
X226449D01*
X226355Y268476D01*
X225802Y269302D01*
X224975Y269855D01*
X224500Y269950D01*
D02*
G37*
G36*
X223500D02*
X223025Y269855D01*
X222198Y269302D01*
X221645Y268476D01*
X221550Y268000D01*
X223500D01*
Y269950D01*
D02*
G37*
G36*
X226449Y267000D02*
X224500D01*
Y265051D01*
X224975Y265145D01*
X225802Y265698D01*
X226355Y266525D01*
X226449Y267000D01*
D02*
G37*
G36*
X223500D02*
X221550D01*
X221645Y266525D01*
X222198Y265698D01*
X223025Y265145D01*
X223500Y265051D01*
Y267000D01*
D02*
G37*
G36*
X255500Y265950D02*
Y264000D01*
X257450D01*
X257355Y264475D01*
X256802Y265302D01*
X255976Y265855D01*
X255500Y265950D01*
D02*
G37*
G36*
X254500D02*
X254025Y265855D01*
X253198Y265302D01*
X252645Y264475D01*
X252551Y264000D01*
X254500D01*
Y265950D01*
D02*
G37*
G36*
X257450Y263000D02*
X255500D01*
Y261051D01*
X255976Y261145D01*
X256802Y261698D01*
X257355Y262525D01*
X257450Y263000D01*
D02*
G37*
G36*
X254500D02*
X252551D01*
X252645Y262525D01*
X253198Y261698D01*
X254025Y261145D01*
X254500Y261051D01*
Y263000D01*
D02*
G37*
G36*
X203352Y262949D02*
Y261000D01*
X205301D01*
X205207Y261475D01*
X204654Y262302D01*
X203827Y262855D01*
X203352Y262949D01*
D02*
G37*
G36*
X202352D02*
X201876Y262855D01*
X201049Y262302D01*
X200497Y261475D01*
X200402Y261000D01*
X202352D01*
Y262949D01*
D02*
G37*
G36*
X205301Y260000D02*
X203352D01*
Y258050D01*
X203827Y258145D01*
X204654Y258698D01*
X205207Y259524D01*
X205301Y260000D01*
D02*
G37*
G36*
X202352D02*
X200402D01*
X200497Y259524D01*
X201049Y258698D01*
X201876Y258145D01*
X202352Y258050D01*
Y260000D01*
D02*
G37*
G36*
X232000Y255949D02*
Y254000D01*
X233949D01*
X233855Y254475D01*
X233302Y255302D01*
X232475Y255855D01*
X232000Y255949D01*
D02*
G37*
G36*
X231000D02*
X230524Y255855D01*
X229698Y255302D01*
X229145Y254475D01*
X229050Y254000D01*
X231000D01*
Y255949D01*
D02*
G37*
G36*
X233949Y253000D02*
X232000D01*
Y251050D01*
X232475Y251145D01*
X233302Y251698D01*
X233855Y252524D01*
X233949Y253000D01*
D02*
G37*
G36*
X231000D02*
X229050D01*
X229145Y252524D01*
X229698Y251698D01*
X230524Y251145D01*
X231000Y251050D01*
Y253000D01*
D02*
G37*
G36*
X249350Y241657D02*
X246980D01*
Y238500D01*
X249350D01*
Y241657D01*
D02*
G37*
G36*
Y237500D02*
X246980D01*
Y234343D01*
X249350D01*
Y237500D01*
D02*
G37*
%LPD*%
D11*
X262500Y215256D02*
G03*
X270905Y206850I8405J0D01*
G01*
X396483Y426054D02*
G03*
X290129Y450500I-81522J-111093D01*
G01*
D02*
G03*
X177805Y301695I24832J-135539D01*
G01*
D02*
G03*
X451707Y331931I137155J13266D01*
G01*
X392921Y433326D02*
G03*
X455792Y299002I-77960J-118365D01*
G01*
X389942Y439850D02*
G03*
X460052Y301995I-74982J-124889D01*
G01*
X177805Y301695D02*
X178000Y301500D01*
X390000Y439946D02*
Y440000D01*
X243000Y218000D02*
X264150Y196850D01*
X270905Y206850D02*
X294961D01*
X262500Y215256D02*
Y233000D01*
X264390Y346000D02*
Y368350D01*
X259740Y331500D02*
X273740D01*
X259240Y332000D02*
X259740Y331500D01*
X327421Y213500D02*
X334961Y205961D01*
X286500Y265693D02*
Y346000D01*
X276000Y255193D02*
X286500Y265693D01*
X276000Y244000D02*
Y255193D01*
X270000Y238000D02*
X276000Y244000D01*
X271083Y346000D02*
X286500D01*
X256150Y238000D02*
X270000D01*
X258091Y339150D02*
Y353740D01*
X258350Y354000D01*
Y361500D01*
Y353500D02*
Y354000D01*
X311815Y221500D02*
X319815Y213500D01*
X272500Y221500D02*
X311815D01*
X319815Y213500D02*
X327421D01*
X290921Y186500D02*
Y189421D01*
X264150Y196850D02*
X294961D01*
X290921Y186500D02*
X291000Y186579D01*
X352500Y403000D02*
X353855D01*
X363146Y393709D01*
X354645Y406855D02*
X368653Y392846D01*
X351465Y406855D02*
X354645D01*
X350858Y406249D02*
X351465Y406855D01*
X339752Y406249D02*
X350858D01*
X363146Y390488D02*
Y393709D01*
X321000Y425000D02*
X339752Y406249D01*
X314961Y419961D02*
Y433071D01*
X357000Y374500D02*
X377000D01*
X356453Y386381D02*
X361000Y381834D01*
X365000Y380500D02*
X368154Y383653D01*
X315347Y416153D02*
X357000Y374500D01*
X315347Y416153D02*
Y422500D01*
X321000Y425000D02*
Y444500D01*
X318500Y447000D02*
X321000Y444500D01*
X308890Y447000D02*
X318500D01*
X319000Y424000D02*
Y435500D01*
X314961Y439539D02*
X319000Y435500D01*
X314961Y439539D02*
Y443071D01*
X319000Y424000D02*
X352512Y390488D01*
X304961Y443071D02*
X308890Y447000D01*
X368653Y386381D02*
Y392846D01*
X368154Y383653D02*
Y384500D01*
X356453Y386381D02*
Y390488D01*
X352512D02*
X356453D01*
X270000Y224000D02*
Y238000D01*
Y224000D02*
X272500Y221500D01*
X234413Y376933D02*
X247567D01*
X228500Y382846D02*
X234413Y376933D01*
X240500Y324500D02*
X240606Y324606D01*
Y333087D01*
X261740Y335500D02*
X264390D01*
X258091Y339150D02*
X261740Y335500D01*
X290129Y450500D02*
X291222D01*
X289500D02*
X290129D01*
X393000Y433446D02*
Y433500D01*
X243000Y218000D02*
Y243500D01*
X245000Y245500D01*
X254693D01*
X257193Y248000D01*
X263740Y368500D02*
X264240D01*
X264390Y368350D01*
X347961Y414500D02*
X352961Y409500D01*
X337461Y414500D02*
X347961D01*
X341500Y175500D02*
Y175696D01*
X299000Y170000D02*
X299500D01*
X205988Y218500D02*
X206000D01*
X405500Y205500D02*
X406000Y206000D01*
D16*
X264390Y346000D02*
D03*
X271083D02*
D03*
X315347Y422500D02*
D03*
X308653D02*
D03*
X375346Y386381D02*
D03*
X368653D02*
D03*
X363146Y390488D02*
D03*
X356453D02*
D03*
D21*
X249850Y238000D02*
D03*
X256150D02*
D03*
X258350Y361500D02*
D03*
X264650D02*
D03*
X258350Y353500D02*
D03*
X264650D02*
D03*
D34*
X428899Y411914D02*
G03*
X464050Y302537I-113939J-96954D01*
G01*
X264650Y361500D02*
X275926D01*
X334500Y367500D02*
X370500D01*
X325500Y358500D02*
X334500Y367500D01*
X370500D02*
X378000Y360000D01*
X276000Y439000D02*
X281929Y433071D01*
X294961D01*
D35*
D03*
X304961D02*
D03*
X314961D02*
D03*
X324961D02*
D03*
X334961Y433571D02*
D03*
Y443071D02*
D03*
X324961D02*
D03*
X314961D02*
D03*
X304961D02*
D03*
X294961D02*
D03*
Y206850D02*
D03*
X304961D02*
D03*
X314961D02*
D03*
X324961D02*
D03*
X334961D02*
D03*
Y197350D02*
D03*
X324961Y196850D02*
D03*
X314961D02*
D03*
X304961D02*
D03*
X294961D02*
D03*
D36*
X332423Y289500D02*
D03*
X382423D02*
D03*
D37*
X174500Y296500D02*
D03*
X178000Y301500D02*
D03*
X166000Y329000D02*
D03*
X170500Y334000D02*
D03*
X242000Y193500D02*
D03*
X464500Y302500D02*
D03*
X337500Y459000D02*
D03*
X247000Y186000D02*
D03*
X390000Y439946D02*
D03*
X204000Y307500D02*
D03*
X224000Y267500D02*
D03*
X218000Y285500D02*
D03*
X253500Y307000D02*
D03*
X219500Y316500D02*
D03*
X219000Y330500D02*
D03*
X304000Y386000D02*
D03*
X305000Y409000D02*
D03*
X294961Y395500D02*
D03*
X294000Y407500D02*
D03*
X412500Y291000D02*
D03*
X406000Y297500D02*
D03*
X412000D02*
D03*
X364000Y251500D02*
D03*
X359500Y263500D02*
D03*
X342000Y252000D02*
D03*
X333500Y263154D02*
D03*
X325500Y358500D02*
D03*
X264384Y318500D02*
D03*
X273740Y331500D02*
D03*
X259240Y332000D02*
D03*
X337500Y324500D02*
D03*
X376500Y325500D02*
D03*
X374500Y339000D02*
D03*
X363000Y362000D02*
D03*
X355500D02*
D03*
X348500D02*
D03*
X231500Y253500D02*
D03*
X282000Y255153D02*
D03*
X255000Y263500D02*
D03*
X251500Y224000D02*
D03*
X286740Y346240D02*
D03*
X262846Y430653D02*
D03*
X290921Y186500D02*
D03*
X352500Y403000D02*
D03*
X270000Y238000D02*
D03*
X378000Y360000D02*
D03*
X377000Y374500D02*
D03*
X361000Y381834D02*
D03*
X365000Y380500D02*
D03*
X396500Y426006D02*
D03*
X359000Y457846D02*
D03*
X256000Y452500D02*
D03*
X276000Y439000D02*
D03*
X228500Y382846D02*
D03*
X247567Y376933D02*
D03*
X240500Y324500D02*
D03*
X240606Y333087D02*
D03*
X197852Y274000D02*
D03*
X202852Y260500D02*
D03*
X376961Y402000D02*
D03*
X372961Y415587D02*
D03*
X329961Y326500D02*
D03*
X197852Y331500D02*
D03*
X198852Y349000D02*
D03*
X264390Y335500D02*
D03*
X334472Y463500D02*
D03*
X291222Y450500D02*
D03*
X393000Y433446D02*
D03*
X257193Y248000D02*
D03*
X262500Y233000D02*
D03*
X264240Y368500D02*
D03*
X352961Y409500D02*
D03*
X337461Y414500D02*
D03*
X207704Y401500D02*
D03*
X334871Y178629D02*
D03*
X233500Y430847D02*
D03*
X227000Y431000D02*
D03*
X220500D02*
D03*
X276631Y182631D02*
D03*
X341500Y175696D02*
D03*
X455811Y299000D02*
D03*
X299500Y170000D02*
D03*
X393000Y192000D02*
D03*
X299500Y456000D02*
D03*
X460000Y302000D02*
D03*
X202000Y229000D02*
D03*
X205988Y218500D02*
D03*
X235500Y202500D02*
D03*
X451963Y331963D02*
D03*
X413000Y218000D02*
D03*
X405500Y205500D02*
D03*
X429000Y412000D02*
D03*
X412000Y201000D02*
D03*
X302000Y166000D02*
D03*
X200500Y219000D02*
D03*
D38*
X275926Y361500D02*
D03*
X298958D02*
D03*
%TF.MD5,4ecbfb08f27125d487b340bab9a7d1fe*%
M02*
