%TF.GenerationSoftware,Altium Limited,Altium Designer,18.1.6 (161)*%
G04 Layer_Color=65535*
%FSLAX25Y25*%
%MOIN*%
%TF.FileFunction,Legend,Top*%
%TF.Part,Single*%
G01*
G75*
%TA.AperFunction,NonConductor*%
%ADD39C,0.00300*%
%ADD41C,0.00787*%
%ADD42C,0.00700*%
%ADD49C,0.01000*%
%ADD50C,0.00984*%
G36*
X383049Y282345D02*
X383123D01*
X383345Y282308D01*
X383642Y282271D01*
X384012Y282234D01*
X384456Y282123D01*
X384900Y282012D01*
X385345Y281864D01*
X385752Y281679D01*
X385789D01*
X385826Y281642D01*
X386048Y281530D01*
X386382Y281345D01*
X386752Y281049D01*
X387233Y280716D01*
X387715Y280271D01*
X388196Y279716D01*
X388640Y279123D01*
Y279086D01*
X388678Y279049D01*
X388826Y278827D01*
X388974Y278531D01*
X389159Y278161D01*
X389307Y277790D01*
X389344Y277383D01*
Y277013D01*
X389270Y276865D01*
X389159Y276716D01*
X389085Y276679D01*
X388900Y276568D01*
X388640Y276494D01*
X388455D01*
X388270Y276531D01*
X388233D01*
X388196Y276568D01*
X387974Y276716D01*
X387678Y276939D01*
X387530Y277124D01*
X387382Y277346D01*
X387345Y277383D01*
X387307Y277457D01*
X387196Y277605D01*
X387085Y277790D01*
X386678Y278272D01*
X386159Y278790D01*
X385530Y279309D01*
X384752Y279790D01*
X384345Y280012D01*
X383864Y280160D01*
X383419Y280271D01*
X382901Y280308D01*
X382456D01*
X382197Y280271D01*
X381938Y280197D01*
X381272Y280049D01*
X380938Y279901D01*
X380531Y279753D01*
X380161Y279531D01*
X379753Y279309D01*
X379346Y279012D01*
X378939Y278642D01*
X378531Y278235D01*
X378161Y277753D01*
X378124Y277716D01*
X378050Y277605D01*
X377902Y277420D01*
X377717Y277235D01*
X377309Y276790D01*
X377087Y276642D01*
X376902Y276494D01*
X376865D01*
X376828Y276457D01*
X376606Y276420D01*
X376495Y276457D01*
X376346Y276494D01*
X376198Y276568D01*
X376050Y276679D01*
X376013Y276716D01*
X375939Y276828D01*
X375865Y277050D01*
X375828Y277346D01*
Y277716D01*
X375976Y278198D01*
X376087Y278457D01*
X376236Y278753D01*
X376458Y279086D01*
X376717Y279420D01*
X376754Y279457D01*
X376791Y279494D01*
X376976Y279716D01*
X377309Y280049D01*
X377754Y280456D01*
X378272Y280901D01*
X378902Y281345D01*
X379605Y281753D01*
X380346Y282049D01*
X380383D01*
X380531Y282123D01*
X380790Y282160D01*
X381086Y282234D01*
X381494Y282308D01*
X381938Y282345D01*
X382456Y282382D01*
X383049Y282345D01*
D02*
G37*
G36*
X383234Y275198D02*
X383716Y275087D01*
X384197Y274939D01*
X384715Y274680D01*
X385197Y274309D01*
X385641Y273791D01*
X385678Y273754D01*
X385715Y273680D01*
X385789Y273532D01*
X385900Y273384D01*
X386048Y272976D01*
X386122Y272754D01*
Y272569D01*
Y272532D01*
Y272495D01*
X386048Y272273D01*
X385974Y272162D01*
X385900Y272014D01*
X385752Y271903D01*
X385567Y271792D01*
X385493Y271755D01*
X385345Y271717D01*
X384900D01*
X384863Y271755D01*
X384715Y271866D01*
X384456Y272051D01*
X384271Y272236D01*
X384049Y272421D01*
X384012Y272458D01*
X383901Y272532D01*
X383716Y272680D01*
X383493Y272828D01*
X383234Y272976D01*
X382975Y273125D01*
X382716Y273199D01*
X382493Y273236D01*
X382382D01*
X382271Y273199D01*
X382123Y273125D01*
X381938Y273050D01*
X381716Y272902D01*
X381494Y272717D01*
X381235Y272458D01*
X381198Y272421D01*
X381123Y272347D01*
X381012Y272236D01*
X380864Y272088D01*
X380531Y271829D01*
X380383Y271717D01*
X380235Y271643D01*
X380012D01*
X379753Y271755D01*
X379568Y271829D01*
X379420Y271977D01*
X379383Y272051D01*
X379272Y272199D01*
X379124Y272421D01*
X379087Y272680D01*
Y272754D01*
X379124Y272939D01*
X379272Y273273D01*
X379346Y273458D01*
X379494Y273717D01*
X379531Y273791D01*
X379679Y273939D01*
X379901Y274198D01*
X380235Y274495D01*
X380642Y274754D01*
X381198Y275013D01*
X381790Y275198D01*
X382531Y275272D01*
X382864D01*
X383234Y275198D01*
D02*
G37*
G36*
X393232Y279049D02*
X393343Y278975D01*
X393417Y278864D01*
X393454Y278753D01*
X393417Y278642D01*
X393380Y278568D01*
X393343Y278494D01*
X393269Y278346D01*
X393158Y278124D01*
X393010Y277864D01*
X392788Y277568D01*
X392529Y277161D01*
X392492Y277124D01*
X392418Y277013D01*
X392306Y276865D01*
X392195Y276679D01*
X391936Y276272D01*
X391825Y276050D01*
X391751Y275902D01*
Y275865D01*
X391714Y275717D01*
Y275495D01*
X391825Y275272D01*
X391862Y275235D01*
X391899Y275087D01*
X391973Y274865D01*
X392010Y274606D01*
X392047Y274272D01*
Y273939D01*
X392010Y273569D01*
X391862Y273199D01*
X391825Y273162D01*
X391751Y273050D01*
X391640Y272902D01*
X391455Y272717D01*
X391233Y272532D01*
X390936Y272347D01*
X390566Y272199D01*
X390122Y272088D01*
X389122Y271940D01*
X389196Y270940D01*
Y270903D01*
Y270866D01*
Y270606D01*
Y270310D01*
X389159Y270014D01*
Y269977D01*
X389085Y269829D01*
X388974Y269607D01*
X388826Y269422D01*
X388789Y269348D01*
X388678Y269236D01*
X388640Y269088D01*
Y269014D01*
X388715Y268977D01*
X389937D01*
X390455Y269014D01*
X391344D01*
X391677Y268977D01*
X391973Y268940D01*
X392158Y268866D01*
X392195Y268829D01*
X392232Y268755D01*
X392195Y268681D01*
X392158Y268533D01*
X392010Y268348D01*
X391788Y268052D01*
X391492Y267607D01*
X391270Y267348D01*
X391048Y267052D01*
X390751Y266718D01*
X390455Y266348D01*
X390418Y266311D01*
X390344Y266237D01*
X390196Y266052D01*
X390048Y265867D01*
X389826Y265645D01*
X389566Y265348D01*
X389048Y264719D01*
X389011Y264682D01*
X388937Y264571D01*
X388789Y264422D01*
X388640Y264237D01*
X388307Y263830D01*
X388122Y263608D01*
X387974Y263423D01*
X387085Y262312D01*
Y255535D01*
X383308D01*
X383419Y247796D01*
X384234Y247500D01*
X384308Y247463D01*
X384530Y247426D01*
X384678Y247352D01*
X384863Y247315D01*
X385123Y247204D01*
X385382Y247130D01*
X385419D01*
X385530Y247093D01*
X385678Y247056D01*
X385900Y246981D01*
X386382Y246833D01*
X386974Y246685D01*
X387011D01*
X387122Y246648D01*
X387270Y246611D01*
X387456Y246537D01*
X387900Y246389D01*
X388381Y246241D01*
X388418D01*
X388492Y246204D01*
X388715Y246130D01*
X388937Y246019D01*
X389048Y245982D01*
X389085Y245944D01*
X389011Y245907D01*
X388900D01*
X388678Y245870D01*
X388381D01*
X388159Y245833D01*
X387900D01*
X387604Y245796D01*
X386752D01*
X386530Y245759D01*
X385271D01*
X384456Y245722D01*
X380901D01*
X380161Y245759D01*
X378531D01*
X377754Y245796D01*
X377457D01*
X377124Y245833D01*
X376754D01*
X376384Y245870D01*
X376050Y245907D01*
X375828D01*
X375791Y245944D01*
X375754D01*
X375791Y245982D01*
X375865Y246019D01*
X375976Y246056D01*
X376124Y246130D01*
X376309Y246204D01*
X376606Y246315D01*
X376643D01*
X376754Y246352D01*
X376939Y246426D01*
X377198Y246500D01*
X377495Y246574D01*
X377865Y246685D01*
X378235Y246796D01*
X378679Y246907D01*
X381642Y247722D01*
Y255535D01*
X377865D01*
Y262238D01*
X375013Y265459D01*
X374976Y265533D01*
X374828Y265682D01*
X374606Y265941D01*
X374310Y266237D01*
X374014Y266607D01*
X373680Y267015D01*
X373014Y267792D01*
X372977Y267829D01*
X372903Y267940D01*
X372755Y268126D01*
X372606Y268311D01*
X372458Y268496D01*
X372310Y268644D01*
X372236Y268792D01*
X372199Y268829D01*
X372236D01*
X372310Y268866D01*
X372458D01*
X372718Y268903D01*
X373347D01*
X373606Y268940D01*
X375421D01*
X375754Y268977D01*
X384160D01*
X384604Y269014D01*
X385715D01*
X385900Y269051D01*
X386085Y269088D01*
X386234Y269125D01*
X386382Y269199D01*
X386493Y269273D01*
Y269385D01*
Y269422D01*
X386456Y269533D01*
X386419Y269681D01*
X386345Y269903D01*
Y269977D01*
X386308Y270125D01*
X386271Y270310D01*
X386196Y270532D01*
Y270569D01*
Y270644D01*
Y270755D01*
X386234Y270940D01*
X386308Y271273D01*
X386419Y271458D01*
X386567Y271643D01*
X386604Y271680D01*
X386641Y271717D01*
X386752Y271792D01*
X386900Y271903D01*
X387270Y272051D01*
X387493Y272088D01*
X387752Y272125D01*
X387863D01*
X388085Y272162D01*
X388344Y272199D01*
X388455Y272236D01*
X388529Y272273D01*
X388566Y272310D01*
Y272421D01*
X388529Y272569D01*
X388492Y272717D01*
X388381Y272865D01*
Y272902D01*
X388307Y272976D01*
X388270Y273088D01*
X388196Y273236D01*
X388085Y273643D01*
X388011Y274161D01*
Y274198D01*
Y274309D01*
X388048Y274421D01*
X388085Y274606D01*
X388233Y275013D01*
X388455Y275420D01*
X388492Y275458D01*
X388603Y275569D01*
X388789Y275717D01*
X389048Y275865D01*
X389122Y275902D01*
X389307Y275976D01*
X389603Y276050D01*
X389974Y276087D01*
X390085D01*
X390233Y276124D01*
X390381Y276161D01*
X390714Y276235D01*
X390899Y276309D01*
X391010Y276383D01*
X391085Y276457D01*
X391122Y276531D01*
X391233Y276642D01*
X391381Y276828D01*
X391529Y277050D01*
X391714Y277346D01*
X391936Y277716D01*
X391973Y277753D01*
X392010Y277827D01*
X392084Y277976D01*
X392195Y278124D01*
X392418Y278457D01*
X392677Y278790D01*
X392751Y278864D01*
X392862Y278975D01*
X393047Y279086D01*
X393195D01*
X393232Y279049D01*
D02*
G37*
G36*
X266024Y448302D02*
X265552D01*
Y448841D01*
X266024D01*
Y448302D01*
D02*
G37*
G36*
X257965D02*
X257493D01*
Y448841D01*
X257965D01*
Y448302D01*
D02*
G37*
G36*
X268982Y445000D02*
X268544D01*
Y445350D01*
X268538Y445344D01*
X268532Y445333D01*
X268516Y445311D01*
X268494Y445283D01*
X268466Y445255D01*
X268432Y445222D01*
X268394Y445183D01*
X268344Y445144D01*
X268294Y445106D01*
X268238Y445067D01*
X268172Y445033D01*
X268099Y445006D01*
X268027Y444978D01*
X267944Y444956D01*
X267855Y444944D01*
X267761Y444939D01*
X267728D01*
X267705Y444944D01*
X267639Y444950D01*
X267561Y444961D01*
X267467Y444983D01*
X267361Y445017D01*
X267256Y445061D01*
X267150Y445122D01*
X267145D01*
X267139Y445133D01*
X267106Y445155D01*
X267056Y445200D01*
X266995Y445255D01*
X266923Y445328D01*
X266851Y445416D01*
X266779Y445516D01*
X266718Y445633D01*
Y445638D01*
X266712Y445649D01*
X266706Y445666D01*
X266695Y445688D01*
X266684Y445721D01*
X266668Y445760D01*
X266657Y445799D01*
X266645Y445849D01*
X266618Y445960D01*
X266590Y446088D01*
X266573Y446232D01*
X266568Y446387D01*
Y446393D01*
Y446404D01*
Y446426D01*
Y446460D01*
X266573Y446493D01*
Y446537D01*
X266584Y446637D01*
X266601Y446754D01*
X266629Y446881D01*
X266662Y447015D01*
X266706Y447142D01*
Y447148D01*
X266712Y447159D01*
X266723Y447176D01*
X266734Y447198D01*
X266768Y447259D01*
X266812Y447336D01*
X266867Y447420D01*
X266940Y447503D01*
X267023Y447592D01*
X267123Y447664D01*
X267128D01*
X267134Y447670D01*
X267150Y447681D01*
X267173Y447692D01*
X267228Y447719D01*
X267306Y447758D01*
X267395Y447792D01*
X267500Y447819D01*
X267617Y447842D01*
X267739Y447847D01*
X267783D01*
X267828Y447842D01*
X267889Y447836D01*
X267961Y447819D01*
X268039Y447803D01*
X268116Y447775D01*
X268188Y447736D01*
X268199Y447731D01*
X268222Y447719D01*
X268255Y447692D01*
X268299Y447664D01*
X268355Y447625D01*
X268405Y447575D01*
X268460Y447525D01*
X268510Y447464D01*
Y448841D01*
X268982D01*
Y445000D01*
D02*
G37*
G36*
X278517Y447842D02*
X278556Y447836D01*
X278639Y447825D01*
X278739Y447803D01*
X278844Y447769D01*
X278950Y447719D01*
X279055Y447658D01*
X279061D01*
X279066Y447647D01*
X279100Y447625D01*
X279150Y447581D01*
X279211Y447525D01*
X279277Y447453D01*
X279344Y447364D01*
X279410Y447259D01*
X279466Y447142D01*
Y447137D01*
X279471Y447126D01*
X279477Y447109D01*
X279488Y447087D01*
X279499Y447053D01*
X279510Y447015D01*
X279538Y446926D01*
X279566Y446815D01*
X279588Y446693D01*
X279605Y446554D01*
X279610Y446410D01*
Y446404D01*
Y446393D01*
Y446371D01*
Y446338D01*
X279605Y446299D01*
Y446254D01*
X279594Y446154D01*
X279571Y446032D01*
X279544Y445905D01*
X279505Y445772D01*
X279455Y445638D01*
Y445633D01*
X279449Y445622D01*
X279438Y445605D01*
X279427Y445583D01*
X279388Y445522D01*
X279338Y445444D01*
X279277Y445361D01*
X279200Y445278D01*
X279111Y445194D01*
X279005Y445117D01*
X279000D01*
X278994Y445111D01*
X278978Y445100D01*
X278955Y445089D01*
X278900Y445061D01*
X278822Y445028D01*
X278728Y444994D01*
X278628Y444967D01*
X278511Y444944D01*
X278395Y444939D01*
X278356D01*
X278311Y444944D01*
X278256Y444950D01*
X278189Y444961D01*
X278117Y444978D01*
X278045Y445000D01*
X277973Y445033D01*
X277968Y445039D01*
X277940Y445050D01*
X277906Y445072D01*
X277862Y445106D01*
X277818Y445139D01*
X277762Y445183D01*
X277712Y445233D01*
X277668Y445289D01*
Y443934D01*
X277196D01*
Y447786D01*
X277623D01*
Y447420D01*
X277629Y447431D01*
X277651Y447453D01*
X277679Y447492D01*
X277723Y447536D01*
X277773Y447592D01*
X277829Y447642D01*
X277895Y447692D01*
X277962Y447736D01*
X277973Y447742D01*
X277995Y447753D01*
X278040Y447769D01*
X278095Y447792D01*
X278162Y447814D01*
X278239Y447830D01*
X278328Y447842D01*
X278428Y447847D01*
X278489D01*
X278517Y447842D01*
D02*
G37*
G36*
X263893D02*
X263976Y447836D01*
X264065Y447825D01*
X264159Y447803D01*
X264259Y447781D01*
X264353Y447747D01*
X264359D01*
X264364Y447742D01*
X264392Y447731D01*
X264437Y447708D01*
X264492Y447681D01*
X264553Y447642D01*
X264614Y447597D01*
X264670Y447547D01*
X264720Y447492D01*
X264725Y447486D01*
X264736Y447464D01*
X264758Y447425D01*
X264786Y447381D01*
X264814Y447314D01*
X264842Y447242D01*
X264864Y447159D01*
X264886Y447065D01*
X264425Y447004D01*
Y447015D01*
X264420Y447037D01*
X264409Y447076D01*
X264392Y447126D01*
X264364Y447176D01*
X264331Y447231D01*
X264292Y447287D01*
X264237Y447336D01*
X264231Y447342D01*
X264209Y447353D01*
X264176Y447375D01*
X264126Y447398D01*
X264070Y447420D01*
X263998Y447442D01*
X263909Y447453D01*
X263815Y447459D01*
X263759D01*
X263704Y447453D01*
X263632Y447447D01*
X263560Y447431D01*
X263482Y447414D01*
X263410Y447387D01*
X263349Y447348D01*
X263343Y447342D01*
X263327Y447331D01*
X263304Y447309D01*
X263282Y447275D01*
X263254Y447242D01*
X263232Y447198D01*
X263215Y447148D01*
X263210Y447098D01*
Y447092D01*
Y447081D01*
X263215Y447065D01*
Y447042D01*
X263232Y446987D01*
X263265Y446931D01*
X263271Y446926D01*
X263277Y446920D01*
X263288Y446904D01*
X263310Y446887D01*
X263332Y446870D01*
X263365Y446848D01*
X263404Y446832D01*
X263449Y446809D01*
X263454D01*
X263465Y446804D01*
X263488Y446798D01*
X263526Y446781D01*
X263582Y446765D01*
X263654Y446748D01*
X263698Y446732D01*
X263748Y446721D01*
X263804Y446704D01*
X263865Y446687D01*
X263870D01*
X263887Y446682D01*
X263915Y446676D01*
X263948Y446665D01*
X263987Y446654D01*
X264037Y446643D01*
X264142Y446609D01*
X264259Y446576D01*
X264375Y446537D01*
X264481Y446498D01*
X264525Y446482D01*
X264564Y446465D01*
X264575Y446460D01*
X264598Y446449D01*
X264631Y446432D01*
X264681Y446404D01*
X264731Y446371D01*
X264781Y446326D01*
X264831Y446277D01*
X264875Y446221D01*
X264880Y446215D01*
X264892Y446193D01*
X264914Y446160D01*
X264936Y446110D01*
X264953Y446049D01*
X264975Y445982D01*
X264986Y445905D01*
X264992Y445816D01*
Y445805D01*
Y445777D01*
X264986Y445733D01*
X264975Y445672D01*
X264958Y445605D01*
X264931Y445533D01*
X264897Y445449D01*
X264853Y445372D01*
X264847Y445361D01*
X264825Y445339D01*
X264797Y445300D01*
X264753Y445255D01*
X264692Y445205D01*
X264625Y445150D01*
X264548Y445100D01*
X264453Y445050D01*
X264448D01*
X264442Y445044D01*
X264409Y445033D01*
X264353Y445017D01*
X264281Y444994D01*
X264192Y444972D01*
X264092Y444956D01*
X263987Y444944D01*
X263865Y444939D01*
X263815D01*
X263776Y444944D01*
X263732D01*
X263676Y444950D01*
X263621Y444956D01*
X263560Y444967D01*
X263426Y444994D01*
X263288Y445033D01*
X263155Y445089D01*
X263093Y445122D01*
X263038Y445161D01*
X263032Y445166D01*
X263027Y445172D01*
X262994Y445205D01*
X262944Y445255D01*
X262888Y445333D01*
X262827Y445427D01*
X262766Y445538D01*
X262716Y445677D01*
X262677Y445832D01*
X263143Y445905D01*
Y445899D01*
Y445893D01*
X263155Y445860D01*
X263166Y445805D01*
X263188Y445744D01*
X263215Y445677D01*
X263249Y445605D01*
X263299Y445533D01*
X263360Y445472D01*
X263371Y445466D01*
X263393Y445449D01*
X263438Y445427D01*
X263493Y445400D01*
X263565Y445372D01*
X263649Y445350D01*
X263748Y445333D01*
X263865Y445328D01*
X263920D01*
X263976Y445333D01*
X264048Y445344D01*
X264126Y445361D01*
X264209Y445383D01*
X264281Y445411D01*
X264348Y445455D01*
X264353Y445461D01*
X264375Y445477D01*
X264398Y445505D01*
X264431Y445544D01*
X264459Y445588D01*
X264487Y445644D01*
X264503Y445699D01*
X264509Y445766D01*
Y445772D01*
Y445794D01*
X264503Y445821D01*
X264492Y445860D01*
X264475Y445899D01*
X264448Y445938D01*
X264414Y445982D01*
X264364Y446016D01*
X264359Y446021D01*
X264342Y446027D01*
X264314Y446043D01*
X264270Y446060D01*
X264204Y446082D01*
X264165Y446099D01*
X264120Y446110D01*
X264070Y446127D01*
X264015Y446143D01*
X263954Y446160D01*
X263882Y446177D01*
X263876D01*
X263859Y446182D01*
X263832Y446188D01*
X263798Y446199D01*
X263754Y446210D01*
X263704Y446227D01*
X263598Y446254D01*
X263476Y446293D01*
X263360Y446326D01*
X263249Y446365D01*
X263199Y446387D01*
X263160Y446404D01*
X263149Y446410D01*
X263127Y446421D01*
X263093Y446443D01*
X263049Y446471D01*
X262999Y446510D01*
X262949Y446554D01*
X262899Y446604D01*
X262855Y446665D01*
X262849Y446671D01*
X262838Y446693D01*
X262822Y446732D01*
X262805Y446776D01*
X262788Y446832D01*
X262772Y446898D01*
X262760Y446965D01*
X262755Y447042D01*
Y447053D01*
Y447076D01*
X262760Y447109D01*
X262766Y447159D01*
X262777Y447209D01*
X262788Y447270D01*
X262810Y447326D01*
X262838Y447387D01*
X262844Y447392D01*
X262855Y447414D01*
X262872Y447442D01*
X262899Y447481D01*
X262932Y447520D01*
X262971Y447570D01*
X263016Y447614D01*
X263071Y447653D01*
X263077Y447658D01*
X263093Y447664D01*
X263116Y447681D01*
X263149Y447697D01*
X263193Y447719D01*
X263243Y447742D01*
X263304Y447764D01*
X263371Y447786D01*
X263382Y447792D01*
X263404Y447797D01*
X263443Y447808D01*
X263493Y447819D01*
X263554Y447830D01*
X263621Y447836D01*
X263698Y447847D01*
X263832D01*
X263893Y447842D01*
D02*
G37*
G36*
X259714D02*
X259797Y447836D01*
X259886Y447825D01*
X259980Y447803D01*
X260080Y447781D01*
X260174Y447747D01*
X260180D01*
X260185Y447742D01*
X260213Y447731D01*
X260257Y447708D01*
X260313Y447681D01*
X260374Y447642D01*
X260435Y447597D01*
X260490Y447547D01*
X260541Y447492D01*
X260546Y447486D01*
X260557Y447464D01*
X260579Y447425D01*
X260607Y447381D01*
X260635Y447314D01*
X260663Y447242D01*
X260685Y447159D01*
X260707Y447065D01*
X260246Y447004D01*
Y447015D01*
X260241Y447037D01*
X260230Y447076D01*
X260213Y447126D01*
X260185Y447176D01*
X260152Y447231D01*
X260113Y447287D01*
X260058Y447336D01*
X260052Y447342D01*
X260030Y447353D01*
X259997Y447375D01*
X259947Y447398D01*
X259891Y447420D01*
X259819Y447442D01*
X259730Y447453D01*
X259636Y447459D01*
X259580D01*
X259525Y447453D01*
X259453Y447447D01*
X259381Y447431D01*
X259303Y447414D01*
X259231Y447387D01*
X259170Y447348D01*
X259164Y447342D01*
X259147Y447331D01*
X259125Y447309D01*
X259103Y447275D01*
X259075Y447242D01*
X259053Y447198D01*
X259036Y447148D01*
X259031Y447098D01*
Y447092D01*
Y447081D01*
X259036Y447065D01*
Y447042D01*
X259053Y446987D01*
X259086Y446931D01*
X259092Y446926D01*
X259097Y446920D01*
X259109Y446904D01*
X259131Y446887D01*
X259153Y446870D01*
X259186Y446848D01*
X259225Y446832D01*
X259269Y446809D01*
X259275D01*
X259286Y446804D01*
X259308Y446798D01*
X259347Y446781D01*
X259403Y446765D01*
X259475Y446748D01*
X259519Y446732D01*
X259569Y446721D01*
X259625Y446704D01*
X259686Y446687D01*
X259691D01*
X259708Y446682D01*
X259736Y446676D01*
X259769Y446665D01*
X259808Y446654D01*
X259858Y446643D01*
X259963Y446609D01*
X260080Y446576D01*
X260196Y446537D01*
X260302Y446498D01*
X260346Y446482D01*
X260385Y446465D01*
X260396Y446460D01*
X260418Y446449D01*
X260452Y446432D01*
X260502Y446404D01*
X260552Y446371D01*
X260601Y446326D01*
X260651Y446277D01*
X260696Y446221D01*
X260701Y446215D01*
X260713Y446193D01*
X260735Y446160D01*
X260757Y446110D01*
X260773Y446049D01*
X260796Y445982D01*
X260807Y445905D01*
X260812Y445816D01*
Y445805D01*
Y445777D01*
X260807Y445733D01*
X260796Y445672D01*
X260779Y445605D01*
X260751Y445533D01*
X260718Y445449D01*
X260674Y445372D01*
X260668Y445361D01*
X260646Y445339D01*
X260618Y445300D01*
X260574Y445255D01*
X260513Y445205D01*
X260446Y445150D01*
X260368Y445100D01*
X260274Y445050D01*
X260268D01*
X260263Y445044D01*
X260230Y445033D01*
X260174Y445017D01*
X260102Y444994D01*
X260013Y444972D01*
X259913Y444956D01*
X259808Y444944D01*
X259686Y444939D01*
X259636D01*
X259597Y444944D01*
X259553D01*
X259497Y444950D01*
X259442Y444956D01*
X259381Y444967D01*
X259247Y444994D01*
X259109Y445033D01*
X258975Y445089D01*
X258914Y445122D01*
X258859Y445161D01*
X258853Y445166D01*
X258848Y445172D01*
X258814Y445205D01*
X258764Y445255D01*
X258709Y445333D01*
X258648Y445427D01*
X258587Y445538D01*
X258537Y445677D01*
X258498Y445832D01*
X258964Y445905D01*
Y445899D01*
Y445893D01*
X258975Y445860D01*
X258986Y445805D01*
X259009Y445744D01*
X259036Y445677D01*
X259070Y445605D01*
X259120Y445533D01*
X259181Y445472D01*
X259192Y445466D01*
X259214Y445449D01*
X259258Y445427D01*
X259314Y445400D01*
X259386Y445372D01*
X259469Y445350D01*
X259569Y445333D01*
X259686Y445328D01*
X259741D01*
X259797Y445333D01*
X259869Y445344D01*
X259947Y445361D01*
X260030Y445383D01*
X260102Y445411D01*
X260169Y445455D01*
X260174Y445461D01*
X260196Y445477D01*
X260219Y445505D01*
X260252Y445544D01*
X260280Y445588D01*
X260307Y445644D01*
X260324Y445699D01*
X260330Y445766D01*
Y445772D01*
Y445794D01*
X260324Y445821D01*
X260313Y445860D01*
X260296Y445899D01*
X260268Y445938D01*
X260235Y445982D01*
X260185Y446016D01*
X260180Y446021D01*
X260163Y446027D01*
X260135Y446043D01*
X260091Y446060D01*
X260024Y446082D01*
X259985Y446099D01*
X259941Y446110D01*
X259891Y446127D01*
X259836Y446143D01*
X259774Y446160D01*
X259702Y446177D01*
X259697D01*
X259680Y446182D01*
X259652Y446188D01*
X259619Y446199D01*
X259575Y446210D01*
X259525Y446227D01*
X259419Y446254D01*
X259297Y446293D01*
X259181Y446326D01*
X259070Y446365D01*
X259020Y446387D01*
X258981Y446404D01*
X258970Y446410D01*
X258948Y446421D01*
X258914Y446443D01*
X258870Y446471D01*
X258820Y446510D01*
X258770Y446554D01*
X258720Y446604D01*
X258676Y446665D01*
X258670Y446671D01*
X258659Y446693D01*
X258642Y446732D01*
X258626Y446776D01*
X258609Y446832D01*
X258592Y446898D01*
X258581Y446965D01*
X258576Y447042D01*
Y447053D01*
Y447076D01*
X258581Y447109D01*
X258587Y447159D01*
X258598Y447209D01*
X258609Y447270D01*
X258631Y447326D01*
X258659Y447387D01*
X258665Y447392D01*
X258676Y447414D01*
X258692Y447442D01*
X258720Y447481D01*
X258753Y447520D01*
X258792Y447570D01*
X258837Y447614D01*
X258892Y447653D01*
X258898Y447658D01*
X258914Y447664D01*
X258937Y447681D01*
X258970Y447697D01*
X259014Y447719D01*
X259064Y447742D01*
X259125Y447764D01*
X259192Y447786D01*
X259203Y447792D01*
X259225Y447797D01*
X259264Y447808D01*
X259314Y447819D01*
X259375Y447830D01*
X259442Y447836D01*
X259519Y447847D01*
X259652D01*
X259714Y447842D01*
D02*
G37*
G36*
X276458Y445000D02*
X276036D01*
Y445405D01*
X276030Y445400D01*
X276019Y445383D01*
X276003Y445361D01*
X275975Y445333D01*
X275942Y445300D01*
X275903Y445255D01*
X275858Y445216D01*
X275803Y445172D01*
X275742Y445128D01*
X275675Y445089D01*
X275603Y445050D01*
X275525Y445011D01*
X275437Y444983D01*
X275348Y444961D01*
X275248Y444944D01*
X275148Y444939D01*
X275109D01*
X275059Y444944D01*
X274998Y444950D01*
X274926Y444961D01*
X274848Y444978D01*
X274771Y445000D01*
X274687Y445033D01*
X274676Y445039D01*
X274654Y445050D01*
X274615Y445072D01*
X274571Y445100D01*
X274515Y445133D01*
X274465Y445172D01*
X274415Y445216D01*
X274371Y445266D01*
X274365Y445272D01*
X274354Y445294D01*
X274338Y445322D01*
X274316Y445366D01*
X274288Y445416D01*
X274266Y445477D01*
X274243Y445544D01*
X274227Y445616D01*
Y445622D01*
X274221Y445644D01*
X274216Y445677D01*
Y445721D01*
X274210Y445788D01*
X274205Y445860D01*
X274199Y445955D01*
Y446060D01*
Y447786D01*
X274671D01*
Y446238D01*
Y446232D01*
Y446221D01*
Y446204D01*
Y446177D01*
Y446115D01*
X274676Y446038D01*
Y445955D01*
X274682Y445871D01*
X274687Y445799D01*
X274698Y445738D01*
Y445733D01*
X274710Y445710D01*
X274721Y445677D01*
X274737Y445633D01*
X274765Y445588D01*
X274798Y445538D01*
X274837Y445494D01*
X274887Y445449D01*
X274893Y445444D01*
X274915Y445433D01*
X274943Y445416D01*
X274987Y445400D01*
X275037Y445377D01*
X275098Y445361D01*
X275165Y445350D01*
X275242Y445344D01*
X275281D01*
X275320Y445350D01*
X275370Y445355D01*
X275431Y445372D01*
X275498Y445389D01*
X275570Y445416D01*
X275642Y445449D01*
X275653Y445455D01*
X275675Y445472D01*
X275709Y445494D01*
X275747Y445527D01*
X275792Y445572D01*
X275836Y445622D01*
X275875Y445677D01*
X275908Y445744D01*
X275914Y445755D01*
X275920Y445777D01*
X275931Y445821D01*
X275947Y445882D01*
X275964Y445960D01*
X275975Y446055D01*
X275980Y446166D01*
X275986Y446293D01*
Y447786D01*
X276458D01*
Y445000D01*
D02*
G37*
G36*
X266024D02*
X265552D01*
Y447786D01*
X266024D01*
Y445000D01*
D02*
G37*
G36*
X257965D02*
X257493D01*
Y447786D01*
X257965D01*
Y445000D01*
D02*
G37*
G36*
X254979Y447464D02*
X254985Y447470D01*
X254996Y447481D01*
X255013Y447498D01*
X255040Y447525D01*
X255068Y447553D01*
X255107Y447586D01*
X255157Y447620D01*
X255207Y447658D01*
X255262Y447692D01*
X255324Y447725D01*
X255468Y447786D01*
X255545Y447814D01*
X255629Y447830D01*
X255717Y447842D01*
X255806Y447847D01*
X255856D01*
X255917Y447842D01*
X255989Y447830D01*
X256073Y447819D01*
X256161Y447797D01*
X256250Y447764D01*
X256339Y447725D01*
X256350Y447719D01*
X256378Y447703D01*
X256417Y447675D01*
X256467Y447636D01*
X256517Y447586D01*
X256572Y447531D01*
X256622Y447464D01*
X256667Y447387D01*
X256672Y447375D01*
X256683Y447348D01*
X256700Y447298D01*
X256716Y447226D01*
X256733Y447137D01*
X256750Y447031D01*
X256761Y446904D01*
X256766Y446759D01*
Y445000D01*
X256295D01*
Y446765D01*
Y446770D01*
Y446781D01*
Y446798D01*
Y446820D01*
X256289Y446881D01*
X256278Y446959D01*
X256256Y447042D01*
X256228Y447126D01*
X256189Y447209D01*
X256139Y447275D01*
X256134Y447281D01*
X256112Y447303D01*
X256078Y447331D01*
X256028Y447359D01*
X255967Y447392D01*
X255895Y447414D01*
X255806Y447436D01*
X255706Y447442D01*
X255673D01*
X255634Y447436D01*
X255579Y447431D01*
X255523Y447414D01*
X255457Y447398D01*
X255390Y447370D01*
X255318Y447331D01*
X255312Y447326D01*
X255290Y447309D01*
X255257Y447287D01*
X255218Y447253D01*
X255174Y447209D01*
X255129Y447159D01*
X255090Y447098D01*
X255057Y447031D01*
X255051Y447020D01*
X255046Y446998D01*
X255035Y446954D01*
X255018Y446898D01*
X255001Y446826D01*
X254991Y446737D01*
X254985Y446637D01*
X254979Y446521D01*
Y445000D01*
X254508D01*
Y448841D01*
X254979D01*
Y447464D01*
D02*
G37*
G36*
X254041Y448385D02*
X252776D01*
Y445000D01*
X252265D01*
Y448385D01*
X251000D01*
Y448841D01*
X254041D01*
Y448385D01*
D02*
G37*
G36*
X270963Y447842D02*
X271008Y447836D01*
X271063Y447825D01*
X271124Y447814D01*
X271197Y447797D01*
X271263Y447781D01*
X271341Y447753D01*
X271413Y447725D01*
X271491Y447686D01*
X271568Y447642D01*
X271646Y447592D01*
X271718Y447531D01*
X271785Y447464D01*
X271790Y447459D01*
X271801Y447447D01*
X271818Y447425D01*
X271840Y447392D01*
X271868Y447353D01*
X271896Y447309D01*
X271929Y447253D01*
X271962Y447187D01*
X271996Y447115D01*
X272029Y447037D01*
X272057Y446948D01*
X272084Y446854D01*
X272107Y446748D01*
X272123Y446637D01*
X272134Y446521D01*
X272140Y446393D01*
Y446387D01*
Y446365D01*
Y446326D01*
X272134Y446271D01*
X270053D01*
Y446265D01*
Y446249D01*
X270059Y446227D01*
Y446193D01*
X270064Y446154D01*
X270075Y446110D01*
X270092Y446010D01*
X270125Y445899D01*
X270170Y445777D01*
X270231Y445666D01*
X270308Y445566D01*
X270314D01*
X270320Y445555D01*
X270353Y445527D01*
X270403Y445488D01*
X270469Y445449D01*
X270558Y445405D01*
X270658Y445366D01*
X270769Y445339D01*
X270830Y445333D01*
X270897Y445328D01*
X270941D01*
X270991Y445333D01*
X271052Y445344D01*
X271119Y445361D01*
X271197Y445383D01*
X271269Y445416D01*
X271341Y445461D01*
X271346Y445466D01*
X271374Y445488D01*
X271407Y445522D01*
X271446Y445566D01*
X271491Y445627D01*
X271540Y445705D01*
X271590Y445794D01*
X271635Y445899D01*
X272123Y445838D01*
Y445832D01*
X272118Y445821D01*
X272112Y445799D01*
X272101Y445766D01*
X272084Y445733D01*
X272068Y445688D01*
X272023Y445594D01*
X271968Y445488D01*
X271890Y445377D01*
X271801Y445272D01*
X271690Y445172D01*
X271685D01*
X271674Y445161D01*
X271657Y445150D01*
X271635Y445133D01*
X271602Y445117D01*
X271568Y445100D01*
X271524Y445078D01*
X271474Y445055D01*
X271418Y445033D01*
X271363Y445011D01*
X271224Y444978D01*
X271069Y444950D01*
X270897Y444939D01*
X270836D01*
X270797Y444944D01*
X270747Y444950D01*
X270686Y444961D01*
X270619Y444972D01*
X270547Y444983D01*
X270392Y445028D01*
X270308Y445061D01*
X270231Y445094D01*
X270147Y445139D01*
X270070Y445189D01*
X269998Y445244D01*
X269925Y445311D01*
X269920Y445316D01*
X269909Y445328D01*
X269892Y445350D01*
X269870Y445383D01*
X269842Y445422D01*
X269814Y445466D01*
X269781Y445522D01*
X269748Y445583D01*
X269715Y445655D01*
X269681Y445733D01*
X269654Y445821D01*
X269626Y445916D01*
X269604Y446016D01*
X269587Y446127D01*
X269576Y446243D01*
X269570Y446365D01*
Y446371D01*
Y446399D01*
Y446432D01*
X269576Y446482D01*
X269581Y446543D01*
X269587Y446609D01*
X269598Y446687D01*
X269615Y446765D01*
X269659Y446943D01*
X269687Y447031D01*
X269720Y447126D01*
X269765Y447215D01*
X269814Y447298D01*
X269870Y447381D01*
X269931Y447459D01*
X269937Y447464D01*
X269948Y447475D01*
X269970Y447492D01*
X269998Y447520D01*
X270031Y447547D01*
X270075Y447581D01*
X270125Y447620D01*
X270186Y447653D01*
X270247Y447692D01*
X270320Y447725D01*
X270397Y447758D01*
X270480Y447786D01*
X270569Y447814D01*
X270664Y447830D01*
X270763Y447842D01*
X270869Y447847D01*
X270924D01*
X270963Y447842D01*
D02*
G37*
%LPC*%
G36*
X382493Y267755D02*
X378939D01*
X378346Y267718D01*
X377717D01*
X377161Y267681D01*
X376717D01*
X376458Y267644D01*
X376236D01*
X376013Y267607D01*
X375902D01*
X375865Y267570D01*
X375939Y267496D01*
X376087Y267385D01*
X376273Y267237D01*
X376346Y267200D01*
X376495Y267089D01*
X376754Y266903D01*
X377050Y266718D01*
X377087D01*
X377161Y266644D01*
X377309Y266570D01*
X377457Y266496D01*
X377865Y266311D01*
X378309Y266163D01*
X378457D01*
X378642Y266126D01*
X379346D01*
X379901Y266089D01*
X382679D01*
X383160Y266126D01*
X384049D01*
X384234Y266163D01*
X384382D01*
X384456Y266200D01*
X384678Y266237D01*
X384938Y266385D01*
X385049Y266496D01*
X385123Y266607D01*
X385160Y266644D01*
X385234Y266718D01*
X385308Y266866D01*
X385345Y267015D01*
Y267052D01*
Y267126D01*
Y267237D01*
X385308Y267348D01*
Y267385D01*
X385271Y267422D01*
X385234Y267459D01*
X385419D01*
X385456Y267422D01*
X385604Y267385D01*
X385641D01*
X385678Y267422D01*
X385789Y267533D01*
Y267570D01*
X385752D01*
X385678Y267607D01*
X385530D01*
X385308Y267644D01*
X385012Y267681D01*
X384382D01*
X384086Y267718D01*
X383123D01*
X382493Y267755D01*
D02*
G37*
G36*
X388826D02*
X387419D01*
X387085Y267718D01*
X386900Y267681D01*
X386789Y267644D01*
X386752Y267607D01*
X386604Y267533D01*
X386419Y267348D01*
X386196Y267052D01*
X386159Y267015D01*
X386122Y266941D01*
X385937Y266681D01*
X385789Y266385D01*
X385715Y266274D01*
Y266200D01*
X385826Y266163D01*
X385900Y266126D01*
X386419D01*
X386567Y266163D01*
X386789Y266237D01*
X387122Y266385D01*
X387159D01*
X387196Y266422D01*
X387419Y266570D01*
X387678Y266755D01*
X387937Y266978D01*
X387974D01*
X388826Y267755D01*
D02*
G37*
G36*
X267789Y447459D02*
X267761D01*
X267739Y447453D01*
X267678Y447447D01*
X267606Y447425D01*
X267522Y447398D01*
X267434Y447348D01*
X267345Y447287D01*
X267300Y447242D01*
X267262Y447198D01*
Y447192D01*
X267250Y447187D01*
X267245Y447170D01*
X267228Y447148D01*
X267212Y447120D01*
X267195Y447087D01*
X267178Y447048D01*
X267156Y447004D01*
X267134Y446948D01*
X267117Y446887D01*
X267101Y446820D01*
X267084Y446748D01*
X267073Y446671D01*
X267062Y446582D01*
X267051Y446487D01*
Y446387D01*
Y446382D01*
Y446365D01*
Y446338D01*
X267056Y446299D01*
Y446254D01*
X267062Y446204D01*
X267078Y446088D01*
X267106Y445960D01*
X267145Y445827D01*
X267200Y445699D01*
X267234Y445644D01*
X267273Y445588D01*
X267278D01*
X267284Y445577D01*
X267312Y445549D01*
X267361Y445505D01*
X267422Y445461D01*
X267500Y445411D01*
X267595Y445366D01*
X267694Y445339D01*
X267750Y445333D01*
X267805Y445328D01*
X267833D01*
X267855Y445333D01*
X267916Y445339D01*
X267988Y445361D01*
X268072Y445389D01*
X268161Y445433D01*
X268249Y445494D01*
X268294Y445533D01*
X268333Y445577D01*
Y445583D01*
X268344Y445588D01*
X268355Y445605D01*
X268366Y445627D01*
X268383Y445655D01*
X268405Y445683D01*
X268422Y445727D01*
X268444Y445772D01*
X268466Y445821D01*
X268482Y445877D01*
X268505Y445943D01*
X268521Y446010D01*
X268532Y446088D01*
X268544Y446166D01*
X268555Y446254D01*
Y446349D01*
Y446354D01*
Y446376D01*
Y446404D01*
X268549Y446443D01*
Y446487D01*
X268544Y446543D01*
X268538Y446604D01*
X268527Y446671D01*
X268499Y446804D01*
X268460Y446943D01*
X268405Y447076D01*
X268372Y447131D01*
X268333Y447187D01*
Y447192D01*
X268321Y447198D01*
X268294Y447231D01*
X268244Y447275D01*
X268183Y447326D01*
X268105Y447375D01*
X268011Y447414D01*
X267905Y447447D01*
X267850Y447453D01*
X267789Y447459D01*
D02*
G37*
G36*
X278384Y447475D02*
X278356D01*
X278334Y447470D01*
X278278Y447459D01*
X278206Y447442D01*
X278123Y447409D01*
X278034Y447359D01*
X277984Y447326D01*
X277940Y447287D01*
X277895Y447242D01*
X277851Y447192D01*
Y447187D01*
X277840Y447181D01*
X277829Y447164D01*
X277818Y447142D01*
X277801Y447109D01*
X277779Y447076D01*
X277757Y447031D01*
X277740Y446987D01*
X277718Y446931D01*
X277695Y446870D01*
X277679Y446804D01*
X277657Y446732D01*
X277646Y446648D01*
X277635Y446565D01*
X277623Y446476D01*
Y446376D01*
Y446371D01*
Y446354D01*
Y446326D01*
X277629Y446288D01*
Y446243D01*
X277635Y446193D01*
X277651Y446077D01*
X277679Y445943D01*
X277712Y445816D01*
X277768Y445688D01*
X277801Y445633D01*
X277840Y445583D01*
X277851Y445572D01*
X277879Y445544D01*
X277923Y445500D01*
X277984Y445455D01*
X278062Y445411D01*
X278151Y445366D01*
X278251Y445339D01*
X278306Y445333D01*
X278362Y445328D01*
X278395D01*
X278417Y445333D01*
X278472Y445344D01*
X278550Y445361D01*
X278633Y445394D01*
X278722Y445438D01*
X278811Y445505D01*
X278855Y445544D01*
X278900Y445588D01*
Y445594D01*
X278911Y445599D01*
X278922Y445616D01*
X278933Y445638D01*
X278955Y445666D01*
X278972Y445705D01*
X278994Y445744D01*
X279016Y445794D01*
X279033Y445844D01*
X279055Y445910D01*
X279077Y445977D01*
X279094Y446049D01*
X279105Y446132D01*
X279116Y446221D01*
X279127Y446315D01*
Y446415D01*
Y446421D01*
Y446437D01*
Y446465D01*
X279122Y446504D01*
Y446548D01*
X279116Y446598D01*
X279100Y446715D01*
X279072Y446843D01*
X279033Y446970D01*
X278978Y447098D01*
X278944Y447159D01*
X278905Y447209D01*
Y447215D01*
X278894Y447220D01*
X278867Y447253D01*
X278822Y447292D01*
X278761Y447342D01*
X278683Y447392D01*
X278595Y447436D01*
X278495Y447464D01*
X278439Y447470D01*
X278384Y447475D01*
D02*
G37*
G36*
X270875Y447459D02*
X270841D01*
X270819Y447453D01*
X270758Y447447D01*
X270686Y447431D01*
X270597Y447403D01*
X270503Y447364D01*
X270414Y447309D01*
X270325Y447237D01*
X270314Y447226D01*
X270292Y447198D01*
X270253Y447148D01*
X270214Y447081D01*
X270170Y447004D01*
X270131Y446904D01*
X270098Y446787D01*
X270081Y446660D01*
X271640D01*
Y446665D01*
Y446676D01*
X271635Y446693D01*
Y446715D01*
X271624Y446781D01*
X271607Y446854D01*
X271579Y446943D01*
X271552Y447026D01*
X271507Y447109D01*
X271457Y447181D01*
Y447187D01*
X271446Y447192D01*
X271418Y447226D01*
X271369Y447270D01*
X271302Y447320D01*
X271219Y447370D01*
X271119Y447414D01*
X271002Y447447D01*
X270941Y447453D01*
X270875Y447459D01*
D02*
G37*
%LPD*%
D39*
X326923Y284500D02*
X387423D01*
Y294500D01*
X326923D02*
X387423D01*
X326923Y284500D02*
Y294500D01*
D41*
X303835Y332429D02*
Y338827D01*
X314071Y332429D02*
Y338827D01*
X312299Y332429D02*
X314071D01*
X303835D02*
X305606D01*
X247016Y344425D02*
Y357575D01*
Y344425D02*
X281465D01*
X247016Y357575D02*
X281465D01*
Y344425D02*
Y357575D01*
X383764Y339803D02*
Y340197D01*
X379236Y339803D02*
Y340197D01*
X391264Y339803D02*
Y340197D01*
X386736Y339803D02*
Y340197D01*
X376764Y310803D02*
Y311197D01*
X372236Y310803D02*
Y311197D01*
X336236Y309803D02*
Y310197D01*
X340764Y309803D02*
Y310197D01*
X249043Y380988D02*
X249437D01*
X249043Y385319D02*
X249437D01*
X305215Y369768D02*
X310480D01*
X298768Y376215D02*
X305215Y369768D01*
X325785D02*
X332232Y376215D01*
X320520Y369768D02*
X325785D01*
X298768Y376215D02*
Y403232D01*
X310480D01*
X320520D02*
X332232D01*
Y376215D02*
Y403232D01*
X199211Y215506D02*
X201994Y218289D01*
X199211D02*
X201994Y215506D01*
X334374Y347153D02*
Y347547D01*
X329847Y347153D02*
Y347547D01*
X283803Y328165D02*
X284197D01*
X283803Y323835D02*
X284197D01*
X285575Y337803D02*
Y338197D01*
X289906Y337803D02*
Y338197D01*
X283803Y319264D02*
X284197D01*
X283803Y314736D02*
X284197D01*
X250969Y231898D02*
Y244102D01*
X247031Y231898D02*
Y244102D01*
Y231898D02*
X250969D01*
X247031Y244102D02*
X250969D01*
X231063Y287165D02*
X231457D01*
X231063Y282835D02*
X231457D01*
X224142Y295079D02*
X225913D01*
X232606D02*
X234378D01*
Y301476D01*
X224142Y295079D02*
Y301476D01*
X235524Y351000D02*
Y351394D01*
X230996Y351000D02*
Y351394D01*
X237063Y336902D02*
X237457D01*
X237063Y341233D02*
X237457D01*
X224264Y379303D02*
Y379697D01*
X219736Y379303D02*
Y379697D01*
X215165Y379303D02*
Y379697D01*
X210835Y379303D02*
Y379697D01*
X231063Y278264D02*
X231457D01*
X231063Y273736D02*
X231457D01*
X234925Y315803D02*
Y316197D01*
X230594Y315803D02*
Y316197D01*
X242284Y315803D02*
Y316197D01*
X237756Y315803D02*
Y316197D01*
X243024Y351000D02*
Y351394D01*
X238496Y351000D02*
Y351394D01*
X231095Y364629D02*
Y365023D01*
X235425Y364629D02*
Y365023D01*
X208803Y356504D02*
X209197D01*
X208803Y351976D02*
X209197D01*
X208803Y349165D02*
X209197D01*
X208803Y344835D02*
X209197D01*
X213382Y360579D02*
X215154D01*
X221847D02*
X223618D01*
Y366976D01*
X213382Y360579D02*
Y366976D01*
X247807Y394457D02*
Y394850D01*
X243280Y394457D02*
Y394850D01*
X255504Y393957D02*
Y394350D01*
X250976Y393957D02*
Y394350D01*
X255405Y408957D02*
Y409350D01*
X251075Y408957D02*
Y409350D01*
X243075Y408803D02*
Y409197D01*
X247406Y408803D02*
Y409197D01*
X302496Y328165D02*
X302890D01*
X302496Y323835D02*
X302890D01*
X302496Y320264D02*
X302890D01*
X302496Y315736D02*
X302890D01*
X309717Y352803D02*
Y353197D01*
X305189Y352803D02*
Y353197D01*
X300398Y352803D02*
Y353197D01*
X296067Y352803D02*
Y353197D01*
X277043Y371012D02*
X277437D01*
X277043Y375342D02*
X277437D01*
X276004Y384130D02*
Y384524D01*
X271476Y384130D02*
Y384524D01*
X283504Y384130D02*
Y384524D01*
X278976Y384130D02*
Y384524D01*
X282405Y397980D02*
Y398374D01*
X278075Y397980D02*
Y398374D01*
X271575Y397827D02*
Y398220D01*
X275905Y397827D02*
Y398220D01*
X242925Y364500D02*
Y364894D01*
X238595Y364500D02*
Y364894D01*
X336670Y355807D02*
Y369193D01*
X375252Y355807D02*
Y369193D01*
X336670Y355807D02*
X375252D01*
X336670Y369193D02*
X375252D01*
X225803Y223165D02*
X226197D01*
X225803Y218835D02*
X226197D01*
X225803Y214989D02*
X226197D01*
X225803Y210659D02*
X226197D01*
X225803Y206814D02*
X226197D01*
X225803Y202483D02*
X226197D01*
X179803Y326665D02*
X180197D01*
X179803Y322335D02*
X180197D01*
X179803Y318165D02*
X180197D01*
X179803Y313835D02*
X180197D01*
X179803Y310165D02*
X180197D01*
X179803Y305835D02*
X180197D01*
X223303Y420665D02*
X223697D01*
X223303Y416335D02*
X223697D01*
X222957Y407165D02*
X223350D01*
X222957Y402835D02*
X223350D01*
X223303Y413665D02*
X223697D01*
X223303Y409335D02*
X223697D01*
X274803Y198335D02*
X275197D01*
X274803Y202665D02*
X275197D01*
X273835Y190803D02*
Y191197D01*
X278165Y190803D02*
Y191197D01*
X288303Y166835D02*
X288697D01*
X288303Y171165D02*
X288697D01*
X306335Y178303D02*
Y178697D01*
X310665Y178303D02*
Y178697D01*
X314370Y178303D02*
Y178697D01*
X318701Y178303D02*
Y178697D01*
X322335Y178303D02*
Y178697D01*
X326665Y178303D02*
Y178697D01*
X303543Y163386D02*
Y167323D01*
X301575Y165354D02*
X305512D01*
X401303Y197835D02*
X401697D01*
X401303Y202165D02*
X401697D01*
X404303Y210835D02*
X404697D01*
X404303Y215165D02*
X404697D01*
X404803Y221335D02*
X405197D01*
X404803Y225665D02*
X405197D01*
X410901Y202679D02*
X413685Y199896D01*
X410901D02*
X413685Y202679D01*
X462598Y303543D02*
X466535D01*
X464567Y301575D02*
Y305512D01*
X399303Y396988D02*
X399697D01*
X399303Y401319D02*
X399697D01*
X398803Y405835D02*
X399197D01*
X398803Y410165D02*
X399197D01*
X398803Y415335D02*
X399197D01*
X398803Y419665D02*
X399197D01*
X425681Y409535D02*
X428465Y412319D01*
X425681Y412319D02*
X428465Y409535D01*
X309665Y454303D02*
Y454697D01*
X305335Y454303D02*
Y454697D01*
X417520Y346398D02*
X422785D01*
X429232Y339951D01*
X395768D02*
X402215Y346398D01*
X407480D01*
X429232Y312933D02*
Y339951D01*
X417520Y312933D02*
X429232D01*
X395768D02*
X407480D01*
X395768D02*
Y339951D01*
X324665Y454303D02*
Y454697D01*
X320335Y454303D02*
Y454697D01*
X317126Y454303D02*
Y454697D01*
X312795Y454303D02*
Y454697D01*
X326378Y462598D02*
Y466535D01*
X324410Y464567D02*
X328346D01*
X216681Y429465D02*
X219465Y426681D01*
X216681Y426681D02*
X219465Y429465D01*
X351339Y396559D02*
Y396953D01*
X348583Y396559D02*
Y396953D01*
X345839Y396547D02*
Y396941D01*
X343083Y396547D02*
Y396941D01*
X326874Y347153D02*
Y347547D01*
X322347Y347153D02*
Y347547D01*
X365303Y389835D02*
X365697D01*
X365303Y394165D02*
X365697D01*
X384803Y376835D02*
X385197D01*
X384803Y381165D02*
X385197D01*
X339626Y405445D02*
Y405839D01*
X335296Y405445D02*
Y405839D01*
X356614Y411547D02*
Y411941D01*
X359370Y411547D02*
Y411941D01*
X357839Y393047D02*
Y393441D01*
X355083Y393047D02*
Y393441D01*
X349422Y330303D02*
Y330697D01*
X344500Y330303D02*
Y330697D01*
X367244Y330303D02*
Y330697D01*
X362323Y330303D02*
Y330697D01*
X451803Y306835D02*
X452197D01*
X451803Y311165D02*
X452197D01*
X451803Y314835D02*
X452197D01*
X451803Y319165D02*
X452197D01*
X451803Y322335D02*
X452197D01*
X451803Y326665D02*
X452197D01*
X269000Y214347D02*
Y216118D01*
Y205882D02*
Y207653D01*
Y205882D02*
X275398D01*
X269000Y216118D02*
X275398D01*
X257079Y194346D02*
Y196118D01*
Y185882D02*
Y187654D01*
Y185882D02*
X263476D01*
X257079Y196118D02*
X263476D01*
X281079Y181846D02*
Y183618D01*
Y173382D02*
Y175154D01*
Y173382D02*
X287476D01*
X281079Y183618D02*
X287476D01*
X165354Y324410D02*
Y328346D01*
X163386Y326378D02*
X167323D01*
D42*
X402533Y277008D02*
X401949Y277591D01*
X400783D01*
X400200Y277008D01*
Y276425D01*
X400783Y275841D01*
X401949D01*
X402533Y275258D01*
Y274675D01*
X401949Y274092D01*
X400783D01*
X400200Y274675D01*
X403699Y272926D02*
Y276425D01*
X405448D01*
X406031Y275841D01*
Y274675D01*
X405448Y274092D01*
X403699D01*
X408947D02*
X407781D01*
X407198Y274675D01*
Y275841D01*
X407781Y276425D01*
X408947D01*
X409530Y275841D01*
Y275258D01*
X407198D01*
X411280Y276425D02*
X412446D01*
X413029Y275841D01*
Y274092D01*
X411280D01*
X410697Y274675D01*
X411280Y275258D01*
X413029D01*
X414195Y274092D02*
Y277591D01*
Y275258D02*
X415945Y276425D01*
X414195Y275258D02*
X415945Y274092D01*
X420027Y277591D02*
X417694D01*
Y274092D01*
X420027D01*
X417694Y275841D02*
X418861D01*
X421776Y276425D02*
X422943D01*
X423526Y275841D01*
Y274092D01*
X421776D01*
X421193Y274675D01*
X421776Y275258D01*
X423526D01*
X424692Y274092D02*
X426441D01*
X427025Y274675D01*
X426441Y275258D01*
X425275D01*
X424692Y275841D01*
X425275Y276425D01*
X427025D01*
X428191D02*
Y274675D01*
X428774Y274092D01*
X430523D01*
Y273509D01*
X429940Y272926D01*
X429357D01*
X430523Y274092D02*
Y276425D01*
X435189Y274092D02*
X436355D01*
X435772D01*
Y277591D01*
X435189Y277008D01*
X438104Y274092D02*
Y274675D01*
X438688D01*
Y274092D01*
X438104D01*
X441020Y277008D02*
X441603Y277591D01*
X442770D01*
X443353Y277008D01*
Y274675D01*
X442770Y274092D01*
X441603D01*
X441020Y274675D01*
Y277008D01*
X402533Y269963D02*
X401949Y270546D01*
X400783D01*
X400200Y269963D01*
Y269380D01*
X400783Y268797D01*
X401949D01*
X402533Y268213D01*
Y267630D01*
X401949Y267047D01*
X400783D01*
X400200Y267630D01*
X404282Y269380D02*
X405448D01*
X406031Y268797D01*
Y267047D01*
X404282D01*
X403699Y267630D01*
X404282Y268213D01*
X406031D01*
X407198Y267047D02*
Y269380D01*
X407781D01*
X408364Y268797D01*
Y267047D01*
Y268797D01*
X408947Y269380D01*
X409530Y268797D01*
Y267047D01*
X414195Y270546D02*
Y267047D01*
X415945D01*
X416528Y267630D01*
Y269963D01*
X415945Y270546D01*
X414195D01*
X400200Y264667D02*
X402533D01*
X401366D01*
Y261169D01*
X404282D02*
X405448D01*
X406031Y261752D01*
Y262918D01*
X405448Y263501D01*
X404282D01*
X403699Y262918D01*
Y261752D01*
X404282Y261169D01*
X407198D02*
Y263501D01*
X408947D01*
X409530Y262918D01*
Y261169D01*
X410697Y263501D02*
Y261752D01*
X411280Y261169D01*
X413029D01*
Y260585D01*
X412446Y260002D01*
X411863D01*
X413029Y261169D02*
Y263501D01*
X417694Y261169D02*
Y264667D01*
X418861Y263501D01*
X420027Y264667D01*
Y261169D01*
X400200Y254124D02*
Y257622D01*
X401949D01*
X402533Y257039D01*
Y255873D01*
X401949Y255290D01*
X400200D01*
X401366D02*
X402533Y254124D01*
X403699Y256456D02*
Y254707D01*
X404282Y254124D01*
X406031D01*
Y253540D01*
X405448Y252957D01*
X404865D01*
X406031Y254124D02*
Y256456D01*
X407781D02*
X408947D01*
X409530Y255873D01*
Y254124D01*
X407781D01*
X407198Y254707D01*
X407781Y255290D01*
X409530D01*
X410697Y254124D02*
Y256456D01*
X412446D01*
X413029Y255873D01*
Y254124D01*
X420027Y257039D02*
X419444Y257622D01*
X418278D01*
X417694Y257039D01*
Y256456D01*
X418278Y255873D01*
X419444D01*
X420027Y255290D01*
Y254707D01*
X419444Y254124D01*
X418278D01*
X417694Y254707D01*
X400200Y250577D02*
Y247079D01*
X401949D01*
X402533Y247662D01*
Y249994D01*
X401949Y250577D01*
X400200D01*
X404282Y249411D02*
X405448D01*
X406031Y248828D01*
Y247079D01*
X404282D01*
X403699Y247662D01*
X404282Y248245D01*
X406031D01*
X407198Y249411D02*
X408364Y247079D01*
X409530Y249411D01*
X410697Y247079D02*
X411863D01*
X411280D01*
Y249411D01*
X410697D01*
X415945Y250577D02*
Y247079D01*
X414195D01*
X413612Y247662D01*
Y248828D01*
X414195Y249411D01*
X415945D01*
X420610Y250577D02*
X422943D01*
X421776D01*
Y247079D01*
X400200Y241200D02*
X401366D01*
X400783D01*
Y244699D01*
X400200Y244116D01*
X403116D02*
X403699Y244699D01*
X404865D01*
X405448Y244116D01*
Y241783D01*
X404865Y241200D01*
X403699D01*
X403116Y241783D01*
Y244116D01*
X406615Y241200D02*
X408947Y243533D01*
X410113Y244116D02*
X410697Y244699D01*
X411863D01*
X412446Y244116D01*
Y241783D01*
X411863Y241200D01*
X410697D01*
X410113Y241783D01*
Y244116D01*
X413612Y244699D02*
X415945D01*
Y244116D01*
X413612Y241783D01*
Y241200D01*
X230500Y241499D02*
Y238583D01*
X231083Y238000D01*
X232249D01*
X232833Y238583D01*
Y241499D01*
X233999Y240916D02*
X234582Y241499D01*
X235748D01*
X236331Y240916D01*
Y240333D01*
X235748Y239749D01*
X235165D01*
X235748D01*
X236331Y239166D01*
Y238583D01*
X235748Y238000D01*
X234582D01*
X233999Y238583D01*
X284500Y355696D02*
Y352780D01*
X285083Y352197D01*
X286249D01*
X286833Y352780D01*
Y355696D01*
X290331Y352197D02*
X287999D01*
X290331Y354529D01*
Y355113D01*
X289748Y355696D01*
X288582D01*
X287999Y355113D01*
X239500Y283500D02*
Y286999D01*
X241249D01*
X241833Y286416D01*
Y285249D01*
X241249Y284666D01*
X239500D01*
X240666D02*
X241833Y283500D01*
X244748D02*
Y286999D01*
X242999Y285249D01*
X245331D01*
X246498Y284083D02*
X247081Y283500D01*
X248247D01*
X248830Y284083D01*
Y286416D01*
X248247Y286999D01*
X247081D01*
X246498Y286416D01*
Y285833D01*
X247081Y285249D01*
X248830D01*
X224260Y324000D02*
Y327499D01*
X226009D01*
X226592Y326916D01*
Y325749D01*
X226009Y325166D01*
X224260D01*
X225426D02*
X226592Y324000D01*
X229508D02*
Y327499D01*
X227759Y325749D01*
X230091D01*
X231258Y326916D02*
X231841Y327499D01*
X233007D01*
X233590Y326916D01*
Y326333D01*
X233007Y325749D01*
X233590Y325166D01*
Y324583D01*
X233007Y324000D01*
X231841D01*
X231258Y324583D01*
Y325166D01*
X231841Y325749D01*
X231258Y326333D01*
Y326916D01*
X231841Y325749D02*
X233007D01*
X231500Y371500D02*
Y374999D01*
X233249D01*
X233833Y374416D01*
Y373249D01*
X233249Y372666D01*
X231500D01*
X232666D02*
X233833Y371500D01*
X236748D02*
Y374999D01*
X234999Y373249D01*
X237331D01*
X238498Y374999D02*
X240830D01*
Y374416D01*
X238498Y372083D01*
Y371500D01*
X245394Y366000D02*
Y369499D01*
X247143D01*
X247726Y368916D01*
Y367749D01*
X247143Y367166D01*
X245394D01*
X246560D02*
X247726Y366000D01*
X250642D02*
Y369499D01*
X248893Y367749D01*
X251225D01*
X254724Y369499D02*
X253558Y368916D01*
X252391Y367749D01*
Y366583D01*
X252975Y366000D01*
X254141D01*
X254724Y366583D01*
Y367166D01*
X254141Y367749D01*
X252391D01*
X219807Y338000D02*
Y341499D01*
X221556D01*
X222140Y340916D01*
Y339749D01*
X221556Y339166D01*
X219807D01*
X220973D02*
X222140Y338000D01*
X225055D02*
Y341499D01*
X223306Y339749D01*
X225639D01*
X229137Y341499D02*
X226805D01*
Y339749D01*
X227971Y340333D01*
X228554D01*
X229137Y339749D01*
Y338583D01*
X228554Y338000D01*
X227388D01*
X226805Y338583D01*
X268000Y323500D02*
Y326999D01*
X269749D01*
X270333Y326416D01*
Y325249D01*
X269749Y324666D01*
X268000D01*
X269166D02*
X270333Y323500D01*
X273248D02*
Y326999D01*
X271499Y325249D01*
X273831D01*
X276747Y323500D02*
Y326999D01*
X274998Y325249D01*
X277330D01*
X292500Y340500D02*
Y343999D01*
X294249D01*
X294833Y343416D01*
Y342249D01*
X294249Y341666D01*
X292500D01*
X293666D02*
X294833Y340500D01*
X297748D02*
Y343999D01*
X295999Y342249D01*
X298331D01*
X299498Y343416D02*
X300081Y343999D01*
X301247D01*
X301830Y343416D01*
Y342833D01*
X301247Y342249D01*
X300664D01*
X301247D01*
X301830Y341666D01*
Y341083D01*
X301247Y340500D01*
X300081D01*
X299498Y341083D01*
X203156Y339000D02*
Y342499D01*
X204906D01*
X205489Y341916D01*
Y340749D01*
X204906Y340166D01*
X203156D01*
X204323D02*
X205489Y339000D01*
X208405D02*
Y342499D01*
X206655Y340749D01*
X208988D01*
X212487Y339000D02*
X210154D01*
X212487Y341333D01*
Y341916D01*
X211904Y342499D01*
X210737D01*
X210154Y341916D01*
X200000Y376000D02*
Y379499D01*
X201749D01*
X202333Y378916D01*
Y377749D01*
X201749Y377166D01*
X200000D01*
X201166D02*
X202333Y376000D01*
X205248D02*
Y379499D01*
X203499Y377749D01*
X205831D01*
X206998Y376000D02*
X208164D01*
X207581D01*
Y379499D01*
X206998Y378916D01*
X242066Y416634D02*
Y420133D01*
X243816D01*
X244399Y419549D01*
Y418383D01*
X243816Y417800D01*
X242066D01*
X243232D02*
X244399Y416634D01*
X247315D02*
Y420133D01*
X245565Y418383D01*
X247898D01*
X249064Y419549D02*
X249647Y420133D01*
X250813D01*
X251396Y419549D01*
Y417217D01*
X250813Y416634D01*
X249647D01*
X249064Y417217D01*
Y419549D01*
X255500Y417214D02*
Y420713D01*
X257249D01*
X257833Y420129D01*
Y418963D01*
X257249Y418380D01*
X255500D01*
X256666D02*
X257833Y417214D01*
X258999Y420129D02*
X259582Y420713D01*
X260748D01*
X261331Y420129D01*
Y419546D01*
X260748Y418963D01*
X260165D01*
X260748D01*
X261331Y418380D01*
Y417797D01*
X260748Y417214D01*
X259582D01*
X258999Y417797D01*
X262498D02*
X263081Y417214D01*
X264247D01*
X264830Y417797D01*
Y420129D01*
X264247Y420713D01*
X263081D01*
X262498Y420129D01*
Y419546D01*
X263081Y418963D01*
X264830D01*
X232500Y382000D02*
Y385499D01*
X234249D01*
X234833Y384916D01*
Y383749D01*
X234249Y383166D01*
X232500D01*
X233666D02*
X234833Y382000D01*
X235999Y384916D02*
X236582Y385499D01*
X237748D01*
X238331Y384916D01*
Y384333D01*
X237748Y383749D01*
X237165D01*
X237748D01*
X238331Y383166D01*
Y382583D01*
X237748Y382000D01*
X236582D01*
X235999Y382583D01*
X239498Y384916D02*
X240081Y385499D01*
X241247D01*
X241830Y384916D01*
Y384333D01*
X241247Y383749D01*
X241830Y383166D01*
Y382583D01*
X241247Y382000D01*
X240081D01*
X239498Y382583D01*
Y383166D01*
X240081Y383749D01*
X239498Y384333D01*
Y384916D01*
X240081Y383749D02*
X241247D01*
X310500Y324000D02*
Y327499D01*
X312249D01*
X312833Y326916D01*
Y325749D01*
X312249Y325166D01*
X310500D01*
X311666D02*
X312833Y324000D01*
X313999Y326916D02*
X314582Y327499D01*
X315748D01*
X316331Y326916D01*
Y326333D01*
X315748Y325749D01*
X315165D01*
X315748D01*
X316331Y325166D01*
Y324583D01*
X315748Y324000D01*
X314582D01*
X313999Y324583D01*
X317498Y327499D02*
X319830D01*
Y326916D01*
X317498Y324583D01*
Y324000D01*
X291500Y360000D02*
Y363499D01*
X293249D01*
X293833Y362916D01*
Y361749D01*
X293249Y361166D01*
X291500D01*
X292666D02*
X293833Y360000D01*
X294999Y362916D02*
X295582Y363499D01*
X296748D01*
X297331Y362916D01*
Y362333D01*
X296748Y361749D01*
X296165D01*
X296748D01*
X297331Y361166D01*
Y360583D01*
X296748Y360000D01*
X295582D01*
X294999Y360583D01*
X300830Y363499D02*
X299664Y362916D01*
X298498Y361749D01*
Y360583D01*
X299081Y360000D01*
X300247D01*
X300830Y360583D01*
Y361166D01*
X300247Y361749D01*
X298498D01*
X266000Y406500D02*
Y409999D01*
X267749D01*
X268333Y409416D01*
Y408249D01*
X267749Y407666D01*
X266000D01*
X267166D02*
X268333Y406500D01*
X269499Y409416D02*
X270082Y409999D01*
X271248D01*
X271831Y409416D01*
Y408833D01*
X271248Y408249D01*
X270665D01*
X271248D01*
X271831Y407666D01*
Y407083D01*
X271248Y406500D01*
X270082D01*
X269499Y407083D01*
X275330Y409999D02*
X272998D01*
Y408249D01*
X274164Y408833D01*
X274747D01*
X275330Y408249D01*
Y407083D01*
X274747Y406500D01*
X273581D01*
X272998Y407083D01*
X278000Y405653D02*
Y409152D01*
X279749D01*
X280333Y408569D01*
Y407403D01*
X279749Y406820D01*
X278000D01*
X279166D02*
X280333Y405653D01*
X281499Y408569D02*
X282082Y409152D01*
X283248D01*
X283831Y408569D01*
Y407986D01*
X283248Y407403D01*
X282665D01*
X283248D01*
X283831Y406820D01*
Y406237D01*
X283248Y405653D01*
X282082D01*
X281499Y406237D01*
X286747Y405653D02*
Y409152D01*
X284998Y407403D01*
X287330D01*
X275240Y368870D02*
Y372369D01*
X276990D01*
X277573Y371786D01*
Y370620D01*
X276990Y370036D01*
X275240D01*
X276406D02*
X277573Y368870D01*
X278739Y371786D02*
X279322Y372369D01*
X280488D01*
X281072Y371786D01*
Y371203D01*
X280488Y370620D01*
X279905D01*
X280488D01*
X281072Y370036D01*
Y369453D01*
X280488Y368870D01*
X279322D01*
X278739Y369453D01*
X282238Y371786D02*
X282821Y372369D01*
X283987D01*
X284571Y371786D01*
Y371203D01*
X283987Y370620D01*
X283404D01*
X283987D01*
X284571Y370036D01*
Y369453D01*
X283987Y368870D01*
X282821D01*
X282238Y369453D01*
X236260Y299499D02*
Y296000D01*
X238009D01*
X238592Y296583D01*
Y298916D01*
X238009Y299499D01*
X236260D01*
X239759Y298916D02*
X240342Y299499D01*
X241508D01*
X242091Y298916D01*
Y298333D01*
X241508Y297749D01*
X240925D01*
X241508D01*
X242091Y297166D01*
Y296583D01*
X241508Y296000D01*
X240342D01*
X239759Y296583D01*
X203605Y365125D02*
Y361626D01*
X205355D01*
X205938Y362209D01*
Y364542D01*
X205355Y365125D01*
X203605D01*
X209437Y361626D02*
X207104D01*
X209437Y363959D01*
Y364542D01*
X208854Y365125D01*
X207687D01*
X207104Y364542D01*
X297100Y337999D02*
Y334500D01*
X298850D01*
X299433Y335083D01*
Y337416D01*
X298850Y337999D01*
X297100D01*
X300599Y334500D02*
X301765D01*
X301182D01*
Y337999D01*
X300599Y337416D01*
X241833Y277916D02*
X241249Y278499D01*
X240083D01*
X239500Y277916D01*
Y275583D01*
X240083Y275000D01*
X241249D01*
X241833Y275583D01*
X245331Y275000D02*
X242999D01*
X245331Y277333D01*
Y277916D01*
X244748Y278499D01*
X243582D01*
X242999Y277916D01*
X246498D02*
X247081Y278499D01*
X248247D01*
X248830Y277916D01*
Y277333D01*
X248247Y276749D01*
X248830Y276166D01*
Y275583D01*
X248247Y275000D01*
X247081D01*
X246498Y275583D01*
Y276166D01*
X247081Y276749D01*
X246498Y277333D01*
Y277916D01*
X247081Y276749D02*
X248247D01*
X239092Y326416D02*
X238509Y326999D01*
X237343D01*
X236760Y326416D01*
Y324083D01*
X237343Y323500D01*
X238509D01*
X239092Y324083D01*
X242591Y323500D02*
X240259D01*
X242591Y325833D01*
Y326416D01*
X242008Y326999D01*
X240842D01*
X240259Y326416D01*
X243758Y326999D02*
X246090D01*
Y326416D01*
X243758Y324083D01*
Y323500D01*
X221333Y352766D02*
X220749Y353349D01*
X219583D01*
X219000Y352766D01*
Y350433D01*
X219583Y349850D01*
X220749D01*
X221333Y350433D01*
X224831Y349850D02*
X222499D01*
X224831Y352183D01*
Y352766D01*
X224248Y353349D01*
X223082D01*
X222499Y352766D01*
X228330Y353349D02*
X227164Y352766D01*
X225998Y351600D01*
Y350433D01*
X226581Y349850D01*
X227747D01*
X228330Y350433D01*
Y351017D01*
X227747Y351600D01*
X225998D01*
X269833Y317416D02*
X269249Y317999D01*
X268083D01*
X267500Y317416D01*
Y315083D01*
X268083Y314500D01*
X269249D01*
X269833Y315083D01*
X273331Y314500D02*
X270999D01*
X273331Y316833D01*
Y317416D01*
X272748Y317999D01*
X271582D01*
X270999Y317416D01*
X276830Y317999D02*
X274498D01*
Y316249D01*
X275664Y316833D01*
X276247D01*
X276830Y316249D01*
Y315083D01*
X276247Y314500D01*
X275081D01*
X274498Y315083D01*
X221175Y347116D02*
X220592Y347700D01*
X219426D01*
X218843Y347116D01*
Y344784D01*
X219426Y344201D01*
X220592D01*
X221175Y344784D01*
X224674Y344201D02*
X222341D01*
X224674Y346533D01*
Y347116D01*
X224091Y347700D01*
X222924D01*
X222341Y347116D01*
X227590Y344201D02*
Y347700D01*
X225840Y345950D01*
X228173D01*
X194833Y356416D02*
X194249Y356999D01*
X193083D01*
X192500Y356416D01*
Y354083D01*
X193083Y353500D01*
X194249D01*
X194833Y354083D01*
X198331Y353500D02*
X195999D01*
X198331Y355833D01*
Y356416D01*
X197748Y356999D01*
X196582D01*
X195999Y356416D01*
X199498D02*
X200081Y356999D01*
X201247D01*
X201830Y356416D01*
Y355833D01*
X201247Y355249D01*
X200664D01*
X201247D01*
X201830Y354666D01*
Y354083D01*
X201247Y353500D01*
X200081D01*
X199498Y354083D01*
X221833Y390916D02*
X221249Y391499D01*
X220083D01*
X219500Y390916D01*
Y388583D01*
X220083Y388000D01*
X221249D01*
X221833Y388583D01*
X225331Y388000D02*
X222999D01*
X225331Y390333D01*
Y390916D01*
X224748Y391499D01*
X223582D01*
X222999Y390916D01*
X228830Y388000D02*
X226498D01*
X228830Y390333D01*
Y390916D01*
X228247Y391499D01*
X227081D01*
X226498Y390916D01*
X260073Y404069D02*
X259490Y404652D01*
X258323D01*
X257740Y404069D01*
Y401737D01*
X258323Y401154D01*
X259490D01*
X260073Y401737D01*
X263572Y401154D02*
X261239D01*
X263572Y403486D01*
Y404069D01*
X262988Y404652D01*
X261822D01*
X261239Y404069D01*
X264738Y401154D02*
X265904D01*
X265321D01*
Y404652D01*
X264738Y404069D01*
X233833Y396416D02*
X233249Y396999D01*
X232083D01*
X231500Y396416D01*
Y394083D01*
X232083Y393500D01*
X233249D01*
X233833Y394083D01*
X237331Y393500D02*
X234999D01*
X237331Y395833D01*
Y396416D01*
X236748Y396999D01*
X235582D01*
X234999Y396416D01*
X238498D02*
X239081Y396999D01*
X240247D01*
X240830Y396416D01*
Y394083D01*
X240247Y393500D01*
X239081D01*
X238498Y394083D01*
Y396416D01*
X312333Y318597D02*
X311749Y319180D01*
X310583D01*
X310000Y318597D01*
Y316264D01*
X310583Y315681D01*
X311749D01*
X312333Y316264D01*
X313499Y315681D02*
X314665D01*
X314082D01*
Y319180D01*
X313499Y318597D01*
X316415Y316264D02*
X316998Y315681D01*
X318164D01*
X318747Y316264D01*
Y318597D01*
X318164Y319180D01*
X316998D01*
X316415Y318597D01*
Y318014D01*
X316998Y317430D01*
X318747D01*
X314333Y355113D02*
X313749Y355696D01*
X312583D01*
X312000Y355113D01*
Y352780D01*
X312583Y352197D01*
X313749D01*
X314333Y352780D01*
X315499Y352197D02*
X316665D01*
X316082D01*
Y355696D01*
X315499Y355113D01*
X318415D02*
X318998Y355696D01*
X320164D01*
X320747Y355113D01*
Y354529D01*
X320164Y353946D01*
X320747Y353363D01*
Y352780D01*
X320164Y352197D01*
X318998D01*
X318415Y352780D01*
Y353363D01*
X318998Y353946D01*
X318415Y354529D01*
Y355113D01*
X318998Y353946D02*
X320164D01*
X263333Y388916D02*
X262749Y389499D01*
X261583D01*
X261000Y388916D01*
Y386583D01*
X261583Y386000D01*
X262749D01*
X263333Y386583D01*
X264499Y386000D02*
X265665D01*
X265082D01*
Y389499D01*
X264499Y388916D01*
X267415Y389499D02*
X269747D01*
Y388916D01*
X267415Y386583D01*
Y386000D01*
X262833Y383416D02*
X262249Y383999D01*
X261083D01*
X260500Y383416D01*
Y381083D01*
X261083Y380500D01*
X262249D01*
X262833Y381083D01*
X263999Y380500D02*
X265165D01*
X264582D01*
Y383999D01*
X263999Y383416D01*
X269247Y383999D02*
X268081Y383416D01*
X266915Y382249D01*
Y381083D01*
X267498Y380500D01*
X268664D01*
X269247Y381083D01*
Y381666D01*
X268664Y382249D01*
X266915D01*
X329000Y366999D02*
Y364083D01*
X329583Y363500D01*
X330749D01*
X331333Y364083D01*
Y366999D01*
X332499Y363500D02*
X333665D01*
X333082D01*
Y366999D01*
X332499Y366416D01*
X389816Y392000D02*
Y395499D01*
X391566D01*
X392149Y394916D01*
Y393749D01*
X391566Y393166D01*
X389816D01*
X390983D02*
X392149Y392000D01*
X393315D02*
X394481D01*
X393898D01*
Y395499D01*
X393315Y394916D01*
X335461Y398500D02*
Y401999D01*
X337210D01*
X337793Y401416D01*
Y400249D01*
X337210Y399666D01*
X335461D01*
X336627D02*
X337793Y398500D01*
X338960Y401416D02*
X339543Y401999D01*
X340709D01*
X341292Y401416D01*
Y400833D01*
X340709Y400249D01*
X340126D01*
X340709D01*
X341292Y399666D01*
Y399083D01*
X340709Y398500D01*
X339543D01*
X338960Y399083D01*
X367343Y384500D02*
Y387999D01*
X369092D01*
X369675Y387416D01*
Y386249D01*
X369092Y385666D01*
X367343D01*
X368509D02*
X369675Y384500D01*
X373174D02*
X370842D01*
X373174Y386833D01*
Y387416D01*
X372591Y387999D01*
X371425D01*
X370842Y387416D01*
X357014Y401916D02*
X356431Y402499D01*
X355264D01*
X354681Y401916D01*
Y399583D01*
X355264Y399000D01*
X356431D01*
X357014Y399583D01*
X358180Y399000D02*
X359347D01*
X358763D01*
Y402499D01*
X358180Y401916D01*
X362845Y399000D02*
Y402499D01*
X361096Y400749D01*
X363429D01*
X378333Y332916D02*
X377749Y333499D01*
X376583D01*
X376000Y332916D01*
Y330583D01*
X376583Y330000D01*
X377749D01*
X378333Y330583D01*
X379499Y330000D02*
X380665D01*
X380082D01*
Y333499D01*
X379499Y332916D01*
X382415D02*
X382998Y333499D01*
X384164D01*
X384747Y332916D01*
Y330583D01*
X384164Y330000D01*
X382998D01*
X382415Y330583D01*
Y332916D01*
X388833Y349416D02*
X388249Y349999D01*
X387083D01*
X386500Y349416D01*
Y347083D01*
X387083Y346500D01*
X388249D01*
X388833Y347083D01*
X389999D02*
X390582Y346500D01*
X391748D01*
X392331Y347083D01*
Y349416D01*
X391748Y349999D01*
X390582D01*
X389999Y349416D01*
Y348833D01*
X390582Y348249D01*
X392331D01*
X398333Y305916D02*
X397749Y306499D01*
X396583D01*
X396000Y305916D01*
Y303583D01*
X396583Y303000D01*
X397749D01*
X398333Y303583D01*
X399499Y305916D02*
X400082Y306499D01*
X401248D01*
X401831Y305916D01*
Y305333D01*
X401248Y304749D01*
X401831Y304166D01*
Y303583D01*
X401248Y303000D01*
X400082D01*
X399499Y303583D01*
Y304166D01*
X400082Y304749D01*
X399499Y305333D01*
Y305916D01*
X400082Y304749D02*
X401248D01*
X373833Y321664D02*
X373249Y322247D01*
X372083D01*
X371500Y321664D01*
Y319332D01*
X372083Y318748D01*
X373249D01*
X373833Y319332D01*
X377331Y322247D02*
X376165Y321664D01*
X374999Y320498D01*
Y319332D01*
X375582Y318748D01*
X376748D01*
X377331Y319332D01*
Y319915D01*
X376748Y320498D01*
X374999D01*
X363733Y343116D02*
X363149Y343699D01*
X361983D01*
X361400Y343116D01*
Y340783D01*
X361983Y340200D01*
X363149D01*
X363733Y340783D01*
X367231Y343699D02*
X364899D01*
Y341949D01*
X366065Y342533D01*
X366648D01*
X367231Y341949D01*
Y340783D01*
X366648Y340200D01*
X365482D01*
X364899Y340783D01*
X338333Y320916D02*
X337749Y321499D01*
X336583D01*
X336000Y320916D01*
Y318583D01*
X336583Y318000D01*
X337749D01*
X338333Y318583D01*
X341248Y318000D02*
Y321499D01*
X339499Y319749D01*
X341831D01*
X348873Y389416D02*
X348290Y389999D01*
X347124D01*
X346540Y389416D01*
Y387083D01*
X347124Y386500D01*
X348290D01*
X348873Y387083D01*
X350039Y389416D02*
X350622Y389999D01*
X351789D01*
X352372Y389416D01*
Y388833D01*
X351789Y388249D01*
X351205D01*
X351789D01*
X352372Y387666D01*
Y387083D01*
X351789Y386500D01*
X350622D01*
X350039Y387083D01*
X345933Y343116D02*
X345349Y343699D01*
X344183D01*
X343600Y343116D01*
Y340783D01*
X344183Y340200D01*
X345349D01*
X345933Y340783D01*
X349431Y340200D02*
X347099D01*
X349431Y342533D01*
Y343116D01*
X348848Y343699D01*
X347682D01*
X347099Y343116D01*
X341526Y389416D02*
X340943Y389999D01*
X339776D01*
X339193Y389416D01*
Y387083D01*
X339776Y386500D01*
X340943D01*
X341526Y387083D01*
X342692Y386500D02*
X343858D01*
X343275D01*
Y389999D01*
X342692Y389416D01*
X362500Y322499D02*
Y319000D01*
X364833D01*
X368331D02*
X365999D01*
X368331Y321333D01*
Y321916D01*
X367748Y322499D01*
X366582D01*
X365999Y321916D01*
X357833Y420549D02*
X357249Y421133D01*
X356083D01*
X355500Y420549D01*
Y418217D01*
X356083Y417634D01*
X357249D01*
X357833Y418217D01*
X358999Y421133D02*
X361331D01*
Y420549D01*
X358999Y418217D01*
Y417634D01*
X261500Y201000D02*
Y204499D01*
X263249D01*
X263833Y203916D01*
Y202749D01*
X263249Y202166D01*
X261500D01*
X262666D02*
X263833Y201000D01*
X267331Y204499D02*
X264999D01*
Y202749D01*
X266165Y203333D01*
X266748D01*
X267331Y202749D01*
Y201583D01*
X266748Y201000D01*
X265582D01*
X264999Y201583D01*
X275500Y169488D02*
Y172987D01*
X277249D01*
X277833Y172404D01*
Y171238D01*
X277249Y170654D01*
X275500D01*
X276666D02*
X277833Y169488D01*
X280748D02*
Y172987D01*
X278999Y171238D01*
X281331D01*
X384000Y197500D02*
Y200999D01*
X385749D01*
X386333Y200416D01*
Y199249D01*
X385749Y198666D01*
X384000D01*
X385166D02*
X386333Y197500D01*
X387499Y200416D02*
X388082Y200999D01*
X389248D01*
X389831Y200416D01*
Y199833D01*
X389248Y199249D01*
X388665D01*
X389248D01*
X389831Y198666D01*
Y198083D01*
X389248Y197500D01*
X388082D01*
X387499Y198083D01*
X390998Y200416D02*
X391581Y200999D01*
X392747D01*
X393330Y200416D01*
Y198083D01*
X392747Y197500D01*
X391581D01*
X390998Y198083D01*
Y200416D01*
X387000Y211000D02*
Y214499D01*
X388749D01*
X389333Y213916D01*
Y212749D01*
X388749Y212166D01*
X387000D01*
X388166D02*
X389333Y211000D01*
X392831D02*
X390499D01*
X392831Y213333D01*
Y213916D01*
X392248Y214499D01*
X391082D01*
X390499Y213916D01*
X393998Y211583D02*
X394581Y211000D01*
X395747D01*
X396330Y211583D01*
Y213916D01*
X395747Y214499D01*
X394581D01*
X393998Y213916D01*
Y213333D01*
X394581Y212749D01*
X396330D01*
X388000Y221500D02*
Y224999D01*
X389749D01*
X390333Y224416D01*
Y223249D01*
X389749Y222666D01*
X388000D01*
X389166D02*
X390333Y221500D01*
X393831D02*
X391499D01*
X393831Y223833D01*
Y224416D01*
X393248Y224999D01*
X392082D01*
X391499Y224416D01*
X394998D02*
X395581Y224999D01*
X396747D01*
X397330Y224416D01*
Y223833D01*
X396747Y223249D01*
X397330Y222666D01*
Y222083D01*
X396747Y221500D01*
X395581D01*
X394998Y222083D01*
Y222666D01*
X395581Y223249D01*
X394998Y223833D01*
Y224416D01*
X395581Y223249D02*
X396747D01*
X302000Y186000D02*
Y189499D01*
X303749D01*
X304333Y188916D01*
Y187749D01*
X303749Y187166D01*
X302000D01*
X303166D02*
X304333Y186000D01*
X307831D02*
X305499D01*
X307831Y188333D01*
Y188916D01*
X307248Y189499D01*
X306082D01*
X305499Y188916D01*
X308998Y189499D02*
X311330D01*
Y188916D01*
X308998Y186583D01*
Y186000D01*
X314500D02*
Y189499D01*
X316249D01*
X316833Y188916D01*
Y187749D01*
X316249Y187166D01*
X314500D01*
X315666D02*
X316833Y186000D01*
X320331D02*
X317999D01*
X320331Y188333D01*
Y188916D01*
X319748Y189499D01*
X318582D01*
X317999Y188916D01*
X323830Y189499D02*
X322664Y188916D01*
X321498Y187749D01*
Y186583D01*
X322081Y186000D01*
X323247D01*
X323830Y186583D01*
Y187166D01*
X323247Y187749D01*
X321498D01*
X330000Y182240D02*
Y185739D01*
X331749D01*
X332333Y185156D01*
Y183990D01*
X331749Y183406D01*
X330000D01*
X331166D02*
X332333Y182240D01*
X335831D02*
X333499D01*
X335831Y184573D01*
Y185156D01*
X335248Y185739D01*
X334082D01*
X333499Y185156D01*
X339330Y185739D02*
X336998D01*
Y183990D01*
X338164Y184573D01*
X338747D01*
X339330Y183990D01*
Y182823D01*
X338747Y182240D01*
X337581D01*
X336998Y182823D01*
X232500Y218500D02*
Y221999D01*
X234249D01*
X234833Y221416D01*
Y220249D01*
X234249Y219666D01*
X232500D01*
X233666D02*
X234833Y218500D01*
X238331D02*
X235999D01*
X238331Y220833D01*
Y221416D01*
X237748Y221999D01*
X236582D01*
X235999Y221416D01*
X241247Y218500D02*
Y221999D01*
X239498Y220249D01*
X241830D01*
X232500Y210324D02*
Y213823D01*
X234249D01*
X234833Y213240D01*
Y212074D01*
X234249Y211491D01*
X232500D01*
X233666D02*
X234833Y210324D01*
X238331D02*
X235999D01*
X238331Y212657D01*
Y213240D01*
X237748Y213823D01*
X236582D01*
X235999Y213240D01*
X239498D02*
X240081Y213823D01*
X241247D01*
X241830Y213240D01*
Y212657D01*
X241247Y212074D01*
X240664D01*
X241247D01*
X241830Y211491D01*
Y210907D01*
X241247Y210324D01*
X240081D01*
X239498Y210907D01*
X221847Y197000D02*
Y200499D01*
X223596D01*
X224179Y199916D01*
Y198749D01*
X223596Y198166D01*
X221847D01*
X223013D02*
X224179Y197000D01*
X227678D02*
X225345D01*
X227678Y199333D01*
Y199916D01*
X227095Y200499D01*
X225928D01*
X225345Y199916D01*
X231177Y197000D02*
X228844D01*
X231177Y199333D01*
Y199916D01*
X230594Y200499D01*
X229427D01*
X228844Y199916D01*
X187346Y321500D02*
Y324999D01*
X189096D01*
X189679Y324416D01*
Y323249D01*
X189096Y322666D01*
X187346D01*
X188513D02*
X189679Y321500D01*
X193178D02*
X190845D01*
X193178Y323833D01*
Y324416D01*
X192595Y324999D01*
X191428D01*
X190845Y324416D01*
X194344Y321500D02*
X195510D01*
X194927D01*
Y324999D01*
X194344Y324416D01*
X187153Y313386D02*
Y316885D01*
X188903D01*
X189486Y316301D01*
Y315135D01*
X188903Y314552D01*
X187153D01*
X188320D02*
X189486Y313386D01*
X192985D02*
X190652D01*
X192985Y315718D01*
Y316301D01*
X192402Y316885D01*
X191235D01*
X190652Y316301D01*
X194151D02*
X194734Y316885D01*
X195901D01*
X196484Y316301D01*
Y313969D01*
X195901Y313386D01*
X194734D01*
X194151Y313969D01*
Y316301D01*
X187000Y305000D02*
Y308499D01*
X188749D01*
X189333Y307916D01*
Y306749D01*
X188749Y306166D01*
X187000D01*
X188166D02*
X189333Y305000D01*
X190499D02*
X191665D01*
X191082D01*
Y308499D01*
X190499Y307916D01*
X193415Y305583D02*
X193998Y305000D01*
X195164D01*
X195747Y305583D01*
Y307916D01*
X195164Y308499D01*
X193998D01*
X193415Y307916D01*
Y307333D01*
X193998Y306749D01*
X195747D01*
X230500Y416000D02*
Y419499D01*
X232249D01*
X232833Y418916D01*
Y417749D01*
X232249Y417166D01*
X230500D01*
X231666D02*
X232833Y416000D01*
X233999D02*
X235165D01*
X234582D01*
Y419499D01*
X233999Y418916D01*
X236915D02*
X237498Y419499D01*
X238664D01*
X239247Y418916D01*
Y418333D01*
X238664Y417749D01*
X239247Y417166D01*
Y416583D01*
X238664Y416000D01*
X237498D01*
X236915Y416583D01*
Y417166D01*
X237498Y417749D01*
X236915Y418333D01*
Y418916D01*
X237498Y417749D02*
X238664D01*
X231000Y409000D02*
Y412499D01*
X232749D01*
X233333Y411916D01*
Y410749D01*
X232749Y410166D01*
X231000D01*
X232166D02*
X233333Y409000D01*
X234499D02*
X235665D01*
X235082D01*
Y412499D01*
X234499Y411916D01*
X237415Y412499D02*
X239747D01*
Y411916D01*
X237415Y409583D01*
Y409000D01*
X230307Y401323D02*
Y404822D01*
X232056D01*
X232640Y404239D01*
Y403072D01*
X232056Y402489D01*
X230307D01*
X231473D02*
X232640Y401323D01*
X233806D02*
X234972D01*
X234389D01*
Y404822D01*
X233806Y404239D01*
X239054Y404822D02*
X237888Y404239D01*
X236722Y403072D01*
Y401906D01*
X237305Y401323D01*
X238471D01*
X239054Y401906D01*
Y402489D01*
X238471Y403072D01*
X236722D01*
X327500Y449000D02*
Y452499D01*
X329249D01*
X329833Y451916D01*
Y450749D01*
X329249Y450166D01*
X327500D01*
X328666D02*
X329833Y449000D01*
X330999D02*
X332165D01*
X331582D01*
Y452499D01*
X330999Y451916D01*
X336247Y452499D02*
X333915D01*
Y450749D01*
X335081Y451333D01*
X335664D01*
X336247Y450749D01*
Y449583D01*
X335664Y449000D01*
X334498D01*
X333915Y449583D01*
X326500Y455000D02*
Y458499D01*
X328249D01*
X328833Y457916D01*
Y456749D01*
X328249Y456166D01*
X326500D01*
X327666D02*
X328833Y455000D01*
X329999D02*
X331165D01*
X330582D01*
Y458499D01*
X329999Y457916D01*
X334664Y455000D02*
Y458499D01*
X332915Y456749D01*
X335247D01*
X286169Y455500D02*
Y458999D01*
X287919D01*
X288502Y458416D01*
Y457249D01*
X287919Y456666D01*
X286169D01*
X287336D02*
X288502Y455500D01*
X289668D02*
X290834D01*
X290251D01*
Y458999D01*
X289668Y458416D01*
X292584D02*
X293167Y458999D01*
X294333D01*
X294916Y458416D01*
Y457833D01*
X294333Y457249D01*
X293750D01*
X294333D01*
X294916Y456666D01*
Y456083D01*
X294333Y455500D01*
X293167D01*
X292584Y456083D01*
X380508Y396654D02*
Y400152D01*
X382257D01*
X382840Y399569D01*
Y398403D01*
X382257Y397820D01*
X380508D01*
X381674D02*
X382840Y396654D01*
X384007D02*
X385173D01*
X384590D01*
Y400152D01*
X384007Y399569D01*
X389255Y396654D02*
X386923D01*
X389255Y398986D01*
Y399569D01*
X388672Y400152D01*
X387506D01*
X386923Y399569D01*
X381000Y405154D02*
Y408652D01*
X382749D01*
X383333Y408069D01*
Y406903D01*
X382749Y406320D01*
X381000D01*
X382166D02*
X383333Y405154D01*
X384499D02*
X385665D01*
X385082D01*
Y408652D01*
X384499Y408069D01*
X387415Y405154D02*
X388581D01*
X387998D01*
Y408652D01*
X387415Y408069D01*
X381000Y414610D02*
Y418109D01*
X382749D01*
X383333Y417526D01*
Y416360D01*
X382749Y415776D01*
X381000D01*
X382166D02*
X383333Y414610D01*
X384499D02*
X385665D01*
X385082D01*
Y418109D01*
X384499Y417526D01*
X387415D02*
X387998Y418109D01*
X389164D01*
X389747Y417526D01*
Y415193D01*
X389164Y414610D01*
X387998D01*
X387415Y415193D01*
Y417526D01*
X434500Y306000D02*
Y309499D01*
X436249D01*
X436833Y308916D01*
Y307749D01*
X436249Y307166D01*
X434500D01*
X435666D02*
X436833Y306000D01*
X437999Y306583D02*
X438582Y306000D01*
X439748D01*
X440332Y306583D01*
Y308916D01*
X439748Y309499D01*
X438582D01*
X437999Y308916D01*
Y308333D01*
X438582Y307749D01*
X440332D01*
X434500Y314000D02*
Y317499D01*
X436249D01*
X436833Y316916D01*
Y315749D01*
X436249Y315166D01*
X434500D01*
X435666D02*
X436833Y314000D01*
X437999Y316916D02*
X438582Y317499D01*
X439748D01*
X440332Y316916D01*
Y316333D01*
X439748Y315749D01*
X440332Y315166D01*
Y314583D01*
X439748Y314000D01*
X438582D01*
X437999Y314583D01*
Y315166D01*
X438582Y315749D01*
X437999Y316333D01*
Y316916D01*
X438582Y315749D02*
X439748D01*
X434846Y322500D02*
Y325999D01*
X436596D01*
X437179Y325416D01*
Y324249D01*
X436596Y323666D01*
X434846D01*
X436013D02*
X437179Y322500D01*
X438345Y325999D02*
X440678D01*
Y325416D01*
X438345Y323083D01*
Y322500D01*
X280500Y193000D02*
Y196499D01*
X282249D01*
X282833Y195916D01*
Y194749D01*
X282249Y194166D01*
X280500D01*
X281666D02*
X282833Y193000D01*
X286331Y196499D02*
X285165Y195916D01*
X283999Y194749D01*
Y193583D01*
X284582Y193000D01*
X285748D01*
X286331Y193583D01*
Y194166D01*
X285748Y194749D01*
X283999D01*
X250333Y195323D02*
Y197656D01*
X249749Y198239D01*
X248583D01*
X248000Y197656D01*
Y195323D01*
X248583Y194740D01*
X249749D01*
X249166Y195906D02*
X250333Y194740D01*
X249749D02*
X250333Y195323D01*
X251499Y197656D02*
X252082Y198239D01*
X253248D01*
X253831Y197656D01*
Y197073D01*
X253248Y196490D01*
X252665D01*
X253248D01*
X253831Y195906D01*
Y195323D01*
X253248Y194740D01*
X252082D01*
X251499Y195323D01*
X261833Y214583D02*
Y216916D01*
X261249Y217499D01*
X260083D01*
X259500Y216916D01*
Y214583D01*
X260083Y214000D01*
X261249D01*
X260666Y215166D02*
X261833Y214000D01*
X261249D02*
X261833Y214583D01*
X265331Y214000D02*
X262999D01*
X265331Y216333D01*
Y216916D01*
X264748Y217499D01*
X263582D01*
X262999Y216916D01*
X285833Y186583D02*
Y188916D01*
X285249Y189499D01*
X284083D01*
X283500Y188916D01*
Y186583D01*
X284083Y186000D01*
X285249D01*
X284666Y187166D02*
X285833Y186000D01*
X285249D02*
X285833Y186583D01*
X286999Y186000D02*
X288165D01*
X287582D01*
Y189499D01*
X286999Y188916D01*
X327500Y300899D02*
Y297400D01*
X329833D01*
X333331Y300316D02*
X332748Y300899D01*
X331582D01*
X330999Y300316D01*
Y299733D01*
X331582Y299149D01*
X332748D01*
X333331Y298566D01*
Y297983D01*
X332748Y297400D01*
X331582D01*
X330999Y297983D01*
X334498Y297400D02*
X335664D01*
X335081D01*
Y300899D01*
X334498Y300316D01*
X344961Y322845D02*
Y319346D01*
X347293D01*
X348460D02*
X349626D01*
X349043D01*
Y322845D01*
X348460Y322262D01*
X292033Y217699D02*
X290866D01*
X291449D01*
Y214783D01*
X290866Y214200D01*
X290283D01*
X289700Y214783D01*
X295531Y214200D02*
X293199D01*
X295531Y216533D01*
Y217116D01*
X294948Y217699D01*
X293782D01*
X293199Y217116D01*
X285833Y446499D02*
X284666D01*
X285249D01*
Y443583D01*
X284666Y443000D01*
X284083D01*
X283500Y443583D01*
X286999Y443000D02*
X288165D01*
X287582D01*
Y446499D01*
X286999Y445916D01*
X421544Y223738D02*
Y220239D01*
X423293D01*
X423876Y220822D01*
Y223154D01*
X423293Y223738D01*
X421544D01*
X427375Y223154D02*
X426792Y223738D01*
X425626D01*
X425042Y223154D01*
Y222571D01*
X425626Y221988D01*
X426792D01*
X427375Y221405D01*
Y220822D01*
X426792Y220239D01*
X425626D01*
X425042Y220822D01*
X428541Y223154D02*
X429124Y223738D01*
X430291D01*
X430874Y223154D01*
Y222571D01*
X430291Y221988D01*
X430874Y221405D01*
Y220822D01*
X430291Y220239D01*
X429124D01*
X428541Y220822D01*
Y221405D01*
X429124Y221988D01*
X428541Y222571D01*
Y223154D01*
X429124Y221988D02*
X430291D01*
X327500Y169999D02*
Y166500D01*
X329249D01*
X329833Y167083D01*
Y169416D01*
X329249Y169999D01*
X327500D01*
X333331Y169416D02*
X332748Y169999D01*
X331582D01*
X330999Y169416D01*
Y168833D01*
X331582Y168249D01*
X332748D01*
X333331Y167666D01*
Y167083D01*
X332748Y166500D01*
X331582D01*
X330999Y167083D01*
X334498Y169999D02*
X336830D01*
Y169416D01*
X334498Y167083D01*
Y166500D01*
X193500Y225999D02*
Y222500D01*
X195249D01*
X195833Y223083D01*
Y225416D01*
X195249Y225999D01*
X193500D01*
X199331Y225416D02*
X198748Y225999D01*
X197582D01*
X196999Y225416D01*
Y224833D01*
X197582Y224249D01*
X198748D01*
X199331Y223666D01*
Y223083D01*
X198748Y222500D01*
X197582D01*
X196999Y223083D01*
X202830Y225999D02*
X201664Y225416D01*
X200498Y224249D01*
Y223083D01*
X201081Y222500D01*
X202247D01*
X202830Y223083D01*
Y223666D01*
X202247Y224249D01*
X200498D01*
X160600Y334899D02*
Y331400D01*
X162349D01*
X162933Y331983D01*
Y334316D01*
X162349Y334899D01*
X160600D01*
X166431Y334316D02*
X165848Y334899D01*
X164682D01*
X164099Y334316D01*
Y333733D01*
X164682Y333149D01*
X165848D01*
X166431Y332566D01*
Y331983D01*
X165848Y331400D01*
X164682D01*
X164099Y331983D01*
X169930Y334899D02*
X167598D01*
Y333149D01*
X168764Y333733D01*
X169347D01*
X169930Y333149D01*
Y331983D01*
X169347Y331400D01*
X168181D01*
X167598Y331983D01*
X187902Y408176D02*
Y404677D01*
X189651D01*
X190234Y405260D01*
Y407593D01*
X189651Y408176D01*
X187902D01*
X193733Y407593D02*
X193150Y408176D01*
X191984D01*
X191400Y407593D01*
Y407010D01*
X191984Y406427D01*
X193150D01*
X193733Y405843D01*
Y405260D01*
X193150Y404677D01*
X191984D01*
X191400Y405260D01*
X196649Y404677D02*
Y408176D01*
X194899Y406427D01*
X197232D01*
X288500Y465499D02*
Y462000D01*
X290249D01*
X290833Y462583D01*
Y464916D01*
X290249Y465499D01*
X288500D01*
X294331Y464916D02*
X293748Y465499D01*
X292582D01*
X291999Y464916D01*
Y464333D01*
X292582Y463749D01*
X293748D01*
X294331Y463166D01*
Y462583D01*
X293748Y462000D01*
X292582D01*
X291999Y462583D01*
X295498Y464916D02*
X296081Y465499D01*
X297247D01*
X297830Y464916D01*
Y464333D01*
X297247Y463749D01*
X296664D01*
X297247D01*
X297830Y463166D01*
Y462583D01*
X297247Y462000D01*
X296081D01*
X295498Y462583D01*
X424177Y404369D02*
Y400870D01*
X425927D01*
X426510Y401453D01*
Y403786D01*
X425927Y404369D01*
X424177D01*
X430009Y403786D02*
X429425Y404369D01*
X428259D01*
X427676Y403786D01*
Y403203D01*
X428259Y402620D01*
X429425D01*
X430009Y402036D01*
Y401453D01*
X429425Y400870D01*
X428259D01*
X427676Y401453D01*
X433507Y400870D02*
X431175D01*
X433507Y403203D01*
Y403786D01*
X432924Y404369D01*
X431758D01*
X431175Y403786D01*
X455346Y332999D02*
Y329500D01*
X457096D01*
X457679Y330083D01*
Y332416D01*
X457096Y332999D01*
X455346D01*
X461178Y332416D02*
X460595Y332999D01*
X459429D01*
X458845Y332416D01*
Y331833D01*
X459429Y331249D01*
X460595D01*
X461178Y330666D01*
Y330083D01*
X460595Y329500D01*
X459429D01*
X458845Y330083D01*
X462344Y329500D02*
X463511D01*
X462927D01*
Y332999D01*
X462344Y332416D01*
X332601Y339093D02*
X332017Y339676D01*
X330851D01*
X330268Y339093D01*
Y336760D01*
X330851Y336177D01*
X332017D01*
X332601Y336760D01*
X333767Y336177D02*
X334933D01*
X334350D01*
Y339676D01*
X333767Y339093D01*
X336683D02*
X337266Y339676D01*
X338432D01*
X339015Y339093D01*
Y338510D01*
X338432Y337927D01*
X337849D01*
X338432D01*
X339015Y337344D01*
Y336760D01*
X338432Y336177D01*
X337266D01*
X336683Y336760D01*
X320833Y339266D02*
X320249Y339849D01*
X319083D01*
X318500Y339266D01*
Y336933D01*
X319083Y336350D01*
X320249D01*
X320833Y336933D01*
X321999Y336350D02*
X323165D01*
X322582D01*
Y339849D01*
X321999Y339266D01*
X327247Y336350D02*
X324915D01*
X327247Y338683D01*
Y339266D01*
X326664Y339849D01*
X325498D01*
X324915Y339266D01*
X319833Y413245D02*
X319249Y413828D01*
X318083D01*
X317500Y413245D01*
Y410912D01*
X318083Y410329D01*
X319249D01*
X319833Y410912D01*
X320999Y410329D02*
X322165D01*
X321582D01*
Y413828D01*
X320999Y413245D01*
X323915Y410329D02*
X325081D01*
X324498D01*
Y413828D01*
X323915Y413245D01*
D49*
X472441Y314961D02*
G03*
X472441Y314961I-157480J0D01*
G01*
D50*
X283039Y361472D02*
G03*
X283039Y361472I-492J0D01*
G01*
X244079Y245087D02*
G03*
X244079Y245087I-492J0D01*
G01*
X375941Y373524D02*
G03*
X375941Y373524I-492J0D01*
G01*
%TF.MD5,1ea6d59d473ff631e6edf6d679b05c7b*%
M02*
