%TF.GenerationSoftware,Altium Limited,Altium Designer,18.1.6 (161)*%
G04 Layer_Color=32768*
%FSLAX25Y25*%
%MOIN*%
%TF.FileFunction,Other,Mechanical_15*%
%TF.Part,Single*%
G01*
G75*
%TA.AperFunction,NonConductor*%
%ADD75C,0.00394*%
%ADD78C,0.00197*%
D75*
X264240Y349031D02*
Y352969D01*
X262272Y351000D02*
X266209D01*
X285473Y361500D02*
X289410D01*
X287442Y359531D02*
Y363469D01*
X251031Y238000D02*
X254969D01*
X253000Y236032D02*
Y239968D01*
X265768Y346000D02*
X269705D01*
X267736Y344032D02*
Y347969D01*
X379532Y340000D02*
X383469D01*
X381500Y338032D02*
Y341968D01*
X387032Y340000D02*
X390968D01*
X389000Y338032D02*
Y341968D01*
X345197Y311000D02*
X349134D01*
X347166Y309032D02*
Y312968D01*
X363032Y310752D02*
X366968D01*
X365000Y308783D02*
Y312720D01*
X372532Y311000D02*
X376468D01*
X374500Y309032D02*
Y312968D01*
X336531Y310000D02*
X340469D01*
X338500Y308032D02*
Y311968D01*
X249240Y381185D02*
Y385122D01*
X247272Y383154D02*
X251209D01*
X312000Y420532D02*
Y424469D01*
X310032Y422500D02*
X313968D01*
X315500Y384531D02*
Y388469D01*
X313531Y386500D02*
X317469D01*
X370031Y386381D02*
X373969D01*
X372000Y384413D02*
Y388350D01*
X207284Y207432D02*
X210068Y210216D01*
X207284D02*
X210068Y207432D01*
X330142Y347350D02*
X334079D01*
X332111Y345382D02*
Y349319D01*
X357831Y390488D02*
X361768D01*
X359800Y388520D02*
Y392457D01*
X282031Y326000D02*
X285968D01*
X284000Y324031D02*
Y327969D01*
X287740Y336032D02*
Y339968D01*
X285772Y338000D02*
X289709D01*
X282031Y317000D02*
X285968D01*
X284000Y315032D02*
Y318969D01*
X249000Y236032D02*
Y239968D01*
X247031Y238000D02*
X250969D01*
X259531Y361500D02*
X263469D01*
X261500Y359531D02*
Y363469D01*
X259531Y353500D02*
X263469D01*
X261500Y351532D02*
Y355469D01*
X229291Y285000D02*
X233228D01*
X231260Y283032D02*
Y286968D01*
X233260Y349228D02*
Y353165D01*
X231291Y351197D02*
X235228D01*
X235291Y339068D02*
X239228D01*
X237260Y337099D02*
Y341036D01*
X222000Y377532D02*
Y381469D01*
X220031Y379500D02*
X223969D01*
X213000Y377532D02*
Y381469D01*
X211032Y379500D02*
X214968D01*
X229291Y276000D02*
X233228D01*
X231260Y274031D02*
Y277969D01*
X232760Y314032D02*
Y317969D01*
X230791Y316000D02*
X234728D01*
X240020Y314032D02*
Y317969D01*
X238051Y316000D02*
X241988D01*
X240760Y349228D02*
Y353165D01*
X238791Y351197D02*
X242728D01*
X233260Y362858D02*
Y366794D01*
X231291Y364826D02*
X235228D01*
X207031Y354240D02*
X210968D01*
X209000Y352272D02*
Y356209D01*
X207031Y347000D02*
X210968D01*
X209000Y345031D02*
Y348969D01*
X245543Y392685D02*
Y396622D01*
X243575Y394654D02*
X247512D01*
X253240Y392185D02*
Y396122D01*
X251272Y394153D02*
X255209D01*
X253240Y407185D02*
Y411122D01*
X251272Y409154D02*
X255209D01*
X245240Y407031D02*
Y410968D01*
X243272Y409000D02*
X247209D01*
X300724Y326000D02*
X304661D01*
X302693Y324031D02*
Y327969D01*
X300724Y318000D02*
X304661D01*
X302693Y316032D02*
Y319969D01*
X307453Y351031D02*
Y354969D01*
X305484Y353000D02*
X309421D01*
X298232Y351031D02*
Y354969D01*
X296264Y353000D02*
X300201D01*
X275272Y373177D02*
X279209D01*
X277240Y371209D02*
Y375146D01*
X273740Y382358D02*
Y386295D01*
X271772Y384327D02*
X275709D01*
X281240Y382358D02*
Y386295D01*
X279272Y384327D02*
X283209D01*
X280240Y396209D02*
Y400146D01*
X278272Y398177D02*
X282209D01*
X273740Y396055D02*
Y399992D01*
X271772Y398024D02*
X275709D01*
X240760Y362728D02*
Y366665D01*
X238791Y364697D02*
X242728D01*
X353992Y362500D02*
X357929D01*
X355961Y360531D02*
Y364469D01*
X226000Y219032D02*
Y222969D01*
X224031Y221000D02*
X227969D01*
X226000Y210856D02*
Y214793D01*
X224031Y212824D02*
X227969D01*
X226000Y202680D02*
Y206617D01*
X224031Y204648D02*
X227969D01*
X180000Y322532D02*
Y326468D01*
X178032Y324500D02*
X181968D01*
X180000Y314032D02*
Y317969D01*
X178032Y316000D02*
X181968D01*
X180000Y306031D02*
Y309968D01*
X178032Y308000D02*
X181968D01*
X223500Y416532D02*
Y420469D01*
X221532Y418500D02*
X225468D01*
X223153Y403031D02*
Y406968D01*
X221185Y405000D02*
X225122D01*
X223500Y409531D02*
Y413469D01*
X221532Y411500D02*
X225468D01*
X275000Y198531D02*
Y202468D01*
X273031Y200500D02*
X276969D01*
X274031Y191000D02*
X277969D01*
X276000Y189032D02*
Y192968D01*
X288500Y167032D02*
Y170968D01*
X286531Y169000D02*
X290469D01*
X306532Y178500D02*
X310469D01*
X308500Y176532D02*
Y180468D01*
X314567Y178500D02*
X318504D01*
X316535Y176532D02*
Y180468D01*
X322532Y178500D02*
X326468D01*
X324500Y176532D02*
Y180468D01*
X314961Y163386D02*
Y167323D01*
X312992Y165354D02*
X316929D01*
X401500Y198031D02*
Y201969D01*
X399532Y200000D02*
X403469D01*
X404500Y211032D02*
Y214968D01*
X402531Y213000D02*
X406468D01*
X405000Y221532D02*
Y225468D01*
X403031Y223500D02*
X406968D01*
X418974Y210753D02*
X421758Y207969D01*
X418974D02*
X421758Y210753D01*
X462598Y314961D02*
X466535D01*
X464567Y312992D02*
Y316929D01*
X399500Y397185D02*
Y401122D01*
X397532Y399153D02*
X401469D01*
X399000Y406032D02*
Y409969D01*
X397031Y408000D02*
X400969D01*
X399000Y415531D02*
Y419468D01*
X397031Y417500D02*
X400969D01*
X417608Y417608D02*
X420392Y420392D01*
X417608D02*
X420392Y417608D01*
X305532Y454500D02*
X309469D01*
X307500Y452531D02*
Y456468D01*
X412500Y327697D02*
Y331634D01*
X410532Y329665D02*
X414468D01*
X320532Y454500D02*
X324468D01*
X322500Y452531D02*
Y456468D01*
X312992Y454500D02*
X316929D01*
X314961Y452531D02*
Y456468D01*
X314961Y462598D02*
Y466535D01*
X312992Y464567D02*
X316929D01*
X208608Y421392D02*
X211392Y418608D01*
X208608D02*
X211392Y421392D01*
X322642Y347350D02*
X326579D01*
X324610Y345382D02*
Y349319D01*
X363531Y392000D02*
X367469D01*
X365500Y390032D02*
Y393969D01*
X383032Y379000D02*
X386968D01*
X385000Y377031D02*
Y380968D01*
X337461Y403673D02*
Y407610D01*
X335492Y405642D02*
X339429D01*
X346961Y328532D02*
Y332469D01*
X344992Y330500D02*
X348929D01*
X364784Y328532D02*
Y332469D01*
X362815Y330500D02*
X366752D01*
X452000Y307031D02*
Y310968D01*
X450032Y309000D02*
X453968D01*
X452000Y315032D02*
Y318969D01*
X450032Y317000D02*
X453968D01*
X452000Y322532D02*
Y326468D01*
X450032Y324500D02*
X453968D01*
X165354Y312992D02*
Y316929D01*
X163386Y314961D02*
X167323D01*
D78*
X281858Y337811D02*
Y364189D01*
X246622D02*
X281858D01*
X246622Y337811D02*
Y364189D01*
Y337811D02*
X281858D01*
X271300Y352051D02*
Y370949D01*
X303584Y352051D02*
Y370949D01*
X271300Y352051D02*
X303584D01*
X271300Y370949D02*
X303584D01*
X247488Y234850D02*
Y241150D01*
X258512Y234850D02*
Y241150D01*
X247488Y234850D02*
X258512D01*
X247488Y241150D02*
X258512D01*
X262224Y343047D02*
Y348953D01*
X273248Y343047D02*
Y348953D01*
X262224Y343047D02*
X273248D01*
X262224Y348953D02*
X273248D01*
X384650Y334488D02*
Y345512D01*
X378350Y334488D02*
Y345512D01*
X384650D01*
X378350Y334488D02*
X384650D01*
X392150D02*
Y345512D01*
X385850Y334488D02*
Y345512D01*
X392150D01*
X385850Y334488D02*
X392150D01*
X343878Y304248D02*
Y317752D01*
Y304248D02*
X350453D01*
Y304248D02*
Y317752D01*
X343878D02*
X350453D01*
X361713Y304000D02*
Y317504D01*
Y304000D02*
X368287D01*
Y304000D02*
Y317504D01*
X361713D02*
X368287D01*
X377650Y305488D02*
Y316512D01*
X371350Y305488D02*
Y316512D01*
X377650D01*
X371350Y305488D02*
X377650D01*
X335350Y304488D02*
Y315512D01*
X341650Y304488D02*
Y315512D01*
X335350Y304488D02*
X341650D01*
X335350Y315512D02*
X341650D01*
X243728Y380201D02*
X254752D01*
X243728Y386106D02*
X254752D01*
Y380201D02*
Y386106D01*
X243728Y380201D02*
Y386106D01*
X306488Y425453D02*
X317512D01*
X306488Y419547D02*
X317512D01*
Y425453D01*
X306488Y419547D02*
Y425453D01*
X297783Y365240D02*
X333217D01*
X297783Y407760D02*
X333217D01*
X297783Y365240D02*
Y407760D01*
X333217Y365240D02*
Y407760D01*
X377512Y383429D02*
Y389334D01*
X366488Y383429D02*
Y389334D01*
X377512D01*
X366488Y383429D02*
X377512D01*
X205474Y217315D02*
X217167Y205623D01*
X199071Y210912D02*
X210764Y199220D01*
X199071Y210912D02*
X205474Y217315D01*
X210764Y199220D02*
X217167Y205623D01*
X335260Y341839D02*
Y352862D01*
X328961Y341839D02*
Y352862D01*
X335260D01*
X328961Y341839D02*
X335260D01*
X365311Y387535D02*
Y393441D01*
X354288Y387535D02*
Y393441D01*
X365311D01*
X354288Y387535D02*
X365311D01*
X278488Y323047D02*
Y328953D01*
X289512Y323047D02*
Y328953D01*
X278488D02*
X289512D01*
X278488Y323047D02*
X289512D01*
X284787Y332488D02*
X290693D01*
X284787Y343512D02*
X290693D01*
X284787Y332488D02*
Y343512D01*
X290693Y332488D02*
Y343512D01*
X278488Y313850D02*
Y320150D01*
X289512Y313850D02*
Y320150D01*
X278488D02*
X289512D01*
X278488Y313850D02*
X289512D01*
X240732Y230913D02*
X257268D01*
X240732Y245087D02*
X257268D01*
Y230913D02*
Y245087D01*
X240732Y230913D02*
Y245087D01*
X255988Y358350D02*
Y364650D01*
X267012Y358350D02*
Y364650D01*
X255988Y358350D02*
X267012D01*
X255988Y364650D02*
X267012D01*
X255988Y350350D02*
Y356650D01*
X267012Y350350D02*
Y356650D01*
X255988Y350350D02*
X267012D01*
X255988Y356650D02*
X267012D01*
X225748Y282047D02*
Y287953D01*
X236772Y282047D02*
Y287953D01*
X225748D02*
X236772D01*
X225748Y282047D02*
X236772D01*
X230110Y356709D02*
X236409D01*
X230110Y345685D02*
X236409D01*
Y356709D01*
X230110Y345685D02*
Y356709D01*
X242772Y336115D02*
Y342020D01*
X231748Y336115D02*
Y342020D01*
Y336115D02*
X242772D01*
X231748Y342020D02*
X242772D01*
X218850Y385012D02*
X225150D01*
X218850Y373988D02*
X225150D01*
Y385012D01*
X218850Y373988D02*
Y385012D01*
X210047D02*
X215953D01*
X210047Y373988D02*
X215953D01*
Y385012D01*
X210047Y373988D02*
Y385012D01*
X225748Y272850D02*
Y279150D01*
X236772Y272850D02*
Y279150D01*
X225748D02*
X236772D01*
X225748Y272850D02*
X236772D01*
X229807Y321512D02*
X235713D01*
X229807Y310488D02*
X235713D01*
Y321512D01*
X229807Y310488D02*
Y321512D01*
X236870D02*
X243169D01*
X236870Y310488D02*
X243169D01*
Y321512D01*
X236870Y310488D02*
Y321512D01*
X237610Y356709D02*
X243910D01*
X237610Y345685D02*
X243910D01*
Y356709D01*
X237610Y345685D02*
Y356709D01*
X230307Y359314D02*
X236213D01*
X230307Y370338D02*
X236213D01*
X230307Y359314D02*
Y370338D01*
X236213Y359314D02*
Y370338D01*
X203488Y351091D02*
Y357390D01*
X214512Y351091D02*
Y357390D01*
X203488D02*
X214512D01*
X203488Y351091D02*
X214512D01*
X203488Y344047D02*
Y349953D01*
X214512Y344047D02*
Y349953D01*
X203488D02*
X214512D01*
X203488Y344047D02*
X214512D01*
X242394Y400165D02*
X248693D01*
X242394Y389142D02*
X248693D01*
Y400165D01*
X242394Y389142D02*
Y400165D01*
X250091Y399665D02*
X256390D01*
X250091Y388642D02*
X256390D01*
Y399665D01*
X250091Y388642D02*
Y399665D01*
X250287Y414665D02*
X256193D01*
X250287Y403642D02*
X256193D01*
Y414665D01*
X250287Y403642D02*
Y414665D01*
X242287Y403488D02*
X248193D01*
X242287Y414512D02*
X248193D01*
X242287Y403488D02*
Y414512D01*
X248193Y403488D02*
Y414512D01*
X297181Y323047D02*
Y328953D01*
X308205Y323047D02*
Y328953D01*
X297181D02*
X308205D01*
X297181Y323047D02*
X308205D01*
X297181Y314850D02*
Y321150D01*
X308205Y314850D02*
Y321150D01*
X297181D02*
X308205D01*
X297181Y314850D02*
X308205D01*
X304303Y358512D02*
X310602D01*
X304303Y347488D02*
X310602D01*
Y358512D01*
X304303Y347488D02*
Y358512D01*
X295280D02*
X301185D01*
X295280Y347488D02*
X301185D01*
Y358512D01*
X295280Y347488D02*
Y358512D01*
X282752Y370224D02*
Y376130D01*
X271728Y370224D02*
Y376130D01*
Y370224D02*
X282752D01*
X271728Y376130D02*
X282752D01*
X270590Y389839D02*
X276890D01*
X270590Y378815D02*
X276890D01*
Y389839D01*
X270590Y378815D02*
Y389839D01*
X278091D02*
X284390D01*
X278091Y378815D02*
X284390D01*
Y389839D01*
X278091Y378815D02*
Y389839D01*
X277287Y403689D02*
X283193D01*
X277287Y392665D02*
X283193D01*
Y403689D01*
X277287Y392665D02*
Y403689D01*
X270787Y392512D02*
X276693D01*
X270787Y403535D02*
X276693D01*
X270787Y392512D02*
Y403535D01*
X276693Y392512D02*
Y403535D01*
X237807Y370209D02*
X243713D01*
X237807Y359185D02*
X243713D01*
Y370209D01*
X237807Y359185D02*
Y370209D01*
X336276Y348327D02*
Y376673D01*
X375646Y348327D02*
Y376673D01*
X336276Y348327D02*
X375646D01*
X336276Y376673D02*
X375646D01*
X220488Y223953D02*
X231512D01*
X220488Y218047D02*
X231512D01*
X220488D02*
Y223953D01*
X231512Y218047D02*
Y223953D01*
X220488Y215777D02*
X231512D01*
X220488Y209871D02*
X231512D01*
X220488D02*
Y215777D01*
X231512Y209871D02*
Y215777D01*
X220488Y207601D02*
X231512D01*
X220488Y201696D02*
X231512D01*
X220488D02*
Y207601D01*
X231512Y201696D02*
Y207601D01*
X174488Y327453D02*
X185512D01*
X174488Y321547D02*
X185512D01*
X174488D02*
Y327453D01*
X185512Y321547D02*
Y327453D01*
X174488Y318953D02*
X185512D01*
X174488Y313047D02*
X185512D01*
X174488D02*
Y318953D01*
X185512Y313047D02*
Y318953D01*
X174488Y310953D02*
X185512D01*
X174488Y305047D02*
X185512D01*
X174488D02*
Y310953D01*
X185512Y305047D02*
Y310953D01*
X217988Y421453D02*
X229012D01*
X217988Y415547D02*
X229012D01*
X217988D02*
Y421453D01*
X229012Y415547D02*
Y421453D01*
X217642Y407953D02*
X228665D01*
X217642Y402047D02*
X228665D01*
X217642D02*
Y407953D01*
X228665Y402047D02*
Y407953D01*
X217988Y414453D02*
X229012D01*
X217988Y408547D02*
X229012D01*
X217988D02*
Y414453D01*
X229012Y408547D02*
Y414453D01*
X269488Y197547D02*
X280512D01*
X269488Y203453D02*
X280512D01*
Y197547D02*
Y203453D01*
X269488Y197547D02*
Y203453D01*
X273047Y185488D02*
Y196512D01*
X278953Y185488D02*
Y196512D01*
X273047Y185488D02*
X278953D01*
X273047Y196512D02*
X278953D01*
X282988Y166047D02*
X294012D01*
X282988Y171953D02*
X294012D01*
Y166047D02*
Y171953D01*
X282988Y166047D02*
Y171953D01*
X305547Y172988D02*
Y184012D01*
X311453Y172988D02*
Y184012D01*
X305547Y172988D02*
X311453D01*
X305547Y184012D02*
X311453D01*
X313583Y172988D02*
Y184012D01*
X319488Y172988D02*
Y184012D01*
X313583Y172988D02*
X319488D01*
X313583Y184012D02*
X319488D01*
X321547Y172988D02*
Y184012D01*
X327453Y172988D02*
Y184012D01*
X321547Y172988D02*
X327453D01*
X321547Y184012D02*
X327453D01*
X306693Y169095D02*
X323228D01*
X306693Y160039D02*
X323228D01*
X306693D02*
Y169095D01*
X323228Y160039D02*
Y169095D01*
X395988Y197047D02*
X407012D01*
X395988Y202953D02*
X407012D01*
Y197047D02*
Y202953D01*
X395988Y197047D02*
Y202953D01*
X398988Y210047D02*
X410012D01*
X398988Y215953D02*
X410012D01*
Y210047D02*
Y215953D01*
X398988Y210047D02*
Y215953D01*
X399488Y220547D02*
X410512D01*
X399488Y226453D02*
X410512D01*
Y220547D02*
Y226453D01*
X399488Y220547D02*
Y226453D01*
X411875Y206159D02*
X423568Y217852D01*
X418278Y199756D02*
X429971Y211449D01*
X411875Y206159D02*
X418278Y199756D01*
X423568Y217852D02*
X429971Y211449D01*
X460827Y306693D02*
Y323228D01*
X469882Y306693D02*
Y323228D01*
X460827Y306693D02*
X469882D01*
X460827Y323228D02*
X469882D01*
X393988Y396201D02*
X405012D01*
X393988Y402106D02*
X405012D01*
Y396201D02*
Y402106D01*
X393988Y396201D02*
Y402106D01*
X393488Y405047D02*
X404512D01*
X393488Y410953D02*
X404512D01*
Y405047D02*
Y410953D01*
X393488Y405047D02*
Y410953D01*
Y414547D02*
X404512D01*
X393488Y420453D02*
X404512D01*
Y414547D02*
Y420453D01*
X393488Y414547D02*
Y420453D01*
X410509Y422201D02*
X422201Y410509D01*
X416912Y428604D02*
X428604Y416912D01*
X422201Y410509D02*
X428604Y416912D01*
X410509Y422201D02*
X416912Y428604D01*
X310453Y448988D02*
Y460012D01*
X304547Y448988D02*
Y460012D01*
X310453D01*
X304547Y448988D02*
X310453D01*
X394783Y350925D02*
X430217D01*
X394783Y308405D02*
X430217D01*
Y350925D01*
X394783Y308405D02*
Y350925D01*
X325453Y448988D02*
Y460012D01*
X319547Y448988D02*
Y460012D01*
X325453D01*
X319547Y448988D02*
X325453D01*
X317913D02*
Y460012D01*
X312008Y448988D02*
Y460012D01*
X317913D01*
X312008Y448988D02*
X317913D01*
X306693Y460827D02*
X323228D01*
X306693Y469882D02*
X323228D01*
Y460827D02*
Y469882D01*
X306693Y460827D02*
Y469882D01*
X206799Y411509D02*
X218491Y423202D01*
X200396Y417912D02*
X212088Y429604D01*
X218491Y423202D01*
X200396Y417912D02*
X206799Y411509D01*
X347796Y401284D02*
X352126D01*
X347796Y392228D02*
X352126D01*
Y401284D01*
X347796Y392228D02*
Y401284D01*
X349961Y394886D02*
Y398626D01*
X348091Y396756D02*
X351831D01*
X342296Y401272D02*
X346626D01*
X342296Y392216D02*
X346626D01*
Y401272D01*
X342296Y392216D02*
Y401272D01*
X344461Y394874D02*
Y398614D01*
X342591Y396744D02*
X346331D01*
X327760Y341839D02*
Y352862D01*
X321461Y341839D02*
Y352862D01*
X327760D01*
X321461Y341839D02*
X327760D01*
X371012Y389047D02*
Y394953D01*
X359988Y389047D02*
Y394953D01*
Y389047D02*
X371012D01*
X359988Y394953D02*
X371012D01*
X390512Y376047D02*
Y381953D01*
X379488Y376047D02*
Y381953D01*
Y376047D02*
X390512D01*
X379488Y381953D02*
X390512D01*
X334508Y411154D02*
X340414D01*
X334508Y400130D02*
X340414D01*
Y411154D01*
X334508Y400130D02*
Y411154D01*
X355827Y407217D02*
X360158D01*
X355827Y416272D02*
X360158D01*
X355827Y407217D02*
Y416272D01*
X360158Y407217D02*
Y416272D01*
X357992Y409874D02*
Y413614D01*
X356122Y411744D02*
X359862D01*
X354296Y397772D02*
X358626D01*
X354296Y388717D02*
X358626D01*
Y397772D01*
X354296Y388717D02*
Y397772D01*
X356461Y391374D02*
Y395114D01*
X354591Y393244D02*
X358331D01*
X343024Y337390D02*
X350898D01*
X343024Y323610D02*
X350898D01*
Y337390D01*
X343024Y323610D02*
Y337390D01*
X360847D02*
X368721D01*
X360847Y323610D02*
X368721D01*
Y337390D01*
X360847Y323610D02*
Y337390D01*
X446488Y306047D02*
X457512D01*
X446488Y311953D02*
X457512D01*
Y306047D02*
Y311953D01*
X446488Y306047D02*
Y311953D01*
Y314047D02*
X457512D01*
X446488Y319953D02*
X457512D01*
Y314047D02*
Y319953D01*
X446488Y314047D02*
Y319953D01*
Y321547D02*
X457512D01*
X446488Y327453D02*
X457512D01*
Y321547D02*
Y327453D01*
X446488Y321547D02*
Y327453D01*
X160039Y306693D02*
X169095D01*
X160039Y323228D02*
X169095D01*
X160039Y306693D02*
Y323228D01*
X169095Y306693D02*
Y323228D01*
%TF.MD5,87655bf9983d5b3cba0012f8a3c705a3*%
M02*
