%TF.GenerationSoftware,Altium Limited,Altium Designer,18.1.6 (161)*%
G04 Layer_Color=128*
%FSLAX26Y26*%
%MOIN*%
%TF.FileFunction,Drillmap*%
%TF.Part,Single*%
G01*
G75*
%TA.AperFunction,NonConductor*%
%ADD85C,0.005000*%
D85*
X2929606Y4330709D02*
X2969606D01*
X2949606Y4310709D02*
Y4350709D01*
X3029606Y4330709D02*
X3069606D01*
X3049606Y4310709D02*
Y4350709D01*
X3129606Y4330709D02*
X3169606D01*
X3149606Y4310709D02*
Y4350709D01*
X3229606Y4330709D02*
X3269606D01*
X3249606Y4310709D02*
Y4350709D01*
X3329606Y4335709D02*
X3369606D01*
X3349606Y4315709D02*
Y4355709D01*
X3329606Y4430709D02*
X3369606D01*
X3349606Y4410709D02*
Y4450709D01*
X3229606Y4430709D02*
X3269606D01*
X3249606Y4410709D02*
Y4450709D01*
X3129606Y4430709D02*
X3169606D01*
X3149606Y4410709D02*
Y4450709D01*
X3029606Y4430709D02*
X3069606D01*
X3049606Y4410709D02*
Y4450709D01*
X2929606Y4430709D02*
X2969606D01*
X2949606Y4410709D02*
Y4450709D01*
X3497165Y1890000D02*
X3542835D01*
X3520000Y1867165D02*
Y1912835D01*
X2929606Y2068504D02*
X2969606D01*
X2949606Y2048504D02*
Y2088504D01*
X3029606Y2068504D02*
X3069606D01*
X3049606Y2048504D02*
Y2088504D01*
X3129606Y2068504D02*
X3169606D01*
X3149606Y2048504D02*
Y2088504D01*
X3229606Y2068504D02*
X3269606D01*
X3249606Y2048504D02*
Y2088504D01*
X3329606Y2068504D02*
X3369606D01*
X3349606Y2048504D02*
Y2088504D01*
X3329606Y1973504D02*
X3369606D01*
X3349606Y1953504D02*
Y1993504D01*
X3229606Y1968504D02*
X3269606D01*
X3249606Y1948504D02*
Y1988504D01*
X3129606Y1968504D02*
X3169606D01*
X3149606Y1948504D02*
Y1988504D01*
X3029606Y1968504D02*
X3069606D01*
X3049606Y1948504D02*
Y1988504D01*
X2929606Y1968504D02*
X2969606D01*
X2949606Y1948504D02*
Y1988504D01*
X4245000Y2965000D02*
X4285000D01*
X4265000Y2945000D02*
Y2985000D01*
X4245000Y3465000D02*
X4285000D01*
X4265000Y3445000D02*
Y3485000D01*
X4494000Y3750000D02*
X4506000D01*
X4500000Y3744000D02*
Y3756000D01*
X4569000Y3600000D02*
X4581000D01*
X4575000Y3594000D02*
Y3606000D01*
X4494000Y2850000D02*
X4506000D01*
X4500000Y2844000D02*
Y2856000D01*
X4344000Y4050000D02*
X4356000D01*
X4350000Y4044000D02*
Y4056000D01*
X4419000Y3900000D02*
X4431000D01*
X4425000Y3894000D02*
Y3906000D01*
X4344000Y3750000D02*
X4356000D01*
X4350000Y3744000D02*
Y3756000D01*
X4419000Y3600000D02*
X4431000D01*
X4425000Y3594000D02*
Y3606000D01*
X4344000Y3450000D02*
X4356000D01*
X4350000Y3444000D02*
Y3456000D01*
X4419000Y3300000D02*
X4431000D01*
X4425000Y3294000D02*
Y3306000D01*
X4344000Y3150000D02*
X4356000D01*
X4350000Y3144000D02*
Y3156000D01*
X4419000Y3000000D02*
X4431000D01*
X4425000Y2994000D02*
Y3006000D01*
X4344000Y2850000D02*
X4356000D01*
X4350000Y2844000D02*
Y2856000D01*
X4419000Y2700000D02*
X4431000D01*
X4425000Y2694000D02*
Y2706000D01*
X4344000Y2550000D02*
X4356000D01*
X4350000Y2544000D02*
Y2556000D01*
X4269000Y3900000D02*
X4281000D01*
X4275000Y3894000D02*
Y3906000D01*
X4194000Y3750000D02*
X4206000D01*
X4200000Y3744000D02*
Y3756000D01*
X4269000Y3600000D02*
X4281000D01*
X4275000Y3594000D02*
Y3606000D01*
X4269000Y3300000D02*
X4281000D01*
X4275000Y3294000D02*
Y3306000D01*
X4194000Y3150000D02*
X4206000D01*
X4200000Y3144000D02*
Y3156000D01*
X4194000Y2850000D02*
X4206000D01*
X4200000Y2844000D02*
Y2856000D01*
X4269000Y2700000D02*
X4281000D01*
X4275000Y2694000D02*
Y2706000D01*
X4269000Y2400000D02*
X4281000D01*
X4275000Y2394000D02*
Y2406000D01*
X4194000Y2250000D02*
X4206000D01*
X4200000Y2244000D02*
Y2256000D01*
X4119000Y3900000D02*
X4131000D01*
X4125000Y3894000D02*
Y3906000D01*
X4044000Y3750000D02*
X4056000D01*
X4050000Y3744000D02*
Y3756000D01*
X4119000Y3300000D02*
X4131000D01*
X4125000Y3294000D02*
Y3306000D01*
X4044000Y3150000D02*
X4056000D01*
X4050000Y3144000D02*
Y3156000D01*
X4044000Y2850000D02*
X4056000D01*
X4050000Y2844000D02*
Y2856000D01*
X3969000Y3900000D02*
X3981000D01*
X3975000Y3894000D02*
Y3906000D01*
X3894000Y3750000D02*
X3906000D01*
X3900000Y3744000D02*
Y3756000D01*
X3894000Y3450000D02*
X3906000D01*
X3900000Y3444000D02*
Y3456000D01*
X3894000Y3150000D02*
X3906000D01*
X3900000Y3144000D02*
Y3156000D01*
X3894000Y2850000D02*
X3906000D01*
X3900000Y2844000D02*
Y2856000D01*
X3894000Y2550000D02*
X3906000D01*
X3900000Y2544000D02*
Y2556000D01*
X3969000Y2400000D02*
X3981000D01*
X3975000Y2394000D02*
Y2406000D01*
X3894000Y2250000D02*
X3906000D01*
X3900000Y2244000D02*
Y2256000D01*
X3969000Y2100000D02*
X3981000D01*
X3975000Y2094000D02*
Y2106000D01*
X3819000Y4200000D02*
X3831000D01*
X3825000Y4194000D02*
Y4206000D01*
X3744000Y4050000D02*
X3756000D01*
X3750000Y4044000D02*
Y4056000D01*
X3744000Y3750000D02*
X3756000D01*
X3750000Y3744000D02*
Y3756000D01*
X3819000Y3600000D02*
X3831000D01*
X3825000Y3594000D02*
Y3606000D01*
X3744000Y3450000D02*
X3756000D01*
X3750000Y3444000D02*
Y3456000D01*
X3819000Y3300000D02*
X3831000D01*
X3825000Y3294000D02*
Y3306000D01*
X3819000Y3000000D02*
X3831000D01*
X3825000Y2994000D02*
Y3006000D01*
X3819000Y2700000D02*
X3831000D01*
X3825000Y2694000D02*
Y2706000D01*
X3744000Y2550000D02*
X3756000D01*
X3750000Y2544000D02*
Y2556000D01*
X3819000Y2400000D02*
X3831000D01*
X3825000Y2394000D02*
Y2406000D01*
X3744000Y2250000D02*
X3756000D01*
X3750000Y2244000D02*
Y2256000D01*
X3819000Y2100000D02*
X3831000D01*
X3825000Y2094000D02*
Y2106000D01*
X3744000Y1950000D02*
X3756000D01*
X3750000Y1944000D02*
Y1956000D01*
X3594000Y4350000D02*
X3606000D01*
X3600000Y4344000D02*
Y4356000D01*
X3594000Y4050000D02*
X3606000D01*
X3600000Y4044000D02*
Y4056000D01*
X3669000Y3900000D02*
X3681000D01*
X3675000Y3894000D02*
Y3906000D01*
X3669000Y3600000D02*
X3681000D01*
X3675000Y3594000D02*
Y3606000D01*
X3594000Y3450000D02*
X3606000D01*
X3600000Y3444000D02*
Y3456000D01*
X3669000Y3300000D02*
X3681000D01*
X3675000Y3294000D02*
Y3306000D01*
X3594000Y3150000D02*
X3606000D01*
X3600000Y3144000D02*
Y3156000D01*
X3669000Y3000000D02*
X3681000D01*
X3675000Y2994000D02*
Y3006000D01*
X3594000Y2850000D02*
X3606000D01*
X3600000Y2844000D02*
Y2856000D01*
X3594000Y2250000D02*
X3606000D01*
X3600000Y2244000D02*
Y2256000D01*
X3669000Y2100000D02*
X3681000D01*
X3675000Y2094000D02*
Y2106000D01*
X3444000Y4350000D02*
X3456000D01*
X3450000Y4344000D02*
Y4356000D01*
X3519000Y4200000D02*
X3531000D01*
X3525000Y4194000D02*
Y4206000D01*
X3444000Y4050000D02*
X3456000D01*
X3450000Y4044000D02*
Y4056000D01*
X3519000Y3900000D02*
X3531000D01*
X3525000Y3894000D02*
Y3906000D01*
X3519000Y3600000D02*
X3531000D01*
X3525000Y3594000D02*
Y3606000D01*
X3444000Y3450000D02*
X3456000D01*
X3450000Y3444000D02*
Y3456000D01*
X3519000Y3300000D02*
X3531000D01*
X3525000Y3294000D02*
Y3306000D01*
X3444000Y3150000D02*
X3456000D01*
X3450000Y3144000D02*
Y3156000D01*
X3519000Y3000000D02*
X3531000D01*
X3525000Y2994000D02*
Y3006000D01*
X3444000Y2850000D02*
X3456000D01*
X3450000Y2844000D02*
Y2856000D01*
X3369000Y4200000D02*
X3381000D01*
X3375000Y4194000D02*
Y4206000D01*
X3369000Y3600000D02*
X3381000D01*
X3375000Y3594000D02*
Y3606000D01*
X3294000Y3450000D02*
X3306000D01*
X3300000Y3444000D02*
Y3456000D01*
X3369000Y3300000D02*
X3381000D01*
X3375000Y3294000D02*
Y3306000D01*
X3294000Y3150000D02*
X3306000D01*
X3300000Y3144000D02*
Y3156000D01*
X3294000Y2850000D02*
X3306000D01*
X3300000Y2844000D02*
Y2856000D01*
X3294000Y2250000D02*
X3306000D01*
X3300000Y2244000D02*
Y2256000D01*
X3144000Y3450000D02*
X3156000D01*
X3150000Y3444000D02*
Y3456000D01*
X3219000Y3300000D02*
X3231000D01*
X3225000Y3294000D02*
Y3306000D01*
X3144000Y3150000D02*
X3156000D01*
X3150000Y3144000D02*
Y3156000D01*
X3144000Y2550000D02*
X3156000D01*
X3150000Y2544000D02*
Y2556000D01*
X2994000Y3450000D02*
X3006000D01*
X3000000Y3444000D02*
Y3456000D01*
X3069000Y3300000D02*
X3081000D01*
X3075000Y3294000D02*
Y3306000D01*
X3069000Y3000000D02*
X3081000D01*
X3075000Y2994000D02*
Y3006000D01*
X2994000Y2550000D02*
X3006000D01*
X3000000Y2544000D02*
Y2556000D01*
X3069000Y2400000D02*
X3081000D01*
X3075000Y2394000D02*
Y2406000D01*
X2919000Y3600000D02*
X2931000D01*
X2925000Y3594000D02*
Y3606000D01*
X2919000Y3300000D02*
X2931000D01*
X2925000Y3294000D02*
Y3306000D01*
X2844000Y3150000D02*
X2856000D01*
X2850000Y3144000D02*
Y3156000D01*
X2844000Y2250000D02*
X2856000D01*
X2850000Y2244000D02*
Y2256000D01*
X2694000Y4350000D02*
X2706000D01*
X2700000Y4344000D02*
Y4356000D01*
X2769000Y3600000D02*
X2781000D01*
X2775000Y3594000D02*
Y3606000D01*
X2694000Y3450000D02*
X2706000D01*
X2700000Y3444000D02*
Y3456000D01*
X2769000Y3300000D02*
X2781000D01*
X2775000Y3294000D02*
Y3306000D01*
X2769000Y2700000D02*
X2781000D01*
X2775000Y2694000D02*
Y2706000D01*
X2544000Y4350000D02*
X2556000D01*
X2550000Y4344000D02*
Y4356000D01*
X2619000Y4200000D02*
X2631000D01*
X2625000Y4194000D02*
Y4206000D01*
X2544000Y4050000D02*
X2556000D01*
X2550000Y4044000D02*
Y4056000D01*
X2619000Y3600000D02*
X2631000D01*
X2625000Y3594000D02*
Y3606000D01*
X2619000Y3300000D02*
X2631000D01*
X2625000Y3294000D02*
Y3306000D01*
X2619000Y2700000D02*
X2631000D01*
X2625000Y2694000D02*
Y2706000D01*
X2544000Y2250000D02*
X2556000D01*
X2550000Y2244000D02*
Y2256000D01*
X2469000Y4200000D02*
X2481000D01*
X2475000Y4194000D02*
Y4206000D01*
X2394000Y4050000D02*
X2406000D01*
X2400000Y4044000D02*
Y4056000D01*
X2469000Y3900000D02*
X2481000D01*
X2475000Y3894000D02*
Y3906000D01*
X2394000Y3750000D02*
X2406000D01*
X2400000Y3744000D02*
Y3756000D01*
X2469000Y3600000D02*
X2481000D01*
X2475000Y3594000D02*
Y3606000D01*
X2394000Y3450000D02*
X2406000D01*
X2400000Y3444000D02*
Y3456000D01*
X2469000Y3300000D02*
X2481000D01*
X2475000Y3294000D02*
Y3306000D01*
X2394000Y3150000D02*
X2406000D01*
X2400000Y3144000D02*
Y3156000D01*
X2394000Y2250000D02*
X2406000D01*
X2400000Y2244000D02*
Y2256000D01*
X2469000Y2100000D02*
X2481000D01*
X2475000Y2094000D02*
Y2106000D01*
X2319000Y3900000D02*
X2331000D01*
X2325000Y3894000D02*
Y3906000D01*
X2244000Y3750000D02*
X2256000D01*
X2250000Y3744000D02*
Y3756000D01*
X2319000Y3600000D02*
X2331000D01*
X2325000Y3594000D02*
Y3606000D01*
X2244000Y3450000D02*
X2256000D01*
X2250000Y3444000D02*
Y3456000D01*
X2319000Y3300000D02*
X2331000D01*
X2325000Y3294000D02*
Y3306000D01*
X2244000Y3150000D02*
X2256000D01*
X2250000Y3144000D02*
Y3156000D01*
X2319000Y3000000D02*
X2331000D01*
X2325000Y2994000D02*
Y3006000D01*
X2244000Y2850000D02*
X2256000D01*
X2250000Y2844000D02*
Y2856000D01*
X2319000Y2700000D02*
X2331000D01*
X2325000Y2694000D02*
Y2706000D01*
X2244000Y2550000D02*
X2256000D01*
X2250000Y2544000D02*
Y2556000D01*
X2319000Y2400000D02*
X2331000D01*
X2325000Y2394000D02*
Y2406000D01*
X2169000Y3900000D02*
X2181000D01*
X2175000Y3894000D02*
Y3906000D01*
X2094000Y3750000D02*
X2106000D01*
X2100000Y3744000D02*
Y3756000D01*
X2169000Y3600000D02*
X2181000D01*
X2175000Y3594000D02*
Y3606000D01*
X2094000Y3450000D02*
X2106000D01*
X2100000Y3444000D02*
Y3456000D01*
X2169000Y3300000D02*
X2181000D01*
X2175000Y3294000D02*
Y3306000D01*
X2094000Y3150000D02*
X2106000D01*
X2100000Y3144000D02*
Y3156000D01*
X2169000Y3000000D02*
X2181000D01*
X2175000Y2994000D02*
Y3006000D01*
X2094000Y2850000D02*
X2106000D01*
X2100000Y2844000D02*
Y2856000D01*
X2169000Y2700000D02*
X2181000D01*
X2175000Y2694000D02*
Y2706000D01*
X2094000Y2550000D02*
X2106000D01*
X2100000Y2544000D02*
Y2556000D01*
X2169000Y2400000D02*
X2181000D01*
X2175000Y2394000D02*
Y2406000D01*
X2019000Y3900000D02*
X2031000D01*
X2025000Y3894000D02*
Y3906000D01*
X1944000Y3750000D02*
X1956000D01*
X1950000Y3744000D02*
Y3756000D01*
X2019000Y3600000D02*
X2031000D01*
X2025000Y3594000D02*
Y3606000D01*
X1944000Y3450000D02*
X1956000D01*
X1950000Y3444000D02*
Y3456000D01*
X2019000Y3300000D02*
X2031000D01*
X2025000Y3294000D02*
Y3306000D01*
X2019000Y3000000D02*
X2031000D01*
X2025000Y2994000D02*
Y3006000D01*
X1944000Y2850000D02*
X1956000D01*
X1950000Y2844000D02*
Y2856000D01*
X2019000Y2700000D02*
X2031000D01*
X2025000Y2694000D02*
Y2706000D01*
X1944000Y2550000D02*
X1956000D01*
X1950000Y2544000D02*
Y2556000D01*
X2019000Y2400000D02*
X2031000D01*
X2025000Y2394000D02*
Y2406000D01*
X1869000Y3600000D02*
X1881000D01*
X1875000Y3594000D02*
Y3606000D01*
X1869000Y3300000D02*
X1881000D01*
X1875000Y3294000D02*
Y3306000D01*
X1869000Y2700000D02*
X1881000D01*
X1875000Y2694000D02*
Y2706000D01*
X3334724Y4635000D02*
X3354724D01*
X3344724Y4625000D02*
Y4645000D01*
X2902220Y4505000D02*
X2922220D01*
X2912220Y4495000D02*
Y4515000D01*
X3735000Y2068504D02*
X3755000D01*
X3745000Y2058504D02*
Y2078504D01*
X3365000Y4590000D02*
X3385000D01*
X3375000Y4580000D02*
Y4600000D01*
X3920000Y4334460D02*
X3940000D01*
X3930000Y4324460D02*
Y4344460D01*
X3070000Y4130000D02*
X3090000D01*
X3080000Y4120000D02*
Y4140000D01*
X2561929Y2480000D02*
X2581929D01*
X2571929Y2470000D02*
Y2490000D01*
X2615000Y2330000D02*
X2635000D01*
X2625000Y2320000D02*
Y2340000D01*
X2885000Y3922047D02*
X2905000D01*
X2895000Y3912047D02*
Y3932047D01*
X2690000Y2215000D02*
X2710000D01*
X2700000Y2205000D02*
Y2225000D01*
X2413032Y3060000D02*
X2433032D01*
X2423032Y3050000D02*
Y3070000D01*
X2500000Y2980000D02*
X2520000D01*
X2510000Y2970000D02*
Y2990000D01*
X2690000Y2380000D02*
X2710000D01*
X2700000Y2370000D02*
Y2390000D01*
X3150000Y2965000D02*
X3170000D01*
X3160000Y2955000D02*
Y2975000D01*
X2935000Y2740000D02*
X2955000D01*
X2945000Y2730000D02*
Y2750000D01*
X2900000Y3965000D02*
X2920000D01*
X2910000Y3955000D02*
Y3975000D01*
X3065000Y3810000D02*
X3085000D01*
X3075000Y3800000D02*
Y3820000D01*
X3065000Y3885000D02*
X3085000D01*
X3075000Y3875000D02*
Y3895000D01*
X3065000Y3960000D02*
X3085000D01*
X3075000Y3950000D02*
Y3970000D01*
X2595000Y3855000D02*
X2615000D01*
X2605000Y3845000D02*
Y3865000D01*
X2545000Y3700000D02*
X2565000D01*
X2555000Y3690000D02*
Y3710000D01*
X3765000Y4510261D02*
X3785000D01*
X3775000Y4500261D02*
Y4520261D01*
X2067043Y4015000D02*
X2087043D01*
X2077043Y4005000D02*
Y4025000D01*
X3338708Y1786292D02*
X3358708D01*
X3348708Y1776292D02*
Y1796292D01*
X2325000Y4308465D02*
X2345000D01*
X2335000Y4298465D02*
Y4318465D01*
X2260000Y4310000D02*
X2280000D01*
X2270000Y4300000D02*
Y4320000D01*
X2195000Y4310000D02*
X2215000D01*
X2205000Y4300000D02*
Y4320000D01*
X3890000Y4399457D02*
X3910000D01*
X3900000Y4389457D02*
Y4409457D01*
X3955000Y4260061D02*
X3975000D01*
X3965000Y4250061D02*
Y4270061D01*
X2410000Y1935000D02*
X2430000D01*
X2420000Y1925000D02*
Y1945000D01*
X2460000Y1860000D02*
X2480000D01*
X2470000Y1850000D02*
Y1870000D01*
X2756306Y1826306D02*
X2776306D01*
X2766306Y1816306D02*
Y1836306D01*
X3405000Y1756958D02*
X3425000D01*
X3415000Y1746958D02*
Y1766958D01*
X1735000Y2965000D02*
X1755000D01*
X1745000Y2955000D02*
Y2975000D01*
X4548110Y2990000D02*
X4568110D01*
X4558110Y2980000D02*
Y3000000D01*
X2850000Y3600000D02*
X2870000D01*
X2860000Y3590000D02*
Y3610000D01*
X2985000Y1700000D02*
X3005000D01*
X2995000Y1690000D02*
Y1710000D01*
X3920000Y1920000D02*
X3940000D01*
X3930000Y1910000D02*
Y1930000D01*
X2985000Y4560000D02*
X3005000D01*
X2995000Y4550000D02*
Y4570000D01*
X4590000Y3020000D02*
X4610000D01*
X4600000Y3010000D02*
Y3030000D01*
X4635000Y3025000D02*
X4655000D01*
X4645000Y3015000D02*
Y3035000D01*
X2010000Y2290000D02*
X2030000D01*
X2020000Y2280000D02*
Y2300000D01*
X2049875Y2185000D02*
X2069875D01*
X2059875Y2175000D02*
Y2195000D01*
X2345000Y2025000D02*
X2365000D01*
X2355000Y2015000D02*
Y2035000D01*
X1770000Y3015000D02*
X1790000D01*
X1780000Y3005000D02*
Y3025000D01*
X1695000Y3340000D02*
X1715000D01*
X1705000Y3330000D02*
Y3350000D01*
X4509631Y3319631D02*
X4529631D01*
X4519631Y3309631D02*
Y3329631D01*
X4120000Y2180000D02*
X4140000D01*
X4130000Y2170000D02*
Y2190000D01*
X4045000Y2055000D02*
X4065000D01*
X4055000Y2045000D02*
Y2065000D01*
X4280000Y4120000D02*
X4300000D01*
X4290000Y4110000D02*
Y4130000D01*
X4110000Y2010000D02*
X4130000D01*
X4120000Y2000000D02*
Y2020000D01*
X3010000Y1660000D02*
X3030000D01*
X3020000Y1650000D02*
Y1670000D01*
X1995000Y2190000D02*
X2015000D01*
X2005000Y2180000D02*
Y2200000D01*
X1650000Y3290000D02*
X1670000D01*
X1660000Y3280000D02*
Y3300000D01*
%TF.MD5,68efbf0f73c9866f5326e4f4559f9845*%
M02*
