%TF.GenerationSoftware,Altium Limited,Altium Designer,18.1.6 (161)*%
G04 Layer_Physical_Order=1*
G04 Layer_Color=255*
%FSLAX26Y26*%
%MOIN*%
%TF.FileFunction,Copper,L1,Top,Signal*%
%TF.Part,Single*%
G01*
G75*
%TA.AperFunction,NonConductor*%
%ADD10C,0.010000*%
%TA.AperFunction,SMDPad,CuDef*%
%ADD11R,0.137795X0.076772*%
G04:AMPARAMS|DCode=12|XSize=39.37mil|YSize=35.433mil|CornerRadius=0mil|HoleSize=0mil|Usage=FLASHONLY|Rotation=315.000|XOffset=0mil|YOffset=0mil|HoleType=Round|Shape=Rectangle|*
%AMROTATEDRECTD12*
4,1,4,-0.026447,0.001392,-0.001392,0.026447,0.026447,-0.001392,0.001392,-0.026447,-0.026447,0.001392,0.0*
%
%ADD12ROTATEDRECTD12*%

G04:AMPARAMS|DCode=13|XSize=15.748mil|YSize=31.496mil|CornerRadius=0mil|HoleSize=0mil|Usage=FLASHONLY|Rotation=315.000|XOffset=0mil|YOffset=0mil|HoleType=Round|Shape=Rectangle|*
%AMROTATEDRECTD13*
4,1,4,-0.016703,-0.005568,0.005568,0.016703,0.016703,0.005568,-0.005568,-0.016703,-0.016703,-0.005568,0.0*
%
%ADD13ROTATEDRECTD13*%

%ADD14R,0.053150X0.037402*%
%ADD15R,0.051181X0.033465*%
%ADD16R,0.033465X0.051181*%
%ADD17R,0.039370X0.023622*%
%ADD18R,0.037402X0.035433*%
%ADD19R,0.037402X0.053150*%
%ADD20R,0.046457X0.022835*%
%ADD21R,0.094488X0.242913*%
%ADD22O,0.055118X0.013780*%
%ADD23R,0.039370X0.035433*%
%ADD24R,0.015748X0.031496*%
G04:AMPARAMS|DCode=25|XSize=39.37mil|YSize=35.433mil|CornerRadius=0mil|HoleSize=0mil|Usage=FLASHONLY|Rotation=45.000|XOffset=0mil|YOffset=0mil|HoleType=Round|Shape=Rectangle|*
%AMROTATEDRECTD25*
4,1,4,-0.001392,-0.026447,-0.026447,-0.001392,0.001392,0.026447,0.026447,0.001392,-0.001392,-0.026447,0.0*
%
%ADD25ROTATEDRECTD25*%

G04:AMPARAMS|DCode=26|XSize=15.748mil|YSize=31.496mil|CornerRadius=0mil|HoleSize=0mil|Usage=FLASHONLY|Rotation=45.000|XOffset=0mil|YOffset=0mil|HoleType=Round|Shape=Rectangle|*
%AMROTATEDRECTD26*
4,1,4,0.005568,-0.016703,-0.016703,0.005568,-0.005568,0.016703,0.016703,-0.005568,0.005568,-0.016703,0.0*
%
%ADD26ROTATEDRECTD26*%

%ADD27R,0.035433X0.039370*%
%ADD28R,0.031496X0.015748*%
%ADD29R,0.076772X0.137795*%
%ADD30R,0.027559X0.035433*%
%ADD31R,0.045276X0.057087*%
%ADD32R,0.050591X0.057874*%
%TA.AperFunction,Conductor*%
%ADD33C,0.010000*%
%ADD34C,0.020000*%
%ADD35C,0.005000*%
%TA.AperFunction,ComponentPad*%
%ADD36C,0.050000*%
%ADD37O,0.081102X0.081102*%
%TA.AperFunction,ViaPad*%
%ADD38C,0.025000*%
%ADD39C,0.030000*%
%ADD40C,0.050000*%
G36*
X3226386Y4712496D02*
X3302981Y4706846D01*
X3379206Y4697444D01*
X3454879Y4684314D01*
X3529816Y4667486D01*
X3603836Y4647002D01*
X3676763Y4622910D01*
X3748419Y4595269D01*
X3818634Y4564146D01*
X3887236Y4529614D01*
X3954061Y4491758D01*
X4018948Y4450669D01*
X4081741Y4406445D01*
X4142289Y4359193D01*
X4200445Y4309028D01*
X4256069Y4256069D01*
X4309028Y4200445D01*
X4359193Y4142289D01*
X4406445Y4081741D01*
X4450669Y4018948D01*
X4491758Y3954061D01*
X4529614Y3887236D01*
X4564146Y3818634D01*
X4595269Y3748419D01*
X4622910Y3676763D01*
X4647002Y3603836D01*
X4667486Y3529816D01*
X4684314Y3454879D01*
X4697444Y3379206D01*
X4706846Y3302981D01*
X4712496Y3226386D01*
X4714381Y3149606D01*
X4712496Y3072827D01*
X4706846Y2996232D01*
X4697444Y2920006D01*
X4684314Y2844334D01*
X4667486Y2769397D01*
X4647002Y2695376D01*
X4622910Y2622450D01*
X4595269Y2550793D01*
X4564146Y2480579D01*
X4529614Y2411977D01*
X4491758Y2345151D01*
X4450669Y2280264D01*
X4406445Y2217471D01*
X4359193Y2156924D01*
X4309028Y2098768D01*
X4256069Y2043144D01*
X4200445Y1990185D01*
X4142289Y1940019D01*
X4081741Y1892768D01*
X4018948Y1848544D01*
X3954061Y1807455D01*
X3887236Y1769599D01*
X3818634Y1735067D01*
X3748419Y1703943D01*
X3676763Y1676302D01*
X3603836Y1652211D01*
X3529816Y1631726D01*
X3454879Y1614899D01*
X3379206Y1601768D01*
X3302981Y1592367D01*
X3226386Y1586717D01*
X3149606Y1584832D01*
X3072827Y1586717D01*
X2996232Y1592367D01*
X2920006Y1601768D01*
X2844334Y1614899D01*
X2769397Y1631726D01*
X2695376Y1652211D01*
X2622450Y1676302D01*
X2550793Y1703943D01*
X2480579Y1735067D01*
X2411977Y1769599D01*
X2345151Y1807455D01*
X2280264Y1848544D01*
X2217471Y1892768D01*
X2156924Y1940019D01*
X2098768Y1990185D01*
X2043144Y2043144D01*
X1990185Y2098768D01*
X1940019Y2156924D01*
X1892768Y2217471D01*
X1848544Y2280264D01*
X1807455Y2345151D01*
X1769599Y2411977D01*
X1735067Y2480579D01*
X1703943Y2550793D01*
X1676302Y2622450D01*
X1652211Y2695376D01*
X1631726Y2769397D01*
X1614899Y2844334D01*
X1601768Y2920006D01*
X1592367Y2996232D01*
X1586717Y3072827D01*
X1584832Y3149606D01*
X1586717Y3226386D01*
X1592367Y3302981D01*
X1601768Y3379206D01*
X1614899Y3454879D01*
X1631726Y3529816D01*
X1652211Y3603836D01*
X1676302Y3676763D01*
X1703943Y3748419D01*
X1735067Y3818634D01*
X1769599Y3887236D01*
X1807455Y3954061D01*
X1848544Y4018948D01*
X1892768Y4081741D01*
X1940019Y4142289D01*
X1990185Y4200445D01*
X2043144Y4256069D01*
X2098768Y4309028D01*
X2156924Y4359193D01*
X2217471Y4406445D01*
X2280264Y4450669D01*
X2345151Y4491758D01*
X2411977Y4529614D01*
X2480579Y4564146D01*
X2550793Y4595269D01*
X2622450Y4622910D01*
X2695376Y4647002D01*
X2769397Y4667486D01*
X2844334Y4684314D01*
X2920006Y4697444D01*
X2996232Y4706846D01*
X3072827Y4712496D01*
X3149606Y4714381D01*
X3226386Y4712496D01*
D02*
G37*
%LPC*%
G36*
X3233346Y4668386D02*
X3183976D01*
Y4627477D01*
X3179500Y4624332D01*
X3178976Y4624277D01*
X3178228Y4624623D01*
Y4648701D01*
X3152480D01*
Y4617679D01*
X3147480Y4615006D01*
X3146732Y4615506D01*
Y4648701D01*
X3120984D01*
Y4607205D01*
X3120984D01*
X3121865Y4605197D01*
X3119015Y4600197D01*
X3119015D01*
X3119015Y4556732D01*
X3114652Y4555196D01*
X3109954D01*
X3105591Y4556732D01*
X3105590Y4560196D01*
Y4600197D01*
X3095196D01*
Y4622953D01*
X3115236D01*
Y4668386D01*
X3065866D01*
Y4622953D01*
X3074804D01*
Y4600197D01*
X3044410D01*
X3044409Y4556732D01*
X3040046Y4555196D01*
X3018377D01*
X3015205Y4559061D01*
X3015392Y4560000D01*
X3013840Y4567804D01*
X3009419Y4574419D01*
X3002804Y4578840D01*
X2995000Y4580392D01*
X2987196Y4578840D01*
X2980581Y4574419D01*
X2976160Y4567804D01*
X2974608Y4560000D01*
X2976160Y4552196D01*
X2980581Y4545581D01*
X2987196Y4541160D01*
X2995000Y4539608D01*
X2999982Y4540599D01*
X3002790Y4537790D01*
X3006098Y4535580D01*
X3010000Y4534804D01*
X3040046D01*
X3044409Y4533268D01*
X3044410Y4529804D01*
Y4521731D01*
X2923179D01*
X2920024Y4523840D01*
X2912220Y4525392D01*
X2904417Y4523840D01*
X2897801Y4519419D01*
X2893381Y4512804D01*
X2891828Y4505000D01*
X2893381Y4497196D01*
X2897801Y4490581D01*
X2904417Y4486160D01*
X2912220Y4484608D01*
X2920024Y4486160D01*
X2926639Y4490581D01*
X2931060Y4497196D01*
X2931884Y4501340D01*
X3044410D01*
Y4489803D01*
X3105590D01*
X3105591Y4533268D01*
X3109954Y4534804D01*
X3114652D01*
X3119015Y4533268D01*
Y4489803D01*
X3180197D01*
Y4533268D01*
X3159802D01*
Y4545000D01*
X3159026Y4548902D01*
X3157135Y4551732D01*
X3157683Y4553969D01*
X3159047Y4556732D01*
X3180197D01*
Y4599410D01*
X3194410D01*
Y4556732D01*
X3255590D01*
Y4600197D01*
X3237687D01*
X3221068Y4616816D01*
X3219367Y4617953D01*
X3220883Y4622953D01*
X3233346D01*
Y4630375D01*
X3325253D01*
X3325885Y4627196D01*
X3330305Y4620581D01*
X3336921Y4616160D01*
X3344724Y4614608D01*
X3352528Y4616160D01*
X3359144Y4620581D01*
X3363564Y4627196D01*
X3365116Y4635000D01*
X3363564Y4642804D01*
X3359144Y4649419D01*
X3352528Y4653840D01*
X3346269Y4655085D01*
X3344869Y4656484D01*
X3339908Y4659799D01*
X3334055Y4660963D01*
X3233346D01*
Y4668386D01*
D02*
G37*
G36*
X3375000Y4610392D02*
X3367196Y4608840D01*
X3360581Y4604419D01*
X3356160Y4597804D01*
X3354608Y4590000D01*
X3355599Y4585018D01*
X3292312Y4521731D01*
X3255590D01*
Y4533268D01*
X3194410D01*
Y4489803D01*
X3255590D01*
Y4501340D01*
X3296535D01*
X3300437Y4502116D01*
X3303745Y4504326D01*
X3370018Y4570599D01*
X3375000Y4569608D01*
X3382804Y4571160D01*
X3389419Y4575581D01*
X3393840Y4582196D01*
X3395392Y4590000D01*
X3393840Y4597804D01*
X3389419Y4604419D01*
X3382804Y4608840D01*
X3375000Y4610392D01*
D02*
G37*
G36*
X3688386Y4603740D02*
X3645000D01*
Y4529842D01*
X3688386D01*
Y4603740D01*
D02*
G37*
G36*
X3635000D02*
X3591614D01*
Y4529842D01*
X3635000D01*
Y4603740D01*
D02*
G37*
G36*
X3688386Y4519842D02*
X3645000D01*
Y4445945D01*
X3688386D01*
Y4519842D01*
D02*
G37*
G36*
X3635000D02*
X3591614D01*
Y4445945D01*
X3635000D01*
Y4519842D01*
D02*
G37*
G36*
X3354606Y4465353D02*
Y4435709D01*
X3384250D01*
X3383705Y4439846D01*
X3380178Y4448360D01*
X3374568Y4455671D01*
X3367257Y4461281D01*
X3358743Y4464808D01*
X3354606Y4465353D01*
D02*
G37*
G36*
X3254606D02*
Y4435709D01*
X3284250D01*
X3283705Y4439846D01*
X3280178Y4448360D01*
X3274568Y4455671D01*
X3267257Y4461281D01*
X3258743Y4464808D01*
X3254606Y4465353D01*
D02*
G37*
G36*
X3244606Y4465353D02*
X3240469Y4464808D01*
X3231955Y4461281D01*
X3224644Y4455671D01*
X3219034Y4448360D01*
X3215507Y4439846D01*
X3214962Y4435709D01*
X3244606D01*
Y4465353D01*
D02*
G37*
G36*
X3344606D02*
X3340469Y4464808D01*
X3331955Y4461281D01*
X3324644Y4455671D01*
X3319034Y4448360D01*
X3315507Y4439846D01*
X3314962Y4435709D01*
X3344606D01*
Y4465353D01*
D02*
G37*
G36*
X3149606Y4460968D02*
X3141774Y4459937D01*
X3134477Y4456914D01*
X3128210Y4452105D01*
X3123401Y4445838D01*
X3120378Y4438541D01*
X3119347Y4430709D01*
X3120378Y4422877D01*
X3123401Y4415580D01*
X3128210Y4409313D01*
X3134477Y4404504D01*
X3141774Y4401481D01*
X3149606Y4400450D01*
X3157438Y4401481D01*
X3164735Y4404504D01*
X3171002Y4409313D01*
X3175811Y4415580D01*
X3178834Y4422877D01*
X3179865Y4430709D01*
X3178834Y4438541D01*
X3175811Y4445838D01*
X3171002Y4452105D01*
X3164735Y4456914D01*
X3157438Y4459937D01*
X3149606Y4460968D01*
D02*
G37*
G36*
X3049606D02*
X3041774Y4459937D01*
X3034477Y4456914D01*
X3028210Y4452105D01*
X3023401Y4445838D01*
X3020378Y4438541D01*
X3019347Y4430709D01*
X3020378Y4422877D01*
X3023401Y4415580D01*
X3028210Y4409313D01*
X3034477Y4404504D01*
X3041774Y4401481D01*
X3049606Y4400450D01*
X3057438Y4401481D01*
X3064735Y4404504D01*
X3071002Y4409313D01*
X3075811Y4415580D01*
X3078834Y4422877D01*
X3079865Y4430709D01*
X3078834Y4438541D01*
X3075811Y4445838D01*
X3071002Y4452105D01*
X3064735Y4456914D01*
X3057438Y4459937D01*
X3049606Y4460968D01*
D02*
G37*
G36*
X2949606D02*
X2941774Y4459937D01*
X2934477Y4456914D01*
X2928210Y4452105D01*
X2923401Y4445838D01*
X2920378Y4438541D01*
X2919347Y4430709D01*
X2920378Y4422877D01*
X2922422Y4417944D01*
X2782790Y4278313D01*
X2780580Y4275005D01*
X2779804Y4271103D01*
Y4154223D01*
X2600777Y3975196D01*
X2545000D01*
X2541098Y3974420D01*
X2537790Y3972210D01*
X2502790Y3937210D01*
X2500580Y3933902D01*
X2499804Y3930000D01*
Y3912377D01*
X2494804Y3910860D01*
X2491222Y3916222D01*
X2483779Y3921195D01*
X2480000Y3921946D01*
Y3900000D01*
Y3878054D01*
X2483779Y3878805D01*
X2491222Y3883778D01*
X2494804Y3889140D01*
X2499804Y3887623D01*
Y3860196D01*
X2470000D01*
X2466098Y3859420D01*
X2462790Y3857210D01*
X2415822Y3810241D01*
X2413612Y3806933D01*
X2412836Y3803032D01*
Y3774040D01*
X2407836Y3771382D01*
X2405000Y3771946D01*
Y3750000D01*
Y3728054D01*
X2407836Y3728618D01*
X2412836Y3725960D01*
Y3474040D01*
X2407836Y3471382D01*
X2405000Y3471946D01*
Y3450000D01*
Y3428054D01*
X2407836Y3428618D01*
X2412836Y3425960D01*
Y3265000D01*
X2413612Y3261098D01*
X2415822Y3257790D01*
X2452595Y3221018D01*
Y3103982D01*
X2428013Y3079401D01*
X2423032Y3080392D01*
X2415228Y3078840D01*
X2408612Y3074419D01*
X2404192Y3067804D01*
X2402640Y3060000D01*
X2404192Y3052196D01*
X2408612Y3045581D01*
X2415228Y3041160D01*
X2423032Y3039608D01*
X2430835Y3041160D01*
X2437451Y3045581D01*
X2441871Y3052196D01*
X2443423Y3060000D01*
X2442432Y3064982D01*
X2470000Y3092549D01*
X2472210Y3095857D01*
X2472986Y3099759D01*
Y3215045D01*
X3635292D01*
X3729804Y3120533D01*
Y2619223D01*
X3695777Y2585196D01*
X3660197D01*
Y2605590D01*
X3616732D01*
Y2544410D01*
X3660197D01*
Y2564804D01*
X3700000D01*
X3703902Y2565580D01*
X3707210Y2567790D01*
X3747210Y2607790D01*
X3749420Y2611098D01*
X3750196Y2615000D01*
Y3124756D01*
X3749420Y3128658D01*
X3747210Y3131966D01*
X3646725Y3232451D01*
X3643417Y3234661D01*
X3639515Y3235437D01*
X2467014D01*
X2433227Y3269223D01*
Y3798808D01*
X2474223Y3839804D01*
X2499804D01*
Y3795000D01*
X2500580Y3791098D01*
X2502790Y3787790D01*
X2527790Y3762790D01*
X2531098Y3760580D01*
X2535000Y3759804D01*
X2686220D01*
Y3747284D01*
X2723780D01*
Y3792283D01*
X2723780Y3792716D01*
X2724825Y3797284D01*
X2728661D01*
Y3820000D01*
X2704882D01*
X2681102D01*
Y3797284D01*
X2685175D01*
X2686220Y3792716D01*
X2686220Y3792283D01*
Y3780196D01*
X2539223D01*
X2520196Y3799223D01*
Y3850000D01*
Y3925777D01*
X2526220Y3931801D01*
X2531220Y3929730D01*
Y3910315D01*
X2550000D01*
Y3933032D01*
X2534522D01*
X2532451Y3938032D01*
X2549223Y3954804D01*
X2605000D01*
X2608902Y3955580D01*
X2612210Y3957790D01*
X2797210Y4142790D01*
X2799420Y4146098D01*
X2800196Y4150000D01*
Y4266880D01*
X2936841Y4403525D01*
X2941774Y4401481D01*
X2949606Y4400450D01*
X2957438Y4401481D01*
X2964735Y4404504D01*
X2971002Y4409313D01*
X2975811Y4415580D01*
X2978834Y4422877D01*
X2979865Y4430709D01*
X2978834Y4438541D01*
X2975811Y4445838D01*
X2971002Y4452105D01*
X2964735Y4456914D01*
X2957438Y4459937D01*
X2949606Y4460968D01*
D02*
G37*
G36*
X3244606Y4425709D02*
X3214962D01*
X3215507Y4421572D01*
X3219034Y4413058D01*
X3224644Y4405747D01*
X3231955Y4400137D01*
X3240469Y4396610D01*
X3244606Y4396065D01*
Y4425709D01*
D02*
G37*
G36*
X3344606D02*
X3314962D01*
X3315507Y4421572D01*
X3319034Y4413058D01*
X3324644Y4405747D01*
X3331955Y4400137D01*
X3340469Y4396610D01*
X3344606Y4396065D01*
Y4425709D01*
D02*
G37*
G36*
X3384250D02*
X3354606D01*
Y4396065D01*
X3358743Y4396610D01*
X3367257Y4400137D01*
X3374568Y4405747D01*
X3380178Y4413058D01*
X3383705Y4421572D01*
X3384250Y4425709D01*
D02*
G37*
G36*
X3284250D02*
X3254606D01*
Y4396065D01*
X3258743Y4396610D01*
X3267257Y4400137D01*
X3274568Y4405747D01*
X3280178Y4413058D01*
X3283705Y4421572D01*
X3284250Y4425709D01*
D02*
G37*
G36*
X3900000Y4419848D02*
X3892196Y4418296D01*
X3885581Y4413876D01*
X3881160Y4407260D01*
X3879608Y4399457D01*
X3880599Y4394475D01*
X3872790Y4386666D01*
X3870580Y4383358D01*
X3869804Y4379457D01*
Y4045000D01*
X3870580Y4041098D01*
X3872790Y4037790D01*
X3926255Y3984326D01*
X3929563Y3982116D01*
X3933465Y3981340D01*
X3939803D01*
Y3960945D01*
X3983268D01*
Y4022126D01*
X3939803D01*
Y4006687D01*
X3934803Y4004616D01*
X3890196Y4049223D01*
Y4375233D01*
X3895018Y4380056D01*
X3900000Y4379065D01*
X3907804Y4380617D01*
X3914419Y4385037D01*
X3918840Y4391653D01*
X3920392Y4399457D01*
X3918840Y4407260D01*
X3914419Y4413876D01*
X3907804Y4418296D01*
X3900000Y4419848D01*
D02*
G37*
G36*
X3605000Y4371946D02*
Y4355000D01*
X3621946D01*
X3621195Y4358779D01*
X3616222Y4366222D01*
X3608779Y4371194D01*
X3605000Y4371946D01*
D02*
G37*
G36*
X3595000D02*
X3591221Y4371194D01*
X3583778Y4366222D01*
X3578805Y4358779D01*
X3578054Y4355000D01*
X3595000D01*
Y4371946D01*
D02*
G37*
G36*
X3455000D02*
Y4355000D01*
X3471946D01*
X3471195Y4358779D01*
X3466222Y4366222D01*
X3458779Y4371194D01*
X3455000Y4371946D01*
D02*
G37*
G36*
X3445000D02*
X3441221Y4371194D01*
X3433778Y4366222D01*
X3428805Y4358779D01*
X3428054Y4355000D01*
X3445000D01*
Y4371946D01*
D02*
G37*
G36*
X2705000D02*
Y4355000D01*
X2721946D01*
X2721195Y4358779D01*
X2716222Y4366222D01*
X2708779Y4371194D01*
X2705000Y4371946D01*
D02*
G37*
G36*
X2695000D02*
X2691221Y4371194D01*
X2683778Y4366222D01*
X2678805Y4358779D01*
X2678054Y4355000D01*
X2695000D01*
Y4371946D01*
D02*
G37*
G36*
X2555000D02*
Y4355000D01*
X2571946D01*
X2571195Y4358779D01*
X2566222Y4366222D01*
X2558779Y4371194D01*
X2555000Y4371946D01*
D02*
G37*
G36*
X2545000D02*
X2541221Y4371194D01*
X2533778Y4366222D01*
X2528805Y4358779D01*
X2528054Y4355000D01*
X2545000D01*
Y4371946D01*
D02*
G37*
G36*
X2721946Y4345000D02*
X2705000D01*
Y4328054D01*
X2708779Y4328806D01*
X2716222Y4333778D01*
X2721195Y4341221D01*
X2721946Y4345000D01*
D02*
G37*
G36*
X2695000D02*
X2678054D01*
X2678805Y4341221D01*
X2683778Y4333778D01*
X2691221Y4328806D01*
X2695000Y4328054D01*
Y4345000D01*
D02*
G37*
G36*
X2571946D02*
X2555000D01*
Y4328054D01*
X2558779Y4328806D01*
X2566222Y4333778D01*
X2571195Y4341221D01*
X2571946Y4345000D01*
D02*
G37*
G36*
X2545000D02*
X2528054D01*
X2528805Y4341221D01*
X2533778Y4333778D01*
X2541221Y4328806D01*
X2545000Y4328054D01*
Y4345000D01*
D02*
G37*
G36*
X3471946D02*
X3455000D01*
Y4328054D01*
X3458779Y4328806D01*
X3466222Y4333778D01*
X3471195Y4341221D01*
X3471946Y4345000D01*
D02*
G37*
G36*
X3445000D02*
X3428054D01*
X3428805Y4341221D01*
X3433778Y4333778D01*
X3441221Y4328806D01*
X3445000Y4328054D01*
Y4345000D01*
D02*
G37*
G36*
X3930000Y4354852D02*
X3922196Y4353300D01*
X3915581Y4348879D01*
X3911160Y4342264D01*
X3909608Y4334460D01*
X3910599Y4329478D01*
X3907790Y4326669D01*
X3905580Y4323362D01*
X3904804Y4319460D01*
Y4100000D01*
X3905580Y4096098D01*
X3907790Y4092790D01*
X3927790Y4072790D01*
X3931098Y4070580D01*
X3934803Y4069843D01*
Y4049410D01*
X3978268D01*
Y4110591D01*
X3934803D01*
Y4101149D01*
X3930184Y4099235D01*
X3925196Y4104223D01*
Y4311083D01*
X3929061Y4314255D01*
X3930000Y4314068D01*
X3937804Y4315620D01*
X3944419Y4320041D01*
X3948840Y4326656D01*
X3950392Y4334460D01*
X3948840Y4342264D01*
X3944419Y4348879D01*
X3937804Y4353300D01*
X3930000Y4354852D01*
D02*
G37*
G36*
X3349606Y4365968D02*
X3341774Y4364937D01*
X3334477Y4361914D01*
X3328210Y4357105D01*
X3323401Y4350838D01*
X3320378Y4343541D01*
X3319347Y4335709D01*
X3320378Y4327877D01*
X3323401Y4320580D01*
X3328210Y4314313D01*
X3334477Y4309504D01*
X3341774Y4306481D01*
X3349606Y4305450D01*
X3357438Y4306481D01*
X3364735Y4309504D01*
X3371002Y4314313D01*
X3375811Y4320580D01*
X3378834Y4327877D01*
X3379865Y4335709D01*
X3378834Y4343541D01*
X3375811Y4350838D01*
X3371002Y4357105D01*
X3364735Y4361914D01*
X3357438Y4364937D01*
X3349606Y4365968D01*
D02*
G37*
G36*
X3249606Y4360968D02*
X3241774Y4359937D01*
X3234477Y4356914D01*
X3228210Y4352105D01*
X3223401Y4345838D01*
X3220378Y4338541D01*
X3219347Y4330709D01*
X3220378Y4322877D01*
X3223401Y4315580D01*
X3228210Y4309313D01*
X3234477Y4304504D01*
X3241774Y4301481D01*
X3249606Y4300450D01*
X3257438Y4301481D01*
X3264735Y4304504D01*
X3271002Y4309313D01*
X3275811Y4315580D01*
X3278834Y4322877D01*
X3279865Y4330709D01*
X3278834Y4338541D01*
X3275811Y4345838D01*
X3271002Y4352105D01*
X3264735Y4356914D01*
X3257438Y4359937D01*
X3249606Y4360968D01*
D02*
G37*
G36*
X3149606D02*
X3141774Y4359937D01*
X3134477Y4356914D01*
X3128210Y4352105D01*
X3123401Y4345838D01*
X3120378Y4338541D01*
X3119347Y4330709D01*
X3120378Y4322877D01*
X3123401Y4315580D01*
X3128210Y4309313D01*
X3134477Y4304504D01*
X3141774Y4301481D01*
X3149606Y4300450D01*
X3157438Y4301481D01*
X3164735Y4304504D01*
X3171002Y4309313D01*
X3175811Y4315580D01*
X3178834Y4322877D01*
X3179865Y4330709D01*
X3178834Y4338541D01*
X3175811Y4345838D01*
X3171002Y4352105D01*
X3164735Y4356914D01*
X3157438Y4359937D01*
X3149606Y4360968D01*
D02*
G37*
G36*
X3775000Y4530653D02*
X3767196Y4529101D01*
X3760581Y4524681D01*
X3756160Y4518065D01*
X3754608Y4510261D01*
X3756160Y4502458D01*
X3759706Y4497151D01*
Y4326335D01*
X3703823Y4270451D01*
X3683386D01*
Y4329055D01*
X3617655D01*
X3617032Y4331106D01*
X3616407Y4334055D01*
X3621195Y4341221D01*
X3621946Y4345000D01*
X3578054D01*
X3578805Y4341221D01*
X3583778Y4333778D01*
X3591221Y4328806D01*
X3596614Y4327733D01*
Y4270451D01*
X3513150D01*
X3507297Y4269287D01*
X3502335Y4265972D01*
X3393665Y4157302D01*
X3311575D01*
Y4165709D01*
X3248425D01*
Y4157302D01*
X3221575D01*
Y4167205D01*
X3158425D01*
Y4158798D01*
X3137831D01*
X3077350Y4219279D01*
X3072388Y4222594D01*
X3066535Y4223758D01*
X3040590D01*
Y4230197D01*
X3038358D01*
X3036445Y4234816D01*
X3060420Y4258792D01*
X3063736Y4263753D01*
X3064900Y4269606D01*
Y4304630D01*
X3071002Y4309313D01*
X3075811Y4315580D01*
X3078834Y4322877D01*
X3079865Y4330709D01*
X3078834Y4338541D01*
X3075811Y4345838D01*
X3071002Y4352105D01*
X3064735Y4356914D01*
X3057438Y4359937D01*
X3049606Y4360968D01*
X3041774Y4359937D01*
X3034477Y4356914D01*
X3028210Y4352105D01*
X3023527Y4346003D01*
X2975685D01*
X2971002Y4352105D01*
X2964735Y4356914D01*
X2957438Y4359937D01*
X2949606Y4360968D01*
X2941774Y4359937D01*
X2934477Y4356914D01*
X2928210Y4352105D01*
X2923401Y4345838D01*
X2921357Y4340905D01*
X2895709D01*
X2891807Y4340129D01*
X2888499Y4337919D01*
X2842790Y4292210D01*
X2840580Y4288902D01*
X2839804Y4285000D01*
Y4071732D01*
X2819410D01*
Y4028268D01*
X2880590D01*
Y4071732D01*
X2860196D01*
Y4280777D01*
X2899932Y4320513D01*
X2921357D01*
X2923401Y4315580D01*
X2928210Y4309313D01*
X2934477Y4304504D01*
X2939410Y4302460D01*
Y4269617D01*
X2912790Y4242998D01*
X2910580Y4239690D01*
X2909804Y4235788D01*
Y4225197D01*
X2889410D01*
Y4181732D01*
X2950590D01*
Y4198269D01*
X2979410D01*
Y4186732D01*
X3040590D01*
Y4193171D01*
X3060201D01*
X3120682Y4132690D01*
X3125643Y4129374D01*
X3131496Y4128210D01*
X3158425D01*
Y4119803D01*
X3175178D01*
Y4063461D01*
X3164567D01*
X3159928Y4062538D01*
X3155995Y4059911D01*
X3153367Y4055978D01*
X3152444Y4051339D01*
X3153367Y4046700D01*
X3155995Y4042767D01*
X3158158Y4041321D01*
X3158176Y4041277D01*
Y4035809D01*
X3158158Y4035765D01*
X3155995Y4034320D01*
X3153367Y4030387D01*
X3152444Y4025748D01*
X3153367Y4021109D01*
X3155995Y4017176D01*
X3158158Y4015731D01*
X3158176Y4015687D01*
Y4010219D01*
X3158158Y4010175D01*
X3155995Y4008729D01*
X3153367Y4004797D01*
X3152444Y4000157D01*
X3153367Y3995518D01*
X3155995Y3991586D01*
X3158158Y3990140D01*
X3158176Y3990096D01*
Y3984628D01*
X3158158Y3984584D01*
X3155995Y3983139D01*
X3153367Y3979206D01*
X3152444Y3974567D01*
X3153367Y3969928D01*
X3155995Y3965995D01*
Y3963562D01*
X3152390Y3961153D01*
X3148657Y3955566D01*
X3148341Y3953976D01*
X3185236D01*
Y3943976D01*
X3148341D01*
X3148657Y3942386D01*
X3152390Y3936800D01*
X3155995Y3934391D01*
Y3931958D01*
X3153367Y3928025D01*
X3152444Y3923386D01*
X3153367Y3918747D01*
X3155995Y3914814D01*
X3158158Y3913368D01*
X3158176Y3913325D01*
Y3907856D01*
X3158158Y3907813D01*
X3155995Y3906367D01*
X3153367Y3902434D01*
X3152444Y3897795D01*
X3153367Y3893156D01*
X3155995Y3889223D01*
X3158158Y3887778D01*
X3158176Y3887734D01*
Y3882266D01*
X3158158Y3882222D01*
X3155995Y3880777D01*
X3153367Y3876844D01*
X3152444Y3872205D01*
X3153367Y3867566D01*
X3155995Y3863633D01*
X3158158Y3862187D01*
X3158176Y3862144D01*
Y3856675D01*
X3158158Y3856632D01*
X3155995Y3855186D01*
X3153367Y3851253D01*
X3152444Y3846614D01*
X3153367Y3841975D01*
X3155995Y3838042D01*
Y3835609D01*
X3152390Y3833200D01*
X3148657Y3827614D01*
X3148341Y3826024D01*
X3185236D01*
Y3816024D01*
X3148341D01*
X3148657Y3814434D01*
X3152390Y3808847D01*
X3155995Y3806438D01*
Y3804005D01*
X3153367Y3800072D01*
X3152444Y3795433D01*
X3153367Y3790794D01*
X3155995Y3786861D01*
X3158158Y3785416D01*
X3158176Y3785372D01*
Y3779904D01*
X3158158Y3779860D01*
X3155995Y3778414D01*
X3153367Y3774482D01*
X3152444Y3769843D01*
X3153367Y3765203D01*
X3155995Y3761271D01*
X3158158Y3759825D01*
X3158176Y3759781D01*
Y3754313D01*
X3158158Y3754269D01*
X3155995Y3752824D01*
X3153367Y3748891D01*
X3152444Y3744252D01*
X3153367Y3739613D01*
X3155995Y3735680D01*
X3158158Y3734235D01*
X3158176Y3734191D01*
Y3728723D01*
X3158158Y3728679D01*
X3155995Y3727233D01*
X3153367Y3723300D01*
X3152444Y3718661D01*
X3153367Y3714022D01*
X3155995Y3710089D01*
X3159928Y3707462D01*
X3164567Y3706539D01*
X3175178D01*
Y3608701D01*
X3159921D01*
Y3600294D01*
X3148071D01*
Y3608701D01*
X3084921D01*
Y3600294D01*
X3050000D01*
X3044147Y3599130D01*
X3039186Y3595814D01*
X2933665Y3490294D01*
X2903110D01*
Y3513386D01*
X2875294D01*
Y3586890D01*
X2878840Y3592196D01*
X2880392Y3600000D01*
X2878840Y3607804D01*
X2874419Y3614419D01*
X2867804Y3618840D01*
X2860000Y3620392D01*
X2852196Y3618840D01*
X2845581Y3614419D01*
X2841160Y3607804D01*
X2839608Y3600000D01*
X2841160Y3592196D01*
X2844706Y3586890D01*
Y3513386D01*
X2755315D01*
Y3426614D01*
X2903110D01*
Y3459706D01*
X2940000D01*
X2945853Y3460870D01*
X2950814Y3464186D01*
X3056335Y3569706D01*
X3084921D01*
Y3561299D01*
X3148071D01*
Y3569706D01*
X3159921D01*
Y3561299D01*
X3223071D01*
Y3608701D01*
X3205766D01*
Y3706539D01*
X3205905D01*
X3210545Y3707462D01*
X3214477Y3710089D01*
X3217105Y3714022D01*
X3218028Y3718661D01*
X3217105Y3723300D01*
X3214477Y3727233D01*
X3212314Y3728679D01*
X3212296Y3728723D01*
Y3734191D01*
X3212314Y3734235D01*
X3214477Y3735680D01*
X3217105Y3739613D01*
X3218028Y3744252D01*
X3217241Y3748210D01*
X3217883Y3749965D01*
X3220233Y3753210D01*
X3234767D01*
X3268792Y3719186D01*
X3273753Y3715870D01*
X3279606Y3714706D01*
X3420000D01*
X3425853Y3715870D01*
X3430814Y3719186D01*
X3441247Y3729619D01*
X3444563Y3734580D01*
X3445727Y3740433D01*
Y3761457D01*
X3458071D01*
Y3779706D01*
X3551417D01*
Y3761063D01*
X3612008D01*
Y3828937D01*
X3551417D01*
Y3810294D01*
X3458071D01*
Y3828543D01*
X3445727D01*
Y3829567D01*
X3444563Y3835420D01*
X3441247Y3840381D01*
X3405008Y3876620D01*
X3405887Y3878741D01*
X3407430Y3881270D01*
X3412742Y3882327D01*
X3417704Y3885642D01*
X3441248Y3909186D01*
X3444563Y3914147D01*
X3445727Y3920000D01*
Y3939685D01*
X3458071D01*
Y3957934D01*
X3551417D01*
Y3945787D01*
X3612008D01*
Y4013662D01*
X3551417D01*
Y3988522D01*
X3458071D01*
Y4006772D01*
X3445288D01*
X3444563Y4010420D01*
X3441247Y4015381D01*
X3415814Y4040814D01*
X3410853Y4044130D01*
X3405000Y4045294D01*
X3280000D01*
X3274147Y4044130D01*
X3269186Y4040814D01*
X3242484Y4014113D01*
X3218208D01*
X3215772Y4019113D01*
X3217105Y4021109D01*
X3218028Y4025748D01*
X3217105Y4030387D01*
X3214477Y4034320D01*
X3212314Y4035765D01*
X3212296Y4035809D01*
Y4041277D01*
X3212314Y4041321D01*
X3214477Y4042767D01*
X3217105Y4046700D01*
X3218028Y4051339D01*
X3217105Y4055978D01*
X3214477Y4059911D01*
X3210545Y4062538D01*
X3205905Y4063461D01*
X3205766D01*
Y4119803D01*
X3221575D01*
Y4126714D01*
X3248425D01*
Y4118307D01*
X3311575D01*
Y4126714D01*
X3400000D01*
X3405853Y4127878D01*
X3410814Y4131194D01*
X3519485Y4239864D01*
X3596614D01*
Y4181260D01*
X3683386D01*
Y4239864D01*
X3710157D01*
X3716010Y4241028D01*
X3720972Y4244343D01*
X3785814Y4309185D01*
X3789130Y4314147D01*
X3790294Y4320000D01*
Y4497151D01*
X3793840Y4502458D01*
X3795392Y4510261D01*
X3793840Y4518065D01*
X3789419Y4524681D01*
X3782804Y4529101D01*
X3775000Y4530653D01*
D02*
G37*
G36*
X2205000Y4330392D02*
X2197196Y4328840D01*
X2190581Y4324419D01*
X2186160Y4317804D01*
X2184608Y4310000D01*
X2185233Y4306861D01*
X2148399Y4270028D01*
X2143150Y4275276D01*
X2108240Y4240366D01*
X2140366Y4208240D01*
X2175276Y4243150D01*
X2170028Y4248399D01*
X2212786Y4291157D01*
X2212804Y4291160D01*
X2219419Y4295581D01*
X2223840Y4302196D01*
X2225392Y4310000D01*
X2223840Y4317804D01*
X2219419Y4324419D01*
X2212804Y4328840D01*
X2205000Y4330392D01*
D02*
G37*
G36*
X3226575Y4235197D02*
X3195000D01*
Y4211496D01*
X3226575D01*
Y4235197D01*
D02*
G37*
G36*
X3185000D02*
X3153425D01*
Y4211496D01*
X3185000D01*
Y4235197D01*
D02*
G37*
G36*
X3316575Y4233701D02*
X3285000D01*
Y4210000D01*
X3316575D01*
Y4233701D01*
D02*
G37*
G36*
X3275000D02*
X3243425D01*
Y4210000D01*
X3275000D01*
Y4233701D01*
D02*
G37*
G36*
X3830000Y4221946D02*
Y4205000D01*
X3846946D01*
X3846195Y4208779D01*
X3841222Y4216222D01*
X3833779Y4221194D01*
X3830000Y4221946D01*
D02*
G37*
G36*
X3820000D02*
X3816221Y4221194D01*
X3808778Y4216222D01*
X3803805Y4208779D01*
X3803054Y4205000D01*
X3820000D01*
Y4221946D01*
D02*
G37*
G36*
X3530000D02*
Y4205000D01*
X3546946D01*
X3546195Y4208779D01*
X3541222Y4216222D01*
X3533779Y4221194D01*
X3530000Y4221946D01*
D02*
G37*
G36*
X3520000D02*
X3516221Y4221194D01*
X3508778Y4216222D01*
X3503805Y4208779D01*
X3503054Y4205000D01*
X3520000D01*
Y4221946D01*
D02*
G37*
G36*
X3380000D02*
Y4205000D01*
X3396946D01*
X3396195Y4208779D01*
X3391222Y4216222D01*
X3383779Y4221194D01*
X3380000Y4221946D01*
D02*
G37*
G36*
X3370000D02*
X3366221Y4221194D01*
X3358778Y4216222D01*
X3353805Y4208779D01*
X3353054Y4205000D01*
X3370000D01*
Y4221946D01*
D02*
G37*
G36*
X2630000D02*
Y4205000D01*
X2646946D01*
X2646195Y4208779D01*
X2641222Y4216222D01*
X2633779Y4221194D01*
X2630000Y4221946D01*
D02*
G37*
G36*
X2620000D02*
X2616221Y4221194D01*
X2608778Y4216222D01*
X2603805Y4208779D01*
X2603054Y4205000D01*
X2620000D01*
Y4221946D01*
D02*
G37*
G36*
X2480000D02*
Y4205000D01*
X2496946D01*
X2496195Y4208779D01*
X2491222Y4216222D01*
X2483779Y4221194D01*
X2480000Y4221946D01*
D02*
G37*
G36*
X2470000D02*
X2466221Y4221194D01*
X2458778Y4216222D01*
X2453805Y4208779D01*
X2453054Y4205000D01*
X2470000D01*
Y4221946D01*
D02*
G37*
G36*
X4146850Y4265276D02*
X4114724Y4233150D01*
X4124969Y4222905D01*
X4087260Y4185196D01*
X4045197D01*
Y4205591D01*
X4001732D01*
Y4144409D01*
X4045197D01*
Y4164804D01*
X4091483D01*
X4095385Y4165580D01*
X4098693Y4167790D01*
X4139388Y4208486D01*
X4149634Y4198240D01*
X4181760Y4230366D01*
X4146850Y4265276D01*
D02*
G37*
G36*
X3846946Y4195000D02*
X3830000D01*
Y4178054D01*
X3833779Y4178806D01*
X3841222Y4183778D01*
X3846195Y4191221D01*
X3846946Y4195000D01*
D02*
G37*
G36*
X3820000D02*
X3803054D01*
X3803805Y4191221D01*
X3808778Y4183778D01*
X3816221Y4178806D01*
X3820000Y4178054D01*
Y4195000D01*
D02*
G37*
G36*
X3546946D02*
X3530000D01*
Y4178054D01*
X3533779Y4178806D01*
X3541222Y4183778D01*
X3546195Y4191221D01*
X3546946Y4195000D01*
D02*
G37*
G36*
X3520000D02*
X3503054D01*
X3503805Y4191221D01*
X3508778Y4183778D01*
X3516221Y4178806D01*
X3520000Y4178054D01*
Y4195000D01*
D02*
G37*
G36*
X3396946D02*
X3380000D01*
Y4178054D01*
X3383779Y4178806D01*
X3391222Y4183778D01*
X3396195Y4191221D01*
X3396946Y4195000D01*
D02*
G37*
G36*
X3370000D02*
X3353054D01*
X3353805Y4191221D01*
X3358778Y4183778D01*
X3366221Y4178806D01*
X3370000Y4178054D01*
Y4195000D01*
D02*
G37*
G36*
X2646946D02*
X2630000D01*
Y4178054D01*
X2633779Y4178806D01*
X2641222Y4183778D01*
X2646195Y4191221D01*
X2646946Y4195000D01*
D02*
G37*
G36*
X2620000D02*
X2603054D01*
X2603805Y4191221D01*
X2608778Y4183778D01*
X2616221Y4178806D01*
X2620000Y4178054D01*
Y4195000D01*
D02*
G37*
G36*
X2496946D02*
X2480000D01*
Y4178054D01*
X2483779Y4178806D01*
X2491222Y4183778D01*
X2496195Y4191221D01*
X2496946Y4195000D01*
D02*
G37*
G36*
X2470000D02*
X2453054D01*
X2453805Y4191221D01*
X2458778Y4183778D01*
X2466221Y4178806D01*
X2470000Y4178054D01*
Y4195000D01*
D02*
G37*
G36*
X3226575Y4201496D02*
X3195000D01*
Y4177795D01*
X3226575D01*
Y4201496D01*
D02*
G37*
G36*
X3185000D02*
X3153425D01*
Y4177795D01*
X3185000D01*
Y4201496D01*
D02*
G37*
G36*
X3316575Y4200000D02*
X3285000D01*
Y4176299D01*
X3316575D01*
Y4200000D01*
D02*
G37*
G36*
X3275000D02*
X3243425D01*
Y4176299D01*
X3275000D01*
Y4200000D01*
D02*
G37*
G36*
X4171905Y4212382D02*
X4142563Y4183040D01*
X4144456Y4181147D01*
X4053506Y4090196D01*
X4045197D01*
Y4110591D01*
X4001732D01*
Y4049410D01*
X4045197D01*
Y4069804D01*
X4057729D01*
X4061631Y4070580D01*
X4064939Y4072790D01*
X4158876Y4166727D01*
X4160769Y4164834D01*
X4190111Y4194176D01*
X4171905Y4212382D01*
D02*
G37*
G36*
X2270000Y4330392D02*
X2262196Y4328840D01*
X2255581Y4324419D01*
X2251160Y4317804D01*
X2249608Y4310000D01*
X2251160Y4302196D01*
X2255581Y4295581D01*
X2258269Y4293785D01*
Y4215591D01*
X2246732D01*
Y4154409D01*
X2290197D01*
Y4215591D01*
X2278660D01*
Y4291733D01*
X2284419Y4295581D01*
X2288840Y4302196D01*
X2290392Y4310000D01*
X2288840Y4317804D01*
X2284419Y4324419D01*
X2277804Y4328840D01*
X2270000Y4330392D01*
D02*
G37*
G36*
X2118095Y4222382D02*
X2099889Y4204176D01*
X2129231Y4174834D01*
X2131336Y4176939D01*
X2133369Y4175580D01*
X2137271Y4174804D01*
X2179803D01*
Y4154409D01*
X2223268D01*
Y4215591D01*
X2179803D01*
Y4195196D01*
X2145282D01*
X2118095Y4222382D01*
D02*
G37*
G36*
X3965000Y4280453D02*
X3957196Y4278901D01*
X3950581Y4274481D01*
X3946160Y4267865D01*
X3944608Y4260061D01*
X3946160Y4252258D01*
X3947246Y4250633D01*
X3947116Y4250437D01*
X3946340Y4246535D01*
Y4205591D01*
X3934803D01*
Y4144409D01*
X3978268D01*
Y4205591D01*
X3966731D01*
Y4240014D01*
X3972804Y4241222D01*
X3979419Y4245642D01*
X3983840Y4252258D01*
X3985392Y4260061D01*
X3983840Y4267865D01*
X3979419Y4274481D01*
X3972804Y4278901D01*
X3965000Y4280453D01*
D02*
G37*
G36*
X4194176Y4190111D02*
X4164834Y4160769D01*
X4166727Y4158876D01*
X4082790Y4074939D01*
X4080580Y4071631D01*
X4079804Y4067729D01*
Y4021152D01*
X4060383Y4001731D01*
X4050197D01*
Y4022126D01*
X4006732D01*
Y3960945D01*
X4050197D01*
Y3981340D01*
X4064606D01*
X4068508Y3982116D01*
X4071816Y3984326D01*
X4097210Y4009720D01*
X4099420Y4013027D01*
X4100196Y4016929D01*
Y4063506D01*
X4181147Y4144456D01*
X4183040Y4142563D01*
X4212382Y4171905D01*
X4194176Y4190111D01*
D02*
G37*
G36*
X2335000Y4328856D02*
X2327196Y4327304D01*
X2320581Y4322884D01*
X2316160Y4316268D01*
X2314608Y4308465D01*
X2316160Y4300661D01*
X2320581Y4294045D01*
X2324804Y4291223D01*
Y4144223D01*
X2305777Y4125196D01*
X2290197D01*
Y4145591D01*
X2246732D01*
Y4085591D01*
X2246732Y4084410D01*
X2243881Y4080590D01*
X2243268D01*
Y4020196D01*
X2219803D01*
Y4079409D01*
X2219803Y4080590D01*
X2222654Y4084410D01*
X2223268D01*
Y4145591D01*
X2179803D01*
Y4125196D01*
X2166952D01*
X2123273Y4168876D01*
X2125166Y4170769D01*
X2095824Y4200111D01*
X2077618Y4181905D01*
X2106960Y4152563D01*
X2108853Y4154456D01*
X2155519Y4107790D01*
X2158827Y4105580D01*
X2162729Y4104804D01*
X2179803D01*
Y4085591D01*
X2179803Y4084410D01*
X2176952Y4080590D01*
X2176338D01*
Y4060196D01*
X2147465D01*
X2069893Y4137767D01*
X2091760Y4159634D01*
X2059634Y4191760D01*
X2024724Y4156850D01*
X2048411Y4133162D01*
X2048822Y4131098D01*
X2051032Y4127790D01*
X2136032Y4042790D01*
X2139340Y4040580D01*
X2143242Y4039804D01*
X2176338D01*
Y4020196D01*
X2096401D01*
X2095883Y4022804D01*
X2091462Y4029419D01*
X2084847Y4033840D01*
X2077043Y4035392D01*
X2069239Y4033840D01*
X2062624Y4029419D01*
X2058203Y4022804D01*
X2056651Y4015000D01*
X2058203Y4007196D01*
X2062624Y4000581D01*
X2069239Y3996160D01*
X2077043Y3994608D01*
X2084847Y3996160D01*
X2090300Y3999804D01*
X2255000D01*
X2258902Y4000580D01*
X2262209Y4002790D01*
X2272209Y4012790D01*
X2274420Y4016098D01*
X2275078Y4019410D01*
X2286732D01*
Y4079409D01*
X2286732Y4080590D01*
X2289583Y4084410D01*
X2290197D01*
Y4104804D01*
X2310000D01*
X2313902Y4105580D01*
X2317210Y4107790D01*
X2342210Y4132790D01*
X2344420Y4136098D01*
X2345196Y4140000D01*
Y4291223D01*
X2349419Y4294045D01*
X2353840Y4300661D01*
X2355392Y4308465D01*
X2353840Y4316268D01*
X2349419Y4322884D01*
X2342804Y4327304D01*
X2335000Y4328856D01*
D02*
G37*
G36*
X4230366Y4181760D02*
X4198240Y4149634D01*
X4233150Y4114724D01*
X4250899Y4132472D01*
X4271157Y4112214D01*
X4271160Y4112196D01*
X4275581Y4105581D01*
X4282196Y4101160D01*
X4290000Y4099608D01*
X4297804Y4101160D01*
X4304419Y4105581D01*
X4308840Y4112196D01*
X4310392Y4120000D01*
X4308840Y4127804D01*
X4304419Y4134419D01*
X4297804Y4138840D01*
X4290000Y4140392D01*
X4286861Y4139767D01*
X4267573Y4159056D01*
X4262611Y4162371D01*
X4256758Y4163536D01*
X4248590D01*
X4230366Y4181760D01*
D02*
G37*
G36*
X3040590Y4163268D02*
X2979410D01*
Y4119803D01*
X2993313D01*
X2995384Y4114803D01*
X2957554Y4076973D01*
X2955344Y4073666D01*
X2954568Y4069764D01*
Y4063461D01*
X2944095D01*
X2939455Y4062538D01*
X2935523Y4059911D01*
X2934448Y4058302D01*
X2929448Y4059819D01*
Y4114803D01*
X2950590D01*
Y4158268D01*
X2889410D01*
Y4114803D01*
X2909056D01*
Y4035748D01*
X2909832Y4031846D01*
X2912042Y4028538D01*
X2922042Y4018538D01*
X2925350Y4016328D01*
X2928599Y4015682D01*
X2928622Y4015659D01*
X2929848Y4013530D01*
X2930727Y4010552D01*
X2928185Y4006747D01*
X2927869Y4005158D01*
X2964764D01*
X3001659D01*
X3001343Y4006747D01*
X2997610Y4012334D01*
X2994005Y4014743D01*
Y4017176D01*
X2996633Y4021109D01*
X2997556Y4025748D01*
X2996633Y4030387D01*
X2994005Y4034320D01*
X2991842Y4035765D01*
X2991824Y4035809D01*
Y4041277D01*
X2991842Y4041321D01*
X2994005Y4042767D01*
X2996633Y4046700D01*
X2997556Y4051339D01*
X2996633Y4055978D01*
X2994005Y4059911D01*
X2990072Y4062538D01*
X2985433Y4063461D01*
X2979952D01*
X2977880Y4068461D01*
X3017210Y4107790D01*
X3019420Y4111098D01*
X3020196Y4115000D01*
Y4119803D01*
X3040590D01*
Y4119804D01*
X3062759D01*
X3065581Y4115581D01*
X3072196Y4111160D01*
X3080000Y4109608D01*
X3087804Y4111160D01*
X3094419Y4115581D01*
X3098840Y4122196D01*
X3100392Y4130000D01*
X3098840Y4137804D01*
X3094419Y4144419D01*
X3087804Y4148840D01*
X3080000Y4150392D01*
X3072196Y4148840D01*
X3065581Y4144419D01*
X3062759Y4140196D01*
X3040590D01*
Y4163268D01*
D02*
G37*
G36*
X4355000Y4071946D02*
Y4055000D01*
X4371946D01*
X4371194Y4058779D01*
X4366222Y4066222D01*
X4358779Y4071195D01*
X4355000Y4071946D01*
D02*
G37*
G36*
X4345000D02*
X4341221Y4071195D01*
X4333778Y4066222D01*
X4328806Y4058779D01*
X4328054Y4055000D01*
X4345000D01*
Y4071946D01*
D02*
G37*
G36*
X3755000D02*
Y4055000D01*
X3771946D01*
X3771195Y4058779D01*
X3766222Y4066222D01*
X3758779Y4071195D01*
X3755000Y4071946D01*
D02*
G37*
G36*
X3745000D02*
X3741221Y4071195D01*
X3733778Y4066222D01*
X3728805Y4058779D01*
X3728054Y4055000D01*
X3745000D01*
Y4071946D01*
D02*
G37*
G36*
X3605000D02*
Y4055000D01*
X3621946D01*
X3621195Y4058779D01*
X3616222Y4066222D01*
X3608779Y4071195D01*
X3605000Y4071946D01*
D02*
G37*
G36*
X3595000D02*
X3591221Y4071195D01*
X3583778Y4066222D01*
X3578805Y4058779D01*
X3578054Y4055000D01*
X3595000D01*
Y4071946D01*
D02*
G37*
G36*
X3455000D02*
Y4055000D01*
X3471946D01*
X3471195Y4058779D01*
X3466222Y4066222D01*
X3458779Y4071195D01*
X3455000Y4071946D01*
D02*
G37*
G36*
X3445000D02*
X3441221Y4071195D01*
X3433778Y4066222D01*
X3428805Y4058779D01*
X3428054Y4055000D01*
X3445000D01*
Y4071946D01*
D02*
G37*
G36*
X2555000D02*
Y4055000D01*
X2571946D01*
X2571195Y4058779D01*
X2566222Y4066222D01*
X2558779Y4071195D01*
X2555000Y4071946D01*
D02*
G37*
G36*
X2545000D02*
X2541221Y4071195D01*
X2533778Y4066222D01*
X2528805Y4058779D01*
X2528054Y4055000D01*
X2545000D01*
Y4071946D01*
D02*
G37*
G36*
X2405000D02*
Y4055000D01*
X2421946D01*
X2421195Y4058779D01*
X2416222Y4066222D01*
X2408779Y4071195D01*
X2405000Y4071946D01*
D02*
G37*
G36*
X2395000D02*
X2391221Y4071195D01*
X2383778Y4066222D01*
X2378805Y4058779D01*
X2378054Y4055000D01*
X2395000D01*
Y4071946D01*
D02*
G37*
G36*
X2571946Y4045000D02*
X2555000D01*
Y4028054D01*
X2558779Y4028805D01*
X2566222Y4033778D01*
X2571195Y4041221D01*
X2571946Y4045000D01*
D02*
G37*
G36*
X2545000D02*
X2528054D01*
X2528805Y4041221D01*
X2533778Y4033778D01*
X2541221Y4028805D01*
X2545000Y4028054D01*
Y4045000D01*
D02*
G37*
G36*
X2421946D02*
X2405000D01*
Y4028054D01*
X2408779Y4028805D01*
X2416222Y4033778D01*
X2421195Y4041221D01*
X2421946Y4045000D01*
D02*
G37*
G36*
X2395000D02*
X2378054D01*
X2378805Y4041221D01*
X2383778Y4033778D01*
X2391221Y4028805D01*
X2395000Y4028054D01*
Y4045000D01*
D02*
G37*
G36*
X4371946D02*
X4355000D01*
Y4028054D01*
X4358779Y4028805D01*
X4366222Y4033778D01*
X4371194Y4041221D01*
X4371946Y4045000D01*
D02*
G37*
G36*
X4345000D02*
X4328054D01*
X4328806Y4041221D01*
X4333778Y4033778D01*
X4341221Y4028805D01*
X4345000Y4028054D01*
Y4045000D01*
D02*
G37*
G36*
X3771946D02*
X3755000D01*
Y4028054D01*
X3758779Y4028805D01*
X3766222Y4033778D01*
X3771195Y4041221D01*
X3771946Y4045000D01*
D02*
G37*
G36*
X3745000D02*
X3728054D01*
X3728805Y4041221D01*
X3733778Y4033778D01*
X3741221Y4028805D01*
X3745000Y4028054D01*
Y4045000D01*
D02*
G37*
G36*
X3621946D02*
X3605000D01*
Y4028054D01*
X3608779Y4028805D01*
X3616222Y4033778D01*
X3621195Y4041221D01*
X3621946Y4045000D01*
D02*
G37*
G36*
X3595000D02*
X3578054D01*
X3578805Y4041221D01*
X3583778Y4033778D01*
X3591221Y4028805D01*
X3595000Y4028054D01*
Y4045000D01*
D02*
G37*
G36*
X3471946D02*
X3455000D01*
Y4028054D01*
X3458779Y4028805D01*
X3466222Y4033778D01*
X3471195Y4041221D01*
X3471946Y4045000D01*
D02*
G37*
G36*
X3445000D02*
X3428054D01*
X3428805Y4041221D01*
X3433778Y4033778D01*
X3441221Y4028805D01*
X3445000Y4028054D01*
Y4045000D01*
D02*
G37*
G36*
X2578780Y3933032D02*
X2560000D01*
Y3910315D01*
X2578780D01*
Y3933032D01*
D02*
G37*
G36*
X4430000Y3921946D02*
Y3905000D01*
X4446946D01*
X4446194Y3908779D01*
X4441222Y3916222D01*
X4433779Y3921195D01*
X4430000Y3921946D01*
D02*
G37*
G36*
X4420000D02*
X4416221Y3921195D01*
X4408778Y3916222D01*
X4403806Y3908779D01*
X4403054Y3905000D01*
X4420000D01*
Y3921946D01*
D02*
G37*
G36*
X4280000D02*
Y3905000D01*
X4296946D01*
X4296194Y3908779D01*
X4291222Y3916222D01*
X4283779Y3921195D01*
X4280000Y3921946D01*
D02*
G37*
G36*
X4270000D02*
X4266221Y3921195D01*
X4258778Y3916222D01*
X4253806Y3908779D01*
X4253054Y3905000D01*
X4270000D01*
Y3921946D01*
D02*
G37*
G36*
X4130000D02*
Y3905000D01*
X4146946D01*
X4146194Y3908779D01*
X4141222Y3916222D01*
X4133779Y3921195D01*
X4130000Y3921946D01*
D02*
G37*
G36*
X4120000D02*
X4116221Y3921195D01*
X4108778Y3916222D01*
X4103806Y3908779D01*
X4103054Y3905000D01*
X4120000D01*
Y3921946D01*
D02*
G37*
G36*
X3980000D02*
Y3905000D01*
X3996946D01*
X3996195Y3908779D01*
X3991222Y3916222D01*
X3983779Y3921195D01*
X3980000Y3921946D01*
D02*
G37*
G36*
X3970000D02*
X3966221Y3921195D01*
X3958778Y3916222D01*
X3953805Y3908779D01*
X3953054Y3905000D01*
X3970000D01*
Y3921946D01*
D02*
G37*
G36*
X3680000D02*
Y3905000D01*
X3696946D01*
X3696195Y3908779D01*
X3691222Y3916222D01*
X3683779Y3921195D01*
X3680000Y3921946D01*
D02*
G37*
G36*
X3670000D02*
X3666221Y3921195D01*
X3658778Y3916222D01*
X3653805Y3908779D01*
X3653054Y3905000D01*
X3670000D01*
Y3921946D01*
D02*
G37*
G36*
X3530000D02*
Y3905000D01*
X3546946D01*
X3546195Y3908779D01*
X3541222Y3916222D01*
X3533779Y3921195D01*
X3530000Y3921946D01*
D02*
G37*
G36*
X3520000D02*
X3516221Y3921195D01*
X3508778Y3916222D01*
X3503805Y3908779D01*
X3503054Y3905000D01*
X3520000D01*
Y3921946D01*
D02*
G37*
G36*
X2470000D02*
X2466221Y3921195D01*
X2458778Y3916222D01*
X2453805Y3908779D01*
X2453054Y3905000D01*
X2470000D01*
Y3921946D01*
D02*
G37*
G36*
X2330000D02*
Y3905000D01*
X2346946D01*
X2346195Y3908779D01*
X2341222Y3916222D01*
X2333779Y3921195D01*
X2330000Y3921946D01*
D02*
G37*
G36*
X2320000D02*
X2316221Y3921195D01*
X2308778Y3916222D01*
X2303805Y3908779D01*
X2303054Y3905000D01*
X2320000D01*
Y3921946D01*
D02*
G37*
G36*
X2180000D02*
Y3905000D01*
X2196946D01*
X2196195Y3908779D01*
X2191222Y3916222D01*
X2183779Y3921195D01*
X2180000Y3921946D01*
D02*
G37*
G36*
X2170000D02*
X2166221Y3921195D01*
X2158778Y3916222D01*
X2153805Y3908779D01*
X2153054Y3905000D01*
X2170000D01*
Y3921946D01*
D02*
G37*
G36*
X2030000D02*
Y3905000D01*
X2046946D01*
X2046195Y3908779D01*
X2041222Y3916222D01*
X2033779Y3921195D01*
X2030000Y3921946D01*
D02*
G37*
G36*
X2020000D02*
X2016221Y3921195D01*
X2008778Y3916222D01*
X2003805Y3908779D01*
X2003054Y3905000D01*
X2020000D01*
Y3921946D01*
D02*
G37*
G36*
X2880590Y4004803D02*
X2819410D01*
Y3993267D01*
X2753346D01*
X2749445Y3992491D01*
X2746137Y3990280D01*
X2671052Y3915196D01*
X2628898D01*
Y3928032D01*
X2591339D01*
Y3882599D01*
X2594804D01*
Y3872241D01*
X2590581Y3869419D01*
X2586160Y3862804D01*
X2584608Y3855000D01*
X2586160Y3847196D01*
X2590581Y3840581D01*
X2597196Y3836160D01*
X2605000Y3834608D01*
X2612804Y3836160D01*
X2619419Y3840581D01*
X2623840Y3847196D01*
X2625392Y3855000D01*
X2623840Y3862804D01*
X2619419Y3869419D01*
X2615196Y3872241D01*
Y3882599D01*
X2628898D01*
Y3894804D01*
X2675276D01*
X2679177Y3895580D01*
X2682485Y3897790D01*
X2757570Y3972875D01*
X2819410D01*
Y3961339D01*
X2839804D01*
Y3920197D01*
X2840580Y3916295D01*
X2842790Y3912987D01*
X2850727Y3905050D01*
X2850570Y3904003D01*
X2848511Y3900196D01*
X2813898D01*
Y3912716D01*
X2776339D01*
Y3867284D01*
X2813898D01*
Y3879804D01*
X2845777D01*
X2887515Y3838066D01*
X2890823Y3835856D01*
X2894724Y3835080D01*
X2934730D01*
X2936247Y3830080D01*
X2935523Y3829596D01*
X2932895Y3825663D01*
X2931972Y3821024D01*
X2932895Y3816385D01*
X2935523Y3812452D01*
X2935726Y3806686D01*
X2933202Y3804290D01*
X2894223D01*
X2866304Y3832210D01*
X2862996Y3834420D01*
X2859095Y3835196D01*
X2778780D01*
Y3847716D01*
X2741220D01*
Y3802284D01*
X2778780D01*
Y3814804D01*
X2854871D01*
X2882790Y3786885D01*
X2886098Y3784675D01*
X2890000Y3783899D01*
X2928713D01*
X2931230Y3778899D01*
X2931082Y3778700D01*
X2778898D01*
Y3792716D01*
X2741339D01*
Y3747284D01*
X2778898D01*
Y3758308D01*
X2934730D01*
X2936247Y3753308D01*
X2935523Y3752824D01*
X2932895Y3748891D01*
X2931972Y3744252D01*
X2932895Y3739613D01*
X2935523Y3735680D01*
X2935726Y3729914D01*
X2933202Y3727519D01*
X2698780D01*
Y3730590D01*
X2655315D01*
Y3669410D01*
X2698780D01*
Y3707127D01*
X2941138D01*
X2944095Y3706539D01*
X2985433D01*
X2990072Y3707462D01*
X2994005Y3710089D01*
X2996633Y3714022D01*
X2997556Y3718661D01*
X2996633Y3723300D01*
X2994005Y3727233D01*
X2991842Y3728679D01*
X2991824Y3728723D01*
Y3734191D01*
X2991842Y3734235D01*
X2994005Y3735680D01*
X2996633Y3739613D01*
X2997556Y3744252D01*
X2996633Y3748891D01*
X2994005Y3752824D01*
X2991842Y3754269D01*
X2991824Y3754313D01*
Y3759781D01*
X2991842Y3759825D01*
X2994005Y3761271D01*
X2996633Y3765203D01*
X2997556Y3769843D01*
X2996633Y3774482D01*
X2994005Y3778414D01*
X2991842Y3779860D01*
X2991824Y3779904D01*
Y3785372D01*
X2991842Y3785416D01*
X2994005Y3786861D01*
X2996633Y3790794D01*
X2997556Y3795433D01*
X2996633Y3800072D01*
X2994005Y3804005D01*
X2991842Y3805450D01*
X2991824Y3805494D01*
Y3810962D01*
X2991842Y3811006D01*
X2994005Y3812452D01*
X2996633Y3816385D01*
X2997556Y3821024D01*
X2996633Y3825663D01*
X2994005Y3829596D01*
X2991842Y3831041D01*
X2991824Y3831085D01*
Y3836553D01*
X2991842Y3836597D01*
X2994005Y3838042D01*
X2996633Y3841975D01*
X2997556Y3846614D01*
X2996633Y3851253D01*
X2994005Y3855186D01*
Y3857619D01*
X2997610Y3860028D01*
X3001343Y3865615D01*
X3001659Y3867205D01*
X2964764D01*
Y3877205D01*
X3001659D01*
X3001343Y3878795D01*
X2997610Y3884381D01*
X2994005Y3886790D01*
Y3889223D01*
X2996633Y3893156D01*
X2997556Y3897795D01*
X2996633Y3902434D01*
X2994005Y3906367D01*
X2991842Y3907813D01*
X2991824Y3907856D01*
Y3913325D01*
X2991842Y3913368D01*
X2994005Y3914814D01*
X2996633Y3918747D01*
X2997556Y3923386D01*
X2996633Y3928025D01*
X2994005Y3931958D01*
X2991842Y3933403D01*
X2991824Y3933447D01*
Y3938915D01*
X2991842Y3938959D01*
X2994005Y3940404D01*
X2996633Y3944337D01*
X2997556Y3948976D01*
X2996633Y3953615D01*
X2994005Y3957548D01*
Y3959981D01*
X2997610Y3962390D01*
X3001343Y3967977D01*
X3001659Y3969567D01*
X2964764D01*
Y3979567D01*
X3001659D01*
X3001343Y3981157D01*
X2999816Y3983441D01*
X2997911Y3987362D01*
X2999816Y3991283D01*
X3001343Y3993568D01*
X3001659Y3995158D01*
X2964764D01*
X2927868D01*
X2928185Y3993568D01*
X2929711Y3991283D01*
X2931617Y3987362D01*
X2929711Y3983441D01*
X2928728Y3981970D01*
X2927091Y3981001D01*
X2922938Y3980409D01*
X2917804Y3983840D01*
X2910000Y3985392D01*
X2902196Y3983840D01*
X2895581Y3979419D01*
X2891160Y3972804D01*
X2889608Y3965000D01*
X2891160Y3957196D01*
X2895581Y3950581D01*
X2902196Y3946160D01*
X2910000Y3944608D01*
X2914982Y3945599D01*
X2918814Y3941767D01*
X2922122Y3939557D01*
X2926024Y3938780D01*
X2933880D01*
X2935158Y3937243D01*
X2932813Y3932243D01*
X2912241D01*
X2909419Y3936466D01*
X2902804Y3940887D01*
X2895000Y3942439D01*
X2887196Y3940887D01*
X2880581Y3936466D01*
X2876160Y3929851D01*
X2874608Y3922047D01*
X2875842Y3915845D01*
X2871234Y3913382D01*
X2860196Y3924420D01*
Y3961339D01*
X2880590D01*
Y4004803D01*
D02*
G37*
G36*
X2763780Y3917716D02*
X2745000D01*
Y3895000D01*
X2763780D01*
Y3917716D01*
D02*
G37*
G36*
X2735000D02*
X2716220D01*
Y3895000D01*
X2735000D01*
Y3917716D01*
D02*
G37*
G36*
X3132244Y4016457D02*
X3080000D01*
Y3890000D01*
X3132244D01*
Y4016457D01*
D02*
G37*
G36*
X3070000D02*
X3017756D01*
Y3890000D01*
X3070000D01*
Y4016457D01*
D02*
G37*
G36*
X4446946Y3895000D02*
X4430000D01*
Y3878054D01*
X4433779Y3878805D01*
X4441222Y3883778D01*
X4446194Y3891221D01*
X4446946Y3895000D01*
D02*
G37*
G36*
X4420000D02*
X4403054D01*
X4403806Y3891221D01*
X4408778Y3883778D01*
X4416221Y3878805D01*
X4420000Y3878054D01*
Y3895000D01*
D02*
G37*
G36*
X4296946D02*
X4280000D01*
Y3878054D01*
X4283779Y3878805D01*
X4291222Y3883778D01*
X4296194Y3891221D01*
X4296946Y3895000D01*
D02*
G37*
G36*
X4270000D02*
X4253054D01*
X4253806Y3891221D01*
X4258778Y3883778D01*
X4266221Y3878805D01*
X4270000Y3878054D01*
Y3895000D01*
D02*
G37*
G36*
X4146946D02*
X4130000D01*
Y3878054D01*
X4133779Y3878805D01*
X4141222Y3883778D01*
X4146194Y3891221D01*
X4146946Y3895000D01*
D02*
G37*
G36*
X4120000D02*
X4103054D01*
X4103806Y3891221D01*
X4108778Y3883778D01*
X4116221Y3878805D01*
X4120000Y3878054D01*
Y3895000D01*
D02*
G37*
G36*
X3996946D02*
X3980000D01*
Y3878054D01*
X3983779Y3878805D01*
X3991222Y3883778D01*
X3996195Y3891221D01*
X3996946Y3895000D01*
D02*
G37*
G36*
X3970000D02*
X3953054D01*
X3953805Y3891221D01*
X3958778Y3883778D01*
X3966221Y3878805D01*
X3970000Y3878054D01*
Y3895000D01*
D02*
G37*
G36*
X3696946D02*
X3680000D01*
Y3878054D01*
X3683779Y3878805D01*
X3691222Y3883778D01*
X3696195Y3891221D01*
X3696946Y3895000D01*
D02*
G37*
G36*
X3670000D02*
X3653054D01*
X3653805Y3891221D01*
X3658778Y3883778D01*
X3666221Y3878805D01*
X3670000Y3878054D01*
Y3895000D01*
D02*
G37*
G36*
X3546946D02*
X3530000D01*
Y3878054D01*
X3533779Y3878805D01*
X3541222Y3883778D01*
X3546195Y3891221D01*
X3546946Y3895000D01*
D02*
G37*
G36*
X3520000D02*
X3503054D01*
X3503805Y3891221D01*
X3508778Y3883778D01*
X3516221Y3878805D01*
X3520000Y3878054D01*
Y3895000D01*
D02*
G37*
G36*
X2470000D02*
X2453054D01*
X2453805Y3891221D01*
X2458778Y3883778D01*
X2466221Y3878805D01*
X2470000Y3878054D01*
Y3895000D01*
D02*
G37*
G36*
X2346946D02*
X2330000D01*
Y3878054D01*
X2333779Y3878805D01*
X2341222Y3883778D01*
X2346195Y3891221D01*
X2346946Y3895000D01*
D02*
G37*
G36*
X2320000D02*
X2303054D01*
X2303805Y3891221D01*
X2308778Y3883778D01*
X2316221Y3878805D01*
X2320000Y3878054D01*
Y3895000D01*
D02*
G37*
G36*
X2196946D02*
X2180000D01*
Y3878054D01*
X2183779Y3878805D01*
X2191222Y3883778D01*
X2196195Y3891221D01*
X2196946Y3895000D01*
D02*
G37*
G36*
X2170000D02*
X2153054D01*
X2153805Y3891221D01*
X2158778Y3883778D01*
X2166221Y3878805D01*
X2170000Y3878054D01*
Y3895000D01*
D02*
G37*
G36*
X2046946D02*
X2030000D01*
Y3878054D01*
X2033779Y3878805D01*
X2041222Y3883778D01*
X2046195Y3891221D01*
X2046946Y3895000D01*
D02*
G37*
G36*
X2020000D02*
X2003054D01*
X2003805Y3891221D01*
X2008778Y3883778D01*
X2016221Y3878805D01*
X2020000Y3878054D01*
Y3895000D01*
D02*
G37*
G36*
X2578780Y3900315D02*
X2560000D01*
Y3877599D01*
X2578780D01*
Y3900315D01*
D02*
G37*
G36*
X2550000D02*
X2531220D01*
Y3877599D01*
X2550000D01*
Y3900315D01*
D02*
G37*
G36*
X2763780Y3885000D02*
X2745000D01*
Y3862284D01*
X2763780D01*
Y3885000D01*
D02*
G37*
G36*
X2735000D02*
X2716220D01*
Y3862284D01*
X2735000D01*
Y3885000D01*
D02*
G37*
G36*
X2728661Y3852716D02*
X2709882D01*
Y3830000D01*
X2728661D01*
Y3852716D01*
D02*
G37*
G36*
X2699882D02*
X2681102D01*
Y3830000D01*
X2699882D01*
Y3852716D01*
D02*
G37*
G36*
X4505000Y3771946D02*
Y3755000D01*
X4521946D01*
X4521194Y3758779D01*
X4516222Y3766222D01*
X4508779Y3771195D01*
X4505000Y3771946D01*
D02*
G37*
G36*
X4495000D02*
X4491221Y3771195D01*
X4483778Y3766222D01*
X4478806Y3758779D01*
X4478054Y3755000D01*
X4495000D01*
Y3771946D01*
D02*
G37*
G36*
X4355000D02*
Y3755000D01*
X4371946D01*
X4371194Y3758779D01*
X4366222Y3766222D01*
X4358779Y3771195D01*
X4355000Y3771946D01*
D02*
G37*
G36*
X4345000D02*
X4341221Y3771195D01*
X4333778Y3766222D01*
X4328806Y3758779D01*
X4328054Y3755000D01*
X4345000D01*
Y3771946D01*
D02*
G37*
G36*
X4205000D02*
Y3755000D01*
X4221946D01*
X4221194Y3758779D01*
X4216222Y3766222D01*
X4208779Y3771195D01*
X4205000Y3771946D01*
D02*
G37*
G36*
X4195000D02*
X4191221Y3771195D01*
X4183778Y3766222D01*
X4178806Y3758779D01*
X4178054Y3755000D01*
X4195000D01*
Y3771946D01*
D02*
G37*
G36*
X4055000D02*
Y3755000D01*
X4071946D01*
X4071195Y3758779D01*
X4066222Y3766222D01*
X4058779Y3771195D01*
X4055000Y3771946D01*
D02*
G37*
G36*
X4045000D02*
X4041221Y3771195D01*
X4033778Y3766222D01*
X4028805Y3758779D01*
X4028054Y3755000D01*
X4045000D01*
Y3771946D01*
D02*
G37*
G36*
X2395000D02*
X2391221Y3771195D01*
X2383778Y3766222D01*
X2378805Y3758779D01*
X2378054Y3755000D01*
X2395000D01*
Y3771946D01*
D02*
G37*
G36*
X2255000D02*
Y3755000D01*
X2271946D01*
X2271195Y3758779D01*
X2266222Y3766222D01*
X2258779Y3771195D01*
X2255000Y3771946D01*
D02*
G37*
G36*
X2245000D02*
X2241221Y3771195D01*
X2233778Y3766222D01*
X2228805Y3758779D01*
X2228054Y3755000D01*
X2245000D01*
Y3771946D01*
D02*
G37*
G36*
X2105000D02*
Y3755000D01*
X2121946D01*
X2121195Y3758779D01*
X2116222Y3766222D01*
X2108779Y3771195D01*
X2105000Y3771946D01*
D02*
G37*
G36*
X2095000D02*
X2091221Y3771195D01*
X2083778Y3766222D01*
X2078805Y3758779D01*
X2078054Y3755000D01*
X2095000D01*
Y3771946D01*
D02*
G37*
G36*
X1955000D02*
Y3755000D01*
X1971946D01*
X1971195Y3758779D01*
X1966222Y3766222D01*
X1958779Y3771195D01*
X1955000Y3771946D01*
D02*
G37*
G36*
X1945000D02*
X1941221Y3771195D01*
X1933778Y3766222D01*
X1928805Y3758779D01*
X1928054Y3755000D01*
X1945000D01*
Y3771946D01*
D02*
G37*
G36*
X3132244Y3880000D02*
X3080000D01*
Y3753543D01*
X3132244D01*
Y3880000D01*
D02*
G37*
G36*
X3070000D02*
X3017756D01*
Y3753543D01*
X3070000D01*
Y3880000D01*
D02*
G37*
G36*
X4521946Y3745000D02*
X4505000D01*
Y3728054D01*
X4508779Y3728805D01*
X4516222Y3733778D01*
X4521194Y3741221D01*
X4521946Y3745000D01*
D02*
G37*
G36*
X4495000D02*
X4478054D01*
X4478806Y3741221D01*
X4483778Y3733778D01*
X4491221Y3728805D01*
X4495000Y3728054D01*
Y3745000D01*
D02*
G37*
G36*
X4371946D02*
X4355000D01*
Y3728054D01*
X4358779Y3728805D01*
X4366222Y3733778D01*
X4371194Y3741221D01*
X4371946Y3745000D01*
D02*
G37*
G36*
X4345000D02*
X4328054D01*
X4328806Y3741221D01*
X4333778Y3733778D01*
X4341221Y3728805D01*
X4345000Y3728054D01*
Y3745000D01*
D02*
G37*
G36*
X4221946D02*
X4205000D01*
Y3728054D01*
X4208779Y3728805D01*
X4216222Y3733778D01*
X4221194Y3741221D01*
X4221946Y3745000D01*
D02*
G37*
G36*
X4195000D02*
X4178054D01*
X4178806Y3741221D01*
X4183778Y3733778D01*
X4191221Y3728805D01*
X4195000Y3728054D01*
Y3745000D01*
D02*
G37*
G36*
X4071946D02*
X4055000D01*
Y3728054D01*
X4058779Y3728805D01*
X4066222Y3733778D01*
X4071195Y3741221D01*
X4071946Y3745000D01*
D02*
G37*
G36*
X4045000D02*
X4028054D01*
X4028805Y3741221D01*
X4033778Y3733778D01*
X4041221Y3728805D01*
X4045000Y3728054D01*
Y3745000D01*
D02*
G37*
G36*
X3895000D02*
X3878054D01*
X3878805Y3741221D01*
X3883778Y3733778D01*
X3891221Y3728805D01*
X3895000Y3728054D01*
Y3745000D01*
D02*
G37*
G36*
X3745000D02*
X3728054D01*
X3728805Y3741221D01*
X3733778Y3733778D01*
X3741221Y3728805D01*
X3745000Y3728054D01*
Y3745000D01*
D02*
G37*
G36*
X2395000D02*
X2378054D01*
X2378805Y3741221D01*
X2383778Y3733778D01*
X2391221Y3728805D01*
X2395000Y3728054D01*
Y3745000D01*
D02*
G37*
G36*
X2271946D02*
X2255000D01*
Y3728054D01*
X2258779Y3728805D01*
X2266222Y3733778D01*
X2271195Y3741221D01*
X2271946Y3745000D01*
D02*
G37*
G36*
X2245000D02*
X2228054D01*
X2228805Y3741221D01*
X2233778Y3733778D01*
X2241221Y3728805D01*
X2245000Y3728054D01*
Y3745000D01*
D02*
G37*
G36*
X2121946D02*
X2105000D01*
Y3728054D01*
X2108779Y3728805D01*
X2116222Y3733778D01*
X2121195Y3741221D01*
X2121946Y3745000D01*
D02*
G37*
G36*
X2095000D02*
X2078054D01*
X2078805Y3741221D01*
X2083778Y3733778D01*
X2091221Y3728805D01*
X2095000Y3728054D01*
Y3745000D01*
D02*
G37*
G36*
X1971946D02*
X1955000D01*
Y3728054D01*
X1958779Y3728805D01*
X1966222Y3733778D01*
X1971195Y3741221D01*
X1971946Y3745000D01*
D02*
G37*
G36*
X1945000D02*
X1928054D01*
X1928805Y3741221D01*
X1933778Y3733778D01*
X1941221Y3728805D01*
X1945000Y3728054D01*
Y3745000D01*
D02*
G37*
G36*
X2631850Y3730590D02*
X2588386D01*
Y3710196D01*
X2572241D01*
X2569419Y3714419D01*
X2562804Y3718840D01*
X2555000Y3720392D01*
X2547196Y3718840D01*
X2540581Y3714419D01*
X2536160Y3707804D01*
X2534608Y3700000D01*
X2536160Y3692196D01*
X2540581Y3685581D01*
X2547196Y3681160D01*
X2555000Y3679608D01*
X2562804Y3681160D01*
X2569419Y3685581D01*
X2572241Y3689804D01*
X2588386D01*
Y3669410D01*
X2631850D01*
Y3730590D01*
D02*
G37*
G36*
X4580000Y3621946D02*
Y3605000D01*
X4596946D01*
X4596194Y3608779D01*
X4591222Y3616222D01*
X4583779Y3621195D01*
X4580000Y3621946D01*
D02*
G37*
G36*
X4570000D02*
X4566221Y3621195D01*
X4558778Y3616222D01*
X4553806Y3608779D01*
X4553054Y3605000D01*
X4570000D01*
Y3621946D01*
D02*
G37*
G36*
X4430000D02*
Y3605000D01*
X4446946D01*
X4446194Y3608779D01*
X4441222Y3616222D01*
X4433779Y3621195D01*
X4430000Y3621946D01*
D02*
G37*
G36*
X4420000D02*
X4416221Y3621195D01*
X4408778Y3616222D01*
X4403806Y3608779D01*
X4403054Y3605000D01*
X4420000D01*
Y3621946D01*
D02*
G37*
G36*
X4280000D02*
Y3605000D01*
X4296946D01*
X4296194Y3608779D01*
X4291222Y3616222D01*
X4283779Y3621195D01*
X4280000Y3621946D01*
D02*
G37*
G36*
X4270000D02*
X4266221Y3621195D01*
X4258778Y3616222D01*
X4253806Y3608779D01*
X4253054Y3605000D01*
X4270000D01*
Y3621946D01*
D02*
G37*
G36*
X3830000D02*
Y3605000D01*
X3846946D01*
X3846195Y3608779D01*
X3841222Y3616222D01*
X3833779Y3621195D01*
X3830000Y3621946D01*
D02*
G37*
G36*
X3820000D02*
X3816221Y3621195D01*
X3808778Y3616222D01*
X3803805Y3608779D01*
X3803054Y3605000D01*
X3820000D01*
Y3621946D01*
D02*
G37*
G36*
X3680000D02*
Y3605000D01*
X3696946D01*
X3696195Y3608779D01*
X3691222Y3616222D01*
X3683779Y3621195D01*
X3680000Y3621946D01*
D02*
G37*
G36*
X3670000D02*
X3666221Y3621195D01*
X3658778Y3616222D01*
X3653805Y3608779D01*
X3653054Y3605000D01*
X3670000D01*
Y3621946D01*
D02*
G37*
G36*
X3530000D02*
Y3605000D01*
X3546946D01*
X3546195Y3608779D01*
X3541222Y3616222D01*
X3533779Y3621195D01*
X3530000Y3621946D01*
D02*
G37*
G36*
X3520000D02*
X3516221Y3621195D01*
X3508778Y3616222D01*
X3503805Y3608779D01*
X3503054Y3605000D01*
X3520000D01*
Y3621946D01*
D02*
G37*
G36*
X3380000D02*
Y3605000D01*
X3396946D01*
X3396195Y3608779D01*
X3391222Y3616222D01*
X3383779Y3621195D01*
X3380000Y3621946D01*
D02*
G37*
G36*
X3370000D02*
X3366221Y3621195D01*
X3358778Y3616222D01*
X3353805Y3608779D01*
X3353054Y3605000D01*
X3370000D01*
Y3621946D01*
D02*
G37*
G36*
X2930000D02*
Y3605000D01*
X2946946D01*
X2946195Y3608779D01*
X2941222Y3616222D01*
X2933779Y3621195D01*
X2930000Y3621946D01*
D02*
G37*
G36*
X2920000D02*
X2916221Y3621195D01*
X2908778Y3616222D01*
X2903805Y3608779D01*
X2903054Y3605000D01*
X2920000D01*
Y3621946D01*
D02*
G37*
G36*
X2780000D02*
Y3605000D01*
X2796946D01*
X2796195Y3608779D01*
X2791222Y3616222D01*
X2783779Y3621195D01*
X2780000Y3621946D01*
D02*
G37*
G36*
X2770000D02*
X2766221Y3621195D01*
X2758778Y3616222D01*
X2753805Y3608779D01*
X2753054Y3605000D01*
X2770000D01*
Y3621946D01*
D02*
G37*
G36*
X2630000D02*
Y3605000D01*
X2646946D01*
X2646195Y3608779D01*
X2641222Y3616222D01*
X2633779Y3621195D01*
X2630000Y3621946D01*
D02*
G37*
G36*
X2620000D02*
X2616221Y3621195D01*
X2608778Y3616222D01*
X2603805Y3608779D01*
X2603054Y3605000D01*
X2620000D01*
Y3621946D01*
D02*
G37*
G36*
X2480000D02*
Y3605000D01*
X2496946D01*
X2496195Y3608779D01*
X2491222Y3616222D01*
X2483779Y3621195D01*
X2480000Y3621946D01*
D02*
G37*
G36*
X2470000D02*
X2466221Y3621195D01*
X2458778Y3616222D01*
X2453805Y3608779D01*
X2453054Y3605000D01*
X2470000D01*
Y3621946D01*
D02*
G37*
G36*
X2330000D02*
Y3605000D01*
X2346946D01*
X2346195Y3608779D01*
X2341222Y3616222D01*
X2333779Y3621195D01*
X2330000Y3621946D01*
D02*
G37*
G36*
X2320000D02*
X2316221Y3621195D01*
X2308778Y3616222D01*
X2303805Y3608779D01*
X2303054Y3605000D01*
X2320000D01*
Y3621946D01*
D02*
G37*
G36*
X2180000D02*
Y3605000D01*
X2196946D01*
X2196195Y3608779D01*
X2191222Y3616222D01*
X2183779Y3621195D01*
X2180000Y3621946D01*
D02*
G37*
G36*
X2170000D02*
X2166221Y3621195D01*
X2158778Y3616222D01*
X2153805Y3608779D01*
X2153054Y3605000D01*
X2170000D01*
Y3621946D01*
D02*
G37*
G36*
X2030000D02*
Y3605000D01*
X2046946D01*
X2046195Y3608779D01*
X2041222Y3616222D01*
X2033779Y3621195D01*
X2030000Y3621946D01*
D02*
G37*
G36*
X2020000D02*
X2016221Y3621195D01*
X2008778Y3616222D01*
X2003805Y3608779D01*
X2003054Y3605000D01*
X2020000D01*
Y3621946D01*
D02*
G37*
G36*
X1880000D02*
Y3605000D01*
X1896946D01*
X1896195Y3608779D01*
X1891222Y3616222D01*
X1883779Y3621195D01*
X1880000Y3621946D01*
D02*
G37*
G36*
X1870000D02*
X1866221Y3621195D01*
X1858778Y3616222D01*
X1853805Y3608779D01*
X1853054Y3605000D01*
X1870000D01*
Y3621946D01*
D02*
G37*
G36*
X4596946Y3595000D02*
X4580000D01*
Y3578054D01*
X4583779Y3578805D01*
X4591222Y3583778D01*
X4596194Y3591221D01*
X4596946Y3595000D01*
D02*
G37*
G36*
X4570000D02*
X4553054D01*
X4553806Y3591221D01*
X4558778Y3583778D01*
X4566221Y3578805D01*
X4570000Y3578054D01*
Y3595000D01*
D02*
G37*
G36*
X4446946D02*
X4430000D01*
Y3578054D01*
X4433779Y3578805D01*
X4441222Y3583778D01*
X4446194Y3591221D01*
X4446946Y3595000D01*
D02*
G37*
G36*
X4420000D02*
X4403054D01*
X4403806Y3591221D01*
X4408778Y3583778D01*
X4416221Y3578805D01*
X4420000Y3578054D01*
Y3595000D01*
D02*
G37*
G36*
X4296946D02*
X4280000D01*
Y3578054D01*
X4283779Y3578805D01*
X4291222Y3583778D01*
X4296194Y3591221D01*
X4296946Y3595000D01*
D02*
G37*
G36*
X4270000D02*
X4253054D01*
X4253806Y3591221D01*
X4258778Y3583778D01*
X4266221Y3578805D01*
X4270000Y3578054D01*
Y3595000D01*
D02*
G37*
G36*
X3846946D02*
X3830000D01*
Y3578054D01*
X3833779Y3578805D01*
X3841222Y3583778D01*
X3846195Y3591221D01*
X3846946Y3595000D01*
D02*
G37*
G36*
X3820000D02*
X3803054D01*
X3803805Y3591221D01*
X3808778Y3583778D01*
X3816221Y3578805D01*
X3820000Y3578054D01*
Y3595000D01*
D02*
G37*
G36*
X3696946D02*
X3680000D01*
Y3578054D01*
X3683779Y3578805D01*
X3691222Y3583778D01*
X3696195Y3591221D01*
X3696946Y3595000D01*
D02*
G37*
G36*
X3670000D02*
X3653054D01*
X3653805Y3591221D01*
X3658778Y3583778D01*
X3666221Y3578805D01*
X3670000Y3578054D01*
Y3595000D01*
D02*
G37*
G36*
X3546946D02*
X3530000D01*
Y3578054D01*
X3533779Y3578805D01*
X3541222Y3583778D01*
X3546195Y3591221D01*
X3546946Y3595000D01*
D02*
G37*
G36*
X3520000D02*
X3503054D01*
X3503805Y3591221D01*
X3508778Y3583778D01*
X3516221Y3578805D01*
X3520000Y3578054D01*
Y3595000D01*
D02*
G37*
G36*
X3396946D02*
X3380000D01*
Y3578054D01*
X3383779Y3578805D01*
X3391222Y3583778D01*
X3396195Y3591221D01*
X3396946Y3595000D01*
D02*
G37*
G36*
X3370000D02*
X3353054D01*
X3353805Y3591221D01*
X3358778Y3583778D01*
X3366221Y3578805D01*
X3370000Y3578054D01*
Y3595000D01*
D02*
G37*
G36*
X2946946D02*
X2930000D01*
Y3578054D01*
X2933779Y3578805D01*
X2941222Y3583778D01*
X2946195Y3591221D01*
X2946946Y3595000D01*
D02*
G37*
G36*
X2920000D02*
X2903054D01*
X2903805Y3591221D01*
X2908778Y3583778D01*
X2916221Y3578805D01*
X2920000Y3578054D01*
Y3595000D01*
D02*
G37*
G36*
X2796946D02*
X2780000D01*
Y3578054D01*
X2783779Y3578805D01*
X2791222Y3583778D01*
X2796195Y3591221D01*
X2796946Y3595000D01*
D02*
G37*
G36*
X2770000D02*
X2753054D01*
X2753805Y3591221D01*
X2758778Y3583778D01*
X2766221Y3578805D01*
X2770000Y3578054D01*
Y3595000D01*
D02*
G37*
G36*
X2646946D02*
X2630000D01*
Y3578054D01*
X2633779Y3578805D01*
X2641222Y3583778D01*
X2646195Y3591221D01*
X2646946Y3595000D01*
D02*
G37*
G36*
X2620000D02*
X2603054D01*
X2603805Y3591221D01*
X2608778Y3583778D01*
X2616221Y3578805D01*
X2620000Y3578054D01*
Y3595000D01*
D02*
G37*
G36*
X2496946D02*
X2480000D01*
Y3578054D01*
X2483779Y3578805D01*
X2491222Y3583778D01*
X2496195Y3591221D01*
X2496946Y3595000D01*
D02*
G37*
G36*
X2470000D02*
X2453054D01*
X2453805Y3591221D01*
X2458778Y3583778D01*
X2466221Y3578805D01*
X2470000Y3578054D01*
Y3595000D01*
D02*
G37*
G36*
X2346946D02*
X2330000D01*
Y3578054D01*
X2333779Y3578805D01*
X2341222Y3583778D01*
X2346195Y3591221D01*
X2346946Y3595000D01*
D02*
G37*
G36*
X2320000D02*
X2303054D01*
X2303805Y3591221D01*
X2308778Y3583778D01*
X2316221Y3578805D01*
X2320000Y3578054D01*
Y3595000D01*
D02*
G37*
G36*
X2196946D02*
X2180000D01*
Y3578054D01*
X2183779Y3578805D01*
X2191222Y3583778D01*
X2196195Y3591221D01*
X2196946Y3595000D01*
D02*
G37*
G36*
X2170000D02*
X2153054D01*
X2153805Y3591221D01*
X2158778Y3583778D01*
X2166221Y3578805D01*
X2170000Y3578054D01*
Y3595000D01*
D02*
G37*
G36*
X2046946D02*
X2030000D01*
Y3578054D01*
X2033779Y3578805D01*
X2041222Y3583778D01*
X2046195Y3591221D01*
X2046946Y3595000D01*
D02*
G37*
G36*
X2020000D02*
X2003054D01*
X2003805Y3591221D01*
X2008778Y3583778D01*
X2016221Y3578805D01*
X2020000Y3578054D01*
Y3595000D01*
D02*
G37*
G36*
X1896946D02*
X1880000D01*
Y3578054D01*
X1883779Y3578805D01*
X1891222Y3583778D01*
X1896195Y3591221D01*
X1896946Y3595000D01*
D02*
G37*
G36*
X1870000D02*
X1853054D01*
X1853805Y3591221D01*
X1858778Y3583778D01*
X1866221Y3578805D01*
X1870000Y3578054D01*
Y3595000D01*
D02*
G37*
G36*
X3196496Y3550709D02*
Y3527008D01*
X3228071D01*
Y3550709D01*
X3196496D01*
D02*
G37*
G36*
X3111496D02*
X3079921D01*
Y3527008D01*
X3111496D01*
Y3550709D01*
D02*
G37*
G36*
X3228071Y3517008D02*
X3196496D01*
Y3493307D01*
X3228071D01*
Y3517008D01*
D02*
G37*
G36*
X3111496D02*
X3079921D01*
Y3493307D01*
X3111496D01*
Y3517008D01*
D02*
G37*
G36*
X3154921Y3550709D02*
X3149921Y3550709D01*
X3121496D01*
Y3522008D01*
Y3493307D01*
X3149921D01*
X3153071Y3493307D01*
X3158071Y3493307D01*
X3186496D01*
Y3522008D01*
Y3550709D01*
X3158071D01*
X3154921Y3550709D01*
D02*
G37*
G36*
X2638425Y3518386D02*
X2564528D01*
Y3475000D01*
X2638425D01*
Y3518386D01*
D02*
G37*
G36*
X2554528D02*
X2480630D01*
Y3475000D01*
X2554528D01*
Y3518386D01*
D02*
G37*
G36*
X4355000Y3471946D02*
Y3455000D01*
X4371946D01*
X4371194Y3458779D01*
X4366222Y3466222D01*
X4358779Y3471195D01*
X4355000Y3471946D01*
D02*
G37*
G36*
X4345000D02*
X4341221Y3471195D01*
X4333778Y3466222D01*
X4328806Y3458779D01*
X4328054Y3455000D01*
X4345000D01*
Y3471946D01*
D02*
G37*
G36*
X3905000D02*
Y3455000D01*
X3921946D01*
X3921195Y3458779D01*
X3916222Y3466222D01*
X3908779Y3471195D01*
X3905000Y3471946D01*
D02*
G37*
G36*
X3895000D02*
X3891221Y3471195D01*
X3883778Y3466222D01*
X3878805Y3458779D01*
X3878054Y3455000D01*
X3895000D01*
Y3471946D01*
D02*
G37*
G36*
X3755000D02*
Y3455000D01*
X3771946D01*
X3771195Y3458779D01*
X3766222Y3466222D01*
X3758779Y3471195D01*
X3755000Y3471946D01*
D02*
G37*
G36*
X3745000D02*
X3741221Y3471195D01*
X3733778Y3466222D01*
X3728805Y3458779D01*
X3728054Y3455000D01*
X3745000D01*
Y3471946D01*
D02*
G37*
G36*
X3605000D02*
Y3455000D01*
X3621946D01*
X3621195Y3458779D01*
X3616222Y3466222D01*
X3608779Y3471195D01*
X3605000Y3471946D01*
D02*
G37*
G36*
X3595000D02*
X3591221Y3471195D01*
X3583778Y3466222D01*
X3578805Y3458779D01*
X3578054Y3455000D01*
X3595000D01*
Y3471946D01*
D02*
G37*
G36*
X3455000D02*
Y3455000D01*
X3471946D01*
X3471195Y3458779D01*
X3466222Y3466222D01*
X3458779Y3471195D01*
X3455000Y3471946D01*
D02*
G37*
G36*
X3445000D02*
X3441221Y3471195D01*
X3433778Y3466222D01*
X3428805Y3458779D01*
X3428054Y3455000D01*
X3445000D01*
Y3471946D01*
D02*
G37*
G36*
X3305000D02*
Y3455000D01*
X3321946D01*
X3321195Y3458779D01*
X3316222Y3466222D01*
X3308779Y3471195D01*
X3305000Y3471946D01*
D02*
G37*
G36*
X3295000D02*
X3291221Y3471195D01*
X3283778Y3466222D01*
X3278805Y3458779D01*
X3278054Y3455000D01*
X3295000D01*
Y3471946D01*
D02*
G37*
G36*
X3155000D02*
Y3455000D01*
X3171946D01*
X3171195Y3458779D01*
X3166222Y3466222D01*
X3158779Y3471195D01*
X3155000Y3471946D01*
D02*
G37*
G36*
X3145000D02*
X3141221Y3471195D01*
X3133778Y3466222D01*
X3128805Y3458779D01*
X3128054Y3455000D01*
X3145000D01*
Y3471946D01*
D02*
G37*
G36*
X3005000D02*
Y3455000D01*
X3021946D01*
X3021195Y3458779D01*
X3016222Y3466222D01*
X3008779Y3471195D01*
X3005000Y3471946D01*
D02*
G37*
G36*
X2995000D02*
X2991221Y3471195D01*
X2983778Y3466222D01*
X2978805Y3458779D01*
X2978054Y3455000D01*
X2995000D01*
Y3471946D01*
D02*
G37*
G36*
X2705000D02*
Y3455000D01*
X2721946D01*
X2721195Y3458779D01*
X2716222Y3466222D01*
X2708779Y3471195D01*
X2705000Y3471946D01*
D02*
G37*
G36*
X2695000D02*
X2691221Y3471195D01*
X2683778Y3466222D01*
X2678805Y3458779D01*
X2678054Y3455000D01*
X2695000D01*
Y3471946D01*
D02*
G37*
G36*
X2395000D02*
X2391221Y3471195D01*
X2383778Y3466222D01*
X2378805Y3458779D01*
X2378054Y3455000D01*
X2395000D01*
Y3471946D01*
D02*
G37*
G36*
X2255000D02*
Y3455000D01*
X2271946D01*
X2271195Y3458779D01*
X2266222Y3466222D01*
X2258779Y3471195D01*
X2255000Y3471946D01*
D02*
G37*
G36*
X2245000D02*
X2241221Y3471195D01*
X2233778Y3466222D01*
X2228805Y3458779D01*
X2228054Y3455000D01*
X2245000D01*
Y3471946D01*
D02*
G37*
G36*
X2105000D02*
Y3455000D01*
X2121946D01*
X2121195Y3458779D01*
X2116222Y3466222D01*
X2108779Y3471195D01*
X2105000Y3471946D01*
D02*
G37*
G36*
X2095000D02*
X2091221Y3471195D01*
X2083778Y3466222D01*
X2078805Y3458779D01*
X2078054Y3455000D01*
X2095000D01*
Y3471946D01*
D02*
G37*
G36*
X1955000D02*
Y3455000D01*
X1971946D01*
X1971195Y3458779D01*
X1966222Y3466222D01*
X1958779Y3471195D01*
X1955000Y3471946D01*
D02*
G37*
G36*
X1945000D02*
X1941221Y3471195D01*
X1933778Y3466222D01*
X1928805Y3458779D01*
X1928054Y3455000D01*
X1945000D01*
Y3471946D01*
D02*
G37*
G36*
X3688583Y4013662D02*
X3627992D01*
Y3945787D01*
X3688583D01*
Y3964431D01*
X3703941D01*
X3892427Y3775945D01*
X3890552Y3770748D01*
X3883778Y3766222D01*
X3878805Y3758779D01*
X3878054Y3755000D01*
X3900000D01*
Y3750000D01*
X3905000D01*
Y3728054D01*
X3908779Y3728805D01*
X3916222Y3733778D01*
X3920748Y3740552D01*
X3925945Y3742427D01*
X4086202Y3582169D01*
Y3485197D01*
X4068425D01*
Y3437795D01*
X4131575D01*
Y3446202D01*
X4241610D01*
X4243604Y3443604D01*
X4249871Y3438795D01*
X4257168Y3435772D01*
X4265000Y3434741D01*
X4272832Y3435772D01*
X4280129Y3438795D01*
X4286396Y3443604D01*
X4291205Y3449871D01*
X4294228Y3457168D01*
X4295259Y3465000D01*
X4294228Y3472832D01*
X4291205Y3480129D01*
X4286396Y3486396D01*
X4280129Y3491205D01*
X4272832Y3494228D01*
X4265000Y3495259D01*
X4257168Y3494228D01*
X4249871Y3491205D01*
X4243604Y3486396D01*
X4238795Y3480129D01*
X4237412Y3476790D01*
X4131575D01*
Y3485197D01*
X4116790D01*
Y3588504D01*
X4115626Y3594357D01*
X4112310Y3599318D01*
X3721090Y3990539D01*
X3716128Y3993854D01*
X3710276Y3995018D01*
X3688583D01*
Y4013662D01*
D02*
G37*
G36*
X4371946Y3445000D02*
X4355000D01*
Y3428054D01*
X4358779Y3428805D01*
X4366222Y3433778D01*
X4371194Y3441221D01*
X4371946Y3445000D01*
D02*
G37*
G36*
X4345000D02*
X4328054D01*
X4328806Y3441221D01*
X4333778Y3433778D01*
X4341221Y3428805D01*
X4345000Y3428054D01*
Y3445000D01*
D02*
G37*
G36*
X3921946D02*
X3905000D01*
Y3428054D01*
X3908779Y3428805D01*
X3916222Y3433778D01*
X3921195Y3441221D01*
X3921946Y3445000D01*
D02*
G37*
G36*
X3895000D02*
X3878054D01*
X3878805Y3441221D01*
X3883778Y3433778D01*
X3891221Y3428805D01*
X3895000Y3428054D01*
Y3445000D01*
D02*
G37*
G36*
X3771946D02*
X3755000D01*
Y3428054D01*
X3758779Y3428805D01*
X3766222Y3433778D01*
X3771195Y3441221D01*
X3771946Y3445000D01*
D02*
G37*
G36*
X3745000D02*
X3728054D01*
X3728805Y3441221D01*
X3733778Y3433778D01*
X3741221Y3428805D01*
X3745000Y3428054D01*
Y3445000D01*
D02*
G37*
G36*
X3621946D02*
X3605000D01*
Y3428054D01*
X3608779Y3428805D01*
X3616222Y3433778D01*
X3621195Y3441221D01*
X3621946Y3445000D01*
D02*
G37*
G36*
X3595000D02*
X3578054D01*
X3578805Y3441221D01*
X3583778Y3433778D01*
X3591221Y3428805D01*
X3595000Y3428054D01*
Y3445000D01*
D02*
G37*
G36*
X3471946D02*
X3455000D01*
Y3428054D01*
X3458779Y3428805D01*
X3466222Y3433778D01*
X3471195Y3441221D01*
X3471946Y3445000D01*
D02*
G37*
G36*
X3445000D02*
X3428054D01*
X3428805Y3441221D01*
X3433778Y3433778D01*
X3441221Y3428805D01*
X3445000Y3428054D01*
Y3445000D01*
D02*
G37*
G36*
X3321946D02*
X3305000D01*
Y3428054D01*
X3308779Y3428805D01*
X3316222Y3433778D01*
X3321195Y3441221D01*
X3321946Y3445000D01*
D02*
G37*
G36*
X3295000D02*
X3278054D01*
X3278805Y3441221D01*
X3283778Y3433778D01*
X3291221Y3428805D01*
X3295000Y3428054D01*
Y3445000D01*
D02*
G37*
G36*
X3171946D02*
X3155000D01*
Y3428054D01*
X3158779Y3428805D01*
X3166222Y3433778D01*
X3171195Y3441221D01*
X3171946Y3445000D01*
D02*
G37*
G36*
X3145000D02*
X3128054D01*
X3128805Y3441221D01*
X3133778Y3433778D01*
X3141221Y3428805D01*
X3145000Y3428054D01*
Y3445000D01*
D02*
G37*
G36*
X3021946D02*
X3005000D01*
Y3428054D01*
X3008779Y3428805D01*
X3016222Y3433778D01*
X3021195Y3441221D01*
X3021946Y3445000D01*
D02*
G37*
G36*
X2995000D02*
X2978054D01*
X2978805Y3441221D01*
X2983778Y3433778D01*
X2991221Y3428805D01*
X2995000Y3428054D01*
Y3445000D01*
D02*
G37*
G36*
X2721946D02*
X2705000D01*
Y3428054D01*
X2708779Y3428805D01*
X2716222Y3433778D01*
X2721195Y3441221D01*
X2721946Y3445000D01*
D02*
G37*
G36*
X2695000D02*
X2678054D01*
X2678805Y3441221D01*
X2683778Y3433778D01*
X2691221Y3428805D01*
X2695000Y3428054D01*
Y3445000D01*
D02*
G37*
G36*
X2395000D02*
X2378054D01*
X2378805Y3441221D01*
X2383778Y3433778D01*
X2391221Y3428805D01*
X2395000Y3428054D01*
Y3445000D01*
D02*
G37*
G36*
X2271946D02*
X2255000D01*
Y3428054D01*
X2258779Y3428805D01*
X2266222Y3433778D01*
X2271195Y3441221D01*
X2271946Y3445000D01*
D02*
G37*
G36*
X2245000D02*
X2228054D01*
X2228805Y3441221D01*
X2233778Y3433778D01*
X2241221Y3428805D01*
X2245000Y3428054D01*
Y3445000D01*
D02*
G37*
G36*
X2121946D02*
X2105000D01*
Y3428054D01*
X2108779Y3428805D01*
X2116222Y3433778D01*
X2121195Y3441221D01*
X2121946Y3445000D01*
D02*
G37*
G36*
X2095000D02*
X2078054D01*
X2078805Y3441221D01*
X2083778Y3433778D01*
X2091221Y3428805D01*
X2095000Y3428054D01*
Y3445000D01*
D02*
G37*
G36*
X1971946D02*
X1955000D01*
Y3428054D01*
X1958779Y3428805D01*
X1966222Y3433778D01*
X1971195Y3441221D01*
X1971946Y3445000D01*
D02*
G37*
G36*
X1945000D02*
X1928054D01*
X1928805Y3441221D01*
X1933778Y3433778D01*
X1941221Y3428805D01*
X1945000Y3428054D01*
Y3445000D01*
D02*
G37*
G36*
X2638425Y3465000D02*
X2564528D01*
Y3421614D01*
X2638425D01*
Y3465000D01*
D02*
G37*
G36*
X2554528D02*
X2480630D01*
Y3421614D01*
X2554528D01*
Y3465000D01*
D02*
G37*
G36*
X4136575Y3427205D02*
X4105000D01*
Y3403504D01*
X4136575D01*
Y3427205D01*
D02*
G37*
G36*
X4095000D02*
X4063425D01*
Y3403504D01*
X4095000D01*
Y3427205D01*
D02*
G37*
G36*
X4136575Y3393504D02*
X4105000D01*
Y3369803D01*
X4136575D01*
Y3393504D01*
D02*
G37*
G36*
X4095000D02*
X4063425D01*
Y3369803D01*
X4095000D01*
Y3393504D01*
D02*
G37*
G36*
X4430000Y3321946D02*
Y3305000D01*
X4446946D01*
X4446194Y3308779D01*
X4441222Y3316222D01*
X4433779Y3321195D01*
X4430000Y3321946D01*
D02*
G37*
G36*
X4420000D02*
X4416221Y3321195D01*
X4408778Y3316222D01*
X4403806Y3308779D01*
X4403054Y3305000D01*
X4420000D01*
Y3321946D01*
D02*
G37*
G36*
X4280000D02*
Y3305000D01*
X4296946D01*
X4296194Y3308779D01*
X4291222Y3316222D01*
X4283779Y3321195D01*
X4280000Y3321946D01*
D02*
G37*
G36*
X4270000D02*
X4266221Y3321195D01*
X4258778Y3316222D01*
X4253806Y3308779D01*
X4253054Y3305000D01*
X4270000D01*
Y3321946D01*
D02*
G37*
G36*
X4130000D02*
Y3305000D01*
X4146946D01*
X4146194Y3308779D01*
X4141222Y3316222D01*
X4133779Y3321195D01*
X4130000Y3321946D01*
D02*
G37*
G36*
X4120000D02*
X4116221Y3321195D01*
X4108778Y3316222D01*
X4103806Y3308779D01*
X4103054Y3305000D01*
X4120000D01*
Y3321946D01*
D02*
G37*
G36*
X3830000D02*
Y3305000D01*
X3846946D01*
X3846195Y3308779D01*
X3841222Y3316222D01*
X3833779Y3321195D01*
X3830000Y3321946D01*
D02*
G37*
G36*
X3820000D02*
X3816221Y3321195D01*
X3808778Y3316222D01*
X3803805Y3308779D01*
X3803054Y3305000D01*
X3820000D01*
Y3321946D01*
D02*
G37*
G36*
X3680000D02*
Y3305000D01*
X3696946D01*
X3696195Y3308779D01*
X3691222Y3316222D01*
X3683779Y3321195D01*
X3680000Y3321946D01*
D02*
G37*
G36*
X3670000D02*
X3666221Y3321195D01*
X3658778Y3316222D01*
X3653805Y3308779D01*
X3653054Y3305000D01*
X3670000D01*
Y3321946D01*
D02*
G37*
G36*
X3530000D02*
Y3305000D01*
X3546946D01*
X3546195Y3308779D01*
X3541222Y3316222D01*
X3533779Y3321195D01*
X3530000Y3321946D01*
D02*
G37*
G36*
X3520000D02*
X3516221Y3321195D01*
X3508778Y3316222D01*
X3503805Y3308779D01*
X3503054Y3305000D01*
X3520000D01*
Y3321946D01*
D02*
G37*
G36*
X3380000D02*
Y3305000D01*
X3396946D01*
X3396195Y3308779D01*
X3391222Y3316222D01*
X3383779Y3321195D01*
X3380000Y3321946D01*
D02*
G37*
G36*
X3370000D02*
X3366221Y3321195D01*
X3358778Y3316222D01*
X3353805Y3308779D01*
X3353054Y3305000D01*
X3370000D01*
Y3321946D01*
D02*
G37*
G36*
X3230000D02*
Y3305000D01*
X3246946D01*
X3246195Y3308779D01*
X3241222Y3316222D01*
X3233779Y3321195D01*
X3230000Y3321946D01*
D02*
G37*
G36*
X3220000D02*
X3216221Y3321195D01*
X3208778Y3316222D01*
X3203805Y3308779D01*
X3203054Y3305000D01*
X3220000D01*
Y3321946D01*
D02*
G37*
G36*
X3080000D02*
Y3305000D01*
X3096946D01*
X3096195Y3308779D01*
X3091222Y3316222D01*
X3083779Y3321195D01*
X3080000Y3321946D01*
D02*
G37*
G36*
X3070000D02*
X3066221Y3321195D01*
X3058778Y3316222D01*
X3053805Y3308779D01*
X3053054Y3305000D01*
X3070000D01*
Y3321946D01*
D02*
G37*
G36*
X2930000D02*
Y3305000D01*
X2946946D01*
X2946195Y3308779D01*
X2941222Y3316222D01*
X2933779Y3321195D01*
X2930000Y3321946D01*
D02*
G37*
G36*
X2920000D02*
X2916221Y3321195D01*
X2908778Y3316222D01*
X2903805Y3308779D01*
X2903054Y3305000D01*
X2920000D01*
Y3321946D01*
D02*
G37*
G36*
X2780000D02*
Y3305000D01*
X2796946D01*
X2796195Y3308779D01*
X2791222Y3316222D01*
X2783779Y3321195D01*
X2780000Y3321946D01*
D02*
G37*
G36*
X2770000D02*
X2766221Y3321195D01*
X2758778Y3316222D01*
X2753805Y3308779D01*
X2753054Y3305000D01*
X2770000D01*
Y3321946D01*
D02*
G37*
G36*
X2630000D02*
Y3305000D01*
X2646946D01*
X2646195Y3308779D01*
X2641222Y3316222D01*
X2633779Y3321195D01*
X2630000Y3321946D01*
D02*
G37*
G36*
X2620000D02*
X2616221Y3321195D01*
X2608778Y3316222D01*
X2603805Y3308779D01*
X2603054Y3305000D01*
X2620000D01*
Y3321946D01*
D02*
G37*
G36*
X2480000D02*
Y3305000D01*
X2496946D01*
X2496195Y3308779D01*
X2491222Y3316222D01*
X2483779Y3321195D01*
X2480000Y3321946D01*
D02*
G37*
G36*
X2470000D02*
X2466221Y3321195D01*
X2458778Y3316222D01*
X2453805Y3308779D01*
X2453054Y3305000D01*
X2470000D01*
Y3321946D01*
D02*
G37*
G36*
X2330000D02*
Y3305000D01*
X2346946D01*
X2346195Y3308779D01*
X2341222Y3316222D01*
X2333779Y3321195D01*
X2330000Y3321946D01*
D02*
G37*
G36*
X2320000D02*
X2316221Y3321195D01*
X2308778Y3316222D01*
X2303805Y3308779D01*
X2303054Y3305000D01*
X2320000D01*
Y3321946D01*
D02*
G37*
G36*
X2180000D02*
Y3305000D01*
X2196946D01*
X2196195Y3308779D01*
X2191222Y3316222D01*
X2183779Y3321195D01*
X2180000Y3321946D01*
D02*
G37*
G36*
X2170000D02*
X2166221Y3321195D01*
X2158778Y3316222D01*
X2153805Y3308779D01*
X2153054Y3305000D01*
X2170000D01*
Y3321946D01*
D02*
G37*
G36*
X2030000D02*
Y3305000D01*
X2046946D01*
X2046195Y3308779D01*
X2041222Y3316222D01*
X2033779Y3321195D01*
X2030000Y3321946D01*
D02*
G37*
G36*
X2020000D02*
X2016221Y3321195D01*
X2008778Y3316222D01*
X2003805Y3308779D01*
X2003054Y3305000D01*
X2020000D01*
Y3321946D01*
D02*
G37*
G36*
X1880000D02*
Y3305000D01*
X1896946D01*
X1896195Y3308779D01*
X1891222Y3316222D01*
X1883779Y3321195D01*
X1880000Y3321946D01*
D02*
G37*
G36*
X1870000D02*
X1866221Y3321195D01*
X1858778Y3316222D01*
X1853805Y3308779D01*
X1853054Y3305000D01*
X1870000D01*
Y3321946D01*
D02*
G37*
G36*
X4519631Y3340022D02*
X4511827Y3338470D01*
X4505211Y3334050D01*
X4500791Y3327434D01*
X4499239Y3319631D01*
X4500230Y3314649D01*
X4479326Y3293745D01*
X4477116Y3290437D01*
X4476340Y3286535D01*
Y3275590D01*
X4464803D01*
Y3214410D01*
X4508268D01*
Y3275590D01*
X4496731D01*
Y3282312D01*
X4514649Y3300230D01*
X4519631Y3299239D01*
X4527434Y3300791D01*
X4534050Y3305211D01*
X4538470Y3311827D01*
X4540022Y3319631D01*
X4538470Y3327434D01*
X4534050Y3334050D01*
X4527434Y3338470D01*
X4519631Y3340022D01*
D02*
G37*
G36*
X4446946Y3295000D02*
X4430000D01*
Y3278054D01*
X4433779Y3278805D01*
X4441222Y3283778D01*
X4446194Y3291221D01*
X4446946Y3295000D01*
D02*
G37*
G36*
X4420000D02*
X4403054D01*
X4403806Y3291221D01*
X4408778Y3283778D01*
X4416221Y3278805D01*
X4420000Y3278054D01*
Y3295000D01*
D02*
G37*
G36*
X4296946D02*
X4280000D01*
Y3278054D01*
X4283779Y3278805D01*
X4291222Y3283778D01*
X4296194Y3291221D01*
X4296946Y3295000D01*
D02*
G37*
G36*
X4270000D02*
X4253054D01*
X4253806Y3291221D01*
X4258778Y3283778D01*
X4266221Y3278805D01*
X4270000Y3278054D01*
Y3295000D01*
D02*
G37*
G36*
X4146946D02*
X4130000D01*
Y3278054D01*
X4133779Y3278805D01*
X4141222Y3283778D01*
X4146194Y3291221D01*
X4146946Y3295000D01*
D02*
G37*
G36*
X4120000D02*
X4103054D01*
X4103806Y3291221D01*
X4108778Y3283778D01*
X4116221Y3278805D01*
X4120000Y3278054D01*
Y3295000D01*
D02*
G37*
G36*
X3846946D02*
X3830000D01*
Y3278054D01*
X3833779Y3278805D01*
X3841222Y3283778D01*
X3846195Y3291221D01*
X3846946Y3295000D01*
D02*
G37*
G36*
X3820000D02*
X3803054D01*
X3803805Y3291221D01*
X3808778Y3283778D01*
X3816221Y3278805D01*
X3820000Y3278054D01*
Y3295000D01*
D02*
G37*
G36*
X3696946D02*
X3680000D01*
Y3278054D01*
X3683779Y3278805D01*
X3691222Y3283778D01*
X3696195Y3291221D01*
X3696946Y3295000D01*
D02*
G37*
G36*
X3670000D02*
X3653054D01*
X3653805Y3291221D01*
X3658778Y3283778D01*
X3666221Y3278805D01*
X3670000Y3278054D01*
Y3295000D01*
D02*
G37*
G36*
X3546946D02*
X3530000D01*
Y3278054D01*
X3533779Y3278805D01*
X3541222Y3283778D01*
X3546195Y3291221D01*
X3546946Y3295000D01*
D02*
G37*
G36*
X3520000D02*
X3503054D01*
X3503805Y3291221D01*
X3508778Y3283778D01*
X3516221Y3278805D01*
X3520000Y3278054D01*
Y3295000D01*
D02*
G37*
G36*
X3396946D02*
X3380000D01*
Y3278054D01*
X3383779Y3278805D01*
X3391222Y3283778D01*
X3396195Y3291221D01*
X3396946Y3295000D01*
D02*
G37*
G36*
X3370000D02*
X3353054D01*
X3353805Y3291221D01*
X3358778Y3283778D01*
X3366221Y3278805D01*
X3370000Y3278054D01*
Y3295000D01*
D02*
G37*
G36*
X3246946D02*
X3230000D01*
Y3278054D01*
X3233779Y3278805D01*
X3241222Y3283778D01*
X3246195Y3291221D01*
X3246946Y3295000D01*
D02*
G37*
G36*
X3220000D02*
X3203054D01*
X3203805Y3291221D01*
X3208778Y3283778D01*
X3216221Y3278805D01*
X3220000Y3278054D01*
Y3295000D01*
D02*
G37*
G36*
X3096946D02*
X3080000D01*
Y3278054D01*
X3083779Y3278805D01*
X3091222Y3283778D01*
X3096195Y3291221D01*
X3096946Y3295000D01*
D02*
G37*
G36*
X3070000D02*
X3053054D01*
X3053805Y3291221D01*
X3058778Y3283778D01*
X3066221Y3278805D01*
X3070000Y3278054D01*
Y3295000D01*
D02*
G37*
G36*
X2946946D02*
X2930000D01*
Y3278054D01*
X2933779Y3278805D01*
X2941222Y3283778D01*
X2946195Y3291221D01*
X2946946Y3295000D01*
D02*
G37*
G36*
X2920000D02*
X2903054D01*
X2903805Y3291221D01*
X2908778Y3283778D01*
X2916221Y3278805D01*
X2920000Y3278054D01*
Y3295000D01*
D02*
G37*
G36*
X2796946D02*
X2780000D01*
Y3278054D01*
X2783779Y3278805D01*
X2791222Y3283778D01*
X2796195Y3291221D01*
X2796946Y3295000D01*
D02*
G37*
G36*
X2770000D02*
X2753054D01*
X2753805Y3291221D01*
X2758778Y3283778D01*
X2766221Y3278805D01*
X2770000Y3278054D01*
Y3295000D01*
D02*
G37*
G36*
X2646946D02*
X2630000D01*
Y3278054D01*
X2633779Y3278805D01*
X2641222Y3283778D01*
X2646195Y3291221D01*
X2646946Y3295000D01*
D02*
G37*
G36*
X2620000D02*
X2603054D01*
X2603805Y3291221D01*
X2608778Y3283778D01*
X2616221Y3278805D01*
X2620000Y3278054D01*
Y3295000D01*
D02*
G37*
G36*
X2496946D02*
X2480000D01*
Y3278054D01*
X2483779Y3278805D01*
X2491222Y3283778D01*
X2496195Y3291221D01*
X2496946Y3295000D01*
D02*
G37*
G36*
X2470000D02*
X2453054D01*
X2453805Y3291221D01*
X2458778Y3283778D01*
X2466221Y3278805D01*
X2470000Y3278054D01*
Y3295000D01*
D02*
G37*
G36*
X2346946D02*
X2330000D01*
Y3278054D01*
X2333779Y3278805D01*
X2341222Y3283778D01*
X2346195Y3291221D01*
X2346946Y3295000D01*
D02*
G37*
G36*
X2320000D02*
X2303054D01*
X2303805Y3291221D01*
X2308778Y3283778D01*
X2316221Y3278805D01*
X2320000Y3278054D01*
Y3295000D01*
D02*
G37*
G36*
X2196946D02*
X2180000D01*
Y3278054D01*
X2183779Y3278805D01*
X2191222Y3283778D01*
X2196195Y3291221D01*
X2196946Y3295000D01*
D02*
G37*
G36*
X2170000D02*
X2153054D01*
X2153805Y3291221D01*
X2158778Y3283778D01*
X2166221Y3278805D01*
X2170000Y3278054D01*
Y3295000D01*
D02*
G37*
G36*
X2046946D02*
X2030000D01*
Y3278054D01*
X2033779Y3278805D01*
X2041222Y3283778D01*
X2046195Y3291221D01*
X2046946Y3295000D01*
D02*
G37*
G36*
X2020000D02*
X2003054D01*
X2003805Y3291221D01*
X2008778Y3283778D01*
X2016221Y3278805D01*
X2020000Y3278054D01*
Y3295000D01*
D02*
G37*
G36*
X1896946D02*
X1880000D01*
Y3278054D01*
X1883779Y3278805D01*
X1891222Y3283778D01*
X1896195Y3291221D01*
X1896946Y3295000D01*
D02*
G37*
G36*
X1870000D02*
X1853054D01*
X1853805Y3291221D01*
X1858778Y3283778D01*
X1866221Y3278805D01*
X1870000Y3278054D01*
Y3295000D01*
D02*
G37*
G36*
X1705000Y3360392D02*
X1697196Y3358840D01*
X1690581Y3354419D01*
X1686160Y3347804D01*
X1684608Y3340000D01*
X1686160Y3332196D01*
X1690581Y3325581D01*
X1697196Y3321160D01*
X1705000Y3319608D01*
X1709982Y3320599D01*
X1749990Y3280590D01*
X1748207Y3275605D01*
X1748195Y3275590D01*
X1744803D01*
Y3237687D01*
X1685344Y3178228D01*
X1650512D01*
Y3152480D01*
X1692008D01*
Y3156747D01*
X1694099Y3158145D01*
X1750364Y3214410D01*
X1788268D01*
X1788268Y3275590D01*
X1792957Y3276340D01*
X1807042D01*
X1811732Y3275590D01*
Y3214410D01*
X1855197D01*
Y3275590D01*
X1843660D01*
Y3286535D01*
X1842884Y3290437D01*
X1840674Y3293745D01*
X1837366Y3295955D01*
X1833465Y3296731D01*
X1762688D01*
X1724401Y3335018D01*
X1725392Y3340000D01*
X1723840Y3347804D01*
X1719419Y3354419D01*
X1712804Y3358840D01*
X1705000Y3360392D01*
D02*
G37*
G36*
X4575197Y3275590D02*
X4531732D01*
Y3214410D01*
X4575197D01*
Y3234804D01*
X4605107D01*
X4622953Y3216959D01*
Y3183976D01*
X4668386D01*
Y3233346D01*
X4635404D01*
X4616540Y3252210D01*
X4613233Y3254420D01*
X4609331Y3255196D01*
X4575197D01*
Y3275590D01*
D02*
G37*
G36*
X1660000Y3310392D02*
X1652196Y3308840D01*
X1645581Y3304419D01*
X1641160Y3297804D01*
X1639608Y3290000D01*
X1639656Y3289759D01*
X1639414Y3289396D01*
X1638249Y3283543D01*
Y3233346D01*
X1630827D01*
Y3183976D01*
X1676260D01*
Y3233346D01*
X1668837D01*
Y3271851D01*
X1674419Y3275581D01*
X1678840Y3282196D01*
X1680392Y3290000D01*
X1678840Y3297804D01*
X1674419Y3304419D01*
X1667804Y3308840D01*
X1660000Y3310392D01*
D02*
G37*
G36*
X4355000Y3171946D02*
Y3155000D01*
X4371946D01*
X4371194Y3158779D01*
X4366222Y3166222D01*
X4358779Y3171195D01*
X4355000Y3171946D01*
D02*
G37*
G36*
X4345000D02*
X4341221Y3171195D01*
X4333778Y3166222D01*
X4328806Y3158779D01*
X4328054Y3155000D01*
X4345000D01*
Y3171946D01*
D02*
G37*
G36*
X4205000D02*
Y3155000D01*
X4221946D01*
X4221194Y3158779D01*
X4216222Y3166222D01*
X4208779Y3171195D01*
X4205000Y3171946D01*
D02*
G37*
G36*
X4195000D02*
X4191221Y3171195D01*
X4183778Y3166222D01*
X4178806Y3158779D01*
X4178054Y3155000D01*
X4195000D01*
Y3171946D01*
D02*
G37*
G36*
X4055000D02*
Y3155000D01*
X4071946D01*
X4071195Y3158779D01*
X4066222Y3166222D01*
X4058779Y3171195D01*
X4055000Y3171946D01*
D02*
G37*
G36*
X4045000D02*
X4041221Y3171195D01*
X4033778Y3166222D01*
X4028805Y3158779D01*
X4028054Y3155000D01*
X4045000D01*
Y3171946D01*
D02*
G37*
G36*
X3905000D02*
Y3155000D01*
X3921946D01*
X3921195Y3158779D01*
X3916222Y3166222D01*
X3908779Y3171195D01*
X3905000Y3171946D01*
D02*
G37*
G36*
X3895000D02*
X3891221Y3171195D01*
X3883778Y3166222D01*
X3878805Y3158779D01*
X3878054Y3155000D01*
X3895000D01*
Y3171946D01*
D02*
G37*
G36*
X3605000D02*
Y3155000D01*
X3621946D01*
X3621195Y3158779D01*
X3616222Y3166222D01*
X3608779Y3171195D01*
X3605000Y3171946D01*
D02*
G37*
G36*
X3595000D02*
X3591221Y3171195D01*
X3583778Y3166222D01*
X3578805Y3158779D01*
X3578054Y3155000D01*
X3595000D01*
Y3171946D01*
D02*
G37*
G36*
X3455000D02*
Y3155000D01*
X3471946D01*
X3471195Y3158779D01*
X3466222Y3166222D01*
X3458779Y3171195D01*
X3455000Y3171946D01*
D02*
G37*
G36*
X3445000D02*
X3441221Y3171195D01*
X3433778Y3166222D01*
X3428805Y3158779D01*
X3428054Y3155000D01*
X3445000D01*
Y3171946D01*
D02*
G37*
G36*
X3305000D02*
Y3155000D01*
X3321946D01*
X3321195Y3158779D01*
X3316222Y3166222D01*
X3308779Y3171195D01*
X3305000Y3171946D01*
D02*
G37*
G36*
X3295000D02*
X3291221Y3171195D01*
X3283778Y3166222D01*
X3278805Y3158779D01*
X3278054Y3155000D01*
X3295000D01*
Y3171946D01*
D02*
G37*
G36*
X3155000D02*
Y3155000D01*
X3171946D01*
X3171195Y3158779D01*
X3166222Y3166222D01*
X3158779Y3171195D01*
X3155000Y3171946D01*
D02*
G37*
G36*
X3145000D02*
X3141221Y3171195D01*
X3133778Y3166222D01*
X3128805Y3158779D01*
X3128054Y3155000D01*
X3145000D01*
Y3171946D01*
D02*
G37*
G36*
X2855000D02*
Y3155000D01*
X2871946D01*
X2871195Y3158779D01*
X2866222Y3166222D01*
X2858779Y3171195D01*
X2855000Y3171946D01*
D02*
G37*
G36*
X2845000D02*
X2841221Y3171195D01*
X2833778Y3166222D01*
X2828805Y3158779D01*
X2828054Y3155000D01*
X2845000D01*
Y3171946D01*
D02*
G37*
G36*
X2405000D02*
Y3155000D01*
X2421946D01*
X2421195Y3158779D01*
X2416222Y3166222D01*
X2408779Y3171195D01*
X2405000Y3171946D01*
D02*
G37*
G36*
X2395000D02*
X2391221Y3171195D01*
X2383778Y3166222D01*
X2378805Y3158779D01*
X2378054Y3155000D01*
X2395000D01*
Y3171946D01*
D02*
G37*
G36*
X2255000D02*
Y3155000D01*
X2271946D01*
X2271195Y3158779D01*
X2266222Y3166222D01*
X2258779Y3171195D01*
X2255000Y3171946D01*
D02*
G37*
G36*
X2245000D02*
X2241221Y3171195D01*
X2233778Y3166222D01*
X2228805Y3158779D01*
X2228054Y3155000D01*
X2245000D01*
Y3171946D01*
D02*
G37*
G36*
X2105000D02*
Y3155000D01*
X2121946D01*
X2121195Y3158779D01*
X2116222Y3166222D01*
X2108779Y3171195D01*
X2105000Y3171946D01*
D02*
G37*
G36*
X2095000D02*
X2091221Y3171195D01*
X2083778Y3166222D01*
X2078805Y3158779D01*
X2078054Y3155000D01*
X2095000D01*
Y3171946D01*
D02*
G37*
G36*
X4575197Y3200590D02*
X4531732D01*
Y3139410D01*
X4575197D01*
Y3155158D01*
X4607205D01*
Y3152480D01*
X4648701D01*
Y3178228D01*
X4607205D01*
Y3175550D01*
X4575197D01*
Y3200590D01*
D02*
G37*
G36*
X3030197Y3180590D02*
X3008464D01*
Y3150000D01*
X3030197D01*
Y3180590D01*
D02*
G37*
G36*
X2998464D02*
X2976732D01*
Y3150000D01*
X2998464D01*
Y3180590D01*
D02*
G37*
G36*
X1788268Y3190590D02*
X1744803D01*
Y3170196D01*
X1735000D01*
X1731098Y3169420D01*
X1727790Y3167210D01*
X1704635Y3144054D01*
X1692008D01*
Y3146732D01*
X1650512D01*
Y3120984D01*
X1692008D01*
Y3123662D01*
X1708858D01*
X1712760Y3124439D01*
X1716068Y3126649D01*
X1739223Y3149804D01*
X1744803D01*
Y3129410D01*
X1788268D01*
Y3190590D01*
D02*
G37*
G36*
X4371946Y3145000D02*
X4355000D01*
Y3128054D01*
X4358779Y3128805D01*
X4366222Y3133778D01*
X4371194Y3141221D01*
X4371946Y3145000D01*
D02*
G37*
G36*
X4345000D02*
X4328054D01*
X4328806Y3141221D01*
X4333778Y3133778D01*
X4341221Y3128805D01*
X4345000Y3128054D01*
Y3145000D01*
D02*
G37*
G36*
X4221946D02*
X4205000D01*
Y3128054D01*
X4208779Y3128805D01*
X4216222Y3133778D01*
X4221194Y3141221D01*
X4221946Y3145000D01*
D02*
G37*
G36*
X4195000D02*
X4178054D01*
X4178806Y3141221D01*
X4183778Y3133778D01*
X4191221Y3128805D01*
X4195000Y3128054D01*
Y3145000D01*
D02*
G37*
G36*
X4071946D02*
X4055000D01*
Y3128054D01*
X4058779Y3128805D01*
X4066222Y3133778D01*
X4071195Y3141221D01*
X4071946Y3145000D01*
D02*
G37*
G36*
X4045000D02*
X4028054D01*
X4028805Y3141221D01*
X4033778Y3133778D01*
X4041221Y3128805D01*
X4045000Y3128054D01*
Y3145000D01*
D02*
G37*
G36*
X3921946D02*
X3905000D01*
Y3128054D01*
X3908779Y3128805D01*
X3916222Y3133778D01*
X3921195Y3141221D01*
X3921946Y3145000D01*
D02*
G37*
G36*
X3895000D02*
X3878054D01*
X3878805Y3141221D01*
X3883778Y3133778D01*
X3891221Y3128805D01*
X3895000Y3128054D01*
Y3145000D01*
D02*
G37*
G36*
X3621946D02*
X3605000D01*
Y3128054D01*
X3608779Y3128805D01*
X3616222Y3133778D01*
X3621195Y3141221D01*
X3621946Y3145000D01*
D02*
G37*
G36*
X3595000D02*
X3578054D01*
X3578805Y3141221D01*
X3583778Y3133778D01*
X3591221Y3128805D01*
X3595000Y3128054D01*
Y3145000D01*
D02*
G37*
G36*
X3471946D02*
X3455000D01*
Y3128054D01*
X3458779Y3128805D01*
X3466222Y3133778D01*
X3471195Y3141221D01*
X3471946Y3145000D01*
D02*
G37*
G36*
X3445000D02*
X3428054D01*
X3428805Y3141221D01*
X3433778Y3133778D01*
X3441221Y3128805D01*
X3445000Y3128054D01*
Y3145000D01*
D02*
G37*
G36*
X3321946D02*
X3305000D01*
Y3128054D01*
X3308779Y3128805D01*
X3316222Y3133778D01*
X3321195Y3141221D01*
X3321946Y3145000D01*
D02*
G37*
G36*
X3295000D02*
X3278054D01*
X3278805Y3141221D01*
X3283778Y3133778D01*
X3291221Y3128805D01*
X3295000Y3128054D01*
Y3145000D01*
D02*
G37*
G36*
X3171946D02*
X3155000D01*
Y3128054D01*
X3158779Y3128805D01*
X3166222Y3133778D01*
X3171195Y3141221D01*
X3171946Y3145000D01*
D02*
G37*
G36*
X3145000D02*
X3128054D01*
X3128805Y3141221D01*
X3133778Y3133778D01*
X3141221Y3128805D01*
X3145000Y3128054D01*
Y3145000D01*
D02*
G37*
G36*
X2871946D02*
X2855000D01*
Y3128054D01*
X2858779Y3128805D01*
X2866222Y3133778D01*
X2871195Y3141221D01*
X2871946Y3145000D01*
D02*
G37*
G36*
X2845000D02*
X2828054D01*
X2828805Y3141221D01*
X2833778Y3133778D01*
X2841221Y3128805D01*
X2845000Y3128054D01*
Y3145000D01*
D02*
G37*
G36*
X2421946D02*
X2405000D01*
Y3128054D01*
X2408779Y3128805D01*
X2416222Y3133778D01*
X2421195Y3141221D01*
X2421946Y3145000D01*
D02*
G37*
G36*
X2395000D02*
X2378054D01*
X2378805Y3141221D01*
X2383778Y3133778D01*
X2391221Y3128805D01*
X2395000Y3128054D01*
Y3145000D01*
D02*
G37*
G36*
X2271946D02*
X2255000D01*
Y3128054D01*
X2258779Y3128805D01*
X2266222Y3133778D01*
X2271195Y3141221D01*
X2271946Y3145000D01*
D02*
G37*
G36*
X2245000D02*
X2228054D01*
X2228805Y3141221D01*
X2233778Y3133778D01*
X2241221Y3128805D01*
X2245000Y3128054D01*
Y3145000D01*
D02*
G37*
G36*
X2121946D02*
X2105000D01*
Y3128054D01*
X2108779Y3128805D01*
X2116222Y3133778D01*
X2121195Y3141221D01*
X2121946Y3145000D01*
D02*
G37*
G36*
X2095000D02*
X2078054D01*
X2078805Y3141221D01*
X2083778Y3133778D01*
X2091221Y3128805D01*
X2095000Y3128054D01*
Y3145000D01*
D02*
G37*
G36*
X2715590Y3135197D02*
X2685000D01*
Y3113465D01*
X2715590D01*
Y3135197D01*
D02*
G37*
G36*
X2675000D02*
X2644410D01*
Y3113465D01*
X2675000D01*
Y3135197D01*
D02*
G37*
G36*
X2616575D02*
X2585000D01*
Y3111496D01*
X2616575D01*
Y3135197D01*
D02*
G37*
G36*
X2575000D02*
X2543425D01*
Y3111496D01*
X2575000D01*
Y3135197D01*
D02*
G37*
G36*
X3030197Y3140000D02*
X3008464D01*
Y3109410D01*
X3030197D01*
Y3140000D01*
D02*
G37*
G36*
X2998464D02*
X2976732D01*
Y3109410D01*
X2998464D01*
Y3140000D01*
D02*
G37*
G36*
X4648701Y3146732D02*
X4607205D01*
Y3127530D01*
X4580197Y3100522D01*
X4575197Y3100982D01*
Y3120590D01*
X4531732D01*
Y3059410D01*
X4575197D01*
Y3079804D01*
X4584095D01*
X4587996Y3080580D01*
X4591304Y3082790D01*
X4618333Y3109820D01*
X4622953Y3107906D01*
Y3065866D01*
X4630375D01*
Y3039112D01*
X4626160Y3032804D01*
X4624608Y3025000D01*
X4626160Y3017196D01*
X4630581Y3010581D01*
X4637196Y3006160D01*
X4645000Y3004608D01*
X4652804Y3006160D01*
X4659419Y3010581D01*
X4663840Y3017196D01*
X4665392Y3025000D01*
X4663840Y3032804D01*
X4660963Y3037108D01*
Y3065866D01*
X4668386D01*
Y3115236D01*
X4635487D01*
X4632814Y3120236D01*
X4633314Y3120984D01*
X4648701D01*
Y3146732D01*
D02*
G37*
G36*
X2715590Y3103465D02*
X2685000D01*
Y3081732D01*
X2715590D01*
Y3103465D01*
D02*
G37*
G36*
X2675000D02*
X2644410D01*
Y3081732D01*
X2675000D01*
Y3103465D01*
D02*
G37*
G36*
X2616575Y3101496D02*
X2585000D01*
Y3077795D01*
X2616575D01*
Y3101496D01*
D02*
G37*
G36*
X2575000D02*
X2543425D01*
Y3077795D01*
X2575000D01*
Y3101496D01*
D02*
G37*
G36*
X2886417Y3100118D02*
X2839016D01*
Y3054685D01*
X2886417D01*
Y3100118D01*
D02*
G37*
G36*
X1676260Y3115236D02*
X1630827D01*
Y3065866D01*
X1676260D01*
Y3069804D01*
X1744803D01*
Y3049410D01*
X1788268D01*
Y3110590D01*
X1744803D01*
Y3090196D01*
X1676260D01*
Y3115236D01*
D02*
G37*
G36*
X3496575Y3062795D02*
X3465000D01*
Y3039094D01*
X3496575D01*
Y3062795D01*
D02*
G37*
G36*
X3455000D02*
X3423425D01*
Y3039094D01*
X3455000D01*
Y3062795D01*
D02*
G37*
G36*
X3405590Y3060197D02*
X3375000D01*
Y3038465D01*
X3405590D01*
Y3060197D01*
D02*
G37*
G36*
X3365000D02*
X3334410D01*
Y3038465D01*
X3365000D01*
Y3060197D01*
D02*
G37*
G36*
X4136575Y3055197D02*
X4105000D01*
Y3031496D01*
X4136575D01*
Y3055197D01*
D02*
G37*
G36*
X4095000D02*
X4063425D01*
Y3031496D01*
X4095000D01*
Y3055197D01*
D02*
G37*
G36*
X1855197Y3110590D02*
X1811732D01*
Y3049410D01*
X1817919D01*
X1819990Y3044410D01*
X1801756Y3026175D01*
X1796337Y3026549D01*
X1794419Y3029419D01*
X1787804Y3033840D01*
X1780000Y3035392D01*
X1772196Y3033840D01*
X1765581Y3029419D01*
X1761160Y3022804D01*
X1759608Y3015000D01*
X1761160Y3007196D01*
X1765581Y3000581D01*
X1772196Y2996160D01*
X1780000Y2994608D01*
X1787804Y2996160D01*
X1794419Y3000581D01*
X1797241Y3004804D01*
X1805000D01*
X1808902Y3005580D01*
X1812210Y3007790D01*
X1840674Y3036255D01*
X1842884Y3039563D01*
X1843660Y3043465D01*
Y3049410D01*
X1855197D01*
Y3110590D01*
D02*
G37*
G36*
X2611575Y3067205D02*
X2548425D01*
Y3053700D01*
X2508504D01*
X2504602Y3052924D01*
X2501294Y3050713D01*
X2370389Y2919808D01*
X2368179Y2916500D01*
X2367403Y2912598D01*
Y2450000D01*
X2368179Y2446098D01*
X2370389Y2442790D01*
X2402987Y2410192D01*
X2406295Y2407982D01*
X2410197Y2407206D01*
X2411181D01*
Y2401811D01*
X2406181D01*
Y2385000D01*
X2435866D01*
X2465551D01*
Y2401811D01*
X2460551D01*
Y2434213D01*
X2411181D01*
X2411181Y2434213D01*
Y2434213D01*
X2406538Y2435479D01*
X2387794Y2454223D01*
Y2908375D01*
X2512727Y3033308D01*
X2548425D01*
Y3019803D01*
X2611575D01*
Y3031340D01*
X2649410D01*
Y3019803D01*
X2710590D01*
Y3029804D01*
X2740591D01*
Y3017284D01*
X2787992D01*
Y3062716D01*
X2740591D01*
Y3050196D01*
X2710590D01*
Y3063268D01*
X2649410D01*
Y3051731D01*
X2611575D01*
Y3067205D01*
D02*
G37*
G36*
X2958268Y3175590D02*
X2914803D01*
Y3114410D01*
X2926340D01*
Y3086575D01*
X2914803D01*
Y3023425D01*
X2928308D01*
Y3017727D01*
X2923375Y3012794D01*
X2886417D01*
Y3025315D01*
X2839016D01*
Y2979882D01*
X2886417D01*
Y2992403D01*
X2927598D01*
X2931500Y2993179D01*
X2934808Y2995389D01*
X2945713Y3006294D01*
X2947924Y3009602D01*
X2948700Y3013504D01*
Y3023425D01*
X2962205D01*
Y3086575D01*
X2946731D01*
Y3114410D01*
X2958268D01*
Y3175590D01*
D02*
G37*
G36*
X3405590Y3028465D02*
X3375000D01*
Y3006732D01*
X3405590D01*
Y3028465D01*
D02*
G37*
G36*
X3365000D02*
X3334410D01*
Y3006732D01*
X3365000D01*
Y3028465D01*
D02*
G37*
G36*
X3496575Y3029094D02*
X3465000D01*
Y3005394D01*
X3496575D01*
Y3029094D01*
D02*
G37*
G36*
X3455000D02*
X3423425D01*
Y3005394D01*
X3455000D01*
Y3029094D01*
D02*
G37*
G36*
X4430000Y3021946D02*
Y3005000D01*
X4446946D01*
X4446194Y3008779D01*
X4441222Y3016222D01*
X4433779Y3021195D01*
X4430000Y3021946D01*
D02*
G37*
G36*
X4420000D02*
X4416221Y3021195D01*
X4408778Y3016222D01*
X4403806Y3008779D01*
X4403054Y3005000D01*
X4420000D01*
Y3021946D01*
D02*
G37*
G36*
X3830000D02*
Y3005000D01*
X3846946D01*
X3846195Y3008779D01*
X3841222Y3016222D01*
X3833779Y3021195D01*
X3830000Y3021946D01*
D02*
G37*
G36*
X3820000D02*
X3816221Y3021195D01*
X3808778Y3016222D01*
X3803805Y3008779D01*
X3803054Y3005000D01*
X3820000D01*
Y3021946D01*
D02*
G37*
G36*
X3680000D02*
Y3005000D01*
X3696946D01*
X3696195Y3008779D01*
X3691222Y3016222D01*
X3683779Y3021195D01*
X3680000Y3021946D01*
D02*
G37*
G36*
X3670000D02*
X3666221Y3021195D01*
X3658778Y3016222D01*
X3653805Y3008779D01*
X3653054Y3005000D01*
X3670000D01*
Y3021946D01*
D02*
G37*
G36*
X3530000D02*
Y3005000D01*
X3546946D01*
X3546195Y3008779D01*
X3541222Y3016222D01*
X3533779Y3021195D01*
X3530000Y3021946D01*
D02*
G37*
G36*
X3520000D02*
X3516221Y3021195D01*
X3508778Y3016222D01*
X3503805Y3008779D01*
X3503054Y3005000D01*
X3520000D01*
Y3021946D01*
D02*
G37*
G36*
X3080000D02*
Y3005000D01*
X3096946D01*
X3096195Y3008779D01*
X3091222Y3016222D01*
X3083779Y3021195D01*
X3080000Y3021946D01*
D02*
G37*
G36*
X3070000D02*
X3066221Y3021195D01*
X3058778Y3016222D01*
X3053805Y3008779D01*
X3053054Y3005000D01*
X3070000D01*
Y3021946D01*
D02*
G37*
G36*
X2330000D02*
Y3005000D01*
X2346946D01*
X2346195Y3008779D01*
X2341222Y3016222D01*
X2333779Y3021195D01*
X2330000Y3021946D01*
D02*
G37*
G36*
X2320000D02*
X2316221Y3021195D01*
X2308778Y3016222D01*
X2303805Y3008779D01*
X2303054Y3005000D01*
X2320000D01*
Y3021946D01*
D02*
G37*
G36*
X2180000D02*
Y3005000D01*
X2196946D01*
X2196195Y3008779D01*
X2191222Y3016222D01*
X2183779Y3021195D01*
X2180000Y3021946D01*
D02*
G37*
G36*
X2170000D02*
X2166221Y3021195D01*
X2158778Y3016222D01*
X2153805Y3008779D01*
X2153054Y3005000D01*
X2170000D01*
Y3021946D01*
D02*
G37*
G36*
X2030000D02*
Y3005000D01*
X2046946D01*
X2046195Y3008779D01*
X2041222Y3016222D01*
X2033779Y3021195D01*
X2030000Y3021946D01*
D02*
G37*
G36*
X2020000D02*
X2016221Y3021195D01*
X2008778Y3016222D01*
X2003805Y3008779D01*
X2003054Y3005000D01*
X2020000D01*
Y3021946D01*
D02*
G37*
G36*
X4508268Y3200590D02*
X4464803D01*
Y3175196D01*
X4460000D01*
X4456098Y3174420D01*
X4452790Y3172210D01*
X4442790Y3162210D01*
X4440580Y3158902D01*
X4439804Y3155000D01*
Y3050000D01*
X4440580Y3046098D01*
X4442790Y3042790D01*
X4502790Y2982790D01*
X4506098Y2980580D01*
X4510000Y2979804D01*
X4540869D01*
X4543691Y2975581D01*
X4550307Y2971160D01*
X4558110Y2969608D01*
X4565914Y2971160D01*
X4572529Y2975581D01*
X4576950Y2982196D01*
X4578502Y2990000D01*
X4576950Y2997804D01*
X4572529Y3004419D01*
X4571953Y3004804D01*
X4573470Y3009804D01*
X4582759D01*
X4585581Y3005581D01*
X4592196Y3001160D01*
X4600000Y2999608D01*
X4607804Y3001160D01*
X4614419Y3005581D01*
X4618840Y3012196D01*
X4620392Y3020000D01*
X4618840Y3027804D01*
X4614419Y3034419D01*
X4607804Y3038840D01*
X4600000Y3040392D01*
X4592196Y3038840D01*
X4585581Y3034419D01*
X4582759Y3030196D01*
X4514223D01*
X4496731Y3047688D01*
Y3059410D01*
X4508268D01*
Y3120590D01*
X4464803D01*
Y3120591D01*
X4460196Y3121539D01*
Y3138461D01*
X4464803Y3139409D01*
Y3139410D01*
X4508268D01*
Y3200590D01*
D02*
G37*
G36*
X4136575Y3021496D02*
X4105000D01*
Y2997795D01*
X4136575D01*
Y3021496D01*
D02*
G37*
G36*
X4095000D02*
X4063425D01*
Y2997795D01*
X4095000D01*
Y3021496D01*
D02*
G37*
G36*
X3096946Y2995000D02*
X3080000D01*
Y2978054D01*
X3083779Y2978805D01*
X3091222Y2983778D01*
X3096195Y2991221D01*
X3096946Y2995000D01*
D02*
G37*
G36*
X3070000D02*
X3053054D01*
X3053805Y2991221D01*
X3058778Y2983778D01*
X3066221Y2978805D01*
X3070000Y2978054D01*
Y2995000D01*
D02*
G37*
G36*
X2346946D02*
X2330000D01*
Y2978054D01*
X2333779Y2978805D01*
X2341222Y2983778D01*
X2346195Y2991221D01*
X2346946Y2995000D01*
D02*
G37*
G36*
X2320000D02*
X2303054D01*
X2303805Y2991221D01*
X2308778Y2983778D01*
X2316221Y2978805D01*
X2320000Y2978054D01*
Y2995000D01*
D02*
G37*
G36*
X2196946D02*
X2180000D01*
Y2978054D01*
X2183779Y2978805D01*
X2191222Y2983778D01*
X2196195Y2991221D01*
X2196946Y2995000D01*
D02*
G37*
G36*
X2170000D02*
X2153054D01*
X2153805Y2991221D01*
X2158778Y2983778D01*
X2166221Y2978805D01*
X2170000Y2978054D01*
Y2995000D01*
D02*
G37*
G36*
X2046946D02*
X2030000D01*
Y2978054D01*
X2033779Y2978805D01*
X2041222Y2983778D01*
X2046195Y2991221D01*
X2046946Y2995000D01*
D02*
G37*
G36*
X2020000D02*
X2003054D01*
X2003805Y2991221D01*
X2008778Y2983778D01*
X2016221Y2978805D01*
X2020000Y2978054D01*
Y2995000D01*
D02*
G37*
G36*
X4446946D02*
X4430000D01*
Y2978054D01*
X4433779Y2978805D01*
X4441222Y2983778D01*
X4446194Y2991221D01*
X4446946Y2995000D01*
D02*
G37*
G36*
X4420000D02*
X4403054D01*
X4403806Y2991221D01*
X4408778Y2983778D01*
X4416221Y2978805D01*
X4420000Y2978054D01*
Y2995000D01*
D02*
G37*
G36*
X3846946D02*
X3830000D01*
Y2978054D01*
X3833779Y2978805D01*
X3841222Y2983778D01*
X3846195Y2991221D01*
X3846946Y2995000D01*
D02*
G37*
G36*
X3820000D02*
X3803054D01*
X3803805Y2991221D01*
X3808778Y2983778D01*
X3816221Y2978805D01*
X3820000Y2978054D01*
Y2995000D01*
D02*
G37*
G36*
X3696946D02*
X3680000D01*
Y2978054D01*
X3683779Y2978805D01*
X3691222Y2983778D01*
X3696195Y2991221D01*
X3696946Y2995000D01*
D02*
G37*
G36*
X3670000D02*
X3653054D01*
X3653805Y2991221D01*
X3658778Y2983778D01*
X3666221Y2978805D01*
X3670000Y2978054D01*
Y2995000D01*
D02*
G37*
G36*
X3546946D02*
X3530000D01*
Y2978054D01*
X3533779Y2978805D01*
X3541222Y2983778D01*
X3546195Y2991221D01*
X3546946Y2995000D01*
D02*
G37*
G36*
X3520000D02*
X3503054D01*
X3503805Y2991221D01*
X3508778Y2983778D01*
X3516221Y2978805D01*
X3520000Y2978054D01*
Y2995000D01*
D02*
G37*
G36*
X1855197Y3190590D02*
X1811732D01*
Y3129410D01*
X1855197D01*
Y3149804D01*
X1860777D01*
X1874804Y3135777D01*
Y2994223D01*
X1855777Y2975196D01*
X1762241D01*
X1759419Y2979419D01*
X1752804Y2983840D01*
X1745000Y2985392D01*
X1737196Y2983840D01*
X1730581Y2979419D01*
X1726160Y2972804D01*
X1724608Y2965000D01*
X1726160Y2957196D01*
X1730581Y2950581D01*
X1737196Y2946160D01*
X1745000Y2944608D01*
X1752804Y2946160D01*
X1759419Y2950581D01*
X1762241Y2954804D01*
X1860000D01*
X1863902Y2955580D01*
X1867210Y2957790D01*
X1892210Y2982790D01*
X1894420Y2986098D01*
X1895196Y2990000D01*
Y3140000D01*
X1894420Y3143902D01*
X1892210Y3147210D01*
X1872210Y3167210D01*
X1868902Y3169420D01*
X1865000Y3170196D01*
X1855197D01*
Y3190590D01*
D02*
G37*
G36*
X3305197Y3005590D02*
X3261732D01*
Y2944410D01*
X3259834Y2940196D01*
X3240166D01*
X3238268Y2944410D01*
X3238268Y2945196D01*
Y3005590D01*
X3194803D01*
Y2975196D01*
X3177241D01*
X3174419Y2979419D01*
X3167804Y2983840D01*
X3160000Y2985392D01*
X3152196Y2983840D01*
X3145581Y2979419D01*
X3141160Y2972804D01*
X3139608Y2965000D01*
X3141160Y2957196D01*
X3145581Y2950581D01*
X3152196Y2946160D01*
X3160000Y2944608D01*
X3167804Y2946160D01*
X3174419Y2950581D01*
X3177241Y2954804D01*
X3194803D01*
Y2945196D01*
X3194803Y2944410D01*
X3192905Y2940196D01*
X3187402D01*
X3183500Y2939420D01*
X3180192Y2937210D01*
X3147790Y2904808D01*
X3145580Y2901500D01*
X3144804Y2897598D01*
Y2805000D01*
X3145580Y2801098D01*
X3147790Y2797790D01*
X3162790Y2782790D01*
X3166098Y2780580D01*
X3170000Y2779804D01*
X3196496D01*
Y2773583D01*
X3252953D01*
Y2806417D01*
X3196496D01*
Y2800196D01*
X3174223D01*
X3165196Y2809223D01*
Y2893375D01*
X3191625Y2919804D01*
X3267598D01*
X3271500Y2920580D01*
X3274808Y2922790D01*
X3290674Y2938657D01*
X3292884Y2941964D01*
X3293371Y2944410D01*
X3305197D01*
Y2956340D01*
X3339410D01*
Y2944803D01*
X3400590D01*
Y2960906D01*
X3428425D01*
Y2947401D01*
X3491575D01*
Y2994803D01*
X3428425D01*
Y2981298D01*
X3400590D01*
Y2988268D01*
X3339410D01*
Y2976731D01*
X3305197D01*
Y3005590D01*
D02*
G37*
G36*
X3688583Y3828937D02*
X3627992D01*
Y3761063D01*
X3688583D01*
Y3779706D01*
X3746586D01*
X3748216Y3777487D01*
X3746008Y3772147D01*
X3741221Y3771195D01*
X3733778Y3766222D01*
X3728805Y3758779D01*
X3728054Y3755000D01*
X3750000D01*
Y3750000D01*
X3755000D01*
Y3728054D01*
X3758779Y3728805D01*
X3766222Y3733778D01*
X3771195Y3741221D01*
X3772682Y3748697D01*
X3777452Y3750998D01*
X3941242Y3587208D01*
Y3041968D01*
X3942406Y3036116D01*
X3945721Y3031154D01*
X4024186Y2952689D01*
X4029147Y2949374D01*
X4035000Y2948210D01*
X4068425D01*
Y2939803D01*
X4131575D01*
Y2948210D01*
X4240069D01*
X4243604Y2943604D01*
X4249871Y2938795D01*
X4257168Y2935772D01*
X4265000Y2934741D01*
X4272832Y2935772D01*
X4280129Y2938795D01*
X4286396Y2943604D01*
X4291205Y2949871D01*
X4294228Y2957168D01*
X4295259Y2965000D01*
X4294228Y2972832D01*
X4291205Y2980129D01*
X4286396Y2986396D01*
X4280129Y2991205D01*
X4272832Y2994228D01*
X4265000Y2995259D01*
X4257168Y2994228D01*
X4249871Y2991205D01*
X4243604Y2986396D01*
X4238795Y2980129D01*
X4238243Y2978798D01*
X4131575D01*
Y2987205D01*
X4068425D01*
Y2978798D01*
X4041335D01*
X3971829Y3048303D01*
Y3593543D01*
X3970665Y3599396D01*
X3967350Y3604358D01*
X3765893Y3805814D01*
X3760932Y3809130D01*
X3755079Y3810294D01*
X3688583D01*
Y3828937D01*
D02*
G37*
G36*
X2674173Y2946575D02*
X2626772D01*
Y2915196D01*
X2598662D01*
Y2935590D01*
X2555197D01*
Y2874955D01*
X2555197Y2874410D01*
X2555197D01*
X2556732Y2870590D01*
X2556732Y2870590D01*
Y2809410D01*
X2600197D01*
Y2829804D01*
X2626772D01*
Y2808425D01*
X2674173D01*
Y2871575D01*
X2626772D01*
Y2850196D01*
X2600197D01*
Y2870045D01*
X2600197Y2870590D01*
X2600197D01*
X2598662Y2874410D01*
X2598662Y2874410D01*
Y2894804D01*
X2626772D01*
Y2883425D01*
X2674173D01*
Y2946575D01*
D02*
G37*
G36*
X3025197Y3086575D02*
X2977795D01*
Y3023425D01*
X3005080D01*
Y2906417D01*
X2987047D01*
Y2900196D01*
X2914223D01*
X2898745Y2915674D01*
X2895437Y2917884D01*
X2891535Y2918660D01*
X2824055D01*
Y2930197D01*
X2762874D01*
Y2918660D01*
X2737165D01*
Y2946575D01*
X2689764D01*
Y2883425D01*
X2737165D01*
Y2898269D01*
X2762874D01*
Y2886732D01*
X2824055D01*
Y2898269D01*
X2887312D01*
X2902790Y2882790D01*
X2906098Y2880580D01*
X2910000Y2879804D01*
X2987047D01*
Y2873583D01*
X3043504D01*
Y2906417D01*
X3025472D01*
Y3041220D01*
X3025197Y3042601D01*
Y3086575D01*
D02*
G37*
G36*
X4505000Y2871946D02*
Y2855000D01*
X4521946D01*
X4521194Y2858779D01*
X4516222Y2866222D01*
X4508779Y2871195D01*
X4505000Y2871946D01*
D02*
G37*
G36*
X4495000D02*
X4491221Y2871195D01*
X4483778Y2866222D01*
X4478806Y2858779D01*
X4478054Y2855000D01*
X4495000D01*
Y2871946D01*
D02*
G37*
G36*
X4355000D02*
Y2855000D01*
X4371946D01*
X4371194Y2858779D01*
X4366222Y2866222D01*
X4358779Y2871195D01*
X4355000Y2871946D01*
D02*
G37*
G36*
X4345000D02*
X4341221Y2871195D01*
X4333778Y2866222D01*
X4328806Y2858779D01*
X4328054Y2855000D01*
X4345000D01*
Y2871946D01*
D02*
G37*
G36*
X4205000D02*
Y2855000D01*
X4221946D01*
X4221194Y2858779D01*
X4216222Y2866222D01*
X4208779Y2871195D01*
X4205000Y2871946D01*
D02*
G37*
G36*
X4195000D02*
X4191221Y2871195D01*
X4183778Y2866222D01*
X4178806Y2858779D01*
X4178054Y2855000D01*
X4195000D01*
Y2871946D01*
D02*
G37*
G36*
X4055000D02*
Y2855000D01*
X4071946D01*
X4071195Y2858779D01*
X4066222Y2866222D01*
X4058779Y2871195D01*
X4055000Y2871946D01*
D02*
G37*
G36*
X4045000D02*
X4041221Y2871195D01*
X4033778Y2866222D01*
X4028805Y2858779D01*
X4028054Y2855000D01*
X4045000D01*
Y2871946D01*
D02*
G37*
G36*
X3905000D02*
Y2855000D01*
X3921946D01*
X3921195Y2858779D01*
X3916222Y2866222D01*
X3908779Y2871195D01*
X3905000Y2871946D01*
D02*
G37*
G36*
X3895000D02*
X3891221Y2871195D01*
X3883778Y2866222D01*
X3878805Y2858779D01*
X3878054Y2855000D01*
X3895000D01*
Y2871946D01*
D02*
G37*
G36*
X3605000D02*
Y2855000D01*
X3621946D01*
X3621195Y2858779D01*
X3616222Y2866222D01*
X3608779Y2871195D01*
X3605000Y2871946D01*
D02*
G37*
G36*
X3595000D02*
X3591221Y2871195D01*
X3583778Y2866222D01*
X3578805Y2858779D01*
X3578054Y2855000D01*
X3595000D01*
Y2871946D01*
D02*
G37*
G36*
X3455000D02*
Y2855000D01*
X3471946D01*
X3471195Y2858779D01*
X3466222Y2866222D01*
X3458779Y2871195D01*
X3455000Y2871946D01*
D02*
G37*
G36*
X3445000D02*
X3441221Y2871195D01*
X3433778Y2866222D01*
X3428805Y2858779D01*
X3428054Y2855000D01*
X3445000D01*
Y2871946D01*
D02*
G37*
G36*
X3305000D02*
Y2855000D01*
X3321946D01*
X3321195Y2858779D01*
X3316222Y2866222D01*
X3308779Y2871195D01*
X3305000Y2871946D01*
D02*
G37*
G36*
X2255000D02*
Y2855000D01*
X2271946D01*
X2271195Y2858779D01*
X2266222Y2866222D01*
X2258779Y2871195D01*
X2255000Y2871946D01*
D02*
G37*
G36*
X2245000D02*
X2241221Y2871195D01*
X2233778Y2866222D01*
X2228805Y2858779D01*
X2228054Y2855000D01*
X2245000D01*
Y2871946D01*
D02*
G37*
G36*
X2105000D02*
Y2855000D01*
X2121946D01*
X2121195Y2858779D01*
X2116222Y2866222D01*
X2108779Y2871195D01*
X2105000Y2871946D01*
D02*
G37*
G36*
X2095000D02*
X2091221Y2871195D01*
X2083778Y2866222D01*
X2078805Y2858779D01*
X2078054Y2855000D01*
X2095000D01*
Y2871946D01*
D02*
G37*
G36*
X1955000D02*
Y2855000D01*
X1971946D01*
X1971195Y2858779D01*
X1966222Y2866222D01*
X1958779Y2871195D01*
X1955000Y2871946D01*
D02*
G37*
G36*
X1945000D02*
X1941221Y2871195D01*
X1933778Y2866222D01*
X1928805Y2858779D01*
X1928054Y2855000D01*
X1945000D01*
Y2871946D01*
D02*
G37*
G36*
X2510000Y3000392D02*
X2502196Y2998840D01*
X2495581Y2994419D01*
X2491160Y2987804D01*
X2489608Y2980000D01*
X2491160Y2972196D01*
X2495581Y2965581D01*
X2499804Y2962759D01*
Y2935590D01*
X2488268D01*
Y2915196D01*
X2475000D01*
X2471098Y2914420D01*
X2467790Y2912210D01*
X2442790Y2887210D01*
X2440580Y2883902D01*
X2439804Y2880000D01*
Y2735000D01*
X2440580Y2731098D01*
X2442790Y2727790D01*
X2494804Y2675777D01*
Y2660590D01*
X2483268D01*
Y2599410D01*
X2526732D01*
Y2660590D01*
X2515196D01*
Y2680000D01*
X2514420Y2683902D01*
X2512210Y2687209D01*
X2460196Y2739223D01*
Y2875777D01*
X2479223Y2894804D01*
X2488268D01*
Y2875590D01*
X2484803D01*
Y2845000D01*
X2511536D01*
X2538268D01*
Y2875590D01*
X2531732D01*
Y2935590D01*
X2520196D01*
Y2962759D01*
X2524419Y2965581D01*
X2528840Y2972196D01*
X2530392Y2980000D01*
X2528840Y2987804D01*
X2524419Y2994419D01*
X2517804Y2998840D01*
X2510000Y3000392D01*
D02*
G37*
G36*
X4521946Y2845000D02*
X4505000D01*
Y2828054D01*
X4508779Y2828805D01*
X4516222Y2833778D01*
X4521194Y2841221D01*
X4521946Y2845000D01*
D02*
G37*
G36*
X4495000D02*
X4478054D01*
X4478806Y2841221D01*
X4483778Y2833778D01*
X4491221Y2828805D01*
X4495000Y2828054D01*
Y2845000D01*
D02*
G37*
G36*
X4371946D02*
X4355000D01*
Y2828054D01*
X4358779Y2828805D01*
X4366222Y2833778D01*
X4371194Y2841221D01*
X4371946Y2845000D01*
D02*
G37*
G36*
X4345000D02*
X4328054D01*
X4328806Y2841221D01*
X4333778Y2833778D01*
X4341221Y2828805D01*
X4345000Y2828054D01*
Y2845000D01*
D02*
G37*
G36*
X4221946D02*
X4205000D01*
Y2828054D01*
X4208779Y2828805D01*
X4216222Y2833778D01*
X4221194Y2841221D01*
X4221946Y2845000D01*
D02*
G37*
G36*
X4195000D02*
X4178054D01*
X4178806Y2841221D01*
X4183778Y2833778D01*
X4191221Y2828805D01*
X4195000Y2828054D01*
Y2845000D01*
D02*
G37*
G36*
X4071946D02*
X4055000D01*
Y2828054D01*
X4058779Y2828805D01*
X4066222Y2833778D01*
X4071195Y2841221D01*
X4071946Y2845000D01*
D02*
G37*
G36*
X4045000D02*
X4028054D01*
X4028805Y2841221D01*
X4033778Y2833778D01*
X4041221Y2828805D01*
X4045000Y2828054D01*
Y2845000D01*
D02*
G37*
G36*
X3921946D02*
X3905000D01*
Y2828054D01*
X3908779Y2828805D01*
X3916222Y2833778D01*
X3921195Y2841221D01*
X3921946Y2845000D01*
D02*
G37*
G36*
X3895000D02*
X3878054D01*
X3878805Y2841221D01*
X3883778Y2833778D01*
X3891221Y2828805D01*
X3895000Y2828054D01*
Y2845000D01*
D02*
G37*
G36*
X3621946D02*
X3605000D01*
Y2828054D01*
X3608779Y2828805D01*
X3616222Y2833778D01*
X3621195Y2841221D01*
X3621946Y2845000D01*
D02*
G37*
G36*
X3595000D02*
X3578054D01*
X3578805Y2841221D01*
X3583778Y2833778D01*
X3591221Y2828805D01*
X3595000Y2828054D01*
Y2845000D01*
D02*
G37*
G36*
X3471946D02*
X3455000D01*
Y2828054D01*
X3458779Y2828805D01*
X3466222Y2833778D01*
X3471195Y2841221D01*
X3471946Y2845000D01*
D02*
G37*
G36*
X3445000D02*
X3428054D01*
X3428805Y2841221D01*
X3433778Y2833778D01*
X3441221Y2828805D01*
X3445000Y2828054D01*
Y2845000D01*
D02*
G37*
G36*
X2271946D02*
X2255000D01*
Y2828054D01*
X2258779Y2828805D01*
X2266222Y2833778D01*
X2271195Y2841221D01*
X2271946Y2845000D01*
D02*
G37*
G36*
X2245000D02*
X2228054D01*
X2228805Y2841221D01*
X2233778Y2833778D01*
X2241221Y2828805D01*
X2245000Y2828054D01*
Y2845000D01*
D02*
G37*
G36*
X2121946D02*
X2105000D01*
Y2828054D01*
X2108779Y2828805D01*
X2116222Y2833778D01*
X2121195Y2841221D01*
X2121946Y2845000D01*
D02*
G37*
G36*
X2095000D02*
X2078054D01*
X2078805Y2841221D01*
X2083778Y2833778D01*
X2091221Y2828805D01*
X2095000Y2828054D01*
Y2845000D01*
D02*
G37*
G36*
X1971946D02*
X1955000D01*
Y2828054D01*
X1958779Y2828805D01*
X1966222Y2833778D01*
X1971195Y2841221D01*
X1971946Y2845000D01*
D02*
G37*
G36*
X1945000D02*
X1928054D01*
X1928805Y2841221D01*
X1933778Y2833778D01*
X1941221Y2828805D01*
X1945000Y2828054D01*
Y2845000D01*
D02*
G37*
G36*
X2737165Y2871575D02*
X2689764D01*
Y2808425D01*
X2737165D01*
Y2829804D01*
X2762874D01*
Y2819803D01*
X2824055D01*
Y2831340D01*
X2987047D01*
Y2823583D01*
X3043504D01*
Y2856417D01*
X2987047D01*
Y2851731D01*
X2824055D01*
Y2863268D01*
X2762874D01*
Y2850196D01*
X2737165D01*
Y2871575D01*
D02*
G37*
G36*
X2538268Y2835000D02*
X2516536D01*
Y2804410D01*
X2538268D01*
Y2835000D01*
D02*
G37*
G36*
X2506536D02*
X2484803D01*
Y2804410D01*
X2506536D01*
Y2835000D01*
D02*
G37*
G36*
X3252953Y2906417D02*
X3196496D01*
Y2873583D01*
X3214528D01*
Y2856417D01*
X3196496D01*
Y2823583D01*
X3252953D01*
Y2829804D01*
X3268375D01*
X3274804Y2823375D01*
Y2709223D01*
X3265777Y2700196D01*
X3252953D01*
Y2706417D01*
X3196496D01*
Y2700196D01*
X3043504D01*
Y2706417D01*
X2987047D01*
Y2700196D01*
X2942727D01*
X2910196Y2732727D01*
Y2745777D01*
X2944223Y2779804D01*
X2987047D01*
Y2773583D01*
X3043504D01*
Y2806417D01*
X2987047D01*
Y2800196D01*
X2940000D01*
X2936098Y2799420D01*
X2932790Y2797210D01*
X2892790Y2757210D01*
X2890580Y2753902D01*
X2889804Y2750000D01*
Y2728504D01*
X2890580Y2724602D01*
X2892790Y2721294D01*
X2931294Y2682790D01*
X2934602Y2680580D01*
X2938504Y2679804D01*
X2987047D01*
Y2673583D01*
X3043504D01*
Y2679804D01*
X3196496D01*
Y2673583D01*
X3252953D01*
Y2679804D01*
X3270000D01*
X3273902Y2680580D01*
X3277210Y2682790D01*
X3292210Y2697790D01*
X3294420Y2701098D01*
X3295196Y2705000D01*
Y2822917D01*
X3300000Y2827059D01*
X3308779Y2828805D01*
X3316222Y2833778D01*
X3321195Y2841221D01*
X3321946Y2845000D01*
X3300000D01*
Y2850000D01*
X3295000D01*
Y2871946D01*
X3291221Y2871195D01*
X3283778Y2866222D01*
X3278805Y2858779D01*
X3277828Y2853866D01*
X3276678Y2850017D01*
X3272598Y2850196D01*
X3252953D01*
Y2856417D01*
X3234920D01*
Y2873583D01*
X3252953D01*
Y2906417D01*
D02*
G37*
G36*
X3257953Y2761417D02*
X3229724D01*
Y2745000D01*
X3257953D01*
Y2761417D01*
D02*
G37*
G36*
X3219724D02*
X3191496D01*
Y2745000D01*
X3219724D01*
Y2761417D01*
D02*
G37*
G36*
X2945000Y2760392D02*
X2937196Y2758840D01*
X2930581Y2754419D01*
X2926160Y2747804D01*
X2924608Y2740000D01*
X2926160Y2732196D01*
X2930581Y2725581D01*
X2937196Y2721160D01*
X2945000Y2719608D01*
X2952804Y2721160D01*
X2959419Y2725581D01*
X2962241Y2729804D01*
X2987047D01*
Y2723583D01*
X3043504D01*
Y2756417D01*
X2987047D01*
Y2750196D01*
X2962241D01*
X2959419Y2754419D01*
X2952804Y2758840D01*
X2945000Y2760392D01*
D02*
G37*
G36*
X3257953Y2735000D02*
X3229724D01*
Y2718583D01*
X3257953D01*
Y2735000D01*
D02*
G37*
G36*
X3219724D02*
X3191496D01*
Y2718583D01*
X3219724D01*
Y2735000D01*
D02*
G37*
G36*
X4430000Y2721946D02*
Y2705000D01*
X4446946D01*
X4446194Y2708779D01*
X4441222Y2716222D01*
X4433779Y2721195D01*
X4430000Y2721946D01*
D02*
G37*
G36*
X4420000D02*
X4416221Y2721195D01*
X4408778Y2716222D01*
X4403806Y2708779D01*
X4403054Y2705000D01*
X4420000D01*
Y2721946D01*
D02*
G37*
G36*
X4280000D02*
Y2705000D01*
X4296946D01*
X4296194Y2708779D01*
X4291222Y2716222D01*
X4283779Y2721195D01*
X4280000Y2721946D01*
D02*
G37*
G36*
X4270000D02*
X4266221Y2721195D01*
X4258778Y2716222D01*
X4253806Y2708779D01*
X4253054Y2705000D01*
X4270000D01*
Y2721946D01*
D02*
G37*
G36*
X3830000D02*
Y2705000D01*
X3846946D01*
X3846195Y2708779D01*
X3841222Y2716222D01*
X3833779Y2721195D01*
X3830000Y2721946D01*
D02*
G37*
G36*
X3820000D02*
X3816221Y2721195D01*
X3808778Y2716222D01*
X3803805Y2708779D01*
X3803054Y2705000D01*
X3820000D01*
Y2721946D01*
D02*
G37*
G36*
X2780000D02*
Y2705000D01*
X2796946D01*
X2796195Y2708779D01*
X2791222Y2716222D01*
X2783779Y2721195D01*
X2780000Y2721946D01*
D02*
G37*
G36*
X2770000D02*
X2766221Y2721195D01*
X2758778Y2716222D01*
X2753805Y2708779D01*
X2753054Y2705000D01*
X2770000D01*
Y2721946D01*
D02*
G37*
G36*
X2630000D02*
Y2705000D01*
X2646946D01*
X2646195Y2708779D01*
X2641222Y2716222D01*
X2633779Y2721195D01*
X2630000Y2721946D01*
D02*
G37*
G36*
X2620000D02*
X2616221Y2721195D01*
X2608778Y2716222D01*
X2603805Y2708779D01*
X2603054Y2705000D01*
X2620000D01*
Y2721946D01*
D02*
G37*
G36*
X2330000D02*
Y2705000D01*
X2346946D01*
X2346195Y2708779D01*
X2341222Y2716222D01*
X2333779Y2721195D01*
X2330000Y2721946D01*
D02*
G37*
G36*
X2320000D02*
X2316221Y2721195D01*
X2308778Y2716222D01*
X2303805Y2708779D01*
X2303054Y2705000D01*
X2320000D01*
Y2721946D01*
D02*
G37*
G36*
X2180000D02*
Y2705000D01*
X2196946D01*
X2196195Y2708779D01*
X2191222Y2716222D01*
X2183779Y2721195D01*
X2180000Y2721946D01*
D02*
G37*
G36*
X2170000D02*
X2166221Y2721195D01*
X2158778Y2716222D01*
X2153805Y2708779D01*
X2153054Y2705000D01*
X2170000D01*
Y2721946D01*
D02*
G37*
G36*
X2030000D02*
Y2705000D01*
X2046946D01*
X2046195Y2708779D01*
X2041222Y2716222D01*
X2033779Y2721195D01*
X2030000Y2721946D01*
D02*
G37*
G36*
X2020000D02*
X2016221Y2721195D01*
X2008778Y2716222D01*
X2003805Y2708779D01*
X2003054Y2705000D01*
X2020000D01*
Y2721946D01*
D02*
G37*
G36*
X1880000D02*
Y2705000D01*
X1896946D01*
X1896195Y2708779D01*
X1891222Y2716222D01*
X1883779Y2721195D01*
X1880000Y2721946D01*
D02*
G37*
G36*
X1870000D02*
X1866221Y2721195D01*
X1858778Y2716222D01*
X1853805Y2708779D01*
X1853054Y2705000D01*
X1870000D01*
Y2721946D01*
D02*
G37*
G36*
X4446946Y2695000D02*
X4430000D01*
Y2678054D01*
X4433779Y2678805D01*
X4441222Y2683778D01*
X4446194Y2691221D01*
X4446946Y2695000D01*
D02*
G37*
G36*
X4420000D02*
X4403054D01*
X4403806Y2691221D01*
X4408778Y2683778D01*
X4416221Y2678805D01*
X4420000Y2678054D01*
Y2695000D01*
D02*
G37*
G36*
X4296946D02*
X4280000D01*
Y2678054D01*
X4283779Y2678805D01*
X4291222Y2683778D01*
X4296194Y2691221D01*
X4296946Y2695000D01*
D02*
G37*
G36*
X4270000D02*
X4253054D01*
X4253806Y2691221D01*
X4258778Y2683778D01*
X4266221Y2678805D01*
X4270000Y2678054D01*
Y2695000D01*
D02*
G37*
G36*
X3846946D02*
X3830000D01*
Y2678054D01*
X3833779Y2678805D01*
X3841222Y2683778D01*
X3846195Y2691221D01*
X3846946Y2695000D01*
D02*
G37*
G36*
X3820000D02*
X3803054D01*
X3803805Y2691221D01*
X3808778Y2683778D01*
X3816221Y2678805D01*
X3820000Y2678054D01*
Y2695000D01*
D02*
G37*
G36*
X2796946D02*
X2780000D01*
Y2678054D01*
X2783779Y2678805D01*
X2791222Y2683778D01*
X2796195Y2691221D01*
X2796946Y2695000D01*
D02*
G37*
G36*
X2770000D02*
X2753054D01*
X2753805Y2691221D01*
X2758778Y2683778D01*
X2766221Y2678805D01*
X2770000Y2678054D01*
Y2695000D01*
D02*
G37*
G36*
X2646946D02*
X2630000D01*
Y2678054D01*
X2633779Y2678805D01*
X2641222Y2683778D01*
X2646195Y2691221D01*
X2646946Y2695000D01*
D02*
G37*
G36*
X2620000D02*
X2603054D01*
X2603805Y2691221D01*
X2608778Y2683778D01*
X2616221Y2678805D01*
X2620000Y2678054D01*
Y2695000D01*
D02*
G37*
G36*
X2346946D02*
X2330000D01*
Y2678054D01*
X2333779Y2678805D01*
X2341222Y2683778D01*
X2346195Y2691221D01*
X2346946Y2695000D01*
D02*
G37*
G36*
X2320000D02*
X2303054D01*
X2303805Y2691221D01*
X2308778Y2683778D01*
X2316221Y2678805D01*
X2320000Y2678054D01*
Y2695000D01*
D02*
G37*
G36*
X2196946D02*
X2180000D01*
Y2678054D01*
X2183779Y2678805D01*
X2191222Y2683778D01*
X2196195Y2691221D01*
X2196946Y2695000D01*
D02*
G37*
G36*
X2170000D02*
X2153054D01*
X2153805Y2691221D01*
X2158778Y2683778D01*
X2166221Y2678805D01*
X2170000Y2678054D01*
Y2695000D01*
D02*
G37*
G36*
X2046946D02*
X2030000D01*
Y2678054D01*
X2033779Y2678805D01*
X2041222Y2683778D01*
X2046195Y2691221D01*
X2046946Y2695000D01*
D02*
G37*
G36*
X2020000D02*
X2003054D01*
X2003805Y2691221D01*
X2008778Y2683778D01*
X2016221Y2678805D01*
X2020000Y2678054D01*
Y2695000D01*
D02*
G37*
G36*
X1896946D02*
X1880000D01*
Y2678054D01*
X1883779Y2678805D01*
X1891222Y2683778D01*
X1896195Y2691221D01*
X1896946Y2695000D01*
D02*
G37*
G36*
X1870000D02*
X1853054D01*
X1853805Y2691221D01*
X1858778Y2683778D01*
X1866221Y2678805D01*
X1870000Y2678054D01*
Y2695000D01*
D02*
G37*
G36*
X3462205Y2681575D02*
X3414803D01*
Y2660196D01*
X3379299D01*
Y2665197D01*
X3318118D01*
Y2653660D01*
X3252953D01*
Y2656417D01*
X3196496D01*
Y2623583D01*
X3252953D01*
Y2633269D01*
X3318118D01*
Y2621732D01*
X3379299D01*
Y2639804D01*
X3414803D01*
Y2618425D01*
X3462205D01*
Y2681575D01*
D02*
G37*
G36*
X3666489Y2685590D02*
X3644756D01*
Y2655000D01*
X3666489D01*
Y2685590D01*
D02*
G37*
G36*
X3634756D02*
X3613024D01*
Y2655000D01*
X3634756D01*
Y2685590D01*
D02*
G37*
G36*
X2680669Y2661575D02*
X2633268D01*
Y2640196D01*
X2593662D01*
Y2660590D01*
X2550197D01*
Y2599410D01*
X2561733D01*
Y2580590D01*
X2551732D01*
Y2519410D01*
X2595197D01*
Y2539804D01*
X2628268D01*
Y2521457D01*
X2675669D01*
Y2584606D01*
X2628268D01*
Y2560196D01*
X2595197D01*
Y2580590D01*
X2582125D01*
Y2599410D01*
X2593662D01*
Y2619804D01*
X2633268D01*
Y2598425D01*
X2680669D01*
Y2661575D01*
D02*
G37*
G36*
X2743662D02*
X2696260D01*
Y2598425D01*
X2743662D01*
Y2613269D01*
X2767874D01*
Y2601732D01*
X2829055D01*
Y2613269D01*
X2895000D01*
X2898902Y2614045D01*
X2902210Y2616255D01*
X2915759Y2629804D01*
X2987047D01*
Y2623583D01*
X3043504D01*
Y2656417D01*
X2987047D01*
Y2650196D01*
X2911535D01*
X2907634Y2649420D01*
X2904326Y2647210D01*
X2890777Y2633660D01*
X2829055D01*
Y2645197D01*
X2767874D01*
Y2633660D01*
X2743662D01*
Y2661575D01*
D02*
G37*
G36*
X3666489Y2645000D02*
X3644756D01*
Y2614410D01*
X3666489D01*
Y2645000D01*
D02*
G37*
G36*
X3634756D02*
X3613024D01*
Y2614410D01*
X3634756D01*
Y2645000D01*
D02*
G37*
G36*
X3525197Y2681575D02*
X3477795D01*
Y2618425D01*
X3525197D01*
Y2639804D01*
X3551095D01*
Y2619410D01*
X3561340D01*
Y2605590D01*
X3549803D01*
Y2585196D01*
X3525197D01*
Y2606575D01*
X3477795D01*
Y2543425D01*
X3525197D01*
Y2564804D01*
X3549803D01*
Y2544410D01*
X3593268D01*
Y2605590D01*
X3581731D01*
Y2619410D01*
X3594560D01*
Y2680590D01*
X3551095D01*
Y2660196D01*
X3525197D01*
Y2681575D01*
D02*
G37*
G36*
X3462205Y2606575D02*
X3414803D01*
Y2585196D01*
X3379299D01*
Y2598268D01*
X3318118D01*
Y2586731D01*
X3292688D01*
X3282210Y2597210D01*
X3278902Y2599420D01*
X3275000Y2600196D01*
X3252953D01*
Y2606417D01*
X3196496D01*
Y2573583D01*
X3214528D01*
Y2571811D01*
X3215305Y2567909D01*
X3217515Y2564602D01*
X3238324Y2543793D01*
X3236410Y2539173D01*
X3229803D01*
Y2476024D01*
X3277205D01*
Y2539173D01*
X3263700D01*
Y2543032D01*
X3262924Y2546933D01*
X3260714Y2550241D01*
X3241991Y2568963D01*
X3243905Y2573583D01*
X3252953D01*
Y2579804D01*
X3270777D01*
X3281255Y2569326D01*
X3284563Y2567116D01*
X3288465Y2566340D01*
X3318118D01*
Y2554803D01*
X3379299D01*
Y2564804D01*
X3414803D01*
Y2543425D01*
X3462205D01*
Y2606575D01*
D02*
G37*
G36*
X3043504Y2606417D02*
X2987047D01*
Y2600196D01*
X2921535D01*
X2917633Y2599420D01*
X2914326Y2597210D01*
X2883848Y2566731D01*
X2829055D01*
Y2578268D01*
X2767874D01*
Y2566731D01*
X2738662D01*
Y2584606D01*
X2691260D01*
Y2521457D01*
X2738662D01*
Y2546340D01*
X2767874D01*
Y2534803D01*
X2788269D01*
Y2519184D01*
X2746294Y2477210D01*
X2744084Y2473902D01*
X2743308Y2470000D01*
Y2446575D01*
X2729803D01*
Y2383425D01*
X2777205D01*
Y2446575D01*
X2763700D01*
Y2465777D01*
X2805674Y2507751D01*
X2807884Y2511059D01*
X2808660Y2514961D01*
Y2534803D01*
X2829055D01*
Y2546340D01*
X2888071D01*
X2891973Y2547116D01*
X2895280Y2549326D01*
X2925759Y2579804D01*
X2983512D01*
X2987047Y2576269D01*
Y2573583D01*
X2987312Y2568583D01*
X2983778Y2566222D01*
X2978805Y2558779D01*
X2978054Y2555000D01*
X3021946D01*
X3021195Y2558779D01*
X3016222Y2566222D01*
X3012688Y2568583D01*
X3014205Y2573583D01*
X3043504D01*
Y2606417D01*
D02*
G37*
G36*
X2533268Y2585590D02*
X2511535D01*
Y2555000D01*
X2533268D01*
Y2585590D01*
D02*
G37*
G36*
X4355000Y2571946D02*
Y2555000D01*
X4371946D01*
X4371194Y2558779D01*
X4366222Y2566222D01*
X4358779Y2571195D01*
X4355000Y2571946D01*
D02*
G37*
G36*
X4345000D02*
X4341221Y2571195D01*
X4333778Y2566222D01*
X4328806Y2558779D01*
X4328054Y2555000D01*
X4345000D01*
Y2571946D01*
D02*
G37*
G36*
X3905000D02*
Y2555000D01*
X3921946D01*
X3921195Y2558779D01*
X3916222Y2566222D01*
X3908779Y2571195D01*
X3905000Y2571946D01*
D02*
G37*
G36*
X3895000D02*
X3891221Y2571195D01*
X3883778Y2566222D01*
X3878805Y2558779D01*
X3878054Y2555000D01*
X3895000D01*
Y2571946D01*
D02*
G37*
G36*
X3755000D02*
Y2555000D01*
X3771946D01*
X3771195Y2558779D01*
X3766222Y2566222D01*
X3758779Y2571195D01*
X3755000Y2571946D01*
D02*
G37*
G36*
X3745000D02*
X3741221Y2571195D01*
X3733778Y2566222D01*
X3728805Y2558779D01*
X3728054Y2555000D01*
X3745000D01*
Y2571946D01*
D02*
G37*
G36*
X3155000D02*
Y2555000D01*
X3171946D01*
X3171195Y2558779D01*
X3166222Y2566222D01*
X3158779Y2571195D01*
X3155000Y2571946D01*
D02*
G37*
G36*
X3145000D02*
X3141221Y2571195D01*
X3133778Y2566222D01*
X3128805Y2558779D01*
X3128054Y2555000D01*
X3145000D01*
Y2571946D01*
D02*
G37*
G36*
X2255000D02*
Y2555000D01*
X2271946D01*
X2271195Y2558779D01*
X2266222Y2566222D01*
X2258779Y2571195D01*
X2255000Y2571946D01*
D02*
G37*
G36*
X2245000D02*
X2241221Y2571195D01*
X2233778Y2566222D01*
X2228805Y2558779D01*
X2228054Y2555000D01*
X2245000D01*
Y2571946D01*
D02*
G37*
G36*
X2105000D02*
Y2555000D01*
X2121946D01*
X2121195Y2558779D01*
X2116222Y2566222D01*
X2108779Y2571195D01*
X2105000Y2571946D01*
D02*
G37*
G36*
X2095000D02*
X2091221Y2571195D01*
X2083778Y2566222D01*
X2078805Y2558779D01*
X2078054Y2555000D01*
X2095000D01*
Y2571946D01*
D02*
G37*
G36*
X1955000D02*
Y2555000D01*
X1971946D01*
X1971195Y2558779D01*
X1966222Y2566222D01*
X1958779Y2571195D01*
X1955000Y2571946D01*
D02*
G37*
G36*
X1945000D02*
X1941221Y2571195D01*
X1933778Y2566222D01*
X1928805Y2558779D01*
X1928054Y2555000D01*
X1945000D01*
Y2571946D01*
D02*
G37*
G36*
X2501535Y2585590D02*
X2479803D01*
Y2555000D01*
X2501535D01*
Y2585590D01*
D02*
G37*
G36*
X4371946Y2545000D02*
X4355000D01*
Y2528054D01*
X4358779Y2528805D01*
X4366222Y2533778D01*
X4371194Y2541221D01*
X4371946Y2545000D01*
D02*
G37*
G36*
X4345000D02*
X4328054D01*
X4328806Y2541221D01*
X4333778Y2533778D01*
X4341221Y2528805D01*
X4345000Y2528054D01*
Y2545000D01*
D02*
G37*
G36*
X3921946D02*
X3905000D01*
Y2528054D01*
X3908779Y2528805D01*
X3916222Y2533778D01*
X3921195Y2541221D01*
X3921946Y2545000D01*
D02*
G37*
G36*
X3895000D02*
X3878054D01*
X3878805Y2541221D01*
X3883778Y2533778D01*
X3891221Y2528805D01*
X3895000Y2528054D01*
Y2545000D01*
D02*
G37*
G36*
X3771946D02*
X3755000D01*
Y2528054D01*
X3758779Y2528805D01*
X3766222Y2533778D01*
X3771195Y2541221D01*
X3771946Y2545000D01*
D02*
G37*
G36*
X3745000D02*
X3728054D01*
X3728805Y2541221D01*
X3733778Y2533778D01*
X3741221Y2528805D01*
X3745000Y2528054D01*
Y2545000D01*
D02*
G37*
G36*
X3171946D02*
X3155000D01*
Y2528054D01*
X3158779Y2528805D01*
X3166222Y2533778D01*
X3171195Y2541221D01*
X3171946Y2545000D01*
D02*
G37*
G36*
X3145000D02*
X3128054D01*
X3128805Y2541221D01*
X3133778Y2533778D01*
X3141221Y2528805D01*
X3145000Y2528054D01*
Y2545000D01*
D02*
G37*
G36*
X3021946D02*
X3005000D01*
Y2528054D01*
X3008779Y2528805D01*
X3016222Y2533778D01*
X3021195Y2541221D01*
X3021946Y2545000D01*
D02*
G37*
G36*
X2995000D02*
X2978054D01*
X2978805Y2541221D01*
X2983778Y2533778D01*
X2991221Y2528805D01*
X2995000Y2528054D01*
Y2545000D01*
D02*
G37*
G36*
X2271946D02*
X2255000D01*
Y2528054D01*
X2258779Y2528805D01*
X2266222Y2533778D01*
X2271195Y2541221D01*
X2271946Y2545000D01*
D02*
G37*
G36*
X2245000D02*
X2228054D01*
X2228805Y2541221D01*
X2233778Y2533778D01*
X2241221Y2528805D01*
X2245000Y2528054D01*
Y2545000D01*
D02*
G37*
G36*
X2121946D02*
X2105000D01*
Y2528054D01*
X2108779Y2528805D01*
X2116222Y2533778D01*
X2121195Y2541221D01*
X2121946Y2545000D01*
D02*
G37*
G36*
X2095000D02*
X2078054D01*
X2078805Y2541221D01*
X2083778Y2533778D01*
X2091221Y2528805D01*
X2095000Y2528054D01*
Y2545000D01*
D02*
G37*
G36*
X1971946D02*
X1955000D01*
Y2528054D01*
X1958779Y2528805D01*
X1966222Y2533778D01*
X1971195Y2541221D01*
X1971946Y2545000D01*
D02*
G37*
G36*
X1945000D02*
X1928054D01*
X1928805Y2541221D01*
X1933778Y2533778D01*
X1941221Y2528805D01*
X1945000Y2528054D01*
Y2545000D01*
D02*
G37*
G36*
X2533268D02*
X2511535D01*
Y2514410D01*
X2533268D01*
Y2545000D01*
D02*
G37*
G36*
X2501535D02*
X2479803D01*
Y2514410D01*
X2501535D01*
Y2545000D01*
D02*
G37*
G36*
X3716575Y2475197D02*
X3653425D01*
Y2463660D01*
X3625590D01*
Y2475197D01*
X3564410D01*
Y2463660D01*
X3513465D01*
X3509563Y2462884D01*
X3506255Y2460674D01*
X3487003Y2441422D01*
X3484793Y2438114D01*
X3484017Y2434213D01*
Y2422716D01*
X3470512D01*
Y2377284D01*
X3484017D01*
Y2313436D01*
X3265049Y2094468D01*
X3264735Y2094709D01*
X3257438Y2097732D01*
X3249606Y2098763D01*
X3241774Y2097732D01*
X3234477Y2094709D01*
X3228210Y2089900D01*
X3223401Y2083633D01*
X3220378Y2076336D01*
X3219347Y2068504D01*
X3220378Y2060672D01*
X3223401Y2053375D01*
X3228210Y2047108D01*
X3234477Y2042299D01*
X3239554Y2040196D01*
X3238559Y2035196D01*
X3160653D01*
X3159658Y2040196D01*
X3164735Y2042299D01*
X3171002Y2047108D01*
X3175811Y2053375D01*
X3178834Y2060672D01*
X3179865Y2068504D01*
X3178834Y2076336D01*
X3175811Y2083633D01*
X3171002Y2089900D01*
X3164735Y2094709D01*
X3157438Y2097732D01*
X3149606Y2098763D01*
X3141774Y2097732D01*
X3134477Y2094709D01*
X3128210Y2089900D01*
X3123401Y2083633D01*
X3120378Y2076336D01*
X3120196Y2074952D01*
X3115196Y2075279D01*
Y2115000D01*
X3114420Y2118902D01*
X3112210Y2122210D01*
X3077210Y2157210D01*
X3073902Y2159420D01*
X3070000Y2160196D01*
X2899223D01*
X2837210Y2222210D01*
X2833902Y2224420D01*
X2830000Y2225196D01*
X2717241D01*
X2714419Y2229419D01*
X2707804Y2233840D01*
X2700000Y2235392D01*
X2692196Y2233840D01*
X2685581Y2229419D01*
X2681160Y2222804D01*
X2679608Y2215000D01*
X2681160Y2207196D01*
X2685581Y2200581D01*
X2692196Y2196160D01*
X2700000Y2194608D01*
X2707804Y2196160D01*
X2714419Y2200581D01*
X2717241Y2204804D01*
X2825777D01*
X2887790Y2142790D01*
X2891098Y2140580D01*
X2895000Y2139804D01*
X3065777D01*
X3094804Y2110777D01*
Y2041850D01*
X3095580Y2037948D01*
X3097790Y2034640D01*
X3112235Y2020196D01*
X3110164Y2015196D01*
X2805197D01*
Y2035591D01*
X2798621D01*
Y2049882D01*
X2812126D01*
Y2095315D01*
X2764724D01*
Y2049882D01*
X2778229D01*
Y2035591D01*
X2761732D01*
Y1974409D01*
X2805197D01*
Y1994804D01*
X2926387D01*
X2928074Y1990266D01*
X2928136Y1989804D01*
X2923401Y1983633D01*
X2920378Y1976336D01*
X2919347Y1968504D01*
X2920378Y1960672D01*
X2923401Y1953375D01*
X2928210Y1947108D01*
X2934477Y1942299D01*
X2941774Y1939276D01*
X2949606Y1938245D01*
X2957438Y1939276D01*
X2964735Y1942299D01*
X2971002Y1947108D01*
X2975811Y1953375D01*
X2978834Y1960672D01*
X2979865Y1968504D01*
X2978834Y1976336D01*
X2975811Y1983633D01*
X2971076Y1989804D01*
X2971138Y1990266D01*
X2972825Y1994804D01*
X3026387D01*
X3028074Y1990266D01*
X3028136Y1989804D01*
X3023401Y1983633D01*
X3020378Y1976336D01*
X3019347Y1968504D01*
X3020378Y1960672D01*
X3023401Y1953375D01*
X3028210Y1947108D01*
X3034477Y1942299D01*
X3041774Y1939276D01*
X3049606Y1938245D01*
X3057438Y1939276D01*
X3064735Y1942299D01*
X3071002Y1947108D01*
X3075811Y1953375D01*
X3078834Y1960672D01*
X3079865Y1968504D01*
X3078834Y1976336D01*
X3075811Y1983633D01*
X3071076Y1989804D01*
X3071138Y1990266D01*
X3072825Y1994804D01*
X3108887D01*
X3122422Y1981269D01*
X3120378Y1976336D01*
X3119347Y1968504D01*
X3120378Y1960672D01*
X3123401Y1953375D01*
X3128210Y1947108D01*
X3134477Y1942299D01*
X3141774Y1939276D01*
X3149606Y1938245D01*
X3157438Y1939276D01*
X3164735Y1942299D01*
X3171002Y1947108D01*
X3175811Y1953375D01*
X3178834Y1960672D01*
X3179865Y1968504D01*
X3178834Y1976336D01*
X3175811Y1983633D01*
X3171002Y1989900D01*
X3164735Y1994709D01*
X3157438Y1997732D01*
X3149606Y1998763D01*
X3141774Y1997732D01*
X3136841Y1995688D01*
X3122725Y2009804D01*
X3124796Y2014804D01*
X3315000D01*
X3318902Y2015580D01*
X3322210Y2017790D01*
X3343472Y2039053D01*
X3349606Y2038245D01*
X3357438Y2039276D01*
X3364735Y2042299D01*
X3371002Y2047108D01*
X3375811Y2053375D01*
X3377855Y2058308D01*
X3727759D01*
X3730581Y2054085D01*
X3737196Y2049664D01*
X3745000Y2048112D01*
X3752804Y2049664D01*
X3759419Y2054085D01*
X3763840Y2060700D01*
X3765392Y2068504D01*
X3763840Y2076308D01*
X3759419Y2082923D01*
X3752804Y2087344D01*
X3745000Y2088896D01*
X3737196Y2087344D01*
X3730581Y2082923D01*
X3727759Y2078700D01*
X3692621D01*
X3691104Y2083700D01*
X3691222Y2083778D01*
X3696195Y2091221D01*
X3696946Y2095000D01*
X3653054D01*
X3653805Y2091221D01*
X3658778Y2083778D01*
X3658896Y2083700D01*
X3657379Y2078700D01*
X3377855D01*
X3375811Y2083633D01*
X3371002Y2089900D01*
X3364735Y2094709D01*
X3357438Y2097732D01*
X3349606Y2098763D01*
X3341774Y2097732D01*
X3334477Y2094709D01*
X3328210Y2089900D01*
X3323401Y2083633D01*
X3320378Y2076336D01*
X3319347Y2068504D01*
X3320378Y2060672D01*
X3323401Y2053375D01*
X3325813Y2050232D01*
X3310777Y2035196D01*
X3260653D01*
X3259658Y2040196D01*
X3264735Y2042299D01*
X3271002Y2047108D01*
X3275811Y2053375D01*
X3278834Y2060672D01*
X3279865Y2068504D01*
X3278834Y2076336D01*
X3277932Y2078513D01*
X3501422Y2302003D01*
X3503632Y2305311D01*
X3504409Y2309213D01*
Y2377284D01*
X3517913D01*
Y2422716D01*
X3504409D01*
Y2429989D01*
X3517688Y2443269D01*
X3564410D01*
Y2431732D01*
X3625590D01*
Y2443269D01*
X3653425D01*
Y2427795D01*
X3716575D01*
Y2475197D01*
D02*
G37*
G36*
X2571929Y2500392D02*
X2564126Y2498840D01*
X2557510Y2494419D01*
X2553090Y2487804D01*
X2551537Y2480000D01*
X2552528Y2475018D01*
X2536924Y2459414D01*
X2534714Y2456106D01*
X2533938Y2452205D01*
Y2434213D01*
X2519449D01*
Y2401811D01*
X2519449Y2400591D01*
Y2396811D01*
X2519449Y2395590D01*
Y2364410D01*
X2519449Y2363189D01*
Y2359410D01*
X2519449Y2358189D01*
Y2325787D01*
X2568819D01*
Y2332403D01*
X2602636D01*
X2604608Y2330000D01*
X2606160Y2322196D01*
X2610581Y2315581D01*
X2617196Y2311160D01*
X2625000Y2309608D01*
X2632804Y2311160D01*
X2639419Y2315581D01*
X2643840Y2322196D01*
X2645392Y2330000D01*
X2643840Y2337804D01*
X2639419Y2344419D01*
X2632804Y2348840D01*
X2625000Y2350392D01*
X2620018Y2349401D01*
X2619611Y2349808D01*
X2616303Y2352018D01*
X2612401Y2352794D01*
X2572354D01*
X2568819Y2356330D01*
X2568819Y2363189D01*
X2568819Y2364410D01*
Y2369804D01*
X2682759D01*
X2685581Y2365581D01*
X2692196Y2361160D01*
X2700000Y2359608D01*
X2707804Y2361160D01*
X2714419Y2365581D01*
X2718840Y2372196D01*
X2720392Y2380000D01*
X2718840Y2387804D01*
X2714419Y2394419D01*
X2707804Y2398840D01*
X2700000Y2400392D01*
X2692196Y2398840D01*
X2685581Y2394419D01*
X2682759Y2390196D01*
X2572354D01*
X2568819Y2393731D01*
X2568819Y2400591D01*
X2568819Y2401811D01*
Y2434213D01*
X2554330D01*
Y2447981D01*
X2566948Y2460599D01*
X2571929Y2459608D01*
X2579733Y2461160D01*
X2586348Y2465581D01*
X2590769Y2472196D01*
X2592321Y2480000D01*
X2590769Y2487804D01*
X2586348Y2494419D01*
X2579733Y2498840D01*
X2571929Y2500392D01*
D02*
G37*
G36*
X3278268Y2470590D02*
X3256536D01*
Y2440000D01*
X3278268D01*
Y2470590D01*
D02*
G37*
G36*
X3246536D02*
X3224803D01*
Y2440000D01*
X3246536D01*
Y2470590D01*
D02*
G37*
G36*
X3340197Y2539173D02*
X3292795D01*
Y2476024D01*
X3306300D01*
Y2465590D01*
X3296732D01*
Y2404410D01*
X3340197D01*
Y2424804D01*
X3372087D01*
Y2414685D01*
X3419488D01*
Y2460118D01*
X3372087D01*
Y2445196D01*
X3340197D01*
Y2465590D01*
X3326692D01*
Y2476024D01*
X3340197D01*
Y2539173D01*
D02*
G37*
G36*
X4280000Y2421946D02*
Y2405000D01*
X4296946D01*
X4296194Y2408779D01*
X4291222Y2416222D01*
X4283779Y2421195D01*
X4280000Y2421946D01*
D02*
G37*
G36*
X4270000D02*
X4266221Y2421195D01*
X4258778Y2416222D01*
X4253806Y2408779D01*
X4253054Y2405000D01*
X4270000D01*
Y2421946D01*
D02*
G37*
G36*
X3980000D02*
Y2405000D01*
X3996946D01*
X3996195Y2408779D01*
X3991222Y2416222D01*
X3983779Y2421195D01*
X3980000Y2421946D01*
D02*
G37*
G36*
X3970000D02*
X3966221Y2421195D01*
X3958778Y2416222D01*
X3953805Y2408779D01*
X3953054Y2405000D01*
X3970000D01*
Y2421946D01*
D02*
G37*
G36*
X3830000D02*
Y2405000D01*
X3846946D01*
X3846195Y2408779D01*
X3841222Y2416222D01*
X3833779Y2421195D01*
X3830000Y2421946D01*
D02*
G37*
G36*
X3820000D02*
X3816221Y2421195D01*
X3808778Y2416222D01*
X3803805Y2408779D01*
X3803054Y2405000D01*
X3820000D01*
Y2421946D01*
D02*
G37*
G36*
X3080000D02*
Y2405000D01*
X3096946D01*
X3096195Y2408779D01*
X3091222Y2416222D01*
X3083779Y2421195D01*
X3080000Y2421946D01*
D02*
G37*
G36*
X3070000D02*
X3066221Y2421195D01*
X3058778Y2416222D01*
X3053805Y2408779D01*
X3053054Y2405000D01*
X3070000D01*
Y2421946D01*
D02*
G37*
G36*
X2330000D02*
Y2405000D01*
X2346946D01*
X2346195Y2408779D01*
X2341222Y2416222D01*
X2333779Y2421195D01*
X2330000Y2421946D01*
D02*
G37*
G36*
X2320000D02*
X2316221Y2421195D01*
X2308778Y2416222D01*
X2303805Y2408779D01*
X2303054Y2405000D01*
X2320000D01*
Y2421946D01*
D02*
G37*
G36*
X2180000D02*
Y2405000D01*
X2196946D01*
X2196195Y2408779D01*
X2191222Y2416222D01*
X2183779Y2421195D01*
X2180000Y2421946D01*
D02*
G37*
G36*
X2170000D02*
X2166221Y2421195D01*
X2158778Y2416222D01*
X2153805Y2408779D01*
X2153054Y2405000D01*
X2170000D01*
Y2421946D01*
D02*
G37*
G36*
X2030000D02*
Y2405000D01*
X2046946D01*
X2046195Y2408779D01*
X2041222Y2416222D01*
X2033779Y2421195D01*
X2030000Y2421946D01*
D02*
G37*
G36*
X2020000D02*
X2016221Y2421195D01*
X2008778Y2416222D01*
X2003805Y2408779D01*
X2003054Y2405000D01*
X2020000D01*
Y2421946D01*
D02*
G37*
G36*
X3278268Y2430000D02*
X3256536D01*
Y2399410D01*
X3278268D01*
Y2430000D01*
D02*
G37*
G36*
X3246536D02*
X3224803D01*
Y2399410D01*
X3246536D01*
Y2430000D01*
D02*
G37*
G36*
X2840197Y2446575D02*
X2792795D01*
Y2383425D01*
X2806300D01*
Y2355590D01*
X2796732D01*
Y2294410D01*
X2840197D01*
Y2355590D01*
X2826692D01*
Y2383425D01*
X2840197D01*
Y2404804D01*
X2852087D01*
Y2394685D01*
X2899488D01*
Y2440118D01*
X2852087D01*
Y2425196D01*
X2840197D01*
Y2446575D01*
D02*
G37*
G36*
X3721575Y2417205D02*
X3690000D01*
Y2393504D01*
X3721575D01*
Y2417205D01*
D02*
G37*
G36*
X3680000D02*
X3648425D01*
Y2393504D01*
X3680000D01*
Y2417205D01*
D02*
G37*
G36*
X3630590Y2413268D02*
X3600000D01*
Y2391536D01*
X3630590D01*
Y2413268D01*
D02*
G37*
G36*
X3590000D02*
X3559410D01*
Y2391536D01*
X3590000D01*
Y2413268D01*
D02*
G37*
G36*
X3096946Y2395000D02*
X3080000D01*
Y2378054D01*
X3083779Y2378805D01*
X3091222Y2383778D01*
X3096195Y2391221D01*
X3096946Y2395000D01*
D02*
G37*
G36*
X3070000D02*
X3053054D01*
X3053805Y2391221D01*
X3058778Y2383778D01*
X3066221Y2378805D01*
X3070000Y2378054D01*
Y2395000D01*
D02*
G37*
G36*
X2346946D02*
X2330000D01*
Y2378054D01*
X2333779Y2378805D01*
X2341222Y2383778D01*
X2346195Y2391221D01*
X2346946Y2395000D01*
D02*
G37*
G36*
X2320000D02*
X2303054D01*
X2303805Y2391221D01*
X2308778Y2383778D01*
X2316221Y2378805D01*
X2320000Y2378054D01*
Y2395000D01*
D02*
G37*
G36*
X2196946D02*
X2180000D01*
Y2378054D01*
X2183779Y2378805D01*
X2191222Y2383778D01*
X2196195Y2391221D01*
X2196946Y2395000D01*
D02*
G37*
G36*
X2170000D02*
X2153054D01*
X2153805Y2391221D01*
X2158778Y2383778D01*
X2166221Y2378805D01*
X2170000Y2378054D01*
Y2395000D01*
D02*
G37*
G36*
X2046946D02*
X2030000D01*
Y2378054D01*
X2033779Y2378805D01*
X2041222Y2383778D01*
X2046195Y2391221D01*
X2046946Y2395000D01*
D02*
G37*
G36*
X2020000D02*
X2003054D01*
X2003805Y2391221D01*
X2008778Y2383778D01*
X2016221Y2378805D01*
X2020000Y2378054D01*
Y2395000D01*
D02*
G37*
G36*
X4296946D02*
X4280000D01*
Y2378054D01*
X4283779Y2378805D01*
X4291222Y2383778D01*
X4296194Y2391221D01*
X4296946Y2395000D01*
D02*
G37*
G36*
X4270000D02*
X4253054D01*
X4253806Y2391221D01*
X4258778Y2383778D01*
X4266221Y2378805D01*
X4270000Y2378054D01*
Y2395000D01*
D02*
G37*
G36*
X3996946D02*
X3980000D01*
Y2378054D01*
X3983779Y2378805D01*
X3991222Y2383778D01*
X3996195Y2391221D01*
X3996946Y2395000D01*
D02*
G37*
G36*
X3970000D02*
X3953054D01*
X3953805Y2391221D01*
X3958778Y2383778D01*
X3966221Y2378805D01*
X3970000Y2378054D01*
Y2395000D01*
D02*
G37*
G36*
X3846946D02*
X3830000D01*
Y2378054D01*
X3833779Y2378805D01*
X3841222Y2383778D01*
X3846195Y2391221D01*
X3846946Y2395000D01*
D02*
G37*
G36*
X3820000D02*
X3803054D01*
X3803805Y2391221D01*
X3808778Y2383778D01*
X3816221Y2378805D01*
X3820000Y2378054D01*
Y2395000D01*
D02*
G37*
G36*
X3721575Y2383504D02*
X3690000D01*
Y2359803D01*
X3721575D01*
Y2383504D01*
D02*
G37*
G36*
X3680000D02*
X3648425D01*
Y2359803D01*
X3680000D01*
Y2383504D01*
D02*
G37*
G36*
X3630590Y2381536D02*
X3600000D01*
Y2359803D01*
X3630590D01*
Y2381536D01*
D02*
G37*
G36*
X3590000D02*
X3559410D01*
Y2359803D01*
X3590000D01*
Y2381536D01*
D02*
G37*
G36*
X3419488Y2385315D02*
X3372087D01*
Y2339882D01*
X3419488D01*
Y2385315D01*
D02*
G37*
G36*
X2778268Y2360590D02*
X2756536D01*
Y2330000D01*
X2778268D01*
Y2360590D01*
D02*
G37*
G36*
X2746536D02*
X2724803D01*
Y2330000D01*
X2746536D01*
Y2360590D01*
D02*
G37*
G36*
X2899488Y2365315D02*
X2852087D01*
Y2319882D01*
X2899488D01*
Y2365315D01*
D02*
G37*
G36*
X2997913Y2402716D02*
X2950512D01*
Y2357284D01*
X2997913D01*
Y2369804D01*
X3025777D01*
X3029804Y2365777D01*
Y2340197D01*
X3006024D01*
Y2326692D01*
X2986575D01*
X2982673Y2325916D01*
X2979365Y2323706D01*
X2940855Y2285196D01*
X2780166D01*
X2778268Y2289410D01*
X2778268Y2290196D01*
Y2320000D01*
X2751536D01*
X2724803D01*
Y2290196D01*
X2724803Y2289410D01*
X2722905Y2285196D01*
X2469223D01*
X2446062Y2308357D01*
Y2325787D01*
X2460551D01*
Y2358189D01*
X2465551D01*
Y2375000D01*
X2435866D01*
X2406181D01*
Y2358189D01*
X2411181D01*
Y2325787D01*
X2425670D01*
Y2304134D01*
X2426446Y2300232D01*
X2428657Y2296924D01*
X2457790Y2267790D01*
X2461098Y2265580D01*
X2465000Y2264804D01*
X2527528D01*
X2529885Y2260394D01*
X2528805Y2258779D01*
X2528054Y2255000D01*
X2571946D01*
X2571195Y2258779D01*
X2570115Y2260394D01*
X2572472Y2264804D01*
X2827528D01*
X2829885Y2260394D01*
X2828805Y2258779D01*
X2828054Y2255000D01*
X2871946D01*
X2871195Y2258779D01*
X2870115Y2260394D01*
X2872472Y2264804D01*
X2945079D01*
X2948981Y2265580D01*
X2952288Y2267790D01*
X2990798Y2306300D01*
X3006024D01*
Y2292795D01*
X3069173D01*
Y2306300D01*
X3079410D01*
Y2296732D01*
X3140590D01*
Y2340197D01*
X3079410D01*
Y2326692D01*
X3069173D01*
Y2340197D01*
X3050196D01*
Y2370000D01*
X3049420Y2373902D01*
X3047210Y2377210D01*
X3037210Y2387210D01*
X3033902Y2389420D01*
X3030000Y2390196D01*
X2997913D01*
Y2402716D01*
D02*
G37*
G36*
X3032598Y2282205D02*
X3001024D01*
Y2258504D01*
X3032598D01*
Y2282205D01*
D02*
G37*
G36*
X3115000Y2278268D02*
Y2256536D01*
X3145590D01*
Y2278268D01*
X3115000D01*
D02*
G37*
G36*
X4205000Y2271946D02*
Y2255000D01*
X4221946D01*
X4221194Y2258779D01*
X4216222Y2266222D01*
X4208779Y2271195D01*
X4205000Y2271946D01*
D02*
G37*
G36*
X4195000D02*
X4191221Y2271195D01*
X4183778Y2266222D01*
X4178806Y2258779D01*
X4178054Y2255000D01*
X4195000D01*
Y2271946D01*
D02*
G37*
G36*
X3905000D02*
Y2255000D01*
X3921946D01*
X3921195Y2258779D01*
X3916222Y2266222D01*
X3908779Y2271195D01*
X3905000Y2271946D01*
D02*
G37*
G36*
X3895000D02*
X3891221Y2271195D01*
X3883778Y2266222D01*
X3878805Y2258779D01*
X3878054Y2255000D01*
X3895000D01*
Y2271946D01*
D02*
G37*
G36*
X3755000D02*
Y2255000D01*
X3771946D01*
X3771195Y2258779D01*
X3766222Y2266222D01*
X3758779Y2271195D01*
X3755000Y2271946D01*
D02*
G37*
G36*
X3745000D02*
X3741221Y2271195D01*
X3733778Y2266222D01*
X3728805Y2258779D01*
X3728054Y2255000D01*
X3745000D01*
Y2271946D01*
D02*
G37*
G36*
X3605000D02*
Y2255000D01*
X3621946D01*
X3621195Y2258779D01*
X3616222Y2266222D01*
X3608779Y2271195D01*
X3605000Y2271946D01*
D02*
G37*
G36*
X3595000D02*
X3591221Y2271195D01*
X3583778Y2266222D01*
X3578805Y2258779D01*
X3578054Y2255000D01*
X3595000D01*
Y2271946D01*
D02*
G37*
G36*
X3305000D02*
Y2255000D01*
X3321946D01*
X3321195Y2258779D01*
X3316222Y2266222D01*
X3308779Y2271195D01*
X3305000Y2271946D01*
D02*
G37*
G36*
X3295000D02*
X3291221Y2271195D01*
X3283778Y2266222D01*
X3278805Y2258779D01*
X3278054Y2255000D01*
X3295000D01*
Y2271946D01*
D02*
G37*
G36*
X2405000D02*
Y2255000D01*
X2421946D01*
X2421195Y2258779D01*
X2416222Y2266222D01*
X2408779Y2271195D01*
X2405000Y2271946D01*
D02*
G37*
G36*
X2395000D02*
X2391221Y2271195D01*
X2383778Y2266222D01*
X2378805Y2258779D01*
X2378054Y2255000D01*
X2395000D01*
Y2271946D01*
D02*
G37*
G36*
X4221946Y2245000D02*
X4205000D01*
Y2228054D01*
X4208779Y2228805D01*
X4216222Y2233778D01*
X4221194Y2241221D01*
X4221946Y2245000D01*
D02*
G37*
G36*
X4195000D02*
X4178054D01*
X4178806Y2241221D01*
X4183778Y2233778D01*
X4191221Y2228805D01*
X4195000Y2228054D01*
Y2245000D01*
D02*
G37*
G36*
X3921946D02*
X3905000D01*
Y2228054D01*
X3908779Y2228805D01*
X3916222Y2233778D01*
X3921195Y2241221D01*
X3921946Y2245000D01*
D02*
G37*
G36*
X3895000D02*
X3878054D01*
X3878805Y2241221D01*
X3883778Y2233778D01*
X3891221Y2228805D01*
X3895000Y2228054D01*
Y2245000D01*
D02*
G37*
G36*
X3771946D02*
X3755000D01*
Y2228054D01*
X3758779Y2228805D01*
X3766222Y2233778D01*
X3771195Y2241221D01*
X3771946Y2245000D01*
D02*
G37*
G36*
X3745000D02*
X3728054D01*
X3728805Y2241221D01*
X3733778Y2233778D01*
X3741221Y2228805D01*
X3745000Y2228054D01*
Y2245000D01*
D02*
G37*
G36*
X3621946D02*
X3605000D01*
Y2228054D01*
X3608779Y2228805D01*
X3616222Y2233778D01*
X3621195Y2241221D01*
X3621946Y2245000D01*
D02*
G37*
G36*
X3595000D02*
X3578054D01*
X3578805Y2241221D01*
X3583778Y2233778D01*
X3591221Y2228805D01*
X3595000Y2228054D01*
Y2245000D01*
D02*
G37*
G36*
X3321946D02*
X3305000D01*
Y2228054D01*
X3308779Y2228805D01*
X3316222Y2233778D01*
X3321195Y2241221D01*
X3321946Y2245000D01*
D02*
G37*
G36*
X3295000D02*
X3278054D01*
X3278805Y2241221D01*
X3283778Y2233778D01*
X3291221Y2228805D01*
X3295000Y2228054D01*
Y2245000D01*
D02*
G37*
G36*
X2871946D02*
X2855000D01*
Y2228054D01*
X2858779Y2228805D01*
X2866222Y2233778D01*
X2871195Y2241221D01*
X2871946Y2245000D01*
D02*
G37*
G36*
X2845000D02*
X2828054D01*
X2828805Y2241221D01*
X2833778Y2233778D01*
X2841221Y2228805D01*
X2845000Y2228054D01*
Y2245000D01*
D02*
G37*
G36*
X2571946D02*
X2555000D01*
Y2228054D01*
X2558779Y2228805D01*
X2566222Y2233778D01*
X2571195Y2241221D01*
X2571946Y2245000D01*
D02*
G37*
G36*
X2545000D02*
X2528054D01*
X2528805Y2241221D01*
X2533778Y2233778D01*
X2541221Y2228805D01*
X2545000Y2228054D01*
Y2245000D01*
D02*
G37*
G36*
X2421946D02*
X2405000D01*
Y2228054D01*
X2408779Y2228805D01*
X2416222Y2233778D01*
X2421195Y2241221D01*
X2421946Y2245000D01*
D02*
G37*
G36*
X2395000D02*
X2378054D01*
X2378805Y2241221D01*
X2383778Y2233778D01*
X2391221Y2228805D01*
X2395000Y2228054D01*
Y2245000D01*
D02*
G37*
G36*
X3145590Y2246536D02*
X3115000D01*
Y2224803D01*
X3145590D01*
Y2246536D01*
D02*
G37*
G36*
X3032598Y2248504D02*
X3001024D01*
Y2224803D01*
X3032598D01*
Y2248504D01*
D02*
G37*
G36*
X3074173Y2282205D02*
X3071843Y2282205D01*
X3071843Y2282205D01*
X3042598D01*
Y2253504D01*
Y2224803D01*
X3069409D01*
X3074173Y2224803D01*
X3079173Y2224803D01*
X3105000D01*
Y2251536D01*
Y2278268D01*
X3076740Y2278268D01*
X3075790Y2279724D01*
X3074173Y2282205D01*
D02*
G37*
G36*
X2293465Y2261731D02*
X2126410D01*
X2122508Y2260955D01*
X2119201Y2258745D01*
X2064856Y2204401D01*
X2059875Y2205392D01*
X2052071Y2203840D01*
X2045456Y2199419D01*
X2041035Y2192804D01*
X2039483Y2185000D01*
X2041035Y2177196D01*
X2045456Y2170581D01*
X2052071Y2166160D01*
X2059875Y2164608D01*
X2067678Y2166160D01*
X2074294Y2170581D01*
X2078714Y2177196D01*
X2080267Y2185000D01*
X2079276Y2189982D01*
X2130634Y2241340D01*
X2200113D01*
X2204803Y2240590D01*
X2204803Y2236340D01*
Y2210196D01*
X2176245D01*
X2172344Y2209420D01*
X2169036Y2207210D01*
X2095612Y2133785D01*
X2093718Y2135679D01*
X2064376Y2106337D01*
X2082582Y2088130D01*
X2111925Y2117472D01*
X2110031Y2119366D01*
X2180469Y2189804D01*
X2204803D01*
Y2179410D01*
X2248268D01*
X2248268Y2240590D01*
X2252957Y2241340D01*
X2267042D01*
X2271732Y2240590D01*
Y2179410D01*
X2315197D01*
Y2240590D01*
X2303660D01*
Y2251535D01*
X2302884Y2255437D01*
X2300674Y2258745D01*
X2297366Y2260955D01*
X2293465Y2261731D01*
D02*
G37*
G36*
X4038268Y2265590D02*
X3994803D01*
Y2204410D01*
X4006340D01*
Y2196929D01*
X4007116Y2193027D01*
X4009326Y2189720D01*
X4026255Y2172790D01*
X4029563Y2170580D01*
X4033465Y2169804D01*
X4112759D01*
X4115581Y2165581D01*
X4122196Y2161160D01*
X4130000Y2159608D01*
X4137804Y2161160D01*
X4144419Y2165581D01*
X4148840Y2172196D01*
X4150392Y2180000D01*
X4148840Y2187804D01*
X4144419Y2194419D01*
X4137804Y2198840D01*
X4130000Y2200392D01*
X4122196Y2198840D01*
X4115581Y2194419D01*
X4112759Y2190196D01*
X4037688D01*
X4028474Y2199410D01*
X4030545Y2204410D01*
X4038268D01*
Y2265590D01*
D02*
G37*
G36*
X2817126Y2175118D02*
X2793425D01*
Y2152402D01*
X2817126D01*
Y2175118D01*
D02*
G37*
G36*
X2783425D02*
X2759724D01*
Y2152402D01*
X2783425D01*
Y2175118D01*
D02*
G37*
G36*
X2020000Y2310392D02*
X2012196Y2308840D01*
X2005581Y2304419D01*
X2001160Y2297804D01*
X1999608Y2290000D01*
X2001160Y2282196D01*
X2005581Y2275581D01*
X2012196Y2271160D01*
X2020000Y2269608D01*
X2027804Y2271160D01*
X2034419Y2275581D01*
X2037241Y2279804D01*
X2300777D01*
X2329804Y2250777D01*
Y2144223D01*
X2325197Y2139616D01*
X2320197Y2141687D01*
Y2155590D01*
X2276732D01*
Y2094410D01*
X2320197D01*
Y2114804D01*
X2325000D01*
X2328902Y2115580D01*
X2332210Y2117790D01*
X2347210Y2132790D01*
X2349420Y2136098D01*
X2350196Y2140000D01*
Y2255000D01*
X2349420Y2258902D01*
X2347210Y2262210D01*
X2312210Y2297210D01*
X2308902Y2299420D01*
X2305000Y2300196D01*
X2037241D01*
X2034419Y2304419D01*
X2027804Y2308840D01*
X2020000Y2310392D01*
D02*
G37*
G36*
X2817126Y2142402D02*
X2793425D01*
Y2119685D01*
X2817126D01*
Y2142402D01*
D02*
G37*
G36*
X2783425D02*
X2759724D01*
Y2119685D01*
X2783425D01*
Y2142402D01*
D02*
G37*
G36*
X3970000Y2121946D02*
X3966221Y2121195D01*
X3958778Y2116222D01*
X3953805Y2108779D01*
X3953054Y2105000D01*
X3970000D01*
Y2121946D01*
D02*
G37*
G36*
X3830000D02*
Y2105000D01*
X3846946D01*
X3846195Y2108779D01*
X3841222Y2116222D01*
X3833779Y2121195D01*
X3830000Y2121946D01*
D02*
G37*
G36*
X3820000D02*
X3816221Y2121195D01*
X3808778Y2116222D01*
X3803805Y2108779D01*
X3803054Y2105000D01*
X3820000D01*
Y2121946D01*
D02*
G37*
G36*
X3680000D02*
Y2105000D01*
X3696946D01*
X3696195Y2108779D01*
X3691222Y2116222D01*
X3683779Y2121195D01*
X3680000Y2121946D01*
D02*
G37*
G36*
X3670000D02*
X3666221Y2121195D01*
X3658778Y2116222D01*
X3653805Y2108779D01*
X3653054Y2105000D01*
X3670000D01*
Y2121946D01*
D02*
G37*
G36*
X2480000D02*
Y2105000D01*
X2496946D01*
X2496195Y2108779D01*
X2491222Y2116222D01*
X2483779Y2121195D01*
X2480000Y2121946D01*
D02*
G37*
G36*
X2470000D02*
X2466221Y2121195D01*
X2458778Y2116222D01*
X2453805Y2108779D01*
X2453054Y2105000D01*
X2470000D01*
Y2121946D01*
D02*
G37*
G36*
X4105197Y2265590D02*
X4061732D01*
Y2204410D01*
X4105197D01*
Y2224804D01*
X4141564D01*
X4222149Y2144220D01*
X4211903Y2133974D01*
X4244029Y2101849D01*
X4278939Y2136758D01*
X4246813Y2168884D01*
X4236568Y2158639D01*
X4152997Y2242210D01*
X4149690Y2244420D01*
X4145788Y2245196D01*
X4105197D01*
Y2265590D01*
D02*
G37*
G36*
X2005000Y2210392D02*
X1997196Y2208840D01*
X1990581Y2204419D01*
X1986160Y2197804D01*
X1984608Y2190000D01*
X1986160Y2182196D01*
X1989706Y2176890D01*
Y2170000D01*
X1990870Y2164147D01*
X1994186Y2159186D01*
X2016731Y2136640D01*
X2011482Y2131392D01*
X2046392Y2096482D01*
X2078518Y2128608D01*
X2043608Y2163518D01*
X2038360Y2158269D01*
X2020294Y2176335D01*
Y2176890D01*
X2023840Y2182196D01*
X2025392Y2190000D01*
X2023840Y2197804D01*
X2019419Y2204419D01*
X2012804Y2208840D01*
X2005000Y2210392D01*
D02*
G37*
G36*
X2253268Y2155590D02*
X2209803D01*
Y2135196D01*
X2145788D01*
X2141886Y2134420D01*
X2138578Y2132210D01*
X2117883Y2111514D01*
X2115989Y2113408D01*
X2086647Y2084066D01*
X2104854Y2065859D01*
X2134196Y2095201D01*
X2132302Y2097095D01*
X2150011Y2114804D01*
X2209803D01*
Y2094410D01*
X2253268D01*
Y2155590D01*
D02*
G37*
G36*
X2713701Y2132716D02*
X2666299D01*
Y2120196D01*
X2555000D01*
X2551098Y2119420D01*
X2547790Y2117210D01*
X2422790Y1992210D01*
X2420580Y1988902D01*
X2419804Y1985000D01*
Y1955353D01*
X2412196Y1953840D01*
X2405581Y1949419D01*
X2401160Y1942804D01*
X2399608Y1935000D01*
X2401160Y1927196D01*
X2405581Y1920581D01*
X2412196Y1916160D01*
X2420000Y1914608D01*
X2427804Y1916160D01*
X2434419Y1920581D01*
X2438840Y1927196D01*
X2440392Y1935000D01*
X2439234Y1940820D01*
X2439420Y1941098D01*
X2440196Y1945000D01*
Y1980777D01*
X2559223Y2099804D01*
X2666299D01*
Y2087284D01*
X2713701D01*
Y2132716D01*
D02*
G37*
G36*
X3970000Y2095000D02*
X3953054D01*
X3953805Y2091221D01*
X3958778Y2083778D01*
X3966221Y2078805D01*
X3970000Y2078054D01*
Y2095000D01*
D02*
G37*
G36*
X3846946D02*
X3830000D01*
Y2078054D01*
X3833779Y2078805D01*
X3841222Y2083778D01*
X3846195Y2091221D01*
X3846946Y2095000D01*
D02*
G37*
G36*
X3820000D02*
X3803054D01*
X3803805Y2091221D01*
X3808778Y2083778D01*
X3816221Y2078805D01*
X3820000Y2078054D01*
Y2095000D01*
D02*
G37*
G36*
X2496946D02*
X2480000D01*
Y2078054D01*
X2483779Y2078805D01*
X2491222Y2083778D01*
X2496195Y2091221D01*
X2496946Y2095000D01*
D02*
G37*
G36*
X2470000D02*
X2453054D01*
X2453805Y2091221D01*
X2458778Y2083778D01*
X2466221Y2078805D01*
X2470000Y2078054D01*
Y2095000D01*
D02*
G37*
G36*
X4100197Y2160590D02*
X4056732D01*
Y2099410D01*
X4100197D01*
Y2119804D01*
X4168391D01*
X4170462Y2114804D01*
X4160854Y2105196D01*
X4143465D01*
X4139563Y2104420D01*
X4136255Y2102210D01*
X4077057Y2043011D01*
X4073173Y2046198D01*
X4073840Y2047196D01*
X4075392Y2055000D01*
X4073840Y2062804D01*
X4069419Y2069419D01*
X4062804Y2073840D01*
X4055000Y2075392D01*
X4047196Y2073840D01*
X4040581Y2069419D01*
X4040535Y2069350D01*
X4035559Y2068860D01*
X4021731Y2082688D01*
Y2099410D01*
X4033268D01*
Y2160590D01*
X3989803D01*
Y2122473D01*
X3985394Y2120116D01*
X3983779Y2121195D01*
X3980000Y2121946D01*
Y2100000D01*
Y2078054D01*
X3983779Y2078805D01*
X3991222Y2083778D01*
X3996195Y2091221D01*
X3996340Y2091950D01*
X4001340Y2091458D01*
Y2078465D01*
X4002116Y2074563D01*
X4004326Y2071255D01*
X4027790Y2047790D01*
X4031098Y2045580D01*
X4035000Y2044804D01*
X4037759D01*
X4040581Y2040581D01*
X4047196Y2036160D01*
X4050061Y2035591D01*
X4049569Y2030591D01*
X4026732D01*
Y1969409D01*
X4070197D01*
Y2007313D01*
X4147688Y2084804D01*
X4156200D01*
X4158114Y2080185D01*
X4128387Y2050458D01*
X4133635Y2045209D01*
X4118524Y2030098D01*
X4112196Y2028840D01*
X4105581Y2024419D01*
X4101160Y2017804D01*
X4099608Y2010000D01*
X4101160Y2002196D01*
X4105581Y1995581D01*
X4112196Y1991160D01*
X4120000Y1989608D01*
X4127804Y1991160D01*
X4134419Y1995581D01*
X4138840Y2002196D01*
X4140071Y2008387D01*
X4155264Y2023581D01*
X4160513Y2018332D01*
X4195423Y2053242D01*
X4172159Y2076505D01*
X4173805Y2081930D01*
X4174688Y2082106D01*
X4185568Y2071226D01*
X4203774Y2089432D01*
X4182082Y2111124D01*
X4183728Y2116550D01*
X4184610Y2116725D01*
X4207839Y2093497D01*
X4226045Y2111703D01*
X4196703Y2141045D01*
X4194423Y2138765D01*
X4193444Y2139420D01*
X4189542Y2140196D01*
X4100197D01*
Y2160590D01*
D02*
G37*
G36*
X3049606Y2098763D02*
X3041774Y2097732D01*
X3034477Y2094709D01*
X3028210Y2089900D01*
X3023401Y2083633D01*
X3020378Y2076336D01*
X3019347Y2068504D01*
X3020378Y2060672D01*
X3023401Y2053375D01*
X3028210Y2047108D01*
X3034477Y2042299D01*
X3041774Y2039276D01*
X3049606Y2038245D01*
X3057438Y2039276D01*
X3064735Y2042299D01*
X3071002Y2047108D01*
X3075811Y2053375D01*
X3078834Y2060672D01*
X3079865Y2068504D01*
X3078834Y2076336D01*
X3075811Y2083633D01*
X3071002Y2089900D01*
X3064735Y2094709D01*
X3057438Y2097732D01*
X3049606Y2098763D01*
D02*
G37*
G36*
X2949606D02*
X2941774Y2097732D01*
X2934477Y2094709D01*
X2928210Y2089900D01*
X2923401Y2083633D01*
X2920378Y2076336D01*
X2919347Y2068504D01*
X2920378Y2060672D01*
X2923401Y2053375D01*
X2928210Y2047108D01*
X2934477Y2042299D01*
X2941774Y2039276D01*
X2949606Y2038245D01*
X2957438Y2039276D01*
X2964735Y2042299D01*
X2971002Y2047108D01*
X2975811Y2053375D01*
X2978834Y2060672D01*
X2979865Y2068504D01*
X2978834Y2076336D01*
X2975811Y2083633D01*
X2971002Y2089900D01*
X2964735Y2094709D01*
X2957438Y2097732D01*
X2949606Y2098763D01*
D02*
G37*
G36*
X2127125Y2080001D02*
X2094999Y2047875D01*
X2129909Y2012966D01*
X2153231Y2036287D01*
X2206339D01*
Y2015893D01*
X2249803D01*
Y2077074D01*
X2206339D01*
Y2056679D01*
X2150447D01*
X2127125Y2080001D01*
D02*
G37*
G36*
X2743268Y2040591D02*
X2721536D01*
Y2010000D01*
X2743268D01*
Y2040591D01*
D02*
G37*
G36*
X2711536D02*
X2689803D01*
Y2010000D01*
X2711536D01*
Y2040591D01*
D02*
G37*
G36*
X2316732Y2077074D02*
X2273268D01*
Y2015893D01*
X2316732D01*
Y2034804D01*
X2330777D01*
X2335599Y2029982D01*
X2334608Y2025000D01*
X2336160Y2017196D01*
X2340581Y2010581D01*
X2347196Y2006160D01*
X2355000Y2004608D01*
X2362804Y2006160D01*
X2369419Y2010581D01*
X2373840Y2017196D01*
X2375392Y2025000D01*
X2373840Y2032804D01*
X2369419Y2039419D01*
X2362804Y2043840D01*
X2355000Y2045392D01*
X2350018Y2044401D01*
X2342210Y2052210D01*
X2338902Y2054420D01*
X2335000Y2055196D01*
X2316732D01*
Y2077074D01*
D02*
G37*
G36*
X2743268Y2000000D02*
X2721536D01*
Y1969409D01*
X2743268D01*
Y2000000D01*
D02*
G37*
G36*
X3755000Y1971946D02*
Y1955000D01*
X3771946D01*
X3771195Y1958779D01*
X3766222Y1966222D01*
X3758779Y1971195D01*
X3755000Y1971946D01*
D02*
G37*
G36*
X3745000D02*
X3741221Y1971195D01*
X3733778Y1966222D01*
X3728805Y1958779D01*
X3728054Y1955000D01*
X3745000D01*
Y1971946D01*
D02*
G37*
G36*
X2711536Y2000000D02*
X2689803D01*
Y1975118D01*
X2674213D01*
Y1952402D01*
X2697913D01*
Y1969409D01*
X2711536D01*
Y2000000D01*
D02*
G37*
G36*
X2664213Y1975118D02*
X2640512D01*
Y1952402D01*
X2664213D01*
Y1975118D01*
D02*
G37*
G36*
X3771946Y1945000D02*
X3755000D01*
Y1928054D01*
X3758779Y1928805D01*
X3766222Y1933778D01*
X3771195Y1941221D01*
X3771946Y1945000D01*
D02*
G37*
G36*
X3745000D02*
X3728054D01*
X3728805Y1941221D01*
X3733778Y1933778D01*
X3741221Y1928805D01*
X3745000Y1928054D01*
Y1945000D01*
D02*
G37*
G36*
X2697913Y1942402D02*
X2674213D01*
Y1919685D01*
X2697913D01*
Y1942402D01*
D02*
G37*
G36*
X2664213D02*
X2640512D01*
Y1919685D01*
X2664213D01*
Y1942402D01*
D02*
G37*
G36*
X4003268Y2030591D02*
X3959803D01*
Y1992687D01*
X3922790Y1955674D01*
X3920580Y1952366D01*
X3919804Y1948465D01*
Y1937241D01*
X3915581Y1934419D01*
X3911160Y1927804D01*
X3909608Y1920000D01*
X3911160Y1912196D01*
X3915581Y1905581D01*
X3922196Y1901160D01*
X3930000Y1899608D01*
X3937804Y1901160D01*
X3944419Y1905581D01*
X3948840Y1912196D01*
X3950392Y1920000D01*
X3948840Y1927804D01*
X3944419Y1934419D01*
X3940196Y1937241D01*
Y1944241D01*
X3965364Y1969409D01*
X4003268D01*
Y2030591D01*
D02*
G37*
G36*
X3525000Y1940329D02*
Y1895000D01*
X3570329D01*
X3569250Y1903197D01*
X3564156Y1915494D01*
X3556053Y1926054D01*
X3545494Y1934156D01*
X3533197Y1939250D01*
X3525000Y1940329D01*
D02*
G37*
G36*
X3515000D02*
X3506803Y1939250D01*
X3494506Y1934156D01*
X3483947Y1926054D01*
X3475844Y1915494D01*
X3470750Y1903197D01*
X3469671Y1895000D01*
X3515000D01*
Y1940329D01*
D02*
G37*
G36*
X2594488Y1932716D02*
X2547087D01*
Y1920196D01*
X2520000D01*
X2516098Y1919420D01*
X2512790Y1917210D01*
X2474982Y1879401D01*
X2470000Y1880392D01*
X2462196Y1878840D01*
X2455581Y1874419D01*
X2451160Y1867804D01*
X2449608Y1860000D01*
X2451160Y1852196D01*
X2455581Y1845581D01*
X2462196Y1841160D01*
X2470000Y1839608D01*
X2477804Y1841160D01*
X2484419Y1845581D01*
X2488840Y1852196D01*
X2490392Y1860000D01*
X2489401Y1864982D01*
X2524223Y1899804D01*
X2547087D01*
Y1887284D01*
X2594488D01*
Y1932716D01*
D02*
G37*
G36*
X3349606Y2003763D02*
X3341774Y2002732D01*
X3334477Y1999709D01*
X3328210Y1994900D01*
X3323401Y1988633D01*
X3320378Y1981336D01*
X3319347Y1973504D01*
X3320378Y1965672D01*
X3323401Y1958375D01*
X3324804Y1956546D01*
Y1914223D01*
X3293375Y1882794D01*
X3257749D01*
X3256232Y1887794D01*
X3256816Y1888184D01*
X3259026Y1891492D01*
X3259802Y1895394D01*
Y1940255D01*
X3264735Y1942299D01*
X3271002Y1947108D01*
X3275811Y1953375D01*
X3278834Y1960672D01*
X3279865Y1968504D01*
X3278834Y1976336D01*
X3275811Y1983633D01*
X3271002Y1989900D01*
X3264735Y1994709D01*
X3257438Y1997732D01*
X3249606Y1998763D01*
X3241774Y1997732D01*
X3234477Y1994709D01*
X3228210Y1989900D01*
X3223401Y1983633D01*
X3220378Y1976336D01*
X3219347Y1968504D01*
X3220378Y1960672D01*
X3223401Y1953375D01*
X3228210Y1947108D01*
X3234477Y1942299D01*
X3239410Y1940255D01*
Y1905590D01*
X3045394D01*
X3041492Y1904814D01*
X3038184Y1902604D01*
X3012627Y1877046D01*
X2692913D01*
Y1895315D01*
X2645512D01*
Y1849882D01*
X2653269D01*
Y1830591D01*
X2641732D01*
Y1769409D01*
X2685197D01*
Y1830591D01*
X2673660D01*
Y1849882D01*
X2692913D01*
Y1856655D01*
X3016850D01*
X3020752Y1857431D01*
X3021319Y1857809D01*
X3024506Y1853926D01*
X2937533Y1766952D01*
X2932913Y1768866D01*
Y1770315D01*
X2885512D01*
Y1724882D01*
X2893269D01*
Y1715591D01*
X2881732D01*
Y1654409D01*
X2925197D01*
Y1715591D01*
X2913660D01*
Y1724882D01*
X2932913D01*
Y1737465D01*
X2936500Y1738179D01*
X2939808Y1740389D01*
X2990159Y1790739D01*
X2994471Y1788628D01*
X2994804Y1788314D01*
Y1720353D01*
X2987196Y1718840D01*
X2980581Y1714419D01*
X2976160Y1707804D01*
X2974608Y1700000D01*
X2976160Y1692196D01*
X2980581Y1685581D01*
X2987196Y1681160D01*
X2995000Y1679608D01*
X3002804Y1681160D01*
X3009419Y1685581D01*
X3013840Y1692196D01*
X3015392Y1700000D01*
X3014234Y1705820D01*
X3014420Y1706098D01*
X3015196Y1710000D01*
Y1784241D01*
X3039223Y1808269D01*
X3054410D01*
Y1796732D01*
X3115590D01*
Y1840197D01*
X3054410D01*
Y1828660D01*
X3035151D01*
X3034837Y1828994D01*
X3032725Y1833306D01*
X3061822Y1862402D01*
X3156386D01*
X3157848Y1858380D01*
X3158037Y1857402D01*
X3155934Y1854256D01*
X3155158Y1850354D01*
Y1840197D01*
X3134764D01*
Y1796732D01*
X3195945D01*
Y1840158D01*
X3214410D01*
Y1796732D01*
X3275590D01*
Y1808269D01*
X3317312D01*
X3330516Y1795065D01*
X3329869Y1794095D01*
X3328316Y1786292D01*
X3329869Y1778488D01*
X3334289Y1771873D01*
X3340905Y1767452D01*
X3348708Y1765900D01*
X3356512Y1767452D01*
X3363127Y1771873D01*
X3367548Y1778488D01*
X3369100Y1786292D01*
X3367548Y1794095D01*
X3363127Y1800711D01*
X3356512Y1805131D01*
X3348708Y1806684D01*
X3347897Y1806522D01*
X3328745Y1825674D01*
X3325437Y1827884D01*
X3321535Y1828660D01*
X3275590D01*
Y1840158D01*
X3375422D01*
X3404804Y1810777D01*
Y1774199D01*
X3400581Y1771377D01*
X3396160Y1764762D01*
X3394608Y1756958D01*
X3396160Y1749154D01*
X3400581Y1742539D01*
X3407196Y1738118D01*
X3415000Y1736566D01*
X3422804Y1738118D01*
X3429419Y1742539D01*
X3433840Y1749154D01*
X3435392Y1756958D01*
X3433840Y1764762D01*
X3429419Y1771377D01*
X3425196Y1774199D01*
Y1815000D01*
X3424420Y1818902D01*
X3422210Y1822210D01*
X3386855Y1857564D01*
X3383548Y1859774D01*
X3379646Y1860550D01*
X3306566D01*
X3305001Y1864858D01*
X3304969Y1865550D01*
X3342210Y1902790D01*
X3344420Y1906098D01*
X3345196Y1910000D01*
Y1940034D01*
X3348955Y1943331D01*
X3349606Y1943245D01*
X3357438Y1944276D01*
X3364735Y1947299D01*
X3371002Y1952108D01*
X3375811Y1958375D01*
X3378834Y1965672D01*
X3379865Y1973504D01*
X3378834Y1981336D01*
X3375811Y1988633D01*
X3371002Y1994900D01*
X3364735Y1999709D01*
X3357438Y2002732D01*
X3349606Y2003763D01*
D02*
G37*
G36*
X3570329Y1885000D02*
X3525000D01*
Y1839671D01*
X3533197Y1840750D01*
X3545494Y1845844D01*
X3556053Y1853946D01*
X3564156Y1864506D01*
X3569250Y1876803D01*
X3570329Y1885000D01*
D02*
G37*
G36*
X3515000D02*
X3469671D01*
X3470750Y1876803D01*
X3475844Y1864506D01*
X3483947Y1853946D01*
X3494506Y1845844D01*
X3506803Y1840750D01*
X3515000Y1839671D01*
Y1885000D01*
D02*
G37*
G36*
X2937913Y1850118D02*
X2914213D01*
Y1827402D01*
X2937913D01*
Y1850118D01*
D02*
G37*
G36*
X2904213D02*
X2880512D01*
Y1827402D01*
X2904213D01*
Y1850118D01*
D02*
G37*
G36*
X2623268Y1835591D02*
X2601536D01*
Y1805000D01*
X2623268D01*
Y1835591D01*
D02*
G37*
G36*
X2591536D02*
X2569803D01*
Y1805000D01*
X2591536D01*
Y1835591D01*
D02*
G37*
G36*
X2937913Y1817402D02*
X2914213D01*
Y1794685D01*
X2937913D01*
Y1817402D01*
D02*
G37*
G36*
X2904213D02*
X2880512D01*
Y1794685D01*
X2904213D01*
Y1817402D01*
D02*
G37*
G36*
X2623268Y1795000D02*
X2601536D01*
Y1764409D01*
X2623268D01*
Y1795000D01*
D02*
G37*
G36*
X2591536D02*
X2569803D01*
Y1764409D01*
X2591536D01*
Y1795000D01*
D02*
G37*
G36*
X2766306Y1846698D02*
X2758503Y1845146D01*
X2751887Y1840725D01*
X2747466Y1834110D01*
X2745914Y1826306D01*
X2747466Y1818503D01*
X2751887Y1811887D01*
X2756110Y1809065D01*
Y1797159D01*
X2756886Y1793257D01*
X2759097Y1789949D01*
X2771255Y1777790D01*
X2774563Y1775580D01*
X2778465Y1774804D01*
X2787087D01*
Y1762284D01*
X2834488D01*
Y1807716D01*
X2787087D01*
Y1796648D01*
X2782087Y1795797D01*
X2776502Y1801382D01*
Y1809065D01*
X2780725Y1811887D01*
X2785146Y1818503D01*
X2786698Y1826306D01*
X2785146Y1834110D01*
X2780725Y1840725D01*
X2774110Y1845146D01*
X2766306Y1846698D01*
D02*
G37*
G36*
X2863268Y1720591D02*
X2841536D01*
Y1690000D01*
X2863268D01*
Y1720591D01*
D02*
G37*
G36*
X2831536D02*
X2809803D01*
Y1690000D01*
X2831536D01*
Y1720591D01*
D02*
G37*
G36*
X3115590Y1773268D02*
X3054410D01*
Y1729803D01*
X3074804D01*
Y1720118D01*
X3075580Y1716216D01*
X3077790Y1712908D01*
X3109819Y1680879D01*
X3107906Y1676260D01*
X3065866D01*
Y1675294D01*
X3033110D01*
X3027804Y1678840D01*
X3020000Y1680392D01*
X3012196Y1678840D01*
X3005581Y1674419D01*
X3001160Y1667804D01*
X2999608Y1660000D01*
X3001160Y1652196D01*
X3005581Y1645581D01*
X3012196Y1641160D01*
X3020000Y1639608D01*
X3027804Y1641160D01*
X3033110Y1644706D01*
X3065866D01*
Y1630827D01*
X3115236D01*
Y1663726D01*
X3120236Y1666399D01*
X3120984Y1665899D01*
Y1650512D01*
X3146732D01*
Y1692008D01*
X3127529D01*
X3095196Y1724341D01*
Y1729803D01*
X3115590D01*
Y1773268D01*
D02*
G37*
G36*
X3195945D02*
X3134764D01*
Y1729803D01*
X3155158D01*
Y1692008D01*
X3152480D01*
Y1650512D01*
X3178228D01*
Y1692008D01*
X3175550D01*
Y1729803D01*
X3195945D01*
Y1773268D01*
D02*
G37*
G36*
X2863268Y1680000D02*
X2841536D01*
Y1649409D01*
X2863268D01*
Y1680000D01*
D02*
G37*
G36*
X2831536D02*
X2809803D01*
Y1649409D01*
X2831536D01*
Y1680000D01*
D02*
G37*
G36*
X3275590Y1773268D02*
X3214410D01*
Y1729803D01*
X3234804D01*
Y1694105D01*
X3216958Y1676260D01*
X3183976D01*
Y1630827D01*
X3233346D01*
Y1663809D01*
X3252210Y1682673D01*
X3254420Y1685980D01*
X3255196Y1689882D01*
Y1729803D01*
X3275590D01*
Y1773268D01*
D02*
G37*
%LPD*%
D10*
X4724409Y3149606D02*
G03*
X4724409Y3149606I-1574803J0D01*
G01*
D11*
X2829213Y3470000D02*
D03*
X2559528D02*
D03*
D12*
X2045000Y2130000D02*
D03*
X2128517Y2046483D02*
D03*
X4231758Y4148242D02*
D03*
X4148242Y4231758D02*
D03*
D13*
X2110421Y2089634D02*
D03*
X2088150Y2111905D02*
D03*
X4166337Y4188608D02*
D03*
X4188608Y4166337D02*
D03*
D14*
X3191496Y3585000D02*
D03*
Y3522008D02*
D03*
X3460000Y3034094D02*
D03*
Y2971102D02*
D03*
X3685000Y2388504D02*
D03*
Y2451496D02*
D03*
X3037598Y2253504D02*
D03*
Y2316496D02*
D03*
X2580000Y3106496D02*
D03*
Y3043504D02*
D03*
X3116496Y3585000D02*
D03*
Y3522008D02*
D03*
X4100000Y3026496D02*
D03*
Y2963504D02*
D03*
Y3461496D02*
D03*
Y3398504D02*
D03*
X3280000Y4205000D02*
D03*
Y4142008D02*
D03*
X3190000Y4206496D02*
D03*
Y4143504D02*
D03*
D15*
X3370000Y3033465D02*
D03*
Y2966535D02*
D03*
X3595000Y2386535D02*
D03*
Y2453465D02*
D03*
X3348708Y2576535D02*
D03*
Y2643465D02*
D03*
X3110000Y2251535D02*
D03*
Y2318465D02*
D03*
X2680000Y3108465D02*
D03*
Y3041535D02*
D03*
X2793465Y2908465D02*
D03*
Y2841535D02*
D03*
X2798465Y2556535D02*
D03*
Y2623465D02*
D03*
X3010000Y4208465D02*
D03*
Y4141535D02*
D03*
X3085000Y1751535D02*
D03*
Y1818465D02*
D03*
X3165354Y1751535D02*
D03*
Y1818465D02*
D03*
X3245000Y1751535D02*
D03*
Y1818465D02*
D03*
X3075000Y4578465D02*
D03*
Y4511535D02*
D03*
X3225000Y4578465D02*
D03*
Y4511535D02*
D03*
X3149606Y4578465D02*
D03*
Y4511535D02*
D03*
X2850000Y4050000D02*
D03*
Y3983071D02*
D03*
X2920000Y4203465D02*
D03*
Y4136535D02*
D03*
D16*
X3283465Y2975000D02*
D03*
X3216535D02*
D03*
X2751535Y2325000D02*
D03*
X2818465D02*
D03*
X3251535Y2435000D02*
D03*
X3318465D02*
D03*
X3572827Y2650000D02*
D03*
X3639756D02*
D03*
X2505000Y2630000D02*
D03*
X2571929D02*
D03*
X2573465Y2550000D02*
D03*
X2506535D02*
D03*
X3003465Y3145000D02*
D03*
X2936535D02*
D03*
X2510000Y2905000D02*
D03*
X2576929D02*
D03*
X2578465Y2840000D02*
D03*
X2511535D02*
D03*
X3638465Y2575000D02*
D03*
X3571535D02*
D03*
X2226535Y2210000D02*
D03*
X2293465D02*
D03*
X2231535Y2125000D02*
D03*
X2298465D02*
D03*
X2228071Y2046483D02*
D03*
X2295000D02*
D03*
X1766535Y3245000D02*
D03*
X1833465D02*
D03*
X1766535Y3160000D02*
D03*
X1833465D02*
D03*
X1766535Y3080000D02*
D03*
X1833465D02*
D03*
X2201535Y4185000D02*
D03*
X2268465D02*
D03*
X2198071Y4050000D02*
D03*
X2265000D02*
D03*
X2201535Y4115000D02*
D03*
X2268465D02*
D03*
X2783465Y2005000D02*
D03*
X2716535D02*
D03*
X2663465Y1800000D02*
D03*
X2596535D02*
D03*
X2903465Y1685000D02*
D03*
X2836535D02*
D03*
X4048465Y2000000D02*
D03*
X3981535D02*
D03*
X4078465Y2130000D02*
D03*
X4011535D02*
D03*
X4083465Y2235000D02*
D03*
X4016535D02*
D03*
X4028465Y3991535D02*
D03*
X3961535D02*
D03*
X4023465Y4080000D02*
D03*
X3956535D02*
D03*
X4023465Y4175000D02*
D03*
X3956535D02*
D03*
X2610118Y3700000D02*
D03*
X2677047D02*
D03*
X4553465Y3090000D02*
D03*
X4486535D02*
D03*
X4553465Y3170000D02*
D03*
X4486535D02*
D03*
X4553465Y3245000D02*
D03*
X4486535D02*
D03*
D17*
X2544134Y2417402D02*
D03*
Y2380000D02*
D03*
Y2342599D02*
D03*
X2435866D02*
D03*
Y2380000D02*
D03*
Y2417402D02*
D03*
D18*
X3395787Y2362598D02*
D03*
X3494213Y2400000D02*
D03*
X3395787Y2437402D02*
D03*
X2875787Y2342598D02*
D03*
X2974213Y2380000D02*
D03*
X2875787Y2417402D02*
D03*
X2862717Y3077402D02*
D03*
X2764291Y3040000D02*
D03*
X2862717Y3002598D02*
D03*
X2788425Y2147402D02*
D03*
X2690000Y2110000D02*
D03*
X2788425Y2072598D02*
D03*
X2669213Y1947402D02*
D03*
X2570787Y1910000D02*
D03*
X2669213Y1872598D02*
D03*
X2909213Y1822402D02*
D03*
X2810787Y1785000D02*
D03*
X2909213Y1747598D02*
D03*
D19*
X3501496Y2650000D02*
D03*
X3438504D02*
D03*
X2753504Y2415000D02*
D03*
X2816496D02*
D03*
X3253504Y2507598D02*
D03*
X3316496D02*
D03*
X3501496Y2575000D02*
D03*
X3438504D02*
D03*
X2651969Y2553031D02*
D03*
X2714961D02*
D03*
X2656969Y2630000D02*
D03*
X2719961D02*
D03*
X3001496Y3055000D02*
D03*
X2938504D02*
D03*
X2650472Y2840000D02*
D03*
X2713465D02*
D03*
X2650472Y2915000D02*
D03*
X2713465D02*
D03*
D20*
X3015276Y2890000D02*
D03*
Y2840000D02*
D03*
Y2790000D02*
D03*
Y2740000D02*
D03*
Y2690000D02*
D03*
Y2640000D02*
D03*
Y2590000D02*
D03*
X3224724D02*
D03*
Y2640000D02*
D03*
Y2690000D02*
D03*
Y2740000D02*
D03*
Y2790000D02*
D03*
Y2840000D02*
D03*
Y2890000D02*
D03*
D21*
X3075000Y3885000D02*
D03*
D22*
X3185236Y3718661D02*
D03*
Y3744252D02*
D03*
Y3769843D02*
D03*
Y3795433D02*
D03*
Y3821024D02*
D03*
Y3846614D02*
D03*
Y3872205D02*
D03*
Y3897795D02*
D03*
Y3923386D02*
D03*
Y3948976D02*
D03*
Y3974567D02*
D03*
Y4000157D02*
D03*
Y4025748D02*
D03*
Y4051339D02*
D03*
X2964764Y3718661D02*
D03*
Y3744252D02*
D03*
Y3769843D02*
D03*
Y3795433D02*
D03*
Y3821024D02*
D03*
Y3846614D02*
D03*
Y3872205D02*
D03*
Y3897795D02*
D03*
Y3923386D02*
D03*
Y3948976D02*
D03*
Y3974567D02*
D03*
Y4000157D02*
D03*
Y4025748D02*
D03*
Y4051339D02*
D03*
D23*
X3090551Y1653543D02*
D03*
X3208661D02*
D03*
X3208661Y4645669D02*
D03*
X3090551D02*
D03*
D24*
X3165354Y1671260D02*
D03*
X3133858D02*
D03*
X3133858Y4627953D02*
D03*
X3165354D02*
D03*
D25*
X4161905Y2051850D02*
D03*
X4245421Y2135366D02*
D03*
X2141758Y4241758D02*
D03*
X2058242Y4158242D02*
D03*
D26*
X4202271Y2117271D02*
D03*
X4180000Y2095000D02*
D03*
X2101392Y4176337D02*
D03*
X2123663Y4198608D02*
D03*
D27*
X4645669Y3090551D02*
D03*
Y3208661D02*
D03*
X1653543Y3090551D02*
D03*
Y3208661D02*
D03*
D28*
X4627953Y3165354D02*
D03*
Y3133858D02*
D03*
X1671260Y3165354D02*
D03*
Y3133858D02*
D03*
D29*
X3640000Y4255158D02*
D03*
Y4524842D02*
D03*
D30*
X2704882Y3825000D02*
D03*
X2760000D02*
D03*
X2705000Y3770000D02*
D03*
X2760118D02*
D03*
X2610118Y3905315D02*
D03*
X2555000D02*
D03*
X2740000Y3890000D02*
D03*
X2795118D02*
D03*
D31*
X3359567Y3795000D02*
D03*
X3430433D02*
D03*
X3359567Y3973228D02*
D03*
X3430433D02*
D03*
D32*
X3581713Y3979724D02*
D03*
X3658287D02*
D03*
X3581713Y3795000D02*
D03*
X3658287D02*
D03*
D33*
X3639515Y3225241D02*
X3740000Y3124756D01*
X2462790Y3225241D02*
X3639515D01*
X2423032Y3265000D02*
X2462790Y3225241D01*
Y3099759D02*
Y3225241D01*
X2423032Y3060000D02*
X2462790Y3099759D01*
X2423032Y3265000D02*
Y3803032D01*
X2470000Y3850000D01*
X2912220Y4505000D02*
X2918756Y4511535D01*
X3349606Y2068504D02*
X3745000D01*
X3296535Y4511535D02*
X3375000Y4590000D01*
X3915000Y4319460D02*
X3930000Y4334460D01*
X3057598Y1872598D02*
X3297598D01*
X2932598Y1747598D02*
X3057598Y1872598D01*
X3297598D02*
X3335000Y1910000D01*
X2925000Y4208465D02*
X2998465D01*
X3021535Y4130000D02*
X3080000D01*
X3494213Y2309213D02*
Y2400000D01*
X3253504Y2068504D02*
X3494213Y2309213D01*
X3249606Y2068504D02*
X3253504D01*
X3105000Y2041850D02*
Y2115000D01*
X3070000Y2150000D02*
X3105000Y2115000D01*
X2895000Y2150000D02*
X3070000D01*
X3105000Y2041850D02*
X3121850Y2025000D01*
X3315000D01*
X3349606Y2059606D01*
Y2068504D01*
X2544134Y2452205D02*
X2571929Y2480000D01*
X2544134Y2417402D02*
Y2452205D01*
X2612401Y2342599D02*
X2625000Y2330000D01*
X2544134Y2342599D02*
X2612401D01*
X2895000Y3922047D02*
X2963425D01*
X2700000Y2215000D02*
X2830000D01*
X2895000Y2150000D01*
X3283465Y2945866D02*
Y2975000D01*
X3267598Y2930000D02*
X3283465Y2945866D01*
X3187402Y2930000D02*
X3267598D01*
X3285000Y2705000D02*
Y2827598D01*
X3270000Y2690000D02*
X3285000Y2705000D01*
X3224724Y2690000D02*
X3270000D01*
X3272598Y2840000D02*
X3285000Y2827598D01*
X3224724Y2840000D02*
X3272598D01*
X3015276Y2690000D02*
X3224724D01*
Y2840000D02*
Y2890000D01*
X3170000Y2790000D02*
X3224724D01*
X3155000Y2805000D02*
X3170000Y2790000D01*
X3155000Y2805000D02*
Y2897598D01*
X3187402Y2930000D01*
X3283465Y2975000D02*
X3291929Y2966535D01*
X3370000D01*
X3374567Y2971102D01*
X3460000D01*
X3740000Y2615000D02*
Y3124756D01*
X3700000Y2575000D02*
X3740000Y2615000D01*
X3638465Y2575000D02*
X3700000D01*
X2510000Y3850000D02*
Y3930000D01*
Y3795000D02*
Y3850000D01*
X2470000D02*
X2510000D01*
Y2980000D02*
X2510000Y2980000D01*
Y2905000D02*
Y2980000D01*
X2475000Y2905000D02*
X2510000D01*
X2450000Y2880000D02*
X2475000Y2905000D01*
X2450000Y2735000D02*
Y2880000D01*
Y2735000D02*
X2505000Y2680000D01*
Y2630000D02*
Y2680000D01*
X2986575Y2316496D02*
X3037598D01*
X2945079Y2275000D02*
X2986575Y2316496D01*
X2465000Y2275000D02*
X2945079D01*
X2435866Y2304134D02*
X2465000Y2275000D01*
X2435866Y2304134D02*
Y2342599D01*
X2410197Y2417402D02*
X2435866D01*
X2377598Y2450000D02*
X2410197Y2417402D01*
X2377598Y2450000D02*
Y2912598D01*
X2508504Y3043504D02*
X2580000D01*
X2377598Y2912598D02*
X2508504Y3043504D01*
X2544134Y2380000D02*
X2700000D01*
X3206535Y2965000D02*
X3216535Y2975000D01*
X3160000Y2965000D02*
X3206535D01*
X2945000Y2740000D02*
X3015276D01*
X3108032Y2316496D02*
X3110000Y2318465D01*
X3037598Y2316496D02*
X3108032D01*
X3037598D02*
X3040000Y2318898D01*
Y2370000D01*
X3030000Y2380000D02*
X3040000Y2370000D01*
X2974213Y2380000D02*
X3030000D01*
X2873386Y2415000D02*
X2875787Y2417402D01*
X2816496Y2415000D02*
X2873386D01*
X2816496Y2326968D02*
X2818465Y2325000D01*
X2816496Y2326968D02*
Y2415000D01*
X2753504D02*
Y2470000D01*
X2798465Y2514961D01*
Y2556535D01*
X3513465Y2453465D02*
X3595000D01*
X3494213Y2434213D02*
X3513465Y2453465D01*
X3494213Y2400000D02*
Y2434213D01*
X3683032Y2453465D02*
X3685000Y2451496D01*
X3595000Y2453465D02*
X3683032D01*
X3253504Y2507598D02*
Y2543032D01*
X3224724Y2571811D02*
X3253504Y2543032D01*
X3224724Y2571811D02*
Y2590000D01*
X3393386Y2435000D02*
X3395787Y2437402D01*
X3318465Y2435000D02*
X3393386D01*
X3316496Y2436968D02*
X3318465Y2435000D01*
X3316496Y2436968D02*
Y2507598D01*
X3224724Y2590000D02*
X3275000D01*
X3288465Y2576535D01*
X3348708D01*
X3224724Y2640000D02*
X3228189Y2643465D01*
X3348708D01*
Y2576535D02*
X3350244Y2575000D01*
X3438504D01*
X3348708Y2643465D02*
X3355244Y2650000D01*
X3438504D01*
X3501496D02*
X3572827D01*
X3501496Y2575000D02*
X3571535D01*
Y2648708D02*
X3572827Y2650000D01*
X3571535Y2575000D02*
Y2648708D01*
X2938504Y2690000D02*
X3015276D01*
X2900000Y2728504D02*
X2938504Y2690000D01*
X2900000Y2728504D02*
Y2750000D01*
X2940000Y2790000D01*
X3015276D01*
X2640472Y2905000D02*
X2650472Y2915000D01*
X2576929Y2905000D02*
X2640472D01*
X2651969Y2553031D02*
X2656969Y2558031D01*
X2648937Y2550000D02*
X2651969Y2553031D01*
X2573465Y2550000D02*
X2648937D01*
X2571929Y2551535D02*
X2573465Y2550000D01*
X2571929Y2551535D02*
Y2630000D01*
X2656969D01*
X2714961Y2553031D02*
X2718465Y2556535D01*
X2798465D01*
X2719961Y2630000D02*
X2726496Y2623465D01*
X2798465D01*
X2921535Y2590000D02*
X3015276D01*
X2888071Y2556535D02*
X2921535Y2590000D01*
X2798465Y2556535D02*
X2888071D01*
X2798465Y2623465D02*
X2895000D01*
X2911535Y2640000D01*
X3015276D01*
X2580000Y3043504D02*
X2581968Y3041535D01*
X2680000D01*
X2681535Y3040000D01*
X2764291D01*
X2938504Y3013504D02*
Y3055000D01*
X2927598Y3002598D02*
X2938504Y3013504D01*
X2862717Y3002598D02*
X2927598D01*
X2936535Y3056968D02*
X2938504Y3055000D01*
X2936535Y3056968D02*
Y3145000D01*
X3001496Y3055000D02*
X3015276Y3041220D01*
Y2890000D02*
Y3041220D01*
X2910000Y2890000D02*
X3015276D01*
X2891535Y2908465D02*
X2910000Y2890000D01*
X2793465Y2908465D02*
X2891535D01*
X3013740Y2841535D02*
X3015276Y2840000D01*
X2793465Y2841535D02*
X3013740D01*
X2720000Y2908465D02*
X2793465D01*
X2713465Y2915000D02*
X2720000Y2908465D01*
X2791929Y2840000D02*
X2793465Y2841535D01*
X2713465Y2840000D02*
X2791929D01*
X2578465D02*
X2650472D01*
X2576929Y2841535D02*
X2578465Y2840000D01*
X2576929Y2841535D02*
Y2905000D01*
X2926024Y3948976D02*
X2964764D01*
X2910000Y3965000D02*
X2926024Y3948976D01*
X2918756Y4511535D02*
X3075000D01*
X3010000Y4545000D02*
X3149606D01*
X2610118Y3905000D02*
X2675276D01*
X2873740Y3896457D02*
X2970000D01*
X2850000Y3920197D02*
X2873740Y3896457D01*
X2850000Y3920197D02*
Y3983071D01*
X2963425Y3922047D02*
X2964764Y3923386D01*
X3010000Y4141535D02*
X3021535Y4130000D01*
X2920000Y4203465D02*
X2925000Y4208465D01*
X2920000Y4235788D02*
X2949606Y4265394D01*
X2920000Y4203465D02*
Y4235788D01*
X2950000Y4024409D02*
X2970000D01*
X2929252Y4025748D02*
X2964764D01*
X2919252Y4035748D02*
X2929252Y4025748D01*
X2919252Y4035748D02*
Y4135787D01*
X3010000Y4115000D02*
Y4141535D01*
X2964764Y4069764D02*
X3010000Y4115000D01*
X2964764Y4051339D02*
Y4069764D01*
X2919252Y4135787D02*
X2920000Y4136535D01*
X2605000Y3900197D02*
X2610118Y3905315D01*
X2605000Y3855000D02*
Y3900197D01*
X2535000Y3770000D02*
X2705000D01*
X2555000Y3700000D02*
X2610118D01*
X2694370Y3717323D02*
X2970000D01*
X2677047Y3700000D02*
X2694370Y3717323D01*
X2783465Y2005000D02*
X3113110D01*
X3149606Y1968504D01*
X2669213Y1872598D02*
X2674961Y1866850D01*
X3016850D01*
X3045394Y1895394D01*
X3249606D01*
Y1968504D01*
X2909213Y1747598D02*
X2932598D01*
X3335000Y1910000D02*
Y1958898D01*
X3349606Y1973504D01*
X3348708Y1786292D02*
Y1791292D01*
X2335000Y4140000D02*
Y4308465D01*
X2310000Y4115000D02*
X2335000Y4140000D01*
X2268465Y4115000D02*
X2310000D01*
X2268465Y4308465D02*
X2270000Y4310000D01*
X2268465Y4185000D02*
Y4308465D01*
X3933465Y3991535D02*
X3961535D01*
X3880000Y4045000D02*
X3933465Y3991535D01*
X3880000Y4045000D02*
Y4379457D01*
X3900000Y4399457D01*
X3935000Y4080000D02*
X3956535D01*
X3915000Y4100000D02*
X3935000Y4080000D01*
X3915000Y4100000D02*
Y4319460D01*
X3956535Y4175000D02*
Y4246535D01*
X2788425Y2009961D02*
Y2072598D01*
X2783465Y2005000D02*
X2788425Y2009961D01*
X2420000Y1935000D02*
X2430000Y1945000D01*
Y1985000D01*
X2555000Y2110000D01*
X2690000D01*
X2470000Y1860000D02*
X2520000Y1910000D01*
X2570787D01*
X2663465Y1866850D02*
X2669213Y1872598D01*
X2663465Y1800000D02*
Y1866850D01*
X2903465Y1741850D02*
X2909213Y1747598D01*
X2903465Y1685000D02*
Y1741850D01*
X2778465Y1785000D02*
X2810787D01*
X2766306Y1797159D02*
X2778465Y1785000D01*
X2766306Y1797159D02*
Y1826306D01*
X3415000Y1756958D02*
Y1815000D01*
X3379646Y1850354D02*
X3415000Y1815000D01*
X3165354Y1850354D02*
X3379646D01*
X2137271Y4185000D02*
X2201535D01*
X1745000Y2965000D02*
X1860000D01*
X4510000Y2990000D02*
X4558110D01*
X3165354Y1818465D02*
Y1850354D01*
X3321535Y1818465D02*
X3348708Y1791292D01*
X3245000Y1818465D02*
X3321535D01*
X2995000Y1700000D02*
X3005000Y1710000D01*
Y1788465D01*
X3930000Y1920000D02*
Y1948465D01*
X2995000Y4560000D02*
X3010000Y4545000D01*
X4510000Y3020000D02*
X4600000D01*
X3005000Y1788465D02*
X3035000Y1818465D01*
X3085000D01*
X2020000Y2290000D02*
X2305000D01*
X2340000Y2255000D01*
Y2140000D02*
Y2255000D01*
X2325000Y2125000D02*
X2340000Y2140000D01*
X2298465Y2125000D02*
X2325000D01*
X2059875Y2185000D02*
X2126410Y2251535D01*
X2293465D01*
Y2210000D02*
Y2251535D01*
X2335000Y2045000D02*
X2355000Y2025000D01*
X2296483Y2045000D02*
X2335000D01*
X2295000Y2046483D02*
X2296483Y2045000D01*
X1780000Y3015000D02*
X1805000D01*
X1833465Y3043465D01*
Y3080000D01*
X1860000Y2965000D02*
X1885000Y2990000D01*
Y3140000D01*
X1865000Y3160000D02*
X1885000Y3140000D01*
X1833465Y3160000D02*
X1865000D01*
X1705000Y3340000D02*
X1758465Y3286535D01*
X1833465D01*
Y3245000D02*
Y3286535D01*
X2265000Y4020000D02*
Y4050000D01*
X2255000Y4010000D02*
X2265000Y4020000D01*
X2085000Y4010000D02*
X2255000D01*
X2143242Y4050000D02*
X2198071D01*
X2162729Y4115000D02*
X2201535D01*
X2101392Y4176337D02*
X2162729Y4115000D01*
X2510000Y3795000D02*
X2535000Y3770000D01*
X3149606Y4511535D02*
Y4545000D01*
X3225000Y4511535D02*
X3296535D01*
X4486535Y3286535D02*
X4519631Y3319631D01*
X4486535Y3245000D02*
Y3286535D01*
X4450000Y3050000D02*
X4510000Y2990000D01*
X4450000Y3050000D02*
Y3155000D01*
X4460000Y3165000D01*
X4481535D01*
X4486535Y3170000D01*
Y3043465D02*
X4510000Y3020000D01*
X4486535Y3043465D02*
Y3090000D01*
X4033465Y2180000D02*
X4130000D01*
X4016535Y2196929D02*
X4033465Y2180000D01*
X4016535Y2196929D02*
Y2235000D01*
X4035000Y2055000D02*
X4055000D01*
X4011535Y2078465D02*
X4035000Y2055000D01*
X4011535Y2078465D02*
Y2130000D01*
X3930000Y1948465D02*
X3981535Y2000000D01*
X2128517Y2046483D02*
X2228071D01*
X2145788Y2125000D02*
X2231535D01*
X2110421Y2089634D02*
X2145788Y2125000D01*
X2176245Y2200000D02*
X2231535D01*
X2088150Y2111905D02*
X2176245Y2200000D01*
X3165354Y1751535D02*
X3165354Y1751535D01*
X3165354Y1671260D02*
Y1751535D01*
X3085000Y1720118D02*
Y1751535D01*
Y1720118D02*
X3133858Y1671260D01*
X3245000Y1689882D02*
Y1751535D01*
X3208661Y1653543D02*
X3245000Y1689882D01*
X4083465Y2235000D02*
X4145788D01*
X4245421Y2135366D01*
X4189542Y2130000D02*
X4202271Y2117271D01*
X4078465Y2130000D02*
X4189542D01*
X4048465Y2000000D02*
X4143465Y2095000D01*
X4180000D01*
X4553465Y3090000D02*
X4584095D01*
X4627953Y3133858D01*
X4553465Y3170000D02*
X4558110Y3165354D01*
X4627953D01*
X4553465Y3245000D02*
X4609331D01*
X4645669Y3208661D01*
X4028465Y3991535D02*
X4064606D01*
X4090000Y4016929D01*
Y4067729D01*
X4188608Y4166337D01*
X4023465Y4080000D02*
X4057729D01*
X4166337Y4188608D01*
X4091483Y4175000D02*
X4148242Y4231758D01*
X4023465Y4175000D02*
X4091483D01*
X3213858Y4609606D02*
X3245000Y4578465D01*
X3170394Y4609606D02*
X3213858D01*
X3165354Y4614646D02*
X3170394Y4609606D01*
X3165354Y4614646D02*
Y4627953D01*
X3133858Y4609606D02*
X3165000Y4578465D01*
X3133858Y4609606D02*
Y4627953D01*
X3085000Y4640118D02*
X3090551Y4645669D01*
X3085000Y4578465D02*
Y4640118D01*
X2123663Y4198608D02*
X2137271Y4185000D01*
X2058242Y4135000D02*
X2143242Y4050000D01*
X1735000Y3160000D02*
X1766535D01*
X1708858Y3133858D02*
X1735000Y3160000D01*
X1671260Y3133858D02*
X1708858D01*
X1653543Y3090551D02*
X1664094Y3080000D01*
X1766535D01*
X1671260Y3165354D02*
X1686890D01*
X1766535Y3245000D01*
X2510000Y3930000D02*
X2545000Y3965000D01*
X2605000D01*
X2790000Y4150000D01*
Y4271103D01*
X2949606Y4430709D01*
X2761614Y3768504D02*
X2970000D01*
X2890000Y3794095D02*
X2970000D01*
X2859095Y3825000D02*
X2890000Y3794095D01*
X2760000Y3825000D02*
X2859095D01*
X2894724Y3845276D02*
X2970000D01*
X2850000Y3890000D02*
X2894724Y3845276D01*
X2795118Y3890000D02*
X2850000D01*
X2970000Y3819685D02*
Y3845276D01*
X2753346Y3983071D02*
X2850000D01*
X2675276Y3905000D02*
X2753346Y3983071D01*
X2760118Y3770000D02*
X2761614Y3768504D01*
X2949606Y4265394D02*
Y4330709D01*
X2850000Y4050000D02*
Y4285000D01*
X2895709Y4330709D01*
X2949606D01*
X3190472Y4143032D02*
X3191496Y4142008D01*
X4263504Y2963504D02*
X4265000Y2965000D01*
D34*
X3190472Y4024409D02*
Y4143032D01*
Y3586024D02*
Y3742913D01*
X3189449Y3585000D02*
X3190472Y3586024D01*
X3001535Y4208465D02*
X3013553Y4220482D01*
X3334055Y4645669D02*
X3344724Y4635000D01*
X3208661Y4645669D02*
X3334055D01*
X2860000Y3495000D02*
X2880000Y3475000D01*
X2940000D01*
X3050000Y3585000D01*
X2860000Y3495000D02*
Y3600000D01*
X3050000Y3585000D02*
X3116496D01*
X3049606Y4269606D02*
Y4330709D01*
X3013553Y4233553D02*
X3049606Y4269606D01*
X3010000Y4208465D02*
X3066535D01*
X3131496Y4143504D02*
X3190000D01*
X3066535Y4208465D02*
X3131496Y4143504D01*
X3013553Y4220482D02*
Y4233553D01*
X2949606Y4330709D02*
X3049606D01*
X3280000Y4142008D02*
X3400000D01*
X3513150Y4255158D01*
X3640000D01*
X3710157D02*
X3775000Y4320000D01*
Y4510261D01*
X3640000Y4255158D02*
X3710157D01*
X2205000Y4305000D02*
Y4310000D01*
X2141758Y4241758D02*
X2205000Y4305000D01*
X4645000Y3025000D02*
X4645669Y3025669D01*
X2005000Y2170000D02*
X2045000Y2130000D01*
X4285000Y4120000D02*
X4290000D01*
X4256758Y4148242D02*
X4285000Y4120000D01*
X4231758Y4148242D02*
X4256758D01*
X4645669Y3025669D02*
Y3090551D01*
X4120000Y2010000D02*
X4120055D01*
X4161905Y2051850D01*
X3020000Y1660000D02*
X3084094D01*
X3090551Y1653543D01*
X2005000Y2170000D02*
Y2190000D01*
X1653543Y3283543D02*
X1660000Y3290000D01*
X1653543Y3208661D02*
Y3283543D01*
X3430433Y3795000D02*
X3581713D01*
X3359567D02*
Y3830433D01*
X3344724Y3845276D02*
X3359567Y3830433D01*
X3190472Y3845276D02*
X3344724D01*
X3358662Y3794095D02*
X3359567Y3795000D01*
X3190472Y3794095D02*
X3358662D01*
X3116496Y3585000D02*
X3189449D01*
X3190000Y4143504D02*
X3190472Y4143032D01*
X3191496Y4142008D02*
X3280000D01*
X3359567Y3941614D02*
Y3973228D01*
X3340000Y3922047D02*
X3359567Y3941614D01*
X3190472Y3922047D02*
X3340000D01*
X3430433Y3740433D02*
Y3795000D01*
X3420000Y3730000D02*
X3430433Y3740433D01*
X3279606Y3730000D02*
X3420000D01*
X3241102Y3768504D02*
X3279606Y3730000D01*
X3430433Y3795000D02*
Y3829567D01*
X3389134Y3870866D02*
X3430433Y3829567D01*
X3190472Y3870866D02*
X3389134D01*
X3405000Y4030000D02*
X3430433Y4004567D01*
X3280000Y4030000D02*
X3405000D01*
X3430433Y3973228D02*
Y4004567D01*
X3190472Y3896457D02*
X3406890D01*
X3430433Y3920000D01*
Y3973228D01*
X3190472Y3768504D02*
X3241102D01*
X3581713Y3795000D02*
X3585000D01*
X3248819Y3998819D02*
X3280000Y4030000D01*
X3190472Y3998819D02*
X3248819D01*
X3430433Y3973228D02*
X3575216D01*
X3190472Y3973228D02*
X3338228D01*
X4100000Y2963504D02*
X4263504D01*
X4261496Y3461496D02*
X4265000Y3465000D01*
X4100000Y3461496D02*
X4261496D01*
X3658287Y3979724D02*
X3710276D01*
X4101496Y3588504D01*
Y3465000D02*
Y3588504D01*
X3575216Y3973228D02*
X3581713Y3979724D01*
X4035000Y2963504D02*
X4100000D01*
X3956535Y3041968D02*
X4035000Y2963504D01*
X3956535Y3041968D02*
Y3593543D01*
X3755079Y3795000D02*
X3956535Y3593543D01*
X3661575Y3795000D02*
X3755079D01*
D35*
X2968504Y3770000D02*
X2970000Y3768504D01*
D36*
X2949606Y4330709D02*
D03*
X3049606D02*
D03*
X3149606D02*
D03*
X3249606D02*
D03*
X3349606Y4335709D02*
D03*
Y4430709D02*
D03*
X3249606D02*
D03*
X3149606D02*
D03*
X3049606D02*
D03*
X2949606D02*
D03*
Y2068504D02*
D03*
X3049606D02*
D03*
X3149606D02*
D03*
X3249606D02*
D03*
X3349606D02*
D03*
Y1973504D02*
D03*
X3249606Y1968504D02*
D03*
X3149606D02*
D03*
X3049606D02*
D03*
X2949606D02*
D03*
X4265000Y2965000D02*
D03*
Y3465000D02*
D03*
D37*
X3520000Y1890000D02*
D03*
D38*
X4500000Y3750000D02*
D03*
X4575000Y3600000D02*
D03*
X4500000Y2850000D02*
D03*
X4350000Y4050000D02*
D03*
X4425000Y3900000D02*
D03*
X4350000Y3750000D02*
D03*
X4425000Y3600000D02*
D03*
X4350000Y3450000D02*
D03*
X4425000Y3300000D02*
D03*
X4350000Y3150000D02*
D03*
X4425000Y3000000D02*
D03*
X4350000Y2850000D02*
D03*
X4425000Y2700000D02*
D03*
X4350000Y2550000D02*
D03*
X4275000Y3900000D02*
D03*
X4200000Y3750000D02*
D03*
X4275000Y3600000D02*
D03*
Y3300000D02*
D03*
X4200000Y3150000D02*
D03*
Y2850000D02*
D03*
X4275000Y2700000D02*
D03*
Y2400000D02*
D03*
X4200000Y2250000D02*
D03*
X4125000Y3900000D02*
D03*
X4050000Y3750000D02*
D03*
X4125000Y3300000D02*
D03*
X4050000Y3150000D02*
D03*
Y2850000D02*
D03*
X3975000Y3900000D02*
D03*
X3900000Y3750000D02*
D03*
Y3450000D02*
D03*
Y3150000D02*
D03*
Y2850000D02*
D03*
Y2550000D02*
D03*
X3975000Y2400000D02*
D03*
X3900000Y2250000D02*
D03*
X3975000Y2100000D02*
D03*
X3825000Y4200000D02*
D03*
X3750000Y4050000D02*
D03*
Y3750000D02*
D03*
X3825000Y3600000D02*
D03*
X3750000Y3450000D02*
D03*
X3825000Y3300000D02*
D03*
Y3000000D02*
D03*
Y2700000D02*
D03*
X3750000Y2550000D02*
D03*
X3825000Y2400000D02*
D03*
X3750000Y2250000D02*
D03*
X3825000Y2100000D02*
D03*
X3750000Y1950000D02*
D03*
X3600000Y4350000D02*
D03*
Y4050000D02*
D03*
X3675000Y3900000D02*
D03*
Y3600000D02*
D03*
X3600000Y3450000D02*
D03*
X3675000Y3300000D02*
D03*
X3600000Y3150000D02*
D03*
X3675000Y3000000D02*
D03*
X3600000Y2850000D02*
D03*
Y2250000D02*
D03*
X3675000Y2100000D02*
D03*
X3450000Y4350000D02*
D03*
X3525000Y4200000D02*
D03*
X3450000Y4050000D02*
D03*
X3525000Y3900000D02*
D03*
Y3600000D02*
D03*
X3450000Y3450000D02*
D03*
X3525000Y3300000D02*
D03*
X3450000Y3150000D02*
D03*
X3525000Y3000000D02*
D03*
X3450000Y2850000D02*
D03*
X3375000Y4200000D02*
D03*
Y3600000D02*
D03*
X3300000Y3450000D02*
D03*
X3375000Y3300000D02*
D03*
X3300000Y3150000D02*
D03*
Y2850000D02*
D03*
Y2250000D02*
D03*
X3150000Y3450000D02*
D03*
X3225000Y3300000D02*
D03*
X3150000Y3150000D02*
D03*
Y2550000D02*
D03*
X3000000Y3450000D02*
D03*
X3075000Y3300000D02*
D03*
Y3000000D02*
D03*
X3000000Y2550000D02*
D03*
X3075000Y2400000D02*
D03*
X2925000Y3600000D02*
D03*
Y3300000D02*
D03*
X2850000Y3150000D02*
D03*
Y2250000D02*
D03*
X2700000Y4350000D02*
D03*
X2775000Y3600000D02*
D03*
X2700000Y3450000D02*
D03*
X2775000Y3300000D02*
D03*
Y2700000D02*
D03*
X2550000Y4350000D02*
D03*
X2625000Y4200000D02*
D03*
X2550000Y4050000D02*
D03*
X2625000Y3600000D02*
D03*
Y3300000D02*
D03*
Y2700000D02*
D03*
X2550000Y2250000D02*
D03*
X2475000Y4200000D02*
D03*
X2400000Y4050000D02*
D03*
X2475000Y3900000D02*
D03*
X2400000Y3750000D02*
D03*
X2475000Y3600000D02*
D03*
X2400000Y3450000D02*
D03*
X2475000Y3300000D02*
D03*
X2400000Y3150000D02*
D03*
Y2250000D02*
D03*
X2475000Y2100000D02*
D03*
X2325000Y3900000D02*
D03*
X2250000Y3750000D02*
D03*
X2325000Y3600000D02*
D03*
X2250000Y3450000D02*
D03*
X2325000Y3300000D02*
D03*
X2250000Y3150000D02*
D03*
X2325000Y3000000D02*
D03*
X2250000Y2850000D02*
D03*
X2325000Y2700000D02*
D03*
X2250000Y2550000D02*
D03*
X2325000Y2400000D02*
D03*
X2175000Y3900000D02*
D03*
X2100000Y3750000D02*
D03*
X2175000Y3600000D02*
D03*
X2100000Y3450000D02*
D03*
X2175000Y3300000D02*
D03*
X2100000Y3150000D02*
D03*
X2175000Y3000000D02*
D03*
X2100000Y2850000D02*
D03*
X2175000Y2700000D02*
D03*
X2100000Y2550000D02*
D03*
X2175000Y2400000D02*
D03*
X2025000Y3900000D02*
D03*
X1950000Y3750000D02*
D03*
X2025000Y3600000D02*
D03*
X1950000Y3450000D02*
D03*
X2025000Y3300000D02*
D03*
Y3000000D02*
D03*
X1950000Y2850000D02*
D03*
X2025000Y2700000D02*
D03*
X1950000Y2550000D02*
D03*
X2025000Y2400000D02*
D03*
X1875000Y3600000D02*
D03*
Y3300000D02*
D03*
Y2700000D02*
D03*
D39*
X3344724Y4635000D02*
D03*
X2912220Y4505000D02*
D03*
X3745000Y2068504D02*
D03*
X3375000Y4590000D02*
D03*
X3930000Y4334460D02*
D03*
X3080000Y4130000D02*
D03*
X2571929Y2480000D02*
D03*
X2625000Y2330000D02*
D03*
X2895000Y3922047D02*
D03*
X2700000Y2215000D02*
D03*
X2423032Y3060000D02*
D03*
X2510000Y2980000D02*
D03*
X2700000Y2380000D02*
D03*
X3160000Y2965000D02*
D03*
X2945000Y2740000D02*
D03*
X2910000Y3965000D02*
D03*
X2605000Y3855000D02*
D03*
X2555000Y3700000D02*
D03*
X3775000Y4510261D02*
D03*
X2077043Y4015000D02*
D03*
X3348708Y1786292D02*
D03*
X2335000Y4308465D02*
D03*
X2270000Y4310000D02*
D03*
X2205000D02*
D03*
X3900000Y4399457D02*
D03*
X3965000Y4260061D02*
D03*
X2420000Y1935000D02*
D03*
X2470000Y1860000D02*
D03*
X2766306Y1826306D02*
D03*
X3415000Y1756958D02*
D03*
X1745000Y2965000D02*
D03*
X4558110Y2990000D02*
D03*
X2860000Y3600000D02*
D03*
X2995000Y1700000D02*
D03*
X3930000Y1920000D02*
D03*
X2995000Y4560000D02*
D03*
X4600000Y3020000D02*
D03*
X4645000Y3025000D02*
D03*
X2020000Y2290000D02*
D03*
X2059875Y2185000D02*
D03*
X2355000Y2025000D02*
D03*
X1780000Y3015000D02*
D03*
X1705000Y3340000D02*
D03*
X4519631Y3319631D02*
D03*
X4130000Y2180000D02*
D03*
X4055000Y2055000D02*
D03*
X4290000Y4120000D02*
D03*
X4120000Y2010000D02*
D03*
X3020000Y1660000D02*
D03*
X2005000Y2190000D02*
D03*
X1660000Y3290000D02*
D03*
D40*
X3075000Y3810000D02*
D03*
Y3885000D02*
D03*
Y3960000D02*
D03*
%TF.MD5,56f4b0b2cceffa25a64493c8f9688a70*%
M02*
