%TF.GenerationSoftware,Altium Limited,Altium Designer,18.1.6 (161)*%
G04 Layer_Physical_Order=1*
G04 Layer_Color=255*
%FSLAX25Y25*%
%MOIN*%
%TF.FileFunction,Copper,L1,Top,Signal*%
%TF.Part,Single*%
G01*
G75*
%TA.AperFunction,Conductor*%
%ADD10C,0.00500*%
%ADD11C,0.01000*%
%TA.AperFunction,SMDPad,CuDef*%
%ADD12R,0.03543X0.03740*%
%ADD13R,0.02284X0.04646*%
%ADD14R,0.05315X0.03740*%
%ADD15R,0.05787X0.05059*%
%ADD16R,0.03347X0.05118*%
%ADD17R,0.07677X0.13780*%
G04:AMPARAMS|DCode=18|XSize=39.37mil|YSize=35.43mil|CornerRadius=0mil|HoleSize=0mil|Usage=FLASHONLY|Rotation=315.000|XOffset=0mil|YOffset=0mil|HoleType=Round|Shape=Rectangle|*
%AMROTATEDRECTD18*
4,1,4,-0.02645,0.00139,-0.00139,0.02645,0.02645,-0.00139,0.00139,-0.02645,-0.02645,0.00139,0.0*
%
%ADD18ROTATEDRECTD18*%

G04:AMPARAMS|DCode=19|XSize=15.75mil|YSize=31.5mil|CornerRadius=0mil|HoleSize=0mil|Usage=FLASHONLY|Rotation=315.000|XOffset=0mil|YOffset=0mil|HoleType=Round|Shape=Rectangle|*
%AMROTATEDRECTD19*
4,1,4,-0.01670,-0.00557,0.00557,0.01670,0.01670,0.00557,-0.00557,-0.01670,-0.01670,-0.00557,0.0*
%
%ADD19ROTATEDRECTD19*%

%ADD20R,0.05118X0.03347*%
%ADD21R,0.03740X0.05315*%
%ADD22R,0.03937X0.02362*%
%ADD23R,0.24291X0.09449*%
%ADD24O,0.01378X0.05512*%
%ADD25R,0.03937X0.03543*%
%ADD26R,0.01575X0.03150*%
G04:AMPARAMS|DCode=27|XSize=39.37mil|YSize=35.43mil|CornerRadius=0mil|HoleSize=0mil|Usage=FLASHONLY|Rotation=45.000|XOffset=0mil|YOffset=0mil|HoleType=Round|Shape=Rectangle|*
%AMROTATEDRECTD27*
4,1,4,-0.00139,-0.02645,-0.02645,-0.00139,0.00139,0.02645,0.02645,0.00139,-0.00139,-0.02645,0.0*
%
%ADD27ROTATEDRECTD27*%

G04:AMPARAMS|DCode=28|XSize=15.75mil|YSize=31.5mil|CornerRadius=0mil|HoleSize=0mil|Usage=FLASHONLY|Rotation=45.000|XOffset=0mil|YOffset=0mil|HoleType=Round|Shape=Rectangle|*
%AMROTATEDRECTD28*
4,1,4,0.00557,-0.01670,-0.01670,0.00557,-0.00557,0.01670,0.01670,-0.00557,0.00557,-0.01670,0.0*
%
%ADD28ROTATEDRECTD28*%

%ADD29R,0.03543X0.03937*%
%ADD30R,0.03150X0.01575*%
%ADD31R,0.03543X0.02756*%
%ADD32R,0.05709X0.04528*%
%ADD33R,0.03740X0.03543*%
%TA.AperFunction,Conductor*%
%ADD34C,0.02000*%
%TA.AperFunction,ComponentPad*%
%ADD35C,0.05000*%
%ADD36C,0.07874*%
%TA.AperFunction,ViaPad*%
%ADD37C,0.03000*%
G36*
X321176Y444192D02*
X321932Y443099D01*
X321935Y443071D01*
X322038Y442288D01*
X322340Y441558D01*
X322821Y440931D01*
X323448Y440450D01*
X324177Y440148D01*
X324961Y440045D01*
X325744Y440148D01*
X326473Y440450D01*
X327100Y440931D01*
X327581Y441558D01*
X327883Y442288D01*
X327939Y442707D01*
X328801Y443648D01*
X329748Y444319D01*
X331935Y444031D01*
X332038Y443854D01*
X331935Y443071D01*
X332038Y442288D01*
X332340Y441558D01*
X332821Y440931D01*
X333448Y440450D01*
X334177Y440148D01*
X334961Y440045D01*
X335744Y440148D01*
X336473Y440450D01*
X337100Y440931D01*
X337581Y441558D01*
X337883Y442288D01*
X339959Y442727D01*
X342036Y442342D01*
X348666Y440750D01*
X355203Y438814D01*
X357471Y438011D01*
Y431134D01*
X352867Y426529D01*
X307964D01*
X306490Y428004D01*
Y430463D01*
X307100Y430931D01*
X307581Y431558D01*
X307883Y432288D01*
X307986Y433071D01*
X307883Y433854D01*
X307581Y434584D01*
X307100Y435211D01*
X306473Y435691D01*
X305744Y435994D01*
X304961Y436097D01*
X304177Y435994D01*
X303448Y435691D01*
X302821Y435211D01*
X302340Y434584D01*
X302038Y433854D01*
X301935Y433071D01*
X302038Y432288D01*
X302340Y431558D01*
X302821Y430931D01*
X303431Y430463D01*
Y427370D01*
X303548Y426785D01*
X303879Y426289D01*
X306249Y423919D01*
X306745Y423587D01*
X307331Y423471D01*
X359866D01*
X367317Y416020D01*
Y395059D01*
X366673D01*
Y388941D01*
X371020D01*
Y395059D01*
X370376D01*
Y411902D01*
X371004Y412421D01*
X372376Y413154D01*
X372461Y413137D01*
Y415587D01*
Y418036D01*
X372009Y417946D01*
X371986Y417942D01*
X371406Y417835D01*
X370412Y417768D01*
X369362Y418301D01*
X361581Y426081D01*
X361085Y426413D01*
X360500Y426529D01*
X359805D01*
X359040Y428377D01*
X360081Y429419D01*
X360413Y429915D01*
X360529Y430500D01*
Y435025D01*
X362529Y436165D01*
X367929Y433929D01*
X374082Y430994D01*
X380074Y427740D01*
X385887Y424178D01*
X386980Y423427D01*
Y404500D01*
X387058Y404110D01*
X387279Y403779D01*
X392625Y398433D01*
X392956Y398212D01*
X393347Y398134D01*
X393980D01*
Y396094D01*
X398327D01*
Y402213D01*
X393980D01*
Y402213D01*
X391980Y401962D01*
X389020Y404922D01*
Y408312D01*
X390037Y408871D01*
X391020Y409038D01*
X392779Y407279D01*
X393110Y407058D01*
X393480Y406984D01*
Y404941D01*
X397827D01*
Y411059D01*
X393480D01*
X392520Y412661D01*
Y412839D01*
X393480Y414441D01*
X397827D01*
Y414441D01*
X398546Y414773D01*
X400553Y413059D01*
X400173Y411059D01*
X400173D01*
Y404941D01*
X404520D01*
Y406980D01*
X405773D01*
X406163Y407058D01*
X406494Y407279D01*
X407980Y405937D01*
Y402807D01*
X407020Y402070D01*
X405020Y402213D01*
Y402213D01*
X400673D01*
Y396094D01*
X405020D01*
Y398134D01*
X406461D01*
X406851Y398212D01*
X407182Y398433D01*
X409721Y400972D01*
X409857Y401176D01*
X410074Y401361D01*
X410898Y401727D01*
X412020Y401770D01*
X416166Y396915D01*
X419460Y392623D01*
X406366Y379529D01*
X390520D01*
Y382059D01*
X386173D01*
Y375941D01*
X386971D01*
Y367617D01*
X380883Y361529D01*
X379311D01*
X378780Y361884D01*
X378000Y362039D01*
X377220Y361884D01*
X376558Y361442D01*
X376116Y360780D01*
X375961Y360000D01*
X376116Y359220D01*
X376558Y358558D01*
X377220Y358116D01*
X378000Y357961D01*
X378132Y357987D01*
X379778Y357008D01*
X380132Y356614D01*
Y352482D01*
X374868D01*
X373807Y353543D01*
X373807Y353543D01*
X373715Y354007D01*
X373715Y354007D01*
X373452Y354400D01*
X373452Y354401D01*
X373059Y354663D01*
X373059Y354663D01*
X373059Y354663D01*
X372595Y354756D01*
X372595Y354756D01*
X372131Y354663D01*
X372131Y354663D01*
X371738Y354400D01*
X370893D01*
X370500Y354663D01*
X370500Y354663D01*
X370036Y354756D01*
X369572Y354663D01*
X369572Y354663D01*
X369179Y354400D01*
X368334D01*
X367941Y354663D01*
X367941Y354663D01*
X367477Y354756D01*
X367013Y354663D01*
X367013Y354663D01*
X366619Y354400D01*
X365775D01*
X365382Y354663D01*
X365300Y354776D01*
X366319Y356776D01*
X369107D01*
Y362000D01*
X355961D01*
X342815D01*
Y356776D01*
X345603D01*
X346622Y354776D01*
X346540Y354663D01*
X346540Y354663D01*
X346147Y354400D01*
X345302D01*
X344909Y354663D01*
X344909Y354663D01*
X344445Y354756D01*
X343981Y354663D01*
X343981Y354663D01*
X343588Y354400D01*
X342743D01*
X342350Y354663D01*
X342350Y354663D01*
X341886Y354756D01*
X341422Y354663D01*
X341422Y354663D01*
X341029Y354400D01*
X340184D01*
X339791Y354663D01*
X339791Y354663D01*
X339327Y354756D01*
X339327Y354756D01*
X338863Y354663D01*
X338863Y354663D01*
X338863Y354663D01*
X338470Y354401D01*
X338470Y354400D01*
X338207Y354007D01*
X338207Y354007D01*
X338115Y353543D01*
X338115Y353543D01*
X337227Y352970D01*
X335268Y352870D01*
Y352870D01*
X328953D01*
Y352870D01*
X327768D01*
X325903Y353196D01*
X324480Y354760D01*
X324503Y355341D01*
X325654Y356491D01*
X326280Y356616D01*
X326942Y357058D01*
X327384Y357720D01*
X327539Y358500D01*
X327384Y359280D01*
X326942Y359942D01*
X326280Y360384D01*
X325500Y360539D01*
X324720Y360384D01*
X324058Y359942D01*
X323616Y359280D01*
X323492Y358654D01*
X321055Y356218D01*
X317029Y360244D01*
Y365626D01*
X319839D01*
Y380405D01*
X311161D01*
Y365626D01*
X313971D01*
Y359611D01*
X314087Y359025D01*
X314419Y358529D01*
X320919Y352029D01*
X321453Y351495D01*
Y348864D01*
X320953Y347071D01*
X320953Y346337D01*
Y344701D01*
X324610D01*
Y344201D01*
X325111D01*
Y341331D01*
X326453D01*
X328268Y341331D01*
X330268Y341331D01*
X331610D01*
Y344201D01*
X332111D01*
Y344701D01*
X335768D01*
Y346337D01*
X335768Y347071D01*
X335670Y347423D01*
X336376Y348360D01*
X336623Y348439D01*
X338470Y348552D01*
X338470Y348552D01*
X338863Y348289D01*
X338863Y348289D01*
X338863Y348289D01*
X339327Y348197D01*
X339327Y348197D01*
X339791Y348289D01*
X339791Y348289D01*
X340006Y348433D01*
X341849Y348000D01*
X342414Y346155D01*
X339380Y343121D01*
X339048Y342625D01*
X338931Y342039D01*
Y328772D01*
X337719Y327313D01*
X337121Y326974D01*
X336525Y326855D01*
X335698Y326302D01*
X335145Y325476D01*
X335051Y325000D01*
X337500D01*
Y324500D01*
X338000D01*
Y322050D01*
X338475Y322145D01*
X339302Y322698D01*
X339855Y323524D01*
X339921Y323858D01*
X340045Y324066D01*
X341042Y324997D01*
X341607Y325279D01*
X343607Y324571D01*
Y324193D01*
X345431D01*
Y317858D01*
X343772D01*
Y316950D01*
X342158Y316020D01*
X341772Y316020D01*
X339000D01*
Y313150D01*
X338500D01*
Y312650D01*
X334842D01*
Y311013D01*
X334842Y310279D01*
X335343Y308487D01*
Y304480D01*
X341657D01*
Y305321D01*
X343772D01*
Y304142D01*
X345636D01*
Y296799D01*
X339866Y291029D01*
X336592D01*
X336299Y291738D01*
X335587Y292665D01*
X334661Y293376D01*
X333581Y293823D01*
X332423Y293975D01*
X331265Y293823D01*
X330185Y293376D01*
X329258Y292665D01*
X328547Y291738D01*
X328100Y290658D01*
X327948Y289500D01*
X328100Y288342D01*
X328547Y287262D01*
X329258Y286335D01*
X330185Y285624D01*
X331265Y285177D01*
X332423Y285025D01*
X333581Y285177D01*
X334661Y285624D01*
X335587Y286335D01*
X336299Y287262D01*
X336592Y287971D01*
X340500D01*
X341085Y288087D01*
X341581Y288419D01*
X348247Y295084D01*
X348579Y295580D01*
X348695Y296166D01*
Y304142D01*
X350559D01*
Y309799D01*
X350559Y310201D01*
Y311799D01*
X350559Y312201D01*
Y317858D01*
X348490D01*
Y324193D01*
X350315D01*
Y325427D01*
X350418D01*
X351003Y325544D01*
X351499Y325875D01*
X353823Y328199D01*
X354080Y328272D01*
X355118Y328249D01*
X356353Y327901D01*
X358380Y325875D01*
X358876Y325544D01*
X359461Y325427D01*
X361429D01*
Y324193D01*
X363254D01*
Y317610D01*
X361606D01*
Y311952D01*
X361606Y311551D01*
Y309952D01*
X361606Y309551D01*
Y303893D01*
X363471D01*
Y296500D01*
X363587Y295915D01*
X363919Y295419D01*
X370919Y288419D01*
X371415Y288087D01*
X372000Y287971D01*
X378254D01*
X378547Y287262D01*
X379258Y286335D01*
X380185Y285624D01*
X381265Y285177D01*
X382423Y285025D01*
X383581Y285177D01*
X384661Y285624D01*
X385587Y286335D01*
X386299Y287262D01*
X386746Y288342D01*
X386898Y289500D01*
X386746Y290658D01*
X386299Y291738D01*
X385587Y292665D01*
X384661Y293376D01*
X383581Y293823D01*
X382423Y293975D01*
X381265Y293823D01*
X380185Y293376D01*
X379258Y292665D01*
X378547Y291738D01*
X378254Y291029D01*
X372634D01*
X366529Y297133D01*
Y303893D01*
X368394D01*
Y305394D01*
X373572D01*
X374009Y305480D01*
X377658D01*
Y309487D01*
X378157Y311280D01*
X378157Y312013D01*
Y313650D01*
X374500D01*
X370843D01*
Y312013D01*
X370843Y311280D01*
X371073Y310452D01*
X370705Y309871D01*
X368719Y309637D01*
X368394Y309952D01*
Y311551D01*
X368394Y311952D01*
Y317610D01*
X366313D01*
Y324193D01*
X368138D01*
Y325427D01*
X369268D01*
X369853Y325544D01*
X370349Y325875D01*
X371542Y327068D01*
X371874Y327564D01*
X371990Y328150D01*
Y335265D01*
X372517Y335739D01*
X373990Y336552D01*
X374000Y336550D01*
Y339000D01*
Y341449D01*
X373990Y341448D01*
X373053Y341706D01*
X371874Y342585D01*
X371542Y343081D01*
X368872Y345752D01*
Y346535D01*
X370036Y348197D01*
X370500Y348289D01*
X370893Y348552D01*
X371738Y348552D01*
X372131Y348289D01*
X372131Y348289D01*
X372595Y348197D01*
X372595Y348197D01*
X373059Y348289D01*
X373059Y348289D01*
X373059Y348289D01*
X373452Y348552D01*
X373452Y348552D01*
X373715Y348945D01*
X373715Y348945D01*
X373807Y349409D01*
X373807Y349409D01*
X373821Y349423D01*
X380132D01*
Y345520D01*
X378343D01*
Y341513D01*
X378292Y341332D01*
X376452Y340705D01*
X376302Y340802D01*
X376293Y340809D01*
X375476Y341355D01*
X375000Y341449D01*
Y339000D01*
Y336550D01*
X375476Y336645D01*
X375842Y336890D01*
X377430Y336324D01*
X377842Y336004D01*
Y333980D01*
X381000D01*
Y336850D01*
X382000D01*
Y333980D01*
X383343D01*
X385157Y333980D01*
X387158Y333980D01*
X388500D01*
Y336850D01*
X389000D01*
Y337350D01*
X392657D01*
Y338987D01*
X392657Y339721D01*
X392899Y341620D01*
X408161D01*
Y335760D01*
X416839D01*
Y350539D01*
X408161D01*
Y344679D01*
X392158D01*
Y345520D01*
X385842D01*
Y345520D01*
X385191D01*
X383191Y346808D01*
Y350953D01*
Y359512D01*
X389581Y365902D01*
X389913Y366399D01*
X390029Y366984D01*
Y375941D01*
X390520D01*
Y376471D01*
X407000D01*
X407585Y376587D01*
X408081Y376919D01*
X420169Y389006D01*
X422160Y388823D01*
X424178Y385887D01*
X427740Y380074D01*
X430994Y374082D01*
X433929Y367929D01*
X436538Y361630D01*
X438814Y355203D01*
X440750Y348666D01*
X442342Y342036D01*
X443584Y335333D01*
X444474Y328573D01*
X445009Y321776D01*
X445132Y317074D01*
X444279Y316221D01*
X444058Y315890D01*
X443980Y315500D01*
Y305000D01*
X444058Y304610D01*
X444279Y304279D01*
X444674Y303884D01*
X444474Y301348D01*
X443584Y294589D01*
X442342Y287885D01*
X440750Y281255D01*
X438814Y274718D01*
X436538Y268291D01*
X433929Y261993D01*
X430994Y255839D01*
X427740Y249847D01*
X424178Y244034D01*
X420316Y238415D01*
X416166Y233006D01*
X415342Y232041D01*
X314961D01*
X314578Y231883D01*
X314419Y231500D01*
Y229500D01*
X314578Y229117D01*
X314961Y228959D01*
X408100D01*
X409177Y226959D01*
X408914Y226559D01*
X406173D01*
Y223748D01*
X405827Y223520D01*
X403827Y224598D01*
Y226559D01*
X399480D01*
Y220441D01*
X399576D01*
X400916Y218558D01*
X400860Y217125D01*
X399612Y216059D01*
X398980D01*
Y215519D01*
X396915Y213755D01*
X391506Y209605D01*
X385887Y205743D01*
X380074Y202181D01*
X374082Y198928D01*
X367929Y195992D01*
X361630Y193383D01*
X355203Y191107D01*
X348666Y189171D01*
X342036Y187580D01*
X335333Y186337D01*
X333190Y186055D01*
X332610D01*
X331845Y187903D01*
X334221Y190279D01*
X334442Y190610D01*
X334520Y191000D01*
Y193938D01*
X334961Y194325D01*
X335744Y194428D01*
X336473Y194730D01*
X337100Y195211D01*
X337581Y195837D01*
X337883Y196567D01*
X337986Y197350D01*
X337883Y198134D01*
X337581Y198863D01*
X337100Y199490D01*
X336473Y199971D01*
X335744Y200273D01*
X334961Y200376D01*
X334177Y200273D01*
X333448Y199971D01*
X332821Y199490D01*
X332340Y198863D01*
X332038Y198134D01*
X331935Y197350D01*
X332038Y196567D01*
X332340Y195837D01*
X332480Y195655D01*
Y191422D01*
X329171Y188113D01*
X326933Y188115D01*
X326830Y188218D01*
X325980Y189539D01*
Y194026D01*
X326473Y194230D01*
X327100Y194711D01*
X327581Y195337D01*
X327883Y196067D01*
X327987Y196850D01*
X327883Y197634D01*
X327581Y198363D01*
X327100Y198990D01*
X326473Y199471D01*
X325744Y199773D01*
X324961Y199876D01*
X324177Y199773D01*
X323448Y199471D01*
X322821Y198990D01*
X322340Y198363D01*
X322038Y197634D01*
X321935Y196850D01*
X322038Y196067D01*
X322340Y195337D01*
X322821Y194711D01*
X323448Y194230D01*
X323941Y194026D01*
Y190559D01*
X281539D01*
X281149Y190481D01*
X281033Y190404D01*
X279686Y191590D01*
X279559Y191739D01*
Y193846D01*
X276000D01*
Y194846D01*
X279559D01*
Y195839D01*
X280520Y197441D01*
X280520Y199480D01*
X290726D01*
X290939Y199333D01*
X291992Y197704D01*
X292018Y197480D01*
X291935Y196850D01*
X292038Y196067D01*
X292340Y195337D01*
X292821Y194711D01*
X293448Y194230D01*
X294177Y193928D01*
X294961Y193825D01*
X295744Y193928D01*
X296474Y194230D01*
X297100Y194711D01*
X297581Y195337D01*
X297883Y196067D01*
X297987Y196850D01*
X297903Y197480D01*
X297929Y197704D01*
X298802Y199055D01*
X299961Y199238D01*
X301119Y199055D01*
X301992Y197704D01*
X302018Y197480D01*
X301935Y196850D01*
X302038Y196067D01*
X302340Y195337D01*
X302821Y194711D01*
X303448Y194230D01*
X304177Y193928D01*
X304961Y193825D01*
X305744Y193928D01*
X306473Y194230D01*
X307100Y194711D01*
X307581Y195337D01*
X307883Y196067D01*
X307986Y196850D01*
X307904Y197480D01*
X307929Y197704D01*
X308982Y199333D01*
X309195Y199480D01*
X310889D01*
X312242Y198127D01*
X312038Y197634D01*
X311935Y196850D01*
X312038Y196067D01*
X312340Y195337D01*
X312821Y194711D01*
X313448Y194230D01*
X314177Y193928D01*
X314961Y193825D01*
X315744Y193928D01*
X316474Y194230D01*
X317100Y194711D01*
X317581Y195337D01*
X317883Y196067D01*
X317986Y196850D01*
X317883Y197634D01*
X317581Y198363D01*
X317100Y198990D01*
X316474Y199471D01*
X315744Y199773D01*
X314961Y199876D01*
X314177Y199773D01*
X313684Y199569D01*
X312032Y201221D01*
X311701Y201442D01*
X311311Y201520D01*
X307409D01*
X305979Y202895D01*
X305874Y203440D01*
X305929Y203463D01*
X306726Y203793D01*
X307457Y204354D01*
X308018Y205085D01*
X308370Y205937D01*
X308425Y206350D01*
X304961D01*
X301496D01*
X301551Y205937D01*
X301903Y205085D01*
X302464Y204354D01*
X303196Y203793D01*
X303992Y203463D01*
X304047Y203440D01*
X303942Y202895D01*
X302512Y201520D01*
X280520D01*
Y203559D01*
X281213Y204988D01*
X281213D01*
Y209531D01*
X276472D01*
Y205539D01*
X275218Y204095D01*
X274327Y204059D01*
Y204059D01*
X272154D01*
Y200500D01*
X271654D01*
Y200000D01*
X268980D01*
Y197512D01*
X267421D01*
Y194740D01*
X266421D01*
Y197512D01*
X264051D01*
Y196940D01*
X262388Y195828D01*
X261993Y195992D01*
X255839Y198928D01*
X250563Y201792D01*
X249968Y204026D01*
X255922Y209980D01*
X266630D01*
Y208728D01*
X271370D01*
Y213272D01*
X266630D01*
Y212020D01*
X255500D01*
X255110Y211942D01*
X254779Y211721D01*
X246990Y203932D01*
X244034Y205743D01*
X238415Y209605D01*
X234779Y212395D01*
X234721Y213279D01*
X234942Y213610D01*
X235020Y214000D01*
Y225500D01*
X234942Y225890D01*
X234721Y226221D01*
X233831Y227111D01*
X234596Y228959D01*
X303078D01*
X305078Y227154D01*
X305078Y225969D01*
X305136Y225676D01*
X305302Y225428D01*
X305863Y224866D01*
X322344Y208385D01*
X322340Y208363D01*
X322038Y207634D01*
X321935Y206850D01*
X322038Y206067D01*
X322340Y205338D01*
X322821Y204711D01*
X323448Y204230D01*
X324177Y203928D01*
X324961Y203824D01*
X325744Y203928D01*
X326473Y204230D01*
X327100Y204711D01*
X327581Y205338D01*
X327883Y206067D01*
X327987Y206850D01*
X327883Y207634D01*
X327581Y208363D01*
X327100Y208990D01*
X326473Y209471D01*
X325744Y209773D01*
X324961Y209876D01*
X324177Y209773D01*
X323448Y209471D01*
X323426Y209467D01*
X307047Y225845D01*
X306607Y226285D01*
Y227154D01*
X308607Y228959D01*
X308953D01*
X309335Y229117D01*
X309494Y229500D01*
Y231500D01*
X309335Y231883D01*
X308953Y232041D01*
X306607D01*
Y312280D01*
X306607Y314843D01*
X307078Y314843D01*
X308213D01*
Y321158D01*
X308213D01*
Y322941D01*
X308213D01*
Y329059D01*
X309798Y330059D01*
X311224D01*
Y334799D01*
X306681D01*
Y331599D01*
X305318Y330237D01*
X305097Y329906D01*
X304020Y329501D01*
X302020Y329559D01*
Y329559D01*
X299847D01*
Y326000D01*
X299346D01*
Y325500D01*
X296673D01*
Y323657D01*
X296673Y322441D01*
X296673Y320441D01*
Y318500D01*
X299543D01*
Y318000D01*
X300043D01*
Y314342D01*
X301680D01*
X302413Y314342D01*
X303078Y314528D01*
X304607Y313496D01*
X305078Y313178D01*
Y232041D01*
X304607Y232041D01*
X266388D01*
X264539Y233000D01*
X264384Y233780D01*
X263942Y234442D01*
X263280Y234884D01*
X262795Y234980D01*
X262993Y236980D01*
X268276D01*
X268558Y236558D01*
X269220Y236116D01*
X270000Y235961D01*
X270780Y236116D01*
X271442Y236558D01*
X271884Y237220D01*
X272039Y238000D01*
X271884Y238780D01*
X271442Y239442D01*
X270780Y239884D01*
X270000Y240039D01*
X269220Y239884D01*
X268558Y239442D01*
X268276Y239020D01*
X258451D01*
X256882Y240059D01*
X256882Y241421D01*
X256882Y243421D01*
Y243421D01*
X257300Y245248D01*
X257907Y246103D01*
X257973Y246116D01*
X258635Y246558D01*
X259077Y247220D01*
X259232Y248000D01*
X259077Y248780D01*
X258635Y249442D01*
X257973Y249884D01*
X257193Y250039D01*
X256413Y249884D01*
X255751Y249442D01*
X255309Y248780D01*
X255154Y248000D01*
X255253Y247502D01*
X253692Y245941D01*
X253471Y245611D01*
X253394Y245220D01*
Y243421D01*
X251945D01*
X251945Y240059D01*
X251945Y238059D01*
X251945Y236319D01*
X251945Y234319D01*
Y232579D01*
X250167Y232041D01*
X247832D01*
X246055Y232579D01*
X246055Y233819D01*
X246555Y235819D01*
X246555D01*
Y237500D01*
X243587D01*
X240618D01*
Y235819D01*
X238947Y235024D01*
X222833D01*
X222346D01*
X222316Y235018D01*
X220543Y235193D01*
X218809Y235719D01*
X217211Y236573D01*
X215810Y237723D01*
X214660Y239124D01*
X213806Y240722D01*
X213280Y242456D01*
X213105Y244229D01*
X213111Y244260D01*
X213111Y245446D01*
Y341357D01*
Y342136D01*
X214520Y343941D01*
X214520D01*
Y350059D01*
X214520D01*
Y351083D01*
X214520D01*
Y355156D01*
X217572Y358209D01*
X220772D01*
Y362949D01*
X216228D01*
Y359749D01*
X213877Y357398D01*
X210513D01*
X208720Y357898D01*
X207987Y357898D01*
X206350D01*
Y354240D01*
X205850D01*
Y353740D01*
X202980D01*
Y352559D01*
X202980Y350559D01*
X202848Y350515D01*
X200980Y350314D01*
X200654Y350802D01*
X199827Y351355D01*
X199352Y351449D01*
Y349000D01*
Y346550D01*
X199827Y346645D01*
X200654Y347198D01*
X200980Y347686D01*
X202548Y347517D01*
X202592Y347500D01*
X205654D01*
Y347000D01*
X206154D01*
Y343441D01*
X208327D01*
Y343441D01*
X210310Y343400D01*
X211156Y342908D01*
X211582Y342461D01*
Y245375D01*
X211582Y244272D01*
X211563Y244260D01*
X211696Y242573D01*
X212091Y240928D01*
X212738Y239364D01*
X213623Y237922D01*
X214721Y236635D01*
X216008Y235536D01*
X217451Y234652D01*
X218966Y234024D01*
X218978Y233895D01*
X218562Y232041D01*
X214760D01*
X214627Y231986D01*
X213755Y233006D01*
X209605Y238415D01*
X205743Y244034D01*
X202181Y249847D01*
X198928Y255839D01*
X195992Y261993D01*
X193383Y268291D01*
X191107Y274718D01*
X189171Y281255D01*
X187580Y287885D01*
X186337Y294589D01*
X186214Y295523D01*
X186390Y295558D01*
X186721Y295779D01*
X189221Y298279D01*
X189442Y298610D01*
X189520Y299000D01*
Y314000D01*
X189442Y314390D01*
X189221Y314721D01*
X187221Y316721D01*
X186890Y316942D01*
X186500Y317020D01*
X185520D01*
Y319059D01*
X185520D01*
X185148Y319441D01*
X185520Y321441D01*
X185520D01*
Y327559D01*
X185520D01*
X185574Y329537D01*
X186337Y335333D01*
X187580Y342036D01*
X189171Y348666D01*
X191107Y355203D01*
X193383Y361630D01*
X195992Y367929D01*
X198928Y374082D01*
X202181Y380074D01*
X205743Y385887D01*
X209605Y391506D01*
X213755Y396915D01*
X216373Y399980D01*
X225500D01*
X225890Y400058D01*
X226221Y400279D01*
X226459Y400517D01*
X228459Y399689D01*
Y385704D01*
X227138Y384809D01*
X225157Y385020D01*
X225157Y385020D01*
X225157Y385020D01*
X218843D01*
Y380720D01*
X218843Y380279D01*
Y378720D01*
X216714Y378978D01*
X216559Y380173D01*
X216559D01*
Y382347D01*
X209441D01*
Y380173D01*
X209570D01*
X209941Y378327D01*
X209941Y378173D01*
Y373980D01*
X210981D01*
X212488Y372791D01*
X212488Y371980D01*
Y368051D01*
X217032D01*
X217032Y372791D01*
X216823Y373134D01*
X217040Y373520D01*
X219206Y373485D01*
X219969Y372447D01*
Y368051D01*
X224512D01*
Y372791D01*
X225157Y373980D01*
X225157D01*
Y378279D01*
X225157Y378720D01*
Y380105D01*
X225730Y380449D01*
X227157Y380871D01*
X228459Y379989D01*
Y325921D01*
X228617Y325539D01*
X229000Y325380D01*
X236597D01*
X238461Y324500D01*
X238616Y323720D01*
X238750Y323520D01*
X238180Y321928D01*
X237908Y321576D01*
X236319Y322020D01*
X235069Y322020D01*
X233260D01*
Y319346D01*
X232760D01*
Y318847D01*
X229201D01*
Y316673D01*
X229330D01*
X229701Y314827D01*
X229701Y314673D01*
Y310480D01*
X231740D01*
Y307291D01*
X230728D01*
Y302551D01*
X235272D01*
Y307291D01*
X233779D01*
Y310480D01*
X235819D01*
Y310480D01*
X236862D01*
Y310480D01*
X243177D01*
Y314779D01*
X243177Y315220D01*
Y316779D01*
X243177Y317220D01*
Y321520D01*
X243136D01*
X242820Y321928D01*
X242250Y323520D01*
X242384Y323720D01*
X242539Y324500D01*
X244403Y325380D01*
X277980D01*
Y322657D01*
X277980Y322441D01*
Y320657D01*
X277980Y320441D01*
Y317500D01*
X280850D01*
Y317000D01*
X281350D01*
Y313342D01*
X282987D01*
X283720Y313342D01*
X285513Y313843D01*
X289520D01*
Y320158D01*
X288370D01*
Y322941D01*
X289520D01*
Y329059D01*
X287913D01*
Y332480D01*
X290799D01*
Y336827D01*
X285840D01*
Y339173D01*
X290799D01*
Y343520D01*
X289595D01*
X288627Y345455D01*
X288636Y345520D01*
X288779Y346240D01*
X288624Y347021D01*
X288182Y347682D01*
X287521Y348124D01*
X286740Y348279D01*
X285840Y350139D01*
Y360708D01*
X293084D01*
X293920Y360708D01*
X294673Y359020D01*
X294673Y358708D01*
Y356846D01*
X298232D01*
Y355847D01*
X294673D01*
Y353673D01*
X294803D01*
X295173Y351827D01*
X295173Y351673D01*
Y347480D01*
X301291D01*
Y349086D01*
X304295D01*
Y347480D01*
X309593D01*
X310942Y345618D01*
X310534Y344642D01*
X310421D01*
Y339902D01*
X314965D01*
Y344642D01*
X314965D01*
X313458Y346447D01*
Y347236D01*
Y348082D01*
Y348760D01*
X313399Y349053D01*
X313234Y349301D01*
X312143Y350391D01*
X311895Y350557D01*
X311602Y350615D01*
X311421Y350909D01*
X310610Y352584D01*
Y353780D01*
X310610Y354221D01*
Y358022D01*
X310610Y358022D01*
Y358520D01*
X308831Y358547D01*
X308218Y359047D01*
X308159Y359340D01*
X307994Y359588D01*
X305568Y362013D01*
X305320Y362179D01*
X305028Y362237D01*
X295056Y362237D01*
X293600D01*
X285840D01*
X285840Y362708D01*
Y415772D01*
X287840Y417269D01*
X288500Y417217D01*
X288512Y417235D01*
X288949D01*
X334629D01*
X335576Y415281D01*
X335568Y415235D01*
X335422Y414500D01*
X335577Y413720D01*
X335950Y413161D01*
X335830Y412587D01*
X335258Y411161D01*
X334402D01*
Y406815D01*
X340520D01*
Y411161D01*
X339664D01*
X339092Y412587D01*
X338972Y413161D01*
X339345Y413720D01*
X339500Y414500D01*
X339354Y415235D01*
X339345Y415281D01*
X340293Y417235D01*
X342944D01*
X342961Y417214D01*
X343234Y417159D01*
X343466Y417005D01*
X343620Y416773D01*
X343675Y416500D01*
X343696Y416483D01*
Y402891D01*
X342961Y402152D01*
X342413Y401919D01*
X340520Y403053D01*
Y404468D01*
X334402D01*
Y400122D01*
X338174D01*
Y375886D01*
X338115Y375590D01*
X338115Y372452D01*
X338115Y371657D01*
Y371657D01*
X338115Y371457D01*
X338115Y371457D01*
X338207Y370993D01*
X338207Y370993D01*
X338470Y370600D01*
X338470Y370600D01*
X338863Y370337D01*
X338863Y370337D01*
X339327Y370244D01*
X339327Y370244D01*
X339955Y370337D01*
X341259D01*
X341886Y370244D01*
X342514Y370337D01*
X343818D01*
X344445Y370244D01*
X345073Y370337D01*
X346377D01*
X347004Y370244D01*
X347632Y370337D01*
X348936D01*
X349563Y370244D01*
X350027Y370337D01*
X350027Y370337D01*
X350420Y370600D01*
X351265D01*
X351658Y370337D01*
X351740Y370224D01*
X350721Y368224D01*
X342815D01*
Y363000D01*
X355961D01*
X369107D01*
Y368224D01*
X369107D01*
X369056Y368459D01*
X369273Y368856D01*
X370663Y370337D01*
X371967D01*
X372595Y370244D01*
X372595Y370244D01*
X373059Y370337D01*
X373059Y370337D01*
X373059Y370337D01*
X373452Y370600D01*
X373452D01*
X373452Y370600D01*
X373715Y370993D01*
X373715Y370993D01*
X373807Y371457D01*
X373807Y371457D01*
X373807Y371657D01*
X373807Y371657D01*
X373807Y372079D01*
X374753Y372608D01*
X375807Y372892D01*
X376220Y372616D01*
X377000Y372461D01*
X377780Y372616D01*
X378442Y373058D01*
X378884Y373720D01*
X378970Y374152D01*
X379079Y374536D01*
X380665Y375941D01*
X383827D01*
Y382059D01*
X379480D01*
Y380020D01*
X371461D01*
X371071Y379942D01*
X370740Y379721D01*
X369315Y378296D01*
X369173Y378162D01*
X368299Y378238D01*
X367928Y378626D01*
X367011Y380357D01*
X367039Y380500D01*
X366884Y381280D01*
X366442Y381942D01*
X366061Y382197D01*
X365780Y382384D01*
X365780D01*
X365000Y382539D01*
X363864Y382561D01*
X363715Y382636D01*
X362773Y383175D01*
X362156Y383575D01*
X361724Y385092D01*
X361697Y385774D01*
X362875Y386952D01*
X363095Y387283D01*
X363173Y387673D01*
Y388941D01*
X364327D01*
Y395059D01*
X363020D01*
Y398433D01*
X362942Y398823D01*
X362721Y399154D01*
X358980Y402895D01*
Y407110D01*
X360264D01*
Y410329D01*
X360764Y412122D01*
X360764Y412659D01*
Y414000D01*
X357992D01*
X355221D01*
Y412801D01*
X354529Y412139D01*
X353507Y411431D01*
X352961Y411539D01*
X352181Y411384D01*
X351519Y410942D01*
X351077Y410280D01*
X350922Y409500D01*
X351077Y408720D01*
X351519Y408058D01*
X352181Y407616D01*
X352800Y407493D01*
X352500Y405549D01*
X351524Y405355D01*
X350698Y404802D01*
X350145Y403975D01*
X349951Y403000D01*
X348133Y401890D01*
X347189D01*
X345226Y401977D01*
Y416481D01*
X345255Y416500D01*
X345080Y417378D01*
X344688Y417966D01*
X344687Y417966D01*
X344583Y418122D01*
X344427Y418226D01*
X344427Y418227D01*
X343839Y418619D01*
X342961Y418794D01*
X342942Y418765D01*
X342777D01*
X288987D01*
X288500D01*
X288469Y418759D01*
X286697Y418933D01*
X285840Y419193D01*
X285840Y419454D01*
Y420421D01*
X285681Y420804D01*
X285298Y420962D01*
X282573D01*
X281963Y421463D01*
X280814Y422864D01*
X279959Y424462D01*
X279433Y426196D01*
X279258Y427969D01*
X279265Y428000D01*
Y428683D01*
X290827Y440245D01*
X292821Y440931D01*
X293448Y440450D01*
X294177Y440148D01*
X294961Y440045D01*
X295744Y440148D01*
X296474Y440450D01*
X297100Y440931D01*
X297581Y441558D01*
X297883Y442288D01*
X297987Y443071D01*
X297883Y443854D01*
X297986Y444031D01*
X300173Y444319D01*
X301120Y443648D01*
X301983Y442707D01*
X302038Y442288D01*
X302340Y441558D01*
X302821Y440931D01*
X303448Y440450D01*
X304177Y440148D01*
X304961Y440045D01*
X305744Y440148D01*
X306473Y440450D01*
X307100Y440931D01*
X307581Y441558D01*
X307883Y442288D01*
X307986Y443071D01*
X307989Y443099D01*
X308745Y444192D01*
X309998Y444511D01*
X311202Y444196D01*
X311940Y443108D01*
X311935Y443071D01*
X312038Y442288D01*
X312340Y441558D01*
X312821Y440931D01*
X313448Y440450D01*
X314177Y440148D01*
X314961Y440045D01*
X315744Y440148D01*
X316474Y440450D01*
X317100Y440931D01*
X317581Y441558D01*
X317883Y442288D01*
X317986Y443071D01*
X317982Y443108D01*
X318719Y444196D01*
X319923Y444511D01*
X321176Y444192D01*
D02*
G37*
G36*
X289030Y440611D02*
X278174Y429755D01*
X276981Y429638D01*
X275520Y429195D01*
X274173Y428475D01*
X272993Y427507D01*
X272025Y426327D01*
X271305Y424980D01*
X270977Y423900D01*
X270862Y423519D01*
X270712Y422000D01*
X269142Y420962D01*
X242727D01*
X242134Y422872D01*
X244034Y424178D01*
X249847Y427740D01*
X255839Y430994D01*
X258758Y432386D01*
X258829Y432355D01*
X260114Y431153D01*
X265296D01*
X265201Y431629D01*
X264649Y432456D01*
X264272Y432708D01*
X264183Y434362D01*
X264325Y434895D01*
X268291Y436538D01*
X273703Y438454D01*
X274116Y438220D01*
X274558Y437558D01*
X275220Y437116D01*
X276000Y436961D01*
X276780Y437116D01*
X277442Y437558D01*
X277884Y438220D01*
X278039Y439000D01*
X277889Y439753D01*
X281255Y440750D01*
X287885Y442342D01*
X288099Y442381D01*
X289030Y440611D01*
D02*
G37*
%LPC*%
G36*
X334961Y436597D02*
X334177Y436494D01*
X333448Y436191D01*
X332821Y435710D01*
X332340Y435084D01*
X332038Y434354D01*
X331935Y433571D01*
X332038Y432788D01*
X332340Y432058D01*
X332821Y431431D01*
X333448Y430950D01*
X334177Y430648D01*
X334961Y430545D01*
X335744Y430648D01*
X336473Y430950D01*
X337100Y431431D01*
X337581Y432058D01*
X337883Y432788D01*
X337986Y433571D01*
X337883Y434354D01*
X337581Y435084D01*
X337100Y435710D01*
X336473Y436191D01*
X335744Y436494D01*
X334961Y436597D01*
D02*
G37*
G36*
X324961Y436097D02*
X324177Y435994D01*
X323448Y435691D01*
X322821Y435211D01*
X322340Y434584D01*
X322038Y433854D01*
X321935Y433071D01*
X322038Y432288D01*
X322340Y431558D01*
X322821Y430931D01*
X323448Y430450D01*
X324177Y430148D01*
X324961Y430045D01*
X325744Y430148D01*
X326473Y430450D01*
X327100Y430931D01*
X327581Y431558D01*
X327883Y432288D01*
X327987Y433071D01*
X327883Y433854D01*
X327581Y434584D01*
X327100Y435211D01*
X326473Y435691D01*
X325744Y435994D01*
X324961Y436097D01*
D02*
G37*
G36*
X314961D02*
X314177Y435994D01*
X313448Y435691D01*
X312821Y435211D01*
X312340Y434584D01*
X312038Y433854D01*
X311935Y433071D01*
X312038Y432288D01*
X312340Y431558D01*
X312821Y430931D01*
X313448Y430450D01*
X314177Y430148D01*
X314961Y430045D01*
X315744Y430148D01*
X316474Y430450D01*
X317100Y430931D01*
X317581Y431558D01*
X317883Y432288D01*
X317986Y433071D01*
X317883Y433854D01*
X317581Y434584D01*
X317100Y435211D01*
X316474Y435691D01*
X315744Y435994D01*
X314961Y436097D01*
D02*
G37*
G36*
X294961D02*
X294177Y435994D01*
X293448Y435691D01*
X292821Y435211D01*
X292340Y434584D01*
X292038Y433854D01*
X291935Y433071D01*
X292038Y432288D01*
X292340Y431558D01*
X292821Y430931D01*
X293448Y430450D01*
X294177Y430148D01*
X294961Y430045D01*
X295744Y430148D01*
X296474Y430450D01*
X297100Y430931D01*
X297581Y431558D01*
X297883Y432288D01*
X297987Y433071D01*
X297883Y433854D01*
X297581Y434584D01*
X297100Y435211D01*
X296474Y435691D01*
X295744Y435994D01*
X294961Y436097D01*
D02*
G37*
G36*
X373461Y418036D02*
Y416087D01*
X375410D01*
X375316Y416562D01*
X374763Y417389D01*
X373936Y417942D01*
X373461Y418036D01*
D02*
G37*
G36*
X360764Y416878D02*
X358492D01*
Y415000D01*
X360764D01*
Y416878D01*
D02*
G37*
G36*
X357492D02*
X355221D01*
Y415000D01*
X357492D01*
Y416878D01*
D02*
G37*
G36*
X375410Y415087D02*
X373461D01*
Y413137D01*
X373936Y413232D01*
X374763Y413784D01*
X375316Y414611D01*
X375410Y415087D01*
D02*
G37*
G36*
X305500Y411449D02*
Y409500D01*
X307450D01*
X307355Y409975D01*
X306802Y410802D01*
X305976Y411355D01*
X305500Y411449D01*
D02*
G37*
G36*
X304500D02*
X304025Y411355D01*
X303198Y410802D01*
X302645Y409975D01*
X302551Y409500D01*
X304500D01*
Y411449D01*
D02*
G37*
G36*
X294500Y409949D02*
Y408000D01*
X296449D01*
X296355Y408475D01*
X295802Y409302D01*
X294975Y409855D01*
X294500Y409949D01*
D02*
G37*
G36*
X293500D02*
X293024Y409855D01*
X292198Y409302D01*
X291645Y408475D01*
X291550Y408000D01*
X293500D01*
Y409949D01*
D02*
G37*
G36*
X307450Y408500D02*
X305500D01*
Y406551D01*
X305976Y406645D01*
X306802Y407198D01*
X307355Y408025D01*
X307450Y408500D01*
D02*
G37*
G36*
X304500D02*
X302551D01*
X302645Y408025D01*
X303198Y407198D01*
X304025Y406645D01*
X304500Y406551D01*
Y408500D01*
D02*
G37*
G36*
X296449Y407000D02*
X294500D01*
Y405051D01*
X294975Y405145D01*
X295802Y405698D01*
X296355Y406525D01*
X296449Y407000D01*
D02*
G37*
G36*
X293500D02*
X291550D01*
X291645Y406525D01*
X292198Y405698D01*
X293024Y405145D01*
X293500Y405051D01*
Y407000D01*
D02*
G37*
G36*
X377461Y404450D02*
Y402500D01*
X379410D01*
X379316Y402976D01*
X378763Y403802D01*
X377936Y404355D01*
X377461Y404450D01*
D02*
G37*
G36*
X376461D02*
X375986Y404355D01*
X375159Y403802D01*
X374606Y402976D01*
X374511Y402500D01*
X376461D01*
Y404450D01*
D02*
G37*
G36*
X320339Y407874D02*
X316000D01*
Y400484D01*
X320339D01*
Y407874D01*
D02*
G37*
G36*
X315000D02*
X310661D01*
Y400484D01*
X315000D01*
Y407874D01*
D02*
G37*
G36*
X379410Y401500D02*
X377461D01*
Y399551D01*
X377936Y399645D01*
X378763Y400198D01*
X379316Y401024D01*
X379410Y401500D01*
D02*
G37*
G36*
X376461D02*
X374511D01*
X374606Y401024D01*
X375159Y400198D01*
X375986Y399645D01*
X376461Y399551D01*
Y401500D01*
D02*
G37*
G36*
X295461Y397950D02*
Y396000D01*
X297410D01*
X297316Y396476D01*
X296763Y397302D01*
X295936Y397855D01*
X295461Y397950D01*
D02*
G37*
G36*
X294461D02*
X293985Y397855D01*
X293158Y397302D01*
X292606Y396476D01*
X292511Y396000D01*
X294461D01*
Y397950D01*
D02*
G37*
G36*
X297410Y395000D02*
X295461D01*
Y393051D01*
X295936Y393145D01*
X296763Y393698D01*
X297316Y394525D01*
X297410Y395000D01*
D02*
G37*
G36*
X294461D02*
X292511D01*
X292606Y394525D01*
X293158Y393698D01*
X293985Y393145D01*
X294461Y393051D01*
Y395000D01*
D02*
G37*
G36*
X320339Y399484D02*
X316000D01*
Y392094D01*
X320339D01*
Y399484D01*
D02*
G37*
G36*
X315000D02*
X310661D01*
Y392094D01*
X315000D01*
Y399484D01*
D02*
G37*
G36*
X304500Y388450D02*
Y386500D01*
X306450D01*
X306355Y386976D01*
X305802Y387802D01*
X304976Y388355D01*
X304500Y388450D01*
D02*
G37*
G36*
X303500D02*
X303025Y388355D01*
X302198Y387802D01*
X301645Y386976D01*
X301551Y386500D01*
X303500D01*
Y388450D01*
D02*
G37*
G36*
X306450Y385500D02*
X304500D01*
Y383551D01*
X304976Y383645D01*
X305802Y384198D01*
X306355Y385024D01*
X306450Y385500D01*
D02*
G37*
G36*
X303500D02*
X301551D01*
X301645Y385024D01*
X302198Y384198D01*
X303025Y383645D01*
X303500Y383551D01*
Y385500D01*
D02*
G37*
G36*
X216559Y385520D02*
X213500D01*
Y383347D01*
X216559D01*
Y385520D01*
D02*
G37*
G36*
X212500D02*
X209441D01*
Y383347D01*
X212500D01*
Y385520D01*
D02*
G37*
G36*
X205350Y357898D02*
X202980D01*
Y354740D01*
X205350D01*
Y357898D01*
D02*
G37*
G36*
X198352Y351449D02*
X197876Y351355D01*
X197049Y350802D01*
X196497Y349975D01*
X196402Y349500D01*
X198352D01*
Y351449D01*
D02*
G37*
G36*
Y348500D02*
X196402D01*
X196497Y348025D01*
X197049Y347198D01*
X197876Y346645D01*
X198352Y346550D01*
Y348500D01*
D02*
G37*
G36*
X205154Y346500D02*
X202980D01*
Y343441D01*
X205154D01*
Y346500D01*
D02*
G37*
G36*
X335768Y343701D02*
X332611D01*
Y341331D01*
X335768D01*
Y343701D01*
D02*
G37*
G36*
X324111D02*
X320953D01*
Y341331D01*
X324111D01*
Y343701D01*
D02*
G37*
G36*
X307484Y344642D02*
X302941D01*
Y339902D01*
X307484D01*
Y344642D01*
D02*
G37*
G36*
X392657Y336350D02*
X389500D01*
Y333980D01*
X392657D01*
Y336350D01*
D02*
G37*
G36*
X198352Y333949D02*
Y332000D01*
X200301D01*
X200207Y332475D01*
X199654Y333302D01*
X198827Y333855D01*
X198352Y333949D01*
D02*
G37*
G36*
X197352D02*
X196876Y333855D01*
X196049Y333302D01*
X195497Y332475D01*
X195402Y332000D01*
X197352D01*
Y333949D01*
D02*
G37*
G36*
X219500Y332949D02*
Y331000D01*
X221449D01*
X221355Y331475D01*
X220802Y332302D01*
X219975Y332855D01*
X219500Y332949D01*
D02*
G37*
G36*
X218500D02*
X218024Y332855D01*
X217198Y332302D01*
X216645Y331475D01*
X216550Y331000D01*
X218500D01*
Y332949D01*
D02*
G37*
G36*
X200301Y331000D02*
X198352D01*
Y329050D01*
X198827Y329145D01*
X199654Y329698D01*
X200207Y330524D01*
X200301Y331000D01*
D02*
G37*
G36*
X197352D02*
X195402D01*
X195497Y330524D01*
X196049Y329698D01*
X196876Y329145D01*
X197352Y329050D01*
Y331000D01*
D02*
G37*
G36*
X221449Y330000D02*
X219500D01*
Y328050D01*
X219975Y328145D01*
X220802Y328698D01*
X221355Y329524D01*
X221449Y330000D01*
D02*
G37*
G36*
X218500D02*
X216550D01*
X216645Y329524D01*
X217198Y328698D01*
X218024Y328145D01*
X218500Y328050D01*
Y330000D01*
D02*
G37*
G36*
X330461Y328949D02*
Y327000D01*
X332410D01*
X332316Y327476D01*
X331763Y328302D01*
X330936Y328855D01*
X330461Y328949D01*
D02*
G37*
G36*
X329461D02*
X328986Y328855D01*
X328158Y328302D01*
X327606Y327476D01*
X327511Y327000D01*
X329461D01*
Y328949D01*
D02*
G37*
G36*
X298847Y329559D02*
X296673D01*
Y326500D01*
X298847D01*
Y329559D01*
D02*
G37*
G36*
X377000Y327950D02*
Y326000D01*
X378949D01*
X378855Y326476D01*
X378302Y327302D01*
X377476Y327855D01*
X377000Y327950D01*
D02*
G37*
G36*
X376000D02*
X375524Y327855D01*
X374698Y327302D01*
X374145Y326476D01*
X374050Y326000D01*
X376000D01*
Y327950D01*
D02*
G37*
G36*
X332410Y326000D02*
X330461D01*
Y324050D01*
X330936Y324145D01*
X331763Y324698D01*
X332316Y325524D01*
X332410Y326000D01*
D02*
G37*
G36*
X329461D02*
X327511D01*
X327606Y325524D01*
X328158Y324698D01*
X328986Y324145D01*
X329461Y324050D01*
Y326000D01*
D02*
G37*
G36*
X378949Y325000D02*
X377000D01*
Y323050D01*
X377476Y323145D01*
X378302Y323698D01*
X378855Y324524D01*
X378949Y325000D01*
D02*
G37*
G36*
X376000D02*
X374050D01*
X374145Y324524D01*
X374698Y323698D01*
X375524Y323145D01*
X376000Y323050D01*
Y325000D01*
D02*
G37*
G36*
X337000Y324000D02*
X335051D01*
X335145Y323524D01*
X335698Y322698D01*
X336525Y322145D01*
X337000Y322050D01*
Y324000D01*
D02*
G37*
G36*
X232260Y322020D02*
X229201D01*
Y319847D01*
X232260D01*
Y322020D01*
D02*
G37*
G36*
X264884Y320950D02*
Y319000D01*
X266833D01*
X266739Y319476D01*
X266186Y320302D01*
X265359Y320855D01*
X264884Y320950D01*
D02*
G37*
G36*
X263884D02*
X263408Y320855D01*
X262582Y320302D01*
X262029Y319476D01*
X261934Y319000D01*
X263884D01*
Y320950D01*
D02*
G37*
G36*
X220000Y318950D02*
Y317000D01*
X221950D01*
X221855Y317476D01*
X221302Y318302D01*
X220476Y318855D01*
X220000Y318950D01*
D02*
G37*
G36*
X219000D02*
X218525Y318855D01*
X217698Y318302D01*
X217145Y317476D01*
X217051Y317000D01*
X219000D01*
Y318950D01*
D02*
G37*
G36*
X417339Y324071D02*
X413000D01*
Y316681D01*
X417339D01*
Y324071D01*
D02*
G37*
G36*
X412000D02*
X407661D01*
Y316681D01*
X412000D01*
Y324071D01*
D02*
G37*
G36*
X266833Y318000D02*
X264884D01*
Y316051D01*
X265359Y316145D01*
X266186Y316698D01*
X266739Y317525D01*
X266833Y318000D01*
D02*
G37*
G36*
X263884D02*
X261934D01*
X262029Y317525D01*
X262582Y316698D01*
X263408Y316145D01*
X263884Y316051D01*
Y318000D01*
D02*
G37*
G36*
X378157Y317020D02*
X375000D01*
Y314650D01*
X378157D01*
Y317020D01*
D02*
G37*
G36*
X374000D02*
X370843D01*
Y314650D01*
X374000D01*
Y317020D01*
D02*
G37*
G36*
X299043Y317500D02*
X296673D01*
Y314342D01*
X299043D01*
Y317500D01*
D02*
G37*
G36*
X221950Y316000D02*
X220000D01*
Y314051D01*
X220476Y314145D01*
X221302Y314698D01*
X221855Y315525D01*
X221950Y316000D01*
D02*
G37*
G36*
X219000D02*
X217051D01*
X217145Y315525D01*
X217698Y314698D01*
X218525Y314145D01*
X219000Y314051D01*
Y316000D01*
D02*
G37*
G36*
X338000Y316020D02*
X334842D01*
Y313650D01*
X338000D01*
Y316020D01*
D02*
G37*
G36*
X280350Y316500D02*
X277980D01*
Y313342D01*
X280350D01*
Y316500D01*
D02*
G37*
G36*
X417339Y315681D02*
X413000D01*
Y308291D01*
X417339D01*
Y315681D01*
D02*
G37*
G36*
X412000D02*
X407661D01*
Y308291D01*
X412000D01*
Y315681D01*
D02*
G37*
G36*
X204500Y309949D02*
Y308000D01*
X206450D01*
X206355Y308475D01*
X205802Y309302D01*
X204976Y309855D01*
X204500Y309949D01*
D02*
G37*
G36*
X203500D02*
X203025Y309855D01*
X202198Y309302D01*
X201645Y308475D01*
X201551Y308000D01*
X203500D01*
Y309949D01*
D02*
G37*
G36*
X254000Y309450D02*
Y307500D01*
X255949D01*
X255855Y307976D01*
X255302Y308802D01*
X254475Y309355D01*
X254000Y309450D01*
D02*
G37*
G36*
X253000D02*
X252524Y309355D01*
X251698Y308802D01*
X251145Y307976D01*
X251050Y307500D01*
X253000D01*
Y309450D01*
D02*
G37*
G36*
X206450Y307000D02*
X204500D01*
Y305050D01*
X204976Y305145D01*
X205802Y305698D01*
X206355Y306524D01*
X206450Y307000D01*
D02*
G37*
G36*
X203500D02*
X201551D01*
X201645Y306524D01*
X202198Y305698D01*
X203025Y305145D01*
X203500Y305050D01*
Y307000D01*
D02*
G37*
G36*
X255949Y306500D02*
X254000D01*
Y304551D01*
X254475Y304645D01*
X255302Y305198D01*
X255855Y306025D01*
X255949Y306500D01*
D02*
G37*
G36*
X253000D02*
X251050D01*
X251145Y306025D01*
X251698Y305198D01*
X252524Y304645D01*
X253000Y304551D01*
Y306500D01*
D02*
G37*
G36*
X227791Y307291D02*
X223248D01*
Y302551D01*
X227791D01*
Y307291D01*
D02*
G37*
G36*
X411500Y299950D02*
X411025Y299855D01*
X410198Y299302D01*
X410111Y299173D01*
X410079Y299160D01*
X407921D01*
X407889Y299173D01*
X407802Y299302D01*
X406976Y299855D01*
X406500Y299950D01*
Y297500D01*
Y295051D01*
X406976Y295145D01*
X407802Y295698D01*
X407889Y295827D01*
X407921Y295840D01*
X410079D01*
X410111Y295827D01*
X410198Y295698D01*
X410951Y295194D01*
X411049Y294879D01*
X411123Y293086D01*
X410698Y292802D01*
X410145Y291975D01*
X410050Y291500D01*
X414950D01*
X414855Y291975D01*
X414302Y292802D01*
X413549Y293306D01*
X413451Y293621D01*
X413377Y295414D01*
X413802Y295698D01*
X414355Y296525D01*
X414450Y297000D01*
X412000D01*
Y297500D01*
X411500D01*
Y299950D01*
D02*
G37*
G36*
X412500D02*
Y298000D01*
X414450D01*
X414355Y298476D01*
X413802Y299302D01*
X412976Y299855D01*
X412500Y299950D01*
D02*
G37*
G36*
X405500D02*
X405024Y299855D01*
X404198Y299302D01*
X403645Y298476D01*
X403550Y298000D01*
X405500D01*
Y299950D01*
D02*
G37*
G36*
Y297000D02*
X403550D01*
X403645Y296525D01*
X404198Y295698D01*
X405024Y295145D01*
X405500Y295051D01*
Y297000D01*
D02*
G37*
G36*
X414950Y290500D02*
X413000D01*
Y288550D01*
X413476Y288645D01*
X414302Y289198D01*
X414855Y290024D01*
X414950Y290500D01*
D02*
G37*
G36*
X412000D02*
X410050D01*
X410145Y290024D01*
X410698Y289198D01*
X411524Y288645D01*
X412000Y288550D01*
Y290500D01*
D02*
G37*
G36*
X218500Y287949D02*
Y286000D01*
X220449D01*
X220355Y286475D01*
X219802Y287302D01*
X218975Y287855D01*
X218500Y287949D01*
D02*
G37*
G36*
X217500D02*
X217024Y287855D01*
X216198Y287302D01*
X215645Y286475D01*
X215550Y286000D01*
X217500D01*
Y287949D01*
D02*
G37*
G36*
X227413Y288559D02*
X225240D01*
Y285500D01*
X227413D01*
Y288559D01*
D02*
G37*
G36*
X220449Y285000D02*
X218500D01*
Y283050D01*
X218975Y283145D01*
X219802Y283698D01*
X220355Y284524D01*
X220449Y285000D01*
D02*
G37*
G36*
X217500D02*
X215550D01*
X215645Y284524D01*
X216198Y283698D01*
X217024Y283145D01*
X217500Y283050D01*
Y285000D01*
D02*
G37*
G36*
X198352Y276449D02*
Y274500D01*
X200301D01*
X200207Y274975D01*
X199654Y275802D01*
X198827Y276355D01*
X198352Y276449D01*
D02*
G37*
G36*
X197352D02*
X196876Y276355D01*
X196049Y275802D01*
X195497Y274975D01*
X195402Y274500D01*
X197352D01*
Y276449D01*
D02*
G37*
G36*
X227610Y275500D02*
X225240D01*
Y272342D01*
X227610D01*
Y275500D01*
D02*
G37*
G36*
X200301Y273500D02*
X198352D01*
Y271550D01*
X198827Y271645D01*
X199654Y272198D01*
X200207Y273025D01*
X200301Y273500D01*
D02*
G37*
G36*
X197352D02*
X195402D01*
X195497Y273025D01*
X196049Y272198D01*
X196876Y271645D01*
X197352Y271550D01*
Y273500D01*
D02*
G37*
G36*
X224500Y269950D02*
Y268000D01*
X226449D01*
X226355Y268476D01*
X225802Y269302D01*
X224975Y269855D01*
X224500Y269950D01*
D02*
G37*
G36*
X223500D02*
X223025Y269855D01*
X222198Y269302D01*
X221645Y268476D01*
X221550Y268000D01*
X223500D01*
Y269950D01*
D02*
G37*
G36*
X226449Y267000D02*
X224500D01*
Y265051D01*
X224975Y265145D01*
X225802Y265698D01*
X226355Y266525D01*
X226449Y267000D01*
D02*
G37*
G36*
X223500D02*
X221550D01*
X221645Y266525D01*
X222198Y265698D01*
X223025Y265145D01*
X223500Y265051D01*
Y267000D01*
D02*
G37*
G36*
X360000Y265950D02*
Y264000D01*
X361949D01*
X361855Y264475D01*
X361302Y265302D01*
X360475Y265855D01*
X360000Y265950D01*
D02*
G37*
G36*
X359000D02*
X358524Y265855D01*
X357698Y265302D01*
X357145Y264475D01*
X357050Y264000D01*
X359000D01*
Y265950D01*
D02*
G37*
G36*
X255500D02*
Y264000D01*
X257450D01*
X257355Y264475D01*
X256802Y265302D01*
X255976Y265855D01*
X255500Y265950D01*
D02*
G37*
G36*
X254500D02*
X254025Y265855D01*
X253198Y265302D01*
X252645Y264475D01*
X252551Y264000D01*
X254500D01*
Y265950D01*
D02*
G37*
G36*
X334000Y265603D02*
Y263653D01*
X335949D01*
X335855Y264129D01*
X335302Y264956D01*
X334475Y265509D01*
X334000Y265603D01*
D02*
G37*
G36*
X333000D02*
X332524Y265509D01*
X331698Y264956D01*
X331145Y264129D01*
X331050Y263653D01*
X333000D01*
Y265603D01*
D02*
G37*
G36*
X361949Y263000D02*
X360000D01*
Y261051D01*
X360475Y261145D01*
X361302Y261698D01*
X361855Y262525D01*
X361949Y263000D01*
D02*
G37*
G36*
X359000D02*
X357050D01*
X357145Y262525D01*
X357698Y261698D01*
X358524Y261145D01*
X359000Y261051D01*
Y263000D01*
D02*
G37*
G36*
X257450D02*
X255500D01*
Y261051D01*
X255976Y261145D01*
X256802Y261698D01*
X257355Y262525D01*
X257450Y263000D01*
D02*
G37*
G36*
X254500D02*
X252551D01*
X252645Y262525D01*
X253198Y261698D01*
X254025Y261145D01*
X254500Y261051D01*
Y263000D01*
D02*
G37*
G36*
X203352Y262949D02*
Y261000D01*
X205301D01*
X205207Y261475D01*
X204654Y262302D01*
X203827Y262855D01*
X203352Y262949D01*
D02*
G37*
G36*
X202352D02*
X201876Y262855D01*
X201049Y262302D01*
X200497Y261475D01*
X200402Y261000D01*
X202352D01*
Y262949D01*
D02*
G37*
G36*
X335949Y262653D02*
X334000D01*
Y260704D01*
X334475Y260799D01*
X335302Y261351D01*
X335855Y262178D01*
X335949Y262653D01*
D02*
G37*
G36*
X333000D02*
X331050D01*
X331145Y262178D01*
X331698Y261351D01*
X332524Y260799D01*
X333000Y260704D01*
Y262653D01*
D02*
G37*
G36*
X205301Y260000D02*
X203352D01*
Y258050D01*
X203827Y258145D01*
X204654Y258698D01*
X205207Y259524D01*
X205301Y260000D01*
D02*
G37*
G36*
X202352D02*
X200402D01*
X200497Y259524D01*
X201049Y258698D01*
X201876Y258145D01*
X202352Y258050D01*
Y260000D01*
D02*
G37*
G36*
X282500Y257603D02*
Y255654D01*
X284450D01*
X284355Y256129D01*
X283802Y256956D01*
X282976Y257508D01*
X282500Y257603D01*
D02*
G37*
G36*
X281500D02*
X281025Y257508D01*
X280198Y256956D01*
X279645Y256129D01*
X279551Y255654D01*
X281500D01*
Y257603D01*
D02*
G37*
G36*
X232000Y255949D02*
Y254000D01*
X233949D01*
X233855Y254475D01*
X233302Y255302D01*
X232475Y255855D01*
X232000Y255949D01*
D02*
G37*
G36*
X231000D02*
X230524Y255855D01*
X229698Y255302D01*
X229145Y254475D01*
X229050Y254000D01*
X231000D01*
Y255949D01*
D02*
G37*
G36*
X284450Y254654D02*
X282500D01*
Y252704D01*
X282976Y252799D01*
X283802Y253351D01*
X284355Y254178D01*
X284450Y254654D01*
D02*
G37*
G36*
X281500D02*
X279551D01*
X279645Y254178D01*
X280198Y253351D01*
X281025Y252799D01*
X281500Y252704D01*
Y254654D01*
D02*
G37*
G36*
X342500Y254450D02*
Y252500D01*
X344449D01*
X344355Y252976D01*
X343802Y253802D01*
X342975Y254355D01*
X342500Y254450D01*
D02*
G37*
G36*
X341500D02*
X341024Y254355D01*
X340198Y253802D01*
X339645Y252976D01*
X339550Y252500D01*
X341500D01*
Y254450D01*
D02*
G37*
G36*
X364500Y253949D02*
Y252000D01*
X366449D01*
X366355Y252476D01*
X365802Y253302D01*
X364976Y253855D01*
X364500Y253949D01*
D02*
G37*
G36*
X363500D02*
X363024Y253855D01*
X362198Y253302D01*
X361645Y252476D01*
X361550Y252000D01*
X363500D01*
Y253949D01*
D02*
G37*
G36*
X233949Y253000D02*
X232000D01*
Y251050D01*
X232475Y251145D01*
X233302Y251698D01*
X233855Y252524D01*
X233949Y253000D01*
D02*
G37*
G36*
X231000D02*
X229050D01*
X229145Y252524D01*
X229698Y251698D01*
X230524Y251145D01*
X231000Y251050D01*
Y253000D01*
D02*
G37*
G36*
X344449Y251500D02*
X342500D01*
Y249551D01*
X342975Y249645D01*
X343802Y250198D01*
X344355Y251025D01*
X344449Y251500D01*
D02*
G37*
G36*
X341500D02*
X339550D01*
X339645Y251025D01*
X340198Y250198D01*
X341024Y249645D01*
X341500Y249551D01*
Y251500D01*
D02*
G37*
G36*
X366449Y251000D02*
X364500D01*
Y249050D01*
X364976Y249145D01*
X365802Y249698D01*
X366355Y250524D01*
X366449Y251000D01*
D02*
G37*
G36*
X363500D02*
X361550D01*
X361645Y250524D01*
X362198Y249698D01*
X363024Y249145D01*
X363500Y249050D01*
Y251000D01*
D02*
G37*
G36*
X231532Y297449D02*
X226988D01*
Y292709D01*
X231532D01*
X231532Y292709D01*
X232943Y292497D01*
X233441Y292399D01*
X233842Y291966D01*
Y289539D01*
X233416Y289092D01*
X232570Y288600D01*
X230587Y288559D01*
Y288559D01*
X228413D01*
Y285000D01*
X227913D01*
Y284500D01*
X225240D01*
Y281658D01*
X225240Y281441D01*
Y279658D01*
X225240Y279441D01*
Y276500D01*
X228110D01*
Y276000D01*
X228610D01*
Y272342D01*
X230246D01*
X230980Y272342D01*
X232773Y272843D01*
X236779D01*
Y273397D01*
X237933Y274919D01*
Y274919D01*
X237933D01*
D01*
X238779Y275200D01*
X239619Y275090D01*
X240662Y274658D01*
X241557Y273971D01*
X242244Y273075D01*
X242676Y272032D01*
X242823Y270918D01*
X242822Y270913D01*
X242822Y269760D01*
Y245226D01*
X241118Y243421D01*
X241118D01*
Y240181D01*
X240618D01*
Y238500D01*
X243587D01*
X246555D01*
Y240181D01*
X246055D01*
Y243421D01*
X244822D01*
X244351Y243421D01*
Y269799D01*
X244351Y270904D01*
X244365Y270913D01*
X244252Y272058D01*
X243918Y273158D01*
X243376Y274172D01*
X242647Y275061D01*
X241758Y275790D01*
X240744Y276332D01*
X239644Y276666D01*
X237897Y277015D01*
X236779Y278552D01*
Y279157D01*
X235371D01*
Y281941D01*
X236779D01*
Y288059D01*
X236779D01*
X235371Y289864D01*
Y293148D01*
X235379Y293154D01*
X235379Y293154D01*
X235287Y293852D01*
X235018Y294503D01*
X235018Y294503D01*
X234589Y295061D01*
X234030Y295490D01*
X234030Y295490D01*
X233380Y295760D01*
X232790Y295838D01*
X231565Y297330D01*
X231532Y297376D01*
Y297449D01*
D02*
G37*
G36*
X252000Y226449D02*
Y224500D01*
X253949D01*
X253855Y224975D01*
X253302Y225802D01*
X252476Y226355D01*
X252000Y226449D01*
D02*
G37*
G36*
X251000D02*
X250524Y226355D01*
X249698Y225802D01*
X249145Y224975D01*
X249050Y224500D01*
X251000D01*
Y226449D01*
D02*
G37*
G36*
X253949Y223500D02*
X252000D01*
Y221550D01*
X252476Y221645D01*
X253302Y222198D01*
X253855Y223025D01*
X253949Y223500D01*
D02*
G37*
G36*
X251000D02*
X249050D01*
X249145Y223025D01*
X249698Y222198D01*
X250524Y221645D01*
X251000Y221550D01*
Y223500D01*
D02*
G37*
G36*
X281713Y217512D02*
X279343D01*
Y215240D01*
X281713D01*
Y217512D01*
D02*
G37*
G36*
X278343D02*
X275972D01*
Y215240D01*
X278343D01*
Y217512D01*
D02*
G37*
G36*
X281713Y214240D02*
X279343D01*
Y211968D01*
X281713D01*
Y214240D01*
D02*
G37*
G36*
X278343D02*
X275972D01*
Y211968D01*
X278343D01*
Y214240D01*
D02*
G37*
G36*
X315461Y210315D02*
Y207350D01*
X318425D01*
X318371Y207764D01*
X318018Y208615D01*
X317457Y209347D01*
X316726Y209908D01*
X315874Y210260D01*
X315461Y210315D01*
D02*
G37*
G36*
X305461D02*
Y207350D01*
X308425D01*
X308370Y207764D01*
X308018Y208615D01*
X307457Y209347D01*
X306726Y209908D01*
X305874Y210260D01*
X305461Y210315D01*
D02*
G37*
G36*
X314461D02*
X314047Y210260D01*
X313195Y209908D01*
X312464Y209347D01*
X311903Y208615D01*
X311551Y207764D01*
X311496Y207350D01*
X314461D01*
Y210315D01*
D02*
G37*
G36*
X304461D02*
X304047Y210260D01*
X303196Y209908D01*
X302464Y209347D01*
X301903Y208615D01*
X301551Y207764D01*
X301496Y207350D01*
X304461D01*
Y210315D01*
D02*
G37*
G36*
X334961Y209876D02*
X334177Y209773D01*
X333448Y209471D01*
X332821Y208990D01*
X332340Y208363D01*
X332038Y207634D01*
X331935Y206850D01*
X332038Y206067D01*
X332340Y205338D01*
X332821Y204711D01*
X333448Y204230D01*
X334177Y203928D01*
X334961Y203824D01*
X335744Y203928D01*
X336473Y204230D01*
X337100Y204711D01*
X337581Y205338D01*
X337883Y206067D01*
X337986Y206850D01*
X337883Y207634D01*
X337581Y208363D01*
X337100Y208990D01*
X336473Y209471D01*
X335744Y209773D01*
X334961Y209876D01*
D02*
G37*
G36*
X294961D02*
X294177Y209773D01*
X293448Y209471D01*
X292821Y208990D01*
X292340Y208363D01*
X292038Y207634D01*
X291935Y206850D01*
X292038Y206067D01*
X292340Y205338D01*
X292821Y204711D01*
X293448Y204230D01*
X294177Y203928D01*
X294961Y203824D01*
X295744Y203928D01*
X296474Y204230D01*
X297100Y204711D01*
X297581Y205338D01*
X297883Y206067D01*
X297987Y206850D01*
X297883Y207634D01*
X297581Y208363D01*
X297100Y208990D01*
X296474Y209471D01*
X295744Y209773D01*
X294961Y209876D01*
D02*
G37*
G36*
X318425Y206350D02*
X315461D01*
Y203386D01*
X315874Y203440D01*
X316726Y203793D01*
X317457Y204354D01*
X318018Y205085D01*
X318371Y205937D01*
X318425Y206350D01*
D02*
G37*
G36*
X314461D02*
X311496D01*
X311551Y205937D01*
X311903Y205085D01*
X312464Y204354D01*
X313195Y203793D01*
X314047Y203440D01*
X314461Y203386D01*
Y206350D01*
D02*
G37*
G36*
X271154Y204059D02*
X268980D01*
Y201000D01*
X271154D01*
Y204059D01*
D02*
G37*
G36*
X265296Y430154D02*
X263347D01*
Y428204D01*
X263822Y428299D01*
X264649Y428851D01*
X265201Y429678D01*
X265296Y430154D01*
D02*
G37*
G36*
X262347D02*
X260397D01*
X260491Y429678D01*
X261044Y428851D01*
X261871Y428299D01*
X262347Y428204D01*
Y430154D01*
D02*
G37*
%LPD*%
D10*
X212347Y244260D02*
G03*
X222346Y234260I10000J0D01*
G01*
X243587Y270913D02*
G03*
X238500Y276000I-5087J0D01*
G01*
X234606Y293154D02*
G03*
X232681Y295079I-1925J0D01*
G01*
X251960Y409000D02*
G03*
X253240Y410280I0J1280D01*
G01*
X241760Y409000D02*
G03*
X240760Y408000I0J-1000D01*
G01*
X344461Y416500D02*
G03*
X342961Y418000I-1500J0D01*
G01*
X256240Y418500D02*
G03*
X253240Y415500I0J-3000D01*
G01*
X278500Y428000D02*
G03*
X288500Y418000I10000J0D01*
G01*
X280240Y415779D02*
G03*
X277519Y418500I-2721J0D01*
G01*
X278500Y429000D02*
G03*
X271500Y422000I0J-7000D01*
G01*
X212347Y244260D02*
Y347000D01*
X243587Y241740D02*
Y270913D01*
X234409Y276000D02*
X238500D01*
X229260Y295079D02*
X232681D01*
X234606Y285000D02*
Y293154D01*
X253240Y412500D02*
Y415500D01*
X241760Y409000D02*
X251960D01*
X253240Y410280D02*
Y412500D01*
X240760Y368043D02*
Y408000D01*
X288500Y418000D02*
X342961D01*
X344461Y399500D02*
Y416500D01*
X256240Y418500D02*
X271500D01*
X280240Y401524D02*
Y415779D01*
X271500Y418500D02*
X277519D01*
X278500Y429000D02*
X292571Y443071D01*
X278500Y428000D02*
Y429000D01*
X271500Y418500D02*
Y422000D01*
X305842Y225969D02*
X324961Y206850D01*
X305842Y225969D02*
Y318000D01*
X222346Y234260D02*
X243587D01*
X307453Y356150D02*
Y359047D01*
X305028Y361472D02*
X307453Y359047D01*
X279240Y361472D02*
X305028D01*
X298429Y349850D02*
X307453D01*
X292571Y443071D02*
X294961D01*
X234606Y276197D02*
Y285000D01*
X307453Y349850D02*
X311602D01*
X312693Y348760D01*
Y342272D02*
Y348760D01*
X344311Y373000D02*
X344461Y373150D01*
D11*
X269240Y369000D02*
G03*
X265240Y373000I-4000J0D01*
G01*
X263090D02*
G03*
X259240Y369150I0J-3850D01*
G01*
X252587Y372500D02*
G03*
X253240Y371847I654J0D01*
G01*
X254240Y371577D02*
G03*
X253971Y371847I-269J0D01*
G01*
X251237Y330237D02*
G03*
X254240Y333240I0J3003D01*
G01*
X233913Y333087D02*
G03*
X236763Y330237I2850J0D01*
G01*
X174500Y296500D02*
X186000D01*
X188500Y299000D01*
X178000Y301500D02*
X180500D01*
X183346Y304346D01*
X170500Y334000D02*
X175847Y328654D01*
X308500Y172012D02*
X313386Y167126D01*
X308500Y172012D02*
Y175154D01*
X316535Y167126D02*
Y175154D01*
X316535Y175154D01*
X320866Y165354D02*
X324500Y168988D01*
Y175154D01*
X242000Y193500D02*
X243000Y194500D01*
X329654Y451154D02*
X337500Y459000D01*
X247000Y186000D02*
X252000Y191000D01*
X388000Y437946D02*
X390000Y439946D01*
X339193Y373000D02*
Y400563D01*
X337461Y402295D02*
X339193Y400563D01*
X263090Y373000D02*
X265240D01*
X269240Y361472D02*
Y369000D01*
X259240Y361472D02*
Y369150D01*
X252587Y372500D02*
Y383154D01*
X254240Y361472D02*
Y371577D01*
X253240Y371847D02*
X253971D01*
X236763Y330237D02*
X251237D01*
X233913Y333087D02*
Y339068D01*
X273740Y331500D02*
X274240Y332000D01*
X259240D02*
X259740Y331500D01*
X254240Y333240D02*
Y340528D01*
X274240Y332000D02*
Y340528D01*
X264240D02*
Y344679D01*
X271758Y352197D01*
X286943D01*
X259240Y332000D02*
Y340528D01*
X264240Y361472D02*
Y368500D01*
X286740Y342347D02*
Y346240D01*
Y347000D01*
X245240Y413240D02*
X262846Y430847D01*
Y430653D02*
Y430847D01*
X245240Y412347D02*
Y413240D01*
X281539Y189539D02*
X324961D01*
X280000Y188000D02*
X281539Y189539D01*
X267000Y200500D02*
X271654D01*
X266921Y200421D02*
X267000Y200500D01*
X266921Y194740D02*
Y200421D01*
X290921Y174760D02*
X291846Y173835D01*
Y169000D02*
Y173835D01*
X285154Y169000D02*
X285500Y169346D01*
Y176819D01*
X290921Y182240D01*
Y186500D01*
X275606Y194740D02*
X276000Y194346D01*
X266921Y194740D02*
X275606D01*
X267661Y188000D02*
X280000D01*
X266921Y187260D02*
X267661Y188000D01*
X297500Y177299D02*
Y183000D01*
X294961Y174760D02*
X297500Y177299D01*
X290921Y174760D02*
X294961D01*
X305633Y186685D02*
X329185D01*
X301948Y183000D02*
X305633Y186685D01*
X297500Y183000D02*
X301948D01*
X329185Y186685D02*
X333500Y191000D01*
X364918Y360571D02*
Y362736D01*
X349961Y405475D02*
X351646D01*
X349961D02*
Y408188D01*
Y399512D02*
Y405475D01*
X349436Y406000D02*
X349961Y405475D01*
X352500Y403000D02*
X353855D01*
X372595Y374500D02*
X377000D01*
X372595Y373524D02*
Y374500D01*
X359666Y380500D02*
X361000Y381834D01*
X388000Y404500D02*
Y437946D01*
X362359Y377859D02*
X365000Y380500D01*
X388000Y404500D02*
X393347Y399153D01*
X362359Y373524D02*
Y377859D01*
X371461Y379000D02*
X381115D01*
X369902Y373000D02*
Y375000D01*
X370036Y377575D02*
X371461Y379000D01*
X370036Y373524D02*
Y377575D01*
X381115Y378000D02*
Y379000D01*
X362000Y390768D02*
Y398433D01*
X357107Y373000D02*
Y382626D01*
X362154Y387673D02*
Y392000D01*
X357107Y382626D02*
X362154Y387673D01*
X357961Y402472D02*
Y408988D01*
Y402472D02*
X362000Y398433D01*
X280654Y326000D02*
X280850Y325803D01*
Y317000D02*
Y325803D01*
X225999Y368173D02*
X233260D01*
X283240Y336240D02*
Y344260D01*
Y336240D02*
X284827Y334653D01*
X287740D01*
X298232Y349654D02*
X298429Y349850D01*
X306039Y329516D02*
X308953Y332429D01*
X306039Y326000D02*
Y329516D01*
X305842Y325803D02*
X306039Y326000D01*
X305842Y318000D02*
Y325803D01*
X222000Y382650D02*
X228303D01*
X228500Y382846D01*
X247567Y376933D02*
X249240Y375260D01*
X245894Y378606D02*
X247567Y376933D01*
X249240Y361472D02*
Y375260D01*
X245894Y378606D02*
Y383154D01*
X212150Y347197D02*
X212347Y347000D01*
X212150Y347197D02*
Y354240D01*
X212161D01*
X218500Y360579D01*
X221803Y376153D02*
X222000Y376350D01*
X213000Y376153D02*
X221803D01*
X222000Y370661D02*
X222240Y370421D01*
X222000Y370661D02*
Y376350D01*
X240020Y319150D02*
X240500Y319630D01*
Y324500D01*
X240606Y333087D02*
Y339068D01*
X240760Y339221D02*
X242066Y340528D01*
X249240D01*
X275553Y397803D02*
X288584D01*
X273740Y399616D02*
X275553Y397803D01*
X273740Y399616D02*
Y401370D01*
X264240Y335500D02*
X264390D01*
X279240Y361472D02*
Y366000D01*
X280587Y367347D01*
Y373177D01*
Y380524D01*
X273894Y373177D02*
X274240Y372831D01*
X273740Y373331D02*
X273894Y373177D01*
X274240Y361472D02*
Y372831D01*
X364918Y362736D02*
Y373524D01*
Y360571D02*
X367477Y363130D01*
Y373524D01*
X359510Y362500D02*
X364681D01*
X355961D02*
X359510D01*
X349563Y361248D02*
X350815Y362500D01*
X364681D02*
X364918Y362736D01*
X349563Y351476D02*
Y361248D01*
X350815Y362500D02*
X355961D01*
X362359Y351476D02*
Y359651D01*
X359510Y362500D02*
X362359Y359651D01*
X364918Y373524D02*
X367477D01*
X354681Y363779D02*
X355961Y362500D01*
X354681Y363779D02*
Y373524D01*
X225500Y401000D02*
X226500Y402000D01*
X208500Y401000D02*
X225500D01*
X186500Y316000D02*
X188500Y314000D01*
Y299000D02*
Y314000D01*
X291222Y450500D02*
X291876Y451154D01*
X391500Y431946D02*
X393000Y433446D01*
X324961Y206850D02*
X325350D01*
X334961Y205961D02*
Y206850D01*
X254413Y245220D02*
X257193Y248000D01*
X254413Y241740D02*
Y245220D01*
X261240Y234260D02*
X262500Y233000D01*
X254413Y234260D02*
X261240D01*
X359666Y373657D02*
Y380500D01*
X259240Y340528D02*
Y361472D01*
X274240Y340528D02*
X279240D01*
X269240D02*
Y346000D01*
X270740Y347500D01*
X280000D01*
X283240Y344260D01*
X286894Y333807D02*
X287740Y334653D01*
X286894Y326000D02*
Y333807D01*
Y326000D02*
X287350Y325543D01*
Y317000D02*
Y325543D01*
X254413Y238000D02*
X270000D01*
X286740Y342347D02*
X287740Y341347D01*
X234409Y276000D02*
X234606Y276197D01*
X232760Y305161D02*
X233000Y304921D01*
X232760Y305161D02*
Y312653D01*
X232957Y312850D01*
X240020D01*
X254240Y340528D02*
X254587Y340181D01*
X240606Y339068D02*
X240760Y339221D01*
Y348047D01*
X233260Y339721D02*
X233913Y339068D01*
X233260Y339721D02*
Y348047D01*
Y354346D02*
Y361480D01*
X240760Y354346D02*
Y361350D01*
X233260Y361480D02*
X233389Y361350D01*
X240760D01*
X280240Y388476D02*
X281240Y387476D01*
X280240Y388476D02*
Y394831D01*
X245543Y397803D02*
X246043Y397303D01*
X245240Y398106D02*
X245543Y397803D01*
X245240Y398106D02*
Y405653D01*
X245394Y405807D01*
X253240D01*
Y397303D02*
Y405807D01*
X245543Y391504D02*
X245894Y391154D01*
Y383154D02*
Y391154D01*
X252587Y390350D02*
X253240Y391004D01*
X252587Y383154D02*
Y390350D01*
X307453Y356150D02*
X308831Y357528D01*
X274240Y361472D02*
X274394Y361626D01*
X280587Y380524D02*
X281240Y381177D01*
X273740Y373331D02*
Y381177D01*
Y387476D02*
Y394677D01*
X273894Y394831D01*
X280240D01*
X291876Y451154D02*
X307500D01*
X301000Y454500D02*
X314961D01*
X359666Y373657D02*
X359800Y373524D01*
X357481Y409500D02*
X357992Y408988D01*
X352961Y409500D02*
X357481D01*
X337461Y408988D02*
Y414500D01*
X278346Y200500D02*
X311311D01*
X314961Y196850D01*
X324961Y189539D02*
Y196850D01*
X333500Y191000D02*
Y195890D01*
X334961Y197350D01*
X334871Y178629D02*
Y179129D01*
X233500Y414000D02*
Y430847D01*
X231000Y411500D02*
X233500Y414000D01*
X226847Y411500D02*
X231000D01*
X226847Y430847D02*
X227000Y431000D01*
X226847Y418500D02*
Y430847D01*
X393347Y399153D02*
X396153D01*
X393500Y408000D02*
X395654D01*
X391500Y410000D02*
X393500Y408000D01*
X391500Y410000D02*
Y431946D01*
X395654Y417500D02*
Y424653D01*
X278842Y200996D02*
Y207260D01*
X278346Y200500D02*
X278842Y200996D01*
X243000Y194500D02*
Y198500D01*
X255500Y211000D01*
X269000D01*
X252000Y191000D02*
X257079D01*
X266347Y186685D02*
X266921Y187260D01*
X277847Y178500D02*
X281079D01*
X276631Y179716D02*
X277847Y178500D01*
X276631Y179716D02*
Y182631D01*
X341500Y175696D02*
Y181500D01*
X337965Y185035D02*
X341500Y181500D01*
X316535Y185035D02*
X337965D01*
X213727Y418500D02*
X220153D01*
X451000Y299000D02*
X455811D01*
X316535Y181846D02*
Y185035D01*
X332154Y181846D02*
X334871Y179129D01*
X324500Y181846D02*
X332154D01*
X299500Y170000D02*
X300500Y171000D01*
Y178847D01*
X393000Y192000D02*
Y194846D01*
X299500Y456000D02*
X301000Y454500D01*
X451000Y302000D02*
X460000D01*
X300500Y178847D02*
X303500Y181846D01*
X308500D01*
X202000Y229000D02*
X230500D01*
X234000Y225500D01*
Y214000D02*
Y225500D01*
X232500Y212500D02*
X234000Y214000D01*
X229847Y212500D02*
X232500D01*
X205988Y218500D02*
X212641Y225153D01*
X229346D01*
Y221000D02*
Y225153D01*
X233500Y204500D02*
X235500Y202500D01*
X229648Y204500D02*
X233500D01*
X229500Y204648D02*
X229648Y204500D01*
X183346Y304346D02*
Y308000D01*
Y316000D02*
X186500D01*
X175847Y328654D02*
X183346D01*
Y324500D02*
Y328654D01*
X226500Y402000D02*
Y405000D01*
X214324D02*
X219807D01*
X216273Y411500D02*
X220153D01*
X210139Y417634D02*
X216273Y411500D01*
X314961Y451154D02*
Y454500D01*
X322500Y451154D02*
X329654D01*
X448654Y328654D02*
X451963Y331963D01*
X448654Y324500D02*
Y328654D01*
X445000Y305000D02*
X451000Y299000D01*
X445000Y305000D02*
Y315500D01*
X446000Y316500D01*
X448153D01*
X448654Y317000D01*
Y304346D02*
X451000Y302000D01*
X448654Y304346D02*
Y309000D01*
X403346Y218000D02*
X413000D01*
X401653Y219693D02*
X403346Y218000D01*
X401653Y219693D02*
Y223500D01*
X403500Y205500D02*
X405500D01*
X401154Y207846D02*
X403500Y205500D01*
X401154Y207846D02*
Y213000D01*
X393000Y194846D02*
X398153Y200000D01*
X212852Y204648D02*
X222807D01*
X214579Y212500D02*
X223153D01*
X211042Y208963D02*
X214579Y212500D01*
X217624Y220000D02*
X223153D01*
X208815Y211191D02*
X217624Y220000D01*
X408347Y223500D02*
X414579D01*
X424542Y213537D01*
X418954Y213000D02*
X420227Y211727D01*
X407846Y213000D02*
X418954D01*
X404846Y200000D02*
X414347Y209500D01*
X418000D01*
X455346Y309000D02*
X458410D01*
X462795Y313386D01*
X455346Y317000D02*
X455811Y316535D01*
X462795D01*
X455346Y324500D02*
X460933D01*
X464567Y320866D01*
X402846Y399153D02*
X406461D01*
X409000Y401693D01*
Y406773D01*
X418861Y416634D01*
X402347Y408000D02*
X405773D01*
X416634Y418861D01*
X409148Y417500D02*
X414824Y423176D01*
X402347Y417500D02*
X409148D01*
X321386Y460961D02*
X324500Y457846D01*
X317039Y460961D02*
X321386D01*
X316535Y461465D02*
X317039Y460961D01*
X316535Y461465D02*
Y462795D01*
X313386Y460961D02*
X316500Y457846D01*
X313386Y460961D02*
Y462795D01*
X308500Y464012D02*
X309055Y464567D01*
X308500Y457846D02*
Y464012D01*
X212366Y419861D02*
X213727Y418500D01*
X205824Y413500D02*
X214324Y405000D01*
X173500Y316000D02*
X176654D01*
X170886Y313386D02*
X173500Y316000D01*
X167126Y313386D02*
X170886D01*
X165354Y309055D02*
X166409Y308000D01*
X176654D01*
X167126Y316535D02*
X168689D01*
X176654Y324500D01*
X344311Y373000D02*
Y393839D01*
X346870Y373000D02*
Y381000D01*
X349961Y384090D01*
Y394000D01*
X351989Y373000D02*
Y380528D01*
X356461Y385000D01*
Y390488D01*
X349429Y373000D02*
X351989D01*
X344311Y393839D02*
X344461Y393988D01*
D12*
X312693Y342272D02*
D03*
X308953Y332429D02*
D03*
X305213Y342272D02*
D03*
X225520Y304921D02*
D03*
X229260Y295079D02*
D03*
X233000Y304921D02*
D03*
X214760Y370421D02*
D03*
X218500Y360579D02*
D03*
X222240Y370421D02*
D03*
D13*
X279240Y340528D02*
D03*
X274240D02*
D03*
X269240D02*
D03*
X264240D02*
D03*
X259240D02*
D03*
X254240D02*
D03*
X249240D02*
D03*
Y361472D02*
D03*
X254240D02*
D03*
X259240D02*
D03*
X264240D02*
D03*
X269240D02*
D03*
X274240D02*
D03*
X279240D02*
D03*
D14*
X381500Y343150D02*
D03*
Y336850D02*
D03*
X389000Y343150D02*
D03*
Y336850D02*
D03*
X374500Y314150D02*
D03*
Y307850D02*
D03*
X338500Y306850D02*
D03*
Y313150D02*
D03*
X332111Y350500D02*
D03*
Y344201D02*
D03*
X233260Y354346D02*
D03*
Y348047D02*
D03*
X222000Y382650D02*
D03*
Y376350D02*
D03*
X240020Y319150D02*
D03*
Y312850D02*
D03*
X240760Y354346D02*
D03*
Y348047D02*
D03*
X245543Y397803D02*
D03*
Y391504D02*
D03*
X253240Y397303D02*
D03*
Y391004D02*
D03*
X307453Y356150D02*
D03*
Y349850D02*
D03*
X273740Y387476D02*
D03*
Y381177D02*
D03*
X281240Y387476D02*
D03*
Y381177D02*
D03*
X324610Y350500D02*
D03*
Y344201D02*
D03*
D15*
X347166Y307171D02*
D03*
Y314829D02*
D03*
X365000Y306923D02*
D03*
Y314580D02*
D03*
D16*
X252587Y383154D02*
D03*
X245894D02*
D03*
X280654Y326000D02*
D03*
X287347D02*
D03*
X227913Y285000D02*
D03*
X234606D02*
D03*
X240606Y339068D02*
D03*
X233913D02*
D03*
X205654Y347000D02*
D03*
X212347D02*
D03*
X299346Y326000D02*
D03*
X306039D02*
D03*
X280587Y373177D02*
D03*
X273894D02*
D03*
X222654Y221000D02*
D03*
X229346D02*
D03*
X222654Y212824D02*
D03*
X229346D02*
D03*
X222654Y204648D02*
D03*
X229346D02*
D03*
X176654Y324500D02*
D03*
X183346D02*
D03*
X176654Y316000D02*
D03*
X183346D02*
D03*
X176654Y308000D02*
D03*
X183346D02*
D03*
X220153Y418500D02*
D03*
X226847D02*
D03*
X219807Y405000D02*
D03*
X226500D02*
D03*
X220153Y411500D02*
D03*
X226847D02*
D03*
X278346Y200500D02*
D03*
X271654D02*
D03*
X291846Y169000D02*
D03*
X285154D02*
D03*
X404846Y200000D02*
D03*
X398153D02*
D03*
X407846Y213000D02*
D03*
X401154D02*
D03*
X408347Y223500D02*
D03*
X401653D02*
D03*
X402846Y399153D02*
D03*
X396153D02*
D03*
X402347Y408000D02*
D03*
X395654D02*
D03*
X402347Y417500D02*
D03*
X395654D02*
D03*
X368847Y392000D02*
D03*
X362154D02*
D03*
X388347Y379000D02*
D03*
X381653D02*
D03*
X455346Y309000D02*
D03*
X448654D02*
D03*
X455346Y317000D02*
D03*
X448654D02*
D03*
X455346Y324500D02*
D03*
X448654D02*
D03*
D17*
X315500Y373016D02*
D03*
Y399984D02*
D03*
X412500Y343150D02*
D03*
Y316181D02*
D03*
D18*
X204500Y213000D02*
D03*
X212852Y204648D02*
D03*
X423176Y414824D02*
D03*
X414824Y423176D02*
D03*
D19*
X211042Y208963D02*
D03*
X208815Y211191D02*
D03*
X416634Y418861D02*
D03*
X418861Y416634D02*
D03*
D20*
X287740Y334653D02*
D03*
Y341347D02*
D03*
X213000Y382846D02*
D03*
Y376153D02*
D03*
X232760Y319346D02*
D03*
Y312653D02*
D03*
X233260Y361480D02*
D03*
Y368173D02*
D03*
X253240Y412500D02*
D03*
Y405807D02*
D03*
X245240Y405653D02*
D03*
Y412347D02*
D03*
X298232Y356347D02*
D03*
Y349654D02*
D03*
X280240Y401524D02*
D03*
Y394831D02*
D03*
X273740Y394677D02*
D03*
Y401370D02*
D03*
X240760Y368043D02*
D03*
Y361350D02*
D03*
X276000Y187654D02*
D03*
Y194346D02*
D03*
X308500Y175154D02*
D03*
Y181846D02*
D03*
X316535Y175154D02*
D03*
Y181846D02*
D03*
X324500Y175154D02*
D03*
Y181846D02*
D03*
X307500Y457846D02*
D03*
Y451154D02*
D03*
X322500Y457846D02*
D03*
Y451154D02*
D03*
X314961Y457846D02*
D03*
Y451154D02*
D03*
X337461Y408988D02*
D03*
Y402295D02*
D03*
D21*
X280850Y317000D02*
D03*
X287150D02*
D03*
X228110Y276000D02*
D03*
X234409D02*
D03*
X205850Y354240D02*
D03*
X212150D02*
D03*
X299543Y318000D02*
D03*
X305842D02*
D03*
D22*
X254413Y241740D02*
D03*
Y238000D02*
D03*
Y234260D02*
D03*
X243587D02*
D03*
Y238000D02*
D03*
Y241740D02*
D03*
D23*
X355961Y362500D02*
D03*
D24*
X339327Y351476D02*
D03*
X341886D02*
D03*
X344445D02*
D03*
X347004D02*
D03*
X349563D02*
D03*
X352122D02*
D03*
X354681D02*
D03*
X357241D02*
D03*
X359800D02*
D03*
X362359D02*
D03*
X364918D02*
D03*
X367477D02*
D03*
X370036D02*
D03*
X372595D02*
D03*
X339327Y373524D02*
D03*
X341886D02*
D03*
X344445D02*
D03*
X347004D02*
D03*
X349563D02*
D03*
X352122D02*
D03*
X354681D02*
D03*
X357241D02*
D03*
X359800D02*
D03*
X362359D02*
D03*
X364918D02*
D03*
X367477D02*
D03*
X370036D02*
D03*
X372595D02*
D03*
D25*
X309055Y165354D02*
D03*
X320866D02*
D03*
X320866Y464567D02*
D03*
X309055D02*
D03*
D26*
X316535Y167126D02*
D03*
X313386D02*
D03*
X313386Y462795D02*
D03*
X316535D02*
D03*
D27*
X416190Y205185D02*
D03*
X424542Y213537D02*
D03*
X214176Y424176D02*
D03*
X205824Y415824D02*
D03*
D28*
X420227Y211727D02*
D03*
X418000Y209500D02*
D03*
X210139Y417634D02*
D03*
X212366Y419861D02*
D03*
D29*
X464567Y309055D02*
D03*
Y320866D02*
D03*
X165354Y309055D02*
D03*
Y320866D02*
D03*
D30*
X462795Y316535D02*
D03*
Y313386D02*
D03*
X167126Y316535D02*
D03*
Y313386D02*
D03*
D31*
X349961Y399512D02*
D03*
Y394000D02*
D03*
X344461Y399500D02*
D03*
Y393988D02*
D03*
X357992Y408988D02*
D03*
Y414500D02*
D03*
X356461Y396000D02*
D03*
Y390488D02*
D03*
D32*
X346961Y334043D02*
D03*
Y326957D02*
D03*
X364784Y334043D02*
D03*
Y326957D02*
D03*
D33*
X278842Y214740D02*
D03*
X269000Y211000D02*
D03*
X278842Y207260D02*
D03*
X266921Y194740D02*
D03*
X257079Y191000D02*
D03*
X266921Y187260D02*
D03*
X290921Y182240D02*
D03*
X281079Y178500D02*
D03*
X290921Y174760D02*
D03*
D34*
X165354Y328354D02*
X166000Y329000D01*
X302000Y166000D02*
X308409D01*
X309055Y165354D01*
X326063Y350953D02*
X341752D01*
X369902D02*
X381662D01*
Y343150D02*
Y350953D01*
X425676Y414824D02*
X429500Y411000D01*
X464500Y302500D02*
X464567Y302567D01*
X165354Y320866D02*
Y328354D01*
X353500Y425000D02*
X359000Y430500D01*
X353500Y425000D02*
X360500D01*
X359000Y430500D02*
Y457846D01*
X322000Y353111D02*
X324610Y350500D01*
X315500Y359611D02*
X322000Y353111D01*
Y355000D02*
X325500Y358500D01*
X322000Y353111D02*
Y355000D01*
X264240Y335500D02*
Y340528D01*
Y324571D02*
Y335500D01*
X352500Y403000D02*
Y404620D01*
X351646Y405475D02*
X352500Y404620D01*
X353855Y403000D02*
X356461Y400394D01*
Y396000D02*
Y400394D01*
X388500Y366984D02*
Y378000D01*
X381516Y360000D02*
X388500Y366984D01*
X378000Y360000D02*
X381516D01*
X388500Y378000D02*
X407000D01*
X315500Y359611D02*
Y373016D01*
X360500Y425000D02*
X368847Y416653D01*
X307331Y425000D02*
X353500D01*
X368847Y392000D02*
Y416653D01*
X304961Y427370D02*
Y433071D01*
Y427370D02*
X307331Y425000D01*
X256000Y452500D02*
X257000Y451500D01*
X263500D01*
X276000Y439000D01*
X429500Y400500D02*
Y411000D01*
X407000Y378000D02*
X429500Y400500D01*
X381662Y350953D02*
Y359854D01*
X389000Y343150D02*
X412500D01*
X381662D02*
X389000D01*
X365000Y296500D02*
X372000Y289500D01*
X365000Y296500D02*
Y306923D01*
X372000Y289500D02*
X382423D01*
X332423D02*
X340500D01*
X347166Y296166D01*
Y307171D01*
X373572Y306923D02*
X374500Y307850D01*
X365000Y306923D02*
X373572D01*
X364784Y314797D02*
X365000Y314580D01*
X364784Y314797D02*
Y326957D01*
X346845Y306850D02*
X347166Y307171D01*
X338500Y306850D02*
X346845D01*
X346961Y315034D02*
X347166Y314829D01*
X346961Y315034D02*
Y326957D01*
X325961Y351055D02*
X326063Y350953D01*
X364784Y326957D02*
X369268D01*
X370461Y328150D01*
Y342000D01*
X360918Y334043D02*
X364784D01*
X359666Y335295D02*
X360918Y334043D01*
X359666Y335295D02*
Y350953D01*
X333405Y464567D02*
X334472Y463500D01*
X320866Y464567D02*
X333405D01*
X220500Y430500D02*
Y431000D01*
X214176Y424176D02*
X220500Y430500D01*
X200500Y217000D02*
X204500Y213000D01*
X423176Y414824D02*
X425676D01*
X464567Y302567D02*
Y309055D01*
X412000Y201000D02*
X412006D01*
X416190Y205185D01*
X200500Y217000D02*
Y219000D01*
X346961Y334043D02*
X350504D01*
X351989Y335528D01*
Y350953D01*
X346870Y334134D02*
X346961Y334043D01*
X346870Y334134D02*
Y350953D01*
X341504Y326957D02*
X346961D01*
X340461Y328000D02*
X341504Y326957D01*
X340461Y328000D02*
Y342039D01*
X344311Y345890D01*
X346961Y326957D02*
X350418D01*
X354548Y331087D01*
Y350953D01*
X357107Y329311D02*
Y350953D01*
Y329311D02*
X359461Y326957D01*
X364784D01*
X344311Y345890D02*
Y350953D01*
X367343Y345118D02*
X370461Y342000D01*
X367343Y345118D02*
Y350953D01*
X364784Y336177D02*
Y350953D01*
D35*
X294961Y433071D02*
D03*
X304961D02*
D03*
X314961D02*
D03*
X324961D02*
D03*
X334961Y433571D02*
D03*
Y443071D02*
D03*
X324961D02*
D03*
X314961D02*
D03*
X304961D02*
D03*
X294961D02*
D03*
Y206850D02*
D03*
X304961D02*
D03*
X314961D02*
D03*
X324961D02*
D03*
X334961D02*
D03*
Y197350D02*
D03*
X324961Y196850D02*
D03*
X314961D02*
D03*
X304961D02*
D03*
X294961D02*
D03*
D36*
X332423Y289500D02*
D03*
X382423D02*
D03*
D37*
X174500Y296500D02*
D03*
X178000Y301500D02*
D03*
X166000Y329000D02*
D03*
X170500Y334000D02*
D03*
X242000Y193500D02*
D03*
X464500Y302500D02*
D03*
X337500Y459000D02*
D03*
X247000Y186000D02*
D03*
X390000Y439946D02*
D03*
X204000Y307500D02*
D03*
X224000Y267500D02*
D03*
X218000Y285500D02*
D03*
X253500Y307000D02*
D03*
X219500Y316500D02*
D03*
X219000Y330500D02*
D03*
X304000Y386000D02*
D03*
X305000Y409000D02*
D03*
X294961Y395500D02*
D03*
X294000Y407500D02*
D03*
X412500Y291000D02*
D03*
X406000Y297500D02*
D03*
X412000D02*
D03*
X364000Y251500D02*
D03*
X359500Y263500D02*
D03*
X342000Y252000D02*
D03*
X333500Y263154D02*
D03*
X325500Y358500D02*
D03*
X264384Y318500D02*
D03*
X273740Y331500D02*
D03*
X259240Y332000D02*
D03*
X337500Y324500D02*
D03*
X376500Y325500D02*
D03*
X374500Y339000D02*
D03*
X363000Y362000D02*
D03*
X355500D02*
D03*
X348500D02*
D03*
X231500Y253500D02*
D03*
X282000Y255153D02*
D03*
X255000Y263500D02*
D03*
X251500Y224000D02*
D03*
X286740Y346240D02*
D03*
X262846Y430653D02*
D03*
X290921Y186500D02*
D03*
X352500Y403000D02*
D03*
X270000Y238000D02*
D03*
X378000Y360000D02*
D03*
X377000Y374500D02*
D03*
X361000Y381834D02*
D03*
X365000Y380500D02*
D03*
X396500Y426006D02*
D03*
X359000Y457846D02*
D03*
X256000Y452500D02*
D03*
X276000Y439000D02*
D03*
X228500Y382846D02*
D03*
X247567Y376933D02*
D03*
X240500Y324500D02*
D03*
X240606Y333087D02*
D03*
X197852Y274000D02*
D03*
X202852Y260500D02*
D03*
X376961Y402000D02*
D03*
X372961Y415587D02*
D03*
X329961Y326500D02*
D03*
X197852Y331500D02*
D03*
X198852Y349000D02*
D03*
X264390Y335500D02*
D03*
X334472Y463500D02*
D03*
X291222Y450500D02*
D03*
X393000Y433446D02*
D03*
X257193Y248000D02*
D03*
X262500Y233000D02*
D03*
X264240Y368500D02*
D03*
X352961Y409500D02*
D03*
X337461Y414500D02*
D03*
X207704Y401500D02*
D03*
X334871Y178629D02*
D03*
X233500Y430847D02*
D03*
X227000Y431000D02*
D03*
X220500D02*
D03*
X276631Y182631D02*
D03*
X341500Y175696D02*
D03*
X455811Y299000D02*
D03*
X299500Y170000D02*
D03*
X393000Y192000D02*
D03*
X299500Y456000D02*
D03*
X460000Y302000D02*
D03*
X202000Y229000D02*
D03*
X205988Y218500D02*
D03*
X235500Y202500D02*
D03*
X451963Y331963D02*
D03*
X413000Y218000D02*
D03*
X405500Y205500D02*
D03*
X429000Y412000D02*
D03*
X412000Y201000D02*
D03*
X302000Y166000D02*
D03*
X200500Y219000D02*
D03*
%TF.MD5,7076e82f10e86f79436ce9965519b154*%
M02*
