%TF.GenerationSoftware,Altium Limited,Altium Designer,18.1.6 (161)*%
G04 Layer_Color=0*
%FSLAX26Y26*%
%MOIN*%
%TF.FileFunction,Plated,1,2,PTH,Drill*%
%TF.Part,Single*%
G01*
G75*
%TA.AperFunction,ComponentDrill*%
%ADD79C,0.040000*%
%ADD80C,0.045669*%
%ADD81C,0.040000*%
%TA.AperFunction,ViaDrill,NotFilled*%
%ADD82C,0.012000*%
%ADD83C,0.020000*%
D79*
X2949606Y4330709D02*
D03*
X3049606D02*
D03*
X3149606D02*
D03*
X3249606D02*
D03*
X3349606Y4335709D02*
D03*
Y4430709D02*
D03*
X3249606D02*
D03*
X3149606D02*
D03*
X3049606D02*
D03*
X2949606D02*
D03*
Y2068504D02*
D03*
X3049606D02*
D03*
X3149606D02*
D03*
X3249606D02*
D03*
X3349606D02*
D03*
Y1973504D02*
D03*
X3249606Y1968504D02*
D03*
X3149606D02*
D03*
X3049606D02*
D03*
X2949606D02*
D03*
D80*
X3520000Y1890000D02*
D03*
D81*
X4265000Y2965000D02*
D03*
Y3465000D02*
D03*
D82*
X4500000Y3750000D02*
D03*
X4575000Y3600000D02*
D03*
X4500000Y2850000D02*
D03*
X4350000Y4050000D02*
D03*
X4425000Y3900000D02*
D03*
X4350000Y3750000D02*
D03*
X4425000Y3600000D02*
D03*
X4350000Y3450000D02*
D03*
X4425000Y3300000D02*
D03*
X4350000Y3150000D02*
D03*
X4425000Y3000000D02*
D03*
X4350000Y2850000D02*
D03*
X4425000Y2700000D02*
D03*
X4350000Y2550000D02*
D03*
X4275000Y3900000D02*
D03*
X4200000Y3750000D02*
D03*
X4275000Y3600000D02*
D03*
Y3300000D02*
D03*
X4200000Y3150000D02*
D03*
Y2850000D02*
D03*
X4275000Y2700000D02*
D03*
Y2400000D02*
D03*
X4200000Y2250000D02*
D03*
X4125000Y3900000D02*
D03*
X4050000Y3750000D02*
D03*
X4125000Y3300000D02*
D03*
X4050000Y3150000D02*
D03*
Y2850000D02*
D03*
X3975000Y3900000D02*
D03*
X3900000Y3750000D02*
D03*
Y3450000D02*
D03*
Y3150000D02*
D03*
Y2850000D02*
D03*
Y2550000D02*
D03*
X3975000Y2400000D02*
D03*
X3900000Y2250000D02*
D03*
X3975000Y2100000D02*
D03*
X3825000Y4200000D02*
D03*
X3750000Y4050000D02*
D03*
Y3750000D02*
D03*
X3825000Y3600000D02*
D03*
X3750000Y3450000D02*
D03*
X3825000Y3300000D02*
D03*
Y3000000D02*
D03*
Y2700000D02*
D03*
X3750000Y2550000D02*
D03*
X3825000Y2400000D02*
D03*
X3750000Y2250000D02*
D03*
X3825000Y2100000D02*
D03*
X3750000Y1950000D02*
D03*
X3600000Y4350000D02*
D03*
Y4050000D02*
D03*
X3675000Y3900000D02*
D03*
Y3600000D02*
D03*
X3600000Y3450000D02*
D03*
X3675000Y3300000D02*
D03*
X3600000Y3150000D02*
D03*
X3675000Y3000000D02*
D03*
X3600000Y2850000D02*
D03*
Y2250000D02*
D03*
X3675000Y2100000D02*
D03*
X3450000Y4350000D02*
D03*
X3525000Y4200000D02*
D03*
X3450000Y4050000D02*
D03*
X3525000Y3900000D02*
D03*
Y3600000D02*
D03*
X3450000Y3450000D02*
D03*
X3525000Y3300000D02*
D03*
X3450000Y3150000D02*
D03*
X3525000Y3000000D02*
D03*
X3450000Y2850000D02*
D03*
X3375000Y4200000D02*
D03*
Y3600000D02*
D03*
X3300000Y3450000D02*
D03*
X3375000Y3300000D02*
D03*
X3300000Y3150000D02*
D03*
Y2850000D02*
D03*
Y2250000D02*
D03*
X3150000Y3450000D02*
D03*
X3225000Y3300000D02*
D03*
X3150000Y3150000D02*
D03*
Y2550000D02*
D03*
X3000000Y3450000D02*
D03*
X3075000Y3300000D02*
D03*
Y3000000D02*
D03*
X3000000Y2550000D02*
D03*
X3075000Y2400000D02*
D03*
X2925000Y3600000D02*
D03*
Y3300000D02*
D03*
X2850000Y3150000D02*
D03*
Y2250000D02*
D03*
X2700000Y4350000D02*
D03*
X2775000Y3600000D02*
D03*
X2700000Y3450000D02*
D03*
X2775000Y3300000D02*
D03*
Y2700000D02*
D03*
X2550000Y4350000D02*
D03*
X2625000Y4200000D02*
D03*
X2550000Y4050000D02*
D03*
X2625000Y3600000D02*
D03*
Y3300000D02*
D03*
Y2700000D02*
D03*
X2550000Y2250000D02*
D03*
X2475000Y4200000D02*
D03*
X2400000Y4050000D02*
D03*
X2475000Y3900000D02*
D03*
X2400000Y3750000D02*
D03*
X2475000Y3600000D02*
D03*
X2400000Y3450000D02*
D03*
X2475000Y3300000D02*
D03*
X2400000Y3150000D02*
D03*
Y2250000D02*
D03*
X2475000Y2100000D02*
D03*
X2325000Y3900000D02*
D03*
X2250000Y3750000D02*
D03*
X2325000Y3600000D02*
D03*
X2250000Y3450000D02*
D03*
X2325000Y3300000D02*
D03*
X2250000Y3150000D02*
D03*
X2325000Y3000000D02*
D03*
X2250000Y2850000D02*
D03*
X2325000Y2700000D02*
D03*
X2250000Y2550000D02*
D03*
X2325000Y2400000D02*
D03*
X2175000Y3900000D02*
D03*
X2100000Y3750000D02*
D03*
X2175000Y3600000D02*
D03*
X2100000Y3450000D02*
D03*
X2175000Y3300000D02*
D03*
X2100000Y3150000D02*
D03*
X2175000Y3000000D02*
D03*
X2100000Y2850000D02*
D03*
X2175000Y2700000D02*
D03*
X2100000Y2550000D02*
D03*
X2175000Y2400000D02*
D03*
X2025000Y3900000D02*
D03*
X1950000Y3750000D02*
D03*
X2025000Y3600000D02*
D03*
X1950000Y3450000D02*
D03*
X2025000Y3300000D02*
D03*
Y3000000D02*
D03*
X1950000Y2850000D02*
D03*
X2025000Y2700000D02*
D03*
X1950000Y2550000D02*
D03*
X2025000Y2400000D02*
D03*
X1875000Y3600000D02*
D03*
Y3300000D02*
D03*
Y2700000D02*
D03*
D83*
X3344724Y4635000D02*
D03*
X2912220Y4505000D02*
D03*
X3745000Y2068504D02*
D03*
X3375000Y4590000D02*
D03*
X3930000Y4334460D02*
D03*
X3080000Y4130000D02*
D03*
X2571929Y2480000D02*
D03*
X2625000Y2330000D02*
D03*
X2895000Y3922047D02*
D03*
X2700000Y2215000D02*
D03*
X2423032Y3060000D02*
D03*
X2510000Y2980000D02*
D03*
X2700000Y2380000D02*
D03*
X3160000Y2965000D02*
D03*
X2945000Y2740000D02*
D03*
X2910000Y3965000D02*
D03*
X3075000Y3810000D02*
D03*
Y3885000D02*
D03*
Y3960000D02*
D03*
X2605000Y3855000D02*
D03*
X2555000Y3700000D02*
D03*
X3775000Y4510261D02*
D03*
X2077043Y4015000D02*
D03*
X3348708Y1786292D02*
D03*
X2335000Y4308465D02*
D03*
X2270000Y4310000D02*
D03*
X2205000D02*
D03*
X3900000Y4399457D02*
D03*
X3965000Y4260061D02*
D03*
X2420000Y1935000D02*
D03*
X2470000Y1860000D02*
D03*
X2766306Y1826306D02*
D03*
X3415000Y1756958D02*
D03*
X1745000Y2965000D02*
D03*
X4558110Y2990000D02*
D03*
X2860000Y3600000D02*
D03*
X2995000Y1700000D02*
D03*
X3930000Y1920000D02*
D03*
X2995000Y4560000D02*
D03*
X4600000Y3020000D02*
D03*
X4645000Y3025000D02*
D03*
X2020000Y2290000D02*
D03*
X2059875Y2185000D02*
D03*
X2355000Y2025000D02*
D03*
X1780000Y3015000D02*
D03*
X1705000Y3340000D02*
D03*
X4519631Y3319631D02*
D03*
X4130000Y2180000D02*
D03*
X4055000Y2055000D02*
D03*
X4290000Y4120000D02*
D03*
X4120000Y2010000D02*
D03*
X3020000Y1660000D02*
D03*
X2005000Y2190000D02*
D03*
X1660000Y3290000D02*
D03*
%TF.MD5,8bdedcd44bb45127c8bafae8c1ea77f5*%
M02*
