%TF.GenerationSoftware,Altium Limited,Altium Designer,18.1.6 (161)*%
G04 Layer_Color=32896*
%FSLAX26Y26*%
%MOIN*%
%TF.FileFunction,Legend,Bot*%
%TF.Part,Single*%
G01*
G75*
%TA.AperFunction,NonConductor*%
%ADD42C,0.007874*%
%ADD43C,0.003000*%
%ADD44C,0.001000*%
%ADD45C,0.007000*%
D42*
X2961457Y4198346D02*
X2965394D01*
X2961457Y4241654D02*
X2965394D01*
X3068031Y4066654D02*
X3071968D01*
X3068031Y4023347D02*
X3071968D01*
X3042638Y2708032D02*
Y2711969D01*
X2997362Y2708032D02*
Y2711969D01*
X3142638Y2708032D02*
Y2711969D01*
X3097362Y2708032D02*
Y2711969D01*
X2498032Y2357362D02*
X2501969D01*
X2498032Y2402638D02*
X2501969D01*
X3622362Y2020034D02*
Y2023971D01*
X3667638Y2020034D02*
Y2023971D01*
X3533032Y2113346D02*
X3536969D01*
X3533032Y2156653D02*
X3536969D01*
D43*
X2909606Y4290709D02*
X3389606D01*
X2909606D02*
Y4465709D01*
X3389606D01*
Y4290709D02*
Y4465709D01*
Y1928504D02*
Y2103504D01*
X2909606D02*
X3389606D01*
X2909606Y1928504D02*
Y2103504D01*
Y1928504D02*
X3389606D01*
D44*
X3461890Y1995000D02*
X3580000D01*
Y1837520D02*
Y1995000D01*
X3461890Y1837520D02*
X3580000D01*
X3461890D02*
Y1995000D01*
D45*
X3235000Y4030000D02*
Y4064989D01*
X3217506D01*
X3211674Y4059157D01*
Y4047494D01*
X3217506Y4041663D01*
X3235000D01*
X3223337D02*
X3211674Y4030000D01*
X3176686Y4064989D02*
X3200011D01*
Y4047494D01*
X3188348Y4053326D01*
X3182517D01*
X3176686Y4047494D01*
Y4035831D01*
X3182517Y4030000D01*
X3194180D01*
X3200011Y4035831D01*
X3165023Y4030000D02*
X3153360D01*
X3159191D01*
Y4064989D01*
X3165023Y4059157D01*
X2895000Y4200000D02*
Y4234989D01*
X2877506D01*
X2871674Y4229157D01*
Y4217494D01*
X2877506Y4211663D01*
X2895000D01*
X2883337D02*
X2871674Y4200000D01*
X2836686Y4234989D02*
X2860011D01*
Y4217494D01*
X2848348Y4223326D01*
X2842517D01*
X2836686Y4217494D01*
Y4205831D01*
X2842517Y4200000D01*
X2854180D01*
X2860011Y4205831D01*
X2825023Y4229157D02*
X2819191Y4234989D01*
X2807528D01*
X2801697Y4229157D01*
Y4205831D01*
X2807528Y4200000D01*
X2819191D01*
X2825023Y4205831D01*
Y4229157D01*
X2525674Y2468157D02*
X2531506Y2473989D01*
X2543169D01*
X2549000Y2468157D01*
Y2444831D01*
X2543169Y2439000D01*
X2531506D01*
X2525674Y2444831D01*
X2514011Y2468157D02*
X2508180Y2473989D01*
X2496517D01*
X2490686Y2468157D01*
Y2462326D01*
X2496517Y2456494D01*
X2502348D01*
X2496517D01*
X2490686Y2450663D01*
Y2444831D01*
X2496517Y2439000D01*
X2508180D01*
X2514011Y2444831D01*
X2479023Y2439000D02*
X2467360D01*
X2473191D01*
Y2473989D01*
X2479023Y2468157D01*
X3196674Y2812622D02*
X3202506Y2818453D01*
X3214169D01*
X3220000Y2812622D01*
Y2789296D01*
X3214169Y2783465D01*
X3202506D01*
X3196674Y2789296D01*
X3185011Y2812622D02*
X3179180Y2818453D01*
X3167517D01*
X3161686Y2812622D01*
Y2806790D01*
X3167517Y2800959D01*
X3173348D01*
X3167517D01*
X3161686Y2795127D01*
Y2789296D01*
X3167517Y2783465D01*
X3179180D01*
X3185011Y2789296D01*
X3150023Y2812622D02*
X3144191Y2818453D01*
X3132528D01*
X3126697Y2812622D01*
Y2789296D01*
X3132528Y2783465D01*
X3144191D01*
X3150023Y2789296D01*
Y2812622D01*
X3021674Y2805653D02*
X3027506Y2811485D01*
X3039169D01*
X3045000Y2805653D01*
Y2782327D01*
X3039169Y2776496D01*
X3027506D01*
X3021674Y2782327D01*
X2986686Y2776496D02*
X3010012D01*
X2986686Y2799822D01*
Y2805653D01*
X2992517Y2811485D01*
X3004180D01*
X3010012Y2805653D01*
X2975023Y2782327D02*
X2969191Y2776496D01*
X2957528D01*
X2951697Y2782327D01*
Y2805653D01*
X2957528Y2811485D01*
X2969191D01*
X2975023Y2805653D01*
Y2799822D01*
X2969191Y2793990D01*
X2951697D01*
X3584000Y2193000D02*
Y2227989D01*
X3566506D01*
X3560674Y2222157D01*
Y2210494D01*
X3566506Y2204663D01*
X3584000D01*
X3572337D02*
X3560674Y2193000D01*
X3549011Y2222157D02*
X3543180Y2227989D01*
X3531517D01*
X3525686Y2222157D01*
Y2216326D01*
X3531517Y2210494D01*
X3537348D01*
X3531517D01*
X3525686Y2204663D01*
Y2198831D01*
X3531517Y2193000D01*
X3543180D01*
X3549011Y2198831D01*
X3514023Y2193000D02*
X3502360D01*
X3508191D01*
Y2227989D01*
X3514023Y2222157D01*
X3816674Y2004139D02*
X3822506Y2009970D01*
X3834169D01*
X3840000Y2004139D01*
Y1980813D01*
X3834169Y1974982D01*
X3822506D01*
X3816674Y1980813D01*
X3805011Y1974982D02*
X3793348D01*
X3799180D01*
Y2009970D01*
X3805011Y2004139D01*
X3752528Y2009970D02*
X3775854D01*
Y1992476D01*
X3764191Y1998308D01*
X3758360D01*
X3752528Y1992476D01*
Y1980813D01*
X3758360Y1974982D01*
X3770023D01*
X3775854Y1980813D01*
X3705000Y1895000D02*
Y1929989D01*
X3693337Y1918326D01*
X3681674Y1929989D01*
Y1895000D01*
X3670011Y1929989D02*
Y1895000D01*
Y1906663D01*
X3646686Y1929989D01*
X3664180Y1912494D01*
X3646686Y1895000D01*
X3635023D02*
X3623360D01*
X3629191D01*
Y1929989D01*
X3635023Y1924157D01*
%TF.MD5,2da5ebecf058f5da97bef6dfaf19000f*%
M02*
