%TF.GenerationSoftware,Altium Limited,Altium Designer,18.1.6 (161)*%
G04 Layer_Color=8421504*
%FSLAX25Y25*%
%MOIN*%
%TF.FileFunction,Paste,Top*%
%TF.Part,Single*%
G01*
G75*
%TA.AperFunction,SMDPad,CuDef*%
%ADD12R,0.03543X0.03740*%
%ADD13R,0.02284X0.04646*%
%ADD14R,0.05315X0.03740*%
%ADD15R,0.05787X0.05059*%
%ADD16R,0.03347X0.05118*%
%ADD17R,0.07677X0.13780*%
G04:AMPARAMS|DCode=18|XSize=39.37mil|YSize=35.43mil|CornerRadius=0mil|HoleSize=0mil|Usage=FLASHONLY|Rotation=315.000|XOffset=0mil|YOffset=0mil|HoleType=Round|Shape=Rectangle|*
%AMROTATEDRECTD18*
4,1,4,-0.02645,0.00139,-0.00139,0.02645,0.02645,-0.00139,0.00139,-0.02645,-0.02645,0.00139,0.0*
%
%ADD18ROTATEDRECTD18*%

G04:AMPARAMS|DCode=19|XSize=15.75mil|YSize=31.5mil|CornerRadius=0mil|HoleSize=0mil|Usage=FLASHONLY|Rotation=315.000|XOffset=0mil|YOffset=0mil|HoleType=Round|Shape=Rectangle|*
%AMROTATEDRECTD19*
4,1,4,-0.01670,-0.00557,0.00557,0.01670,0.01670,0.00557,-0.00557,-0.01670,-0.01670,-0.00557,0.0*
%
%ADD19ROTATEDRECTD19*%

%ADD20R,0.05118X0.03347*%
%ADD21R,0.03740X0.05315*%
%ADD22R,0.03937X0.02362*%
%ADD23R,0.24291X0.09449*%
%ADD24O,0.01378X0.05512*%
%ADD25R,0.03937X0.03543*%
%ADD26R,0.01575X0.03150*%
G04:AMPARAMS|DCode=27|XSize=39.37mil|YSize=35.43mil|CornerRadius=0mil|HoleSize=0mil|Usage=FLASHONLY|Rotation=45.000|XOffset=0mil|YOffset=0mil|HoleType=Round|Shape=Rectangle|*
%AMROTATEDRECTD27*
4,1,4,-0.00139,-0.02645,-0.02645,-0.00139,0.00139,0.02645,0.02645,0.00139,-0.00139,-0.02645,0.0*
%
%ADD27ROTATEDRECTD27*%

G04:AMPARAMS|DCode=28|XSize=15.75mil|YSize=31.5mil|CornerRadius=0mil|HoleSize=0mil|Usage=FLASHONLY|Rotation=45.000|XOffset=0mil|YOffset=0mil|HoleType=Round|Shape=Rectangle|*
%AMROTATEDRECTD28*
4,1,4,0.00557,-0.01670,-0.01670,0.00557,-0.00557,0.01670,0.01670,-0.00557,0.00557,-0.01670,0.0*
%
%ADD28ROTATEDRECTD28*%

%ADD29R,0.03543X0.03937*%
%ADD30R,0.03150X0.01575*%
%ADD31R,0.03543X0.02756*%
%ADD32R,0.05709X0.04528*%
%ADD33R,0.03740X0.03543*%
D12*
X312693Y342272D02*
D03*
X308953Y332429D02*
D03*
X305213Y342272D02*
D03*
X225520Y304921D02*
D03*
X229260Y295079D02*
D03*
X233000Y304921D02*
D03*
X214760Y370421D02*
D03*
X218500Y360579D02*
D03*
X222240Y370421D02*
D03*
D13*
X279240Y340528D02*
D03*
X274240D02*
D03*
X269240D02*
D03*
X264240D02*
D03*
X259240D02*
D03*
X254240D02*
D03*
X249240D02*
D03*
Y361472D02*
D03*
X254240D02*
D03*
X259240D02*
D03*
X264240D02*
D03*
X269240D02*
D03*
X274240D02*
D03*
X279240D02*
D03*
D14*
X381500Y343150D02*
D03*
Y336850D02*
D03*
X389000Y343150D02*
D03*
Y336850D02*
D03*
X374500Y314150D02*
D03*
Y307850D02*
D03*
X338500Y306850D02*
D03*
Y313150D02*
D03*
X332111Y350500D02*
D03*
Y344201D02*
D03*
X233260Y354346D02*
D03*
Y348047D02*
D03*
X222000Y382650D02*
D03*
Y376350D02*
D03*
X240020Y319150D02*
D03*
Y312850D02*
D03*
X240760Y354346D02*
D03*
Y348047D02*
D03*
X245543Y397803D02*
D03*
Y391504D02*
D03*
X253240Y397303D02*
D03*
Y391004D02*
D03*
X307453Y356150D02*
D03*
Y349850D02*
D03*
X273740Y387476D02*
D03*
Y381177D02*
D03*
X281240Y387476D02*
D03*
Y381177D02*
D03*
X324610Y350500D02*
D03*
Y344201D02*
D03*
D15*
X347166Y307171D02*
D03*
Y314829D02*
D03*
X365000Y306923D02*
D03*
Y314580D02*
D03*
D16*
X252587Y383154D02*
D03*
X245894D02*
D03*
X280654Y326000D02*
D03*
X287347D02*
D03*
X227913Y285000D02*
D03*
X234606D02*
D03*
X240606Y339068D02*
D03*
X233913D02*
D03*
X205654Y347000D02*
D03*
X212347D02*
D03*
X299346Y326000D02*
D03*
X306039D02*
D03*
X280587Y373177D02*
D03*
X273894D02*
D03*
X222654Y221000D02*
D03*
X229346D02*
D03*
X222654Y212824D02*
D03*
X229346D02*
D03*
X222654Y204648D02*
D03*
X229346D02*
D03*
X176654Y324500D02*
D03*
X183346D02*
D03*
X176654Y316000D02*
D03*
X183346D02*
D03*
X176654Y308000D02*
D03*
X183346D02*
D03*
X220153Y418500D02*
D03*
X226847D02*
D03*
X219807Y405000D02*
D03*
X226500D02*
D03*
X220153Y411500D02*
D03*
X226847D02*
D03*
X278346Y200500D02*
D03*
X271654D02*
D03*
X291846Y169000D02*
D03*
X285154D02*
D03*
X404846Y200000D02*
D03*
X398153D02*
D03*
X407846Y213000D02*
D03*
X401154D02*
D03*
X408347Y223500D02*
D03*
X401653D02*
D03*
X402846Y399153D02*
D03*
X396153D02*
D03*
X402347Y408000D02*
D03*
X395654D02*
D03*
X402347Y417500D02*
D03*
X395654D02*
D03*
X368847Y392000D02*
D03*
X362154D02*
D03*
X388347Y379000D02*
D03*
X381653D02*
D03*
X455346Y309000D02*
D03*
X448654D02*
D03*
X455346Y317000D02*
D03*
X448654D02*
D03*
X455346Y324500D02*
D03*
X448654D02*
D03*
D17*
X315500Y373016D02*
D03*
Y399984D02*
D03*
X412500Y343150D02*
D03*
Y316181D02*
D03*
D18*
X204500Y213000D02*
D03*
X212852Y204648D02*
D03*
X423176Y414824D02*
D03*
X414824Y423176D02*
D03*
D19*
X211042Y208963D02*
D03*
X208815Y211191D02*
D03*
X416634Y418861D02*
D03*
X418861Y416634D02*
D03*
D20*
X287740Y334653D02*
D03*
Y341347D02*
D03*
X213000Y382846D02*
D03*
Y376153D02*
D03*
X232760Y319346D02*
D03*
Y312653D02*
D03*
X233260Y361480D02*
D03*
Y368173D02*
D03*
X253240Y412500D02*
D03*
Y405807D02*
D03*
X245240Y405653D02*
D03*
Y412347D02*
D03*
X298232Y356347D02*
D03*
Y349654D02*
D03*
X280240Y401524D02*
D03*
Y394831D02*
D03*
X273740Y394677D02*
D03*
Y401370D02*
D03*
X240760Y368043D02*
D03*
Y361350D02*
D03*
X276000Y187654D02*
D03*
Y194346D02*
D03*
X308500Y175154D02*
D03*
Y181846D02*
D03*
X316535Y175154D02*
D03*
Y181846D02*
D03*
X324500Y175154D02*
D03*
Y181846D02*
D03*
X307500Y457846D02*
D03*
Y451154D02*
D03*
X322500Y457846D02*
D03*
Y451154D02*
D03*
X314961Y457846D02*
D03*
Y451154D02*
D03*
X337461Y408988D02*
D03*
Y402295D02*
D03*
D21*
X280850Y317000D02*
D03*
X287150D02*
D03*
X228110Y276000D02*
D03*
X234409D02*
D03*
X205850Y354240D02*
D03*
X212150D02*
D03*
X299543Y318000D02*
D03*
X305842D02*
D03*
D22*
X254413Y241740D02*
D03*
Y238000D02*
D03*
Y234260D02*
D03*
X243587D02*
D03*
Y238000D02*
D03*
Y241740D02*
D03*
D23*
X355961Y362500D02*
D03*
D24*
X339327Y351476D02*
D03*
X341886D02*
D03*
X344445D02*
D03*
X347004D02*
D03*
X349563D02*
D03*
X352122D02*
D03*
X354681D02*
D03*
X357241D02*
D03*
X359800D02*
D03*
X362359D02*
D03*
X364918D02*
D03*
X367477D02*
D03*
X370036D02*
D03*
X372595D02*
D03*
X339327Y373524D02*
D03*
X341886D02*
D03*
X344445D02*
D03*
X347004D02*
D03*
X349563D02*
D03*
X352122D02*
D03*
X354681D02*
D03*
X357241D02*
D03*
X359800D02*
D03*
X362359D02*
D03*
X364918D02*
D03*
X367477D02*
D03*
X370036D02*
D03*
X372595D02*
D03*
D25*
X309055Y165354D02*
D03*
X320866D02*
D03*
X320866Y464567D02*
D03*
X309055D02*
D03*
D26*
X316535Y167126D02*
D03*
X313386D02*
D03*
X313386Y462795D02*
D03*
X316535D02*
D03*
D27*
X416190Y205185D02*
D03*
X424542Y213537D02*
D03*
X214176Y424176D02*
D03*
X205824Y415824D02*
D03*
D28*
X420227Y211727D02*
D03*
X418000Y209500D02*
D03*
X210139Y417634D02*
D03*
X212366Y419861D02*
D03*
D29*
X464567Y309055D02*
D03*
Y320866D02*
D03*
X165354Y309055D02*
D03*
Y320866D02*
D03*
D30*
X462795Y316535D02*
D03*
Y313386D02*
D03*
X167126Y316535D02*
D03*
Y313386D02*
D03*
D31*
X349961Y399512D02*
D03*
Y394000D02*
D03*
X344461Y399500D02*
D03*
Y393988D02*
D03*
X357992Y408988D02*
D03*
Y414500D02*
D03*
X356461Y396000D02*
D03*
Y390488D02*
D03*
D32*
X346961Y334043D02*
D03*
Y326957D02*
D03*
X364784Y334043D02*
D03*
Y326957D02*
D03*
D33*
X278842Y214740D02*
D03*
X269000Y211000D02*
D03*
X278842Y207260D02*
D03*
X266921Y194740D02*
D03*
X257079Y191000D02*
D03*
X266921Y187260D02*
D03*
X290921Y182240D02*
D03*
X281079Y178500D02*
D03*
X290921Y174760D02*
D03*
%TF.MD5,d993350388bb8f442dc9ab3e7326269c*%
M02*
