%FSTAX23Y23*%
%MOIN*%
%SFA1B1*%

%IPPOS*%
%ADD70C,0.003940*%
%ADD71R,0.023620X0.009840*%
%LNspeakeasy_audio-1*%
%LPD*%
G36*
X03136Y03331D02*
X03131D01*
X03131Y03331*
X03131Y03331*
X0313Y03331*
X0313Y03331*
X0313Y03331*
X0313*
X0313Y03331*
X0313*
X0313Y03331*
X03129Y03331*
X03129Y03331*
X03129Y03331*
X03128Y03332*
X03128Y03332*
X03128Y03332*
X03128Y03332*
X03128Y03332*
X03128Y03332*
X03128Y03332*
X03128Y03332*
X03127Y03333*
X03127Y03333*
X03127Y03333*
X03127Y03334*
X03126Y03334*
Y03334*
X03126Y03334*
X03126Y03334*
X03126Y03334*
X03126Y03334*
X03126Y03335*
X03126Y03335*
X03126Y03335*
X03126Y03335*
X03126Y03335*
X03126Y03336*
X03126Y03337*
X03126Y03337*
Y03337*
Y03337*
Y03337*
Y03337*
X03126Y03337*
Y03338*
X03126Y03338*
X03126Y03338*
X03126Y03339*
X03126Y03339*
X03126Y0334*
Y0334*
X03126Y0334*
X03126Y0334*
X03126Y0334*
X03126Y0334*
X03126Y0334*
X03127Y03341*
X03127Y03341*
X03127Y03341*
X03127Y03341*
X03127Y03342*
X03127Y03342*
X03127Y03342*
X03127Y03342*
X03128Y03342*
X03128Y03342*
X03128Y03342*
X03128Y03343*
X03128Y03343*
X03128Y03343*
X03128Y03343*
X03129Y03343*
X03129Y03343*
X03129Y03343*
X03129Y03343*
X0313Y03343*
X0313*
X0313Y03343*
X0313Y03343*
X0313Y03343*
X0313Y03343*
X03131Y03343*
X03131Y03343*
X03131Y03343*
X03132Y03343*
X03136*
Y03331*
G37*
G36*
X0312Y03334D02*
X0312Y03334D01*
X0312Y03334*
X0312Y03334*
X0312Y03334*
X03121Y03334*
X03121Y03334*
X03121Y03335*
X03121Y03335*
X03121*
X03121Y03335*
X03122Y03335*
X03122Y03335*
X03122Y03335*
X03122Y03335*
X03122Y03335*
X03123Y03335*
X03123Y03335*
Y03334*
X03123*
X03123Y03334*
X03123Y03334*
X03123Y03334*
X03123Y03334*
X03123Y03334*
X03122Y03334*
X03122Y03333*
X03122Y03333*
X03121Y03333*
X03121Y03333*
X03121Y03333*
X03121Y03332*
X03121Y03332*
X03121Y03332*
X0312Y03332*
X0312Y03332*
X0312Y03332*
X0312Y03331*
X0312Y03331*
X03119Y03331*
X03118*
Y03343*
X0312*
Y03334*
G37*
G36*
X03099Y0336D02*
X03099Y0336D01*
X03099Y0336*
X03099Y0336*
X031Y0336*
X031Y0336*
X031Y0336*
X03101Y0336*
X03101Y0336*
X03101Y0336*
X03101Y03359*
X03101Y03359*
X03101Y03359*
X03101Y03359*
X03102Y03359*
X03102Y03359*
X03102Y03359*
X03102Y03359*
X03102Y03359*
X03102Y03359*
X03102Y03358*
X03102Y03358*
X03103Y03357*
X03103Y03357*
X03103Y03357*
X03101Y03357*
Y03357*
Y03357*
X03101Y03357*
X03101Y03357*
X03101Y03357*
X03101Y03357*
X03101Y03358*
X03101Y03358*
X031Y03358*
X031Y03359*
X031Y03359*
X031Y03359*
X031Y03359*
X031Y03359*
X03099Y03359*
X03099Y03359*
X03099Y03359*
X03099Y03359*
X03098*
X03098Y03359*
X03098Y03359*
X03098Y03359*
X03098Y03359*
X03097Y03359*
X03097Y03359*
X03097Y03358*
X03097Y03358*
X03097Y03358*
X03097Y03358*
X03097Y03358*
X03097Y03358*
X03096Y03358*
X03096Y03358*
X03096Y03357*
X03096Y03357*
X03096Y03357*
X03096Y03356*
Y03356*
Y03356*
Y03356*
Y03356*
X03096Y03356*
Y03356*
X03096Y03356*
X03096Y03355*
X03096Y03355*
X03096Y03355*
X03096Y03354*
X03097Y03354*
Y03354*
X03097Y03354*
X03097Y03354*
X03097Y03354*
X03097Y03354*
X03097Y03353*
X03098Y03353*
X03098Y03353*
X03098Y03353*
X03099*
X03099Y03353*
X03099Y03353*
X03099Y03353*
X03099Y03353*
X031Y03353*
X031Y03354*
X031Y03354*
X031Y03354*
X031Y03354*
X031Y03354*
X031Y03354*
X03101Y03354*
X03101Y03354*
X03101Y03354*
X03102Y03354*
X03101Y03348*
X03095*
Y03349*
X031*
X03101Y03353*
X03101Y03353*
X03101Y03353*
X031Y03353*
X031Y03353*
X031Y03352*
X031Y03352*
X031Y03352*
X03099Y03352*
X03099Y03352*
X03099Y03352*
X03098Y03352*
X03098*
X03098Y03352*
X03098Y03352*
X03098Y03352*
X03097Y03352*
X03097Y03352*
X03097Y03352*
X03097Y03352*
X03096Y03352*
X03096Y03352*
X03096Y03353*
X03096Y03353*
X03095Y03353*
X03095Y03353*
X03095Y03353*
X03095Y03353*
X03095Y03353*
X03095Y03353*
X03095Y03353*
X03095Y03354*
X03095Y03354*
X03095Y03354*
X03095Y03354*
X03095Y03354*
X03094Y03355*
X03094Y03355*
X03094Y03355*
X03094Y03356*
X03094Y03356*
Y03356*
Y03356*
Y03356*
X03094Y03356*
X03094Y03356*
X03094Y03357*
X03094Y03357*
X03094Y03357*
X03094Y03357*
X03095Y03358*
X03095Y03358*
X03095Y03358*
X03095Y03359*
X03095Y03359*
X03095Y03359*
X03095Y03359*
X03095Y03359*
X03095Y03359*
X03096Y03359*
X03096Y03359*
X03096Y0336*
X03096Y0336*
X03096Y0336*
X03097Y0336*
X03097Y0336*
X03097Y0336*
X03097Y0336*
X03098Y0336*
X03098Y0336*
X03099Y0336*
X03099*
X03099Y0336*
G37*
G36*
X03121Y03348D02*
X03119D01*
X03114Y0336*
X03116*
X03117Y03356*
X03123*
X03124Y0336*
X03126*
X03121Y03348*
G37*
G36*
X03083Y03355D02*
X03078D01*
Y03356*
X03083*
Y03355*
G37*
G36*
X03068D02*
X03063D01*
Y03356*
X03068*
Y03355*
G37*
G36*
X03075Y0336D02*
Y0336D01*
Y0336*
X03075Y0336*
Y0336*
X03075Y0336*
X03075Y03359*
X03075Y03359*
X03075Y03359*
X03075Y03359*
X03075Y03358*
X03075Y03358*
X03075Y03358*
X03075Y03357*
X03075Y03357*
Y03357*
X03075Y03357*
X03075Y03356*
X03075Y03356*
X03075Y03356*
X03074Y03356*
X03074Y03356*
X03074Y03355*
X03074Y03355*
X03074Y03355*
X03074Y03354*
X03073Y03353*
X03073Y03353*
X03073Y03353*
X03073Y03352*
X03073Y03352*
X03073Y03352*
X03073Y03352*
X03073Y03352*
X03073Y03352*
X03072Y03351*
X03072Y03351*
X03072Y0335*
X03071Y0335*
X03071Y03349*
X03077*
Y03348*
X03069*
Y03349*
X03069Y03349*
X03069Y03349*
X03069Y03349*
X03069Y03349*
X03069Y03349*
X03069Y0335*
X0307Y0335*
X0307Y0335*
X0307Y0335*
X0307Y0335*
X0307Y03351*
X0307Y03351*
X03071Y03351*
X03071Y03352*
X03071Y03352*
X03071Y03352*
X03071Y03352*
X03071Y03352*
X03071Y03353*
X03072Y03353*
X03072Y03353*
X03072Y03353*
X03072Y03353*
X03072Y03354*
X03072Y03354*
X03072Y03354*
X03072Y03355*
X03073Y03355*
X03073Y03356*
X03073Y03357*
Y03357*
X03073Y03357*
X03073Y03357*
X03073Y03357*
X03073Y03357*
X03073Y03357*
X03073Y03358*
X03073Y03358*
X03073Y03358*
X03073Y03358*
X03074Y03359*
X03074Y0336*
X03074Y0336*
X03075*
Y0336*
G37*
G36*
X03136Y03348D02*
X03131D01*
X03131Y03348*
X03131*
X03131Y03348*
X0313Y03348*
X0313Y03348*
X0313Y03348*
X03129Y03348*
X03129*
X03129Y03348*
X03129Y03348*
X03129Y03348*
X03129Y03348*
X03129Y03348*
X03128Y03349*
X03128Y03349*
X03128Y03349*
X03128Y03349*
X03128Y03349*
X03128Y03349*
X03128Y0335*
X03128Y0335*
X03127Y0335*
X03127Y03351*
X03127Y03351*
Y03351*
Y03351*
X03127Y03351*
X03127Y03351*
X03127Y03352*
X03128Y03352*
X03128Y03352*
X03128Y03352*
X03128Y03352*
X03128Y03352*
X03128Y03353*
X03128Y03353*
X03128Y03353*
X03129Y03353*
X03129Y03353*
X03129Y03353*
X03129*
X03129Y03354*
X03129Y03354*
X03129Y03354*
X03129Y03354*
X03128Y03354*
X03128Y03354*
X03128Y03354*
X03128Y03354*
X03127Y03355*
X03127Y03355*
X03127Y03355*
X03127Y03355*
X03127Y03355*
X03127Y03355*
X03127Y03356*
X03127Y03356*
X03127Y03357*
Y03357*
Y03357*
Y03357*
X03127Y03357*
X03127Y03357*
X03127Y03357*
X03127Y03358*
X03127Y03358*
X03127Y03358*
X03127Y03358*
X03127Y03358*
X03127Y03358*
X03127Y03359*
X03128Y03359*
X03128Y03359*
X03128Y03359*
X03128Y03359*
X03128Y03359*
X03128Y03359*
X03128Y0336*
X03128Y0336*
X03129Y0336*
X03129Y0336*
X03129Y0336*
X03129Y0336*
X03129*
X0313Y0336*
X0313Y0336*
X0313Y0336*
X0313Y0336*
X03131Y0336*
X03131Y0336*
X03131Y0336*
X03136*
Y03348*
G37*
G36*
X0311Y03349D02*
X03114D01*
Y03348*
X03104*
Y03349*
X03108*
Y0336*
X0311*
Y03349*
G37*
G36*
X03088Y03357D02*
X03093D01*
Y03356*
X03088Y03348*
X03086*
Y03356*
X03085*
Y03357*
X03086*
Y0336*
X03088*
Y03357*
G37*
G36*
X03061Y03348D02*
X03052D01*
Y03349*
X03059*
Y03353*
X03053*
Y03354*
X03059*
Y0336*
X03061*
Y03348*
G37*
G36*
X02302Y02987D02*
X02302Y02987D01*
X02302Y02987*
X02302Y02987*
X02303Y02987*
X02303Y02987*
X02304Y02987*
X02304Y02986*
X02304Y02986*
X02304Y02986*
X02304Y02986*
X02304Y02986*
X02305Y02986*
X02305Y02986*
X02305Y02986*
X02305Y02986*
X02305Y02986*
X02305Y02985*
X02305Y02985*
X02305Y02985*
X02305Y02985*
X02305Y02984*
X02306Y02984*
X02306Y02984*
X02306Y02983*
X02304Y02983*
Y02983*
Y02983*
X02304Y02983*
X02304Y02983*
X02304Y02984*
X02304Y02984*
X02304Y02984*
X02304Y02985*
X02303Y02985*
X02303Y02985*
X02303Y02985*
X02303Y02985*
X02303Y02985*
X02303Y02985*
X02303Y02985*
X02302Y02986*
X02302Y02986*
X02302Y02986*
X02302*
X02301Y02986*
X02301Y02986*
X02301Y02986*
X02301Y02985*
X023Y02985*
X023Y02985*
X023Y02985*
X023Y02985*
X023Y02985*
X023Y02985*
X023Y02985*
X023Y02985*
X02299Y02984*
X02299Y02984*
X02299Y02984*
X02299Y02984*
X02299Y02983*
X02299Y02983*
Y02983*
Y02983*
Y02983*
Y02982*
X02299Y02982*
Y02982*
X02299Y02982*
X02299Y02982*
X02299Y02981*
X02299Y02981*
X02299Y02981*
X023Y02981*
Y0298*
X023Y0298*
X023Y0298*
X023Y0298*
X023Y0298*
X02301Y0298*
X02301Y0298*
X02301Y0298*
X02301Y0298*
X02302*
X02302Y0298*
X02302Y0298*
X02302Y0298*
X02303Y0298*
X02303Y0298*
X02303Y0298*
X02303Y0298*
X02303Y0298*
X02303Y0298*
X02303Y0298*
X02304Y0298*
X02304Y02981*
X02304Y02981*
X02304Y02981*
X02305Y02981*
X02304Y02974*
X02298*
Y02976*
X02303*
X02304Y02979*
X02304Y02979*
X02304Y02979*
X02304Y02979*
X02303Y02979*
X02303Y02979*
X02303Y02979*
X02303Y02979*
X02303Y02979*
X02302Y02978*
X02302Y02978*
X02301Y02978*
X02301*
X02301Y02978*
X02301Y02978*
X02301Y02978*
X023Y02978*
X023Y02979*
X023Y02979*
X023Y02979*
X02299Y02979*
X02299Y02979*
X02299Y02979*
X02299Y02979*
X02298Y0298*
X02298Y0298*
X02298Y0298*
X02298Y0298*
X02298Y0298*
X02298Y0298*
X02298Y0298*
X02298Y0298*
X02298Y0298*
X02298Y02981*
X02298Y02981*
X02298Y02981*
X02298Y02981*
X02297Y02982*
X02297Y02982*
X02297Y02982*
X02297Y02982*
Y02982*
Y02983*
Y02983*
X02297Y02983*
X02297Y02983*
X02297Y02983*
X02297Y02983*
X02297Y02983*
X02298Y02984*
X02298Y02984*
X02298Y02985*
X02298Y02985*
X02298Y02985*
X02298Y02985*
X02298Y02985*
X02298Y02985*
X02298Y02986*
X02299Y02986*
X02299Y02986*
X02299Y02986*
X02299Y02986*
X02299Y02986*
X02299Y02986*
X023Y02986*
X023Y02987*
X023Y02987*
X02301Y02987*
X02301Y02987*
X02301Y02987*
X02302Y02987*
X02302*
X02302Y02987*
G37*
G36*
X02324Y02974D02*
X02322D01*
X02317Y02987*
X02319*
X02321Y02983*
X02326*
X02327Y02987*
X02329*
X02324Y02974*
G37*
G36*
X02286Y02981D02*
X02281D01*
Y02983*
X02286*
Y02981*
G37*
G36*
X02271D02*
X02266D01*
Y02983*
X02271*
Y02981*
G37*
G36*
X02278Y02987D02*
Y02987D01*
Y02987*
X02278Y02986*
Y02986*
X02278Y02986*
X02278Y02986*
X02278Y02986*
X02278Y02985*
X02278Y02985*
X02278Y02985*
X02278Y02985*
X02278Y02984*
X02278Y02984*
X02278Y02983*
Y02983*
X02278Y02983*
X02278Y02983*
X02278Y02983*
X02278Y02983*
X02278Y02982*
X02277Y02982*
X02277Y02982*
X02277Y02982*
X02277Y02981*
X02277Y02981*
X02277Y0298*
X02276Y02979*
X02276Y02979*
X02276Y02979*
X02276Y02979*
X02276Y02979*
X02276Y02979*
X02276Y02978*
X02276Y02978*
X02276Y02978*
X02275Y02977*
X02275Y02977*
X02274Y02976*
X02274Y02976*
X0228*
Y02974*
X02272*
Y02975*
X02272Y02976*
X02272Y02976*
X02272Y02976*
X02272Y02976*
X02272Y02976*
X02272Y02976*
X02273Y02976*
X02273Y02976*
X02273Y02977*
X02273Y02977*
X02273Y02977*
X02273Y02977*
X02274Y02978*
X02274Y02978*
X02274Y02979*
X02274Y02979*
X02274Y02979*
X02274Y02979*
X02274Y02979*
X02275Y02979*
X02275Y02979*
X02275Y0298*
X02275Y0298*
X02275Y0298*
X02275Y02981*
X02275Y02981*
X02275Y02981*
X02276Y02982*
X02276Y02982*
X02276Y02983*
Y02983*
X02276Y02983*
X02276Y02983*
X02276Y02984*
X02276Y02984*
X02276Y02984*
X02276Y02984*
X02276Y02984*
X02276Y02985*
X02277Y02985*
X02277Y02985*
X02277Y02986*
X02277Y02987*
X02278*
Y02987*
G37*
G36*
X02339Y02974D02*
X02334D01*
X02334Y02974*
X02334*
X02334Y02974*
X02333Y02974*
X02333Y02974*
X02333Y02974*
X02332Y02974*
X02332*
X02332Y02975*
X02332Y02975*
X02332Y02975*
X02332Y02975*
X02332Y02975*
X02331Y02975*
X02331Y02975*
X02331Y02976*
X02331Y02976*
X02331Y02976*
X02331Y02976*
X02331Y02976*
X02331Y02976*
X02331Y02977*
X0233Y02977*
X0233Y02977*
Y02977*
Y02977*
X0233Y02978*
X02331Y02978*
X02331Y02978*
X02331Y02978*
X02331Y02979*
X02331Y02979*
X02331Y02979*
X02331Y02979*
X02331Y02979*
X02331Y02979*
X02331Y02979*
X02332Y0298*
X02332Y0298*
X02332Y0298*
X02332*
X02332Y0298*
X02332Y0298*
X02332Y0298*
X02332Y0298*
X02332Y0298*
X02331Y0298*
X02331Y02981*
X02331Y02981*
X0233Y02981*
X0233Y02981*
X0233Y02981*
X0233Y02981*
X0233Y02982*
X0233Y02982*
X0233Y02982*
X0233Y02983*
X0233Y02983*
Y02983*
Y02983*
Y02983*
X0233Y02983*
X0233Y02984*
X0233Y02984*
X0233Y02984*
X0233Y02984*
X0233Y02985*
X0233Y02985*
X0233Y02985*
X0233Y02985*
X0233Y02985*
X02331Y02985*
X02331Y02986*
X02331Y02986*
X02331Y02986*
X02331Y02986*
X02331Y02986*
X02331Y02986*
X02332Y02986*
X02332Y02986*
X02332Y02986*
X02332Y02986*
X02333Y02987*
X02333*
X02333Y02987*
X02333Y02987*
X02333Y02987*
X02333Y02987*
X02334Y02987*
X02334Y02987*
X02335Y02987*
X02339*
Y02974*
G37*
G36*
X02313Y02976D02*
X02317D01*
Y02974*
X02307*
Y02976*
X02311*
Y02987*
X02313*
Y02976*
G37*
G36*
X02291Y02984D02*
X02296D01*
Y02982*
X02291Y02974*
X02289*
Y02982*
X02288*
Y02984*
X02289*
Y02987*
X02291*
Y02984*
G37*
G36*
X02264Y02974D02*
X02255D01*
Y02976*
X02262*
Y0298*
X02256*
Y02981*
X02262*
Y02987*
X02264*
Y02974*
G37*
G36*
X02324Y0297D02*
X02324Y0297D01*
X02324Y0297*
X02324Y0297*
X02324Y0297*
X02325Y0297*
X02325Y0297*
X02325Y0297*
X02326Y0297*
X02326Y02969*
X02326Y02969*
X02326Y02969*
X02326Y02969*
X02326Y02969*
X02326Y02969*
X02326Y02969*
X02326Y02969*
X02326Y02969*
X02327Y02969*
X02327Y02968*
X02327Y02968*
X02327Y02968*
X02327Y02967*
X02327Y02967*
X02327Y02967*
X02326Y02966*
Y02966*
X02326Y02967*
X02326Y02967*
X02326Y02967*
X02326Y02967*
X02326Y02967*
X02326Y02967*
X02325Y02968*
X02325Y02968*
X02325Y02968*
X02325Y02968*
X02325Y02968*
X02325Y02968*
X02325Y02969*
X02324Y02969*
X02324Y02969*
X02324Y02969*
X02324Y02969*
X02323Y02969*
X02323*
X02323Y02969*
X02323Y02969*
X02323Y02969*
X02322Y02969*
X02322Y02969*
X02322Y02968*
X02321Y02968*
X02321Y02968*
X02321Y02968*
X02321Y02968*
X02321Y02968*
X02321Y02967*
X02321Y02967*
X02321Y02967*
X02321Y02966*
Y02966*
Y02966*
Y02966*
X02321Y02966*
X02321Y02966*
X02321Y02966*
X02321Y02965*
X02321Y02965*
X02321Y02965*
X02321Y02965*
X02321Y02964*
X02321Y02964*
X02322Y02964*
X02322Y02964*
X02322Y02964*
X02322Y02964*
X02323Y02964*
X02323Y02964*
X02323*
X02323Y02964*
X02324Y02964*
X02324Y02964*
X02324Y02964*
X02324Y02964*
X02324Y02963*
X02324*
X02324Y02963*
X02324*
X02323Y02963*
X02323Y02963*
X02323Y02963*
X02323Y02962*
X02322Y02962*
X02322Y02962*
X02322*
X02322Y02962*
X02322Y02962*
X02322Y02962*
X02322Y02962*
X02321Y02962*
X02321Y02961*
X02321Y02961*
X02321Y02961*
Y02961*
Y02961*
Y02961*
Y0296*
X02321Y0296*
X02321Y0296*
X02321Y0296*
X02321Y0296*
X02322Y02959*
X02322Y02959*
X02322Y02959*
X02322Y02959*
X02322Y02959*
X02322Y02959*
X02322Y02959*
X02323Y02959*
X02323Y02959*
X02323Y02959*
X02323*
X02324Y02959*
X02324Y02959*
X02324Y02959*
X02324Y02959*
X02325Y02959*
X02325Y02959*
X02325Y02959*
X02325Y02959*
X02325Y02959*
X02325Y0296*
X02325Y0296*
X02325Y0296*
X02325Y0296*
X02326Y02961*
X02327Y02961*
Y02961*
X02327Y02961*
X02327Y0296*
X02327Y0296*
X02327Y0296*
X02327Y0296*
X02327Y0296*
X02327Y02959*
X02326Y02959*
X02326Y02959*
X02326Y02958*
X02326Y02958*
X02326Y02958*
X02326Y02958*
X02326Y02958*
X02326Y02958*
X02325Y02958*
X02325Y02958*
X02325Y02958*
X02325Y02958*
X02324Y02957*
X02324Y02957*
X02324Y02957*
X02323*
X02323Y02957*
X02323Y02957*
X02322Y02957*
X02322Y02958*
X02322Y02958*
X02321Y02958*
X02321*
X02321Y02958*
X02321Y02958*
X02321Y02958*
X02321Y02958*
X02321Y02958*
X02321Y02958*
X0232Y02959*
X0232Y02959*
X0232Y02959*
X0232Y02959*
X0232Y02959*
X0232Y02959*
X0232Y0296*
X0232Y0296*
X0232Y0296*
X0232Y02961*
Y02961*
Y02961*
X0232Y02961*
X0232Y02961*
X0232Y02961*
X0232Y02962*
X0232Y02962*
X0232Y02962*
X0232Y02962*
X0232Y02962*
X0232Y02962*
X0232Y02962*
X02321Y02963*
X02321Y02963*
X02321Y02963*
X02321Y02963*
X02321*
X02321Y02963*
X02321Y02963*
X02321Y02963*
X02321Y02963*
X02321Y02963*
X0232Y02964*
X0232Y02964*
X0232Y02964*
X0232Y02964*
X0232Y02964*
X0232Y02964*
X02319Y02965*
X02319Y02965*
X02319Y02965*
X02319Y02965*
X02319Y02966*
X02319Y02966*
Y02966*
Y02966*
Y02966*
X02319Y02967*
X02319Y02967*
X02319Y02967*
X02319Y02967*
X02319Y02967*
X02319Y02968*
X02319Y02968*
X0232Y02968*
X0232Y02968*
X0232Y02969*
X0232Y02969*
X0232Y02969*
X0232Y02969*
X0232Y02969*
X0232Y02969*
X0232Y02969*
X02321Y02969*
X02321Y02969*
X02321Y0297*
X02321Y0297*
X02321Y0297*
X02322Y0297*
X02322Y0297*
X02322Y0297*
X02322Y0297*
X02323Y0297*
X02323Y0297*
X02323Y0297*
X02323*
X02324Y0297*
G37*
G36*
X02339Y02957D02*
X02335D01*
X02334Y02957*
X02334Y02957*
X02333Y02957*
X02333Y02958*
X02333Y02958*
X02333*
X02333Y02958*
X02333*
X02333Y02958*
X02332Y02958*
X02332Y02958*
X02332Y02958*
X02332Y02958*
X02331Y02958*
X02331Y02958*
X02331Y02958*
X02331Y02959*
X02331Y02959*
X02331Y02959*
X02331Y02959*
X0233Y02959*
X0233Y02959*
X0233Y0296*
X0233Y0296*
X02329Y02961*
Y02961*
X02329Y02961*
X02329Y02961*
X02329Y02961*
X02329Y02961*
X02329Y02961*
X02329Y02961*
X02329Y02961*
X02329Y02962*
X02329Y02962*
X02329Y02962*
X02329Y02963*
X02329Y02964*
Y02964*
Y02964*
Y02964*
Y02964*
X02329Y02964*
Y02964*
X02329Y02964*
X02329Y02965*
X02329Y02965*
X02329Y02966*
X02329Y02966*
Y02966*
X02329Y02966*
X02329Y02966*
X02329Y02966*
X02329Y02967*
X0233Y02967*
X0233Y02967*
X0233Y02967*
X0233Y02968*
X0233Y02968*
X0233Y02968*
X0233Y02968*
X0233Y02968*
X0233Y02968*
X02331Y02969*
X02331Y02969*
X02331Y02969*
X02331Y02969*
X02331Y02969*
X02331Y02969*
X02332Y02969*
X02332Y02969*
X02332Y02969*
X02332Y0297*
X02332Y0297*
X02333Y0297*
X02333*
X02333Y0297*
X02333Y0297*
X02333Y0297*
X02333Y0297*
X02334Y0297*
X02334Y0297*
X02334Y0297*
X02335Y0297*
X02339*
Y02957*
G37*
G36*
X02194Y03642D02*
X02194Y03642D01*
X02195Y03642*
X02195Y03642*
X02195Y03642*
X02195Y03642*
X02196Y03642*
X02196Y03641*
X02196Y03641*
X02197Y03641*
X02197Y03641*
X02197Y03641*
X02197Y03641*
X02197Y03641*
X02197Y03641*
X02197Y03641*
X02197Y03641*
X02197Y0364*
X02197Y0364*
X02198Y0364*
X02198Y0364*
X02198Y03639*
X02198Y03639*
X02198Y03639*
X02198Y03638*
X02196Y03638*
Y03638*
Y03638*
X02196Y03638*
X02196Y03638*
X02196Y03639*
X02196Y03639*
X02196Y03639*
X02196Y0364*
X02196Y0364*
X02196Y0364*
X02196Y0364*
X02196Y0364*
X02195Y0364*
X02195Y0364*
X02195Y0364*
X02195Y03641*
X02194Y03641*
X02194Y03641*
X02194*
X02194Y03641*
X02194Y03641*
X02193Y03641*
X02193Y0364*
X02193Y0364*
X02192Y0364*
X02192Y0364*
X02192Y0364*
X02192Y0364*
X02192Y0364*
X02192Y0364*
X02192Y0364*
X02192Y03639*
X02192Y03639*
X02192Y03639*
X02191Y03639*
X02191Y03638*
X02191Y03638*
Y03638*
Y03638*
Y03638*
Y03637*
X02191Y03637*
Y03637*
X02191Y03637*
X02191Y03637*
X02192Y03636*
X02192Y03636*
X02192Y03636*
X02192Y03636*
Y03635*
X02192Y03635*
X02192Y03635*
X02192Y03635*
X02193Y03635*
X02193Y03635*
X02193Y03635*
X02194Y03635*
X02194Y03635*
X02194*
X02194Y03635*
X02195Y03635*
X02195Y03635*
X02195Y03635*
X02195Y03635*
X02195Y03635*
X02195Y03635*
X02196Y03635*
X02196Y03635*
X02196Y03635*
X02196Y03635*
X02196Y03636*
X02196Y03636*
X02196Y03636*
X02198Y03636*
X02197Y03629*
X0219*
Y03631*
X02195*
X02196Y03634*
X02196Y03634*
X02196Y03634*
X02196Y03634*
X02196Y03634*
X02196Y03634*
X02196Y03634*
X02195Y03634*
X02195Y03634*
X02195Y03633*
X02194Y03633*
X02194Y03633*
X02193*
X02193Y03633*
X02193Y03633*
X02193Y03633*
X02193Y03633*
X02193Y03634*
X02192Y03634*
X02192Y03634*
X02192Y03634*
X02192Y03634*
X02191Y03634*
X02191Y03634*
X02191Y03635*
X02191Y03635*
X02191Y03635*
X02191Y03635*
X02191Y03635*
X02191Y03635*
X02191Y03635*
X0219Y03635*
X0219Y03635*
X0219Y03636*
X0219Y03636*
X0219Y03636*
X0219Y03636*
X0219Y03637*
X0219Y03637*
X0219Y03637*
X0219Y03637*
Y03637*
Y03638*
Y03638*
X0219Y03638*
X0219Y03638*
X0219Y03638*
X0219Y03638*
X0219Y03638*
X0219Y03639*
X0219Y03639*
X0219Y0364*
X0219Y0364*
X02191Y0364*
X02191Y0364*
X02191Y0364*
X02191Y0364*
X02191Y03641*
X02191Y03641*
X02191Y03641*
X02191Y03641*
X02191Y03641*
X02192Y03641*
X02192Y03641*
X02192Y03641*
X02192Y03642*
X02193Y03642*
X02193Y03642*
X02193Y03642*
X02194Y03642*
X02194Y03642*
X02194*
X02194Y03642*
G37*
G36*
X02217Y03629D02*
X02215D01*
X0221Y03642*
X02211*
X02213Y03638*
X02218*
X0222Y03642*
X02221*
X02217Y03629*
G37*
G36*
X02179Y03636D02*
X02174D01*
Y03638*
X02179*
Y03636*
G37*
G36*
X02163D02*
X02158D01*
Y03638*
X02163*
Y03636*
G37*
G36*
X02171Y03642D02*
Y03642D01*
Y03642*
X02171Y03641*
Y03641*
X02171Y03641*
X02171Y03641*
X02171Y03641*
X02171Y0364*
X02171Y0364*
X02171Y0364*
X02171Y0364*
X0217Y03639*
X0217Y03639*
X0217Y03638*
Y03638*
X0217Y03638*
X0217Y03638*
X0217Y03638*
X0217Y03638*
X0217Y03637*
X0217Y03637*
X0217Y03637*
X0217Y03637*
X0217Y03636*
X02169Y03636*
X02169Y03635*
X02169Y03634*
X02169Y03634*
X02169Y03634*
X02168Y03634*
X02168Y03634*
X02168Y03634*
X02168Y03633*
X02168Y03633*
X02168Y03633*
X02168Y03632*
X02167Y03632*
X02167Y03631*
X02166Y03631*
X02173*
Y03629*
X02164*
Y0363*
X02164Y03631*
X02164Y03631*
X02164Y03631*
X02165Y03631*
X02165Y03631*
X02165Y03631*
X02165Y03631*
X02165Y03631*
X02165Y03632*
X02166Y03632*
X02166Y03632*
X02166Y03632*
X02166Y03633*
X02166Y03633*
X02167Y03634*
X02167Y03634*
X02167Y03634*
X02167Y03634*
X02167Y03634*
X02167Y03634*
X02167Y03634*
X02167Y03635*
X02167Y03635*
X02167Y03635*
X02168Y03636*
X02168Y03636*
X02168Y03636*
X02168Y03637*
X02168Y03637*
X02169Y03638*
Y03638*
X02169Y03638*
X02169Y03638*
X02169Y03639*
X02169Y03639*
X02169Y03639*
X02169Y03639*
X02169Y03639*
X02169Y0364*
X02169Y0364*
X02169Y0364*
X02169Y03641*
X02169Y03642*
X02171*
Y03642*
G37*
G36*
X02232Y03629D02*
X02227D01*
X02227Y03629*
X02227*
X02226Y03629*
X02226Y03629*
X02225Y03629*
X02225Y03629*
X02225Y03629*
X02225*
X02225Y0363*
X02225Y0363*
X02224Y0363*
X02224Y0363*
X02224Y0363*
X02224Y0363*
X02224Y0363*
X02223Y03631*
X02223Y03631*
X02223Y03631*
X02223Y03631*
X02223Y03631*
X02223Y03631*
X02223Y03632*
X02223Y03632*
X02223Y03632*
Y03632*
Y03632*
X02223Y03633*
X02223Y03633*
X02223Y03633*
X02223Y03633*
X02223Y03634*
X02223Y03634*
X02223Y03634*
X02223Y03634*
X02223Y03634*
X02224Y03634*
X02224Y03634*
X02224Y03635*
X02224Y03635*
X02225Y03635*
X02225*
X02225Y03635*
X02225Y03635*
X02224Y03635*
X02224Y03635*
X02224Y03635*
X02224Y03635*
X02223Y03636*
X02223Y03636*
X02223Y03636*
X02223Y03636*
X02223Y03636*
X02223Y03636*
X02223Y03637*
X02222Y03637*
X02222Y03637*
X02222Y03638*
X02222Y03638*
Y03638*
Y03638*
Y03638*
X02222Y03638*
X02222Y03639*
X02222Y03639*
X02222Y03639*
X02222Y03639*
X02223Y0364*
X02223Y0364*
X02223Y0364*
X02223Y0364*
X02223Y0364*
X02223Y0364*
X02223Y03641*
X02223Y03641*
X02224Y03641*
X02224Y03641*
X02224Y03641*
X02224Y03641*
X02224Y03641*
X02224Y03641*
X02224Y03641*
X02225Y03641*
X02225Y03642*
X02225*
X02225Y03642*
X02225Y03642*
X02225Y03642*
X02226Y03642*
X02226Y03642*
X02227Y03642*
X02227Y03642*
X02232*
Y03629*
G37*
G36*
X02205Y03631D02*
X02209D01*
Y03629*
X02199*
Y03631*
X02203*
Y03642*
X02205*
Y03631*
G37*
G36*
X02183Y03639D02*
X02189D01*
Y03637*
X02183Y03629*
X02182*
Y03637*
X0218*
Y03639*
X02182*
Y03642*
X02183*
Y03639*
G37*
G36*
X02156Y03629D02*
X02148D01*
Y03631*
X02155*
Y03635*
X02149*
Y03636*
X02155*
Y03642*
X02156*
Y03629*
G37*
G36*
X02232Y03612D02*
X02227D01*
X02227Y03612*
X02226Y03612*
X02226Y03612*
X02225Y03613*
X02225Y03613*
X02225*
X02225Y03613*
X02225*
X02225Y03613*
X02225Y03613*
X02225Y03613*
X02224Y03613*
X02224Y03613*
X02224Y03613*
X02223Y03613*
X02223Y03613*
X02223Y03614*
X02223Y03614*
X02223Y03614*
X02223Y03614*
X02223Y03614*
X02223Y03614*
X02222Y03615*
X02222Y03615*
X02222Y03616*
Y03616*
X02222Y03616*
X02222Y03616*
X02222Y03616*
X02222Y03616*
X02222Y03616*
X02222Y03616*
X02222Y03616*
X02222Y03617*
X02222Y03617*
X02221Y03617*
X02221Y03618*
X02221Y03619*
Y03619*
Y03619*
Y03619*
Y03619*
X02221Y03619*
Y03619*
X02221Y03619*
X02221Y0362*
X02221Y0362*
X02222Y03621*
X02222Y03621*
Y03621*
X02222Y03621*
X02222Y03621*
X02222Y03621*
X02222Y03622*
X02222Y03622*
X02222Y03622*
X02222Y03622*
X02222Y03623*
X02223Y03623*
X02223Y03623*
X02223Y03623*
X02223Y03623*
X02223Y03623*
X02223Y03624*
X02223Y03624*
X02223Y03624*
X02224Y03624*
X02224Y03624*
X02224Y03624*
X02224Y03624*
X02224Y03624*
X02224Y03624*
X02225Y03625*
X02225Y03625*
X02225Y03625*
X02225*
X02225Y03625*
X02225Y03625*
X02226Y03625*
X02226Y03625*
X02226Y03625*
X02226Y03625*
X02227Y03625*
X02227Y03625*
X02232*
Y03612*
G37*
G36*
X0222Y03625D02*
Y03625D01*
Y03625*
X0222Y03625*
X0222Y03624*
X0222Y03624*
X0222Y03624*
X0222Y03624*
Y03624*
X0222Y03624*
X0222Y03624*
X0222Y03624*
X02219Y03623*
X02219Y03623*
X02219Y03623*
X02219Y03623*
X02219Y03622*
Y03622*
X02219Y03622*
X02219Y03622*
X02218Y03622*
X02218Y03622*
X02218Y03621*
X02218Y03621*
X02217Y03621*
X02217Y0362*
X02217Y0362*
X02217Y0362*
X02216Y0362*
X02216Y0362*
X02216Y0362*
X02216Y0362*
X02216Y0362*
X02216Y03619*
X02215Y03619*
X02215Y03618*
X02214Y03618*
X02214Y03618*
X02214Y03618*
X02214Y03618*
Y03618*
X02214Y03618*
X02214Y03618*
X02214Y03617*
X02214Y03617*
X02214Y03617*
X02213Y03617*
X02213Y03616*
X02213Y03616*
X02213Y03616*
Y03616*
Y03616*
X02213Y03616*
X02213Y03615*
X02213Y03615*
X02213Y03615*
X02213Y03615*
X02214Y03614*
X02214Y03614*
X02214Y03614*
X02214Y03614*
X02214Y03614*
X02214Y03614*
X02215Y03614*
X02215Y03614*
X02215Y03614*
X02216Y03614*
X02216*
X02216Y03614*
X02216Y03614*
X02216Y03614*
X02216Y03614*
X02217Y03614*
X02217Y03614*
X02217Y03614*
X02217Y03614*
X02217Y03614*
X02218Y03615*
X02218Y03615*
X02218Y03615*
X02218Y03615*
X02218Y03616*
X02218Y03616*
X0222Y03616*
Y03616*
X0222Y03616*
Y03616*
X0222Y03616*
X0222Y03616*
X0222Y03615*
X02219Y03615*
X02219Y03615*
X02219Y03615*
X02219Y03614*
X02219Y03614*
X02219Y03614*
X02219Y03613*
X02218Y03613*
X02218Y03613*
X02218Y03613*
X02218Y03613*
X02218Y03613*
X02218Y03613*
X02218Y03613*
X02218Y03613*
X02218Y03613*
X02217Y03613*
X02217Y03613*
X02217Y03613*
X02217Y03612*
X02216Y03612*
X02216Y03612*
X02216Y03612*
X02216Y03612*
X02215*
X02215Y03612*
X02215Y03612*
X02215Y03612*
X02215Y03612*
X02214Y03612*
X02214Y03613*
X02214Y03613*
X02213Y03613*
X02213Y03613*
X02213Y03613*
X02213Y03613*
X02213Y03613*
X02213Y03613*
X02213Y03613*
X02212Y03614*
X02212Y03614*
X02212Y03614*
X02212Y03614*
X02212Y03614*
X02212Y03614*
X02212Y03615*
X02212Y03615*
X02212Y03615*
X02212Y03616*
X02212Y03616*
Y03616*
Y03616*
X02212Y03616*
X02212Y03616*
X02212Y03617*
X02212Y03617*
X02212Y03617*
X02212Y03617*
X02212Y03617*
X02212Y03617*
X02212Y03618*
X02212Y03618*
X02212Y03618*
X02212Y03618*
X02213Y03619*
X02213Y03619*
X02213Y03619*
X02213Y03619*
X02213Y03619*
X02213Y03619*
X02213Y03619*
X02213Y03619*
X02214Y0362*
X02214Y0362*
X02214Y0362*
X02214Y0362*
X02214Y0362*
X02215Y03621*
X02215Y03621*
X02215Y03621*
X02215Y03621*
X02215Y03621*
X02215Y03621*
X02216Y03621*
X02216Y03621*
X02216Y03621*
X02216Y03622*
X02216Y03622*
X02217Y03622*
X02217Y03622*
X02217Y03623*
X02217Y03623*
X02217Y03623*
X02217Y03623*
X02217Y03623*
X02217Y03623*
X02217Y03623*
X02218Y03623*
X02218Y03623*
X02212*
Y03625*
X0222*
Y03625*
G37*
%LNspeakeasy_audio-2*%
%LPC*%
G36*
X03135Y03342D02*
X03132D01*
X03131Y03342*
X03131Y03342*
X03131Y03342*
X03131Y03342*
X0313Y03342*
X0313Y03342*
X0313Y03342*
X0313Y03342*
X0313Y03342*
X0313Y03342*
X03129Y03341*
X03129Y03341*
X03129Y03341*
X03129Y03341*
X03129Y03341*
X03129Y03341*
X03129Y03341*
X03129Y03341*
X03128Y0334*
X03128Y0334*
X03128Y0334*
X03128Y0334*
Y0334*
X03128Y03339*
X03128Y03339*
X03128Y03339*
X03128Y03339*
X03128Y03339*
X03128Y03339*
X03128Y03339*
X03128Y03338*
X03128Y03338*
X03128Y03338*
X03128Y03337*
Y03337*
Y03337*
Y03337*
X03128Y03337*
Y03337*
X03128Y03336*
X03128Y03336*
X03128Y03336*
X03128Y03335*
X03128Y03335*
X03128Y03335*
X03128Y03334*
X03128Y03334*
Y03334*
X03128Y03334*
X03128Y03334*
X03128Y03334*
X03128Y03334*
X03129Y03333*
X03129Y03333*
X03129Y03333*
X03129Y03333*
X0313Y03333*
X0313Y03333*
X0313Y03333*
X0313Y03333*
X0313Y03333*
X03131Y03332*
X03131Y03332*
X03131Y03332*
X03131*
X03132Y03332*
X03135*
Y03342*
G37*
G36*
X03122Y03355D02*
X03118D01*
X03119Y03352*
Y03352*
X03119Y03351*
X03119Y03351*
X03119Y03351*
X03119Y03351*
X03119Y03351*
X0312Y03351*
X0312Y03351*
X0312Y0335*
X0312Y0335*
X0312Y03349*
X0312Y03349*
Y03349*
X0312Y03349*
Y03349*
X0312Y03349*
X0312Y03349*
X0312Y03349*
X0312Y0335*
X0312Y0335*
X03121Y0335*
X03121Y03351*
X03121Y03351*
X03122Y03355*
G37*
G36*
X03135Y03359D02*
X03131D01*
X03131Y03359*
X0313Y03359*
X0313Y03359*
X0313*
X0313Y03359*
X0313Y03359*
X0313Y03359*
X0313Y03358*
X03129Y03358*
X03129Y03358*
X03129Y03358*
X03129Y03358*
X03129Y03358*
X03129Y03358*
X03129Y03358*
X03129Y03358*
X03129Y03358*
X03129Y03358*
X03129Y03358*
X03129Y03357*
X03129Y03357*
X03129Y03357*
X03129Y03357*
X03128Y03357*
X03128Y03357*
Y03357*
Y03356*
X03128Y03356*
X03129Y03356*
X03129Y03356*
X03129Y03356*
X03129Y03356*
X03129Y03355*
X03129Y03355*
X03129Y03355*
X03129Y03355*
X03129Y03355*
X03129Y03355*
X03129Y03355*
X0313Y03355*
X0313Y03355*
X0313Y03355*
X0313Y03355*
X0313Y03355*
X0313Y03354*
X03131Y03354*
X03131Y03354*
X03131Y03354*
X03135*
Y03359*
G37*
G36*
Y03353D02*
X03132D01*
X03131Y03353*
X03131Y03353*
X03131Y03353*
X03131Y03353*
X0313Y03353*
X0313Y03353*
X0313Y03353*
X0313Y03353*
X0313Y03353*
X0313Y03353*
X0313Y03352*
X03129Y03352*
X03129Y03352*
X03129Y03352*
X03129Y03352*
X03129Y03352*
X03129Y03352*
X03129Y03352*
X03129Y03351*
X03129Y03351*
X03129Y03351*
Y03351*
Y03351*
X03129Y03351*
X03129Y03351*
X03129Y0335*
X03129Y0335*
X03129Y0335*
X03129Y0335*
X03129Y0335*
X03129Y0335*
X03129Y0335*
X0313Y0335*
X0313Y0335*
X0313Y03349*
X0313Y03349*
X0313Y03349*
X0313*
X0313Y03349*
X0313Y03349*
X03131Y03349*
X03131Y03349*
X03131Y03349*
X03132Y03349*
X03135*
Y03353*
G37*
G36*
X03092Y03356D02*
X03088D01*
Y0335*
X03092Y03356*
G37*
G36*
X02325Y02982D02*
X02321D01*
X02322Y02978*
Y02978*
X02322Y02978*
X02322Y02978*
X02322Y02978*
X02322Y02978*
X02323Y02977*
X02323Y02977*
X02323Y02977*
X02323Y02977*
X02323Y02976*
X02323Y02976*
X02323Y02975*
Y02975*
X02323Y02975*
Y02976*
X02323Y02976*
X02323Y02976*
X02323Y02976*
X02323Y02976*
X02324Y02977*
X02324Y02977*
X02324Y02977*
X02324Y02978*
X02325Y02982*
G37*
G36*
X02338Y02985D02*
X02334D01*
X02334Y02985*
X02334Y02985*
X02333Y02985*
X02333*
X02333Y02985*
X02333Y02985*
X02333Y02985*
X02333Y02985*
X02332Y02985*
X02332Y02985*
X02332Y02985*
X02332Y02985*
X02332Y02985*
X02332Y02985*
X02332Y02984*
X02332Y02984*
X02332Y02984*
X02332Y02984*
X02332Y02984*
X02332Y02984*
X02332Y02984*
X02332Y02984*
X02332Y02983*
X02332Y02983*
X02332Y02983*
Y02983*
Y02983*
X02332Y02983*
X02332Y02983*
X02332Y02982*
X02332Y02982*
X02332Y02982*
X02332Y02982*
X02332Y02982*
X02332Y02982*
X02332Y02982*
X02332Y02982*
X02332Y02981*
X02333Y02981*
X02333Y02981*
X02333Y02981*
X02333Y02981*
X02333Y02981*
X02333Y02981*
X02333Y02981*
X02334Y02981*
X02334Y02981*
X02334Y02981*
X02338*
Y02985*
G37*
G36*
Y02979D02*
X02335D01*
X02334Y02979*
X02334Y02979*
X02334Y02979*
X02334Y02979*
X02333Y02979*
X02333Y02979*
X02333Y02979*
X02333Y02979*
X02333Y02979*
X02333Y02979*
X02333Y02979*
X02333Y02979*
X02332Y02979*
X02332Y02979*
X02332Y02979*
X02332Y02978*
X02332Y02978*
X02332Y02978*
X02332Y02978*
X02332Y02978*
X02332Y02978*
Y02977*
Y02977*
X02332Y02977*
X02332Y02977*
X02332Y02977*
X02332Y02977*
X02332Y02977*
X02332Y02976*
X02332Y02976*
X02332Y02976*
X02333Y02976*
X02333Y02976*
X02333Y02976*
X02333Y02976*
X02333Y02976*
X02333Y02976*
X02333*
X02333Y02976*
X02334Y02976*
X02334Y02976*
X02334Y02976*
X02334Y02976*
X02335Y02976*
X02338*
Y02979*
G37*
G36*
X02295Y02982D02*
X02291D01*
Y02977*
X02295Y02982*
G37*
G36*
X02338Y02968D02*
X02335D01*
X02335Y02968*
X02334Y02968*
X02334Y02968*
X02334Y02968*
X02333Y02968*
X02333Y02968*
X02333Y02968*
X02333Y02968*
X02333Y02968*
X02333Y02968*
X02332Y02968*
X02332Y02968*
X02332Y02968*
X02332Y02968*
X02332Y02968*
X02332Y02968*
X02332Y02967*
X02332Y02967*
X02331Y02967*
X02331Y02967*
X02331Y02966*
X02331Y02966*
Y02966*
X02331Y02966*
X02331Y02966*
X02331Y02966*
X02331Y02966*
X02331Y02966*
X02331Y02966*
X02331Y02965*
X02331Y02965*
X02331Y02965*
X02331Y02964*
X02331Y02964*
Y02964*
Y02963*
Y02963*
X02331Y02963*
Y02963*
X02331Y02963*
X02331Y02963*
X02331Y02962*
X02331Y02962*
X02331Y02961*
X02331Y02961*
X02331Y02961*
X02331Y02961*
Y02961*
X02331Y02961*
X02331Y0296*
X02331Y0296*
X02332Y0296*
X02332Y0296*
X02332Y0296*
X02332Y0296*
X02333Y02959*
X02333Y02959*
X02333Y02959*
X02333Y02959*
X02333Y02959*
X02333Y02959*
X02334Y02959*
X02334Y02959*
X02334Y02959*
X02335*
X02335Y02959*
X02338*
Y02968*
G37*
G36*
X02218Y03637D02*
X02213D01*
X02215Y03633*
Y03633*
X02215Y03633*
X02215Y03633*
X02215Y03633*
X02215Y03633*
X02215Y03632*
X02215Y03632*
X02215Y03632*
X02215Y03632*
X02215Y03631*
X02216Y03631*
X02216Y0363*
Y0363*
X02216Y0363*
Y03631*
X02216Y03631*
X02216Y03631*
X02216Y03631*
X02216Y03631*
X02216Y03632*
X02216Y03632*
X02216Y03632*
X02216Y03633*
X02218Y03637*
G37*
G36*
X0223Y0364D02*
X02226D01*
X02226Y0364*
X02226Y0364*
X02226Y0364*
X02226*
X02226Y0364*
X02226Y0364*
X02225Y0364*
X02225Y0364*
X02225Y0364*
X02225Y0364*
X02225Y0364*
X02225Y0364*
X02225Y0364*
X02225Y0364*
X02224Y03639*
X02224Y03639*
X02224Y03639*
X02224Y03639*
X02224Y03639*
X02224Y03639*
X02224Y03639*
X02224Y03639*
X02224Y03638*
X02224Y03638*
X02224Y03638*
Y03638*
Y03638*
X02224Y03638*
X02224Y03638*
X02224Y03637*
X02224Y03637*
X02224Y03637*
X02224Y03637*
X02224Y03637*
X02224Y03637*
X02224Y03637*
X02225Y03637*
X02225Y03636*
X02225Y03636*
X02225Y03636*
X02225Y03636*
X02225Y03636*
X02225Y03636*
X02226Y03636*
X02226Y03636*
X02226Y03636*
X02226Y03636*
X02227Y03636*
X0223*
Y0364*
G37*
G36*
Y03634D02*
X02227D01*
X02227Y03634*
X02226Y03634*
X02226Y03634*
X02226Y03634*
X02226Y03634*
X02226Y03634*
X02226Y03634*
X02226Y03634*
X02225Y03634*
X02225Y03634*
X02225Y03634*
X02225Y03634*
X02225Y03634*
X02225Y03634*
X02225Y03634*
X02225Y03633*
X02225Y03633*
X02225Y03633*
X02225Y03633*
X02225Y03633*
X02224Y03633*
Y03632*
Y03632*
X02225Y03632*
X02225Y03632*
X02225Y03632*
X02225Y03632*
X02225Y03632*
X02225Y03631*
X02225Y03631*
X02225Y03631*
X02225Y03631*
X02225Y03631*
X02225Y03631*
X02225Y03631*
X02225Y03631*
X02226Y03631*
X02226*
X02226Y03631*
X02226Y03631*
X02226Y03631*
X02226Y03631*
X02227Y03631*
X02227Y03631*
X0223*
Y03634*
G37*
G36*
X02187Y03637D02*
X02183D01*
Y03632*
X02187Y03637*
G37*
G36*
X0223Y03623D02*
X02227D01*
X02227Y03623*
X02227Y03623*
X02226Y03623*
X02226Y03623*
X02226Y03623*
X02225Y03623*
X02225Y03623*
X02225Y03623*
X02225Y03623*
X02225Y03623*
X02225Y03623*
X02225Y03623*
X02224Y03623*
X02224Y03623*
X02224Y03623*
X02224Y03623*
X02224Y03622*
X02224Y03622*
X02224Y03622*
X02224Y03622*
X02224Y03621*
X02223Y03621*
Y03621*
X02223Y03621*
X02223Y03621*
X02223Y03621*
X02223Y03621*
X02223Y03621*
X02223Y03621*
X02223Y0362*
X02223Y0362*
X02223Y0362*
X02223Y03619*
X02223Y03619*
Y03619*
Y03618*
Y03618*
X02223Y03618*
Y03618*
X02223Y03618*
X02223Y03618*
X02223Y03617*
X02223Y03617*
X02223Y03616*
X02223Y03616*
X02224Y03616*
X02224Y03616*
Y03616*
X02224Y03616*
X02224Y03615*
X02224Y03615*
X02224Y03615*
X02224Y03615*
X02224Y03615*
X02225Y03615*
X02225Y03614*
X02225Y03614*
X02225Y03614*
X02225Y03614*
X02226Y03614*
X02226Y03614*
X02226Y03614*
X02226Y03614*
X02227Y03614*
X02227*
X02227Y03614*
X0223*
Y03623*
G37*
%LNspeakeasy_audio-3*%
%LPD*%
G54D70*
X03038Y03424D02*
X0314D01*
X03038Y03324D02*
X0314D01*
Y03424*
X03038Y03324D02*
Y03424D01*
X02241Y0295D02*
Y03051D01*
X02343Y0295D02*
Y03051D01*
X02241Y0295D02*
X02343D01*
X02241Y03051D02*
X02343D01*
X02133Y03605D02*
Y03706D01*
X02236Y03605D02*
Y03706D01*
X02133Y03605D02*
X02236D01*
X02133Y03706D02*
X02236D01*
G54D71*
X03053Y03428D03*
X03125D03*
X03089Y03319D03*
X02292Y02945D03*
X02329Y03055D03*
X02256D03*
X02185Y036D03*
X02221Y0371D03*
X02148D03*
M02*