%FSTAX23Y23*%
%MOIN*%
%SFA1B1*%

%IPPOS*%
%ADD70C,0.003940*%
%ADD73C,0.001970*%
%LNspeakeasy_audio-1*%
%LPD*%
G54D70*
X02642Y0349D02*
Y03529D01*
X02622Y0351D02*
X02662D01*
X02854Y03615D02*
X02894D01*
X02874Y03595D02*
Y03634D01*
X0251Y0238D02*
X02549D01*
X0253Y0236D02*
Y02399D01*
X02657Y0346D02*
X02697D01*
X02677Y0344D02*
Y03479D01*
X03795Y034D02*
X03834D01*
X03815Y0338D02*
Y03419D01*
X0387Y034D02*
X03909D01*
X0389Y0338D02*
Y03419D01*
X03451Y0311D02*
X03491D01*
X03471Y0309D02*
Y03129D01*
X0363Y03107D02*
X03669D01*
X0365Y03087D02*
Y03127D01*
X03725Y0311D02*
X03764D01*
X03745Y0309D02*
Y03129D01*
X03365Y031D02*
X03404D01*
X03385Y0308D02*
Y03119D01*
X02492Y03811D02*
Y03851D01*
X02472Y03831D02*
X02512D01*
X0312Y04205D02*
Y04244D01*
X031Y04225D02*
X03139D01*
X03155Y03845D02*
Y03884D01*
X03135Y03865D02*
X03174D01*
X037Y03863D02*
X03739D01*
X0372Y03844D02*
Y03883D01*
X02072Y02074D02*
X021Y02102D01*
X02072D02*
X021Y02074D01*
X03301Y03473D02*
X0334D01*
X03321Y03453D02*
Y03493D01*
X03578Y03904D02*
X03617D01*
X03598Y03885D02*
Y03924D01*
X0282Y0326D02*
X02859D01*
X0284Y0324D02*
Y03279D01*
X02877Y0336D02*
Y03399D01*
X02857Y0338D02*
X02897D01*
X0282Y0317D02*
X02859D01*
X0284Y0315D02*
Y03189D01*
X0249Y0236D02*
Y02399D01*
X0247Y0238D02*
X02509D01*
X02595Y03615D02*
X02634D01*
X02615Y03595D02*
Y03634D01*
X02595Y03535D02*
X02634D01*
X02615Y03515D02*
Y03554D01*
X02292Y0285D02*
X02332D01*
X02312Y0283D02*
Y02869D01*
X02332Y03492D02*
Y03531D01*
X02312Y03511D02*
X02352D01*
X02352Y0339D02*
X02392D01*
X02372Y0337D02*
Y0341D01*
X0222Y03775D02*
Y03814D01*
X022Y03795D02*
X02239D01*
X0213Y03775D02*
Y03814D01*
X0211Y03795D02*
X02149D01*
X02292Y0276D02*
X02332D01*
X02312Y0274D02*
Y02779D01*
X02327Y0314D02*
Y03179D01*
X02307Y0316D02*
X02347D01*
X024Y0314D02*
Y03179D01*
X0238Y0316D02*
X02419D01*
X02407Y03492D02*
Y03531D01*
X02387Y03511D02*
X02427D01*
X02332Y03628D02*
Y03667D01*
X02312Y03648D02*
X02352D01*
X0207Y03542D02*
X02109D01*
X0209Y03522D02*
Y03562D01*
X0207Y0347D02*
X02109D01*
X0209Y0345D02*
Y03489D01*
X02455Y03926D02*
Y03966D01*
X02435Y03946D02*
X02475D01*
X02532Y03921D02*
Y03961D01*
X02512Y03941D02*
X02552D01*
X02532Y04071D02*
Y04111D01*
X02512Y04091D02*
X02552D01*
X02452Y0407D02*
Y04109D01*
X02432Y0409D02*
X02472D01*
X03007Y0326D02*
X03046D01*
X03026Y0324D02*
Y03279D01*
X03007Y0318D02*
X03046D01*
X03026Y0316D02*
Y03199D01*
X03074Y0351D02*
Y03549D01*
X03054Y0353D02*
X03094D01*
X02982Y0351D02*
Y03549D01*
X02962Y0353D02*
X03002D01*
X02752Y03731D02*
X02792D01*
X02772Y03712D02*
Y03751D01*
X02737Y03823D02*
Y03862D01*
X02717Y03843D02*
X02757D01*
X02812Y03823D02*
Y03862D01*
X02792Y03843D02*
X02832D01*
X02802Y03962D02*
Y04001D01*
X02782Y03981D02*
X02822D01*
X02737Y0396D02*
Y03999D01*
X02717Y0398D02*
X02757D01*
X02407Y03627D02*
Y03666D01*
X02387Y03646D02*
X02427D01*
X03539Y03625D02*
X03579D01*
X03559Y03605D02*
Y03644D01*
X0226Y0219D02*
Y02229D01*
X0224Y0221D02*
X02279D01*
X0226Y02108D02*
Y02147D01*
X0224Y02128D02*
X02279D01*
X0226Y02026D02*
Y02066D01*
X0224Y02046D02*
X02279D01*
X018Y03225D02*
Y03264D01*
X0178Y03245D02*
X01819D01*
X018Y0314D02*
Y03179D01*
X0178Y0316D02*
X01819D01*
X018Y0306D02*
Y03099D01*
X0178Y0308D02*
X01819D01*
X02235Y04165D02*
Y04204D01*
X02215Y04185D02*
X02254D01*
X02231Y0403D02*
Y04069D01*
X02211Y0405D02*
X02251D01*
X02235Y04095D02*
Y04134D01*
X02215Y04115D02*
X02254D01*
X0275Y01985D02*
Y02024D01*
X0273Y02005D02*
X02769D01*
X0274Y0191D02*
X02779D01*
X0276Y0189D02*
Y01929D01*
X02885Y0167D02*
Y01709D01*
X02865Y0169D02*
X02904D01*
X03065Y01785D02*
X03104D01*
X03085Y01765D02*
Y01804D01*
X03145Y01785D02*
X03185D01*
X03165Y01765D02*
Y01804D01*
X03225Y01785D02*
X03264D01*
X03245Y01765D02*
Y01804D01*
X03149Y01633D02*
Y01673D01*
X03129Y01653D02*
X03169D01*
X04015Y0198D02*
Y02019D01*
X03995Y02D02*
X04034D01*
X04045Y0211D02*
Y02149D01*
X04025Y0213D02*
X04064D01*
X0405Y02215D02*
Y02254D01*
X0403Y02235D02*
X04069D01*
X04189Y02107D02*
X04217Y02079D01*
X04189D02*
X04217Y02107D01*
X04625Y03149D02*
X04665D01*
X04645Y03129D02*
Y03169D01*
X03995Y03971D02*
Y04011D01*
X03975Y03991D02*
X04014D01*
X0399Y0406D02*
Y04099D01*
X0397Y0408D02*
X04009D01*
X0399Y04155D02*
Y04194D01*
X0397Y04175D02*
X04009D01*
X04176Y04176D02*
X04203Y04203D01*
X04176D02*
X04203Y04176D01*
X03055Y04545D02*
X03094D01*
X03075Y04525D02*
Y04564D01*
X04125Y03276D02*
Y03316D01*
X04105Y03296D02*
X04144D01*
X03205Y04545D02*
X03244D01*
X03225Y04525D02*
Y04564D01*
X03129Y04545D02*
X03169D01*
X03149Y04525D02*
Y04564D01*
Y04625D02*
Y04665D01*
X03129Y04645D02*
X03169D01*
X02086Y04213D02*
X02113Y04186D01*
X02086D02*
X02113Y04213D01*
X03226Y03473D02*
X03265D01*
X03246Y03453D02*
Y03493D01*
X03635Y0392D02*
X03674D01*
X03655Y039D02*
Y03939D01*
X0383Y0379D02*
X03869D01*
X0385Y0377D02*
Y03809D01*
X03374Y04036D02*
Y04076D01*
X03354Y04056D02*
X03394D01*
X03469Y03285D02*
Y03324D01*
X03449Y03305D02*
X03489D01*
X03647Y03285D02*
Y03324D01*
X03628Y03305D02*
X03667D01*
X0452Y0307D02*
Y03109D01*
X045Y0309D02*
X04539D01*
X0452Y0315D02*
Y03189D01*
X045Y0317D02*
X04539D01*
X0452Y03225D02*
Y03264D01*
X045Y03245D02*
X04539D01*
X01653Y03129D02*
Y03169D01*
X01633Y03149D02*
X01673D01*
G54D73*
X02818Y03378D02*
Y03641D01*
X02466D02*
X02818D01*
X02466Y03378D02*
Y03641D01*
Y03378D02*
X02818D01*
X02713Y0352D02*
Y03709D01*
X03035Y0352D02*
Y03709D01*
X02713Y0352D02*
X03035D01*
X02713Y03709D02*
X03035D01*
X02474Y02348D02*
Y02411D01*
X02585Y02348D02*
Y02411D01*
X02474Y02348D02*
X02585D01*
X02474Y02411D02*
X02585D01*
X02622Y0343D02*
Y03489D01*
X02732Y0343D02*
Y03489D01*
X02622Y0343D02*
X02732D01*
X02622Y03489D02*
X02732D01*
X03846Y03344D02*
Y03455D01*
X03783Y03344D02*
Y03455D01*
X03846*
X03783Y03344D02*
X03846D01*
X03921D02*
Y03455D01*
X03858Y03344D02*
Y03455D01*
X03921*
X03858Y03344D02*
X03921D01*
X03438Y03042D02*
Y03177D01*
Y03042D02*
X03504D01*
Y03177D01*
X03438D02*
X03504D01*
X03617Y0304D02*
Y03175D01*
Y0304D02*
X03682D01*
Y03175D01*
X03617D02*
X03682D01*
X03776Y03054D02*
Y03165D01*
X03713Y03054D02*
Y03165D01*
X03776*
X03713Y03054D02*
X03776D01*
X03353Y03044D02*
Y03155D01*
X03416Y03044D02*
Y03155D01*
X03353Y03044D02*
X03416D01*
X03353Y03155D02*
X03416D01*
X02437Y03802D02*
X02547D01*
X02437Y03861D02*
X02547D01*
Y03802D02*
Y03861D01*
X02437Y03802D02*
Y03861D01*
X03064Y04254D02*
X03175D01*
X03064Y04195D02*
X03175D01*
Y04254*
X03064Y04195D02*
Y04254D01*
X02977Y03652D02*
X03332D01*
X02977Y04077D02*
X03332D01*
X02977Y03652D02*
Y04077D01*
X03332Y03652D02*
Y04077D01*
X03775Y03834D02*
Y03893D01*
X03664Y03834D02*
Y03893D01*
X03775*
X03664Y03834D02*
X03775D01*
X02054Y02173D02*
X02171Y02056D01*
X0199Y02109D02*
X02107Y01992D01*
X0199Y02109D02*
X02054Y02173D01*
X02107Y01992D02*
X02171Y02056D01*
X03352Y03418D02*
Y03528D01*
X03289Y03418D02*
Y03528D01*
X03352*
X03289Y03418D02*
X03352D01*
X03653Y03875D02*
Y03934D01*
X03542Y03875D02*
Y03934D01*
X03653*
X03542Y03875D02*
X03653D01*
X02784Y0323D02*
Y03289D01*
X02895Y0323D02*
Y03289D01*
X02784D02*
X02895D01*
X02784Y0323D02*
X02895D01*
X02847Y03324D02*
X02906D01*
X02847Y03435D02*
X02906D01*
X02847Y03324D02*
Y03435D01*
X02906Y03324D02*
Y03435D01*
X02784Y03138D02*
Y03201D01*
X02895Y03138D02*
Y03201D01*
X02784D02*
X02895D01*
X02784Y03138D02*
X02895D01*
X02407Y02309D02*
X02572D01*
X02407Y0245D02*
X02572D01*
Y02309D02*
Y0245D01*
X02407Y02309D02*
Y0245D01*
X02559Y03583D02*
Y03646D01*
X0267Y03583D02*
Y03646D01*
X02559Y03583D02*
X0267D01*
X02559Y03646D02*
X0267D01*
X02559Y03503D02*
Y03566D01*
X0267Y03503D02*
Y03566D01*
X02559Y03503D02*
X0267D01*
X02559Y03566D02*
X0267D01*
X02257Y0282D02*
Y02879D01*
X02367Y0282D02*
Y02879D01*
X02257D02*
X02367D01*
X02257Y0282D02*
X02367D01*
X02301Y03567D02*
X02364D01*
X02301Y03456D02*
X02364D01*
Y03567*
X02301Y03456D02*
Y03567D01*
X02427Y03361D02*
Y0342D01*
X02317Y03361D02*
Y0342D01*
Y03361D02*
X02427D01*
X02317Y0342D02*
X02427D01*
X02188Y0385D02*
X02251D01*
X02188Y03739D02*
X02251D01*
Y0385*
X02188Y03739D02*
Y0385D01*
X021D02*
X02159D01*
X021Y03739D02*
X02159D01*
Y0385*
X021Y03739D02*
Y0385D01*
X02257Y02728D02*
Y02791D01*
X02367Y02728D02*
Y02791D01*
X02257D02*
X02367D01*
X02257Y02728D02*
X02367D01*
X02298Y03215D02*
X02357D01*
X02298Y03104D02*
X02357D01*
Y03215*
X02298Y03104D02*
Y03215D01*
X02368D02*
X02431D01*
X02368Y03104D02*
X02431D01*
Y03215*
X02368Y03104D02*
Y03215D01*
X02376Y03567D02*
X02439D01*
X02376Y03456D02*
X02439D01*
Y03567*
X02376Y03456D02*
Y03567D01*
X02303Y03593D02*
X02362D01*
X02303Y03703D02*
X02362D01*
X02303Y03593D02*
Y03703D01*
X02362Y03593D02*
Y03703D01*
X02034Y0351D02*
Y03573D01*
X02145Y0351D02*
Y03573D01*
X02034D02*
X02145D01*
X02034Y0351D02*
X02145D01*
X02034Y0344D02*
Y03499D01*
X02145Y0344D02*
Y03499D01*
X02034D02*
X02145D01*
X02034Y0344D02*
X02145D01*
X02423Y04001D02*
X02486D01*
X02423Y03891D02*
X02486D01*
Y04001*
X02423Y03891D02*
Y04001D01*
X025Y03996D02*
X02563D01*
X025Y03886D02*
X02563D01*
Y03996*
X025Y03886D02*
Y03996D01*
X02502Y04146D02*
X02561D01*
X02502Y04036D02*
X02561D01*
Y04146*
X02502Y04036D02*
Y04146D01*
X02422Y04034D02*
X02481D01*
X02422Y04145D02*
X02481D01*
X02422Y04034D02*
Y04145D01*
X02481Y04034D02*
Y04145D01*
X02971Y0323D02*
Y03289D01*
X03082Y0323D02*
Y03289D01*
X02971D02*
X03082D01*
X02971Y0323D02*
X03082D01*
X02971Y03148D02*
Y03211D01*
X03082Y03148D02*
Y03211D01*
X02971D02*
X03082D01*
X02971Y03148D02*
X03082D01*
X03043Y03585D02*
X03106D01*
X03043Y03474D02*
X03106D01*
Y03585*
X03043Y03474D02*
Y03585D01*
X02952D02*
X03011D01*
X02952Y03474D02*
X03011D01*
Y03585*
X02952Y03474D02*
Y03585D01*
X02827Y03702D02*
Y03761D01*
X02717Y03702D02*
Y03761D01*
Y03702D02*
X02827D01*
X02717Y03761D02*
X02827D01*
X02705Y03898D02*
X02768D01*
X02705Y03788D02*
X02768D01*
Y03898*
X02705Y03788D02*
Y03898D01*
X0278D02*
X02843D01*
X0278Y03788D02*
X02843D01*
Y03898*
X0278Y03788D02*
Y03898D01*
X02772Y04036D02*
X02831D01*
X02772Y03926D02*
X02831D01*
Y04036*
X02772Y03926D02*
Y04036D01*
X02707Y03925D02*
X02766D01*
X02707Y04035D02*
X02766D01*
X02707Y03925D02*
Y04035D01*
X02766Y03925D02*
Y04035D01*
X02378Y03702D02*
X02437D01*
X02378Y03591D02*
X02437D01*
Y03702*
X02378Y03591D02*
Y03702D01*
X03362Y03483D02*
Y03766D01*
X03756Y03483D02*
Y03766D01*
X03362Y03483D02*
X03756D01*
X03362Y03766D02*
X03756D01*
X02204Y02239D02*
X02315D01*
X02204Y0218D02*
X02315D01*
X02204D02*
Y02239D01*
X02315Y0218D02*
Y02239D01*
X02204Y02157D02*
X02315D01*
X02204Y02098D02*
X02315D01*
X02204D02*
Y02157D01*
X02315Y02098D02*
Y02157D01*
X02204Y02076D02*
X02315D01*
X02204Y02016D02*
X02315D01*
X02204D02*
Y02076D01*
X02315Y02016D02*
Y02076D01*
X01744Y03274D02*
X01855D01*
X01744Y03215D02*
X01855D01*
X01744D02*
Y03274D01*
X01855Y03215D02*
Y03274D01*
X01744Y03189D02*
X01855D01*
X01744Y0313D02*
X01855D01*
X01744D02*
Y03189D01*
X01855Y0313D02*
Y03189D01*
X01744Y03109D02*
X01855D01*
X01744Y0305D02*
X01855D01*
X01744D02*
Y03109D01*
X01855Y0305D02*
Y03109D01*
X02179Y04214D02*
X0229D01*
X02179Y04155D02*
X0229D01*
X02179D02*
Y04214D01*
X0229Y04155D02*
Y04214D01*
X02176Y04079D02*
X02286D01*
X02176Y0402D02*
X02286D01*
X02176D02*
Y04079D01*
X02286Y0402D02*
Y04079D01*
X02179Y04144D02*
X0229D01*
X02179Y04085D02*
X0229D01*
X02179D02*
Y04144D01*
X0229Y04085D02*
Y04144D01*
X02694Y01975D02*
X02805D01*
X02694Y02034D02*
X02805D01*
Y01975D02*
Y02034D01*
X02694Y01975D02*
Y02034D01*
X0273Y01854D02*
Y01965D01*
X02789Y01854D02*
Y01965D01*
X0273Y01854D02*
X02789D01*
X0273Y01965D02*
X02789D01*
X02829Y0166D02*
X0294D01*
X02829Y01719D02*
X0294D01*
Y0166D02*
Y01719D01*
X02829Y0166D02*
Y01719D01*
X03055Y01729D02*
Y0184D01*
X03114Y01729D02*
Y0184D01*
X03055Y01729D02*
X03114D01*
X03055Y0184D02*
X03114D01*
X03135Y01729D02*
Y0184D01*
X03194Y01729D02*
Y0184D01*
X03135Y01729D02*
X03194D01*
X03135Y0184D02*
X03194D01*
X03215Y01729D02*
Y0184D01*
X03274Y01729D02*
Y0184D01*
X03215Y01729D02*
X03274D01*
X03215Y0184D02*
X03274D01*
X03066Y0169D02*
X03232D01*
X03066Y016D02*
X03232D01*
X03066D02*
Y0169D01*
X03232Y016D02*
Y0169D01*
X03959Y0197D02*
X0407D01*
X03959Y02029D02*
X0407D01*
Y0197D02*
Y02029D01*
X03959Y0197D02*
Y02029D01*
X03989Y021D02*
X041D01*
X03989Y02159D02*
X041D01*
Y021D02*
Y02159D01*
X03989Y021D02*
Y02159D01*
X03994Y02205D02*
X04105D01*
X03994Y02264D02*
X04105D01*
Y02205D02*
Y02264D01*
X03994Y02205D02*
Y02264D01*
X04118Y02061D02*
X04235Y02178D01*
X04182Y01997D02*
X04299Y02114D01*
X04118Y02061D02*
X04182Y01997D01*
X04235Y02178D02*
X04299Y02114D01*
X04608Y03066D02*
Y03232D01*
X04698Y03066D02*
Y03232D01*
X04608Y03066D02*
X04698D01*
X04608Y03232D02*
X04698D01*
X03939Y03962D02*
X0405D01*
X03939Y04021D02*
X0405D01*
Y03962D02*
Y04021D01*
X03939Y03962D02*
Y04021D01*
X03934Y0405D02*
X04045D01*
X03934Y04109D02*
X04045D01*
Y0405D02*
Y04109D01*
X03934Y0405D02*
Y04109D01*
Y04145D02*
X04045D01*
X03934Y04204D02*
X04045D01*
Y04145D02*
Y04204D01*
X03934Y04145D02*
Y04204D01*
X04105Y04222D02*
X04222Y04105D01*
X04169Y04286D02*
X04286Y04169D01*
X04222Y04105D02*
X04286Y04169D01*
X04105Y04222D02*
X04169Y04286D01*
X03104Y04489D02*
Y046D01*
X03045Y04489D02*
Y046D01*
X03104*
X03045Y04489D02*
X03104D01*
X03947Y03509D02*
X04302D01*
X03947Y03084D02*
X04302D01*
Y03509*
X03947Y03084D02*
Y03509D01*
X03254Y04489D02*
Y046D01*
X03195Y04489D02*
Y046D01*
X03254*
X03195Y04489D02*
X03254D01*
X03179D02*
Y046D01*
X0312Y04489D02*
Y046D01*
X03179*
X0312Y04489D02*
X03179D01*
X03066Y04608D02*
X03232D01*
X03066Y04698D02*
X03232D01*
Y04608D02*
Y04698D01*
X03066Y04608D02*
Y04698D01*
X02067Y04115D02*
X02184Y04232D01*
X02003Y04179D02*
X0212Y04296D01*
X02184Y04232*
X02003Y04179D02*
X02067Y04115D01*
X03477Y04012D02*
X03521D01*
X03477Y03922D02*
X03521D01*
Y04012*
X03477Y03922D02*
Y04012D01*
X03499Y03948D02*
Y03986D01*
X0348Y03967D02*
X03518D01*
X03422Y04012D02*
X03466D01*
X03422Y03922D02*
X03466D01*
Y04012*
X03422Y03922D02*
Y04012D01*
X03444Y03948D02*
Y03986D01*
X03425Y03967D02*
X03463D01*
X03277Y03418D02*
Y03528D01*
X03214Y03418D02*
Y03528D01*
X03277*
X03214Y03418D02*
X03277D01*
X0371Y0389D02*
Y03949D01*
X03599Y0389D02*
Y03949D01*
Y0389D02*
X0371D01*
X03599Y03949D02*
X0371D01*
X03905Y0376D02*
Y03819D01*
X03794Y0376D02*
Y03819D01*
Y0376D02*
X03905D01*
X03794Y03819D02*
X03905D01*
X03345Y04111D02*
X03404D01*
X03345Y04001D02*
X03404D01*
Y04111*
X03345Y04001D02*
Y04111D01*
X03558Y04072D02*
X03601D01*
X03558Y04162D02*
X03601D01*
X03558Y04072D02*
Y04162D01*
X03601Y04072D02*
Y04162D01*
X03579Y04098D02*
Y04136D01*
X03561Y04117D02*
X03598D01*
X03542Y03977D02*
X03586D01*
X03542Y03887D02*
X03586D01*
Y03977*
X03542Y03887D02*
Y03977D01*
X03564Y03913D02*
Y03951D01*
X03545Y03932D02*
X03583D01*
X0343Y03373D02*
X03508D01*
X0343Y03236D02*
X03508D01*
Y03373*
X0343Y03236D02*
Y03373D01*
X03608D02*
X03687D01*
X03608Y03236D02*
X03687D01*
Y03373*
X03608Y03236D02*
Y03373D01*
X04464Y0306D02*
X04575D01*
X04464Y03119D02*
X04575D01*
Y0306D02*
Y03119D01*
X04464Y0306D02*
Y03119D01*
Y0314D02*
X04575D01*
X04464Y03199D02*
X04575D01*
Y0314D02*
Y03199D01*
X04464Y0314D02*
Y03199D01*
Y03215D02*
X04575D01*
X04464Y03274D02*
X04575D01*
Y03215D02*
Y03274D01*
X04464Y03215D02*
Y03274D01*
X016Y03066D02*
X0169D01*
X016Y03232D02*
X0169D01*
X016Y03066D02*
Y03232D01*
X0169Y03066D02*
Y03232D01*
M02*