%FSTAX23Y23*%
%MOIN*%
%SFA1B1*%

%IPPOS*%
%ADD10C,0.009840*%
%ADD11C,0.007870*%
%ADD12C,0.003000*%
%ADD13C,0.007000*%
%LNspeakeasy_audio-1*%
%LPD*%
G36*
X0383Y02823D02*
X03831D01*
X03833Y02823*
X03836Y02822*
X0384Y02822*
X03844Y02821*
X03849Y0282*
X03853Y02818*
X03857Y02816*
X03857*
X03858Y02816*
X0386Y02815*
X03863Y02813*
X03867Y0281*
X03872Y02807*
X03877Y02802*
X03881Y02797*
X03886Y02791*
Y0279*
X03886Y0279*
X03888Y02788*
X03889Y02785*
X03891Y02781*
X03893Y02777*
X03893Y02773*
Y0277*
X03892Y02768*
X03891Y02767*
X0389Y02766*
X03889Y02765*
X03886Y02764*
X03884*
X03882Y02765*
X03882*
X03881Y02765*
X03879Y02767*
X03876Y02769*
X03875Y02771*
X03873Y02773*
X03873Y02773*
X03873Y02774*
X03871Y02776*
X0387Y02777*
X03866Y02782*
X03861Y02787*
X03855Y02793*
X03847Y02797*
X03843Y028*
X03838Y02801*
X03834Y02802*
X03829Y02803*
X03824*
X03821Y02802*
X03819Y02801*
X03812Y028*
X03809Y02799*
X03805Y02797*
X03801Y02795*
X03797Y02793*
X03793Y0279*
X03789Y02786*
X03785Y02782*
X03781Y02777*
X03781Y02777*
X0378Y02776*
X03779Y02774*
X03777Y02772*
X03773Y02767*
X0377Y02766*
X03769Y02764*
X03768*
X03768Y02764*
X03766Y02764*
X03764Y02764*
X03763Y02764*
X03761Y02765*
X0376Y02766*
X0376Y02767*
X03759Y02768*
X03758Y0277*
X03758Y02773*
Y02777*
X03759Y02781*
X0376Y02784*
X03762Y02787*
X03764Y0279*
X03767Y02794*
X03767Y02794*
X03767Y02794*
X03769Y02797*
X03773Y028*
X03777Y02804*
X03782Y02809*
X03789Y02813*
X03796Y02817*
X03803Y0282*
X03803*
X03805Y02821*
X03807Y02821*
X0381Y02822*
X03814Y02823*
X03819Y02823*
X03824Y02823*
X0383Y02823*
G37*
G36*
X03832Y02751D02*
X03837Y0275D01*
X03841Y02749*
X03847Y02746*
X03851Y02743*
X03856Y02737*
X03856Y02737*
X03857Y02736*
X03857Y02735*
X03859Y02733*
X0386Y02729*
X03861Y02727*
Y02725*
Y02725*
Y02724*
X0386Y02722*
X03859Y02721*
X03859Y0272*
X03857Y02719*
X03855Y02717*
X03854Y02717*
X03853Y02717*
X03849*
X03848Y02717*
X03847Y02718*
X03844Y0272*
X03842Y02722*
X0384Y02724*
X0384Y02724*
X03839Y02725*
X03837Y02726*
X03834Y02728*
X03832Y02729*
X03829Y02731*
X03827Y02731*
X03824Y02732*
X03823*
X03822Y02731*
X03821Y02731*
X03819Y0273*
X03817Y02729*
X03814Y02727*
X03812Y02724*
X03811Y02724*
X03811Y02723*
X0381Y02722*
X03808Y0272*
X03805Y02718*
X03803Y02717*
X03802Y02716*
X038*
X03797Y02717*
X03795Y02718*
X03794Y02719*
X03793Y0272*
X03792Y02721*
X03791Y02724*
X0379Y02726*
Y02727*
X03791Y02729*
X03792Y02732*
X03793Y02734*
X03794Y02737*
X03795Y02737*
X03796Y02739*
X03799Y02741*
X03802Y02744*
X03806Y02747*
X03811Y0275*
X03817Y02751*
X03825Y02752*
X03828*
X03832Y02751*
G37*
G36*
X03932Y0279D02*
X03933Y02789D01*
X03934Y02788*
X03934Y02787*
X03934Y02786*
X03933Y02785*
X03933Y02784*
X03932Y02783*
X03931Y02781*
X0393Y02778*
X03927Y02775*
X03925Y02771*
X03924Y02771*
X03924Y0277*
X03923Y02768*
X03921Y02766*
X03919Y02762*
X03918Y0276*
X03917Y02759*
Y02758*
X03917Y02757*
Y02754*
X03918Y02752*
X03918Y02752*
X03918Y0275*
X03919Y02748*
X0392Y02746*
X0392Y02742*
Y02739*
X0392Y02735*
X03918Y02731*
X03918Y02731*
X03917Y0273*
X03916Y02729*
X03914Y02727*
X03912Y02725*
X03909Y02723*
X03905Y02721*
X03901Y0272*
X03891Y02719*
X03891Y02709*
Y02709*
Y02708*
Y02706*
Y02703*
X03891Y027*
Y02699*
X0389Y02698*
X03889Y02696*
X03888Y02694*
X03887Y02693*
X03886Y02692*
X03886Y0269*
Y0269*
X03887Y02689*
X03899*
X03904Y0269*
X03913*
X03916Y02689*
X03919Y02689*
X03921Y02688*
X03921Y02688*
X03922Y02687*
X03921Y02686*
X03921Y02685*
X0392Y02683*
X03917Y0268*
X03914Y02676*
X03912Y02673*
X0391Y0267*
X03907Y02667*
X03904Y02663*
X03904Y02663*
X03903Y02662*
X03901Y0266*
X039Y02658*
X03898Y02656*
X03895Y02653*
X0389Y02647*
X0389Y02646*
X03889Y02645*
X03887Y02644*
X03886Y02642*
X03883Y02638*
X03881Y02636*
X03879Y02634*
X0387Y02623*
Y02555*
X03833*
X03834Y02477*
X03842Y02475*
X03843Y02474*
X03845Y02474*
X03846Y02473*
X03848Y02473*
X03851Y02472*
X03853Y02471*
X03854*
X03855Y0247*
X03856Y0247*
X03859Y02469*
X03863Y02468*
X03869Y02466*
X0387*
X03871Y02466*
X03872Y02466*
X03874Y02465*
X03879Y02463*
X03883Y02462*
X03884*
X03884Y02462*
X03887Y02461*
X03889Y0246*
X0389Y02459*
X0389Y02459*
X0389Y02459*
X03889*
X03886Y02458*
X03883*
X03881Y02458*
X03879*
X03876Y02457*
X03867*
X03865Y02457*
X03852*
X03844Y02457*
X03809*
X03801Y02457*
X03785*
X03777Y02457*
X03774*
X03771Y02458*
X03767*
X03763Y02458*
X0376Y02459*
X03758*
X03757Y02459*
X03757*
X03757Y02459*
X03758Y0246*
X03759Y0246*
X03761Y02461*
X03763Y02462*
X03766Y02463*
X03766*
X03767Y02463*
X03769Y02464*
X03771Y02465*
X03774Y02465*
X03778Y02466*
X03782Y02467*
X03786Y02469*
X03816Y02477*
Y02555*
X03778*
Y02622*
X0375Y02654*
X03749Y02655*
X03748Y02656*
X03746Y02659*
X03743Y02662*
X0374Y02666*
X03736Y0267*
X0373Y02677*
X03729Y02678*
X03729Y02679*
X03727Y02681*
X03726Y02683*
X03724Y02684*
X03723Y02686*
X03722Y02687*
X03721Y02688*
X03722*
X03723Y02688*
X03724*
X03727Y02689*
X03733*
X03736Y02689*
X03754*
X03757Y02689*
X03841*
X03846Y0269*
X03857*
X03859Y0269*
X0386Y0269*
X03862Y02691*
X03863Y02691*
X03864Y02692*
Y02693*
Y02694*
X03864Y02695*
X03864Y02696*
X03863Y02699*
Y02699*
X03863Y02701*
X03862Y02703*
X03861Y02705*
Y02705*
Y02706*
Y02707*
X03862Y02709*
X03863Y02712*
X03864Y02714*
X03865Y02716*
X03866Y02716*
X03866Y02717*
X03867Y02717*
X03869Y02719*
X03872Y0272*
X03874Y0272*
X03877Y02721*
X03878*
X0388Y02721*
X03883Y02721*
X03884Y02722*
X03885Y02722*
X03885Y02723*
Y02724*
X03885Y02725*
X03884Y02727*
X03883Y02728*
Y02729*
X03883Y02729*
X03882Y0273*
X03881Y02732*
X0388Y02736*
X0388Y02741*
Y02741*
Y02743*
X0388Y02744*
X0388Y02746*
X03882Y0275*
X03884Y02754*
X03884Y02754*
X03886Y02755*
X03887Y02757*
X0389Y02758*
X03891Y02759*
X03893Y02759*
X03896Y0276*
X03899Y0276*
X039*
X03902Y02761*
X03903Y02761*
X03907Y02762*
X03908Y02763*
X0391Y02763*
X0391Y02764*
X03911Y02765*
X03912Y02766*
X03913Y02768*
X03915Y0277*
X03917Y02773*
X03919Y02777*
X03919Y02777*
X0392Y02778*
X0392Y02779*
X03921Y02781*
X03924Y02784*
X03926Y02787*
X03927Y02788*
X03928Y02789*
X0393Y0279*
X03931*
X03932Y0279*
G37*
G36*
X0266Y04483D02*
X02655D01*
Y04488*
X0266*
Y04483*
G37*
G36*
X02579D02*
X02574D01*
Y04488*
X02579*
Y04483*
G37*
G36*
X02689Y0445D02*
X02685D01*
Y04453*
X02685Y04453*
X02685Y04453*
X02685Y04453*
X02684Y04452*
X02684Y04452*
X02684Y04452*
X02683Y04451*
X02683Y04451*
X02682Y04451*
X02682Y0445*
X02681Y0445*
X0268Y0445*
X0268Y04449*
X02679Y04449*
X02678Y04449*
X02677Y04449*
X02677*
X02677Y04449*
X02676Y04449*
X02675Y04449*
X02674Y04449*
X02673Y0445*
X02672Y0445*
X02671Y04451*
X02671*
X02671Y04451*
X02671Y04451*
X0267Y04452*
X02669Y04452*
X02669Y04453*
X02668Y04454*
X02667Y04455*
X02667Y04456*
Y04456*
X02667Y04456*
X02667Y04456*
X02666Y04456*
X02666Y04457*
X02666Y04457*
X02666Y04457*
X02666Y04458*
X02666Y04459*
X02665Y0446*
X02665Y04462*
X02665Y04463*
Y04463*
Y04464*
Y04464*
Y04464*
X02665Y04464*
Y04465*
X02665Y04466*
X02666Y04467*
X02666Y04468*
X02666Y0447*
X02667Y04471*
Y04471*
X02667Y04471*
X02667Y04471*
X02667Y04471*
X02667Y04472*
X02668Y04473*
X02668Y04474*
X02669Y04475*
X0267Y04475*
X02671Y04476*
X02671*
X02671Y04476*
X02671Y04476*
X02671Y04476*
X02672Y04477*
X02673Y04477*
X02673Y04477*
X02675Y04478*
X02676Y04478*
X02677Y04478*
X02677*
X02678Y04478*
X02678Y04478*
X02679Y04478*
X0268Y04478*
X02681Y04477*
X02681Y04477*
X02681Y04477*
X02682Y04477*
X02682Y04476*
X02682Y04476*
X02683Y04476*
X02684Y04475*
X02684Y04475*
X02685Y04474*
Y04488*
X02689*
Y0445*
G37*
G36*
X02785Y04478D02*
X02785Y04478D01*
X02786Y04478*
X02787Y04478*
X02788Y04477*
X02789Y04477*
X0279Y04476*
X0279*
X0279Y04476*
X02791Y04476*
X02791Y04475*
X02792Y04475*
X02792Y04474*
X02793Y04473*
X02794Y04472*
X02794Y04471*
Y04471*
X02794Y04471*
X02794Y04471*
X02794Y0447*
X02794Y0447*
X02795Y0447*
X02795Y04469*
X02795Y04468*
X02795Y04466*
X02796Y04465*
X02796Y04464*
Y04464*
Y04463*
Y04463*
Y04463*
X02796Y04462*
Y04462*
X02795Y04461*
X02795Y0446*
X02795Y04459*
X02795Y04457*
X02794Y04456*
Y04456*
X02794Y04456*
X02794Y04456*
X02794Y04455*
X02793Y04455*
X02793Y04454*
X02792Y04453*
X02792Y04452*
X02791Y04451*
X0279Y04451*
X0279*
X02789Y04451*
X02789Y04451*
X02789Y0445*
X02789Y0445*
X02788Y0445*
X02787Y04449*
X02786Y04449*
X02785Y04449*
X02783Y04449*
X02783*
X02783Y04449*
X02782Y04449*
X02781Y04449*
X02781Y04449*
X0278Y0445*
X02779Y0445*
X02779Y0445*
X02779Y0445*
X02779Y0445*
X02778Y04451*
X02778Y04451*
X02777Y04451*
X02777Y04452*
X02776Y04452*
Y04439*
X02771*
Y04477*
X02776*
Y04474*
X02776Y04474*
X02776Y04474*
X02776Y04474*
X02777Y04475*
X02777Y04475*
X02778Y04476*
X02778Y04476*
X02779Y04477*
X02779Y04477*
X02779Y04477*
X0278Y04477*
X0278Y04477*
X02781Y04478*
X02782Y04478*
X02783Y04478*
X02784Y04478*
X02784*
X02785Y04478*
G37*
G36*
X02638D02*
X02639Y04478D01*
X0264Y04478*
X02641Y04478*
X02642Y04477*
X02643Y04477*
X02643*
X02643Y04477*
X02643Y04477*
X02644Y04477*
X02644Y04476*
X02645Y04476*
X02646Y04475*
X02646Y04475*
X02647Y04474*
X02647Y04474*
X02647Y04474*
X02647Y04474*
X02647Y04473*
X02648Y04473*
X02648Y04472*
X02648Y04471*
X02648Y0447*
X02644Y0447*
Y0447*
X02644Y0447*
X02644Y0447*
X02643Y04471*
X02643Y04471*
X02643Y04472*
X02642Y04472*
X02642Y04473*
X02642Y04473*
X02642Y04473*
X02641Y04473*
X02641Y04473*
X0264Y04474*
X02639Y04474*
X02639Y04474*
X02638Y04474*
X02637*
X02637Y04474*
X02636Y04474*
X02635Y04474*
X02634Y04474*
X02634Y04473*
X02633Y04473*
X02633Y04473*
X02633Y04473*
X02633Y04473*
X02632Y04472*
X02632Y04472*
X02632Y04471*
X02632Y04471*
X02632Y0447*
Y0447*
Y0447*
X02632Y0447*
Y0447*
X02632Y04469*
X02632Y04469*
X02632Y04469*
X02632Y04469*
X02632Y04469*
X02633Y04468*
X02633Y04468*
X02633Y04468*
X02634Y04468*
X02634Y04468*
X02634*
X02634Y04468*
X02634Y04467*
X02635Y04467*
X02635Y04467*
X02636Y04467*
X02636Y04467*
X02637Y04467*
X02638Y04467*
X02638Y04466*
X02638*
X02638Y04466*
X02639Y04466*
X02639Y04466*
X02639Y04466*
X0264Y04466*
X02641Y04466*
X02642Y04465*
X02643Y04465*
X02644Y04464*
X02645Y04464*
X02645Y04464*
X02645Y04464*
X02645Y04464*
X02646Y04464*
X02646Y04464*
X02647Y04463*
X02647Y04463*
X02648Y04462*
X02648Y04462*
X02648Y04462*
X02648Y04461*
X02649Y04461*
X02649Y04461*
X02649Y0446*
X02649Y04459*
X02649Y04459*
X02649Y04458*
Y04458*
Y04457*
X02649Y04457*
X02649Y04456*
X02649Y04456*
X02649Y04455*
X02648Y04454*
X02648Y04453*
X02648Y04453*
X02648Y04453*
X02647Y04453*
X02647Y04452*
X02646Y04452*
X02646Y04451*
X02645Y04451*
X02644Y0445*
X02644*
X02644Y0445*
X02644Y0445*
X02643Y0445*
X02642Y04449*
X02641Y04449*
X0264Y04449*
X02639Y04449*
X02638Y04449*
X02638*
X02637Y04449*
X02637*
X02636Y04449*
X02636Y04449*
X02635Y04449*
X02634Y04449*
X02632Y0445*
X02631Y0445*
X0263Y04451*
X0263Y04451*
X0263Y04451*
X0263Y04451*
X02629Y04452*
X02629Y04452*
X02628Y04453*
X02628Y04454*
X02627Y04455*
X02627Y04456*
X02626Y04458*
X02631Y04459*
Y04458*
Y04458*
X02631Y04458*
X02631Y04458*
X02631Y04457*
X02632Y04456*
X02632Y04456*
X02632Y04455*
X02633Y04454*
X02633Y04454*
X02633Y04454*
X02634Y04454*
X02634Y04454*
X02635Y04453*
X02636Y04453*
X02637Y04453*
X02638Y04453*
X02639*
X02639Y04453*
X0264Y04453*
X02641Y04453*
X02642Y04453*
X02642Y04454*
X02643Y04454*
X02643Y04454*
X02643Y04454*
X02643Y04455*
X02644Y04455*
X02644Y04455*
X02644Y04456*
X02645Y04456*
X02645Y04457*
Y04457*
Y04457*
X02645Y04458*
X02644Y04458*
X02644Y04458*
X02644Y04459*
X02644Y04459*
X02643Y0446*
X02643Y0446*
X02643Y0446*
X02643Y0446*
X02642Y0446*
X02642Y0446*
X02641Y0446*
X02641Y04461*
X0264Y04461*
X0264Y04461*
X02639Y04461*
X02638Y04461*
X02638*
X02638Y04461*
X02638Y04461*
X02637Y04461*
X02637Y04462*
X02637Y04462*
X02635Y04462*
X02634Y04462*
X02633Y04463*
X02632Y04463*
X02631Y04463*
X02631Y04464*
X02631Y04464*
X02631Y04464*
X0263Y04464*
X0263Y04464*
X02629Y04465*
X02629Y04465*
X02628Y04466*
X02628Y04466*
X02628Y04466*
X02628Y04466*
X02628Y04467*
X02628Y04467*
X02627Y04468*
X02627Y04468*
X02627Y04469*
X02627Y0447*
Y0447*
Y0447*
X02627Y04471*
X02627Y04471*
X02627Y04472*
X02627Y04472*
X02628Y04473*
X02628Y04473*
X02628Y04473*
X02628Y04474*
X02628Y04474*
X02628Y04474*
X02629Y04475*
X02629Y04475*
X0263Y04476*
X0263Y04476*
X0263Y04476*
X0263Y04476*
X02631Y04476*
X02631Y04476*
X02631Y04477*
X02632Y04477*
X02633Y04477*
X02633Y04477*
X02633Y04477*
X02634Y04477*
X02634Y04478*
X02634Y04478*
X02635Y04478*
X02636Y04478*
X02636Y04478*
X02638*
X02638Y04478*
G37*
G36*
X02597D02*
X02597Y04478D01*
X02598Y04478*
X02599Y04478*
X026Y04477*
X02601Y04477*
X02601*
X02601Y04477*
X02602Y04477*
X02602Y04477*
X02603Y04476*
X02603Y04476*
X02604Y04475*
X02604Y04475*
X02605Y04474*
X02605Y04474*
X02605Y04474*
X02605Y04474*
X02606Y04473*
X02606Y04473*
X02606Y04472*
X02606Y04471*
X02607Y0447*
X02602Y0447*
Y0447*
X02602Y0447*
X02602Y0447*
X02602Y04471*
X02601Y04471*
X02601Y04472*
X02601Y04472*
X026Y04473*
X026Y04473*
X026Y04473*
X02599Y04473*
X02599Y04473*
X02598Y04474*
X02598Y04474*
X02597Y04474*
X02596Y04474*
X02595*
X02595Y04474*
X02594Y04474*
X02593Y04474*
X02593Y04474*
X02592Y04473*
X02591Y04473*
X02591Y04473*
X02591Y04473*
X02591Y04473*
X02591Y04472*
X0259Y04472*
X0259Y04471*
X0259Y04471*
X0259Y0447*
Y0447*
Y0447*
X0259Y0447*
Y0447*
X0259Y04469*
X0259Y04469*
X0259Y04469*
X0259Y04469*
X02591Y04469*
X02591Y04468*
X02591Y04468*
X02591Y04468*
X02592Y04468*
X02592Y04468*
X02592*
X02592Y04468*
X02593Y04467*
X02593Y04467*
X02594Y04467*
X02594Y04467*
X02595Y04467*
X02595Y04467*
X02596Y04467*
X02596Y04466*
X02596*
X02597Y04466*
X02597Y04466*
X02597Y04466*
X02598Y04466*
X02598Y04466*
X02599Y04466*
X026Y04465*
X02601Y04465*
X02603Y04464*
X02603Y04464*
X02603Y04464*
X02603Y04464*
X02604Y04464*
X02604Y04464*
X02605Y04464*
X02605Y04463*
X02606Y04463*
X02606Y04462*
X02606Y04462*
X02607Y04462*
X02607Y04461*
X02607Y04461*
X02607Y04461*
X02607Y0446*
X02607Y04459*
X02608Y04459*
X02608Y04458*
Y04458*
Y04457*
X02608Y04457*
X02607Y04456*
X02607Y04456*
X02607Y04455*
X02607Y04454*
X02606Y04453*
X02606Y04453*
X02606Y04453*
X02606Y04453*
X02605Y04452*
X02605Y04452*
X02604Y04451*
X02603Y04451*
X02602Y0445*
X02602*
X02602Y0445*
X02602Y0445*
X02601Y0445*
X02601Y04449*
X026Y04449*
X02599Y04449*
X02598Y04449*
X02596Y04449*
X02596*
X02595Y04449*
X02595*
X02594Y04449*
X02594Y04449*
X02593Y04449*
X02592Y04449*
X02591Y0445*
X02589Y0445*
X02589Y04451*
X02588Y04451*
X02588Y04451*
X02588Y04451*
X02588Y04452*
X02587Y04452*
X02587Y04453*
X02586Y04454*
X02585Y04455*
X02585Y04456*
X02584Y04458*
X02589Y04459*
Y04458*
Y04458*
X02589Y04458*
X02589Y04458*
X0259Y04457*
X0259Y04456*
X0259Y04456*
X02591Y04455*
X02591Y04454*
X02591Y04454*
X02592Y04454*
X02592Y04454*
X02593Y04454*
X02593Y04453*
X02594Y04453*
X02595Y04453*
X02596Y04453*
X02597*
X02597Y04453*
X02598Y04453*
X02599Y04453*
X026Y04453*
X02601Y04454*
X02601Y04454*
X02601Y04454*
X02601Y04454*
X02602Y04455*
X02602Y04455*
X02602Y04455*
X02603Y04456*
X02603Y04456*
X02603Y04457*
Y04457*
Y04457*
X02603Y04458*
X02603Y04458*
X02602Y04458*
X02602Y04459*
X02602Y04459*
X02601Y0446*
X02601Y0446*
X02601Y0446*
X02601Y0446*
X026Y0446*
X026Y0446*
X02599Y0446*
X02599Y04461*
X02598Y04461*
X02598Y04461*
X02597Y04461*
X02597Y04461*
X02596*
X02596Y04461*
X02596Y04461*
X02596Y04461*
X02595Y04462*
X02595Y04462*
X02594Y04462*
X02592Y04462*
X02591Y04463*
X0259Y04463*
X0259Y04463*
X02589Y04464*
X02589Y04464*
X02589Y04464*
X02589Y04464*
X02588Y04464*
X02588Y04465*
X02587Y04465*
X02587Y04466*
X02586Y04466*
X02586Y04466*
X02586Y04466*
X02586Y04467*
X02586Y04467*
X02586Y04468*
X02585Y04468*
X02585Y04469*
X02585Y0447*
Y0447*
Y0447*
X02585Y04471*
X02585Y04471*
X02585Y04472*
X02586Y04472*
X02586Y04473*
X02586Y04473*
X02586Y04473*
X02586Y04474*
X02586Y04474*
X02587Y04474*
X02587Y04475*
X02587Y04475*
X02588Y04476*
X02588Y04476*
X02588Y04476*
X02589Y04476*
X02589Y04476*
X02589Y04476*
X0259Y04477*
X0259Y04477*
X02591Y04477*
X02591Y04477*
X02592Y04477*
X02592Y04477*
X02592Y04478*
X02593Y04478*
X02593Y04478*
X02594Y04478*
X02595Y04478*
X02596*
X02597Y04478*
G37*
G36*
X02764Y0445D02*
X0276D01*
Y04454*
X0276Y04454*
X0276Y04453*
X0276Y04453*
X02759Y04453*
X02759Y04453*
X02759Y04452*
X02758Y04452*
X02758Y04451*
X02757Y04451*
X02756Y0445*
X02756Y0445*
X02755Y0445*
X02754Y04449*
X02753Y04449*
X02752Y04449*
X02751Y04449*
X02751*
X0275Y04449*
X02749Y04449*
X02749Y04449*
X02748Y04449*
X02747Y0445*
X02746Y0445*
X02746Y0445*
X02746Y0445*
X02746Y0445*
X02745Y04451*
X02745Y04451*
X02744Y04451*
X02744Y04452*
X02743Y04452*
X02743Y04452*
X02743Y04452*
X02743Y04453*
X02743Y04453*
X02742Y04454*
X02742Y04454*
X02742Y04455*
X02742Y04456*
Y04456*
X02742Y04456*
X02742Y04456*
Y04457*
X02742Y04457*
X02742Y04458*
X02741Y04459*
Y0446*
Y04477*
X02746*
Y04462*
Y04462*
Y04462*
Y04462*
Y04461*
Y04461*
X02746Y0446*
Y04459*
X02746Y04458*
X02746Y04457*
X02746Y04457*
Y04457*
X02747Y04457*
X02747Y04456*
X02747Y04456*
X02747Y04455*
X02747Y04455*
X02748Y04454*
X02748Y04454*
X02748Y04454*
X02749Y04454*
X02749Y04454*
X02749Y04454*
X0275Y04453*
X0275Y04453*
X02751Y04453*
X02752Y04453*
X02752*
X02753Y04453*
X02753Y04453*
X02754Y04453*
X02754Y04453*
X02755Y04454*
X02756Y04454*
X02756Y04454*
X02756Y04454*
X02757Y04454*
X02757Y04455*
X02757Y04455*
X02758Y04456*
X02758Y04456*
X02759Y04457*
X02759Y04457*
X02759Y04457*
X02759Y04458*
X02759Y04458*
X02759Y04459*
X02759Y0446*
X02759Y04461*
X02759Y04462*
Y04477*
X02764*
Y0445*
G37*
G36*
X0266D02*
X02655D01*
Y04477*
X0266*
Y0445*
G37*
G36*
X02579D02*
X02574D01*
Y04477*
X02579*
Y0445*
G37*
G36*
X02549Y04474D02*
X02549Y04474D01*
X02549Y04474*
X0255Y04474*
X0255Y04475*
X0255Y04475*
X02551Y04475*
X02551Y04476*
X02552Y04476*
X02552Y04476*
X02553Y04477*
X02554Y04477*
X02555Y04478*
X02556Y04478*
X02557Y04478*
X02558Y04478*
X02558*
X02559Y04478*
X02559Y04478*
X0256Y04478*
X02561Y04477*
X02562Y04477*
X02563Y04477*
X02563Y04477*
X02563Y04477*
X02564Y04476*
X02564Y04476*
X02565Y04475*
X02565Y04475*
X02566Y04474*
X02566Y04473*
X02566Y04473*
X02566Y04473*
X02567Y04472*
X02567Y04472*
X02567Y04471*
X02567Y0447*
X02567Y04469*
X02567Y04467*
Y0445*
X02562*
Y04467*
Y04467*
Y04467*
Y04467*
Y04468*
X02562Y04468*
X02562Y04469*
X02562Y0447*
X02562Y04471*
X02561Y04472*
X02561Y04472*
X02561Y04472*
X02561Y04473*
X0256Y04473*
X0256Y04473*
X02559Y04473*
X02558Y04474*
X02558Y04474*
X02557Y04474*
X02556*
X02556Y04474*
X02555Y04474*
X02555Y04474*
X02554Y04473*
X02553Y04473*
X02553Y04473*
X02553Y04473*
X02552Y04473*
X02552Y04472*
X02552Y04472*
X02551Y04472*
X02551Y04471*
X0255Y0447*
X0255Y0447*
X0255Y0447*
X0255Y04469*
X0255Y04469*
X0255Y04468*
X0255Y04468*
X02549Y04467*
X02549Y04466*
X02549Y04465*
Y0445*
X02545*
Y04488*
X02549*
Y04474*
G37*
G36*
X0254Y04483D02*
X02527D01*
Y0445*
X02522*
Y04483*
X0251*
Y04488*
X0254*
Y04483*
G37*
G36*
X02709Y04478D02*
X0271Y04478D01*
X0271Y04478*
X02711Y04478*
X02711Y04477*
X02712Y04477*
X02713Y04477*
X02714Y04477*
X02714Y04476*
X02715Y04476*
X02716Y04475*
X02717Y04475*
X02717Y04474*
X02717Y04474*
X02718Y04474*
X02718Y04474*
X02718Y04473*
X02718Y04473*
X02718Y04473*
X02719Y04472*
X02719Y04471*
X02719Y04471*
X0272Y0447*
X0272Y04469*
X0272Y04468*
X02721Y04467*
X02721Y04466*
X02721Y04465*
X02721Y04463*
Y04463*
Y04463*
Y04463*
X02721Y04462*
X027*
Y04462*
Y04462*
X027Y04462*
Y04461*
X027Y04461*
X027Y04461*
X027Y0446*
X02701Y04458*
X02701Y04457*
X02702Y04456*
X02703Y04455*
X02703*
X02703Y04455*
X02703Y04455*
X02704Y04454*
X02704Y04454*
X02705Y04454*
X02706Y04453*
X02707Y04453*
X02708Y04453*
X02708Y04453*
X02709*
X02709Y04453*
X0271Y04453*
X02711Y04453*
X02711Y04453*
X02712Y04454*
X02713Y04454*
X02713Y04454*
X02713Y04454*
X02714Y04455*
X02714Y04455*
X02714Y04456*
X02715Y04457*
X02715Y04457*
X02716Y04458*
X02721Y04458*
Y04458*
X02721Y04458*
X02721Y04457*
X02721Y04457*
X0272Y04457*
X0272Y04456*
X0272Y04455*
X02719Y04454*
X02718Y04453*
X02718Y04452*
X02716Y04451*
X02716*
X02716Y04451*
X02716Y04451*
X02716Y04451*
X02716Y04451*
X02715Y04451*
X02715Y0445*
X02714Y0445*
X02714Y0445*
X02713Y0445*
X02712Y04449*
X0271Y04449*
X02708Y04449*
X02708*
X02707Y04449*
X02707Y04449*
X02706Y04449*
X02706Y04449*
X02705Y04449*
X02703Y0445*
X02703Y0445*
X02702Y0445*
X02701Y04451*
X027Y04451*
X02699Y04452*
X02699Y04453*
X02699Y04453*
X02699Y04453*
X02698Y04453*
X02698Y04453*
X02698Y04454*
X02698Y04454*
X02697Y04455*
X02697Y04455*
X02697Y04456*
X02696Y04457*
X02696Y04458*
X02696Y04459*
X02696Y0446*
X02695Y04461*
X02695Y04462*
X02695Y04463*
Y04463*
Y04463*
Y04464*
X02695Y04464*
X02695Y04465*
X02695Y04466*
X02695Y04466*
X02696Y04467*
X02696Y04469*
X02696Y0447*
X02697Y04471*
X02697Y04472*
X02698Y04472*
X02698Y04473*
X02699Y04474*
X02699Y04474*
X02699Y04474*
X02699Y04474*
X02699Y04475*
X027Y04475*
X027Y04475*
X02701Y04476*
X02701Y04476*
X02702Y04476*
X02703Y04477*
X02703Y04477*
X02704Y04477*
X02705Y04478*
X02706Y04478*
X02707Y04478*
X02708Y04478*
X02709*
X02709Y04478*
G37*
%LNspeakeasy_audio-2*%
%LPC*%
G36*
X03824Y02677D02*
X03789D01*
X03783Y02677*
X03777*
X03771Y02676*
X03767*
X03764Y02676*
X03762*
X0376Y02676*
X03759*
X03758Y02675*
X03759Y02674*
X0376Y02673*
X03762Y02672*
X03763Y02672*
X03764Y0267*
X03767Y02669*
X0377Y02667*
X0377*
X03771Y02666*
X03773Y02665*
X03774Y02664*
X03778Y02663*
X03783Y02661*
X03784*
X03786Y02661*
X03793*
X03799Y0266*
X03826*
X03831Y02661*
X0384*
X03842Y02661*
X03843*
X03844Y02662*
X03846Y02662*
X03849Y02663*
X0385Y02664*
X03851Y02666*
X03851Y02666*
X03852Y02667*
X03853Y02668*
X03853Y0267*
Y0267*
Y02671*
Y02672*
X03853Y02673*
Y02673*
X03852Y02674*
X03852Y02674*
X03854*
X03854Y02674*
X03856Y02673*
X03856*
X03856Y02674*
X03857Y02675*
Y02675*
X03857*
X03856Y02676*
X03855*
X03853Y02676*
X0385Y02676*
X03843*
X0384Y02677*
X03831*
X03824Y02677*
G37*
G36*
X03888D02*
X03874D01*
X0387Y02677*
X03869Y02676*
X03867Y02676*
X03867Y02676*
X03866Y02675*
X03864Y02673*
X03861Y0267*
X03861Y0267*
X03861Y02669*
X03859Y02666*
X03857Y02663*
X03857Y02662*
Y02662*
X03858Y02661*
X03859Y02661*
X03864*
X03865Y02661*
X03867Y02662*
X03871Y02663*
X03871*
X03871Y02664*
X03874Y02665*
X03876Y02667*
X03879Y02669*
X03879*
X03888Y02677*
G37*
G36*
X02677Y04474D02*
X02677D01*
X02677Y04474*
X02676Y04474*
X02676Y04474*
X02675Y04473*
X02674Y04473*
X02673Y04472*
X02673Y04472*
X02672Y04471*
Y04471*
X02672Y04471*
X02672Y04471*
X02672Y04471*
X02672Y04471*
X02671Y0447*
X02671Y0447*
X02671Y0447*
X02671Y04469*
X02671Y04468*
X02671Y04468*
X0267Y04467*
X0267Y04466*
X0267Y04465*
X0267Y04464*
Y04463*
Y04463*
Y04463*
Y04463*
X0267Y04462*
Y04462*
X0267Y04462*
X0267Y0446*
X02671Y04459*
X02671Y04458*
X02672Y04456*
X02672Y04456*
X02672Y04455*
X02672*
X02672Y04455*
X02673Y04455*
X02673Y04455*
X02674Y04454*
X02675Y04454*
X02675Y04453*
X02676Y04453*
X02677Y04453*
X02678Y04453*
X02678*
X02678Y04453*
X02679Y04453*
X02679Y04453*
X0268Y04453*
X02681Y04454*
X02682Y04454*
X02682Y04455*
X02683Y04455*
Y04455*
X02683Y04455*
X02683Y04456*
X02683Y04456*
X02683Y04456*
X02684Y04456*
X02684Y04457*
X02684Y04457*
X02684Y04458*
X02684Y04458*
X02685Y04459*
X02685Y0446*
X02685Y0446*
X02685Y04461*
X02685Y04462*
Y04463*
Y04463*
Y04463*
Y04464*
X02685Y04464*
Y04464*
X02685Y04465*
X02685Y04466*
X02685Y04466*
X02684Y04468*
X02684Y04469*
X02684Y0447*
X02683Y04471*
X02683Y04471*
Y04471*
X02683Y04471*
X02682Y04472*
X02682Y04472*
X02681Y04473*
X02681Y04473*
X0268Y04474*
X02679Y04474*
X02678Y04474*
X02677Y04474*
G37*
G36*
X02783Y04474D02*
X02783D01*
X02783Y04474*
X02782Y04474*
X02782Y04474*
X02781Y04474*
X0278Y04473*
X02779Y04473*
X02779Y04472*
X02778Y04472*
X02778Y04471*
Y04471*
X02778Y04471*
X02778Y04471*
X02778Y04471*
X02778Y04471*
X02777Y0447*
X02777Y0447*
X02777Y04469*
X02777Y04469*
X02776Y04468*
X02776Y04468*
X02776Y04467*
X02776Y04466*
X02776Y04465*
X02776Y04464*
Y04463*
Y04463*
Y04463*
Y04463*
X02776Y04462*
Y04462*
X02776Y04461*
X02776Y0446*
X02776Y04459*
X02777Y04458*
X02777Y04456*
X02778Y04456*
X02778Y04455*
X02778Y04455*
X02778Y04455*
X02779Y04455*
X02779Y04454*
X0278Y04454*
X02781Y04453*
X02782Y04453*
X02783Y04453*
X02783Y04453*
X02783*
X02784Y04453*
X02784Y04453*
X02785Y04453*
X02786Y04453*
X02787Y04454*
X02788Y04455*
X02788Y04455*
X02789Y04455*
Y04455*
X02789Y04455*
X02789Y04456*
X02789Y04456*
X02789Y04456*
X02789Y04457*
X02789Y04457*
X0279Y04457*
X0279Y04458*
X0279Y04459*
X0279Y04459*
X0279Y0446*
X02791Y04461*
X02791Y04462*
X02791Y04463*
Y04464*
Y04464*
Y04464*
Y04464*
X02791Y04465*
Y04465*
X02791Y04465*
X02791Y04467*
X0279Y04468*
X0279Y04469*
X02789Y0447*
X02789Y04471*
X02789Y04472*
Y04472*
X02788Y04472*
X02788Y04472*
X02788Y04472*
X02787Y04473*
X02786Y04473*
X02785Y04474*
X02784Y04474*
X02784Y04474*
X02783Y04474*
G37*
G36*
X02708Y04474D02*
X02708D01*
X02708Y04474*
X02707Y04474*
X02706Y04474*
X02705Y04474*
X02705Y04473*
X02704Y04473*
X02703Y04472*
X02703Y04472*
X02702Y04471*
X02702Y04471*
X02702Y0447*
X02701Y0447*
X02701Y04469*
X027Y04467*
X027Y04466*
X02716*
Y04466*
Y04466*
X02716Y04466*
Y04467*
X02716Y04467*
X02716Y04468*
X02715Y04469*
X02715Y0447*
X02715Y04471*
X02714Y04471*
Y04471*
X02714Y04471*
X02714Y04472*
X02713Y04472*
X02713Y04473*
X02712Y04473*
X02711Y04474*
X0271Y04474*
X02709Y04474*
X02708Y04474*
G37*
%LNspeakeasy_audio-3*%
%LPD*%
G54D10*
X0283Y03614D02*
X02823Y03618D01*
Y0361*
X0283Y03614*
X0244Y0245D02*
X02433Y02455D01*
Y02446*
X0244Y0245*
X03759Y03735D02*
X03752Y03739D01*
Y0373*
X03759Y03735*
G54D11*
X03038Y03324D02*
Y03388D01*
X0314Y03324D02*
Y03388D01*
X03122Y03324D02*
X0314D01*
X03038D02*
X03056D01*
X0247Y03444D02*
Y03575D01*
Y03444D02*
X02814D01*
X0247Y03575D02*
X02814D01*
Y03444D02*
Y03575D01*
X03837Y03398D02*
Y03401D01*
X03792Y03398D02*
Y03401D01*
X03912Y03398D02*
Y03401D01*
X03867Y03398D02*
Y03401D01*
X03767Y03108D02*
Y03111D01*
X03722Y03108D02*
Y03111D01*
X03362Y03098D02*
Y03101D01*
X03407Y03098D02*
Y03101D01*
X0249Y03809D02*
X02494D01*
X0249Y03853D02*
X02494D01*
X03052Y03697D02*
X03104D01*
X02987Y03762D02*
X03052Y03697D01*
X03257D02*
X03322Y03762D01*
X03205Y03697D02*
X03257D01*
X02987Y03762D02*
Y04032D01*
X03104*
X03205D02*
X03322D01*
Y03762D02*
Y04032D01*
X01992Y02155D02*
X02019Y02182D01*
X01992D02*
X02019Y02155D01*
X03343Y03471D02*
Y03475D01*
X03298Y03471D02*
Y03475D01*
X02838Y03281D02*
X02841D01*
X02838Y03238D02*
X02841D01*
X02855Y03378D02*
Y03381D01*
X02899Y03378D02*
Y03381D01*
X02838Y03192D02*
X02841D01*
X02838Y03147D02*
X02841D01*
X02509Y02318D02*
Y02441D01*
X0247Y02318D02*
Y02441D01*
Y02318D02*
X02509D01*
X0247Y02441D02*
X02509D01*
X0231Y02871D02*
X02314D01*
X0231Y02828D02*
X02314D01*
X02241Y0295D02*
X02259D01*
X02326D02*
X02343D01*
Y03014*
X02241Y0295D02*
Y03014D01*
X02355Y0351D02*
Y03513D01*
X02309Y0351D02*
Y03513D01*
X0237Y03369D02*
X02374D01*
X0237Y03412D02*
X02374D01*
X02242Y03793D02*
Y03796D01*
X02197Y03793D02*
Y03796D01*
X02151Y03793D02*
Y03796D01*
X02108Y03793D02*
Y03796D01*
X0231Y02782D02*
X02314D01*
X0231Y02737D02*
X02314D01*
X02349Y03158D02*
Y03161D01*
X02305Y03158D02*
Y03161D01*
X02422Y03158D02*
Y03161D01*
X02377Y03158D02*
Y03161D01*
X0243Y0351D02*
Y03513D01*
X02384Y0351D02*
Y03513D01*
X0231Y03646D02*
Y0365D01*
X02354Y03646D02*
Y0365D01*
X02088Y03565D02*
X02091D01*
X02088Y03519D02*
X02091D01*
X02088Y03491D02*
X02091D01*
X02088Y03448D02*
X02091D01*
X02133Y03605D02*
X02151D01*
X02218D02*
X02236D01*
Y03669*
X02133Y03605D02*
Y03669D01*
X02478Y03944D02*
Y03948D01*
X02432Y03944D02*
Y03948D01*
X02555Y03939D02*
Y03943D01*
X02509Y03939D02*
Y03943D01*
X02554Y04089D02*
Y04093D01*
X0251Y04089D02*
Y04093D01*
X0243Y04088D02*
Y04091D01*
X02474Y04088D02*
Y04091D01*
X03024Y03281D02*
X03028D01*
X03024Y03238D02*
X03028D01*
X03024Y03202D02*
X03028D01*
X03024Y03157D02*
X03028D01*
X03097Y03528D02*
Y03531D01*
X03051Y03528D02*
Y03531D01*
X03003Y03528D02*
Y03531D01*
X0296Y03528D02*
Y03531D01*
X0277Y0371D02*
X02774D01*
X0277Y03753D02*
X02774D01*
X0276Y03841D02*
Y03845D01*
X02714Y03841D02*
Y03845D01*
X02835Y03841D02*
Y03845D01*
X02789Y03841D02*
Y03845D01*
X02824Y03979D02*
Y03983D01*
X0278Y03979D02*
Y03983D01*
X02715Y03978D02*
Y03982D01*
X02759Y03978D02*
Y03982D01*
X02429Y03645D02*
Y03648D01*
X02385Y03645D02*
Y03648D01*
X03366Y03558D02*
Y03691D01*
X03752Y03558D02*
Y03691D01*
X03366Y03558D02*
X03752D01*
X03366Y03691D02*
X03752D01*
X02258Y02231D02*
X02261D01*
X02258Y02188D02*
X02261D01*
X02258Y02149D02*
X02261D01*
X02258Y02106D02*
X02261D01*
X02258Y02068D02*
X02261D01*
X02258Y02024D02*
X02261D01*
X01798Y03266D02*
X01801D01*
X01798Y03223D02*
X01801D01*
X01798Y03181D02*
X01801D01*
X01798Y03138D02*
X01801D01*
X01798Y03101D02*
X01801D01*
X01798Y03058D02*
X01801D01*
X02233Y04206D02*
X02236D01*
X02233Y04163D02*
X02236D01*
X02229Y04071D02*
X02233D01*
X02229Y04028D02*
X02233D01*
X02233Y04136D02*
X02236D01*
X02233Y04093D02*
X02236D01*
X02748Y01983D02*
X02751D01*
X02748Y02026D02*
X02751D01*
X02738Y01908D02*
Y01911D01*
X02781Y01908D02*
Y01911D01*
X02883Y01668D02*
X02886D01*
X02883Y01711D02*
X02886D01*
X03063Y01783D02*
Y01786D01*
X03106Y01783D02*
Y01786D01*
X03143Y01783D02*
Y01786D01*
X03187Y01783D02*
Y01786D01*
X03223Y01783D02*
Y01786D01*
X03266Y01783D02*
Y01786D01*
X03035Y01633D02*
Y01673D01*
X03015Y01653D02*
X03055D01*
X04013Y01978D02*
X04016D01*
X04013Y02021D02*
X04016D01*
X04043Y02108D02*
X04046D01*
X04043Y02151D02*
X04046D01*
X04048Y02213D02*
X04051D01*
X04048Y02256D02*
X04051D01*
X04109Y02026D02*
X04136Y01998D01*
X04109D02*
X04136Y02026D01*
X04625Y03035D02*
X04665D01*
X04645Y03015D02*
Y03055D01*
X03993Y03969D02*
X03996D01*
X03993Y04013D02*
X03996D01*
X03988Y04058D02*
X03991D01*
X03988Y04101D02*
X03991D01*
X03988Y04153D02*
X03991D01*
X03988Y04196D02*
X03991D01*
X04256Y04095D02*
X04284Y04123D01*
X04256D02*
X04284Y04095D01*
X03096Y04543D02*
Y04546D01*
X03053Y04543D02*
Y04546D01*
X04175Y03463D02*
X04227D01*
X04292Y03399*
X03957D02*
X04022Y03463D01*
X04074*
X04292Y03129D02*
Y03399D01*
X04175Y03129D02*
X04292D01*
X03957D02*
X04074D01*
X03957D02*
Y03399D01*
X03246Y04543D02*
Y04546D01*
X03203Y04543D02*
Y04546D01*
X03171Y04543D02*
Y04546D01*
X03127Y04543D02*
Y04546D01*
X03263Y04625D02*
Y04665D01*
X03244Y04645D02*
X03283D01*
X02166Y04294D02*
X02194Y04266D01*
X02166D02*
X02194Y04294D01*
X03513Y03965D02*
Y03969D01*
X03485Y03965D02*
Y03969D01*
X03458Y03965D02*
Y03969D01*
X0343Y03965D02*
Y03969D01*
X03268Y03471D02*
Y03475D01*
X03223Y03471D02*
Y03475D01*
X03653Y03898D02*
X03656D01*
X03653Y03941D02*
X03656D01*
X03848Y03768D02*
X03851D01*
X03848Y03811D02*
X03851D01*
X03396Y04054D02*
Y04058D01*
X03352Y04054D02*
Y04058D01*
X03566Y04115D02*
Y04119D01*
X03593Y04115D02*
Y04119D01*
X03578Y0393D02*
Y03934D01*
X0355Y0393D02*
Y03934D01*
X03494Y03303D02*
Y03306D01*
X03445Y03303D02*
Y03306D01*
X03672Y03303D02*
Y03306D01*
X03623Y03303D02*
Y03306D01*
X04518Y03068D02*
X04521D01*
X04518Y03111D02*
X04521D01*
X04518Y03148D02*
X04521D01*
X04518Y03191D02*
X04521D01*
X04518Y03223D02*
X04521D01*
X04518Y03266D02*
X04521D01*
X0269Y02143D02*
Y02161D01*
Y02058D02*
Y02076D01*
Y02058D02*
X02753D01*
X0269Y02161D02*
X02753D01*
X0257Y01943D02*
Y01961D01*
Y01858D02*
Y01876D01*
Y01858D02*
X02634D01*
X0257Y01961D02*
X02634D01*
X0281Y01818D02*
Y01836D01*
Y01733D02*
Y01751D01*
Y01733D02*
X02874D01*
X0281Y01836D02*
X02874D01*
X01653Y03244D02*
Y03283D01*
X01633Y03263D02*
X01673D01*
G54D12*
X03269Y02845D02*
X03874D01*
Y02945*
X03269D02*
X03874D01*
X03269Y02845D02*
Y02945D01*
G54D13*
X04025Y0277D02*
X04019Y02775D01*
X04007*
X04002Y0277*
Y02764*
X04007Y02758*
X04019*
X04025Y02752*
Y02746*
X04019Y0274*
X04007*
X04002Y02746*
X04036Y02729D02*
Y02764D01*
X04054*
X0406Y02758*
Y02746*
X04054Y0274*
X04036*
X04089D02*
X04077D01*
X04071Y02746*
Y02758*
X04077Y02764*
X04089*
X04095Y02758*
Y02752*
X04071*
X04112Y02764D02*
X04124D01*
X0413Y02758*
Y0274*
X04112*
X04106Y02746*
X04112Y02752*
X0413*
X04141Y0274D02*
Y02775D01*
Y02752D02*
X04159Y02764D01*
X04141Y02752D02*
X04159Y0274D01*
X042Y02775D02*
X04176D01*
Y0274*
X042*
X04176Y02758D02*
X04188D01*
X04217Y02764D02*
X04229D01*
X04235Y02758*
Y0274*
X04217*
X04211Y02746*
X04217Y02752*
X04235*
X04246Y0274D02*
X04264D01*
X0427Y02746*
X04264Y02752*
X04252*
X04246Y02758*
X04252Y02764*
X0427*
X04281D02*
Y02746D01*
X04287Y0274*
X04305*
Y02735*
X04299Y02729*
X04293*
X04305Y0274D02*
Y02764D01*
X04351Y0274D02*
X04363D01*
X04357*
Y02775*
X04351Y0277*
X04381Y0274D02*
Y02746D01*
X04386*
Y0274*
X04381*
X0441Y0277D02*
X04416Y02775D01*
X04427*
X04433Y0277*
Y02746*
X04427Y0274*
X04416*
X0441Y02746*
Y0277*
X04025Y02699D02*
X04019Y02705D01*
X04007*
X04002Y02699*
Y02693*
X04007Y02687*
X04019*
X04025Y02682*
Y02676*
X04019Y0267*
X04007*
X04002Y02676*
X04042Y02693D02*
X04054D01*
X0406Y02687*
Y0267*
X04042*
X04036Y02676*
X04042Y02682*
X0406*
X04071Y0267D02*
Y02693D01*
X04077*
X04083Y02687*
Y0267*
Y02687*
X04089Y02693*
X04095Y02687*
Y0267*
X04141Y02705D02*
Y0267D01*
X04159*
X04165Y02676*
Y02699*
X04159Y02705*
X04141*
X04002Y02646D02*
X04025D01*
X04013*
Y02611*
X04042D02*
X04054D01*
X0406Y02617*
Y02629*
X04054Y02635*
X04042*
X04036Y02629*
Y02617*
X04042Y02611*
X04071D02*
Y02635D01*
X04089*
X04095Y02629*
Y02611*
X04106Y02635D02*
Y02617D01*
X04112Y02611*
X0413*
Y02605*
X04124Y026*
X04118*
X0413Y02611D02*
Y02635D01*
X04176Y02611D02*
Y02646D01*
X04188Y02635*
X042Y02646*
Y02611*
X04002Y02541D02*
Y02576D01*
X04019*
X04025Y0257*
Y02558*
X04019Y02552*
X04002*
X04013D02*
X04025Y02541D01*
X04036Y02564D02*
Y02547D01*
X04042Y02541*
X0406*
Y02535*
X04054Y02529*
X04048*
X0406Y02541D02*
Y02564D01*
X04077D02*
X04089D01*
X04095Y02558*
Y02541*
X04077*
X04071Y02547*
X04077Y02552*
X04095*
X04106Y02541D02*
Y02564D01*
X04124*
X0413Y02558*
Y02541*
X042Y0257D02*
X04194Y02576D01*
X04182*
X04176Y0257*
Y02564*
X04182Y02558*
X04194*
X042Y02552*
Y02547*
X04194Y02541*
X04182*
X04176Y02547*
X04002Y02505D02*
Y0247D01*
X04019*
X04025Y02476*
Y02499*
X04019Y02505*
X04002*
X04042Y02494D02*
X04054D01*
X0406Y02488*
Y0247*
X04042*
X04036Y02476*
X04042Y02482*
X0406*
X04071Y02494D02*
X04083Y0247D01*
X04095Y02494*
X04106Y0247D02*
X04118D01*
X04112*
Y02494*
X04106*
X04159Y02505D02*
Y0247D01*
X04141*
X04136Y02476*
Y02488*
X04141Y02494*
X04159*
X04206Y02505D02*
X04229D01*
X04217*
Y0247*
X04002Y02412D02*
X04013D01*
X04007*
Y02446*
X04002Y02441*
X04031D02*
X04036Y02446D01*
X04048*
X04054Y02441*
Y02417*
X04048Y02412*
X04036*
X04031Y02417*
Y02441*
X04066Y02412D02*
X04089Y02435D01*
X04101Y02441D02*
X04106Y02446D01*
X04118*
X04124Y02441*
Y02417*
X04118Y02412*
X04106*
X04101Y02417*
Y02441*
X04136Y02446D02*
X04159D01*
Y02441*
X04136Y02417*
Y02412*
X02971Y03379D02*
Y03345D01*
X02988*
X02994Y0335*
Y03374*
X02988Y03379*
X02971*
X03005Y03345D02*
X03017D01*
X03011*
Y03379*
X03005Y03374*
X02845Y03556D02*
Y03527D01*
X0285Y03521*
X02862*
X02868Y03527*
Y03556*
X02903Y03521D02*
X02879D01*
X02903Y03545*
Y03551*
X02897Y03556*
X02885*
X02879Y03551*
X02305Y02414D02*
Y02385D01*
X0231Y0238*
X02322*
X02328Y02385*
Y02414*
X02339Y02409D02*
X02345Y02414D01*
X02357*
X02363Y02409*
Y02403*
X02357Y02397*
X02351*
X02357*
X02363Y02391*
Y02385*
X02357Y0238*
X02345*
X02339Y02385*
X02395Y02835D02*
Y02869D01*
X02412*
X02418Y02864*
Y02852*
X02412Y02846*
X02395*
X02406D02*
X02418Y02835D01*
X02447D02*
Y02869D01*
X02429Y02852*
X02453*
X02464Y0284D02*
X0247Y02835D01*
X02482*
X02488Y0284*
Y02864*
X02482Y02869*
X0247*
X02464Y02864*
Y02858*
X0247Y02852*
X02488*
X02242Y0324D02*
Y03274D01*
X0226*
X02265Y03269*
Y03257*
X0226Y03251*
X02242*
X02254D02*
X02265Y0324D01*
X02295D02*
Y03274D01*
X02277Y03257*
X023*
X02312Y03269D02*
X02318Y03274D01*
X0233*
X02335Y03269*
Y03263*
X0233Y03257*
X02335Y03251*
Y03245*
X0233Y0324*
X02318*
X02312Y03245*
Y03251*
X02318Y03257*
X02312Y03263*
Y03269*
X02318Y03257D02*
X0233D01*
X02315Y03715D02*
Y03749D01*
X02332*
X02338Y03744*
Y03732*
X02332Y03726*
X02315*
X02326D02*
X02338Y03715D01*
X02367D02*
Y03749D01*
X02349Y03732*
X02373*
X02384Y03749D02*
X02408D01*
Y03744*
X02384Y0372*
Y03715*
X02453Y0366D02*
Y03694D01*
X02471*
X02477Y03689*
Y03677*
X02471Y03671*
X02453*
X02465D02*
X02477Y0366D01*
X02506D02*
Y03694D01*
X02488Y03677*
X02512*
X02547Y03694D02*
X02535Y03689D01*
X02523Y03677*
Y03665*
X02529Y0366*
X02541*
X02547Y03665*
Y03671*
X02541Y03677*
X02523*
X02198Y0338D02*
Y03414D01*
X02215*
X02221Y03409*
Y03397*
X02215Y03391*
X02198*
X02209D02*
X02221Y0338D01*
X0225D02*
Y03414D01*
X02233Y03397*
X02256*
X02291Y03414D02*
X02268D01*
Y03397*
X02279Y03403*
X02285*
X02291Y03397*
Y03385*
X02285Y0338*
X02273*
X02268Y03385*
X0268Y03235D02*
Y03269D01*
X02697*
X02703Y03264*
Y03252*
X02697Y03246*
X0268*
X02691D02*
X02703Y03235D01*
X02732D02*
Y03269D01*
X02714Y03252*
X02738*
X02767Y03235D02*
Y03269D01*
X02749Y03252*
X02773*
X02925Y03405D02*
Y03439D01*
X02942*
X02948Y03434*
Y03422*
X02942Y03416*
X02925*
X02936D02*
X02948Y03405D01*
X02977D02*
Y03439D01*
X02959Y03422*
X02983*
X02994Y03434D02*
X03Y03439D01*
X03012*
X03018Y03434*
Y03428*
X03012Y03422*
X03006*
X03012*
X03018Y03416*
Y0341*
X03012Y03405*
X03*
X02994Y0341*
X02031Y0339D02*
Y03424D01*
X02049*
X02054Y03419*
Y03407*
X02049Y03401*
X02031*
X02043D02*
X02054Y0339D01*
X02084D02*
Y03424D01*
X02066Y03407*
X02089*
X02124Y0339D02*
X02101D01*
X02124Y03413*
Y03419*
X02119Y03424*
X02107*
X02101Y03419*
X02Y0376D02*
Y03794D01*
X02017*
X02023Y03789*
Y03777*
X02017Y03771*
X02*
X02011D02*
X02023Y0376D01*
X02052D02*
Y03794D01*
X02034Y03777*
X02058*
X02069Y0376D02*
X02081D01*
X02075*
Y03794*
X02069Y03789*
X0242Y04166D02*
Y04201D01*
X02438*
X02443Y04195*
Y04183*
X02438Y04178*
X0242*
X02432D02*
X02443Y04166D01*
X02473D02*
Y04201D01*
X02455Y04183*
X02478*
X0249Y04195D02*
X02496Y04201D01*
X02508*
X02513Y04195*
Y04172*
X02508Y04166*
X02496*
X0249Y04172*
Y04195*
X02555Y04172D02*
Y04207D01*
X02572*
X02578Y04201*
Y04189*
X02572Y04183*
X02555*
X02566D02*
X02578Y04172D01*
X02589Y04201D02*
X02595Y04207D01*
X02607*
X02613Y04201*
Y04195*
X02607Y04189*
X02601*
X02607*
X02613Y04183*
Y04177*
X02607Y04172*
X02595*
X02589Y04177*
X02624D02*
X0263Y04172D01*
X02642*
X02648Y04177*
Y04201*
X02642Y04207*
X0263*
X02624Y04201*
Y04195*
X0263Y04189*
X02648*
X02325Y0382D02*
Y03854D01*
X02342*
X02348Y03849*
Y03837*
X02342Y03831*
X02325*
X02336D02*
X02348Y0382D01*
X02359Y03849D02*
X02365Y03854D01*
X02377*
X02383Y03849*
Y03843*
X02377Y03837*
X02371*
X02377*
X02383Y03831*
Y03825*
X02377Y0382*
X02365*
X02359Y03825*
X02394Y03849D02*
X024Y03854D01*
X02412*
X02418Y03849*
Y03843*
X02412Y03837*
X02418Y03831*
Y03825*
X02412Y0382*
X024*
X02394Y03825*
Y03831*
X024Y03837*
X02394Y03843*
Y03849*
X024Y03837D02*
X02412D01*
X03105Y0324D02*
Y03274D01*
X03122*
X03128Y03269*
Y03257*
X03122Y03251*
X03105*
X03116D02*
X03128Y0324D01*
X03139Y03269D02*
X03145Y03274D01*
X03157*
X03163Y03269*
Y03263*
X03157Y03257*
X03151*
X03157*
X03163Y03251*
Y03245*
X03157Y0324*
X03145*
X03139Y03245*
X03174Y03274D02*
X03198D01*
Y03269*
X03174Y03245*
Y0324*
X02915Y036D02*
Y03634D01*
X02932*
X02938Y03629*
Y03617*
X02932Y03611*
X02915*
X02926D02*
X02938Y036D01*
X02949Y03629D02*
X02955Y03634D01*
X02967*
X02973Y03629*
Y03623*
X02967Y03617*
X02961*
X02967*
X02973Y03611*
Y03605*
X02967Y036*
X02955*
X02949Y03605*
X03008Y03634D02*
X02996Y03629D01*
X02984Y03617*
Y03605*
X0299Y036*
X03002*
X03008Y03605*
Y03611*
X03002Y03617*
X02984*
X0266Y04065D02*
Y04099D01*
X02677*
X02683Y04094*
Y04082*
X02677Y04076*
X0266*
X02671D02*
X02683Y04065D01*
X02694Y04094D02*
X027Y04099D01*
X02712*
X02718Y04094*
Y04088*
X02712Y04082*
X02706*
X02712*
X02718Y04076*
Y0407*
X02712Y04065*
X027*
X02694Y0407*
X02753Y04099D02*
X02729D01*
Y04082*
X02741Y04088*
X02747*
X02753Y04082*
Y0407*
X02747Y04065*
X02735*
X02729Y0407*
X0278Y04056D02*
Y04091D01*
X02797*
X02803Y04085*
Y04074*
X02797Y04068*
X0278*
X02791D02*
X02803Y04056D01*
X02814Y04085D02*
X0282Y04091D01*
X02832*
X02838Y04085*
Y04079*
X02832Y04074*
X02826*
X02832*
X02838Y04068*
Y04062*
X02832Y04056*
X0282*
X02814Y04062*
X02867Y04056D02*
Y04091D01*
X02849Y04074*
X02873*
X02752Y03688D02*
Y03723D01*
X02769*
X02775Y03717*
Y03706*
X02769Y037*
X02752*
X02764D02*
X02775Y03688D01*
X02787Y03717D02*
X02793Y03723D01*
X02804*
X0281Y03717*
Y03712*
X02804Y03706*
X02799*
X02804*
X0281Y037*
Y03694*
X02804Y03688*
X02793*
X02787Y03694*
X02822Y03717D02*
X02828Y03723D01*
X02839*
X02845Y03717*
Y03712*
X02839Y03706*
X02834*
X02839*
X02845Y037*
Y03694*
X02839Y03688*
X02828*
X02822Y03694*
X02362Y02994D02*
Y0296D01*
X0238*
X02385Y02965*
Y02989*
X0238Y02994*
X02362*
X02397Y02989D02*
X02403Y02994D01*
X02415*
X0242Y02989*
Y02983*
X02415Y02977*
X02409*
X02415*
X0242Y02971*
Y02965*
X02415Y0296*
X02403*
X02397Y02965*
X02036Y03651D02*
Y03616D01*
X02053*
X02059Y03622*
Y03645*
X02053Y03651*
X02036*
X02094Y03616D02*
X02071D01*
X02094Y03639*
Y03645*
X02088Y03651*
X02076*
X02071Y03645*
X02418Y02779D02*
X02412Y02784D01*
X024*
X02395Y02779*
Y02755*
X024Y0275*
X02412*
X02418Y02755*
X02453Y0275D02*
X02429D01*
X02453Y02773*
Y02779*
X02447Y02784*
X02435*
X02429Y02779*
X02464D02*
X0247Y02784D01*
X02482*
X02488Y02779*
Y02773*
X02482Y02767*
X02488Y02761*
Y02755*
X02482Y0275*
X0247*
X02464Y02755*
Y02761*
X0247Y02767*
X02464Y02773*
Y02779*
X0247Y02767D02*
X02482D01*
X0239Y03264D02*
X02385Y03269D01*
X02373*
X02367Y03264*
Y0324*
X02373Y03235*
X02385*
X0239Y0324*
X02425Y03235D02*
X02402D01*
X02425Y03258*
Y03264*
X0242Y03269*
X02408*
X02402Y03264*
X02437Y03269D02*
X0246D01*
Y03264*
X02437Y0324*
Y03235*
X02213Y03527D02*
X02207Y03533D01*
X02195*
X0219Y03527*
Y03504*
X02195Y03498*
X02207*
X02213Y03504*
X02248Y03498D02*
X02224D01*
X02248Y03521*
Y03527*
X02242Y03533*
X0223*
X02224Y03527*
X02283Y03533D02*
X02271Y03527D01*
X02259Y03516*
Y03504*
X02265Y03498*
X02277*
X02283Y03504*
Y0351*
X02277Y03516*
X02259*
X02698Y03174D02*
X02692Y03179D01*
X0268*
X02675Y03174*
Y0315*
X0268Y03145*
X02692*
X02698Y0315*
X02733Y03145D02*
X02709D01*
X02733Y03168*
Y03174*
X02727Y03179*
X02715*
X02709Y03174*
X02768Y03179D02*
X02744D01*
Y03162*
X02756Y03168*
X02762*
X02768Y03162*
Y0315*
X02762Y03145*
X0275*
X02744Y0315*
X02211Y03471D02*
X02205Y03477D01*
X02194*
X02188Y03471*
Y03447*
X02194Y03442*
X02205*
X02211Y03447*
X02246Y03442D02*
X02223D01*
X02246Y03465*
Y03471*
X0224Y03477*
X02229*
X02223Y03471*
X02275Y03442D02*
Y03477D01*
X02258Y03459*
X02281*
X01948Y03564D02*
X01942Y03569D01*
X0193*
X01925Y03564*
Y0354*
X0193Y03535*
X01942*
X01948Y0354*
X01983Y03535D02*
X01959D01*
X01983Y03558*
Y03564*
X01977Y03569*
X01965*
X01959Y03564*
X01994D02*
X02Y03569D01*
X02012*
X02018Y03564*
Y03558*
X02012Y03552*
X02006*
X02012*
X02018Y03546*
Y0354*
X02012Y03535*
X02*
X01994Y0354*
X02218Y03909D02*
X02212Y03914D01*
X022*
X02195Y03909*
Y03885*
X022Y0388*
X02212*
X02218Y03885*
X02253Y0388D02*
X02229D01*
X02253Y03903*
Y03909*
X02247Y03914*
X02235*
X02229Y03909*
X02288Y0388D02*
X02264D01*
X02288Y03903*
Y03909*
X02282Y03914*
X0227*
X02264Y03909*
X026Y0404D02*
X02594Y04046D01*
X02583*
X02577Y0404*
Y04017*
X02583Y04011*
X02594*
X026Y04017*
X02635Y04011D02*
X02612D01*
X02635Y04034*
Y0404*
X02629Y04046*
X02618*
X02612Y0404*
X02647Y04011D02*
X02659D01*
X02653*
Y04046*
X02647Y0404*
X02338Y03964D02*
X02332Y03969D01*
X0232*
X02315Y03964*
Y0394*
X0232Y03935*
X02332*
X02338Y0394*
X02373Y03935D02*
X02349D01*
X02373Y03958*
Y03964*
X02367Y03969*
X02355*
X02349Y03964*
X02384D02*
X0239Y03969D01*
X02402*
X02408Y03964*
Y0394*
X02402Y03935*
X0239*
X02384Y0394*
Y03964*
X03123Y03185D02*
X03117Y03191D01*
X03105*
X031Y03185*
Y03162*
X03105Y03156*
X03117*
X03123Y03162*
X03134Y03156D02*
X03146D01*
X0314*
Y03191*
X03134Y03185*
X03164Y03162D02*
X03169Y03156D01*
X03181*
X03187Y03162*
Y03185*
X03181Y03191*
X03169*
X03164Y03185*
Y0318*
X03169Y03174*
X03187*
X03143Y03551D02*
X03137Y03556D01*
X03125*
X0312Y03551*
Y03527*
X03125Y03521*
X03137*
X03143Y03527*
X03154Y03521D02*
X03166D01*
X0316*
Y03556*
X03154Y03551*
X03184D02*
X03189Y03556D01*
X03201*
X03207Y03551*
Y03545*
X03201Y03539*
X03207Y03533*
Y03527*
X03201Y03521*
X03189*
X03184Y03527*
Y03533*
X03189Y03539*
X03184Y03545*
Y03551*
X03189Y03539D02*
X03201D01*
X02633Y03889D02*
X02627Y03894D01*
X02615*
X0261Y03889*
Y03865*
X02615Y0386*
X02627*
X02633Y03865*
X02644Y0386D02*
X02656D01*
X0265*
Y03894*
X02644Y03889*
X02674Y03894D02*
X02697D01*
Y03889*
X02674Y03865*
Y0386*
X02628Y03834D02*
X02622Y03839D01*
X0261*
X02605Y03834*
Y0381*
X0261Y03805*
X02622*
X02628Y0381*
X02639Y03805D02*
X02651D01*
X02645*
Y03839*
X02639Y03834*
X02692Y03839D02*
X0268Y03834D01*
X02669Y03822*
Y0381*
X02674Y03805*
X02686*
X02692Y0381*
Y03816*
X02686Y03822*
X02669*
X0329Y03669D02*
Y0364D01*
X03295Y03635*
X03307*
X03313Y0364*
Y03669*
X03324Y03635D02*
X03336D01*
X0333*
Y03669*
X03324Y03664*
X03898Y0392D02*
Y03954D01*
X03915*
X03921Y03949*
Y03937*
X03915Y03931*
X03898*
X03909D02*
X03921Y0392D01*
X03933D02*
X03944D01*
X03938*
Y03954*
X03933Y03949*
X03354Y03985D02*
Y04019D01*
X03372*
X03377Y04014*
Y04002*
X03372Y03996*
X03354*
X03366D02*
X03377Y03985D01*
X03389Y04014D02*
X03395Y04019D01*
X03407*
X03412Y04014*
Y04008*
X03407Y04002*
X03401*
X03407*
X03412Y03996*
Y0399*
X03407Y03985*
X03395*
X03389Y0399*
X03673Y03845D02*
Y03879D01*
X0369*
X03696Y03874*
Y03862*
X0369Y03856*
X03673*
X03685D02*
X03696Y03845D01*
X03731D02*
X03708D01*
X03731Y03868*
Y03874*
X03725Y03879*
X03714*
X03708Y03874*
X0357Y04019D02*
X03564Y04024D01*
X03552*
X03546Y04019*
Y03995*
X03552Y0399*
X03564*
X0357Y03995*
X03581Y0399D02*
X03593D01*
X03587*
Y04024*
X03581Y04019*
X03628Y0399D02*
Y04024D01*
X0361Y04007*
X03634*
X03783Y03329D02*
X03777Y03334D01*
X03765*
X0376Y03329*
Y03305*
X03765Y033*
X03777*
X03783Y03305*
X03794Y033D02*
X03806D01*
X038*
Y03334*
X03794Y03329*
X03824D02*
X03829Y03334D01*
X03841*
X03847Y03329*
Y03305*
X03841Y033*
X03829*
X03824Y03305*
Y03329*
X03888Y03494D02*
X03882Y03499D01*
X0387*
X03865Y03494*
Y0347*
X0387Y03465*
X03882*
X03888Y0347*
X03899D02*
X03905Y03465D01*
X03917*
X03923Y0347*
Y03494*
X03917Y03499*
X03905*
X03899Y03494*
Y03488*
X03905Y03482*
X03923*
X03983Y03059D02*
X03977Y03064D01*
X03965*
X0396Y03059*
Y03035*
X03965Y0303*
X03977*
X03983Y03035*
X03994Y03059D02*
X04Y03064D01*
X04012*
X04018Y03059*
Y03053*
X04012Y03047*
X04018Y03041*
Y03035*
X04012Y0303*
X04*
X03994Y03035*
Y03041*
X04Y03047*
X03994Y03053*
Y03059*
X04Y03047D02*
X04012D01*
X03738Y03216D02*
X03732Y03222D01*
X0372*
X03715Y03216*
Y03193*
X0372Y03187*
X03732*
X03738Y03193*
X03773Y03222D02*
X03761Y03216D01*
X03749Y03204*
Y03193*
X03755Y03187*
X03767*
X03773Y03193*
Y03199*
X03767Y03204*
X03749*
X03637Y03431D02*
X03631Y03436D01*
X03619*
X03614Y03431*
Y03407*
X03619Y03402*
X03631*
X03637Y03407*
X03672Y03436D02*
X03648D01*
Y03419*
X0366Y03425*
X03666*
X03672Y03419*
Y03407*
X03666Y03402*
X03654*
X03648Y03407*
X03383Y03209D02*
X03377Y03214D01*
X03365*
X0336Y03209*
Y03185*
X03365Y0318*
X03377*
X03383Y03185*
X03412Y0318D02*
Y03214D01*
X03394Y03197*
X03418*
X03488Y03894D02*
X03482Y03899D01*
X03471*
X03465Y03894*
Y0387*
X03471Y03865*
X03482*
X03488Y0387*
X035Y03894D02*
X03506Y03899D01*
X03517*
X03523Y03894*
Y03888*
X03517Y03882*
X03512*
X03517*
X03523Y03876*
Y0387*
X03517Y03865*
X03506*
X035Y0387*
X03459Y03431D02*
X03453Y03436D01*
X03441*
X03436Y03431*
Y03407*
X03441Y03402*
X03453*
X03459Y03407*
X03494Y03402D02*
X0347D01*
X03494Y03425*
Y03431*
X03488Y03436*
X03476*
X0347Y03431*
X03415Y03894D02*
X03409Y03899D01*
X03397*
X03391Y03894*
Y0387*
X03397Y03865*
X03409*
X03415Y0387*
X03426Y03865D02*
X03438D01*
X03432*
Y03899*
X03426Y03894*
X03625Y03224D02*
Y0319D01*
X03648*
X03683D02*
X03659D01*
X03683Y03213*
Y03219*
X03677Y03224*
X03665*
X03659Y03219*
X03578Y04205D02*
X03572Y04211D01*
X0356*
X03555Y04205*
Y04182*
X0356Y04176*
X03572*
X03578Y04182*
X03589Y04211D02*
X03613D01*
Y04205*
X03589Y04182*
Y04176*
X02615Y0201D02*
Y02044D01*
X02632*
X02638Y02039*
Y02027*
X02632Y02021*
X02615*
X02626D02*
X02638Y0201D01*
X02673Y02044D02*
X02649D01*
Y02027*
X02661Y02033*
X02667*
X02673Y02027*
Y02015*
X02667Y0201*
X02655*
X02649Y02015*
X02755Y01694D02*
Y01729D01*
X02772*
X02778Y01724*
Y01712*
X02772Y01706*
X02755*
X02766D02*
X02778Y01694D01*
X02807D02*
Y01729D01*
X02789Y01712*
X02813*
X0384Y01975D02*
Y02009D01*
X03857*
X03863Y02004*
Y01992*
X03857Y01986*
X0384*
X03851D02*
X03863Y01975D01*
X03874Y02004D02*
X0388Y02009D01*
X03892*
X03898Y02004*
Y01998*
X03892Y01992*
X03886*
X03892*
X03898Y01986*
Y0198*
X03892Y01975*
X0388*
X03874Y0198*
X03909Y02004D02*
X03915Y02009D01*
X03927*
X03933Y02004*
Y0198*
X03927Y01975*
X03915*
X03909Y0198*
Y02004*
X0387Y0211D02*
Y02144D01*
X03887*
X03893Y02139*
Y02127*
X03887Y02121*
X0387*
X03881D02*
X03893Y0211D01*
X03928D02*
X03904D01*
X03928Y02133*
Y02139*
X03922Y02144*
X0391*
X03904Y02139*
X03939Y02115D02*
X03945Y0211D01*
X03957*
X03963Y02115*
Y02139*
X03957Y02144*
X03945*
X03939Y02139*
Y02133*
X03945Y02127*
X03963*
X0388Y02215D02*
Y02249D01*
X03897*
X03903Y02244*
Y02232*
X03897Y02226*
X0388*
X03891D02*
X03903Y02215D01*
X03938D02*
X03914D01*
X03938Y02238*
Y02244*
X03932Y02249*
X0392*
X03914Y02244*
X03949D02*
X03955Y02249D01*
X03967*
X03973Y02244*
Y02238*
X03967Y02232*
X03973Y02226*
Y0222*
X03967Y02215*
X03955*
X03949Y0222*
Y02226*
X03955Y02232*
X03949Y02238*
Y02244*
X03955Y02232D02*
X03967D01*
X0302Y0186D02*
Y01894D01*
X03037*
X03043Y01889*
Y01877*
X03037Y01871*
X0302*
X03031D02*
X03043Y0186D01*
X03078D02*
X03054D01*
X03078Y01883*
Y01889*
X03072Y01894*
X0306*
X03054Y01889*
X03089Y01894D02*
X03113D01*
Y01889*
X03089Y01865*
Y0186*
X03145D02*
Y01894D01*
X03162*
X03168Y01889*
Y01877*
X03162Y01871*
X03145*
X03156D02*
X03168Y0186D01*
X03203D02*
X03179D01*
X03203Y01883*
Y01889*
X03197Y01894*
X03185*
X03179Y01889*
X03238Y01894D02*
X03226Y01889D01*
X03214Y01877*
Y01865*
X0322Y0186*
X03232*
X03238Y01865*
Y01871*
X03232Y01877*
X03214*
X033Y01822D02*
Y01857D01*
X03317*
X03323Y01851*
Y01839*
X03317Y01834*
X033*
X03311D02*
X03323Y01822D01*
X03358D02*
X03334D01*
X03358Y01845*
Y01851*
X03352Y01857*
X0334*
X03334Y01851*
X03393Y01857D02*
X03369D01*
Y01839*
X03381Y01845*
X03387*
X03393Y01839*
Y01828*
X03387Y01822*
X03375*
X03369Y01828*
X02325Y02185D02*
Y02219D01*
X02342*
X02348Y02214*
Y02202*
X02342Y02196*
X02325*
X02336D02*
X02348Y02185D01*
X02383D02*
X02359D01*
X02383Y02208*
Y02214*
X02377Y02219*
X02365*
X02359Y02214*
X02412Y02185D02*
Y02219D01*
X02394Y02202*
X02418*
X02325Y02103D02*
Y02138D01*
X02342*
X02348Y02132*
Y0212*
X02342Y02114*
X02325*
X02336D02*
X02348Y02103D01*
X02383D02*
X02359D01*
X02383Y02126*
Y02132*
X02377Y02138*
X02365*
X02359Y02132*
X02394D02*
X024Y02138D01*
X02412*
X02418Y02132*
Y02126*
X02412Y0212*
X02406*
X02412*
X02418Y02114*
Y02109*
X02412Y02103*
X024*
X02394Y02109*
X02218Y0197D02*
Y02004D01*
X02235*
X02241Y01999*
Y01987*
X02235Y01981*
X02218*
X0223D02*
X02241Y0197D01*
X02276D02*
X02253D01*
X02276Y01993*
Y01999*
X0227Y02004*
X02259*
X02253Y01999*
X02311Y0197D02*
X02288D01*
X02311Y01993*
Y01999*
X02305Y02004*
X02294*
X02288Y01999*
X01873Y03215D02*
Y03249D01*
X0189*
X01896Y03244*
Y03232*
X0189Y03226*
X01873*
X01885D02*
X01896Y03215D01*
X01931D02*
X01908D01*
X01931Y03238*
Y03244*
X01925Y03249*
X01914*
X01908Y03244*
X01943Y03215D02*
X01955D01*
X01949*
Y03249*
X01943Y03244*
X01871Y03133D02*
Y03168D01*
X01889*
X01894Y03163*
Y03151*
X01889Y03145*
X01871*
X01883D02*
X01894Y03133D01*
X01929D02*
X01906D01*
X01929Y03157*
Y03163*
X01924Y03168*
X01912*
X01906Y03163*
X01941D02*
X01947Y03168D01*
X01959*
X01964Y03163*
Y03139*
X01959Y03133*
X01947*
X01941Y03139*
Y03163*
X0187Y0305D02*
Y03084D01*
X01887*
X01893Y03079*
Y03067*
X01887Y03061*
X0187*
X01881D02*
X01893Y0305D01*
X01904D02*
X01916D01*
X0191*
Y03084*
X01904Y03079*
X01934Y03055D02*
X01939Y0305D01*
X01951*
X01957Y03055*
Y03079*
X01951Y03084*
X01939*
X01934Y03079*
Y03073*
X01939Y03067*
X01957*
X02305Y0416D02*
Y04194D01*
X02322*
X02328Y04189*
Y04177*
X02322Y04171*
X02305*
X02316D02*
X02328Y0416D01*
X02339D02*
X02351D01*
X02345*
Y04194*
X02339Y04189*
X02369D02*
X02374Y04194D01*
X02386*
X02392Y04189*
Y04183*
X02386Y04177*
X02392Y04171*
Y04165*
X02386Y0416*
X02374*
X02369Y04165*
Y04171*
X02374Y04177*
X02369Y04183*
Y04189*
X02374Y04177D02*
X02386D01*
X0231Y0409D02*
Y04124D01*
X02327*
X02333Y04119*
Y04107*
X02327Y04101*
X0231*
X02321D02*
X02333Y0409D01*
X02344D02*
X02356D01*
X0235*
Y04124*
X02344Y04119*
X02374Y04124D02*
X02397D01*
Y04119*
X02374Y04095*
Y0409*
X02303Y04013D02*
Y04048D01*
X0232*
X02326Y04042*
Y0403*
X0232Y04024*
X02303*
X02314D02*
X02326Y04013D01*
X02338D02*
X02349D01*
X02343*
Y04048*
X02338Y04042*
X0239Y04048D02*
X02378Y04042D01*
X02367Y0403*
Y04019*
X02373Y04013*
X02384*
X0239Y04019*
Y04024*
X02384Y0403*
X02367*
X03275Y0449D02*
Y04524D01*
X03292*
X03298Y04519*
Y04507*
X03292Y04501*
X03275*
X03286D02*
X03298Y0449D01*
X03309D02*
X03321D01*
X03315*
Y04524*
X03309Y04519*
X03362Y04524D02*
X03339D01*
Y04507*
X0335Y04513*
X03356*
X03362Y04507*
Y04495*
X03356Y0449*
X03344*
X03339Y04495*
X03265Y0455D02*
Y04584D01*
X03282*
X03288Y04579*
Y04567*
X03282Y04561*
X03265*
X03276D02*
X03288Y0455D01*
X03299D02*
X03311D01*
X03305*
Y04584*
X03299Y04579*
X03346Y0455D02*
Y04584D01*
X03329Y04567*
X03352*
X02861Y04555D02*
Y04589D01*
X02879*
X02885Y04584*
Y04572*
X02879Y04566*
X02861*
X02873D02*
X02885Y04555D01*
X02896D02*
X02908D01*
X02902*
Y04589*
X02896Y04584*
X02925D02*
X02931Y04589D01*
X02943*
X02949Y04584*
Y04578*
X02943Y04572*
X02937*
X02943*
X02949Y04566*
Y0456*
X02943Y04555*
X02931*
X02925Y0456*
X03805Y03966D02*
Y04001D01*
X03822*
X03828Y03995*
Y03984*
X03822Y03978*
X03805*
X03816D02*
X03828Y03966D01*
X0384D02*
X03851D01*
X03845*
Y04001*
X0384Y03995*
X03892Y03966D02*
X03869D01*
X03892Y03989*
Y03995*
X03886Y04001*
X03875*
X03869Y03995*
X0381Y04051D02*
Y04086D01*
X03827*
X03833Y0408*
Y04069*
X03827Y04063*
X0381*
X03821D02*
X03833Y04051D01*
X03844D02*
X03856D01*
X0385*
Y04086*
X03844Y0408*
X03874Y04051D02*
X03885D01*
X03879*
Y04086*
X03874Y0408*
X0381Y04146D02*
Y04181D01*
X03827*
X03833Y04175*
Y04163*
X03827Y04157*
X0381*
X03821D02*
X03833Y04146D01*
X03844D02*
X03856D01*
X0385*
Y04181*
X03844Y04175*
X03874D02*
X03879Y04181D01*
X03891*
X03897Y04175*
Y04151*
X03891Y04146*
X03879*
X03874Y04151*
Y04175*
X04345Y0306D02*
Y03094D01*
X04362*
X04368Y03089*
Y03077*
X04362Y03071*
X04345*
X04356D02*
X04368Y0306D01*
X04379Y03065D02*
X04385Y0306D01*
X04397*
X04403Y03065*
Y03089*
X04397Y03094*
X04385*
X04379Y03089*
Y03083*
X04385Y03077*
X04403*
X04345Y0314D02*
Y03174D01*
X04362*
X04368Y03169*
Y03157*
X04362Y03151*
X04345*
X04356D02*
X04368Y0314D01*
X04379Y03169D02*
X04385Y03174D01*
X04397*
X04403Y03169*
Y03163*
X04397Y03157*
X04403Y03151*
Y03145*
X04397Y0314*
X04385*
X04379Y03145*
Y03151*
X04385Y03157*
X04379Y03163*
Y03169*
X04385Y03157D02*
X04397D01*
X04348Y03225D02*
Y03259D01*
X04365*
X04371Y03254*
Y03242*
X04365Y03236*
X04348*
X0436D02*
X04371Y03225D01*
X04383Y03259D02*
X04406D01*
Y03254*
X04383Y0323*
Y03225*
X02805Y0193D02*
Y01964D01*
X02822*
X02828Y01959*
Y01947*
X02822Y01941*
X02805*
X02816D02*
X02828Y0193D01*
X02863Y01964D02*
X02851Y01959D01*
X02839Y01947*
Y01935*
X02845Y0193*
X02857*
X02863Y01935*
Y01941*
X02857Y01947*
X02839*
X02503Y01953D02*
Y01976D01*
X02497Y01982*
X02485*
X0248Y01976*
Y01953*
X02485Y01947*
X02497*
X02491Y01959D02*
X02503Y01947D01*
X02497D02*
X02503Y01953D01*
X02514Y01976D02*
X0252Y01982D01*
X02532*
X02538Y01976*
Y0197*
X02532Y01964*
X02526*
X02532*
X02538Y01959*
Y01953*
X02532Y01947*
X0252*
X02514Y01953*
X02618Y02145D02*
Y02169D01*
X02612Y02174*
X026*
X02595Y02169*
Y02145*
X026Y0214*
X02612*
X02606Y02151D02*
X02618Y0214D01*
X02612D02*
X02618Y02145D01*
X02653Y0214D02*
X02629D01*
X02653Y02163*
Y02169*
X02647Y02174*
X02635*
X02629Y02169*
X02858Y01865D02*
Y01889D01*
X02852Y01894*
X0284*
X02835Y01889*
Y01865*
X0284Y0186*
X02852*
X02846Y01871D02*
X02858Y0186D01*
X02852D02*
X02858Y01865D01*
X02869Y0186D02*
X02881D01*
X02875*
Y01894*
X02869Y01889*
X03275Y03008D02*
Y02974D01*
X03298*
X03333Y03003D02*
X03327Y03008D01*
X03315*
X03309Y03003*
Y02997*
X03315Y02991*
X03327*
X03333Y02985*
Y02979*
X03327Y02974*
X03315*
X03309Y02979*
X03344Y02974D02*
X03356D01*
X0335*
Y03008*
X03344Y03003*
X03449Y03228D02*
Y03193D01*
X03472*
X03484D02*
X03496D01*
X0349*
Y03228*
X03484Y03222*
X0292Y02176D02*
X02908D01*
X02914*
Y02147*
X02908Y02142*
X02902*
X02897Y02147*
X02955Y02142D02*
X02931D01*
X02955Y02165*
Y02171*
X02949Y02176*
X02937*
X02931Y02171*
X02858Y04464D02*
X02846D01*
X02852*
Y04435*
X02846Y0443*
X0284*
X02835Y04435*
X02869Y0443D02*
X02881D01*
X02875*
Y04464*
X02869Y04459*
X04215Y02237D02*
Y02202D01*
X04232*
X04238Y02208*
Y02231*
X04232Y02237*
X04215*
X04273Y02231D02*
X04267Y02237D01*
X04256*
X0425Y02231*
Y02225*
X04256Y02219*
X04267*
X04273Y02214*
Y02208*
X04267Y02202*
X04256*
X0425Y02208*
X04285Y02231D02*
X04291Y02237D01*
X04302*
X04308Y02231*
Y02225*
X04302Y02219*
X04308Y02214*
Y02208*
X04302Y02202*
X04291*
X04285Y02208*
Y02214*
X04291Y02219*
X04285Y02225*
Y02231*
X04291Y02219D02*
X04302D01*
X03275Y01699D02*
Y01665D01*
X03292*
X03298Y0167*
Y01694*
X03292Y01699*
X03275*
X03333Y01694D02*
X03327Y01699D01*
X03315*
X03309Y01694*
Y01688*
X03315Y01682*
X03327*
X03333Y01676*
Y0167*
X03327Y01665*
X03315*
X03309Y0167*
X03344Y01699D02*
X03368D01*
Y01694*
X03344Y0167*
Y01665*
X01935Y02259D02*
Y02225D01*
X01952*
X01958Y0223*
Y02254*
X01952Y02259*
X01935*
X01993Y02254D02*
X01987Y02259D01*
X01975*
X01969Y02254*
Y02248*
X01975Y02242*
X01987*
X01993Y02236*
Y0223*
X01987Y02225*
X01975*
X01969Y0223*
X02028Y02259D02*
X02016Y02254D01*
X02004Y02242*
Y0223*
X0201Y02225*
X02022*
X02028Y0223*
Y02236*
X02022Y02242*
X02004*
X01606Y03348D02*
Y03314D01*
X01623*
X01629Y03319*
Y03343*
X01623Y03348*
X01606*
X01664Y03343D02*
X01658Y03348D01*
X01646*
X0164Y03343*
Y03337*
X01646Y03331*
X01658*
X01664Y03325*
Y03319*
X01658Y03314*
X01646*
X0164Y03319*
X01699Y03348D02*
X01675D01*
Y03331*
X01687Y03337*
X01693*
X01699Y03331*
Y03319*
X01693Y03314*
X01681*
X01675Y03319*
X01879Y04081D02*
Y04046D01*
X01896*
X01902Y04052*
Y04075*
X01896Y04081*
X01879*
X01937Y04075D02*
X01931Y04081D01*
X01919*
X01914Y04075*
Y0407*
X01919Y04064*
X01931*
X01937Y04058*
Y04052*
X01931Y04046*
X01919*
X01914Y04052*
X01966Y04046D02*
Y04081D01*
X01948Y04064*
X01972*
X02885Y04654D02*
Y0462D01*
X02902*
X02908Y04625*
Y04649*
X02902Y04654*
X02885*
X02943Y04649D02*
X02937Y04654D01*
X02925*
X02919Y04649*
Y04643*
X02925Y04637*
X02937*
X02943Y04631*
Y04625*
X02937Y0462*
X02925*
X02919Y04625*
X02954Y04649D02*
X0296Y04654D01*
X02972*
X02978Y04649*
Y04643*
X02972Y04637*
X02966*
X02972*
X02978Y04631*
Y04625*
X02972Y0462*
X0296*
X02954Y04625*
X04241Y04043D02*
Y04008D01*
X04259*
X04265Y04014*
Y04037*
X04259Y04043*
X04241*
X043Y04037D02*
X04294Y04043D01*
X04282*
X04276Y04037*
Y04032*
X04282Y04026*
X04294*
X043Y0402*
Y04014*
X04294Y04008*
X04282*
X04276Y04014*
X04335Y04008D02*
X04311D01*
X04335Y04032*
Y04037*
X04329Y04043*
X04317*
X04311Y04037*
X04553Y03329D02*
Y03295D01*
X0457*
X04576Y033*
Y03324*
X0457Y03329*
X04553*
X04611Y03324D02*
X04605Y03329D01*
X04594*
X04588Y03324*
Y03318*
X04594Y03312*
X04605*
X04611Y03306*
Y033*
X04605Y03295*
X04594*
X04588Y033*
X04623Y03295D02*
X04635D01*
X04629*
Y03329*
X04623Y03324*
X03326Y0339D02*
X0332Y03396D01*
X03308*
X03302Y0339*
Y03367*
X03308Y03361*
X0332*
X03326Y03367*
X03337Y03361D02*
X03349D01*
X03343*
Y03396*
X03337Y0339*
X03366D02*
X03372Y03396D01*
X03384*
X0339Y0339*
Y03385*
X03384Y03379*
X03378*
X03384*
X0339Y03373*
Y03367*
X03384Y03361*
X03372*
X03366Y03367*
X03208Y03392D02*
X03202Y03398D01*
X0319*
X03185Y03392*
Y03369*
X0319Y03363*
X03202*
X03208Y03369*
X03219Y03363D02*
X03231D01*
X03225*
Y03398*
X03219Y03392*
X03272Y03363D02*
X03249D01*
X03272Y03386*
Y03392*
X03266Y03398*
X03254*
X03249Y03392*
X03198Y04132D02*
X03192Y04138D01*
X0318*
X03175Y04132*
Y04109*
X0318Y04103*
X03192*
X03198Y04109*
X03209Y04103D02*
X03221D01*
X03215*
Y04138*
X03209Y04132*
X03239Y04103D02*
X0325D01*
X03244*
Y04138*
X03239Y04132*
M02*