%FSTAX23Y23*%
%MOIN*%
%SFA1B1*%

%IPPOS*%
%ADD9500C,0.020000*%
%ADD9501C,0.040000*%
%ADD9502C,0.059060*%
%LNspeakeasy_audio-1*%
%LPD*%
G54D9500*
X03348Y01786D03*
X03415Y01756D03*
X0393Y0192D03*
X04055Y02055D03*
X0412Y0201D03*
X0413Y0218D03*
X04125Y0291D03*
X0412Y02975D03*
X0406D03*
X04558Y0299D03*
X046Y0302D03*
X04645Y03025D03*
X03595Y02635D03*
X0364Y02515D03*
X0342Y0252D03*
X03335Y02631D03*
X0282Y02551D03*
X027Y0238D03*
X02625Y0233D03*
X02515Y0224D03*
X02571Y0248D03*
X0255Y02635D03*
X02315Y02535D03*
X0224Y02675D03*
X0218Y02855D03*
X01978Y0274D03*
X02028Y02605D03*
X0202Y0229D03*
X02005Y0219D03*
X02059Y02185D03*
X02355Y02025D03*
X0242Y01935D03*
X0247Y0186D03*
X02766Y01826D03*
X02909Y01865D03*
X02995Y017D03*
X0302Y0166D03*
X02535Y0307D03*
X0204Y03075D03*
X0178Y03015D03*
X01745Y02965D03*
X0166Y0329D03*
X01705Y0334D03*
X01978Y03315D03*
X01988Y0349D03*
X0219Y03305D03*
X02195Y03165D03*
X02405Y03245D03*
X02406Y0333D03*
X02592Y0332D03*
X02643Y03355D03*
X02737Y03315D03*
X02643Y03185D03*
X02867Y03462D03*
X02642Y03685D03*
X02475Y03769D03*
X02285Y03828D03*
X02077Y04015D03*
X02205Y0431D03*
X0227D03*
X02335Y04308D03*
X02628Y04306D03*
X0276Y0439D03*
X02912Y04505D03*
X02995Y0456D03*
X0256Y04525D03*
X0294Y04075D03*
X0305Y0409D03*
X02949Y03955D03*
X0304Y0386D03*
X03255Y03585D03*
X03485Y0362D03*
X03555D03*
X0363D03*
X0378Y036D03*
X0377Y03745D03*
X0365Y03805D03*
X0361Y03818D03*
X03525Y0403D03*
X03529Y04095D03*
X03374Y04145D03*
X03729Y04155D03*
X03769Y0402D03*
X03965Y0426D03*
X0393Y04334D03*
X039Y04399D03*
X0359Y04578D03*
X03375Y0459D03*
X03344Y04635D03*
X03299Y03265D03*
X03375Y03245D03*
X03765Y03255D03*
X03745Y0339D03*
X04519Y03319D03*
X0429Y0412D03*
G54D9501*
X03149Y01968D03*
Y02068D03*
X03249D03*
X03349D03*
Y01973D03*
X03249Y01968D03*
X03049D03*
Y02068D03*
X02949D03*
Y01968D03*
Y0433D03*
X03049D03*
Y0443D03*
X02949D03*
X03149D03*
Y0433D03*
X03249D03*
Y0443D03*
X03349D03*
Y04335D03*
G54D9502*
X03324Y02895D03*
X03824D03*
M02*