%TF.GenerationSoftware,Altium Limited,Altium Designer,18.1.6 (161)*%
G04 Layer_Color=255*
%FSLAX26Y26*%
%MOIN*%
%TF.FileFunction,Pads,Bot*%
%TF.Part,Single*%
G01*
G75*
%TA.AperFunction,SMDPad,CuDef*%
%ADD11R,0.027559X0.035433*%
%ADD13R,0.039370X0.035433*%
%ADD16R,0.053150X0.037402*%
%ADD17R,0.035433X0.039370*%
%ADD22R,0.035433X0.027559*%
%TA.AperFunction,ComponentPad*%
%ADD34C,0.050000*%
%TA.AperFunction,SMDPad,CuDef*%
%ADD37R,0.043307X0.043307*%
%ADD38R,0.092520X0.086614*%
D11*
X3563346Y3045000D02*
D03*
X3508228D02*
D03*
X3994134Y3089350D02*
D03*
X4049252D02*
D03*
X3994134Y3153878D02*
D03*
X4049252D02*
D03*
X3592441Y3300000D02*
D03*
X3647559D02*
D03*
D13*
X2772165Y3308504D02*
D03*
Y3371496D02*
D03*
X2634370Y3313504D02*
D03*
Y3376496D02*
D03*
X2820000Y2986496D02*
D03*
Y2923504D02*
D03*
X2470000Y3298504D02*
D03*
Y3361496D02*
D03*
X4285000Y3542480D02*
D03*
Y3479488D02*
D03*
X4120000Y3542480D02*
D03*
Y3479488D02*
D03*
X4200000Y3542480D02*
D03*
Y3479488D02*
D03*
D16*
X2015000Y2491496D02*
D03*
Y2428504D02*
D03*
D17*
X2426496Y2913385D02*
D03*
X2363504D02*
D03*
D22*
X2811220Y2742559D02*
D03*
Y2687441D02*
D03*
X2870000Y2742559D02*
D03*
Y2687441D02*
D03*
X3730000Y3307559D02*
D03*
Y3252441D02*
D03*
D34*
X2297132Y4237132D02*
D03*
X2367843Y4166421D02*
D03*
X2014289Y3812868D02*
D03*
X2085000Y3883579D02*
D03*
X2155711Y3954289D02*
D03*
X2226421Y4025000D02*
D03*
X2293597Y4099246D02*
D03*
X2226421Y4166421D02*
D03*
X2155711Y4095711D02*
D03*
X2085000Y4025000D02*
D03*
X2014289Y3954289D02*
D03*
X1943579Y3883579D02*
D03*
X2949606Y4330709D02*
D03*
X3049606D02*
D03*
X3149606D02*
D03*
X3249606D02*
D03*
X3349606Y4335709D02*
D03*
Y4430709D02*
D03*
X3249606D02*
D03*
X3149606D02*
D03*
X3049606D02*
D03*
X2949606D02*
D03*
X1868504Y2949606D02*
D03*
Y3049606D02*
D03*
Y3149606D02*
D03*
Y3249606D02*
D03*
Y3349606D02*
D03*
X1963504D02*
D03*
X1968504Y3249606D02*
D03*
Y3149606D02*
D03*
Y3049606D02*
D03*
Y2949606D02*
D03*
X2949606Y1968504D02*
D03*
X3049606D02*
D03*
X3149606D02*
D03*
X3249606D02*
D03*
X3349606Y1973504D02*
D03*
Y2068504D02*
D03*
X3249606D02*
D03*
X3149606D02*
D03*
X3049606D02*
D03*
X2949606D02*
D03*
X4230709Y2949606D02*
D03*
Y3049606D02*
D03*
Y3149606D02*
D03*
Y3249606D02*
D03*
Y3349606D02*
D03*
X4325709D02*
D03*
X4330709Y3249606D02*
D03*
Y3149606D02*
D03*
Y3049606D02*
D03*
Y2949606D02*
D03*
D37*
X2776102Y3540000D02*
D03*
X2846968D02*
D03*
D38*
X3980000Y3424843D02*
D03*
Y3655157D02*
D03*
%TF.MD5,adacab45edf1a4bf775ba5f196268ef9*%
M02*
