%TF.GenerationSoftware,Altium Limited,Altium Designer,18.1.6 (161)*%
G04 Layer_Color=16711935*
%FSLAX26Y26*%
%MOIN*%
%TF.FileFunction,Other,Mechanical_13*%
%TF.Part,Single*%
G01*
G75*
%TA.AperFunction,NonConductor*%
%ADD53C,0.003937*%
%ADD71C,0.001968*%
D53*
X4112874Y2467992D02*
G03*
X4112874Y2467992I-19685J0D01*
G01*
X2854843Y3389843D02*
G03*
X2854843Y3389843I-19685J0D01*
G01*
X3592165Y3102638D02*
G03*
X3592165Y3102638I-19685J0D01*
G01*
X1986457Y2416693D02*
Y2503307D01*
X2043543Y2416693D02*
Y2503307D01*
X1986457D02*
X2043543D01*
X1986457Y2416693D02*
X2043543D01*
X3091535Y3221299D02*
X3158465D01*
X3091535Y3258701D02*
X3158465D01*
Y3221299D02*
Y3258701D01*
X3091535Y3221299D02*
Y3258701D01*
X3211535Y2749685D02*
X3278465D01*
X3211535Y2787086D02*
X3278465D01*
Y2749685D02*
Y2787086D01*
X3211535Y2749685D02*
Y2787086D01*
Y2860630D02*
X3278465D01*
X3211535Y2898031D02*
X3278465D01*
Y2860630D02*
Y2898031D01*
X3211535Y2860630D02*
Y2898031D01*
Y2971575D02*
X3278465D01*
X3211535Y3008976D02*
X3278465D01*
Y2971575D02*
Y3008976D01*
X3211535Y2971575D02*
Y3008976D01*
Y3082519D02*
X3278465D01*
X3211535Y3119921D02*
X3278465D01*
Y3082519D02*
Y3119921D01*
X3211535Y3082519D02*
Y3119921D01*
Y3193464D02*
X3278465D01*
X3211535Y3230866D02*
X3278465D01*
Y3193464D02*
Y3230866D01*
X3211535Y3193464D02*
Y3230866D01*
Y3304409D02*
X3278465D01*
X3211535Y3341811D02*
X3278465D01*
Y3304409D02*
Y3341811D01*
X3211535Y3304409D02*
Y3341811D01*
Y3526299D02*
X3278465D01*
X3211535Y3563701D02*
X3278465D01*
Y3526299D02*
Y3563701D01*
X3211535Y3526299D02*
Y3563701D01*
Y3415354D02*
X3278465D01*
X3211535Y3452756D02*
X3278465D01*
Y3415354D02*
Y3452756D01*
X3211535Y3415354D02*
Y3452756D01*
X3762717Y3516535D02*
Y3583465D01*
X3727284Y3516535D02*
Y3583465D01*
X3762717D01*
X3727284Y3516535D02*
X3762717D01*
X3826299Y3501535D02*
X3863701D01*
X3826299Y3568465D02*
X3863701D01*
X3826299Y3501535D02*
Y3568465D01*
X3863701Y3501535D02*
Y3568465D01*
X4456535Y3250000D02*
X4523465D01*
X4456535Y3285433D02*
X4523465D01*
Y3250000D02*
Y3285433D01*
X4456535Y3250000D02*
Y3285433D01*
X4457126Y3131889D02*
X4524055D01*
X4457126Y3167323D02*
X4524055D01*
Y3131889D02*
Y3167323D01*
X4457126Y3131889D02*
Y3167323D01*
X3587402Y2236535D02*
X3624803D01*
X3587402Y2303465D02*
X3624803D01*
X3587402Y2236535D02*
Y2303465D01*
X3624803Y2236535D02*
Y2303465D01*
X3629608Y2055630D02*
Y2134370D01*
X3580395Y2055630D02*
Y2134370D01*
X3629608D01*
X3580395Y2055630D02*
X3629608D01*
X3580394Y2122559D02*
X3629606D01*
X3580394Y2067441D02*
X3629606D01*
X1675000Y2938307D02*
X1732086D01*
X1675000Y2851693D02*
X1732086D01*
Y2938307D01*
X1675000Y2851693D02*
Y2938307D01*
X2777086Y3521299D02*
X2845984D01*
X2777086Y3558701D02*
X2845984D01*
X2777086Y3521299D02*
Y3558701D01*
X2845984Y3521299D02*
Y3558701D01*
X2626535Y2703701D02*
X2693465D01*
X2626535Y2666299D02*
X2693465D01*
X2626535D02*
Y2703701D01*
X2693465Y2666299D02*
Y2703701D01*
X2670630Y2619608D02*
X2749370D01*
X2670630Y2570395D02*
X2749370D01*
X2670630D02*
Y2619608D01*
X2749370Y2570395D02*
Y2619608D01*
X2682441Y2570394D02*
Y2619606D01*
X2737559Y2570394D02*
Y2619606D01*
X2578899Y2588150D02*
Y2666890D01*
X2529687Y2588150D02*
Y2666890D01*
X2578899D01*
X2529687Y2588150D02*
X2578899D01*
X2529685Y2655079D02*
X2578898D01*
X2529685Y2599961D02*
X2578898D01*
X2508701Y2675039D02*
Y2741969D01*
X2471299Y2675039D02*
Y2741969D01*
X2508701D01*
X2471299Y2675039D02*
X2508701D01*
X4091693Y2223425D02*
Y2276575D01*
X4178307Y2223425D02*
Y2276575D01*
X4091693D02*
X4178307D01*
X4091693Y2223425D02*
X4178307D01*
X4373425Y2456693D02*
X4426575D01*
X4373425Y2543307D02*
X4426575D01*
X4373425Y2456693D02*
Y2543307D01*
X4426575Y2456693D02*
Y2543307D01*
X4373425Y2336693D02*
X4426575D01*
X4373425Y2423307D02*
X4426575D01*
X4373425Y2336693D02*
Y2423307D01*
X4426575Y2336693D02*
Y2423307D01*
X4059724Y2308543D02*
X4213268D01*
X4059724Y2501457D02*
X4213268D01*
Y2308543D02*
Y2501457D01*
X4059724Y2308543D02*
Y2501457D01*
X4028425Y2623307D02*
X4081575D01*
X4028425Y2536693D02*
X4081575D01*
Y2623307D01*
X4028425Y2536693D02*
Y2623307D01*
X4123425Y2623307D02*
X4176575D01*
X4123425Y2536693D02*
X4176575D01*
Y2623307D01*
X4123425Y2536693D02*
Y2623307D01*
X4218425D02*
X4271575D01*
X4218425Y2536693D02*
X4271575D01*
Y2623307D01*
X4218425Y2536693D02*
Y2623307D01*
X3683858Y2796535D02*
Y2863465D01*
X3646457Y2796535D02*
Y2863465D01*
X3683858D01*
X3646457Y2796535D02*
X3683858D01*
X2690591Y3772520D02*
X3139409D01*
Y3587480D02*
Y3772520D01*
X2690591Y3587480D02*
Y3772520D01*
Y3587480D02*
X3139409D01*
X2965551Y3791299D02*
Y3828701D01*
X3034449Y3791299D02*
Y3828701D01*
X2965551D02*
X3034449D01*
X2965551Y3791299D02*
X3034449D01*
X2834449Y3791299D02*
Y3828701D01*
X2765551Y3791299D02*
Y3828701D01*
Y3791299D02*
X2834449D01*
X2765551Y3828701D02*
X2834449D01*
X2051299Y2631535D02*
Y2698465D01*
X2088701Y2631535D02*
Y2698465D01*
X2051299Y2631535D02*
X2088701D01*
X2051299Y2698465D02*
X2088701D01*
X2408701Y3876535D02*
Y3943465D01*
X2371299Y3876535D02*
Y3943465D01*
X2408701D01*
X2371299Y3876535D02*
X2408701D01*
X2534961D02*
Y3943465D01*
X2497559Y3876535D02*
Y3943465D01*
X2534961D01*
X2497559Y3876535D02*
X2534961D01*
X4022284Y3246535D02*
X4057717D01*
X4022284Y3313465D02*
X4057717D01*
X4022284Y3246535D02*
Y3313465D01*
X4057717Y3246535D02*
Y3313465D01*
X2753465Y3305551D02*
X2790866D01*
X2753465Y3374449D02*
X2790866D01*
Y3305551D02*
Y3374449D01*
X2753465Y3305551D02*
Y3374449D01*
X2615669Y3310551D02*
X2653071D01*
X2615669Y3379449D02*
X2653071D01*
Y3310551D02*
Y3379449D01*
X2615669Y3310551D02*
Y3379449D01*
X2801299Y2989449D02*
X2838701D01*
X2801299Y2920551D02*
X2838701D01*
X2801299D02*
Y2989449D01*
X2838701Y2920551D02*
Y2989449D01*
X2451299Y3295551D02*
X2488701D01*
X2451299Y3364449D02*
X2488701D01*
Y3295551D02*
Y3364449D01*
X2451299Y3295551D02*
Y3364449D01*
X2429449Y2894685D02*
Y2932086D01*
X2360551Y2894685D02*
Y2932086D01*
X2429449D01*
X2360551Y2894685D02*
X2429449D01*
X1758110Y2747835D02*
X2021890D01*
X1758110Y2602165D02*
X2021890D01*
Y2747835D01*
X1758110Y2602165D02*
Y2747835D01*
X3570236Y3026299D02*
Y3063701D01*
X3501338Y3026299D02*
Y3063701D01*
X3570236D01*
X3501338Y3026299D02*
X3570236D01*
X3962284Y3246535D02*
X3997717D01*
X3962284Y3313465D02*
X3997717D01*
X3962284Y3246535D02*
Y3313465D01*
X3997717Y3246535D02*
Y3313465D01*
X2296299Y2703465D02*
X2333701D01*
X2296299Y2636535D02*
X2333701D01*
Y2703465D01*
X2296299Y2636535D02*
Y2703465D01*
X2211299D02*
X2248701D01*
X2211299Y2636535D02*
X2248701D01*
Y2703465D01*
X2211299Y2636535D02*
Y2703465D01*
X4086299Y3313465D02*
X4123701D01*
X4086299Y3246535D02*
X4123701D01*
Y3313465D01*
X4086299Y3246535D02*
Y3313465D01*
X4091299Y3078465D02*
X4128701D01*
X4091299Y3011535D02*
X4128701D01*
Y3078465D01*
X4091299Y3011535D02*
Y3078465D01*
X4091299Y2901535D02*
X4128701D01*
X4091299Y2968465D02*
X4128701D01*
X4091299Y2901535D02*
Y2968465D01*
X4128701Y2901535D02*
Y2968465D01*
X4086299Y3138976D02*
X4123701D01*
X4086299Y3205905D02*
X4123701D01*
X4086299Y3138976D02*
Y3205905D01*
X4123701Y3138976D02*
Y3205905D01*
X2306299Y3876535D02*
X2343701D01*
X2306299Y3943465D02*
X2343701D01*
X2306299Y3876535D02*
Y3943465D01*
X2343701Y3876535D02*
Y3943465D01*
X2792520Y2680551D02*
Y2749449D01*
X2829921Y2680551D02*
Y2749449D01*
X2792520D02*
X2829921D01*
X2792520Y2680551D02*
X2829921D01*
X2851299D02*
Y2749449D01*
X2888701Y2680551D02*
Y2749449D01*
X2851299D02*
X2888701D01*
X2851299Y2680551D02*
X2888701D01*
X1766299Y3326535D02*
Y3393465D01*
X1803701Y3326535D02*
Y3393465D01*
X1766299Y3326535D02*
X1803701D01*
X1766299Y3393465D02*
X1803701D01*
X2319409Y3425276D02*
X2870590D01*
X2319409Y2874094D02*
X2870590D01*
Y3425276D01*
X2319409Y2874094D02*
Y3425276D01*
X3987244Y3070649D02*
Y3108051D01*
X4056142Y3070649D02*
Y3108051D01*
X3987244Y3070649D02*
X4056142D01*
X3987244Y3108051D02*
X4056142D01*
X3987244Y3135177D02*
Y3172579D01*
X4056142Y3135177D02*
Y3172579D01*
X3987244Y3135177D02*
X4056142D01*
X3987244Y3172579D02*
X4056142D01*
X3711299Y3314449D02*
X3748701D01*
X3711299Y3245551D02*
X3748701D01*
X3711299D02*
Y3314449D01*
X3748701Y3245551D02*
Y3314449D01*
X3585551Y3281299D02*
Y3318701D01*
X3654449Y3281299D02*
Y3318701D01*
X3585551Y3281299D02*
X3654449D01*
X3585551Y3318701D02*
X3654449D01*
X4266299Y3545433D02*
X4303701D01*
X4266299Y3476535D02*
X4303701D01*
X4266299D02*
Y3545433D01*
X4303701Y3476535D02*
Y3545433D01*
X3889449Y3390394D02*
X4070551D01*
X3889449Y3689606D02*
X4070551D01*
Y3390394D02*
Y3689606D01*
X3889449Y3390394D02*
Y3689606D01*
X4101299Y3545433D02*
X4138701D01*
X4101299Y3476535D02*
X4138701D01*
X4101299D02*
Y3545433D01*
X4138701Y3476535D02*
Y3545433D01*
X4181299D02*
X4218701D01*
X4181299Y3476535D02*
X4218701D01*
X4181299D02*
Y3545433D01*
X4218701Y3476535D02*
Y3545433D01*
X2436299Y3614449D02*
X2473701D01*
X2436299Y3545551D02*
X2473701D01*
Y3614449D01*
X2436299Y3545551D02*
Y3614449D01*
X2150551Y3361299D02*
Y3398701D01*
X2219449Y3361299D02*
Y3398701D01*
X2150551D02*
X2219449D01*
X2150551Y3361299D02*
X2219449D01*
X1645787Y3382165D02*
X1744213D01*
X1645787Y3264055D02*
X1744213D01*
X1645787D02*
Y3382165D01*
X1744213Y3264055D02*
Y3382165D01*
X3812638Y3067205D02*
Y3342795D01*
X3537047Y3067205D02*
Y3342795D01*
X3812638D01*
X3537047Y3067205D02*
X3812638D01*
X3757283Y2858465D02*
X3792716D01*
X3757283Y2791535D02*
X3792716D01*
Y2858465D01*
X3757283Y2791535D02*
Y2858465D01*
X3365591Y3622480D02*
X3814409D01*
X3365591D02*
Y3807520D01*
X3814409Y3622480D02*
Y3807520D01*
X3365591D02*
X3814409D01*
X3384291Y3929449D02*
X3421693D01*
X3384291Y3860551D02*
X3421693D01*
Y3929449D01*
X3384291Y3860551D02*
Y3929449D01*
X3756299Y3939449D02*
X3793701D01*
X3756299Y3870551D02*
X3793701D01*
Y3939449D01*
X3756299Y3870551D02*
Y3939449D01*
D71*
X3044921Y3607165D02*
G03*
X3044921Y3752835I0J72835D01*
G01*
X2785079D02*
G03*
X2785079Y3607165I0J-72835D01*
G01*
X3460079Y3787835D02*
G03*
X3460079Y3642165I0J-72835D01*
G01*
X3719921D02*
G03*
X3719921Y3787835I0J72835D01*
G01*
X2785079Y3607165D02*
X3044921D01*
X2785079Y3752835D02*
X3044921D01*
X3460079Y3787835D02*
X3719921D01*
X3460079Y3642165D02*
X3719921D01*
%TF.MD5,f5971b987d0236d171fd7e6f5b1c6bbc*%
M02*
