%TF.GenerationSoftware,Altium Limited,Altium Designer,18.1.6 (161)*%
G04 Layer_Color=32896*
%FSLAX26Y26*%
%MOIN*%
%TF.FileFunction,Legend,Bot*%
%TF.Part,Single*%
G01*
G75*
%TA.AperFunction,NonConductor*%
%ADD39C,0.007874*%
%ADD40C,0.015748*%
%ADD41C,0.003000*%
%ADD42C,0.007000*%
D39*
X1992362Y2458032D02*
Y2461969D01*
X2037638Y2458032D02*
Y2461969D01*
X2809567Y3522284D02*
X2813504D01*
X2809567Y3557717D02*
X2813504D01*
X2787913Y3338032D02*
Y3341969D01*
X2756417Y3338032D02*
Y3341969D01*
X2650118Y3343032D02*
Y3346969D01*
X2618622Y3343032D02*
Y3346969D01*
X2804252Y2953031D02*
Y2956968D01*
X2835748Y2953031D02*
Y2956968D01*
X2485748Y3328032D02*
Y3331969D01*
X2454252Y3328032D02*
Y3331969D01*
X2393031Y2929133D02*
X2396968D01*
X2393031Y2897637D02*
X2396968D01*
X3533819Y3058780D02*
X3537756D01*
X3533819Y3031220D02*
X3537756D01*
X2797441Y2713032D02*
Y2716969D01*
X2825000Y2713032D02*
Y2716969D01*
X2856220Y2713032D02*
Y2716969D01*
X2883780Y2713032D02*
Y2716969D01*
X4019725Y3075571D02*
X4023662D01*
X4019725Y3103130D02*
X4023662D01*
X4019725Y3140098D02*
X4023662D01*
X4019725Y3167657D02*
X4023662D01*
X3716220Y3278031D02*
Y3281968D01*
X3743780Y3278031D02*
Y3281968D01*
X3618032Y3286220D02*
X3621969D01*
X3618032Y3313780D02*
X3621969D01*
X4269252Y3509016D02*
Y3512953D01*
X4300748Y3509016D02*
Y3512953D01*
X4070551Y3390394D02*
Y3689606D01*
X3889449Y3390394D02*
Y3689606D01*
X4042008Y3390394D02*
X4070551D01*
X4042008Y3689606D02*
X4070551D01*
X3889449Y3390394D02*
X3917992D01*
X3889449Y3689606D02*
X3917992D01*
X4104252Y3509016D02*
Y3512953D01*
X4135748Y3509016D02*
Y3512953D01*
X4184252Y3509016D02*
Y3512953D01*
X4215748Y3509016D02*
Y3512953D01*
D40*
X3889449Y3361850D02*
X4070551D01*
D41*
X1833504Y3389606D02*
X2008504D01*
X1833504Y2909606D02*
Y3389606D01*
Y2909606D02*
X2008504D01*
Y3389606D01*
X4195709D02*
X4370709D01*
X4195709Y2909606D02*
Y3389606D01*
Y2909606D02*
X4370709D01*
Y3389606D01*
D42*
X2136674Y2479157D02*
X2142506Y2484989D01*
X2154169D01*
X2160000Y2479157D01*
Y2455831D01*
X2154169Y2450000D01*
X2142506D01*
X2136674Y2455831D01*
X2101686Y2450000D02*
X2125011D01*
X2101686Y2473326D01*
Y2479157D01*
X2107517Y2484989D01*
X2119180D01*
X2125011Y2479157D01*
X2066697Y2484989D02*
X2090023D01*
Y2467494D01*
X2078360Y2473326D01*
X2072528D01*
X2066697Y2467494D01*
Y2455831D01*
X2072528Y2450000D01*
X2084191D01*
X2090023Y2455831D01*
X3489115Y3322740D02*
X3494947Y3328571D01*
X3506610D01*
X3512441Y3322740D01*
Y3299414D01*
X3506610Y3293583D01*
X3494947D01*
X3489115Y3299414D01*
X3454126Y3293583D02*
X3477452D01*
X3454126Y3316909D01*
Y3322740D01*
X3459958Y3328571D01*
X3471621D01*
X3477452Y3322740D01*
X3442463Y3293583D02*
X3430801D01*
X3436632D01*
Y3328571D01*
X3442463Y3322740D01*
X3836674Y3269157D02*
X3842506Y3274989D01*
X3854169D01*
X3860000Y3269157D01*
Y3245831D01*
X3854169Y3240000D01*
X3842506D01*
X3836674Y3245831D01*
X3801686Y3240000D02*
X3825011D01*
X3801686Y3263326D01*
Y3269157D01*
X3807517Y3274989D01*
X3819180D01*
X3825011Y3269157D01*
X3790023D02*
X3784191Y3274989D01*
X3772528D01*
X3766697Y3269157D01*
Y3245831D01*
X3772528Y3240000D01*
X3784191D01*
X3790023Y3245831D01*
Y3269157D01*
X3441674Y3059157D02*
X3447506Y3064989D01*
X3459169D01*
X3465000Y3059157D01*
Y3035831D01*
X3459169Y3030000D01*
X3447506D01*
X3441674Y3035831D01*
X3430011Y3030000D02*
X3418348D01*
X3424180D01*
Y3064989D01*
X3430011Y3059157D01*
X3400854Y3035831D02*
X3395023Y3030000D01*
X3383360D01*
X3377528Y3035831D01*
Y3059157D01*
X3383360Y3064989D01*
X3395023D01*
X3400854Y3059157D01*
Y3053326D01*
X3395023Y3047494D01*
X3377528D01*
X3061674Y2754157D02*
X3067506Y2759989D01*
X3079169D01*
X3085000Y2754157D01*
Y2730831D01*
X3079169Y2725000D01*
X3067506D01*
X3061674Y2730831D01*
X3050011Y2725000D02*
X3038348D01*
X3044180D01*
Y2759989D01*
X3050011Y2754157D01*
X3020854D02*
X3015023Y2759989D01*
X3003360D01*
X2997528Y2754157D01*
Y2748326D01*
X3003360Y2742494D01*
X2997528Y2736663D01*
Y2730831D01*
X3003360Y2725000D01*
X3015023D01*
X3020854Y2730831D01*
Y2736663D01*
X3015023Y2742494D01*
X3020854Y2748326D01*
Y2754157D01*
X3015023Y2742494D02*
X3003360D01*
X3061674Y2674157D02*
X3067506Y2679989D01*
X3079169D01*
X3085000Y2674157D01*
Y2650831D01*
X3079169Y2645000D01*
X3067506D01*
X3061674Y2650831D01*
X3050011Y2645000D02*
X3038348D01*
X3044180D01*
Y2679989D01*
X3050011Y2674157D01*
X3020854Y2679989D02*
X2997528D01*
Y2674157D01*
X3020854Y2650831D01*
Y2645000D01*
X2946674Y3519157D02*
X2952506Y3524989D01*
X2964169D01*
X2970000Y3519157D01*
Y3495831D01*
X2964169Y3490000D01*
X2952506D01*
X2946674Y3495831D01*
X2935011Y3490000D02*
X2923348D01*
X2929180D01*
Y3524989D01*
X2935011Y3519157D01*
X2882528Y3524989D02*
X2894191Y3519157D01*
X2905854Y3507494D01*
Y3495831D01*
X2900023Y3490000D01*
X2888360D01*
X2882528Y3495831D01*
Y3501663D01*
X2888360Y3507494D01*
X2905854D01*
X2772674Y2897157D02*
X2778506Y2902989D01*
X2790169D01*
X2796000Y2897157D01*
Y2873831D01*
X2790169Y2868000D01*
X2778506D01*
X2772674Y2873831D01*
X2761011Y2868000D02*
X2749348D01*
X2755180D01*
Y2902989D01*
X2761011Y2897157D01*
X2731854D02*
X2726023Y2902989D01*
X2714360D01*
X2708528Y2897157D01*
Y2891326D01*
X2714360Y2885494D01*
X2720191D01*
X2714360D01*
X2708528Y2879663D01*
Y2873831D01*
X2714360Y2868000D01*
X2726023D01*
X2731854Y2873831D01*
X2772840Y3456157D02*
X2778671Y3461989D01*
X2790334D01*
X2796165Y3456157D01*
Y3432831D01*
X2790334Y3427000D01*
X2778671D01*
X2772840Y3432831D01*
X2761177Y3427000D02*
X2749514D01*
X2755345D01*
Y3461989D01*
X2761177Y3456157D01*
X2708694Y3427000D02*
X2732019D01*
X2708694Y3450326D01*
Y3456157D01*
X2714525Y3461989D01*
X2726188D01*
X2732019Y3456157D01*
X2635044Y3461157D02*
X2640876Y3466989D01*
X2652539D01*
X2658370Y3461157D01*
Y3437831D01*
X2652539Y3432000D01*
X2640876D01*
X2635044Y3437831D01*
X2623381Y3432000D02*
X2611718D01*
X2617550D01*
Y3466989D01*
X2623381Y3461157D01*
X2594224Y3432000D02*
X2582561D01*
X2588393D01*
Y3466989D01*
X2594224Y3461157D01*
X2470674Y3446157D02*
X2476506Y3451989D01*
X2488169D01*
X2494000Y3446157D01*
Y3422831D01*
X2488169Y3417000D01*
X2476506D01*
X2470674Y3422831D01*
X2459011Y3417000D02*
X2447348D01*
X2453180D01*
Y3451989D01*
X2459011Y3446157D01*
X2429854D02*
X2424023Y3451989D01*
X2412360D01*
X2406528Y3446157D01*
Y3422831D01*
X2412360Y3417000D01*
X2424023D01*
X2429854Y3422831D01*
Y3446157D01*
X2284674Y2966543D02*
X2290506Y2972374D01*
X2302169D01*
X2308000Y2966543D01*
Y2943217D01*
X2302169Y2937385D01*
X2290506D01*
X2284674Y2943217D01*
X2273011D02*
X2267180Y2937385D01*
X2255517D01*
X2249686Y2943217D01*
Y2966543D01*
X2255517Y2972374D01*
X2267180D01*
X2273011Y2966543D01*
Y2960711D01*
X2267180Y2954880D01*
X2249686D01*
X4136674Y3614157D02*
X4142506Y3619989D01*
X4154169D01*
X4160000Y3614157D01*
Y3590831D01*
X4154169Y3585000D01*
X4142506D01*
X4136674Y3590831D01*
X4125011Y3614157D02*
X4119180Y3619989D01*
X4107517D01*
X4101685Y3614157D01*
Y3608326D01*
X4107517Y3602494D01*
X4101685Y3596663D01*
Y3590831D01*
X4107517Y3585000D01*
X4119180D01*
X4125011Y3590831D01*
Y3596663D01*
X4119180Y3602494D01*
X4125011Y3608326D01*
Y3614157D01*
X4119180Y3602494D02*
X4107517D01*
X4233588Y3619157D02*
X4239420Y3624989D01*
X4251083D01*
X4256914Y3619157D01*
Y3595831D01*
X4251083Y3590000D01*
X4239420D01*
X4233588Y3595831D01*
X4221925Y3624989D02*
X4198600D01*
Y3619157D01*
X4221925Y3595831D01*
Y3590000D01*
X4321674Y3616961D02*
X4327506Y3622792D01*
X4339169D01*
X4345000Y3616961D01*
Y3593635D01*
X4339169Y3587804D01*
X4327506D01*
X4321674Y3593635D01*
X4286685Y3622792D02*
X4298348Y3616961D01*
X4310011Y3605298D01*
Y3593635D01*
X4304180Y3587804D01*
X4292517D01*
X4286685Y3593635D01*
Y3599466D01*
X4292517Y3605298D01*
X4310011D01*
X3791674Y3614157D02*
X3797506Y3619989D01*
X3809169D01*
X3815000Y3614157D01*
Y3590831D01*
X3809169Y3585000D01*
X3797506D01*
X3791674Y3590831D01*
X3756686Y3619989D02*
X3780011D01*
Y3602494D01*
X3768348Y3608326D01*
X3762517D01*
X3756686Y3602494D01*
Y3590831D01*
X3762517Y3585000D01*
X3774180D01*
X3780011Y3590831D01*
X3881674Y3204157D02*
X3887506Y3209989D01*
X3899169D01*
X3905000Y3204157D01*
Y3180831D01*
X3899169Y3175000D01*
X3887506D01*
X3881674Y3180831D01*
X3846686Y3175000D02*
X3870011D01*
X3846686Y3198326D01*
Y3204157D01*
X3852517Y3209989D01*
X3864180D01*
X3870011Y3204157D01*
X3881674Y3134157D02*
X3887506Y3139989D01*
X3899169D01*
X3905000Y3134157D01*
Y3110831D01*
X3899169Y3105000D01*
X3887506D01*
X3881674Y3110831D01*
X3870011Y3105000D02*
X3858348D01*
X3864180D01*
Y3139989D01*
X3870011Y3134157D01*
%TF.MD5,91297827e0fbe4863569da4420ba4de3*%
M02*
