%TF.GenerationSoftware,Altium Limited,Altium Designer,18.1.6 (161)*%
G04 Layer_Color=0*
%FSLAX26Y26*%
%MOIN*%
%TF.FileFunction,Plated,1,2,PTH,Drill*%
%TF.Part,Single*%
G01*
G75*
%TA.AperFunction,ComponentDrill*%
%ADD73C,0.040000*%
%ADD74C,0.040000*%
%ADD75C,0.040000*%
%TA.AperFunction,ViaDrill,NotFilled*%
%ADD76C,0.012000*%
%ADD77C,0.020000*%
D73*
X2297132Y4237132D02*
D03*
X2367843Y4166421D02*
D03*
X2014289Y3812868D02*
D03*
X2085000Y3883579D02*
D03*
X2155711Y3954289D02*
D03*
X2226421Y4025000D02*
D03*
X2293597Y4099246D02*
D03*
X2226421Y4166421D02*
D03*
X2155711Y4095711D02*
D03*
X2085000Y4025000D02*
D03*
X2014289Y3954289D02*
D03*
X1943579Y3883579D02*
D03*
D74*
X2949606Y4330709D02*
D03*
X3049606D02*
D03*
X3149606D02*
D03*
X3249606D02*
D03*
X3349606Y4335709D02*
D03*
Y4430709D02*
D03*
X3249606D02*
D03*
X3149606D02*
D03*
X3049606D02*
D03*
X2949606D02*
D03*
Y1968504D02*
D03*
X3049606D02*
D03*
X3149606D02*
D03*
X3249606D02*
D03*
X3349606Y1973504D02*
D03*
Y2068504D02*
D03*
X3249606D02*
D03*
X3149606D02*
D03*
X3049606D02*
D03*
X2949606D02*
D03*
D75*
X1868504Y2949606D02*
D03*
Y3049606D02*
D03*
Y3149606D02*
D03*
Y3249606D02*
D03*
Y3349606D02*
D03*
X1963504D02*
D03*
X1968504Y3249606D02*
D03*
Y3149606D02*
D03*
Y3049606D02*
D03*
Y2949606D02*
D03*
X4230709D02*
D03*
Y3049606D02*
D03*
Y3149606D02*
D03*
Y3249606D02*
D03*
Y3349606D02*
D03*
X4325709D02*
D03*
X4330709Y3249606D02*
D03*
Y3149606D02*
D03*
Y3049606D02*
D03*
Y2949606D02*
D03*
D76*
X4500000Y3750000D02*
D03*
X4575000Y3600000D02*
D03*
X4500000Y3450000D02*
D03*
X4575000Y3300000D02*
D03*
Y3000000D02*
D03*
X4500000Y2850000D02*
D03*
X4575000Y2700000D02*
D03*
X4500000Y2550000D02*
D03*
X4350000Y4050000D02*
D03*
X4425000Y3900000D02*
D03*
X4350000Y3750000D02*
D03*
X4425000Y3600000D02*
D03*
X4350000Y2850000D02*
D03*
Y2250000D02*
D03*
X4200000Y4050000D02*
D03*
X4275000Y3900000D02*
D03*
X4200000Y3750000D02*
D03*
Y2850000D02*
D03*
X4050000Y4350000D02*
D03*
X4125000Y4200000D02*
D03*
X4050000Y4050000D02*
D03*
X4125000Y3900000D02*
D03*
X4050000Y3750000D02*
D03*
Y2850000D02*
D03*
X4125000Y2100000D02*
D03*
X4050000Y1950000D02*
D03*
X3975000Y4200000D02*
D03*
X3900000Y4050000D02*
D03*
X3975000Y3900000D02*
D03*
X3900000Y3450000D02*
D03*
X3975000Y3000000D02*
D03*
Y2700000D02*
D03*
X3900000Y2550000D02*
D03*
Y2250000D02*
D03*
X3975000Y2100000D02*
D03*
X3825000Y4500000D02*
D03*
Y4200000D02*
D03*
X3750000Y4050000D02*
D03*
X3825000Y3900000D02*
D03*
X3750000Y3150000D02*
D03*
X3825000Y3000000D02*
D03*
Y2700000D02*
D03*
X3750000Y2550000D02*
D03*
X3825000Y2400000D02*
D03*
X3750000Y2250000D02*
D03*
X3825000Y2100000D02*
D03*
X3750000Y1950000D02*
D03*
X3825000Y1800000D02*
D03*
X3675000Y4500000D02*
D03*
Y3900000D02*
D03*
X3600000Y3750000D02*
D03*
Y2550000D02*
D03*
X3675000Y2400000D02*
D03*
Y2100000D02*
D03*
X3600000Y1950000D02*
D03*
X3675000Y1800000D02*
D03*
X3525000Y4500000D02*
D03*
Y3900000D02*
D03*
Y3600000D02*
D03*
X3450000Y2250000D02*
D03*
X3525000Y2100000D02*
D03*
X3450000Y1950000D02*
D03*
X3525000Y1800000D02*
D03*
X3375000Y4500000D02*
D03*
Y4200000D02*
D03*
X3300000Y4050000D02*
D03*
Y3150000D02*
D03*
X3375000Y3000000D02*
D03*
X3300000Y2250000D02*
D03*
X3375000Y1800000D02*
D03*
X3300000Y1650000D02*
D03*
X3225000Y4500000D02*
D03*
Y4200000D02*
D03*
X3150000Y2250000D02*
D03*
X3225000Y1800000D02*
D03*
X3150000Y1650000D02*
D03*
X3075000Y4500000D02*
D03*
X3000000Y3750000D02*
D03*
X3075000Y3300000D02*
D03*
Y3000000D02*
D03*
X3000000Y2250000D02*
D03*
X3075000Y1800000D02*
D03*
X3000000Y1650000D02*
D03*
X2925000Y4500000D02*
D03*
Y4200000D02*
D03*
X2850000Y3750000D02*
D03*
Y3150000D02*
D03*
Y2250000D02*
D03*
X2925000Y1800000D02*
D03*
X2775000Y4500000D02*
D03*
Y4200000D02*
D03*
Y3900000D02*
D03*
X2700000Y3750000D02*
D03*
Y3150000D02*
D03*
Y2250000D02*
D03*
X2775000Y1800000D02*
D03*
X2625000Y4500000D02*
D03*
Y4200000D02*
D03*
X2550000Y3750000D02*
D03*
Y2250000D02*
D03*
X2625000Y2100000D02*
D03*
Y1800000D02*
D03*
X2475000Y4500000D02*
D03*
Y4200000D02*
D03*
Y3900000D02*
D03*
Y1800000D02*
D03*
X2325000Y4200000D02*
D03*
X2100000Y3750000D02*
D03*
X2025000Y4200000D02*
D03*
X1950000Y2250000D02*
D03*
X1800000Y3750000D02*
D03*
X1875000Y3300000D02*
D03*
Y3000000D02*
D03*
X1650000Y3150000D02*
D03*
Y2850000D02*
D03*
X1725000Y2700000D02*
D03*
D77*
X2084000Y2785000D02*
D03*
X1820000Y3280000D02*
D03*
X1920000Y2972441D02*
D03*
X2080000Y2080000D02*
D03*
X2686496Y2735000D02*
D03*
X2772165Y3020000D02*
D03*
X2470000Y2790000D02*
D03*
X2435000Y2725000D02*
D03*
X4430000Y3370000D02*
D03*
X3115000Y2637441D02*
D03*
X3100000Y2705000D02*
D03*
X2755000Y2655000D02*
D03*
X3935000Y3755000D02*
D03*
X2150000Y3260000D02*
D03*
X1745000Y3454803D02*
D03*
X2018858Y2870000D02*
D03*
X1985000Y2665000D02*
D03*
X2065000Y2285000D02*
D03*
X1890000Y2330000D02*
D03*
X2358504Y2240000D02*
D03*
X2210000Y2810000D02*
D03*
X2010000Y2555000D02*
D03*
X3440000Y2613464D02*
D03*
X1720000Y3625000D02*
D03*
X2785000Y3175000D02*
D03*
X2075000Y3185000D02*
D03*
X2090000Y3145000D02*
D03*
X2003996Y3313504D02*
D03*
X2780000Y3220000D02*
D03*
X3055000Y2310000D02*
D03*
X3017500Y2362500D02*
D03*
X3050000Y2595000D02*
D03*
X1925000Y3575000D02*
D03*
X2560000Y3530945D02*
D03*
X2120000Y2155000D02*
D03*
X2940000Y3905000D02*
D03*
X3102008Y3812008D02*
D03*
X3033071Y3542480D02*
D03*
X2630000Y3885000D02*
D03*
Y3810000D02*
D03*
X2725000Y3545433D02*
D03*
X2095000Y4240000D02*
D03*
X2906496Y3548504D02*
D03*
X3171575Y3590000D02*
D03*
X3149606Y3812008D02*
D03*
X3185000Y3895000D02*
D03*
X3070000Y3885000D02*
D03*
X2390000Y3542480D02*
D03*
X3335000Y2455000D02*
D03*
X3450000Y2516890D02*
D03*
X3586417Y2686417D02*
D03*
X1885000Y2465000D02*
D03*
X3015000Y2627520D02*
D03*
X3060000Y3095000D02*
D03*
X1845000Y3498110D02*
D03*
X2293597Y3820000D02*
D03*
X1910000Y3633150D02*
D03*
X3465000Y1775000D02*
D03*
X4155000Y2695000D02*
D03*
X4245000Y2690000D02*
D03*
X2225000Y2990000D02*
D03*
X2205000Y3098110D02*
D03*
X2165000Y3065000D02*
D03*
X2120000Y3033661D02*
D03*
X2225000Y2913385D02*
D03*
X2105000Y2860000D02*
D03*
X2070000Y2830000D02*
D03*
X3365000Y3205000D02*
D03*
X2445000Y2615000D02*
D03*
X2585000Y2935000D02*
D03*
X3102008Y3930000D02*
D03*
X2325000Y3665000D02*
D03*
X3635000Y3430000D02*
D03*
X3695000Y3580000D02*
D03*
X3665000Y3542480D02*
D03*
X3330000Y3468504D02*
D03*
X2370000Y3285000D02*
D03*
X3920000Y3547480D02*
D03*
X3572520Y3165000D02*
D03*
X2525000Y3375000D02*
D03*
X2425000Y3400000D02*
D03*
X3795000Y3545000D02*
D03*
X3910000Y3205000D02*
D03*
X4147559Y3345000D02*
D03*
X3730000Y3210000D02*
D03*
X3495000Y2781142D02*
D03*
X2895000Y2853386D02*
D03*
X2700000Y3390000D02*
D03*
X2350000Y3335000D02*
D03*
X2475000Y2965000D02*
D03*
X3698740Y3430000D02*
D03*
X2810000Y2785000D02*
D03*
X2925000Y3445000D02*
D03*
X3670000Y2735000D02*
D03*
X2565000Y3605000D02*
D03*
X3027520Y3290000D02*
D03*
X3165000Y3325000D02*
D03*
X2831220Y3345000D02*
D03*
X3170000Y3545000D02*
D03*
X2355000Y3700000D02*
D03*
X3783110Y3460000D02*
D03*
X3645000Y3135000D02*
D03*
X3502441Y2972441D02*
D03*
X3530000Y2857559D02*
D03*
X3415000Y3450000D02*
D03*
X3360000Y3550000D02*
D03*
X3156614Y3101220D02*
D03*
X2155000Y3125000D02*
D03*
X3153229Y2879331D02*
D03*
X3151614Y2768386D02*
D03*
X3912500Y3317500D02*
D03*
%TF.MD5,55c05d2de54ab71b432dbebfda0c2042*%
M02*
