%TF.GenerationSoftware,Altium Limited,Altium Designer,18.1.6 (161)*%
G04 Layer_Color=255*
%FSLAX26Y26*%
%MOIN*%
%TF.FileFunction,Pads,Top*%
%TF.Part,Single*%
G01*
G75*
%TA.AperFunction,SMDPad,CuDef*%
%ADD11R,0.027559X0.035433*%
%ADD12R,0.031496X0.023622*%
%ADD13R,0.039370X0.035433*%
%ADD14R,0.023622X0.031496*%
%ADD15R,0.049213X0.043307*%
%ADD16R,0.053150X0.037402*%
%ADD17R,0.035433X0.039370*%
%ADD18R,0.047244X0.047244*%
%ADD19R,0.033465X0.051181*%
%ADD20R,0.051181X0.033465*%
%ADD21R,0.059843X0.023622*%
%ADD22R,0.035433X0.027559*%
%ADD23R,0.220472X0.082677*%
%ADD24R,0.039370X0.106299*%
%ADD25R,0.129921X0.106299*%
%ADD26R,0.011811X0.047244*%
%ADD27R,0.047244X0.011811*%
%ADD28R,0.066929X0.031496*%
G04:AMPARAMS|DCode=29|XSize=9.842mil|YSize=49.213mil|CornerRadius=1.968mil|HoleSize=0mil|Usage=FLASHONLY|Rotation=90.000|XOffset=0mil|YOffset=0mil|HoleType=Round|Shape=RoundedRectangle|*
%AMROUNDEDRECTD29*
21,1,0.009842,0.045276,0,0,90.0*
21,1,0.005906,0.049213,0,0,90.0*
1,1,0.003937,0.022638,0.002953*
1,1,0.003937,0.022638,-0.002953*
1,1,0.003937,-0.022638,-0.002953*
1,1,0.003937,-0.022638,0.002953*
%
%ADD29ROUNDEDRECTD29*%
G04:AMPARAMS|DCode=30|XSize=9.842mil|YSize=49.213mil|CornerRadius=1.968mil|HoleSize=0mil|Usage=FLASHONLY|Rotation=180.000|XOffset=0mil|YOffset=0mil|HoleType=Round|Shape=RoundedRectangle|*
%AMROUNDEDRECTD30*
21,1,0.009842,0.045276,0,0,180.0*
21,1,0.005906,0.049213,0,0,180.0*
1,1,0.003937,-0.002953,0.022638*
1,1,0.003937,0.002953,0.022638*
1,1,0.003937,0.002953,-0.022638*
1,1,0.003937,-0.002953,-0.022638*
%
%ADD30ROUNDEDRECTD30*%
%TA.AperFunction,ComponentPad*%
%ADD34C,0.050000*%
D11*
X3152559Y3240000D02*
D03*
X3097441D02*
D03*
X3272559Y2768386D02*
D03*
X3217441D02*
D03*
X3272559Y2879331D02*
D03*
X3217441D02*
D03*
X3272559Y2990275D02*
D03*
X3217441D02*
D03*
X3272559Y3101220D02*
D03*
X3217441D02*
D03*
X3272559Y3212165D02*
D03*
X3217441D02*
D03*
X3272559Y3323110D02*
D03*
X3217441D02*
D03*
X3272559Y3545000D02*
D03*
X3217441D02*
D03*
X3272559Y3434055D02*
D03*
X3217441D02*
D03*
X2972441Y3810000D02*
D03*
X3027559D02*
D03*
X2827559Y3810000D02*
D03*
X2772441D02*
D03*
D12*
X3745000Y3575590D02*
D03*
Y3524409D02*
D03*
X4040000Y3254409D02*
D03*
Y3305590D02*
D03*
X3980000Y3254409D02*
D03*
Y3305590D02*
D03*
X3775000Y2850591D02*
D03*
Y2799410D02*
D03*
D13*
X3845000Y3503504D02*
D03*
Y3566496D02*
D03*
X3606102Y2238504D02*
D03*
Y2301496D02*
D03*
X2490000Y2740000D02*
D03*
Y2677008D02*
D03*
X1785000Y3328504D02*
D03*
Y3391496D02*
D03*
X2455000Y3611496D02*
D03*
Y3548504D02*
D03*
D14*
X4515591Y3267716D02*
D03*
X4464409D02*
D03*
X4516181Y3149606D02*
D03*
X4465000D02*
D03*
D15*
X3605000Y2045787D02*
D03*
Y2144213D02*
D03*
X2554291Y2578307D02*
D03*
Y2676732D02*
D03*
D16*
X1703543Y2926496D02*
D03*
Y2863504D02*
D03*
D17*
X2628504Y2685000D02*
D03*
X2691496D02*
D03*
X2153504Y3380000D02*
D03*
X2216496D02*
D03*
D18*
X2751339Y2595000D02*
D03*
X2668661D02*
D03*
D19*
X4101535Y2250000D02*
D03*
X4168465D02*
D03*
D20*
X4400000Y2466535D02*
D03*
Y2533465D02*
D03*
Y2346535D02*
D03*
Y2413465D02*
D03*
X4055000Y2613464D02*
D03*
Y2546535D02*
D03*
X4150000Y2613465D02*
D03*
Y2546535D02*
D03*
X4245000Y2613465D02*
D03*
Y2546535D02*
D03*
D21*
X4244370Y2330000D02*
D03*
Y2380000D02*
D03*
Y2430000D02*
D03*
Y2480000D02*
D03*
X4028622Y2330000D02*
D03*
Y2380000D02*
D03*
Y2430000D02*
D03*
Y2480000D02*
D03*
D22*
X3665157Y2857559D02*
D03*
Y2802441D02*
D03*
X2070000Y2637441D02*
D03*
Y2692559D02*
D03*
X2390000Y3937559D02*
D03*
Y3882441D02*
D03*
X2516260Y3937559D02*
D03*
Y3882441D02*
D03*
X2315000Y2697559D02*
D03*
Y2642441D02*
D03*
X2230000Y2697559D02*
D03*
Y2642441D02*
D03*
X4105000Y3307559D02*
D03*
Y3252441D02*
D03*
X4110000Y3072559D02*
D03*
Y3017441D02*
D03*
X4110000Y2907441D02*
D03*
Y2962559D02*
D03*
X4105000Y3144882D02*
D03*
Y3200000D02*
D03*
X2325000Y3882441D02*
D03*
Y3937559D02*
D03*
X3402992Y3922559D02*
D03*
Y3867441D02*
D03*
X3775000Y3932559D02*
D03*
Y3877441D02*
D03*
D23*
X3102008Y3680000D02*
D03*
X2727992D02*
D03*
X3402992Y3715000D02*
D03*
X3777008D02*
D03*
D24*
X1980551Y2791142D02*
D03*
X1890000D02*
D03*
X1799449D02*
D03*
D25*
X1890000Y2558858D02*
D03*
D26*
X2831220Y3454803D02*
D03*
X2811535D02*
D03*
X2791850D02*
D03*
X2772165D02*
D03*
X2752480D02*
D03*
X2732795D02*
D03*
X2713110D02*
D03*
X2693425D02*
D03*
X2673740D02*
D03*
X2654055D02*
D03*
X2634370D02*
D03*
X2614685D02*
D03*
X2595000D02*
D03*
X2575315D02*
D03*
X2555630D02*
D03*
X2535945D02*
D03*
X2516260D02*
D03*
X2496575D02*
D03*
X2476890D02*
D03*
X2457205D02*
D03*
X2437520D02*
D03*
X2417835D02*
D03*
X2398150D02*
D03*
X2378465D02*
D03*
X2358780D02*
D03*
Y2844567D02*
D03*
X2378465D02*
D03*
X2398150D02*
D03*
X2417835D02*
D03*
X2437520D02*
D03*
X2457205D02*
D03*
X2476890D02*
D03*
X2496575D02*
D03*
X2516260D02*
D03*
X2535945D02*
D03*
X2555630D02*
D03*
X2575315D02*
D03*
X2595000D02*
D03*
X2614685D02*
D03*
X2634370D02*
D03*
X2654055D02*
D03*
X2673740D02*
D03*
X2693425D02*
D03*
X2713110D02*
D03*
X2732795D02*
D03*
X2752480D02*
D03*
X2772165D02*
D03*
X2791850D02*
D03*
X2811535D02*
D03*
X2831220D02*
D03*
D27*
X2289882Y3385905D02*
D03*
Y3366220D02*
D03*
Y3346535D02*
D03*
Y3326850D02*
D03*
Y3307165D02*
D03*
Y3287480D02*
D03*
Y3267795D02*
D03*
Y3248110D02*
D03*
Y3228425D02*
D03*
Y3208740D02*
D03*
Y3189055D02*
D03*
Y3169370D02*
D03*
Y3149685D02*
D03*
Y3130000D02*
D03*
Y3110315D02*
D03*
Y3090630D02*
D03*
Y3070945D02*
D03*
Y3051260D02*
D03*
Y3031575D02*
D03*
Y3011890D02*
D03*
Y2992205D02*
D03*
Y2972520D02*
D03*
Y2952835D02*
D03*
Y2933150D02*
D03*
Y2913465D02*
D03*
X2900118D02*
D03*
Y2933150D02*
D03*
Y2952835D02*
D03*
Y2972520D02*
D03*
Y2992205D02*
D03*
Y3011890D02*
D03*
Y3031575D02*
D03*
Y3051260D02*
D03*
Y3070945D02*
D03*
Y3090630D02*
D03*
Y3110315D02*
D03*
Y3130000D02*
D03*
Y3149685D02*
D03*
Y3169370D02*
D03*
Y3189055D02*
D03*
Y3208740D02*
D03*
Y3228425D02*
D03*
Y3248110D02*
D03*
Y3267795D02*
D03*
Y3287480D02*
D03*
Y3307165D02*
D03*
Y3326850D02*
D03*
Y3346535D02*
D03*
Y3366220D02*
D03*
Y3385905D02*
D03*
D28*
X1695000Y3390039D02*
D03*
Y3256181D02*
D03*
D29*
X3512441Y3096732D02*
D03*
Y3116417D02*
D03*
Y3136102D02*
D03*
Y3155787D02*
D03*
Y3175472D02*
D03*
Y3195157D02*
D03*
Y3214843D02*
D03*
Y3234528D02*
D03*
Y3254213D02*
D03*
Y3273898D02*
D03*
Y3293583D02*
D03*
Y3313268D02*
D03*
X3837244D02*
D03*
Y3293583D02*
D03*
Y3273898D02*
D03*
Y3254213D02*
D03*
Y3234528D02*
D03*
Y3214843D02*
D03*
Y3195157D02*
D03*
Y3175472D02*
D03*
Y3155787D02*
D03*
Y3136102D02*
D03*
Y3116417D02*
D03*
Y3096732D02*
D03*
D30*
X3566575Y3367401D02*
D03*
X3586260D02*
D03*
X3605945D02*
D03*
X3625630D02*
D03*
X3645315D02*
D03*
X3665000D02*
D03*
X3684685D02*
D03*
X3704370D02*
D03*
X3724055D02*
D03*
X3743740D02*
D03*
X3763425D02*
D03*
X3783110D02*
D03*
Y3042598D02*
D03*
X3763425D02*
D03*
X3743740D02*
D03*
X3724055D02*
D03*
X3704370D02*
D03*
X3684685D02*
D03*
X3665000D02*
D03*
X3645315D02*
D03*
X3625630D02*
D03*
X3605945D02*
D03*
X3586260D02*
D03*
X3566575D02*
D03*
D34*
X2297132Y4237132D02*
D03*
X2367843Y4166421D02*
D03*
X2014289Y3812868D02*
D03*
X2085000Y3883579D02*
D03*
X2155711Y3954289D02*
D03*
X2226421Y4025000D02*
D03*
X2293597Y4099246D02*
D03*
X2226421Y4166421D02*
D03*
X2155711Y4095711D02*
D03*
X2085000Y4025000D02*
D03*
X2014289Y3954289D02*
D03*
X1943579Y3883579D02*
D03*
X2949606Y4330709D02*
D03*
X3049606D02*
D03*
X3149606D02*
D03*
X3249606D02*
D03*
X3349606Y4335709D02*
D03*
Y4430709D02*
D03*
X3249606D02*
D03*
X3149606D02*
D03*
X3049606D02*
D03*
X2949606D02*
D03*
X1868504Y2949606D02*
D03*
Y3049606D02*
D03*
Y3149606D02*
D03*
Y3249606D02*
D03*
Y3349606D02*
D03*
X1963504D02*
D03*
X1968504Y3249606D02*
D03*
Y3149606D02*
D03*
Y3049606D02*
D03*
Y2949606D02*
D03*
X2949606Y1968504D02*
D03*
X3049606D02*
D03*
X3149606D02*
D03*
X3249606D02*
D03*
X3349606Y1973504D02*
D03*
Y2068504D02*
D03*
X3249606D02*
D03*
X3149606D02*
D03*
X3049606D02*
D03*
X2949606D02*
D03*
X4230709Y2949606D02*
D03*
Y3049606D02*
D03*
Y3149606D02*
D03*
Y3249606D02*
D03*
Y3349606D02*
D03*
X4325709D02*
D03*
X4330709Y3249606D02*
D03*
Y3149606D02*
D03*
Y3049606D02*
D03*
Y2949606D02*
D03*
%TF.MD5,f44301d592f0cb54b96a0f76a95b461f*%
M02*
