%TF.GenerationSoftware,Altium Limited,Altium Designer,18.1.6 (161)*%
G04 Layer_Color=128*
%FSLAX26Y26*%
%MOIN*%
%TF.FileFunction,Paste,Bot*%
%TF.Part,Single*%
G01*
G75*
%TA.AperFunction,SMDPad,CuDef*%
%ADD11R,0.027559X0.035433*%
%ADD13R,0.039370X0.035433*%
%ADD16R,0.053150X0.037402*%
%ADD17R,0.035433X0.039370*%
%ADD22R,0.035433X0.027559*%
%ADD37R,0.043307X0.043307*%
%ADD38R,0.092520X0.086614*%
D11*
X3563346Y3045000D02*
D03*
X3508228D02*
D03*
X3994134Y3089350D02*
D03*
X4049252D02*
D03*
X3994134Y3153878D02*
D03*
X4049252D02*
D03*
X3592441Y3300000D02*
D03*
X3647559D02*
D03*
D13*
X2772165Y3308504D02*
D03*
Y3371496D02*
D03*
X2634370Y3313504D02*
D03*
Y3376496D02*
D03*
X2820000Y2986496D02*
D03*
Y2923504D02*
D03*
X2470000Y3298504D02*
D03*
Y3361496D02*
D03*
X4285000Y3542480D02*
D03*
Y3479488D02*
D03*
X4120000Y3542480D02*
D03*
Y3479488D02*
D03*
X4200000Y3542480D02*
D03*
Y3479488D02*
D03*
D16*
X2015000Y2491496D02*
D03*
Y2428504D02*
D03*
D17*
X2426496Y2913385D02*
D03*
X2363504D02*
D03*
D22*
X2811220Y2742559D02*
D03*
Y2687441D02*
D03*
X2870000Y2742559D02*
D03*
Y2687441D02*
D03*
X3730000Y3307559D02*
D03*
Y3252441D02*
D03*
D37*
X2776102Y3540000D02*
D03*
X2846968D02*
D03*
D38*
X3980000Y3424843D02*
D03*
Y3655157D02*
D03*
%TF.MD5,0e1461ed47003919e84606fa909051b4*%
M02*
