%TF.GenerationSoftware,Altium Limited,Altium Designer,18.1.6 (161)*%
G04 Layer_Color=65535*
%FSLAX26Y26*%
%MOIN*%
%TF.FileFunction,Legend,Top*%
%TF.Part,Single*%
G01*
G75*
%TA.AperFunction,NonConductor*%
%ADD39C,0.007874*%
%ADD41C,0.003000*%
%ADD42C,0.007000*%
%ADD53C,0.003937*%
%ADD54C,0.023622*%
%ADD55C,0.009842*%
D39*
X3123032Y3253780D02*
X3126968D01*
X3123032Y3226220D02*
X3126968D01*
X3243032Y2782165D02*
X3246968D01*
X3243032Y2754606D02*
X3246968D01*
X3243032Y2893110D02*
X3246968D01*
X3243032Y2865551D02*
X3246968D01*
X3243032Y3004055D02*
X3246968D01*
X3243032Y2976496D02*
X3246968D01*
X3243032Y3115000D02*
X3246968D01*
X3243032Y3087441D02*
X3246968D01*
X3243032Y3225945D02*
X3246968D01*
X3243032Y3198385D02*
X3246968D01*
X3243032Y3336890D02*
X3246968D01*
X3243032Y3309330D02*
X3246968D01*
X3243032Y3558779D02*
X3246968D01*
X3243032Y3531220D02*
X3246968D01*
X3243032Y3447834D02*
X3246968D01*
X3243032Y3420275D02*
X3246968D01*
X3860748Y3533032D02*
Y3536968D01*
X3829252Y3533032D02*
Y3536968D01*
X3621850Y2268032D02*
Y2271968D01*
X3590354Y2268032D02*
Y2271968D01*
X3629606Y2083189D02*
Y2106811D01*
X3580394Y2083189D02*
Y2106811D01*
X1726181Y2893031D02*
Y2896968D01*
X1680905Y2893031D02*
Y2896968D01*
X2658032Y2669252D02*
X2661968D01*
X2658032Y2700748D02*
X2661968D01*
X2707992Y2619606D02*
X2712008D01*
X2707992Y2570394D02*
X2712008D01*
X2578898Y2615709D02*
Y2639331D01*
X2529685Y2615709D02*
Y2639331D01*
X2474252Y2706535D02*
Y2710472D01*
X2505748Y2706535D02*
Y2710472D01*
X4133032Y2271654D02*
X4136969D01*
X4133032Y2228347D02*
X4136969D01*
X4378346Y2498032D02*
Y2501969D01*
X4421654Y2498032D02*
Y2501969D01*
X4378346Y2378032D02*
Y2381969D01*
X4421654Y2378032D02*
Y2381969D01*
X4074291Y2308543D02*
X4198701D01*
X4074291Y2501457D02*
X4198701D01*
Y2308543D02*
Y2501457D01*
X4074291Y2308543D02*
Y2501457D01*
X4076654Y2578031D02*
Y2581968D01*
X4033347Y2578031D02*
Y2581968D01*
X4171654Y2578031D02*
Y2581968D01*
X4128346Y2578031D02*
Y2581968D01*
X4266654Y2578031D02*
Y2581968D01*
X4223346Y2578031D02*
Y2581968D01*
X3651378Y2828032D02*
Y2831968D01*
X3678937Y2828032D02*
Y2831968D01*
X3139409Y3587480D02*
Y3622913D01*
X2690591Y3587480D02*
Y3622913D01*
Y3587480D02*
X3139409D01*
X2690591Y3737087D02*
Y3772520D01*
X3139409Y3737087D02*
Y3772520D01*
X2690591D02*
X3139409D01*
X2998032Y3823780D02*
X3001969D01*
X2998032Y3796220D02*
X3001969D01*
X2798031D02*
X2801968D01*
X2798031Y3823780D02*
X2801968D01*
X2083780Y2663032D02*
Y2666968D01*
X2056220Y2663032D02*
Y2666968D01*
X2376220Y3908032D02*
Y3911968D01*
X2403780Y3908032D02*
Y3911968D01*
X2502480Y3908032D02*
Y3911968D01*
X2530039Y3908032D02*
Y3911968D01*
X1758110Y2726181D02*
X2021890D01*
X1758110Y2623819D02*
X2021890D01*
Y2726181D01*
X1758110Y2623819D02*
Y2726181D01*
X2301220Y2668032D02*
Y2671968D01*
X2328780Y2668032D02*
Y2671968D01*
X2216220Y2668032D02*
Y2671968D01*
X2243780Y2668032D02*
Y2671968D01*
X4091220Y3278032D02*
Y3281968D01*
X4118780Y3278032D02*
Y3281968D01*
X4096220Y3043032D02*
Y3046968D01*
X4123780Y3043032D02*
Y3046968D01*
Y2933032D02*
Y2936968D01*
X4096220Y2933032D02*
Y2936968D01*
X4118780Y3170472D02*
Y3174409D01*
X4091220Y3170472D02*
Y3174409D01*
X2338780Y3908032D02*
Y3911968D01*
X2311220Y3908032D02*
Y3911968D01*
X1800748Y3358032D02*
Y3361968D01*
X1769252Y3358032D02*
Y3361968D01*
X2329252Y3415433D02*
X2860748D01*
X2329252Y2883937D02*
X2860748D01*
Y3415433D01*
X2329252Y2883937D02*
Y3415433D01*
X2470748Y3578031D02*
Y3581968D01*
X2439252Y3578031D02*
Y3581968D01*
X2183032Y3395748D02*
X2186969D01*
X2183032Y3364252D02*
X2186969D01*
X1744213Y3264055D02*
Y3382165D01*
X1645787Y3264055D02*
Y3382165D01*
X3796890Y3082953D02*
Y3327047D01*
X3552795Y3082953D02*
Y3327047D01*
X3796890D01*
X3552795Y3082953D02*
X3796890D01*
X3365591Y3772087D02*
Y3807520D01*
X3814409Y3772087D02*
Y3807520D01*
X3365591D02*
X3814409D01*
Y3622480D02*
Y3657913D01*
X3365591Y3622480D02*
Y3657913D01*
Y3622480D02*
X3814409D01*
X3416772Y3893031D02*
Y3896968D01*
X3389213Y3893031D02*
Y3896968D01*
X3788780Y3903031D02*
Y3906968D01*
X3761220Y3903031D02*
Y3906968D01*
D41*
X1890546Y3880043D02*
X2014289Y3756299D01*
X2445624Y4187635D01*
X2321881Y4311378D02*
X2445624Y4187635D01*
X1890546Y3880043D02*
X2321881Y4311378D01*
X2909606Y4290709D02*
Y4465709D01*
Y4290709D02*
X3389606D01*
Y4465709D01*
X2909606D02*
X3389606D01*
X2909606Y1928504D02*
Y2103504D01*
Y1928504D02*
X3389606D01*
Y2103504D01*
X2909606D02*
X3389606D01*
D42*
X3481113Y4395078D02*
X3475282Y4400909D01*
X3463619D01*
X3457787Y4395078D01*
Y4389247D01*
X3463619Y4383415D01*
X3475282D01*
X3481113Y4377584D01*
Y4371752D01*
X3475282Y4365921D01*
X3463619D01*
X3457787Y4371752D01*
X3492776Y4354258D02*
Y4389247D01*
X3510270D01*
X3516102Y4383415D01*
Y4371752D01*
X3510270Y4365921D01*
X3492776D01*
X3545259D02*
X3533596D01*
X3527765Y4371752D01*
Y4383415D01*
X3533596Y4389247D01*
X3545259D01*
X3551091Y4383415D01*
Y4377584D01*
X3527765D01*
X3568585Y4389247D02*
X3580248D01*
X3586079Y4383415D01*
Y4365921D01*
X3568585D01*
X3562753Y4371752D01*
X3568585Y4377584D01*
X3586079D01*
X3597742Y4365921D02*
Y4400909D01*
Y4377584D02*
X3615236Y4389247D01*
X3597742Y4377584D02*
X3615236Y4365921D01*
X3656057Y4400909D02*
X3632731D01*
Y4365921D01*
X3656057D01*
X3632731Y4383415D02*
X3644394D01*
X3673551Y4389247D02*
X3685214D01*
X3691045Y4383415D01*
Y4365921D01*
X3673551D01*
X3667720Y4371752D01*
X3673551Y4377584D01*
X3691045D01*
X3702708Y4365921D02*
X3720203D01*
X3726034Y4371752D01*
X3720203Y4377584D01*
X3708540D01*
X3702708Y4383415D01*
X3708540Y4389247D01*
X3726034D01*
X3737697D02*
Y4371752D01*
X3743528Y4365921D01*
X3761023D01*
Y4360089D01*
X3755191Y4354258D01*
X3749360D01*
X3761023Y4365921D02*
Y4389247D01*
X3807674Y4365921D02*
X3819337D01*
X3813506D01*
Y4400909D01*
X3807674Y4395078D01*
X3836832Y4365921D02*
Y4371752D01*
X3842663D01*
Y4365921D01*
X3836832D01*
X3865989Y4395078D02*
X3871820Y4400909D01*
X3883483D01*
X3889315Y4395078D01*
Y4371752D01*
X3883483Y4365921D01*
X3871820D01*
X3865989Y4371752D01*
Y4395078D01*
X3481113Y4324629D02*
X3475282Y4330460D01*
X3463619D01*
X3457787Y4324629D01*
Y4318797D01*
X3463619Y4312966D01*
X3475282D01*
X3481113Y4307134D01*
Y4301303D01*
X3475282Y4295471D01*
X3463619D01*
X3457787Y4301303D01*
X3498608Y4318797D02*
X3510270D01*
X3516102Y4312966D01*
Y4295471D01*
X3498608D01*
X3492776Y4301303D01*
X3498608Y4307134D01*
X3516102D01*
X3527765Y4295471D02*
Y4318797D01*
X3533596D01*
X3539428Y4312966D01*
Y4295471D01*
Y4312966D01*
X3545259Y4318797D01*
X3551091Y4312966D01*
Y4295471D01*
X3597742Y4330460D02*
Y4295471D01*
X3615236D01*
X3621068Y4301303D01*
Y4324629D01*
X3615236Y4330460D01*
X3597742D01*
X3457787Y4271674D02*
X3481113D01*
X3469450D01*
Y4236685D01*
X3498608D02*
X3510270D01*
X3516102Y4242516D01*
Y4254179D01*
X3510270Y4260011D01*
X3498608D01*
X3492776Y4254179D01*
Y4242516D01*
X3498608Y4236685D01*
X3527765D02*
Y4260011D01*
X3545259D01*
X3551091Y4254179D01*
Y4236685D01*
X3562753Y4260011D02*
Y4242516D01*
X3568585Y4236685D01*
X3586079D01*
Y4230854D01*
X3580248Y4225022D01*
X3574416D01*
X3586079Y4236685D02*
Y4260011D01*
X3632731Y4236685D02*
Y4271674D01*
X3644394Y4260011D01*
X3656057Y4271674D01*
Y4236685D01*
X3457787Y4166236D02*
Y4201224D01*
X3475282D01*
X3481113Y4195393D01*
Y4183730D01*
X3475282Y4177899D01*
X3457787D01*
X3469450D02*
X3481113Y4166236D01*
X3492776Y4189561D02*
Y4172067D01*
X3498608Y4166236D01*
X3516102D01*
Y4160404D01*
X3510270Y4154573D01*
X3504439D01*
X3516102Y4166236D02*
Y4189561D01*
X3533596D02*
X3545259D01*
X3551091Y4183730D01*
Y4166236D01*
X3533596D01*
X3527765Y4172067D01*
X3533596Y4177899D01*
X3551091D01*
X3562753Y4166236D02*
Y4189561D01*
X3580248D01*
X3586079Y4183730D01*
Y4166236D01*
X3656057Y4195393D02*
X3650225Y4201224D01*
X3638562D01*
X3632731Y4195393D01*
Y4189561D01*
X3638562Y4183730D01*
X3650225D01*
X3656057Y4177899D01*
Y4172067D01*
X3650225Y4166236D01*
X3638562D01*
X3632731Y4172067D01*
X3457787Y4130775D02*
Y4095786D01*
X3475282D01*
X3481113Y4101618D01*
Y4124944D01*
X3475282Y4130775D01*
X3457787D01*
X3498608Y4119112D02*
X3510270D01*
X3516102Y4113281D01*
Y4095786D01*
X3498608D01*
X3492776Y4101618D01*
X3498608Y4107449D01*
X3516102D01*
X3527765Y4119112D02*
X3539428Y4095786D01*
X3551091Y4119112D01*
X3562753Y4095786D02*
X3574416D01*
X3568585D01*
Y4119112D01*
X3562753D01*
X3615236Y4130775D02*
Y4095786D01*
X3597742D01*
X3591911Y4101618D01*
Y4113281D01*
X3597742Y4119112D01*
X3615236D01*
X3661888Y4130775D02*
X3685214D01*
X3673551D01*
Y4095786D01*
X3457787Y4037000D02*
X3469450D01*
X3463619D01*
Y4071989D01*
X3457787Y4066157D01*
X3486945D02*
X3492776Y4071989D01*
X3504439D01*
X3510270Y4066157D01*
Y4042831D01*
X3504439Y4037000D01*
X3492776D01*
X3486945Y4042831D01*
Y4066157D01*
X3521933Y4037000D02*
X3545259Y4060326D01*
X3556922Y4066157D02*
X3562753Y4071989D01*
X3574416D01*
X3580248Y4066157D01*
Y4042831D01*
X3574416Y4037000D01*
X3562753D01*
X3556922Y4042831D01*
Y4066157D01*
X3591911Y4071989D02*
X3615236D01*
Y4066157D01*
X3591911Y4042831D01*
Y4037000D01*
X3580000Y2335000D02*
Y2369989D01*
X3597494D01*
X3603326Y2364157D01*
Y2352494D01*
X3597494Y2346663D01*
X3580000D01*
X3591663D02*
X3603326Y2335000D01*
X3614989Y2364157D02*
X3620820Y2369989D01*
X3632483D01*
X3638314Y2364157D01*
Y2358326D01*
X3632483Y2352494D01*
X3626652D01*
X3632483D01*
X3638314Y2346663D01*
Y2340831D01*
X3632483Y2335000D01*
X3620820D01*
X3614989Y2340831D01*
X3649977D02*
X3655809Y2335000D01*
X3667472D01*
X3673303Y2340831D01*
Y2364157D01*
X3667472Y2369989D01*
X3655809D01*
X3649977Y2364157D01*
Y2358326D01*
X3655809Y2352494D01*
X3673303D01*
X3650000Y2119989D02*
Y2085000D01*
X3667494D01*
X3673326Y2090831D01*
Y2114157D01*
X3667494Y2119989D01*
X3650000D01*
X3684989Y2114157D02*
X3690820Y2119989D01*
X3702483D01*
X3708314Y2114157D01*
Y2108326D01*
X3702483Y2102494D01*
X3696652D01*
X3702483D01*
X3708314Y2096663D01*
Y2090831D01*
X3702483Y2085000D01*
X3690820D01*
X3684989Y2090831D01*
X1701326Y3007157D02*
X1695494Y3012989D01*
X1683831D01*
X1678000Y3007157D01*
Y2983831D01*
X1683831Y2978000D01*
X1695494D01*
X1701326Y2983831D01*
X1736314Y2978000D02*
X1712989D01*
X1736314Y3001326D01*
Y3007157D01*
X1730483Y3012989D01*
X1718820D01*
X1712989Y3007157D01*
X1765472Y2978000D02*
Y3012989D01*
X1747977Y2995494D01*
X1771303D01*
X2735000Y2686417D02*
Y2721406D01*
X2752494D01*
X2758326Y2715575D01*
Y2703912D01*
X2752494Y2698080D01*
X2735000D01*
X2746663D02*
X2758326Y2686417D01*
X2769989Y2715575D02*
X2775820Y2721406D01*
X2787483D01*
X2793314Y2715575D01*
Y2709743D01*
X2787483Y2703912D01*
X2781652D01*
X2787483D01*
X2793314Y2698080D01*
Y2692249D01*
X2787483Y2686417D01*
X2775820D01*
X2769989Y2692249D01*
X2828303Y2721406D02*
X2816640Y2715575D01*
X2804977Y2703912D01*
Y2692249D01*
X2810809Y2686417D01*
X2822472D01*
X2828303Y2692249D01*
Y2698080D01*
X2822472Y2703912D01*
X2804977D01*
X2540000Y2730000D02*
Y2764989D01*
X2557494D01*
X2563326Y2759157D01*
Y2747494D01*
X2557494Y2741663D01*
X2540000D01*
X2551663D02*
X2563326Y2730000D01*
X2574989Y2759157D02*
X2580820Y2764989D01*
X2592483D01*
X2598314Y2759157D01*
Y2753326D01*
X2592483Y2747494D01*
X2586652D01*
X2592483D01*
X2598314Y2741663D01*
Y2735831D01*
X2592483Y2730000D01*
X2580820D01*
X2574989Y2735831D01*
X2633303Y2764989D02*
X2609977D01*
Y2747494D01*
X2621640Y2753326D01*
X2627472D01*
X2633303Y2747494D01*
Y2735831D01*
X2627472Y2730000D01*
X2615809D01*
X2609977Y2735831D01*
X2645000Y2551878D02*
Y2516890D01*
X2662494D01*
X2668326Y2522721D01*
Y2546047D01*
X2662494Y2551878D01*
X2645000D01*
X2703314Y2516890D02*
X2679989D01*
X2703314Y2540216D01*
Y2546047D01*
X2697483Y2551878D01*
X2685820D01*
X2679989Y2546047D01*
X2529685Y2509989D02*
Y2475000D01*
X2547179D01*
X2553011Y2480831D01*
Y2504157D01*
X2547179Y2509989D01*
X2529685D01*
X2564674Y2475000D02*
X2576337D01*
X2570505D01*
Y2509989D01*
X2564674Y2504157D01*
X2473326Y4254989D02*
X2461663D01*
X2467494D01*
Y4225831D01*
X2461663Y4220000D01*
X2455831D01*
X2450000Y4225831D01*
X2508314Y4254989D02*
X2484989D01*
Y4237494D01*
X2496652Y4243326D01*
X2502483D01*
X2508314Y4237494D01*
Y4225831D01*
X2502483Y4220000D01*
X2490820D01*
X2484989Y4225831D01*
X3905000Y2494989D02*
Y2465831D01*
X3910831Y2460000D01*
X3922494D01*
X3928326Y2465831D01*
Y2494989D01*
X3957483Y2460000D02*
Y2494989D01*
X3939989Y2477494D01*
X3963314D01*
X4375000Y2573000D02*
Y2607988D01*
X4392494D01*
X4398326Y2602157D01*
Y2590494D01*
X4392494Y2584663D01*
X4375000D01*
X4386663D02*
X4398326Y2573000D01*
X4409989Y2602157D02*
X4415820Y2607988D01*
X4427483D01*
X4433315Y2602157D01*
Y2596326D01*
X4427483Y2590494D01*
X4421652D01*
X4427483D01*
X4433315Y2584663D01*
Y2578831D01*
X4427483Y2573000D01*
X4415820D01*
X4409989Y2578831D01*
X4462472Y2573000D02*
Y2607988D01*
X4444977Y2590494D01*
X4468303D01*
X3890000Y2595445D02*
Y2630434D01*
X3907494D01*
X3913326Y2624602D01*
Y2612939D01*
X3907494Y2607108D01*
X3890000D01*
X3901663D02*
X3913326Y2595445D01*
X3924989Y2624602D02*
X3930820Y2630434D01*
X3942483D01*
X3948314Y2624602D01*
Y2618771D01*
X3942483Y2612939D01*
X3936652D01*
X3942483D01*
X3948314Y2607108D01*
Y2601276D01*
X3942483Y2595445D01*
X3930820D01*
X3924989Y2601276D01*
X3959977Y2624602D02*
X3965809Y2630434D01*
X3977472D01*
X3983303Y2624602D01*
Y2618771D01*
X3977472Y2612939D01*
X3971640D01*
X3977472D01*
X3983303Y2607108D01*
Y2601276D01*
X3977472Y2595445D01*
X3965809D01*
X3959977Y2601276D01*
X3890000Y2540890D02*
Y2575878D01*
X3907494D01*
X3913326Y2570047D01*
Y2558384D01*
X3907494Y2552553D01*
X3890000D01*
X3901663D02*
X3913326Y2540890D01*
X3924989Y2570047D02*
X3930820Y2575878D01*
X3942483D01*
X3948314Y2570047D01*
Y2564216D01*
X3942483Y2558384D01*
X3936652D01*
X3942483D01*
X3948314Y2552553D01*
Y2546721D01*
X3942483Y2540890D01*
X3930820D01*
X3924989Y2546721D01*
X3983303Y2540890D02*
X3959977D01*
X3983303Y2564216D01*
Y2570047D01*
X3977472Y2575878D01*
X3965809D01*
X3959977Y2570047D01*
X4375000Y2645000D02*
Y2679989D01*
X4392494D01*
X4398326Y2674157D01*
Y2662494D01*
X4392494Y2656663D01*
X4375000D01*
X4386663D02*
X4398326Y2645000D01*
X4409989Y2674157D02*
X4415820Y2679989D01*
X4427483D01*
X4433315Y2674157D01*
Y2668326D01*
X4427483Y2662494D01*
X4421652D01*
X4427483D01*
X4433315Y2656663D01*
Y2650831D01*
X4427483Y2645000D01*
X4415820D01*
X4409989Y2650831D01*
X4444977Y2645000D02*
X4456640D01*
X4450809D01*
Y2679989D01*
X4444977Y2674157D01*
X3890000Y2650000D02*
Y2684989D01*
X3907494D01*
X3913326Y2679157D01*
Y2667494D01*
X3907494Y2661663D01*
X3890000D01*
X3901663D02*
X3913326Y2650000D01*
X3924989Y2679157D02*
X3930820Y2684989D01*
X3942483D01*
X3948314Y2679157D01*
Y2673326D01*
X3942483Y2667494D01*
X3936652D01*
X3942483D01*
X3948314Y2661663D01*
Y2655831D01*
X3942483Y2650000D01*
X3930820D01*
X3924989Y2655831D01*
X3959977Y2679157D02*
X3965809Y2684989D01*
X3977472D01*
X3983303Y2679157D01*
Y2655831D01*
X3977472Y2650000D01*
X3965809D01*
X3959977Y2655831D01*
Y2679157D01*
X4085000Y2175000D02*
Y2209989D01*
X4102494D01*
X4108326Y2204157D01*
Y2192494D01*
X4102494Y2186663D01*
X4085000D01*
X4096663D02*
X4108326Y2175000D01*
X4143315D02*
X4119989D01*
X4143315Y2198326D01*
Y2204157D01*
X4137483Y2209989D01*
X4125820D01*
X4119989Y2204157D01*
X4154977Y2180831D02*
X4160809Y2175000D01*
X4172472D01*
X4178303Y2180831D01*
Y2204157D01*
X4172472Y2209989D01*
X4160809D01*
X4154977Y2204157D01*
Y2198326D01*
X4160809Y2192494D01*
X4178303D01*
X2708110Y3884989D02*
X2731436Y3850000D01*
Y3884989D02*
X2708110Y3850000D01*
X2766425D02*
X2743099D01*
X2766425Y3873326D01*
Y3879157D01*
X2760593Y3884989D01*
X2748930D01*
X2743099Y3879157D01*
X2973326Y3874157D02*
X2967494Y3879989D01*
X2955831D01*
X2950000Y3874157D01*
Y3850831D01*
X2955831Y3845000D01*
X2967494D01*
X2973326Y3850831D01*
X3008314Y3845000D02*
X2984989D01*
X3008314Y3868326D01*
Y3874157D01*
X3002483Y3879989D01*
X2990820D01*
X2984989Y3874157D01*
X3019977D02*
X3025809Y3879989D01*
X3037472D01*
X3043303Y3874157D01*
Y3868326D01*
X3037472Y3862494D01*
X3031640D01*
X3037472D01*
X3043303Y3856663D01*
Y3850831D01*
X3037472Y3845000D01*
X3025809D01*
X3019977Y3850831D01*
X2818326Y3874157D02*
X2812494Y3879989D01*
X2800831D01*
X2795000Y3874157D01*
Y3850831D01*
X2800831Y3845000D01*
X2812494D01*
X2818326Y3850831D01*
X2853314Y3845000D02*
X2829989D01*
X2853314Y3868326D01*
Y3874157D01*
X2847483Y3879989D01*
X2835820D01*
X2829989Y3874157D01*
X2888303Y3845000D02*
X2864977D01*
X2888303Y3868326D01*
Y3874157D01*
X2882472Y3879989D01*
X2870809D01*
X2864977Y3874157D01*
X1744000Y2926989D02*
Y2897831D01*
X1749831Y2892000D01*
X1761494D01*
X1767326Y2897831D01*
Y2926989D01*
X1778989Y2921157D02*
X1784820Y2926989D01*
X1796483D01*
X1802314Y2921157D01*
Y2915326D01*
X1796483Y2909494D01*
X1790652D01*
X1796483D01*
X1802314Y2903663D01*
Y2897831D01*
X1796483Y2892000D01*
X1784820D01*
X1778989Y2897831D01*
X3205000Y2813000D02*
Y2847989D01*
X3222494D01*
X3228326Y2842157D01*
Y2830494D01*
X3222494Y2824663D01*
X3205000D01*
X3216663D02*
X3228326Y2813000D01*
X3263314D02*
X3239989D01*
X3263314Y2836326D01*
Y2842157D01*
X3257483Y2847989D01*
X3245820D01*
X3239989Y2842157D01*
X3274977D02*
X3280809Y2847989D01*
X3292472D01*
X3298303Y2842157D01*
Y2836326D01*
X3292472Y2830494D01*
X3298303Y2824663D01*
Y2818831D01*
X3292472Y2813000D01*
X3280809D01*
X3274977Y2818831D01*
Y2824663D01*
X3280809Y2830494D01*
X3274977Y2836326D01*
Y2842157D01*
X3280809Y2830494D02*
X3292472D01*
X3205000Y2924000D02*
Y2958989D01*
X3222494D01*
X3228326Y2953157D01*
Y2941494D01*
X3222494Y2935663D01*
X3205000D01*
X3216663D02*
X3228326Y2924000D01*
X3263314D02*
X3239989D01*
X3263314Y2947326D01*
Y2953157D01*
X3257483Y2958989D01*
X3245820D01*
X3239989Y2953157D01*
X3274977Y2958989D02*
X3298303D01*
Y2953157D01*
X3274977Y2929831D01*
Y2924000D01*
X3205000Y3035000D02*
Y3069989D01*
X3222494D01*
X3228326Y3064157D01*
Y3052494D01*
X3222494Y3046663D01*
X3205000D01*
X3216663D02*
X3228326Y3035000D01*
X3263314D02*
X3239989D01*
X3263314Y3058326D01*
Y3064157D01*
X3257483Y3069989D01*
X3245820D01*
X3239989Y3064157D01*
X3298303Y3069989D02*
X3286640Y3064157D01*
X3274977Y3052494D01*
Y3040831D01*
X3280809Y3035000D01*
X3292472D01*
X3298303Y3040831D01*
Y3046663D01*
X3292472Y3052494D01*
X3274977D01*
X3205000Y3142804D02*
Y3177792D01*
X3222494D01*
X3228326Y3171961D01*
Y3160298D01*
X3222494Y3154466D01*
X3205000D01*
X3216663D02*
X3228326Y3142804D01*
X3263314D02*
X3239989D01*
X3263314Y3166129D01*
Y3171961D01*
X3257483Y3177792D01*
X3245820D01*
X3239989Y3171961D01*
X3298303Y3177792D02*
X3274977D01*
Y3160298D01*
X3286640Y3166129D01*
X3292472D01*
X3298303Y3160298D01*
Y3148635D01*
X3292472Y3142804D01*
X3280809D01*
X3274977Y3148635D01*
X3205000Y3252441D02*
Y3287430D01*
X3222494D01*
X3228326Y3281598D01*
Y3269935D01*
X3222494Y3264104D01*
X3205000D01*
X3216663D02*
X3228326Y3252441D01*
X3263314D02*
X3239989D01*
X3263314Y3275767D01*
Y3281598D01*
X3257483Y3287430D01*
X3245820D01*
X3239989Y3281598D01*
X3292472Y3252441D02*
Y3287430D01*
X3274977Y3269935D01*
X3298303D01*
X3205000Y3475000D02*
Y3509989D01*
X3222494D01*
X3228326Y3504157D01*
Y3492494D01*
X3222494Y3486663D01*
X3205000D01*
X3216663D02*
X3228326Y3475000D01*
X3263314D02*
X3239989D01*
X3263314Y3498326D01*
Y3504157D01*
X3257483Y3509989D01*
X3245820D01*
X3239989Y3504157D01*
X3274977D02*
X3280809Y3509989D01*
X3292472D01*
X3298303Y3504157D01*
Y3498326D01*
X3292472Y3492494D01*
X3286640D01*
X3292472D01*
X3298303Y3486663D01*
Y3480831D01*
X3292472Y3475000D01*
X3280809D01*
X3274977Y3480831D01*
X3205000Y3590000D02*
Y3624989D01*
X3222494D01*
X3228326Y3619157D01*
Y3607494D01*
X3222494Y3601663D01*
X3205000D01*
X3216663D02*
X3228326Y3590000D01*
X3263314D02*
X3239989D01*
X3263314Y3613326D01*
Y3619157D01*
X3257483Y3624989D01*
X3245820D01*
X3239989Y3619157D01*
X3298303Y3590000D02*
X3274977D01*
X3298303Y3613326D01*
Y3619157D01*
X3292472Y3624989D01*
X3280809D01*
X3274977Y3619157D01*
X3645315Y2890000D02*
Y2924989D01*
X3662809D01*
X3668641Y2919157D01*
Y2907494D01*
X3662809Y2901663D01*
X3645315D01*
X3656978D02*
X3668641Y2890000D01*
X3703629D02*
X3680304D01*
X3703629Y2913326D01*
Y2919157D01*
X3697798Y2924989D01*
X3686135D01*
X3680304Y2919157D01*
X3715292Y2890000D02*
X3726955D01*
X3721124D01*
Y2924989D01*
X3715292Y2919157D01*
X2485000Y3980000D02*
Y4014989D01*
X2502494D01*
X2508326Y4009157D01*
Y3997494D01*
X2502494Y3991663D01*
X2485000D01*
X2496663D02*
X2508326Y3980000D01*
X2543314D02*
X2519989D01*
X2543314Y4003326D01*
Y4009157D01*
X2537483Y4014989D01*
X2525820D01*
X2519989Y4009157D01*
X2554977D02*
X2560809Y4014989D01*
X2572472D01*
X2578303Y4009157D01*
Y3985831D01*
X2572472Y3980000D01*
X2560809D01*
X2554977Y3985831D01*
Y4009157D01*
X2300000Y2726181D02*
Y2761170D01*
X2317494D01*
X2323326Y2755338D01*
Y2743675D01*
X2317494Y2737844D01*
X2300000D01*
X2311663D02*
X2323326Y2726181D01*
X2334989D02*
X2346652D01*
X2340820D01*
Y2761170D01*
X2334989Y2755338D01*
X2364146Y2732012D02*
X2369977Y2726181D01*
X2381640D01*
X2387472Y2732012D01*
Y2755338D01*
X2381640Y2761170D01*
X2369977D01*
X2364146Y2755338D01*
Y2749507D01*
X2369977Y2743675D01*
X2387472D01*
X2160000Y2726181D02*
Y2761170D01*
X2177494D01*
X2183326Y2755338D01*
Y2743675D01*
X2177494Y2737844D01*
X2160000D01*
X2171663D02*
X2183326Y2726181D01*
X2194989D02*
X2206652D01*
X2200820D01*
Y2761170D01*
X2194989Y2755338D01*
X2224146D02*
X2229977Y2761170D01*
X2241640D01*
X2247472Y2755338D01*
Y2749507D01*
X2241640Y2743675D01*
X2247472Y2737844D01*
Y2732012D01*
X2241640Y2726181D01*
X2229977D01*
X2224146Y2732012D01*
Y2737844D01*
X2229977Y2743675D01*
X2224146Y2749507D01*
Y2755338D01*
X2229977Y2743675D02*
X2241640D01*
X2060000Y2570000D02*
Y2604989D01*
X2077494D01*
X2083326Y2599157D01*
Y2587494D01*
X2077494Y2581663D01*
X2060000D01*
X2071663D02*
X2083326Y2570000D01*
X2094989D02*
X2106652D01*
X2100820D01*
Y2604989D01*
X2094989Y2599157D01*
X2124146Y2604989D02*
X2147472D01*
Y2599157D01*
X2124146Y2575831D01*
Y2570000D01*
X2345000Y3815000D02*
Y3849989D01*
X2362494D01*
X2368326Y3844157D01*
Y3832494D01*
X2362494Y3826663D01*
X2345000D01*
X2356663D02*
X2368326Y3815000D01*
X2379989D02*
X2391652D01*
X2385820D01*
Y3849989D01*
X2379989Y3844157D01*
X2432472Y3849989D02*
X2420809Y3844157D01*
X2409146Y3832494D01*
Y3820831D01*
X2414977Y3815000D01*
X2426640D01*
X2432472Y3820831D01*
Y3826663D01*
X2426640Y3832494D01*
X2409146D01*
X2309000Y3983000D02*
Y4017989D01*
X2326494D01*
X2332326Y4012157D01*
Y4000494D01*
X2326494Y3994663D01*
X2309000D01*
X2320663D02*
X2332326Y3983000D01*
X2343989D02*
X2355652D01*
X2349820D01*
Y4017989D01*
X2343989Y4012157D01*
X2396472Y4017989D02*
X2373146D01*
Y4000494D01*
X2384809Y4006326D01*
X2390640D01*
X2396472Y4000494D01*
Y3988831D01*
X2390640Y3983000D01*
X2378977D01*
X2373146Y3988831D01*
X4097374Y3375000D02*
Y3409989D01*
X4114869D01*
X4120700Y3404157D01*
Y3392494D01*
X4114869Y3386663D01*
X4097374D01*
X4109037D02*
X4120700Y3375000D01*
X4132363D02*
X4144026D01*
X4138195D01*
Y3409989D01*
X4132363Y3404157D01*
X4179015Y3375000D02*
Y3409989D01*
X4161520Y3392494D01*
X4184846D01*
X3205000Y3361220D02*
Y3396209D01*
X3222494D01*
X3228326Y3390378D01*
Y3378715D01*
X3222494Y3372883D01*
X3205000D01*
X3216663D02*
X3228326Y3361220D01*
X3239989D02*
X3251652D01*
X3245820D01*
Y3396209D01*
X3239989Y3390378D01*
X3269146D02*
X3274977Y3396209D01*
X3286640D01*
X3292472Y3390378D01*
Y3384546D01*
X3286640Y3378715D01*
X3280809D01*
X3286640D01*
X3292472Y3372883D01*
Y3367052D01*
X3286640Y3361220D01*
X3274977D01*
X3269146Y3367052D01*
X3268000Y3873989D02*
X3291326Y3839000D01*
Y3873989D02*
X3268000Y3839000D01*
X3302989D02*
X3314652D01*
X3308820D01*
Y3873989D01*
X3302989Y3868157D01*
X2925000Y2804989D02*
Y2775831D01*
X2930831Y2770000D01*
X2942494D01*
X2948326Y2775831D01*
Y2804989D01*
X2983314Y2770000D02*
X2959989D01*
X2983314Y2793326D01*
Y2799157D01*
X2977483Y2804989D01*
X2965820D01*
X2959989Y2799157D01*
X3490000Y3458989D02*
Y3429831D01*
X3495831Y3424000D01*
X3507494D01*
X3513326Y3429831D01*
Y3458989D01*
X3524989Y3424000D02*
X3536652D01*
X3530820D01*
Y3458989D01*
X3524989Y3453157D01*
X1671326Y3493157D02*
X1665494Y3498989D01*
X1653831D01*
X1648000Y3493157D01*
Y3487326D01*
X1653831Y3481494D01*
X1665494D01*
X1671326Y3475663D01*
Y3469831D01*
X1665494Y3464000D01*
X1653831D01*
X1648000Y3469831D01*
X1682989Y3498989D02*
Y3464000D01*
X1694652Y3475663D01*
X1706314Y3464000D01*
Y3498989D01*
X1717977Y3464000D02*
X1729640D01*
X1723809D01*
Y3498989D01*
X1717977Y3493157D01*
X1685000Y3185000D02*
Y3219989D01*
X1702494D01*
X1708326Y3214157D01*
Y3202494D01*
X1702494Y3196663D01*
X1685000D01*
X1696663D02*
X1708326Y3185000D01*
X1719989D02*
X1731652D01*
X1725820D01*
Y3219989D01*
X1719989Y3214157D01*
X1772472Y3185000D02*
X1749146D01*
X1772472Y3208326D01*
Y3214157D01*
X1766640Y3219989D01*
X1754977D01*
X1749146Y3214157D01*
X3075000Y3175000D02*
Y3209989D01*
X3092494D01*
X3098326Y3204157D01*
Y3192494D01*
X3092494Y3186663D01*
X3075000D01*
X3086663D02*
X3098326Y3175000D01*
X3109989D02*
X3121652D01*
X3115820D01*
Y3209989D01*
X3109989Y3204157D01*
X3139146Y3175000D02*
X3150809D01*
X3144977D01*
Y3209989D01*
X3139146Y3204157D01*
X3890000Y3375000D02*
Y3409989D01*
X3907494D01*
X3913326Y3404157D01*
Y3392494D01*
X3907494Y3386663D01*
X3890000D01*
X3901663D02*
X3913326Y3375000D01*
X3924989D02*
X3936652D01*
X3930820D01*
Y3409989D01*
X3924989Y3404157D01*
X3954146D02*
X3959977Y3409989D01*
X3971640D01*
X3977472Y3404157D01*
Y3380831D01*
X3971640Y3375000D01*
X3959977D01*
X3954146Y3380831D01*
Y3404157D01*
X4010000Y3375000D02*
Y3409989D01*
X4027494D01*
X4033326Y3404157D01*
Y3392494D01*
X4027494Y3386663D01*
X4010000D01*
X4021663D02*
X4033326Y3375000D01*
X4044989Y3380831D02*
X4050820Y3375000D01*
X4062483D01*
X4068314Y3380831D01*
Y3404157D01*
X4062483Y3409989D01*
X4050820D01*
X4044989Y3404157D01*
Y3398326D01*
X4050820Y3392494D01*
X4068314D01*
X3895000Y3480000D02*
Y3514989D01*
X3912494D01*
X3918326Y3509157D01*
Y3497494D01*
X3912494Y3491663D01*
X3895000D01*
X3906663D02*
X3918326Y3480000D01*
X3929989Y3509157D02*
X3935820Y3514989D01*
X3947483D01*
X3953314Y3509157D01*
Y3503326D01*
X3947483Y3497494D01*
X3953314Y3491663D01*
Y3485831D01*
X3947483Y3480000D01*
X3935820D01*
X3929989Y3485831D01*
Y3491663D01*
X3935820Y3497494D01*
X3929989Y3503326D01*
Y3509157D01*
X3935820Y3497494D02*
X3947483D01*
X4455000Y3300000D02*
Y3334989D01*
X4472494D01*
X4478326Y3329157D01*
Y3317494D01*
X4472494Y3311663D01*
X4455000D01*
X4466663D02*
X4478326Y3300000D01*
X4489989Y3334989D02*
X4513315D01*
Y3329157D01*
X4489989Y3305831D01*
Y3300000D01*
X4010000Y3169291D02*
Y3204280D01*
X4027494D01*
X4033326Y3198448D01*
Y3186785D01*
X4027494Y3180954D01*
X4010000D01*
X4021663D02*
X4033326Y3169291D01*
X4068314Y3204280D02*
X4056652Y3198448D01*
X4044989Y3186785D01*
Y3175122D01*
X4050820Y3169291D01*
X4062483D01*
X4068314Y3175122D01*
Y3180954D01*
X4062483Y3186785D01*
X4044989D01*
X3890000Y3585000D02*
Y3619989D01*
X3907494D01*
X3913326Y3614157D01*
Y3602494D01*
X3907494Y3596663D01*
X3890000D01*
X3901663D02*
X3913326Y3585000D01*
X3948314Y3619989D02*
X3924989D01*
Y3602494D01*
X3936652Y3608326D01*
X3942483D01*
X3948314Y3602494D01*
Y3590831D01*
X3942483Y3585000D01*
X3930820D01*
X3924989Y3590831D01*
X4455000Y3180000D02*
Y3214989D01*
X4472494D01*
X4478326Y3209157D01*
Y3197494D01*
X4472494Y3191663D01*
X4455000D01*
X4466663D02*
X4478326Y3180000D01*
X4507483D02*
Y3214989D01*
X4489989Y3197494D01*
X4513315D01*
X3759000Y2894000D02*
Y2928989D01*
X3776494D01*
X3782326Y2923157D01*
Y2911494D01*
X3776494Y2905663D01*
X3759000D01*
X3770663D02*
X3782326Y2894000D01*
X3793989Y2923157D02*
X3799820Y2928989D01*
X3811483D01*
X3817314Y2923157D01*
Y2917326D01*
X3811483Y2911494D01*
X3805652D01*
X3811483D01*
X3817314Y2905663D01*
Y2899831D01*
X3811483Y2894000D01*
X3799820D01*
X3793989Y2899831D01*
X4010000Y3060000D02*
Y3094989D01*
X4027494D01*
X4033326Y3089157D01*
Y3077494D01*
X4027494Y3071663D01*
X4010000D01*
X4021663D02*
X4033326Y3060000D01*
X4068314D02*
X4044989D01*
X4068314Y3083326D01*
Y3089157D01*
X4062483Y3094989D01*
X4050820D01*
X4044989Y3089157D01*
X4010000Y2945000D02*
Y2979989D01*
X4027494D01*
X4033326Y2974157D01*
Y2962494D01*
X4027494Y2956663D01*
X4010000D01*
X4021663D02*
X4033326Y2945000D01*
X4044989D02*
X4056652D01*
X4050820D01*
Y2979989D01*
X4044989Y2974157D01*
X2930326Y2180989D02*
X2918663D01*
X2924494D01*
Y2151831D01*
X2918663Y2146000D01*
X2912831D01*
X2907000Y2151831D01*
X2959483Y2146000D02*
Y2180989D01*
X2941989Y2163494D01*
X2965314D01*
X2930326Y4542989D02*
X2918663D01*
X2924494D01*
Y4513831D01*
X2918663Y4508000D01*
X2912831D01*
X2907000Y4513831D01*
X2941989Y4537157D02*
X2947820Y4542989D01*
X2959483D01*
X2965314Y4537157D01*
Y4531326D01*
X2959483Y4525494D01*
X2953652D01*
X2959483D01*
X2965314Y4519663D01*
Y4513831D01*
X2959483Y4508000D01*
X2947820D01*
X2941989Y4513831D01*
X4215326Y3471989D02*
X4203663D01*
X4209494D01*
Y3442831D01*
X4203663Y3437000D01*
X4197831D01*
X4192000Y3442831D01*
X4250315Y3437000D02*
X4226989D01*
X4250315Y3460326D01*
Y3466157D01*
X4244483Y3471989D01*
X4232820D01*
X4226989Y3466157D01*
X1853326Y3471989D02*
X1841663D01*
X1847494D01*
Y3442831D01*
X1841663Y3437000D01*
X1835831D01*
X1830000Y3442831D01*
X1864989Y3437000D02*
X1876652D01*
X1870820D01*
Y3471989D01*
X1864989Y3466157D01*
X2454326Y3696157D02*
X2448494Y3701989D01*
X2436831D01*
X2431000Y3696157D01*
Y3672831D01*
X2436831Y3667000D01*
X2448494D01*
X2454326Y3672831D01*
X2465989Y3667000D02*
X2477652D01*
X2471820D01*
Y3701989D01*
X2465989Y3696157D01*
X2518472Y3701989D02*
X2495146D01*
Y3684494D01*
X2506809Y3690326D01*
X2512640D01*
X2518472Y3684494D01*
Y3672831D01*
X2512640Y3667000D01*
X2500977D01*
X2495146Y3672831D01*
X2155326Y3467157D02*
X2149494Y3472989D01*
X2137831D01*
X2132000Y3467157D01*
Y3443831D01*
X2137831Y3438000D01*
X2149494D01*
X2155326Y3443831D01*
X2166989Y3438000D02*
X2178652D01*
X2172820D01*
Y3472989D01*
X2166989Y3467157D01*
X2213640Y3438000D02*
Y3472989D01*
X2196146Y3455494D01*
X2219472D01*
X3410326Y3997157D02*
X3404494Y4002989D01*
X3392831D01*
X3387000Y3997157D01*
Y3973831D01*
X3392831Y3968000D01*
X3404494D01*
X3410326Y3973831D01*
X3439483Y3968000D02*
Y4002989D01*
X3421989Y3985494D01*
X3445314D01*
X3782326Y4007157D02*
X3776494Y4012989D01*
X3764831D01*
X3759000Y4007157D01*
Y3983831D01*
X3764831Y3978000D01*
X3776494D01*
X3782326Y3983831D01*
X3793989Y4007157D02*
X3799820Y4012989D01*
X3811483D01*
X3817314Y4007157D01*
Y4001326D01*
X3811483Y3995494D01*
X3805652D01*
X3811483D01*
X3817314Y3989663D01*
Y3983831D01*
X3811483Y3978000D01*
X3799820D01*
X3793989Y3983831D01*
D53*
X3606968Y2008386D02*
G03*
X3606968Y2008386I-1968J0D01*
G01*
X2792677Y2595000D02*
G03*
X2792677Y2595000I-1968J0D01*
G01*
X2556260Y2540905D02*
G03*
X2556260Y2540905I-1968J0D01*
G01*
D54*
X4125669Y2464055D02*
G03*
X4125669Y2464055I-11811J0D01*
G01*
X2833189Y3376063D02*
G03*
X2833189Y3376063I-11811J0D01*
G01*
X3603976Y3122323D02*
G03*
X3603976Y3122323I-11811J0D01*
G01*
D55*
X4033543Y2513465D02*
G03*
X4033543Y2513465I-4921J0D01*
G01*
X3238819Y3680000D02*
G03*
X3238819Y3680000I-4921J0D01*
G01*
X2026811Y2791142D02*
G03*
X2026811Y2791142I-4921J0D01*
G01*
X2863701Y3454803D02*
G03*
X2863701Y3454803I-4921J0D01*
G01*
X1699921Y3427441D02*
G03*
X1699921Y3427441I-4921J0D01*
G01*
X3544921Y3042598D02*
G03*
X3544921Y3042598I-4921J0D01*
G01*
X3276024Y3715000D02*
G03*
X3276024Y3715000I-4921J0D01*
G01*
%TF.MD5,698c3636737a08a2b64e31760cdcc45a*%
M02*
