%TF.GenerationSoftware,Altium Limited,Altium Designer,18.1.6 (161)*%
G04 Layer_Color=2752767*
%FSLAX26Y26*%
%MOIN*%
%TF.FileFunction,Drawing*%
%TF.Part,Single*%
G01*
G75*
%TA.AperFunction,NonConductor*%
%ADD79C,0.005000*%
%ADD80C,0.006667*%
D79*
X2277132Y4217132D02*
Y4257132D01*
X2317132D01*
Y4217132D01*
X2277132D01*
X2347843Y4146421D02*
Y4186421D01*
X2387843D01*
Y4146421D01*
X2347843D01*
X1994289Y3792868D02*
Y3832868D01*
X2034289D01*
Y3792868D01*
X1994289D01*
X2065000Y3863579D02*
Y3903579D01*
X2105000D01*
Y3863579D01*
X2065000D01*
X2135711Y3934289D02*
Y3974289D01*
X2175711D01*
Y3934289D01*
X2135711D01*
X2206421Y4005000D02*
Y4045000D01*
X2246421D01*
Y4005000D01*
X2206421D01*
X2273597Y4079246D02*
Y4119246D01*
X2313597D01*
Y4079246D01*
X2273597D01*
X2206421Y4146421D02*
Y4186421D01*
X2246421D01*
Y4146421D01*
X2206421D01*
X2135711Y4075711D02*
Y4115711D01*
X2175711D01*
Y4075711D01*
X2135711D01*
X2065000Y4005000D02*
Y4045000D01*
X2105000D01*
Y4005000D01*
X2065000D01*
X1994289Y3934289D02*
Y3974289D01*
X2034289D01*
Y3934289D01*
X1994289D01*
X1923579Y3863579D02*
Y3903579D01*
X1963579D01*
Y3863579D01*
X1923579D01*
X2929606Y4310709D02*
Y4350709D01*
X2969606D01*
Y4310709D01*
X2929606D01*
X3029606D02*
Y4350709D01*
X3069606D01*
Y4310709D01*
X3029606D01*
X3129606D02*
Y4350709D01*
X3169606D01*
Y4310709D01*
X3129606D01*
X3229606D02*
Y4350709D01*
X3269606D01*
Y4310709D01*
X3229606D01*
X3329606Y4315709D02*
Y4355709D01*
X3369606D01*
Y4315709D01*
X3329606D01*
Y4410709D02*
Y4450709D01*
X3369606D01*
Y4410709D01*
X3329606D01*
X3229606D02*
Y4450709D01*
X3269606D01*
Y4410709D01*
X3229606D01*
X3129606D02*
Y4450709D01*
X3169606D01*
Y4410709D01*
X3129606D01*
X3029606D02*
Y4450709D01*
X3069606D01*
Y4410709D01*
X3029606D01*
X2929606D02*
Y4450709D01*
X2969606D01*
Y4410709D01*
X2929606D01*
X1848504Y2929606D02*
Y2969606D01*
X1888504D01*
Y2929606D01*
X1848504D01*
Y3029606D02*
Y3069606D01*
X1888504D01*
Y3029606D01*
X1848504D01*
Y3129606D02*
Y3169606D01*
X1888504D01*
Y3129606D01*
X1848504D01*
Y3229606D02*
Y3269606D01*
X1888504D01*
Y3229606D01*
X1848504D01*
Y3329606D02*
Y3369606D01*
X1888504D01*
Y3329606D01*
X1848504D01*
X1943504D02*
Y3369606D01*
X1983504D01*
Y3329606D01*
X1943504D01*
X1948504Y3229606D02*
Y3269606D01*
X1988504D01*
Y3229606D01*
X1948504D01*
Y3129606D02*
Y3169606D01*
X1988504D01*
Y3129606D01*
X1948504D01*
Y3029606D02*
Y3069606D01*
X1988504D01*
Y3029606D01*
X1948504D01*
Y2929606D02*
Y2969606D01*
X1988504D01*
Y2929606D01*
X1948504D01*
X2929606Y1948504D02*
Y1988504D01*
X2969606D01*
Y1948504D01*
X2929606D01*
X3029606D02*
Y1988504D01*
X3069606D01*
Y1948504D01*
X3029606D01*
X3129606D02*
Y1988504D01*
X3169606D01*
Y1948504D01*
X3129606D01*
X3229606D02*
Y1988504D01*
X3269606D01*
Y1948504D01*
X3229606D01*
X3329606Y1953504D02*
Y1993504D01*
X3369606D01*
Y1953504D01*
X3329606D01*
Y2048504D02*
Y2088504D01*
X3369606D01*
Y2048504D01*
X3329606D01*
X3229606D02*
Y2088504D01*
X3269606D01*
Y2048504D01*
X3229606D01*
X3129606D02*
Y2088504D01*
X3169606D01*
Y2048504D01*
X3129606D01*
X3029606D02*
Y2088504D01*
X3069606D01*
Y2048504D01*
X3029606D01*
X2929606D02*
Y2088504D01*
X2969606D01*
Y2048504D01*
X2929606D01*
X4210709Y2929606D02*
Y2969606D01*
X4250709D01*
Y2929606D01*
X4210709D01*
Y3029606D02*
Y3069606D01*
X4250709D01*
Y3029606D01*
X4210709D01*
Y3129606D02*
Y3169606D01*
X4250709D01*
Y3129606D01*
X4210709D01*
Y3229606D02*
Y3269606D01*
X4250709D01*
Y3229606D01*
X4210709D01*
Y3329606D02*
Y3369606D01*
X4250709D01*
Y3329606D01*
X4210709D01*
X4305709D02*
Y3369606D01*
X4345709D01*
Y3329606D01*
X4305709D01*
X4310709Y3229606D02*
Y3269606D01*
X4350709D01*
Y3229606D01*
X4310709D01*
Y3129606D02*
Y3169606D01*
X4350709D01*
Y3129606D01*
X4310709D01*
Y3029606D02*
Y3069606D01*
X4350709D01*
Y3029606D01*
X4310709D01*
Y2929606D02*
Y2969606D01*
X4350709D01*
Y2929606D01*
X4310709D01*
X2084000Y2765000D02*
X2064000Y2805000D01*
X2104000D01*
X2084000Y2765000D01*
X1820000Y3260000D02*
X1800000Y3300000D01*
X1840000D01*
X1820000Y3260000D01*
X1920000Y2952441D02*
X1900000Y2992441D01*
X1940000D01*
X1920000Y2952441D01*
X2080000Y2060000D02*
X2060000Y2100000D01*
X2100000D01*
X2080000Y2060000D01*
X2686496Y2715000D02*
X2666496Y2755000D01*
X2706496D01*
X2686496Y2715000D01*
X2772165Y3000000D02*
X2752165Y3040000D01*
X2792165D01*
X2772165Y3000000D01*
X2470000Y2770000D02*
X2450000Y2810000D01*
X2490000D01*
X2470000Y2770000D01*
X2435000Y2705000D02*
X2415000Y2745000D01*
X2455000D01*
X2435000Y2705000D01*
X4430000Y3350000D02*
X4410000Y3390000D01*
X4450000D01*
X4430000Y3350000D01*
X3115000Y2617441D02*
X3095000Y2657441D01*
X3135000D01*
X3115000Y2617441D01*
X3100000Y2685000D02*
X3080000Y2725000D01*
X3120000D01*
X3100000Y2685000D01*
X2755000Y2635000D02*
X2735000Y2675000D01*
X2775000D01*
X2755000Y2635000D01*
X3935000Y3735000D02*
X3915000Y3775000D01*
X3955000D01*
X3935000Y3735000D01*
X2150000Y3240000D02*
X2130000Y3280000D01*
X2170000D01*
X2150000Y3240000D01*
X1745000Y3434803D02*
X1725000Y3474803D01*
X1765000D01*
X1745000Y3434803D01*
X2018858Y2850000D02*
X1998858Y2890000D01*
X2038858D01*
X2018858Y2850000D01*
X1985000Y2645000D02*
X1965000Y2685000D01*
X2005000D01*
X1985000Y2645000D01*
X2065000Y2265000D02*
X2045000Y2305000D01*
X2085000D01*
X2065000Y2265000D01*
X1890000Y2310000D02*
X1870000Y2350000D01*
X1910000D01*
X1890000Y2310000D01*
X2358504Y2220000D02*
X2338504Y2260000D01*
X2378504D01*
X2358504Y2220000D01*
X2210000Y2790000D02*
X2190000Y2830000D01*
X2230000D01*
X2210000Y2790000D01*
X2010000Y2535000D02*
X1990000Y2575000D01*
X2030000D01*
X2010000Y2535000D01*
X3440000Y2593464D02*
X3420000Y2633464D01*
X3460000D01*
X3440000Y2593464D01*
X1720000Y3605000D02*
X1700000Y3645000D01*
X1740000D01*
X1720000Y3605000D01*
X2785000Y3155000D02*
X2765000Y3195000D01*
X2805000D01*
X2785000Y3155000D01*
X2075000Y3165000D02*
X2055000Y3205000D01*
X2095000D01*
X2075000Y3165000D01*
X2090000Y3125000D02*
X2070000Y3165000D01*
X2110000D01*
X2090000Y3125000D01*
X2003996Y3293504D02*
X1983996Y3333504D01*
X2023996D01*
X2003996Y3293504D01*
X2780000Y3200000D02*
X2760000Y3240000D01*
X2800000D01*
X2780000Y3200000D01*
X3055000Y2290000D02*
X3035000Y2330000D01*
X3075000D01*
X3055000Y2290000D01*
X3017500Y2342500D02*
X2997500Y2382500D01*
X3037500D01*
X3017500Y2342500D01*
X3050000Y2575000D02*
X3030000Y2615000D01*
X3070000D01*
X3050000Y2575000D01*
X1925000Y3555000D02*
X1905000Y3595000D01*
X1945000D01*
X1925000Y3555000D01*
X2560000Y3510945D02*
X2540000Y3550945D01*
X2580000D01*
X2560000Y3510945D01*
X2120000Y2135000D02*
X2100000Y2175000D01*
X2140000D01*
X2120000Y2135000D01*
X2940000Y3885000D02*
X2920000Y3925000D01*
X2960000D01*
X2940000Y3885000D01*
X3102008Y3792008D02*
X3082008Y3832008D01*
X3122008D01*
X3102008Y3792008D01*
X3033071Y3522480D02*
X3013071Y3562480D01*
X3053071D01*
X3033071Y3522480D01*
X2630000Y3865000D02*
X2610000Y3905000D01*
X2650000D01*
X2630000Y3865000D01*
Y3790000D02*
X2610000Y3830000D01*
X2650000D01*
X2630000Y3790000D01*
X2725000Y3525433D02*
X2705000Y3565433D01*
X2745000D01*
X2725000Y3525433D01*
X2095000Y4220000D02*
X2075000Y4260000D01*
X2115000D01*
X2095000Y4220000D01*
X2906496Y3528504D02*
X2886496Y3568504D01*
X2926496D01*
X2906496Y3528504D01*
X3171575Y3570000D02*
X3151575Y3610000D01*
X3191575D01*
X3171575Y3570000D01*
X3149606Y3792008D02*
X3129606Y3832008D01*
X3169606D01*
X3149606Y3792008D01*
X3185000Y3875000D02*
X3165000Y3915000D01*
X3205000D01*
X3185000Y3875000D01*
X3070000Y3865000D02*
X3050000Y3905000D01*
X3090000D01*
X3070000Y3865000D01*
X2390000Y3522480D02*
X2370000Y3562480D01*
X2410000D01*
X2390000Y3522480D01*
X3335000Y2435000D02*
X3315000Y2475000D01*
X3355000D01*
X3335000Y2435000D01*
X3450000Y2496890D02*
X3430000Y2536890D01*
X3470000D01*
X3450000Y2496890D01*
X3586417Y2666417D02*
X3566417Y2706417D01*
X3606417D01*
X3586417Y2666417D01*
X1885000Y2445000D02*
X1865000Y2485000D01*
X1905000D01*
X1885000Y2445000D01*
X3015000Y2607520D02*
X2995000Y2647520D01*
X3035000D01*
X3015000Y2607520D01*
X3060000Y3075000D02*
X3040000Y3115000D01*
X3080000D01*
X3060000Y3075000D01*
X1845000Y3478110D02*
X1825000Y3518110D01*
X1865000D01*
X1845000Y3478110D01*
X2293597Y3800000D02*
X2273597Y3840000D01*
X2313597D01*
X2293597Y3800000D01*
X1910000Y3613150D02*
X1890000Y3653150D01*
X1930000D01*
X1910000Y3613150D01*
X3465000Y1755000D02*
X3445000Y1795000D01*
X3485000D01*
X3465000Y1755000D01*
X4155000Y2675000D02*
X4135000Y2715000D01*
X4175000D01*
X4155000Y2675000D01*
X4245000Y2670000D02*
X4225000Y2710000D01*
X4265000D01*
X4245000Y2670000D01*
X2225000Y2970000D02*
X2205000Y3010000D01*
X2245000D01*
X2225000Y2970000D01*
X2205000Y3078110D02*
X2185000Y3118110D01*
X2225000D01*
X2205000Y3078110D01*
X2165000Y3045000D02*
X2145000Y3085000D01*
X2185000D01*
X2165000Y3045000D01*
X2120000Y3013661D02*
X2100000Y3053661D01*
X2140000D01*
X2120000Y3013661D01*
X2225000Y2893385D02*
X2205000Y2933385D01*
X2245000D01*
X2225000Y2893385D01*
X2105000Y2840000D02*
X2085000Y2880000D01*
X2125000D01*
X2105000Y2840000D01*
X2070000Y2810000D02*
X2050000Y2850000D01*
X2090000D01*
X2070000Y2810000D01*
X3365000Y3185000D02*
X3345000Y3225000D01*
X3385000D01*
X3365000Y3185000D01*
X2445000Y2595000D02*
X2425000Y2635000D01*
X2465000D01*
X2445000Y2595000D01*
X2585000Y2915000D02*
X2565000Y2955000D01*
X2605000D01*
X2585000Y2915000D01*
X3102008Y3910000D02*
X3082008Y3950000D01*
X3122008D01*
X3102008Y3910000D01*
X2325000Y3645000D02*
X2305000Y3685000D01*
X2345000D01*
X2325000Y3645000D01*
X3635000Y3410000D02*
X3615000Y3450000D01*
X3655000D01*
X3635000Y3410000D01*
X3695000Y3560000D02*
X3675000Y3600000D01*
X3715000D01*
X3695000Y3560000D01*
X3665000Y3522480D02*
X3645000Y3562480D01*
X3685000D01*
X3665000Y3522480D01*
X3330000Y3448504D02*
X3310000Y3488504D01*
X3350000D01*
X3330000Y3448504D01*
X2370000Y3265000D02*
X2350000Y3305000D01*
X2390000D01*
X2370000Y3265000D01*
X3920000Y3527480D02*
X3900000Y3567480D01*
X3940000D01*
X3920000Y3527480D01*
X3572520Y3145000D02*
X3552520Y3185000D01*
X3592520D01*
X3572520Y3145000D01*
X2525000Y3355000D02*
X2505000Y3395000D01*
X2545000D01*
X2525000Y3355000D01*
X2425000Y3380000D02*
X2405000Y3420000D01*
X2445000D01*
X2425000Y3380000D01*
X3795000Y3525000D02*
X3775000Y3565000D01*
X3815000D01*
X3795000Y3525000D01*
X3910000Y3185000D02*
X3890000Y3225000D01*
X3930000D01*
X3910000Y3185000D01*
X4147559Y3325000D02*
X4127559Y3365000D01*
X4167559D01*
X4147559Y3325000D01*
X3730000Y3190000D02*
X3710000Y3230000D01*
X3750000D01*
X3730000Y3190000D01*
X3495000Y2761142D02*
X3475000Y2801142D01*
X3515000D01*
X3495000Y2761142D01*
X2895000Y2833386D02*
X2875000Y2873386D01*
X2915000D01*
X2895000Y2833386D01*
X2700000Y3370000D02*
X2680000Y3410000D01*
X2720000D01*
X2700000Y3370000D01*
X2350000Y3315000D02*
X2330000Y3355000D01*
X2370000D01*
X2350000Y3315000D01*
X2475000Y2945000D02*
X2455000Y2985000D01*
X2495000D01*
X2475000Y2945000D01*
X3698740Y3410000D02*
X3678740Y3450000D01*
X3718740D01*
X3698740Y3410000D01*
X2810000Y2765000D02*
X2790000Y2805000D01*
X2830000D01*
X2810000Y2765000D01*
X2925000Y3425000D02*
X2905000Y3465000D01*
X2945000D01*
X2925000Y3425000D01*
X3670000Y2715000D02*
X3650000Y2755000D01*
X3690000D01*
X3670000Y2715000D01*
X2565000Y3585000D02*
X2545000Y3625000D01*
X2585000D01*
X2565000Y3585000D01*
X3027520Y3270000D02*
X3007520Y3310000D01*
X3047520D01*
X3027520Y3270000D01*
X3165000Y3305000D02*
X3145000Y3345000D01*
X3185000D01*
X3165000Y3305000D01*
X2831220Y3325000D02*
X2811220Y3365000D01*
X2851220D01*
X2831220Y3325000D01*
X3170000Y3525000D02*
X3150000Y3565000D01*
X3190000D01*
X3170000Y3525000D01*
X2355000Y3680000D02*
X2335000Y3720000D01*
X2375000D01*
X2355000Y3680000D01*
X3783110Y3440000D02*
X3763110Y3480000D01*
X3803110D01*
X3783110Y3440000D01*
X3645000Y3115000D02*
X3625000Y3155000D01*
X3665000D01*
X3645000Y3115000D01*
X3502441Y2952441D02*
X3482441Y2992441D01*
X3522441D01*
X3502441Y2952441D01*
X3530000Y2837559D02*
X3510000Y2877559D01*
X3550000D01*
X3530000Y2837559D01*
X3415000Y3430000D02*
X3395000Y3470000D01*
X3435000D01*
X3415000Y3430000D01*
X3360000Y3530000D02*
X3340000Y3570000D01*
X3380000D01*
X3360000Y3530000D01*
X3156614Y3081220D02*
X3136614Y3121220D01*
X3176614D01*
X3156614Y3081220D01*
X2155000Y3105000D02*
X2135000Y3145000D01*
X2175000D01*
X2155000Y3105000D01*
X3153229Y2859331D02*
X3133229Y2899331D01*
X3173229D01*
X3153229Y2859331D01*
X3151614Y2748386D02*
X3131614Y2788386D01*
X3171614D01*
X3151614Y2748386D01*
X3912500Y3297500D02*
X3892500Y3337500D01*
X3932500D01*
X3912500Y3297500D01*
D80*
X4520000Y3750000D02*
G03*
X4520000Y3750000I-20000J0D01*
G01*
X4595000Y3600000D02*
G03*
X4595000Y3600000I-20000J0D01*
G01*
X4520000Y3450000D02*
G03*
X4520000Y3450000I-20000J0D01*
G01*
X4595000Y3300000D02*
G03*
X4595000Y3300000I-20000J0D01*
G01*
Y3000000D02*
G03*
X4595000Y3000000I-20000J0D01*
G01*
X4520000Y2850000D02*
G03*
X4520000Y2850000I-20000J0D01*
G01*
X4595000Y2700000D02*
G03*
X4595000Y2700000I-20000J0D01*
G01*
X4520000Y2550000D02*
G03*
X4520000Y2550000I-20000J0D01*
G01*
X4370000Y4050000D02*
G03*
X4370000Y4050000I-20000J0D01*
G01*
X4445000Y3900000D02*
G03*
X4445000Y3900000I-20000J0D01*
G01*
X4370000Y3750000D02*
G03*
X4370000Y3750000I-20000J0D01*
G01*
X4445000Y3600000D02*
G03*
X4445000Y3600000I-20000J0D01*
G01*
X4370000Y2850000D02*
G03*
X4370000Y2850000I-20000J0D01*
G01*
Y2250000D02*
G03*
X4370000Y2250000I-20000J0D01*
G01*
X4220000Y4050000D02*
G03*
X4220000Y4050000I-20000J0D01*
G01*
X4295000Y3900000D02*
G03*
X4295000Y3900000I-20000J0D01*
G01*
X4220000Y3750000D02*
G03*
X4220000Y3750000I-20000J0D01*
G01*
Y2850000D02*
G03*
X4220000Y2850000I-20000J0D01*
G01*
X4070000Y4350000D02*
G03*
X4070000Y4350000I-20000J0D01*
G01*
X4145000Y4200000D02*
G03*
X4145000Y4200000I-20000J0D01*
G01*
X4070000Y4050000D02*
G03*
X4070000Y4050000I-20000J0D01*
G01*
X4145000Y3900000D02*
G03*
X4145000Y3900000I-20000J0D01*
G01*
X4070000Y3750000D02*
G03*
X4070000Y3750000I-20000J0D01*
G01*
Y2850000D02*
G03*
X4070000Y2850000I-20000J0D01*
G01*
X4145000Y2100000D02*
G03*
X4145000Y2100000I-20000J0D01*
G01*
X4070000Y1950000D02*
G03*
X4070000Y1950000I-20000J0D01*
G01*
X3995000Y4200000D02*
G03*
X3995000Y4200000I-20000J0D01*
G01*
X3920000Y4050000D02*
G03*
X3920000Y4050000I-20000J0D01*
G01*
X3995000Y3900000D02*
G03*
X3995000Y3900000I-20000J0D01*
G01*
X3920000Y3450000D02*
G03*
X3920000Y3450000I-20000J0D01*
G01*
X3995000Y3000000D02*
G03*
X3995000Y3000000I-20000J0D01*
G01*
Y2700000D02*
G03*
X3995000Y2700000I-20000J0D01*
G01*
X3920000Y2550000D02*
G03*
X3920000Y2550000I-20000J0D01*
G01*
Y2250000D02*
G03*
X3920000Y2250000I-20000J0D01*
G01*
X3995000Y2100000D02*
G03*
X3995000Y2100000I-20000J0D01*
G01*
X3845000Y4500000D02*
G03*
X3845000Y4500000I-20000J0D01*
G01*
Y4200000D02*
G03*
X3845000Y4200000I-20000J0D01*
G01*
X3770000Y4050000D02*
G03*
X3770000Y4050000I-20000J0D01*
G01*
X3845000Y3900000D02*
G03*
X3845000Y3900000I-20000J0D01*
G01*
X3770000Y3150000D02*
G03*
X3770000Y3150000I-20000J0D01*
G01*
X3845000Y3000000D02*
G03*
X3845000Y3000000I-20000J0D01*
G01*
Y2700000D02*
G03*
X3845000Y2700000I-20000J0D01*
G01*
X3770000Y2550000D02*
G03*
X3770000Y2550000I-20000J0D01*
G01*
X3845000Y2400000D02*
G03*
X3845000Y2400000I-20000J0D01*
G01*
X3770000Y2250000D02*
G03*
X3770000Y2250000I-20000J0D01*
G01*
X3845000Y2100000D02*
G03*
X3845000Y2100000I-20000J0D01*
G01*
X3770000Y1950000D02*
G03*
X3770000Y1950000I-20000J0D01*
G01*
X3845000Y1800000D02*
G03*
X3845000Y1800000I-20000J0D01*
G01*
X3695000Y4500000D02*
G03*
X3695000Y4500000I-20000J0D01*
G01*
Y3900000D02*
G03*
X3695000Y3900000I-20000J0D01*
G01*
X3620000Y3750000D02*
G03*
X3620000Y3750000I-20000J0D01*
G01*
Y2550000D02*
G03*
X3620000Y2550000I-20000J0D01*
G01*
X3695000Y2400000D02*
G03*
X3695000Y2400000I-20000J0D01*
G01*
Y2100000D02*
G03*
X3695000Y2100000I-20000J0D01*
G01*
X3620000Y1950000D02*
G03*
X3620000Y1950000I-20000J0D01*
G01*
X3695000Y1800000D02*
G03*
X3695000Y1800000I-20000J0D01*
G01*
X3545000Y4500000D02*
G03*
X3545000Y4500000I-20000J0D01*
G01*
Y3900000D02*
G03*
X3545000Y3900000I-20000J0D01*
G01*
Y3600000D02*
G03*
X3545000Y3600000I-20000J0D01*
G01*
X3470000Y2250000D02*
G03*
X3470000Y2250000I-20000J0D01*
G01*
X3545000Y2100000D02*
G03*
X3545000Y2100000I-20000J0D01*
G01*
X3470000Y1950000D02*
G03*
X3470000Y1950000I-20000J0D01*
G01*
X3545000Y1800000D02*
G03*
X3545000Y1800000I-20000J0D01*
G01*
X3395000Y4500000D02*
G03*
X3395000Y4500000I-20000J0D01*
G01*
Y4200000D02*
G03*
X3395000Y4200000I-20000J0D01*
G01*
X3320000Y4050000D02*
G03*
X3320000Y4050000I-20000J0D01*
G01*
Y3150000D02*
G03*
X3320000Y3150000I-20000J0D01*
G01*
X3395000Y3000000D02*
G03*
X3395000Y3000000I-20000J0D01*
G01*
X3320000Y2250000D02*
G03*
X3320000Y2250000I-20000J0D01*
G01*
X3395000Y1800000D02*
G03*
X3395000Y1800000I-20000J0D01*
G01*
X3320000Y1650000D02*
G03*
X3320000Y1650000I-20000J0D01*
G01*
X3245000Y4500000D02*
G03*
X3245000Y4500000I-20000J0D01*
G01*
Y4200000D02*
G03*
X3245000Y4200000I-20000J0D01*
G01*
X3170000Y2250000D02*
G03*
X3170000Y2250000I-20000J0D01*
G01*
X3245000Y1800000D02*
G03*
X3245000Y1800000I-20000J0D01*
G01*
X3170000Y1650000D02*
G03*
X3170000Y1650000I-20000J0D01*
G01*
X3095000Y4500000D02*
G03*
X3095000Y4500000I-20000J0D01*
G01*
X3020000Y3750000D02*
G03*
X3020000Y3750000I-20000J0D01*
G01*
X3095000Y3300000D02*
G03*
X3095000Y3300000I-20000J0D01*
G01*
Y3000000D02*
G03*
X3095000Y3000000I-20000J0D01*
G01*
X3020000Y2250000D02*
G03*
X3020000Y2250000I-20000J0D01*
G01*
X3095000Y1800000D02*
G03*
X3095000Y1800000I-20000J0D01*
G01*
X3020000Y1650000D02*
G03*
X3020000Y1650000I-20000J0D01*
G01*
X2945000Y4500000D02*
G03*
X2945000Y4500000I-20000J0D01*
G01*
Y4200000D02*
G03*
X2945000Y4200000I-20000J0D01*
G01*
X2870000Y3750000D02*
G03*
X2870000Y3750000I-20000J0D01*
G01*
Y3150000D02*
G03*
X2870000Y3150000I-20000J0D01*
G01*
Y2250000D02*
G03*
X2870000Y2250000I-20000J0D01*
G01*
X2945000Y1800000D02*
G03*
X2945000Y1800000I-20000J0D01*
G01*
X2795000Y4500000D02*
G03*
X2795000Y4500000I-20000J0D01*
G01*
Y4200000D02*
G03*
X2795000Y4200000I-20000J0D01*
G01*
Y3900000D02*
G03*
X2795000Y3900000I-20000J0D01*
G01*
X2720000Y3750000D02*
G03*
X2720000Y3750000I-20000J0D01*
G01*
Y3150000D02*
G03*
X2720000Y3150000I-20000J0D01*
G01*
Y2250000D02*
G03*
X2720000Y2250000I-20000J0D01*
G01*
X2795000Y1800000D02*
G03*
X2795000Y1800000I-20000J0D01*
G01*
X2645000Y4500000D02*
G03*
X2645000Y4500000I-20000J0D01*
G01*
Y4200000D02*
G03*
X2645000Y4200000I-20000J0D01*
G01*
X2570000Y3750000D02*
G03*
X2570000Y3750000I-20000J0D01*
G01*
Y2250000D02*
G03*
X2570000Y2250000I-20000J0D01*
G01*
X2645000Y2100000D02*
G03*
X2645000Y2100000I-20000J0D01*
G01*
Y1800000D02*
G03*
X2645000Y1800000I-20000J0D01*
G01*
X2495000Y4500000D02*
G03*
X2495000Y4500000I-20000J0D01*
G01*
Y4200000D02*
G03*
X2495000Y4200000I-20000J0D01*
G01*
Y3900000D02*
G03*
X2495000Y3900000I-20000J0D01*
G01*
Y1800000D02*
G03*
X2495000Y1800000I-20000J0D01*
G01*
X2345000Y4200000D02*
G03*
X2345000Y4200000I-20000J0D01*
G01*
X2120000Y3750000D02*
G03*
X2120000Y3750000I-20000J0D01*
G01*
X2045000Y4200000D02*
G03*
X2045000Y4200000I-20000J0D01*
G01*
X1970000Y2250000D02*
G03*
X1970000Y2250000I-20000J0D01*
G01*
X1820000Y3750000D02*
G03*
X1820000Y3750000I-20000J0D01*
G01*
X1895000Y3300000D02*
G03*
X1895000Y3300000I-20000J0D01*
G01*
Y3000000D02*
G03*
X1895000Y3000000I-20000J0D01*
G01*
X1670000Y3150000D02*
G03*
X1670000Y3150000I-20000J0D01*
G01*
Y2850000D02*
G03*
X1670000Y2850000I-20000J0D01*
G01*
X1745000Y2700000D02*
G03*
X1745000Y2700000I-20000J0D01*
G01*
%TF.MD5,869b0ab8c5fadedaeaab6fa557b963d9*%
M02*
