%TF.GenerationSoftware,Altium Limited,Altium Designer,18.1.6 (161)*%
G04 Layer_Color=32768*
%FSLAX26Y26*%
%MOIN*%
%TF.FileFunction,Other,Mechanical_15*%
%TF.Part,Single*%
G01*
G75*
%TA.AperFunction,NonConductor*%
%ADD53C,0.003937*%
%ADD71C,0.001968*%
D53*
X1995315Y2460000D02*
X2034685D01*
X2015000Y2440315D02*
Y2479685D01*
X3727284Y3550000D02*
X3762717D01*
X3745000Y3532283D02*
Y3567716D01*
X4490000Y3250000D02*
Y3285433D01*
X4472283Y3267716D02*
X4507717D01*
X4490591Y3131889D02*
Y3167323D01*
X4472874Y3149606D02*
X4508307D01*
X3585315Y2095000D02*
X3624685D01*
X3605000Y2075315D02*
Y2114685D01*
X1703543Y2875315D02*
Y2914685D01*
X1683858Y2895000D02*
X1723228D01*
X2710000Y2575315D02*
Y2614685D01*
X2690315Y2595000D02*
X2729685D01*
X2534606Y2627520D02*
X2573976D01*
X2554291Y2607835D02*
Y2647205D01*
X4115315Y2250000D02*
X4154685D01*
X4135000Y2230315D02*
Y2269685D01*
X4400000Y2480315D02*
Y2519685D01*
X4380315Y2500000D02*
X4419685D01*
X4400000Y2360315D02*
Y2399685D01*
X4380315Y2380000D02*
X4419685D01*
X4136496Y2385315D02*
Y2424685D01*
X4116811Y2405000D02*
X4156181D01*
X4055000Y2560315D02*
Y2599685D01*
X4035315Y2580000D02*
X4074685D01*
X4150000Y2560315D02*
Y2599685D01*
X4130315Y2580000D02*
X4169685D01*
X4245000Y2560315D02*
Y2599685D01*
X4225315Y2580000D02*
X4264685D01*
X2895315Y3680000D02*
X2934685D01*
X2915000Y3660315D02*
Y3699685D01*
X4040000Y3262283D02*
Y3297716D01*
X4022284Y3280000D02*
X4057717D01*
X1890000Y2655315D02*
Y2694685D01*
X1870315Y2675000D02*
X1909685D01*
X3980000Y3262283D02*
Y3297716D01*
X3962284Y3280000D02*
X3997717D01*
X2595000Y3130000D02*
Y3169370D01*
X2575315Y3149685D02*
X2614685D01*
X3980000Y3520315D02*
Y3559685D01*
X3960315Y3540000D02*
X3999685D01*
X1695000Y3303425D02*
Y3342795D01*
X1675315Y3323110D02*
X1714685D01*
X3655157Y3205000D02*
X3694528D01*
X3674843Y3185315D02*
Y3224685D01*
X3775000Y2807284D02*
Y2842717D01*
X3757283Y2825000D02*
X3792716D01*
X3570315Y3715000D02*
X3609685D01*
X3590000Y3695315D02*
Y3734685D01*
D71*
X1983504Y2404882D02*
Y2515118D01*
X2046496Y2404882D02*
Y2515118D01*
X1983504D02*
X2046496D01*
X1983504Y2404882D02*
X2046496D01*
X3125000Y3221299D02*
Y3258701D01*
X3106299Y3240000D02*
X3143701D01*
X3079724Y3218347D02*
X3170276D01*
X3079724Y3261654D02*
X3170276D01*
Y3218347D02*
Y3261654D01*
X3079724Y3218347D02*
Y3261654D01*
X3245000Y2749685D02*
Y2787086D01*
X3226299Y2768386D02*
X3263701D01*
X3199724Y2746732D02*
X3290276D01*
X3199724Y2790039D02*
X3290276D01*
Y2746732D02*
Y2790039D01*
X3199724Y2746732D02*
Y2790039D01*
X3245000Y2860630D02*
Y2898031D01*
X3226299Y2879331D02*
X3263701D01*
X3199724Y2857677D02*
X3290276D01*
X3199724Y2900984D02*
X3290276D01*
Y2857677D02*
Y2900984D01*
X3199724Y2857677D02*
Y2900984D01*
X3245000Y2971575D02*
Y3008976D01*
X3226299Y2990275D02*
X3263701D01*
X3199724Y2968622D02*
X3290276D01*
X3199724Y3011929D02*
X3290276D01*
Y2968622D02*
Y3011929D01*
X3199724Y2968622D02*
Y3011929D01*
X3245000Y3082519D02*
Y3119921D01*
X3226299Y3101220D02*
X3263701D01*
X3199724Y3079567D02*
X3290276D01*
X3199724Y3122874D02*
X3290276D01*
Y3079567D02*
Y3122874D01*
X3199724Y3079567D02*
Y3122874D01*
X3245000Y3193464D02*
Y3230866D01*
X3226299Y3212165D02*
X3263701D01*
X3199724Y3190512D02*
X3290276D01*
X3199724Y3233819D02*
X3290276D01*
Y3190512D02*
Y3233819D01*
X3199724Y3190512D02*
Y3233819D01*
X3245000Y3304409D02*
Y3341811D01*
X3226299Y3323110D02*
X3263701D01*
X3199724Y3301456D02*
X3290276D01*
X3199724Y3344764D02*
X3290276D01*
Y3301456D02*
Y3344764D01*
X3199724Y3301456D02*
Y3344764D01*
X3245000Y3526299D02*
Y3563701D01*
X3226299Y3545000D02*
X3263701D01*
X3199724Y3523346D02*
X3290276D01*
X3199724Y3566653D02*
X3290276D01*
Y3523346D02*
Y3566653D01*
X3199724Y3523346D02*
Y3566653D01*
X3245000Y3415354D02*
Y3452756D01*
X3226299Y3434055D02*
X3263701D01*
X3199724Y3412401D02*
X3290276D01*
X3199724Y3455709D02*
X3290276D01*
Y3412401D02*
Y3455709D01*
X3199724Y3412401D02*
Y3455709D01*
X3766654Y3508661D02*
Y3591338D01*
X3723347Y3508661D02*
Y3591338D01*
X3766654D01*
X3723347Y3508661D02*
X3766654D01*
X3815472Y3475945D02*
X3874528D01*
X3815472Y3594055D02*
X3874528D01*
X3815472Y3475945D02*
Y3594055D01*
X3874528Y3475945D02*
Y3594055D01*
X3845000Y3516299D02*
Y3553701D01*
X3826299Y3535000D02*
X3863701D01*
X4448661Y3246063D02*
X4531338D01*
X4448661Y3289370D02*
X4531338D01*
Y3246063D02*
Y3289370D01*
X4448661Y3246063D02*
Y3289370D01*
X4449252Y3127952D02*
X4531929D01*
X4449252Y3171260D02*
X4531929D01*
Y3127952D02*
Y3171260D01*
X4449252Y3127952D02*
Y3171260D01*
X3576575Y2210945D02*
X3635630D01*
X3576575Y2329055D02*
X3635630D01*
X3576575Y2210945D02*
Y2329055D01*
X3635630Y2210945D02*
Y2329055D01*
X3606102Y2251299D02*
Y2288701D01*
X3587402Y2270000D02*
X3624803D01*
X3633543Y2020197D02*
Y2169803D01*
X3576457Y2020197D02*
X3633543D01*
X3576457Y2169803D02*
X3633543D01*
X3576457Y2020197D02*
Y2169803D01*
X1672047Y2950118D02*
X1735039D01*
X1672047Y2839882D02*
X1735039D01*
Y2950118D01*
X1672047Y2839882D02*
Y2950118D01*
X2811535Y3521299D02*
Y3558701D01*
X2792834Y3540000D02*
X2830236D01*
X2734764Y3498662D02*
X2888307D01*
X2734764Y3581339D02*
X2888307D01*
X2734764Y3498662D02*
Y3581339D01*
X2888307Y3498662D02*
Y3581339D01*
X2660000Y2666299D02*
Y2703701D01*
X2641299Y2685000D02*
X2678701D01*
X2600945Y2714528D02*
X2719055D01*
X2600945Y2655472D02*
X2719055D01*
X2600945D02*
Y2714528D01*
X2719055Y2655472D02*
Y2714528D01*
X2641102Y2623543D02*
X2778898D01*
Y2566457D02*
Y2623543D01*
X2641102Y2566457D02*
Y2623543D01*
Y2566457D02*
X2778898D01*
X2582835Y2552717D02*
Y2702323D01*
X2525748Y2552717D02*
X2582835D01*
X2525748Y2702323D02*
X2582835D01*
X2525748Y2552717D02*
Y2702323D01*
X2471299Y2708504D02*
X2508701D01*
X2490000Y2689803D02*
Y2727205D01*
X2519528Y2649449D02*
Y2767559D01*
X2460472Y2649449D02*
Y2767559D01*
X2519528D01*
X2460472Y2649449D02*
X2519528D01*
X4079882Y2220472D02*
Y2279528D01*
X4190118Y2220472D02*
Y2279528D01*
X4079882D02*
X4190118D01*
X4079882Y2220472D02*
X4190118D01*
X4370472Y2444882D02*
X4429528D01*
X4370472Y2555118D02*
X4429528D01*
X4370472Y2444882D02*
Y2555118D01*
X4429528Y2444882D02*
Y2555118D01*
X4370472Y2324882D02*
X4429528D01*
X4370472Y2435118D02*
X4429528D01*
X4370472Y2324882D02*
Y2435118D01*
X4429528Y2324882D02*
Y2435118D01*
X3994764Y2304606D02*
X4278228D01*
X3994764Y2505394D02*
X4278228D01*
Y2304606D02*
Y2505394D01*
X3994764Y2304606D02*
Y2505394D01*
X4025472Y2635118D02*
X4084528D01*
X4025472Y2524881D02*
X4084528D01*
Y2635118D01*
X4025472Y2524881D02*
Y2635118D01*
X4120472Y2635118D02*
X4179528D01*
X4120472Y2524882D02*
X4179528D01*
Y2635118D01*
X4120472Y2524882D02*
Y2635118D01*
X4215472D02*
X4274528D01*
X4215472Y2524882D02*
X4274528D01*
Y2635118D01*
X4215472Y2524882D02*
Y2635118D01*
X3646457Y2830000D02*
X3683858D01*
X3665157Y2811299D02*
Y2848701D01*
X3686811Y2784724D02*
Y2875276D01*
X3643504Y2784724D02*
Y2875276D01*
X3686811D01*
X3643504Y2784724D02*
X3686811D01*
X2613819Y3583543D02*
X3216181D01*
Y3776457D01*
X2613819Y3583543D02*
Y3776457D01*
X3216181D01*
X2954724Y3788346D02*
Y3831653D01*
X3045276Y3788346D02*
Y3831653D01*
X2954724D02*
X3045276D01*
X2954724Y3788346D02*
X3045276D01*
X2981299Y3810000D02*
X3018701D01*
X3000000Y3791299D02*
Y3828701D01*
X2845276Y3788346D02*
Y3831653D01*
X2754724Y3788346D02*
Y3831653D01*
Y3788346D02*
X2845276D01*
X2754724Y3831653D02*
X2845276D01*
X2781299Y3810000D02*
X2818701D01*
X2800000Y3791299D02*
Y3828701D01*
X2051299Y2665000D02*
X2088701D01*
X2070000Y2646299D02*
Y2683701D01*
X2048347Y2619724D02*
Y2710276D01*
X2091654Y2619724D02*
Y2710276D01*
X2048347Y2619724D02*
X2091654D01*
X2048347Y2710276D02*
X2091654D01*
X2371299Y3910000D02*
X2408701D01*
X2390000Y3891299D02*
Y3928701D01*
X2411653Y3864724D02*
Y3955276D01*
X2368346Y3864724D02*
Y3955276D01*
X2411653D01*
X2368346Y3864724D02*
X2411653D01*
X2497559Y3910000D02*
X2534961D01*
X2516260Y3891299D02*
Y3928701D01*
X2537913Y3864724D02*
Y3955276D01*
X2494606Y3864724D02*
Y3955276D01*
X2537913D01*
X2494606Y3864724D02*
X2537913D01*
X4018347Y3238661D02*
X4061654D01*
X4018347Y3321338D02*
X4061654D01*
X4018347Y3238661D02*
Y3321338D01*
X4061654Y3238661D02*
Y3321338D01*
X2742638Y3280945D02*
X2801693D01*
X2742638Y3399055D02*
X2801693D01*
Y3280945D02*
Y3399055D01*
X2742638Y3280945D02*
Y3399055D01*
X2772165Y3321299D02*
Y3358701D01*
X2753465Y3340000D02*
X2790866D01*
X2604843Y3285945D02*
X2663898D01*
X2604843Y3404055D02*
X2663898D01*
Y3285945D02*
Y3404055D01*
X2604843Y3285945D02*
Y3404055D01*
X2634370Y3326299D02*
Y3363701D01*
X2615669Y3345000D02*
X2653071D01*
X2790472Y3014055D02*
X2849528D01*
X2790472Y2895945D02*
X2849528D01*
X2790472D02*
Y3014055D01*
X2849528Y2895945D02*
Y3014055D01*
X2820000Y2936299D02*
Y2973701D01*
X2801299Y2955000D02*
X2838701D01*
X2440472Y3270945D02*
X2499528D01*
X2440472Y3389055D02*
X2499528D01*
Y3270945D02*
Y3389055D01*
X2440472Y3270945D02*
Y3389055D01*
X2470000Y3311299D02*
Y3348701D01*
X2451299Y3330000D02*
X2488701D01*
X2454055Y2883858D02*
Y2942913D01*
X2335945Y2883858D02*
Y2942913D01*
X2454055D01*
X2335945Y2883858D02*
X2454055D01*
X2376299Y2913385D02*
X2413701D01*
X2395000Y2894685D02*
Y2932086D01*
X1738425Y2863976D02*
X2041575D01*
X1738425Y2486024D02*
X2041575D01*
Y2863976D01*
X1738425Y2486024D02*
Y2863976D01*
X3581063Y3023347D02*
Y3066654D01*
X3490512Y3023347D02*
Y3066654D01*
X3581063D01*
X3490512Y3023347D02*
X3581063D01*
X3517086Y3045000D02*
X3554488D01*
X3535787Y3026299D02*
Y3063701D01*
X3958347Y3238661D02*
X4001654D01*
X3958347Y3321338D02*
X4001654D01*
X3958347Y3238661D02*
Y3321338D01*
X4001654Y3238661D02*
Y3321338D01*
X2293347Y2715276D02*
X2336654D01*
X2293347Y2624724D02*
X2336654D01*
Y2715276D01*
X2293347Y2624724D02*
Y2715276D01*
X2315000Y2651299D02*
Y2688701D01*
X2296299Y2670000D02*
X2333701D01*
X2208347Y2715276D02*
X2251654D01*
X2208347Y2624724D02*
X2251654D01*
Y2715276D01*
X2208347Y2624724D02*
Y2715276D01*
X2230000Y2651299D02*
Y2688701D01*
X2211299Y2670000D02*
X2248701D01*
X4083347Y3325276D02*
X4126654D01*
X4083347Y3234724D02*
X4126654D01*
Y3325276D01*
X4083347Y3234724D02*
Y3325276D01*
X4105000Y3261299D02*
Y3298701D01*
X4086299Y3280000D02*
X4123701D01*
X4088347Y3090276D02*
X4131654D01*
X4088347Y2999724D02*
X4131654D01*
Y3090276D01*
X4088347Y2999724D02*
Y3090276D01*
X4110000Y3026299D02*
Y3063701D01*
X4091299Y3045000D02*
X4128701D01*
X4088346Y2889724D02*
X4131654D01*
X4088346Y2980276D02*
X4131654D01*
X4088346Y2889724D02*
Y2980276D01*
X4131654Y2889724D02*
Y2980276D01*
X4110000Y2916299D02*
Y2953701D01*
X4091299Y2935000D02*
X4128701D01*
X4083347Y3127165D02*
X4126654D01*
X4083347Y3217716D02*
X4126654D01*
X4083347Y3127165D02*
Y3217716D01*
X4126654Y3127165D02*
Y3217716D01*
X4105000Y3153740D02*
Y3191142D01*
X4086299Y3172441D02*
X4123701D01*
X2303346Y3864724D02*
X2346653D01*
X2303346Y3955276D02*
X2346653D01*
X2303346Y3864724D02*
Y3955276D01*
X2346653Y3864724D02*
Y3955276D01*
X2325000Y3891299D02*
Y3928701D01*
X2306299Y3910000D02*
X2343701D01*
X2792520Y2715000D02*
X2829921D01*
X2811220Y2696299D02*
Y2733701D01*
X2789567Y2669724D02*
Y2760276D01*
X2832874Y2669724D02*
Y2760276D01*
X2789567D02*
X2832874D01*
X2789567Y2669724D02*
X2832874D01*
X2851299Y2715000D02*
X2888701D01*
X2870000Y2696299D02*
Y2733701D01*
X2848347Y2669724D02*
Y2760276D01*
X2891654Y2669724D02*
Y2760276D01*
X2848347D02*
X2891654D01*
X2848347Y2669724D02*
X2891654D01*
X1766299Y3360000D02*
X1803701D01*
X1785000Y3341299D02*
Y3378701D01*
X1755472Y3300945D02*
Y3419055D01*
X1814527Y3300945D02*
Y3419055D01*
X1755472Y3300945D02*
X1814527D01*
X1755472Y3419055D02*
X1814527D01*
X2262323Y3482362D02*
X2927677D01*
X2262323Y2817008D02*
X2927677D01*
Y3482362D01*
X2262323Y2817008D02*
Y3482362D01*
X3976418Y3067697D02*
Y3111004D01*
X4066969Y3067697D02*
Y3111004D01*
X3976418Y3067697D02*
X4066969D01*
X3976418Y3111004D02*
X4066969D01*
X4002992Y3089350D02*
X4040394D01*
X4021693Y3070649D02*
Y3108051D01*
X3976418Y3132224D02*
Y3175531D01*
X4066969Y3132224D02*
Y3175531D01*
X3976418Y3132224D02*
X4066969D01*
X3976418Y3175531D02*
X4066969D01*
X4002992Y3153878D02*
X4040394D01*
X4021693Y3135177D02*
Y3172579D01*
X3708346Y3325276D02*
X3751653D01*
X3708346Y3234724D02*
X3751653D01*
X3708346D02*
Y3325276D01*
X3751653Y3234724D02*
Y3325276D01*
X3730000Y3261299D02*
Y3298701D01*
X3711299Y3280000D02*
X3748701D01*
X3574724Y3278346D02*
Y3321653D01*
X3665276Y3278346D02*
Y3321653D01*
X3574724Y3278346D02*
X3665276D01*
X3574724Y3321653D02*
X3665276D01*
X3601299Y3300000D02*
X3638701D01*
X3620000Y3281299D02*
Y3318701D01*
X4255472Y3570039D02*
X4314528D01*
X4255472Y3451929D02*
X4314528D01*
X4255472D02*
Y3570039D01*
X4314528Y3451929D02*
Y3570039D01*
X4285000Y3492284D02*
Y3529685D01*
X4266299Y3510984D02*
X4303701D01*
X3885512Y3378583D02*
X4074488D01*
X3885512Y3701417D02*
X4074488D01*
Y3378583D02*
Y3701417D01*
X3885512Y3378583D02*
Y3701417D01*
X4090472Y3570039D02*
X4149528D01*
X4090472Y3451929D02*
X4149528D01*
X4090472D02*
Y3570039D01*
X4149528Y3451929D02*
Y3570039D01*
X4120000Y3492284D02*
Y3529685D01*
X4101299Y3510984D02*
X4138701D01*
X4170472Y3570039D02*
X4229528D01*
X4170472Y3451929D02*
X4229528D01*
X4170472D02*
Y3570039D01*
X4229528Y3451929D02*
Y3570039D01*
X4200000Y3492284D02*
Y3529685D01*
X4181299Y3510984D02*
X4218701D01*
X2425472Y3639055D02*
X2484528D01*
X2425472Y3520945D02*
X2484528D01*
Y3639055D01*
X2425472Y3520945D02*
Y3639055D01*
X2455000Y3561299D02*
Y3598701D01*
X2436299Y3580000D02*
X2473701D01*
X2125945Y3350472D02*
Y3409528D01*
X2244055Y3350472D02*
Y3409528D01*
X2125945D02*
X2244055D01*
X2125945Y3350472D02*
X2244055D01*
X2166299Y3380000D02*
X2203701D01*
X2185000Y3361299D02*
Y3398701D01*
X1748150Y3236496D02*
Y3409724D01*
X1641850D02*
X1748150D01*
X1641850Y3236496D02*
Y3409724D01*
Y3236496D02*
X1748150D01*
X3865787Y3014055D02*
Y3395945D01*
X3483898Y3014055D02*
Y3395945D01*
X3865787D01*
X3483898Y3014055D02*
X3865787D01*
X3753346Y2866339D02*
X3796653D01*
X3753346Y2783662D02*
X3796653D01*
Y2866339D01*
X3753346Y2783662D02*
Y2866339D01*
X3288819Y3811457D02*
X3891181D01*
X3288819Y3618543D02*
Y3811457D01*
X3891181Y3618543D02*
Y3811457D01*
X3288819Y3618543D02*
X3891181D01*
X3381339Y3940276D02*
X3424646D01*
X3381339Y3849724D02*
X3424646D01*
Y3940276D01*
X3381339Y3849724D02*
Y3940276D01*
X3402992Y3876299D02*
Y3913701D01*
X3384291Y3895000D02*
X3421693D01*
X3753347Y3950276D02*
X3796654D01*
X3753347Y3859724D02*
X3796654D01*
Y3950276D01*
X3753347Y3859724D02*
Y3950276D01*
X3775000Y3886299D02*
Y3923701D01*
X3756299Y3905000D02*
X3793701D01*
%TF.MD5,31e2a4298af1a35e3442f3fe0e057b0f*%
M02*
