%TF.GenerationSoftware,Altium Limited,Altium Designer,18.1.6 (161)*%
G04 Layer_Physical_Order=1*
G04 Layer_Color=255*
%FSLAX26Y26*%
%MOIN*%
%TF.FileFunction,Copper,L1,Top,Signal*%
%TF.Part,Single*%
G01*
G75*
%TA.AperFunction,NonConductor*%
%ADD10C,0.010000*%
%TA.AperFunction,SMDPad,CuDef*%
%ADD11R,0.039370X0.035433*%
%ADD12R,0.043307X0.049213*%
%ADD13R,0.015748X0.035433*%
%ADD14R,0.033465X0.051181*%
%ADD15R,0.066929X0.110236*%
%ADD16R,0.050000X0.030000*%
%ADD17R,0.100000X0.105000*%
%ADD18R,0.019685X0.086614*%
%ADD19R,0.122047X0.094488*%
%ADD20R,0.030000X0.050000*%
%ADD21R,0.105000X0.100000*%
%ADD22R,0.051181X0.033465*%
%ADD23R,0.027559X0.035433*%
%ADD24R,0.035433X0.027559*%
%TA.AperFunction,Conductor*%
%ADD25C,0.010000*%
%ADD26C,0.020000*%
%TA.AperFunction,ComponentPad*%
%ADD27C,0.050000*%
%ADD28C,0.066929*%
%ADD29C,0.070000*%
%ADD30C,0.045000*%
%ADD31C,0.055000*%
%ADD32C,0.124000*%
%ADD33C,0.063000*%
%ADD34C,0.120000*%
%ADD35C,0.100000*%
%ADD36R,0.051181X0.137795*%
%ADD37R,0.137795X0.051181*%
%ADD38R,0.157480X0.051181*%
%TA.AperFunction,ViaPad*%
%ADD39C,0.025000*%
%ADD40C,0.050000*%
G36*
X3031487Y4702088D02*
X3039818Y4680129D01*
X3036796Y4672832D01*
X3035765Y4665000D01*
X3036796Y4657168D01*
X3039818Y4649871D01*
X3044627Y4643604D01*
X3050894Y4638795D01*
X3058192Y4635772D01*
X3066023Y4634741D01*
X3084653Y4615236D01*
X3087875Y4609108D01*
Y4567333D01*
X3085926Y4566291D01*
X3085473Y4566295D01*
X3071319Y4571406D01*
X3053347Y4582894D01*
X3051751Y4586747D01*
X3045339Y4595103D01*
X3036983Y4601515D01*
X3027253Y4605545D01*
X3016811Y4606920D01*
X3006369Y4605545D01*
X2996638Y4601515D01*
X2988282Y4595103D01*
X2981871Y4586747D01*
X2977840Y4577017D01*
X2976466Y4566575D01*
X2977840Y4556133D01*
X2981871Y4546402D01*
X2988282Y4538046D01*
X2996638Y4531635D01*
X3006369Y4527604D01*
X3016811Y4526230D01*
X3027253Y4527604D01*
X3035010Y4530818D01*
X3057921Y4513560D01*
X3053975Y4485591D01*
X3049803D01*
Y4424409D01*
X3061340D01*
Y4380759D01*
X3048453Y4367872D01*
X3046296Y4367153D01*
X3016222Y4366222D01*
X3008779Y4371194D01*
X3005000Y4371946D01*
Y4350000D01*
X3000000D01*
Y4345000D01*
X2978054D01*
X2978805Y4341221D01*
X2983778Y4333778D01*
X2982847Y4303704D01*
X2982128Y4301547D01*
X2920777Y4240196D01*
X2913721D01*
X2764307Y4240196D01*
X2652356D01*
X2630315Y4259409D01*
X2630315Y4270196D01*
Y4290000D01*
X2603583D01*
Y4295000D01*
X2598583D01*
Y4330591D01*
X2576850D01*
X2562009Y4338725D01*
X2554862Y4342641D01*
X2552401Y4344414D01*
X2552401Y4381173D01*
X2552401Y4415053D01*
X2552401Y4486174D01*
X2556547Y4488795D01*
X2562814Y4493604D01*
X2567622Y4499870D01*
X2570645Y4507168D01*
X2571676Y4515000D01*
X2570645Y4522832D01*
X2567622Y4530130D01*
X2562814Y4536396D01*
X2556547Y4541205D01*
X2549249Y4544228D01*
X2541417Y4545259D01*
X2533586Y4544228D01*
X2526288Y4541205D01*
X2520021Y4536396D01*
X2516707Y4532078D01*
X2512139Y4529190D01*
X2487178Y4521558D01*
X2481768Y4521595D01*
X2480000Y4521946D01*
Y4500000D01*
X2475000D01*
Y4495000D01*
X2453054D01*
X2453805Y4491221D01*
X2458778Y4483778D01*
X2463658Y4480518D01*
X2466809Y4469603D01*
X2467423Y4447979D01*
X2463676Y4445103D01*
X2457265Y4436747D01*
X2453234Y4427017D01*
X2451860Y4416575D01*
X2453234Y4406133D01*
X2457265Y4396402D01*
X2463676Y4388046D01*
X2472032Y4381635D01*
X2481763Y4377604D01*
X2492205Y4376230D01*
X2502009Y4377520D01*
X2502694Y4377579D01*
X2522401Y4367153D01*
X2526951Y4364745D01*
X2532008Y4358884D01*
Y4354749D01*
X2514922Y4325591D01*
X2514921Y4325591D01*
X2514921Y4325591D01*
X2489928Y4305196D01*
X2486027Y4304420D01*
X2482719Y4302210D01*
X2476945Y4296436D01*
X2280296Y4099787D01*
X2274523Y4094014D01*
X2272312Y4090706D01*
X2255000Y4076922D01*
Y4050000D01*
X2250000D01*
Y4045000D01*
X2228054D01*
X2228805Y4041221D01*
X2233778Y4033778D01*
X2241221Y4028805D01*
X2250000Y4027059D01*
X2270572Y4005028D01*
X2271536Y4003084D01*
Y3957570D01*
X2210197Y3896230D01*
X2180197Y3908657D01*
Y3945590D01*
X2158464D01*
Y3910000D01*
X2148464D01*
Y3945590D01*
X2136197D01*
X2126732Y3945591D01*
X2126731Y3945590D01*
X2096731Y3970697D01*
Y4055625D01*
Y4063465D01*
X2095955Y4067366D01*
X2093745Y4070674D01*
X2039583Y4124836D01*
X2034150Y4130270D01*
X2030842Y4132480D01*
X2026940Y4133256D01*
X2013093D01*
X2011707Y4135848D01*
X2007463Y4142510D01*
X2001639Y4147847D01*
X1994633Y4151494D01*
X1988712Y4152807D01*
X1982505Y4162024D01*
X1973945Y4179123D01*
X1973551Y4181161D01*
X1990185Y4200445D01*
X2043144Y4256069D01*
X2098768Y4309028D01*
X2156924Y4359193D01*
X2217471Y4406445D01*
X2280264Y4450669D01*
X2345151Y4491758D01*
X2411977Y4529614D01*
X2480579Y4564146D01*
X2550793Y4595269D01*
X2622450Y4622910D01*
X2695376Y4647002D01*
X2769397Y4667486D01*
X2844334Y4684314D01*
X2920006Y4697444D01*
X2996232Y4706846D01*
X3025684Y4709018D01*
X3031487Y4702088D01*
D02*
G37*
G36*
X3207141Y4712968D02*
X3215567Y4697686D01*
X3218933Y4682670D01*
X3216984Y4680129D01*
X3213961Y4672832D01*
X3212930Y4665000D01*
X3213961Y4657168D01*
X3216984Y4649871D01*
X3221793Y4643604D01*
X3228059Y4638795D01*
X3235357Y4635772D01*
X3243189Y4634741D01*
X3251020Y4635772D01*
X3258318Y4638795D01*
X3264585Y4643604D01*
X3267165Y4646966D01*
X3269394Y4649870D01*
X3271843Y4654804D01*
X3305777D01*
X3377489Y4583092D01*
X3382790Y4577790D01*
X3386098Y4575580D01*
X3390000Y4574804D01*
X3397909D01*
X3563475D01*
X3574725Y4544804D01*
X3571288Y4541205D01*
X3565021Y4536397D01*
X3565021Y4536396D01*
X3563936Y4534983D01*
X3560212Y4530130D01*
X3557189Y4522832D01*
X3556158Y4515000D01*
X3556159Y4514995D01*
X3556389Y4512344D01*
X3526182Y4482137D01*
X3499057Y4475196D01*
X3477396D01*
X3461537Y4478036D01*
X3460591Y4480197D01*
X3449467Y4480197D01*
X3449467Y4480197D01*
X3399410D01*
X3399410Y4480197D01*
X3370129Y4481205D01*
X3362832Y4484228D01*
X3355000Y4485259D01*
X3347168Y4484228D01*
X3339871Y4481205D01*
X3333604Y4476396D01*
X3328795Y4470129D01*
X3325772Y4462832D01*
X3324741Y4455000D01*
X3325772Y4447168D01*
X3328795Y4439871D01*
X3333604Y4433604D01*
X3339871Y4428795D01*
X3347168Y4425772D01*
X3355000Y4424741D01*
X3362832Y4425772D01*
X3368488Y4428115D01*
X3376693Y4423609D01*
X3394410Y4409611D01*
Y4396535D01*
X3465590D01*
Y4408803D01*
X3465591Y4418268D01*
X3464443Y4424679D01*
X3467838Y4425974D01*
X3475985Y4423336D01*
X3498234Y4406133D01*
X3502265Y4396402D01*
X3508676Y4388046D01*
X3517032Y4381635D01*
X3526763Y4377604D01*
X3537205Y4376230D01*
X3545324Y4377298D01*
X3547213Y4377547D01*
X3547647Y4377604D01*
X3549483Y4378294D01*
X3553405Y4379767D01*
X3578173Y4362608D01*
X3578479Y4361181D01*
X3578718Y4359420D01*
X3577940Y4355000D01*
X3595000D01*
Y4373419D01*
X3572262Y4394034D01*
X3572145Y4396402D01*
X3576175Y4406133D01*
X3577550Y4416575D01*
X3576175Y4427017D01*
X3572145Y4436747D01*
X3565733Y4445103D01*
X3568194Y4474641D01*
X3568629Y4475107D01*
X3572291Y4478365D01*
X3585949Y4484803D01*
X3586417Y4484741D01*
X3594249Y4485772D01*
X3601547Y4488795D01*
X3607814Y4493604D01*
X3612622Y4499870D01*
X3615645Y4507168D01*
X3616676Y4515000D01*
X3615645Y4522832D01*
X3612622Y4530130D01*
X3607814Y4536396D01*
X3607813Y4536397D01*
X3601547Y4541205D01*
X3598110Y4544804D01*
X3609360Y4574804D01*
X3689359D01*
X3736111Y4528052D01*
X3734355Y4522832D01*
X3733877Y4519201D01*
X3733324Y4515000D01*
X3734355Y4507168D01*
X3737378Y4499870D01*
X3742186Y4493604D01*
X3748453Y4488795D01*
X3755751Y4485772D01*
X3763583Y4484741D01*
X3771414Y4485772D01*
X3778712Y4488795D01*
X3784979Y4493604D01*
X3788510Y4498205D01*
X3810527Y4500681D01*
X3818949Y4501010D01*
X3834063Y4482975D01*
X3823734Y4458528D01*
X3821884Y4455724D01*
X3812795Y4456920D01*
X3802353Y4455545D01*
X3792623Y4451515D01*
X3784267Y4445103D01*
X3777855Y4436747D01*
X3773825Y4427017D01*
X3772450Y4416575D01*
X3773825Y4406133D01*
X3777855Y4396402D01*
X3777738Y4394034D01*
X3755000Y4373419D01*
Y4355000D01*
X3772060D01*
X3771282Y4359420D01*
X3771521Y4361181D01*
X3771827Y4362608D01*
X3796595Y4379767D01*
X3800723Y4378217D01*
X3802353Y4377604D01*
X3802787Y4377547D01*
X3804676Y4377298D01*
X3812795Y4376230D01*
X3823237Y4377604D01*
X3832968Y4381635D01*
X3841324Y4388046D01*
X3847735Y4396402D01*
X3851766Y4406133D01*
X3853140Y4416575D01*
X3851861Y4426293D01*
X3853021Y4427789D01*
X3877643Y4442938D01*
X3916027Y4404553D01*
X3914393Y4397894D01*
X3900000Y4372941D01*
X3896518Y4372248D01*
X3891221Y4371194D01*
X3883778Y4366222D01*
X3878806Y4358779D01*
X3878805Y4358779D01*
X3878178Y4355624D01*
X3878054Y4355000D01*
X3900000D01*
Y4350000D01*
X3905000D01*
Y4328054D01*
X3908779Y4328805D01*
X3908779Y4328806D01*
X3916222Y4333778D01*
X3921195Y4341221D01*
X3922941Y4350000D01*
X3947894Y4364393D01*
X3954553Y4366027D01*
X4025385Y4295196D01*
X4016938Y4274804D01*
X4015316Y4270888D01*
X4012507Y4265196D01*
X3986123D01*
X3960286Y4265196D01*
X3956384Y4264420D01*
X3953077Y4262210D01*
X3923942Y4233075D01*
X3914633Y4223766D01*
X3901045Y4223766D01*
X3886193D01*
X3858265Y4228766D01*
X3848800Y4228766D01*
X3836532D01*
Y4193175D01*
Y4157585D01*
X3848800D01*
X3858265Y4157584D01*
X3858265Y4157585D01*
X3878657Y4140519D01*
X3878657Y4140519D01*
X3888265Y4132479D01*
Y3980261D01*
X3888265Y3961539D01*
X3889041Y3957637D01*
X3891252Y3954329D01*
X3905491Y3940089D01*
X4027570Y3818011D01*
X4043371Y3802210D01*
X4042596Y3791032D01*
X4035669Y3767485D01*
X4033778Y3766222D01*
X4033778Y3766221D01*
X4028805Y3758779D01*
X4028054Y3755000D01*
X4050000D01*
Y3750000D01*
X4055000D01*
Y3728054D01*
X4058779Y3728805D01*
X4066222Y3733778D01*
X4067485Y3735669D01*
X4091032Y3742596D01*
X4102210Y3743371D01*
X4120881Y3724699D01*
X4304261Y3541320D01*
X4315512Y3530068D01*
X4315513Y3504503D01*
Y3477349D01*
X4315513Y3450013D01*
X4315513Y3425389D01*
Y3378261D01*
X4312370Y3376701D01*
X4310579Y3375811D01*
X4304312Y3371003D01*
X4299504Y3364736D01*
X4296481Y3357438D01*
X4295450Y3349606D01*
X4296481Y3341775D01*
X4299504Y3334477D01*
X4304312Y3328210D01*
X4310579Y3323401D01*
X4317877Y3320378D01*
X4325709Y3319347D01*
X4333540Y3320378D01*
X4340838Y3323401D01*
X4347105Y3328210D01*
X4351914Y3334477D01*
X4354937Y3341775D01*
X4355968Y3349606D01*
X4354937Y3357438D01*
X4351914Y3364736D01*
X4347105Y3371003D01*
X4343743Y3373582D01*
X4340838Y3375811D01*
X4339222Y3405815D01*
X4345513Y3418214D01*
X4345513D01*
X4345513Y3418214D01*
X4345513D01*
X4356850Y3426735D01*
X4366222Y3433778D01*
X4367977Y3436406D01*
X4371195Y3441221D01*
X4371194Y3441221D01*
X4371946Y3445000D01*
X4350000D01*
Y3455000D01*
X4371946D01*
X4371194Y3458779D01*
X4366222Y3466222D01*
X4356850Y3473265D01*
X4345513Y3481786D01*
X4335905Y3500725D01*
Y3534291D01*
X4335129Y3538193D01*
X4332918Y3541501D01*
X4319382Y3555038D01*
X4125909Y3748510D01*
X4101617Y3772802D01*
X4101617Y3772802D01*
X4101389Y3773031D01*
X4073031Y3801389D01*
X4050530Y3823890D01*
X3918262Y3956158D01*
X3908657Y3965762D01*
X3908657Y3981085D01*
Y4124246D01*
X3908657Y4162585D01*
X3920194D01*
Y4173552D01*
X3920462Y4174328D01*
X3928388Y4179373D01*
X3953805Y4191221D01*
X3953806Y4191221D01*
X3958778Y4183778D01*
X3963604Y4180554D01*
X3966221Y4178805D01*
X3966221D01*
X3970000Y4178054D01*
Y4200000D01*
X3975000D01*
Y4205000D01*
X3996946D01*
X3996195Y4208779D01*
X3996195Y4208779D01*
X3992169Y4214804D01*
X3993820Y4222839D01*
X3998671Y4235196D01*
X3999872Y4238253D01*
X4001289Y4241275D01*
X4001574Y4241859D01*
X4030155Y4242767D01*
X4030310Y4242570D01*
X4030159Y4242767D01*
X4030159D01*
X4030419Y4242428D01*
X4037763Y4230896D01*
X4042528Y4214804D01*
X4039611Y4210226D01*
X4036444Y4200181D01*
X4035985Y4189659D01*
X4038264Y4179376D01*
X4043127Y4170034D01*
X4050243Y4162269D01*
X4059126Y4156610D01*
X4069170Y4153443D01*
X4079693Y4152983D01*
X4089975Y4155263D01*
X4099317Y4160126D01*
X4107082Y4167242D01*
X4112741Y4176124D01*
X4115908Y4186169D01*
X4116368Y4196691D01*
X4114088Y4206974D01*
X4110431Y4214000D01*
X4114371Y4217612D01*
X4125186Y4224578D01*
X4152355Y4219584D01*
X4157692Y4213760D01*
X4164354Y4209516D01*
X4171887Y4207141D01*
X4179779Y4206796D01*
X4187491Y4208506D01*
X4198584Y4211998D01*
X4207313Y4211667D01*
X4222391Y4199108D01*
X4285443Y4136056D01*
X4285434Y4135848D01*
X4283059Y4128315D01*
X4283059Y4128315D01*
X4283016Y4127315D01*
X4282715Y4120423D01*
X4284424Y4112711D01*
X4288072Y4105704D01*
X4293408Y4099880D01*
X4300070Y4095636D01*
X4295436Y4067134D01*
X4285471Y4056146D01*
X4283775Y4056220D01*
X4273492Y4053941D01*
X4264150Y4049078D01*
X4256385Y4041962D01*
X4250726Y4033079D01*
X4247559Y4023035D01*
X4247099Y4012512D01*
X4249379Y4002230D01*
X4254242Y3992888D01*
X4261357Y3985123D01*
X4270240Y3979464D01*
X4280285Y3976296D01*
X4290807Y3975837D01*
X4301090Y3978117D01*
X4310432Y3982980D01*
X4318197Y3990095D01*
X4323856Y3998978D01*
X4327023Y4009023D01*
X4327256Y4014361D01*
X4340387Y4023148D01*
X4356420Y4027624D01*
X4431884Y3952159D01*
X4428513Y3937852D01*
X4419725Y3921892D01*
X4416221Y3921195D01*
X4408778Y3916222D01*
X4403806Y3908779D01*
X4403054Y3905000D01*
X4425000D01*
Y3900000D01*
X4430000D01*
Y3874117D01*
X4448826Y3863038D01*
X4454804Y3856773D01*
Y3643227D01*
X4448826Y3636962D01*
X4430000Y3625883D01*
Y3600000D01*
Y3574117D01*
X4448826Y3563038D01*
X4454804Y3556773D01*
Y3469993D01*
Y3430184D01*
Y3351586D01*
X4454410Y3349606D01*
X4454804Y3347627D01*
Y3341471D01*
Y3145196D01*
X4428784Y3115196D01*
X4379933D01*
X4373297Y3120754D01*
X4362068Y3138421D01*
X4360387Y3145196D01*
X4360968Y3149606D01*
X4359937Y3157438D01*
X4356914Y3164736D01*
X4352105Y3171003D01*
X4345838Y3175811D01*
X4338540Y3178834D01*
X4330709Y3179865D01*
X4322877Y3178834D01*
X4315579Y3175811D01*
X4309312Y3171003D01*
X4281015Y3183405D01*
X4264507Y3199912D01*
X4261269Y3206899D01*
X4256679Y3229777D01*
X4256618Y3230473D01*
X4256871Y3234421D01*
X4256914Y3234477D01*
X4259937Y3241775D01*
X4260968Y3249606D01*
X4259937Y3257438D01*
X4256914Y3264736D01*
X4252105Y3271003D01*
X4245838Y3275811D01*
X4238540Y3278834D01*
X4230709Y3279865D01*
X4222877Y3278834D01*
X4215579Y3275811D01*
X4209312Y3271003D01*
X4204504Y3264736D01*
X4201481Y3257438D01*
X4200450Y3249606D01*
X4201481Y3241775D01*
X4204504Y3234477D01*
X4196335Y3212254D01*
X4190595Y3205196D01*
X4179220D01*
X3956583D01*
X3918993Y3205196D01*
X3918993Y3205196D01*
X3916746Y3205196D01*
X3870394D01*
X3866492Y3204420D01*
X3863184Y3202210D01*
X3848946Y3187972D01*
X3820134Y3159160D01*
X3590840Y2929866D01*
X3563915Y2902941D01*
X3563915Y2902941D01*
X3562028Y2901054D01*
X3548946Y2887972D01*
X3517527Y2856553D01*
X3493042Y2872263D01*
X3498584Y2885642D01*
X3500475Y2900000D01*
X3498584Y2914358D01*
X3493042Y2927737D01*
X3484227Y2939227D01*
X3472737Y2948042D01*
X3459358Y2953584D01*
X3445000Y2955475D01*
X3430642Y2953584D01*
X3417263Y2948042D01*
X3405773Y2939227D01*
X3396958Y2927737D01*
X3391416Y2914358D01*
X3389525Y2900000D01*
X3391416Y2885642D01*
X3396958Y2872263D01*
X3405773Y2860773D01*
X3406526Y2860196D01*
X3396343Y2830196D01*
X3367285Y2830196D01*
X3347261Y2830196D01*
X3347260Y2830196D01*
X3335411Y2839804D01*
X3318507Y2862801D01*
X3316222Y2866222D01*
X3316221Y2866222D01*
X3308779Y2871195D01*
X3308779Y2871195D01*
X3305000Y2871946D01*
Y2850000D01*
X3295000D01*
Y2871946D01*
X3291221Y2871195D01*
X3283779Y2866222D01*
X3283778D01*
X3281493Y2862801D01*
X3264589Y2839804D01*
X3252739Y2830196D01*
X3252739Y2830196D01*
X3233000D01*
X3229098Y2829420D01*
X3225790Y2827210D01*
X3211832Y2813252D01*
X3136863Y2738283D01*
X3121618Y2723037D01*
X3104103Y2719110D01*
Y2719110D01*
X3104103D01*
X3104103Y2719110D01*
X3080000Y2722246D01*
Y2700000D01*
X3075000D01*
Y2695000D01*
X3052754D01*
X3055890Y2670897D01*
X3055890Y2670897D01*
Y2670897D01*
X3055890D01*
X3051963Y2653382D01*
X3024711Y2626130D01*
X3018485Y2628663D01*
X3018484Y2628664D01*
X3016273Y2628955D01*
X3010000Y2629780D01*
X3001516Y2628663D01*
X2993610Y2625389D01*
X2986821Y2620179D01*
X2981611Y2613390D01*
X2978337Y2605484D01*
X2977220Y2597000D01*
X2978337Y2588516D01*
X2981611Y2580610D01*
X2983778Y2566222D01*
Y2566221D01*
X2978805Y2558779D01*
X2977752Y2553483D01*
X2975640Y2544474D01*
X2975639Y2544469D01*
X2975859Y2545407D01*
X2975859Y2545406D01*
X2977599Y2552830D01*
X2975663Y2545085D01*
X2969392Y2534783D01*
X2961076Y2521890D01*
X2959266Y2521284D01*
X2958191Y2521070D01*
X2941840Y2519439D01*
X2925130Y2523205D01*
X2931396Y2518396D01*
X2941840Y2519439D01*
X2945669Y2518575D01*
X2941102Y2517666D01*
X2931396Y2518396D01*
X2933056Y2516234D01*
X2940385Y2517523D01*
X2934019Y2516255D01*
X2933056Y2516234D01*
X2933569Y2516165D01*
X2933056Y2516234D01*
X2931396Y2518396D01*
X2925129Y2523205D01*
X2917832Y2526228D01*
X2910000Y2527259D01*
X2902168Y2526228D01*
X2899825Y2525257D01*
X2876923Y2534388D01*
X2869459Y2539039D01*
X2868274Y2546948D01*
X2868381Y2547376D01*
X2869280Y2548044D01*
X2898716Y2561084D01*
X2900211Y2560465D01*
X2905000Y2559835D01*
Y2597000D01*
Y2634165D01*
X2900211Y2633535D01*
X2891088Y2629756D01*
X2890294Y2629147D01*
X2866795Y2637185D01*
X2860294Y2642493D01*
Y2846803D01*
X2872737Y2851958D01*
X2884227Y2860773D01*
X2893042Y2872263D01*
X2898584Y2885642D01*
X2900475Y2900000D01*
X2898584Y2914358D01*
X2893042Y2927737D01*
X2884227Y2939227D01*
X2872737Y2948042D01*
X2859358Y2953584D01*
X2845000Y2955475D01*
X2830642Y2953584D01*
X2821718Y2949888D01*
X2817263Y2948043D01*
X2812565Y2946855D01*
X2799651Y2959769D01*
X2796343Y2961979D01*
X2792441Y2962755D01*
X2771412D01*
X2675624D01*
X2660508Y2962755D01*
X2658730Y2964694D01*
X2646410Y2990764D01*
X2646500Y2992755D01*
X2646946Y2995000D01*
X2603054D01*
X2603500Y2992755D01*
X2603590Y2990764D01*
X2591270Y2964694D01*
X2589492Y2962755D01*
X2584289Y2962755D01*
X2510508D01*
X2508730Y2964694D01*
X2496410Y2990764D01*
X2496500Y2992755D01*
X2496946Y2995000D01*
X2475000D01*
Y3005000D01*
X2496946D01*
X2496922Y3005124D01*
X2506834Y3021053D01*
X2516570Y3032283D01*
X2541338D01*
Y3043448D01*
X2556221Y3067283D01*
X2571339Y3067284D01*
X2611339Y3067283D01*
X2648898D01*
X2649166Y3068768D01*
X2656165Y3070726D01*
Y3070726D01*
X2670742Y3074804D01*
X2677045D01*
X2942288D01*
X2955777Y3074804D01*
X2966305Y3064276D01*
X3098145Y2932435D01*
X3096957Y2927737D01*
X3095396Y2923966D01*
X3091416Y2914358D01*
X3089525Y2900000D01*
X3091416Y2885642D01*
X3096958Y2872263D01*
X3105773Y2860773D01*
X3117263Y2851958D01*
X3130642Y2846416D01*
X3145000Y2844525D01*
X3159358Y2846416D01*
X3172737Y2851958D01*
X3184227Y2860773D01*
X3193042Y2872263D01*
X3198584Y2885642D01*
X3200475Y2900000D01*
X3198584Y2914358D01*
X3193042Y2927737D01*
X3184227Y2939227D01*
X3172737Y2948042D01*
X3159358Y2953584D01*
X3145000Y2955475D01*
X3130642Y2953584D01*
X3121718Y2949888D01*
X3117263Y2948043D01*
X3112565Y2946855D01*
X2980821Y3078599D01*
X2967210Y3092210D01*
X2963902Y3094420D01*
X2960000Y3095196D01*
X2940977D01*
X2677548D01*
X2672665D01*
X2661555Y3103386D01*
D01*
X2648898Y3112716D01*
X2647566Y3119544D01*
X2644843Y3138563D01*
X2644843Y3230118D01*
X2640472Y3232209D01*
X2640196Y3232350D01*
X2640196Y3264309D01*
Y3285000D01*
X2639420Y3288902D01*
X2637210Y3292210D01*
X2627210Y3302210D01*
X2623902Y3304420D01*
X2621024Y3304992D01*
Y3324882D01*
X2621024Y3347244D01*
X2647860Y3354882D01*
X2649843D01*
Y3403189D01*
X2630000D01*
Y3408189D01*
X2625000D01*
Y3461496D01*
X2610157D01*
X2582229Y3456496D01*
X2555000D01*
X2505000D01*
X2465157D01*
Y3447652D01*
X2458885Y3439296D01*
X2434537Y3437012D01*
X2426970Y3445000D01*
X2400000D01*
Y3455000D01*
X2421946D01*
X2421195Y3458779D01*
X2421194Y3458779D01*
X2416222Y3466222D01*
X2408966Y3473342D01*
X2411396Y3501262D01*
X2413839Y3509317D01*
X2415384Y3525000D01*
X2413839Y3540683D01*
X2409265Y3555763D01*
X2401836Y3569661D01*
X2391839Y3581842D01*
X2379657Y3591839D01*
X2365760Y3599268D01*
X2350680Y3603843D01*
X2334997Y3605387D01*
X2319314Y3603843D01*
X2304234Y3599268D01*
X2290336Y3591839D01*
X2278155Y3581842D01*
X2268157Y3569661D01*
X2260729Y3555763D01*
X2256154Y3540683D01*
X2254610Y3525000D01*
X2256154Y3509317D01*
X2258418Y3501854D01*
X2256145Y3494046D01*
X2247151Y3478200D01*
X2241221Y3471195D01*
X2241221Y3471195D01*
X2239606Y3470115D01*
X2233778Y3466222D01*
X2228805Y3458779D01*
X2228054Y3455000D01*
X2250000D01*
Y3450000D01*
X2255000D01*
Y3428054D01*
X2258779Y3428805D01*
X2258779Y3428805D01*
X2266221Y3433778D01*
X2266222Y3433778D01*
X2268536Y3437242D01*
X2273689Y3442186D01*
X2298834Y3451921D01*
X2301623Y3452127D01*
X2304234Y3450732D01*
X2319314Y3446157D01*
X2334997Y3444613D01*
X2350680Y3446157D01*
X2378806Y3441221D01*
X2383778Y3433778D01*
X2391221Y3428806D01*
X2391221Y3428805D01*
X2400000Y3427059D01*
X2414158Y3403061D01*
X2416027Y3395447D01*
X2376466Y3355885D01*
X2353955Y3355885D01*
D01*
X2353955D01*
X2353953Y3355885D01*
X2347500Y3355885D01*
X2343598Y3355109D01*
X2343435Y3355000D01*
X2325000Y3353448D01*
X2324966Y3353443D01*
X2317168Y3352417D01*
X2309871Y3349394D01*
X2303604Y3344585D01*
X2298795Y3338318D01*
X2295772Y3331021D01*
X2294741Y3323189D01*
X2295772Y3315357D01*
X2298795Y3308060D01*
X2303604Y3301793D01*
X2309871Y3296984D01*
X2317168Y3293961D01*
X2325000Y3292930D01*
X2332832Y3293961D01*
X2340129Y3296984D01*
X2346396Y3301793D01*
X2351205Y3308059D01*
X2355708Y3316398D01*
X2360831Y3325885D01*
X2384591Y3336269D01*
X2387899Y3338479D01*
X2435157Y3385738D01*
X2441003Y3383317D01*
X2465157Y3373312D01*
Y3359882D01*
X2480883Y3350030D01*
X2469395Y3321826D01*
X2466221Y3321195D01*
X2466220Y3321194D01*
X2462528Y3318727D01*
X2458779Y3316222D01*
X2458778Y3316222D01*
X2453805Y3308779D01*
X2453805Y3308779D01*
X2453054Y3305000D01*
X2475000D01*
Y3295000D01*
X2453054D01*
X2453805Y3291221D01*
X2453805Y3291221D01*
X2458778Y3283778D01*
X2458779D01*
X2466221Y3278806D01*
X2466221Y3278805D01*
X2475000Y3277059D01*
X2488976Y3249252D01*
Y3245041D01*
X2465157Y3230118D01*
X2465157Y3133504D01*
X2453458Y3105845D01*
X2441993Y3095196D01*
X2414591D01*
X2268465Y3095196D01*
Y3139095D01*
X2268465D01*
X2245196Y3165115D01*
Y3180736D01*
X2248320Y3182896D01*
X2250130Y3183795D01*
X2256396Y3188604D01*
X2261205Y3194871D01*
X2264228Y3202168D01*
X2265259Y3210000D01*
X2264228Y3217832D01*
X2261205Y3225129D01*
X2256396Y3231396D01*
X2250129Y3236205D01*
X2242832Y3239228D01*
X2235000Y3240259D01*
X2227168Y3239228D01*
X2219871Y3236205D01*
X2213604Y3231396D01*
X2208795Y3225129D01*
X2205772Y3217832D01*
X2204741Y3210000D01*
X2205772Y3202168D01*
X2208795Y3194871D01*
X2213604Y3188604D01*
X2216966Y3186024D01*
X2219870Y3183795D01*
X2221321Y3183075D01*
X2224804Y3180747D01*
Y3165115D01*
X2194804Y3139095D01*
X2191535D01*
Y3049346D01*
X2178347Y3028287D01*
X2166221Y3021195D01*
X2158778Y3016222D01*
X2153805Y3008779D01*
X2153054Y3005000D01*
X2175000D01*
Y2995000D01*
X2153054D01*
X2153805Y2991221D01*
X2158778Y2983778D01*
X2166221Y2978805D01*
X2175000Y2977059D01*
X2191535Y2950654D01*
Y2890905D01*
X2216492D01*
X2216944Y2890896D01*
X2226456Y2876954D01*
X2231910Y2863425D01*
X2228805Y2858779D01*
X2228054Y2855000D01*
X2250000D01*
Y2850000D01*
X2255000D01*
Y2828054D01*
X2258779Y2828805D01*
X2266222Y2833778D01*
X2271194Y2841220D01*
X2271195Y2841221D01*
X2272941Y2850000D01*
X2300503Y2864804D01*
X2315000D01*
X2318902Y2865580D01*
X2322210Y2867790D01*
X2336773Y2882354D01*
X2345519Y2883229D01*
X2361133Y2881142D01*
X2377139Y2855000D01*
X2425519D01*
X2437717Y2878661D01*
X2438449Y2887245D01*
X2514492D01*
X2516270Y2885306D01*
X2528590Y2859236D01*
X2528500Y2857245D01*
X2528054Y2855000D01*
X2572914D01*
X2572880Y2861611D01*
X2580129Y2873795D01*
X2586396Y2878604D01*
X2591205Y2884871D01*
X2594228Y2892168D01*
X2595259Y2900000D01*
X2594228Y2907832D01*
X2592351Y2912363D01*
X2598037Y2928133D01*
X2603336Y2938219D01*
X2604544Y2940518D01*
X2606295Y2942363D01*
X2611359Y2942363D01*
X2638641D01*
X2666259Y2942363D01*
X2763271D01*
X2772182Y2942363D01*
X2772523Y2942162D01*
X2791416Y2914358D01*
X2789525Y2900000D01*
X2791416Y2885642D01*
X2796958Y2872263D01*
X2805773Y2860773D01*
X2817263Y2851958D01*
X2829706Y2846803D01*
Y2335000D01*
X2830870Y2329147D01*
X2834186Y2324186D01*
X2856045Y2302326D01*
X2853258Y2288777D01*
X2844165Y2271780D01*
X2841221Y2271195D01*
X2833778Y2266222D01*
X2828805Y2258779D01*
X2828054Y2255000D01*
X2850000D01*
Y2250000D01*
X2855000D01*
Y2228054D01*
X2858779Y2228805D01*
X2866222Y2233778D01*
X2867087Y2235073D01*
X2898700Y2243333D01*
X2900182Y2243447D01*
X2914706Y2230953D01*
Y2143927D01*
X2910387Y2140613D01*
X2905979Y2134869D01*
X2903208Y2128179D01*
X2902263Y2121000D01*
X2903208Y2113821D01*
X2905979Y2107131D01*
X2910387Y2101387D01*
Y2079613D01*
X2905979Y2073869D01*
X2903208Y2067179D01*
X2902263Y2060000D01*
X2903208Y2052821D01*
X2905979Y2046131D01*
X2910387Y2040387D01*
X2916131Y2035979D01*
X2922821Y2033208D01*
X2930000Y2032263D01*
X2937179Y2033208D01*
X2943869Y2035979D01*
X2949613Y2040387D01*
X2954021Y2046131D01*
X2956792Y2052821D01*
X2957737Y2060000D01*
X2956792Y2067179D01*
X2954021Y2073869D01*
X2949613Y2079613D01*
Y2101387D01*
X2954021Y2107131D01*
X2956792Y2113821D01*
X2957737Y2121000D01*
X2956792Y2128179D01*
X2954021Y2134869D01*
X2949613Y2140613D01*
X2945294Y2143927D01*
Y2250000D01*
X2944130Y2255853D01*
X2940814Y2260814D01*
X2860294Y2341335D01*
Y2463217D01*
X2882680Y2473012D01*
X2890294Y2474307D01*
X2894871Y2470795D01*
X2902168Y2467772D01*
X2910000Y2466741D01*
X2917832Y2467772D01*
X2925129Y2470795D01*
X2931396Y2475604D01*
X2933056Y2477766D01*
X2950000Y2480029D01*
X2966944Y2477766D01*
X2968604Y2475604D01*
X2974871Y2470795D01*
X2982168Y2467772D01*
X2990000Y2466741D01*
X2997832Y2467772D01*
X3005129Y2470795D01*
X3011396Y2475604D01*
X3013056Y2477766D01*
X3030000Y2480029D01*
X3046944Y2477766D01*
X3048604Y2475604D01*
X3054871Y2470795D01*
X3062168Y2467772D01*
X3070000Y2466741D01*
X3077832Y2467772D01*
X3085129Y2470795D01*
X3091396Y2475604D01*
X3096205Y2481871D01*
X3099228Y2489168D01*
X3100259Y2497000D01*
X3099228Y2504832D01*
X3096205Y2512129D01*
X3091396Y2518396D01*
X3085129Y2523205D01*
X3077832Y2526228D01*
X3070000Y2527259D01*
X3062168Y2526228D01*
X3054871Y2523205D01*
X3048604Y2518396D01*
X3025265Y2536926D01*
X3023184Y2538913D01*
X3022051Y2545000D01*
X3000000D01*
Y2555000D01*
X3021946D01*
X3021195Y2558779D01*
X3026390Y2568611D01*
X3033179Y2573821D01*
X3038389Y2580610D01*
X3041663Y2588516D01*
X3042780Y2597000D01*
X3041664Y2605484D01*
X3041663Y2605485D01*
X3039134Y2611715D01*
X3062929Y2635509D01*
X3083259Y2655840D01*
X3101159Y2673739D01*
X3119161Y2691741D01*
X3119160Y2691741D01*
X3119161Y2691741D01*
X3119161Y2691741D01*
X3143275Y2715855D01*
X3226691Y2799271D01*
X3237223Y2809804D01*
X3275292Y2809804D01*
X3275292Y2809804D01*
X3275292D01*
X3275293Y2809804D01*
X3275293Y2809804D01*
X3324707Y2809804D01*
X3324707Y2809804D01*
X3324708Y2809804D01*
X3324708D01*
Y2809804D01*
X3363396D01*
X3415324Y2809804D01*
X3415324Y2809804D01*
X3417896Y2809804D01*
X3486465D01*
X3495394D01*
X3499296Y2810580D01*
X3502603Y2812790D01*
X3516706Y2826893D01*
X3548125Y2858312D01*
X3563903Y2853779D01*
X3577919Y2845679D01*
X3578805Y2841221D01*
X3578806Y2841220D01*
X3583778Y2833778D01*
X3583779D01*
X3591221Y2828805D01*
X3595000Y2828054D01*
Y2850000D01*
X3600000D01*
Y2855000D01*
X3621946D01*
X3621195Y2858779D01*
X3616222Y2866222D01*
X3608779Y2871195D01*
X3604321Y2872081D01*
X3596221Y2886097D01*
X3591688Y2901875D01*
X3619089Y2929275D01*
X3820693Y3130880D01*
X3848125Y3158312D01*
X3863903Y3153779D01*
X3877919Y3145679D01*
X3878805Y3141221D01*
X3883778Y3133778D01*
X3891221Y3128805D01*
X3895000Y3128054D01*
Y3150000D01*
X3900000D01*
Y3155000D01*
X3922053D01*
X3925817Y3165812D01*
X3931984Y3175196D01*
X3937249Y3183205D01*
X3938654Y3184804D01*
X3972835Y3184804D01*
X4172253D01*
X4182088D01*
X4189035Y3178584D01*
X4200464Y3159166D01*
X4201134Y3154804D01*
X4200450Y3149606D01*
X4201481Y3141775D01*
X4204504Y3134477D01*
X4209312Y3128210D01*
X4215579Y3123401D01*
X4222877Y3120378D01*
X4230709Y3119347D01*
X4238540Y3120378D01*
X4243761Y3122135D01*
X4268105Y3097790D01*
X4271413Y3095580D01*
X4275315Y3094804D01*
X4291051D01*
X4297929Y3085839D01*
X4304556Y3064804D01*
X4304504Y3064736D01*
X4301481Y3057438D01*
X4301246Y3055651D01*
X4296912Y3036814D01*
X4287272Y3019980D01*
X4286289Y3018508D01*
X4285513Y3014606D01*
X4285513Y2981666D01*
X4258694Y2966406D01*
X4255513Y2966561D01*
X4252105Y2971003D01*
X4245838Y2975811D01*
X4238540Y2978834D01*
X4230709Y2979865D01*
X4222877Y2978834D01*
X4215579Y2975811D01*
X4209312Y2971003D01*
X4204504Y2964736D01*
X4201481Y2957438D01*
X4200450Y2949606D01*
X4201481Y2941775D01*
X4204504Y2934477D01*
X4209312Y2928210D01*
X4215579Y2923401D01*
X4222877Y2920378D01*
X4230709Y2919347D01*
X4238540Y2920378D01*
X4245838Y2923401D01*
X4252105Y2928210D01*
X4255513Y2932651D01*
X4258694Y2932807D01*
X4285513Y2917547D01*
Y2830790D01*
X4270777Y2816054D01*
X4239583D01*
X4231089Y2827679D01*
X4222668Y2845000D01*
X4177332D01*
X4168911Y2827679D01*
X4160417Y2816054D01*
X4089583D01*
X4081089Y2827679D01*
X4072668Y2845000D01*
X4027332D01*
X4018911Y2827679D01*
X4010417Y2816054D01*
X3939583D01*
X3931089Y2827679D01*
X3922668Y2845000D01*
X3877332D01*
X3868911Y2827679D01*
X3860417Y2816054D01*
X3720858D01*
X3716956Y2815278D01*
X3713648Y2813068D01*
X3655777Y2755196D01*
X3253369D01*
X3249468Y2754420D01*
X3246160Y2752210D01*
X3152790Y2658840D01*
X3150580Y2655532D01*
X3149804Y2651631D01*
Y2506584D01*
X3149804Y2441946D01*
X3136885Y2432133D01*
X3120599Y2425082D01*
X3117832Y2426228D01*
X3110000Y2427259D01*
X3102168Y2426228D01*
X3094871Y2423205D01*
X3088604Y2418396D01*
X3086944Y2416234D01*
X3070000Y2413971D01*
X3053056Y2416234D01*
X3051396Y2418396D01*
X3045129Y2423205D01*
X3037832Y2426228D01*
X3030000Y2427259D01*
X3022168Y2426228D01*
X3014871Y2423205D01*
X3008604Y2418396D01*
X3006944Y2416234D01*
X2990000Y2413971D01*
X2973056Y2416234D01*
X2971396Y2418396D01*
X2965129Y2423205D01*
X2957832Y2426228D01*
X2950000Y2427259D01*
X2942168Y2426228D01*
X2934871Y2423205D01*
X2928604Y2418396D01*
X2923795Y2412129D01*
X2920772Y2404832D01*
X2919741Y2397000D01*
X2920772Y2389168D01*
X2923795Y2381871D01*
X2928604Y2375604D01*
X2934871Y2370795D01*
X2942168Y2367772D01*
X2950000Y2366741D01*
X2957832Y2367772D01*
X2965129Y2370795D01*
X2971396Y2375604D01*
X2973056Y2377766D01*
X2990000Y2380029D01*
X3006944Y2377766D01*
X3008604Y2375604D01*
X3014871Y2370795D01*
X3022168Y2367772D01*
X3030000Y2366741D01*
X3037832Y2367772D01*
X3045129Y2370795D01*
X3051396Y2375604D01*
X3053056Y2377766D01*
X3070000Y2380029D01*
X3086944Y2377766D01*
X3088604Y2375604D01*
X3094871Y2370795D01*
X3102168Y2367772D01*
X3110000Y2366741D01*
X3117832Y2367772D01*
X3125129Y2370795D01*
X3131396Y2375604D01*
X3133056Y2377766D01*
X3150000Y2380029D01*
X3166944Y2377766D01*
X3168604Y2375604D01*
X3174871Y2370795D01*
X3182168Y2367772D01*
X3190000Y2366741D01*
X3197832Y2367772D01*
X3205129Y2370795D01*
X3211396Y2375604D01*
X3213056Y2377766D01*
X3230000Y2380029D01*
X3246944Y2377766D01*
X3248604Y2375604D01*
X3254871Y2370795D01*
X3262168Y2367772D01*
X3270000Y2366741D01*
X3277832Y2367772D01*
X3285129Y2370795D01*
X3291396Y2375604D01*
X3293056Y2377766D01*
X3310000Y2380029D01*
X3326944Y2377766D01*
X3328604Y2375604D01*
X3334871Y2370795D01*
X3342168Y2367772D01*
X3350000Y2366741D01*
X3357832Y2367772D01*
X3365129Y2370795D01*
X3371396Y2375604D01*
X3376205Y2381871D01*
X3379228Y2389168D01*
X3380259Y2397000D01*
X3379228Y2404832D01*
X3376205Y2412129D01*
X3371396Y2418396D01*
X3365129Y2423205D01*
X3357832Y2426228D01*
X3350000Y2427259D01*
X3342168Y2426228D01*
X3334871Y2423205D01*
X3328604Y2418396D01*
X3326944Y2416234D01*
X3310000Y2413971D01*
X3293056Y2416234D01*
X3291396Y2418396D01*
X3285129Y2423205D01*
X3277832Y2426228D01*
X3270000Y2427259D01*
X3263709Y2426431D01*
X3253448Y2436085D01*
X3245951Y2444559D01*
X3250930Y2475246D01*
X3251396Y2475604D01*
X3253056Y2477766D01*
X3270000Y2480029D01*
X3286944Y2477766D01*
X3288604Y2475604D01*
X3294871Y2470795D01*
X3302168Y2467772D01*
X3310000Y2466741D01*
X3317832Y2467772D01*
X3325129Y2470795D01*
X3331396Y2475604D01*
X3333056Y2477766D01*
X3350000Y2480029D01*
X3366944Y2477766D01*
X3368604Y2475604D01*
X3374871Y2470795D01*
X3382168Y2467772D01*
X3390000Y2466741D01*
X3397832Y2467772D01*
X3405129Y2470795D01*
X3411396Y2475604D01*
X3416205Y2481871D01*
X3419228Y2489168D01*
X3420259Y2497000D01*
X3419228Y2504832D01*
X3419228Y2504832D01*
X3419194Y2507315D01*
X3432683Y2520475D01*
X3443159Y2528420D01*
X3445000Y2528054D01*
Y2550000D01*
X3450000D01*
Y2555000D01*
X3471946D01*
X3471195Y2558779D01*
X3466222Y2566222D01*
X3458779Y2571195D01*
X3452860Y2572372D01*
X3447637Y2575316D01*
X3431040Y2592000D01*
X3390000D01*
X3352835D01*
X3353465Y2587211D01*
X3357244Y2578088D01*
X3363255Y2570255D01*
X3371088Y2564244D01*
X3380211Y2560465D01*
X3390000Y2559176D01*
X3398901Y2542969D01*
X3390000Y2527259D01*
X3382168Y2526228D01*
X3374871Y2523205D01*
X3368604Y2518396D01*
X3366944Y2516234D01*
X3350000Y2513971D01*
X3333296Y2516202D01*
X3328816Y2525463D01*
X3326227Y2532554D01*
X3323883Y2545000D01*
X3277949D01*
X3276816Y2538913D01*
X3274735Y2536926D01*
X3251396Y2518396D01*
X3245129Y2523205D01*
X3237832Y2526228D01*
X3230000Y2527259D01*
X3222168Y2526228D01*
X3220196Y2525411D01*
X3202285Y2532764D01*
X3190196Y2541946D01*
Y2639123D01*
X3265877Y2714804D01*
X3324497D01*
X3352059Y2700000D01*
X3353805Y2691221D01*
X3353806Y2691221D01*
X3358778Y2683778D01*
X3358779Y2683778D01*
X3366221Y2678805D01*
X3370000Y2678054D01*
Y2700000D01*
X3380000D01*
Y2678054D01*
X3383779Y2678805D01*
X3391222Y2683778D01*
X3396194Y2691220D01*
X3396195Y2691221D01*
X3397941Y2700000D01*
X3425503Y2714804D01*
X3668284D01*
X3672186Y2715580D01*
X3675494Y2717790D01*
X3733365Y2775662D01*
X4283284D01*
X4287186Y2776438D01*
X4290494Y2778648D01*
X4337918Y2826073D01*
X4340128Y2829381D01*
X4340905Y2833282D01*
Y2921358D01*
X4345838Y2923401D01*
X4349614Y2926298D01*
X4351257Y2927397D01*
X4351958Y2928097D01*
X4352105Y2928210D01*
X4356914Y2934477D01*
X4359937Y2941775D01*
X4360968Y2949606D01*
X4359937Y2957438D01*
X4356914Y2964736D01*
X4352105Y2971003D01*
X4345838Y2975811D01*
X4338540Y2978834D01*
X4330709Y2979865D01*
X4330687Y2979884D01*
Y3019329D01*
X4330709Y3019347D01*
X4338540Y3020378D01*
X4345838Y3023401D01*
X4352105Y3028210D01*
X4356914Y3034477D01*
X4359937Y3041775D01*
X4360968Y3049606D01*
X4359937Y3057438D01*
X4356914Y3064736D01*
X4356861Y3064804D01*
X4363488Y3085839D01*
X4370367Y3094804D01*
X4383085D01*
X4454804D01*
X4454804Y3085196D01*
Y3043227D01*
X4448826Y3036962D01*
X4430000Y3025883D01*
Y3000000D01*
Y2974117D01*
X4448826Y2963038D01*
X4454804Y2956773D01*
Y2743227D01*
X4448826Y2736962D01*
X4430000Y2725883D01*
Y2700000D01*
Y2674117D01*
X4448826Y2663038D01*
X4454804Y2656773D01*
Y2519682D01*
Y2515939D01*
X4452152Y2513287D01*
X4325962Y2387097D01*
X4303055Y2397645D01*
X4297692Y2401253D01*
X4296195Y2408779D01*
X4296194Y2408780D01*
X4291222Y2416222D01*
X4283779Y2421195D01*
X4280000Y2421946D01*
Y2400000D01*
X4275000D01*
Y2395000D01*
X4253054D01*
X4253806Y2391221D01*
X4258778Y2383779D01*
Y2383778D01*
X4266221Y2378806D01*
X4266221Y2378805D01*
X4273747Y2377308D01*
X4277355Y2371945D01*
X4287903Y2349038D01*
X4217368Y2278503D01*
X4213565D01*
X3728642Y2278503D01*
X3658465D01*
Y2291024D01*
X3637874D01*
Y2296024D01*
X3625000D01*
Y2268307D01*
Y2240591D01*
X3637874D01*
Y2245591D01*
X3658465D01*
Y2258111D01*
X3729804D01*
Y1969223D01*
X3680777Y1920196D01*
X3610967D01*
X3610396Y1920534D01*
X3604879Y1926173D01*
X3590259Y1950000D01*
X3589228Y1957832D01*
X3587184Y1962765D01*
X3627210Y2002790D01*
X3629420Y2006098D01*
X3630196Y2010000D01*
Y2158976D01*
X3658465D01*
Y2204409D01*
X3581535D01*
Y2158976D01*
X3584214D01*
Y2100423D01*
X3580196Y2097738D01*
X3550196Y2113774D01*
Y2225539D01*
X3578927Y2243840D01*
X3602126Y2240590D01*
X3609465Y2240591D01*
X3615000D01*
Y2268307D01*
Y2296024D01*
X3602126D01*
Y2291024D01*
X3581535D01*
Y2278503D01*
X3563307D01*
X3559405Y2277727D01*
X3556097Y2275517D01*
X3532790Y2252210D01*
X3530580Y2248902D01*
X3529804Y2245000D01*
Y2064223D01*
X3465777Y2000196D01*
X2734685D01*
X2734685Y2038780D01*
X2734685Y2051221D01*
X2734685Y2066543D01*
X2743510Y2072856D01*
X2764685Y2079831D01*
X2766221Y2078805D01*
X2768856Y2078281D01*
X2770000Y2078054D01*
Y2100000D01*
Y2121946D01*
X2766221Y2121195D01*
X2758778Y2116222D01*
X2753805Y2108779D01*
X2724978Y2107042D01*
X2715196Y2113153D01*
Y2194830D01*
X2718323Y2196993D01*
X2720130Y2197889D01*
X2726396Y2202698D01*
X2731205Y2208965D01*
X2734228Y2216263D01*
X2735259Y2224095D01*
X2734228Y2231926D01*
X2731205Y2239224D01*
X2726396Y2245491D01*
X2720129Y2250300D01*
X2712832Y2253322D01*
X2705000Y2254353D01*
X2697168Y2253322D01*
X2689871Y2250300D01*
X2683604Y2245491D01*
X2678795Y2239224D01*
X2675772Y2231926D01*
X2674741Y2224095D01*
X2675772Y2216263D01*
X2678795Y2208965D01*
X2683604Y2202698D01*
X2686966Y2200119D01*
X2689870Y2197889D01*
X2691319Y2197170D01*
X2694804Y2194842D01*
Y2109994D01*
X2685420Y2084214D01*
X2685315Y2084213D01*
X2685315Y2083925D01*
X2685315Y2083925D01*
Y2051221D01*
X2685315Y2030000D01*
X2685315Y2000196D01*
X2654223D01*
X2495915Y2158504D01*
X2498740Y2188504D01*
X2498740D01*
X2498740Y2226650D01*
X2528740Y2236997D01*
X2533778Y2233778D01*
X2541220Y2228806D01*
X2541221Y2228805D01*
X2541221Y2228805D01*
X2545000Y2228054D01*
Y2250000D01*
Y2271946D01*
X2541221Y2271195D01*
X2534817Y2266916D01*
X2533778Y2266222D01*
X2533778Y2266220D01*
X2528805Y2258779D01*
X2522740Y2253080D01*
X2517460Y2249893D01*
X2498740Y2249685D01*
X2473334Y2249685D01*
X2406038Y2249685D01*
X2317794Y2337929D01*
Y2455000D01*
X2322500D01*
Y2465196D01*
X2322500Y2474804D01*
X2499001D01*
X2515000Y2474804D01*
X2518902Y2475580D01*
X2522210Y2477790D01*
X2530838Y2486418D01*
X2587657Y2543238D01*
X2597643Y2553223D01*
X2599853Y2556531D01*
X2600629Y2560433D01*
X2600629Y2614409D01*
X2612165Y2614410D01*
Y2649024D01*
X2620476Y2667177D01*
X2633779Y2678805D01*
X2641222Y2683778D01*
X2646195Y2691221D01*
X2646946Y2695000D01*
X2625000D01*
Y2700000D01*
X2620000D01*
Y2721946D01*
X2616221Y2721195D01*
X2608778Y2716222D01*
X2603805Y2708779D01*
X2602059Y2700000D01*
X2583550Y2678633D01*
X2578655Y2675590D01*
X2568701Y2675591D01*
X2545236D01*
X2538701Y2675590D01*
X2521345D01*
X2516450Y2678633D01*
X2497941Y2700000D01*
X2497205Y2703699D01*
X2496195Y2708779D01*
X2491222Y2716222D01*
X2483779Y2721195D01*
X2480000Y2721946D01*
Y2700000D01*
X2470000D01*
Y2721946D01*
X2466221Y2721195D01*
X2458778Y2716222D01*
X2453805Y2708779D01*
X2452059Y2700000D01*
X2433550Y2678633D01*
X2428655Y2675590D01*
X2426197D01*
X2398268Y2680591D01*
X2388803Y2680590D01*
X2376536D01*
Y2645000D01*
Y2609410D01*
X2388803D01*
X2398268Y2609409D01*
X2426197Y2614410D01*
X2434886D01*
X2440625Y2607354D01*
X2448795Y2585129D01*
X2447170Y2581206D01*
X2445772Y2577832D01*
X2445688Y2577460D01*
X2445269Y2576166D01*
X2426764Y2568109D01*
X2415215Y2566894D01*
X2408779Y2571195D01*
X2408779Y2571195D01*
X2405000Y2571946D01*
Y2550000D01*
Y2528054D01*
X2408779Y2528805D01*
X2416222Y2533778D01*
X2421195Y2541221D01*
X2421577Y2542952D01*
X2436664Y2549558D01*
X2444046Y2551019D01*
X2451474Y2551378D01*
X2453604Y2548604D01*
X2459871Y2543795D01*
X2467168Y2540772D01*
X2475000Y2539741D01*
X2482832Y2540772D01*
X2490129Y2543795D01*
X2496396Y2548604D01*
X2501205Y2554871D01*
X2504228Y2562168D01*
X2505259Y2570000D01*
X2504228Y2577832D01*
X2501205Y2585129D01*
X2509375Y2607354D01*
X2515114Y2614410D01*
X2538701D01*
X2550237Y2614409D01*
X2570629Y2597265D01*
X2570629Y2597265D01*
X2575879Y2592851D01*
X2576789Y2561209D01*
X2519200Y2503620D01*
X2510777Y2495196D01*
X2495863Y2495196D01*
X2322500D01*
Y2515000D01*
X2282500D01*
X2267500Y2538787D01*
Y2540000D01*
X2176629D01*
X1983798Y2732831D01*
Y2923527D01*
X1989900Y2928210D01*
X1994709Y2934477D01*
X1997732Y2941775D01*
X1998763Y2949606D01*
X1998072Y2954851D01*
X2005883Y2965161D01*
X2020000Y2977278D01*
Y3000000D01*
X2025000D01*
Y3005000D01*
X2046946D01*
X2046195Y3008779D01*
X2041222Y3016222D01*
X2033779Y3021195D01*
X2025000Y3022941D01*
X2007614Y3046199D01*
X2005034Y3064507D01*
X2058355Y3117829D01*
X2083778Y3133778D01*
X2091221Y3128805D01*
X2095000Y3128054D01*
Y3150000D01*
X2100000D01*
Y3155000D01*
X2121946D01*
X2121195Y3158779D01*
X2121194Y3158780D01*
X2116222Y3166222D01*
X2108780Y3171194D01*
X2108779Y3171195D01*
X2108779Y3171195D01*
X2100000Y3172941D01*
X2080340Y3197171D01*
X2080294Y3197280D01*
Y3402720D01*
X2080340Y3402829D01*
X2100000Y3427059D01*
X2108779Y3428805D01*
X2116222Y3433778D01*
X2121195Y3441221D01*
X2121946Y3445000D01*
X2100000D01*
Y3455000D01*
X2121946D01*
X2121195Y3458779D01*
X2116222Y3466222D01*
X2111655Y3493392D01*
X2112643Y3501014D01*
X2324279Y3712650D01*
X2327594Y3717612D01*
X2328758Y3723465D01*
Y3912130D01*
X2456335Y4039706D01*
X2843665D01*
X2931045Y3952326D01*
X2928258Y3938777D01*
X2919165Y3921780D01*
X2916221Y3921195D01*
X2916220Y3921194D01*
X2908778Y3916222D01*
Y3916221D01*
X2903805Y3908779D01*
X2903054Y3905000D01*
X2925000D01*
Y3900000D01*
X2930000D01*
Y3878054D01*
X2933779Y3878805D01*
X2933779Y3878805D01*
X2941221Y3883778D01*
X2941222Y3883778D01*
X2944706Y3888993D01*
X2946878Y3889246D01*
X2974706Y3870880D01*
Y3787500D01*
X2935000D01*
Y3672500D01*
X2936213D01*
X2949302Y3664246D01*
X2949357Y3642347D01*
X2930000Y3626925D01*
Y3600000D01*
Y3578054D01*
X2933779Y3578805D01*
X2941222Y3583778D01*
X2944706Y3588993D01*
X2946878Y3589246D01*
X2974706Y3570880D01*
Y3488126D01*
X2967263Y3485042D01*
X2955773Y3476227D01*
X2946958Y3464737D01*
X2941803Y3452294D01*
X2908285D01*
X2905343Y3461995D01*
X2899307Y3473287D01*
X2891184Y3483184D01*
X2881287Y3491307D01*
X2869995Y3497343D01*
X2857742Y3501059D01*
X2845000Y3502314D01*
X2832258Y3501059D01*
X2820005Y3497343D01*
X2808713Y3491307D01*
X2798816Y3483184D01*
X2790693Y3473287D01*
X2784657Y3461995D01*
X2780941Y3449742D01*
X2779686Y3437000D01*
X2780941Y3424258D01*
X2784657Y3412005D01*
X2790693Y3400713D01*
X2798816Y3390816D01*
X2808713Y3382693D01*
X2820005Y3376657D01*
X2832258Y3372941D01*
X2845000Y3371686D01*
X2857742Y3372941D01*
X2869995Y3376657D01*
X2881287Y3382693D01*
X2891184Y3390816D01*
X2899307Y3400713D01*
X2905343Y3412005D01*
X2908285Y3421706D01*
X2941803D01*
X2946958Y3409263D01*
X2955773Y3397773D01*
X2967263Y3388958D01*
X2980642Y3383416D01*
X2995000Y3381525D01*
X3009358Y3383416D01*
X3022737Y3388958D01*
X3034227Y3397773D01*
X3043042Y3409263D01*
X3048584Y3422642D01*
X3050475Y3437000D01*
X3048584Y3451358D01*
X3043042Y3464737D01*
X3034227Y3476227D01*
X3022737Y3485042D01*
X3009358Y3490584D01*
X3005294Y3491119D01*
Y3617500D01*
X3020000D01*
X3020000Y3657500D01*
X3043787Y3672500D01*
X3045000D01*
Y3787500D01*
X3005294D01*
Y3915000D01*
X3004130Y3920853D01*
X3000814Y3925814D01*
X2860814Y4065814D01*
X2855853Y4069130D01*
X2850000Y4070294D01*
X2450000D01*
X2444147Y4069130D01*
X2416222Y4066222D01*
X2408779Y4071195D01*
X2408779Y4071195D01*
X2408778D01*
X2405000Y4071946D01*
Y4050000D01*
X2400000D01*
Y4045000D01*
X2378054D01*
X2378805Y4041222D01*
Y4041221D01*
X2378805Y4041221D01*
X2383778Y4033778D01*
X2376788Y4003417D01*
X2321271Y3947900D01*
X2310621Y3949877D01*
X2291928Y3960983D01*
X2291928Y4041724D01*
X2291928Y4082581D01*
X2383933Y4174585D01*
X2403585Y4168089D01*
X2413377Y4161603D01*
X2413961Y4157168D01*
X2416984Y4149871D01*
X2421793Y4143604D01*
X2428060Y4138795D01*
X2435357Y4135772D01*
X2443189Y4134741D01*
X2451021Y4135772D01*
X2458318Y4138795D01*
X2464585Y4143604D01*
X2469394Y4149871D01*
X2472417Y4157168D01*
X2473448Y4165000D01*
X2472417Y4172832D01*
X2470660Y4178052D01*
X2512412Y4219804D01*
X2577739D01*
X2577944Y4219717D01*
X2602059Y4200000D01*
X2603805Y4191221D01*
X2603806Y4191221D01*
X2608778Y4183778D01*
X2608779D01*
X2616221Y4178805D01*
X2616221Y4178806D01*
X2620000Y4178054D01*
Y4200000D01*
X2630000D01*
Y4178054D01*
X2633779Y4178806D01*
X2633779Y4178805D01*
X2641221Y4183778D01*
X2641222D01*
X2646194Y4191221D01*
X2646195Y4191221D01*
X2647941Y4200000D01*
X2672056Y4219717D01*
X2672261Y4219804D01*
X2727739D01*
X2727944Y4219717D01*
X2752059Y4200000D01*
X2753805Y4191221D01*
X2753806Y4191221D01*
X2758778Y4183778D01*
X2758779D01*
X2766221Y4178805D01*
X2766221Y4178806D01*
X2770000Y4178054D01*
Y4200000D01*
X2780000D01*
Y4178054D01*
X2783779Y4178806D01*
X2783779Y4178805D01*
X2791221Y4183778D01*
X2791222D01*
X2796194Y4191221D01*
X2796195Y4191221D01*
X2797941Y4200000D01*
X2822056Y4219717D01*
X2822261Y4219804D01*
X2877739D01*
X2877944Y4219717D01*
X2902059Y4200000D01*
X2903805Y4191221D01*
X2903806Y4191221D01*
X2906964Y4186494D01*
X2908778Y4183778D01*
X2908779D01*
X2916221Y4178805D01*
X2916221Y4178806D01*
X2920000Y4178054D01*
Y4200000D01*
X2925000D01*
Y4205000D01*
X2946946D01*
X2946195Y4208779D01*
X2946195Y4208779D01*
X2943689Y4212529D01*
X2941222Y4216222D01*
X2953510Y4244091D01*
X3026657Y4317238D01*
X3071446Y4362027D01*
X3078745Y4369326D01*
X3080955Y4372634D01*
X3081731Y4376536D01*
Y4394303D01*
X3111731Y4419409D01*
X3111732Y4419409D01*
X3121197Y4419409D01*
X3133465D01*
Y4455000D01*
Y4490591D01*
X3121197D01*
X3111732Y4490591D01*
X3107430Y4493605D01*
X3103769Y4531278D01*
X3105281Y4532790D01*
X3107491Y4536098D01*
X3108267Y4540000D01*
Y4548166D01*
Y4624787D01*
Y4632952D01*
X3107491Y4636854D01*
X3105281Y4640162D01*
X3093681Y4651761D01*
X3094427Y4654717D01*
X3095251Y4657168D01*
X3095729Y4660799D01*
X3096282Y4665000D01*
X3095251Y4672832D01*
X3092228Y4680129D01*
X3090094Y4682911D01*
X3093187Y4697178D01*
X3101761Y4713206D01*
X3149606Y4714381D01*
X3207141Y4712968D01*
D02*
G37*
G36*
X2064803Y3879409D02*
Y3879410D01*
X2098803D01*
X2126732Y3874409D01*
X2136197Y3874410D01*
X2145950D01*
X2158376Y3844410D01*
X1926112Y3612146D01*
X1918332Y3611270D01*
X1891222Y3616222D01*
X1889148Y3617607D01*
X1883779Y3621195D01*
X1883779Y3621195D01*
X1880000Y3621946D01*
Y3600000D01*
X1875000D01*
Y3595000D01*
X1853054D01*
X1853805Y3591221D01*
Y3591221D01*
X1857392Y3585852D01*
X1858778Y3583778D01*
X1863730Y3556669D01*
X1862854Y3548887D01*
X1815196Y3501229D01*
X1785196Y3513656D01*
Y3635777D01*
X1787848Y3638429D01*
X1898646Y3749227D01*
X1925395Y3742126D01*
X1930512Y3738667D01*
X1933778Y3733778D01*
X1933779Y3733778D01*
X1941221Y3728805D01*
X1941221Y3728805D01*
X1945000Y3728054D01*
Y3750000D01*
X1950000D01*
Y3755000D01*
X1971946D01*
X1971195Y3758779D01*
X1966222Y3766222D01*
X1961333Y3769488D01*
X1957874Y3774605D01*
X1950773Y3801354D01*
X2034803Y3885384D01*
X2064803Y3879409D01*
D02*
G37*
G36*
X2001807Y3638587D02*
X2014804Y3629573D01*
Y3627017D01*
Y3378838D01*
X2012724Y3377669D01*
X1984900Y3371003D01*
X1978633Y3375811D01*
X1971335Y3378834D01*
X1963504Y3379865D01*
X1955672Y3378834D01*
X1948374Y3375811D01*
X1942108Y3371003D01*
X1937299Y3364736D01*
X1935193Y3359652D01*
X1933072Y3357150D01*
X1929582Y3356915D01*
X1926187Y3357145D01*
X1899076Y3367257D01*
X1893466Y3374569D01*
X1886155Y3380179D01*
X1877641Y3383705D01*
X1873504Y3384250D01*
Y3349606D01*
X1863504D01*
Y3384250D01*
X1859367Y3383705D01*
X1850853Y3380179D01*
X1850196Y3379675D01*
X1827803Y3387057D01*
X1820196Y3393094D01*
Y3477391D01*
X1822858Y3480053D01*
X1985808Y3643003D01*
X2001807Y3638587D01*
D02*
G37*
G36*
X2173305Y2362711D02*
X2177029Y2354252D01*
X2177559Y2348291D01*
Y2330000D01*
X2209213D01*
X2240866D01*
Y2330186D01*
X2258712Y2353194D01*
X2283883Y2337119D01*
X2287206Y2332833D01*
Y2331595D01*
X2288370Y2325742D01*
X2291686Y2320780D01*
X2340492Y2271974D01*
X2331260Y2249685D01*
X2331260D01*
Y2215586D01*
X2301260Y2203159D01*
X2278115Y2226304D01*
X2274807Y2228514D01*
X2273375Y2245000D01*
X2250000D01*
Y2255000D01*
X2271946D01*
X2271195Y2258779D01*
X2271195Y2258779D01*
X2266222Y2266222D01*
X2261903Y2269107D01*
X2252843Y2278275D01*
X2245542Y2286982D01*
X2240866Y2301712D01*
Y2320000D01*
X2214213D01*
Y2290394D01*
X2216595D01*
X2223028Y2281345D01*
X2229884Y2260394D01*
X2228805Y2258779D01*
X2228805Y2258779D01*
X2227059Y2250000D01*
X2204023Y2229799D01*
X2202919Y2229290D01*
X2125129D01*
X2089026Y2265394D01*
X2101452Y2295394D01*
X2137441D01*
Y2354606D01*
X2139784Y2360239D01*
X2156720Y2365226D01*
X2173305Y2362711D01*
D02*
G37*
G36*
X1949777Y4110365D02*
X1953323Y4101861D01*
X1952882Y4098021D01*
X1941221Y4071195D01*
X1936344Y4067936D01*
X1933778Y4066222D01*
Y4066221D01*
X1928805Y4058779D01*
X1928805Y4058779D01*
X1928054Y4055000D01*
X1950000D01*
Y4045000D01*
X1928054D01*
X1928805Y4041221D01*
X1928805Y4041221D01*
X1928806Y4041221D01*
X1933778Y4033778D01*
Y4033778D01*
X1941221Y4028805D01*
X1959438Y4016825D01*
X1970620Y4002413D01*
X1976008Y3994705D01*
X1978942Y3990099D01*
X1978945Y3990095D01*
X1982339Y3986985D01*
X1986710Y3982980D01*
X1996052Y3978117D01*
X2006335Y3975837D01*
X2016857Y3976296D01*
X2026901Y3979464D01*
X2035784Y3985123D01*
X2042900Y3992888D01*
X2046340Y3999495D01*
X2048686Y4000383D01*
X2076339Y3986936D01*
Y3969138D01*
X2064804Y3940592D01*
X2064803Y3940591D01*
X2064803Y3940590D01*
X2045000Y3920196D01*
X2041098Y3919420D01*
X2037790Y3917210D01*
X2032016Y3911436D01*
X1854553Y3733973D01*
X1847894Y3735607D01*
X1822941Y3750000D01*
X1822248Y3753482D01*
X1821195Y3758779D01*
X1816222Y3766222D01*
X1808779Y3771194D01*
X1808779Y3771195D01*
X1805624Y3771822D01*
X1805000Y3771946D01*
Y3750000D01*
X1800000D01*
Y3745000D01*
X1778054D01*
X1778805Y3741221D01*
X1778806Y3741221D01*
X1783778Y3733778D01*
X1791221Y3728805D01*
X1800000Y3727059D01*
X1814393Y3702106D01*
X1816027Y3695447D01*
X1773564Y3652983D01*
X1767790Y3647210D01*
X1765580Y3643902D01*
X1764804Y3640000D01*
Y3633798D01*
X1757381Y3628266D01*
X1734804Y3620510D01*
X1733779Y3621195D01*
X1730000Y3621946D01*
Y3600000D01*
Y3578054D01*
X1733779Y3578805D01*
X1734804Y3579490D01*
X1757381Y3571734D01*
X1764804Y3566202D01*
Y3333798D01*
X1757381Y3328266D01*
X1734804Y3320510D01*
X1733779Y3321195D01*
X1733779Y3321195D01*
X1730000Y3321946D01*
Y3300000D01*
Y3278054D01*
X1733779Y3278805D01*
X1734804Y3279490D01*
X1757381Y3271734D01*
X1764804Y3266202D01*
Y3112142D01*
Y3103976D01*
X1765580Y3100075D01*
X1767790Y3096767D01*
X1822160Y3042397D01*
X1825468Y3040186D01*
X1829370Y3039410D01*
X1840255D01*
X1842298Y3034479D01*
X1842299Y3034477D01*
X1847108Y3028210D01*
X1853424Y3021722D01*
X1853805Y3008779D01*
X1853805Y3008779D01*
X1853805Y3008779D01*
X1853054Y3005000D01*
X1875000D01*
Y2995000D01*
X1853054D01*
X1853805Y2991221D01*
X1853434Y2977928D01*
X1847108Y2971003D01*
X1842299Y2964736D01*
X1839276Y2957438D01*
X1838245Y2949606D01*
X1839276Y2941775D01*
X1842299Y2934477D01*
X1847108Y2928210D01*
X1853374Y2923401D01*
X1860672Y2920378D01*
X1868504Y2919347D01*
X1869804Y2919519D01*
X1893979Y2905340D01*
X1897763Y2902115D01*
X1899804Y2899040D01*
Y2746266D01*
X1896421Y2740973D01*
X1875000Y2722941D01*
X1875000Y2722941D01*
X1866221Y2721195D01*
X1858778Y2716222D01*
X1853805Y2708779D01*
X1853054Y2705000D01*
X1875000D01*
Y2695000D01*
X1853054D01*
X1853805Y2691221D01*
X1858778Y2683778D01*
X1866221Y2678805D01*
X1875000Y2677059D01*
X1875000Y2677059D01*
X1896421Y2659027D01*
X1899804Y2653734D01*
Y2446266D01*
X1896421Y2440973D01*
X1875000Y2422941D01*
X1875000Y2422941D01*
X1866221Y2421195D01*
X1858778Y2416222D01*
X1853805Y2408779D01*
X1853054Y2405000D01*
X1875000D01*
Y2395000D01*
X1853054D01*
X1853805Y2391221D01*
X1858778Y2383778D01*
X1866221Y2378805D01*
X1875000Y2377059D01*
X1875000Y2377059D01*
X1896421Y2359027D01*
X1899804Y2353734D01*
Y2345385D01*
X1900580Y2341484D01*
X1902790Y2338176D01*
X1939522Y2301444D01*
X1939989Y2293118D01*
X1933778Y2266222D01*
X1933194Y2265346D01*
X1928805Y2258779D01*
X1928054Y2255000D01*
X1950000D01*
Y2250000D01*
X1955000D01*
Y2228054D01*
X1958779Y2228805D01*
X1965346Y2233193D01*
X1966222Y2233778D01*
X1993118Y2239990D01*
X2001444Y2239522D01*
X2063176Y2177790D01*
X2066484Y2175580D01*
X2070385Y2174804D01*
X2165528D01*
X2183400Y2173071D01*
X2188894Y2148436D01*
X2170588Y2122063D01*
X2166221Y2121195D01*
X2166221Y2121195D01*
X2166220Y2121194D01*
X2158778Y2116222D01*
X2153806Y2108780D01*
X2153805Y2108779D01*
X2153054Y2105000D01*
X2175000D01*
Y2095000D01*
X2153054D01*
X2153805Y2091221D01*
X2153806Y2091220D01*
X2158778Y2083778D01*
X2166220Y2078806D01*
X2166221Y2078805D01*
X2166221Y2078805D01*
X2175000Y2077059D01*
X2194370Y2052548D01*
Y2014213D01*
X2224961D01*
Y2093110D01*
X2229961D01*
Y2098110D01*
X2265551D01*
Y2118811D01*
X2292158Y2137247D01*
X2293193Y2135938D01*
X2303805Y2108779D01*
X2303054Y2105000D01*
X2346946D01*
X2346195Y2108779D01*
X2343151Y2113334D01*
X2341222Y2116222D01*
X2335860Y2119804D01*
X2335581Y2121987D01*
X2353493Y2149804D01*
X2440777D01*
X2642790Y1947790D01*
X2646098Y1945580D01*
X2650000Y1944804D01*
X2657896D01*
X2672628Y1914804D01*
X2662430Y1901604D01*
X2655522Y1901719D01*
X2651625Y1904709D01*
X2644328Y1907732D01*
X2636496Y1908763D01*
X2628664Y1907732D01*
X2621367Y1904709D01*
X2615100Y1899900D01*
X2610291Y1893633D01*
X2607268Y1886336D01*
X2606237Y1878504D01*
X2607268Y1870672D01*
X2610291Y1863375D01*
X2615100Y1857108D01*
X2615100Y1857107D01*
X2615100Y1857107D01*
X2617665Y1855139D01*
X2617666Y1855138D01*
X2620251Y1852136D01*
X2616458Y1821381D01*
X2616221Y1821195D01*
X2608779Y1816222D01*
X2608778Y1816222D01*
X2603805Y1808779D01*
X2603054Y1805000D01*
X2646946D01*
X2646195Y1808779D01*
X2641222Y1816222D01*
X2638156Y1818938D01*
X2642104Y1847889D01*
X2644328Y1849276D01*
X2651625Y1852299D01*
X2655522Y1855289D01*
X2685315Y1855787D01*
Y1855787D01*
X2734685D01*
Y1868308D01*
X2788504D01*
X2792406Y1869084D01*
X2795714Y1871294D01*
X2824223Y1899804D01*
X2828008D01*
X3578099Y1899804D01*
X3685000D01*
X3688902Y1900580D01*
X3692210Y1902790D01*
X3747210Y1957790D01*
X3749420Y1961098D01*
X3750196Y1965000D01*
Y2258111D01*
X4213759D01*
X4221591D01*
X4225493Y2258887D01*
X4228801Y2261097D01*
X4234575Y2266871D01*
X4372788Y2405085D01*
X4384110Y2403118D01*
X4403398Y2393268D01*
X4403805Y2391221D01*
X4403806Y2391220D01*
X4408778Y2383778D01*
X4416221Y2378805D01*
X4420000Y2378054D01*
Y2400000D01*
X4425000D01*
Y2405000D01*
X4446946D01*
X4446194Y2408779D01*
X4441222Y2416222D01*
X4433779Y2421195D01*
X4431732Y2421602D01*
X4421882Y2440890D01*
X4419915Y2452212D01*
X4466436Y2498732D01*
X4472210Y2504506D01*
X4473905Y2507043D01*
X4474665Y2507998D01*
X4495000Y2523297D01*
Y2550000D01*
X4500000D01*
Y2555000D01*
X4521946D01*
X4521194Y2558779D01*
X4516222Y2566222D01*
X4508779Y2571195D01*
X4500000Y2572941D01*
X4500000Y2572941D01*
X4478579Y2590973D01*
X4475196Y2596266D01*
Y2684736D01*
Y2715264D01*
Y2803734D01*
X4478579Y2809027D01*
X4500000Y2827059D01*
X4500000Y2827059D01*
X4508779Y2828805D01*
X4516222Y2833778D01*
X4521194Y2841221D01*
X4521946Y2845000D01*
X4500000D01*
Y2855000D01*
X4521946D01*
X4521194Y2858779D01*
X4516222Y2866222D01*
X4508779Y2871195D01*
X4500000Y2872941D01*
X4500000Y2872941D01*
X4478579Y2890973D01*
X4475196Y2896266D01*
Y2984736D01*
Y3015264D01*
Y3096838D01*
Y3105000D01*
X4477027Y3107720D01*
X4500000Y3127059D01*
X4500000Y3127059D01*
X4508779Y3128805D01*
X4516222Y3133778D01*
X4521194Y3141221D01*
X4521946Y3145000D01*
X4500000D01*
Y3155000D01*
X4521946D01*
X4521194Y3158779D01*
X4516222Y3166222D01*
X4508779Y3171195D01*
X4500000Y3172941D01*
X4500000Y3172941D01*
X4478579Y3190973D01*
X4475196Y3196266D01*
Y3340375D01*
Y3350000D01*
Y3403734D01*
X4478579Y3409027D01*
X4500000Y3427059D01*
X4500000Y3427059D01*
X4508779Y3428805D01*
X4516222Y3433778D01*
X4521194Y3441221D01*
X4521946Y3445000D01*
X4500000D01*
Y3455000D01*
X4521946D01*
X4521194Y3458779D01*
X4516222Y3466222D01*
X4508779Y3471195D01*
X4500000Y3472941D01*
X4500000Y3472941D01*
X4478579Y3490973D01*
X4475196Y3496266D01*
Y3594951D01*
Y3602947D01*
Y3703734D01*
X4478579Y3709027D01*
X4500000Y3727059D01*
X4500000Y3727059D01*
X4508779Y3728805D01*
X4516222Y3733778D01*
X4521194Y3741221D01*
X4521946Y3745000D01*
X4500000D01*
Y3755000D01*
X4521946D01*
X4521194Y3758779D01*
X4516222Y3766222D01*
X4508779Y3771195D01*
X4500000Y3772941D01*
X4500000Y3772941D01*
X4478579Y3790973D01*
X4475196Y3796266D01*
Y3894951D01*
Y3922433D01*
X4505196Y3930340D01*
X4529614Y3887236D01*
X4564146Y3818634D01*
X4595269Y3748419D01*
X4622910Y3676763D01*
X4647002Y3603836D01*
X4667486Y3529816D01*
X4684314Y3454879D01*
X4697444Y3379206D01*
X4706846Y3302981D01*
X4712496Y3226386D01*
X4714381Y3149606D01*
X4712496Y3072827D01*
X4706846Y2996232D01*
X4697444Y2920006D01*
X4684314Y2844334D01*
X4667486Y2769397D01*
X4647002Y2695376D01*
X4622910Y2622450D01*
X4595269Y2550793D01*
X4564146Y2480579D01*
X4529614Y2411977D01*
X4491758Y2345151D01*
X4450669Y2280264D01*
X4406445Y2217471D01*
X4359193Y2156924D01*
X4309028Y2098768D01*
X4256069Y2043144D01*
X4200445Y1990185D01*
X4142289Y1940019D01*
X4081741Y1892768D01*
X4018948Y1848544D01*
X3954061Y1807455D01*
X3887236Y1769599D01*
X3818634Y1735067D01*
X3748419Y1703943D01*
X3676763Y1676302D01*
X3603836Y1652211D01*
X3529816Y1631726D01*
X3517968Y1629066D01*
X3515269Y1631896D01*
X3503009Y1656454D01*
X3503883Y1657592D01*
X3507561Y1666472D01*
X3508815Y1676000D01*
X3507561Y1685528D01*
X3503883Y1694408D01*
X3498032Y1702032D01*
X3490407Y1707883D01*
X3481528Y1711561D01*
X3472000Y1712815D01*
X3462472Y1711561D01*
X3453593Y1707883D01*
X3445968Y1702032D01*
X3440117Y1694408D01*
X3436439Y1685528D01*
X3435185Y1676000D01*
X3436439Y1666472D01*
X3440117Y1657592D01*
X3445968Y1649968D01*
X3452343Y1645076D01*
X3453544Y1632618D01*
X3448437Y1613781D01*
X3379206Y1601768D01*
X3302981Y1592367D01*
X3226386Y1586717D01*
X3149606Y1584832D01*
X3072827Y1586717D01*
X2996232Y1592367D01*
X2920006Y1601768D01*
X2851330Y1613685D01*
X2846452Y1635132D01*
X2847479Y1644939D01*
X2854032Y1649968D01*
X2859883Y1657592D01*
X2863561Y1666472D01*
X2864815Y1676000D01*
X2863561Y1685528D01*
X2859883Y1694408D01*
X2854032Y1702032D01*
X2846407Y1707883D01*
X2837528Y1711561D01*
X2828000Y1712815D01*
X2818472Y1711561D01*
X2809593Y1707883D01*
X2801968Y1702032D01*
X2796117Y1694408D01*
X2792439Y1685528D01*
X2791185Y1676000D01*
X2792439Y1666472D01*
X2796117Y1657592D01*
X2797155Y1656240D01*
X2785689Y1632632D01*
X2782149Y1628863D01*
X2769397Y1631726D01*
X2695376Y1652211D01*
X2622450Y1676302D01*
X2550793Y1703943D01*
X2480579Y1735067D01*
X2411977Y1769599D01*
X2345151Y1807455D01*
X2280264Y1848544D01*
X2217471Y1892768D01*
X2156924Y1940019D01*
X2098768Y1990185D01*
X2043144Y2043144D01*
X1990185Y2098768D01*
X1940019Y2156924D01*
X1892768Y2217471D01*
X1848544Y2280264D01*
X1807455Y2345151D01*
X1769599Y2411977D01*
X1735067Y2480579D01*
X1703943Y2550793D01*
X1676302Y2622450D01*
X1652211Y2695376D01*
X1631726Y2769397D01*
X1614899Y2844334D01*
X1601768Y2920006D01*
X1592367Y2996232D01*
X1586717Y3072827D01*
X1584832Y3149606D01*
X1586717Y3226386D01*
X1592367Y3302981D01*
X1601768Y3379206D01*
X1614899Y3454879D01*
X1631726Y3529816D01*
X1652211Y3603836D01*
X1676302Y3676763D01*
X1703943Y3748419D01*
X1735067Y3818634D01*
X1769599Y3887236D01*
X1807455Y3954061D01*
X1848544Y4018948D01*
X1892768Y4081741D01*
X1919025Y4115387D01*
X1949777Y4110365D01*
D02*
G37*
%LPC*%
G36*
X2630000Y4521946D02*
Y4505000D01*
X2646946D01*
X2646195Y4508779D01*
X2641222Y4516222D01*
X2633779Y4521194D01*
X2630000Y4521946D01*
D02*
G37*
G36*
X2620000D02*
X2616221Y4521194D01*
X2608778Y4516222D01*
X2603805Y4508779D01*
X2603054Y4505000D01*
X2620000D01*
Y4521946D01*
D02*
G37*
G36*
X2470000D02*
X2466221Y4521194D01*
X2458778Y4516222D01*
X2453805Y4508779D01*
X2453054Y4505000D01*
X2470000D01*
Y4521946D01*
D02*
G37*
G36*
X2718583Y4545259D02*
X2710751Y4544228D01*
X2703453Y4541205D01*
X2697186Y4536396D01*
X2692378Y4530130D01*
X2689355Y4522832D01*
X2688324Y4515000D01*
X2689355Y4507168D01*
X2692378Y4499870D01*
X2697186Y4493604D01*
X2703453Y4488795D01*
X2710751Y4485772D01*
X2718583Y4484741D01*
X2726414Y4485772D01*
X2733712Y4488795D01*
X2739979Y4493604D01*
X2744788Y4499870D01*
X2747811Y4507168D01*
X2748842Y4515000D01*
X2747811Y4522832D01*
X2744788Y4530130D01*
X2739979Y4536396D01*
X2733712Y4541205D01*
X2726414Y4544228D01*
X2718583Y4545259D01*
D02*
G37*
G36*
X2646946Y4495000D02*
X2630000D01*
Y4478054D01*
X2633779Y4478806D01*
X2641222Y4483778D01*
X2646195Y4491221D01*
X2646946Y4495000D01*
D02*
G37*
G36*
X2620000D02*
X2603054D01*
X2603805Y4491221D01*
X2608778Y4483778D01*
X2616221Y4478806D01*
X2620000Y4478054D01*
Y4495000D01*
D02*
G37*
G36*
X2767795Y4456920D02*
X2757353Y4455545D01*
X2747623Y4451515D01*
X2739267Y4445103D01*
X2732855Y4436747D01*
X2728825Y4427017D01*
X2727450Y4416575D01*
X2728825Y4406133D01*
X2732855Y4396402D01*
X2739267Y4388046D01*
X2747623Y4381635D01*
X2757353Y4377604D01*
X2767795Y4376230D01*
X2778237Y4377604D01*
X2787968Y4381635D01*
X2796324Y4388046D01*
X2802735Y4396402D01*
X2806766Y4406133D01*
X2808140Y4416575D01*
X2806766Y4427017D01*
X2802735Y4436747D01*
X2796324Y4445103D01*
X2787968Y4451515D01*
X2778237Y4455545D01*
X2767795Y4456920D01*
D02*
G37*
G36*
X2995000Y4371946D02*
X2991221Y4371194D01*
X2983778Y4366222D01*
X2978805Y4358779D01*
X2978054Y4355000D01*
X2995000D01*
Y4371946D01*
D02*
G37*
G36*
X2680000Y4371946D02*
Y4355000D01*
X2696946D01*
X2696195Y4358779D01*
Y4358779D01*
X2691222Y4366222D01*
X2683779Y4371194D01*
X2680000Y4371946D01*
D02*
G37*
G36*
X2696946Y4345000D02*
X2680000D01*
Y4328054D01*
X2683779Y4328806D01*
X2691221Y4333778D01*
X2691222Y4333778D01*
X2691222Y4333779D01*
X2696195Y4341221D01*
X2696946Y4345000D01*
D02*
G37*
G36*
X2670000Y4371946D02*
X2666221Y4371194D01*
X2658778Y4366222D01*
X2655661Y4361556D01*
X2653805Y4358779D01*
X2653805Y4358776D01*
X2652059Y4350000D01*
X2627574Y4330591D01*
X2608583Y4330591D01*
Y4300000D01*
X2630315D01*
Y4301726D01*
X2630315Y4302552D01*
X2630315Y4302552D01*
X2630315Y4322378D01*
X2657004Y4333068D01*
X2657626Y4333221D01*
X2663911Y4329992D01*
X2666221Y4328805D01*
X2670000Y4328054D01*
Y4350000D01*
Y4371946D01*
D02*
G37*
G36*
X2122637Y4267084D02*
X2114746Y4266739D01*
X2107212Y4264364D01*
X2100550Y4260120D01*
X2095213Y4254296D01*
X2091566Y4247289D01*
X2089856Y4239577D01*
X2090201Y4231685D01*
X2092576Y4224152D01*
X2096820Y4217490D01*
X2102644Y4212153D01*
X2109651Y4208506D01*
X2117363Y4206796D01*
X2125254Y4207141D01*
X2132788Y4209516D01*
X2139450Y4213760D01*
X2144787Y4219584D01*
X2148434Y4226591D01*
X2150144Y4234303D01*
X2149799Y4242194D01*
X2147424Y4249728D01*
X2143180Y4256390D01*
X2137356Y4261727D01*
X2130349Y4265374D01*
X2122637Y4267084D01*
D02*
G37*
G36*
X2224482Y4233367D02*
X2213960Y4232907D01*
X2203915Y4229740D01*
X2195032Y4224081D01*
X2187917Y4216316D01*
X2183053Y4206974D01*
X2180774Y4196691D01*
X2181233Y4186169D01*
X2184400Y4176124D01*
X2190059Y4167242D01*
X2197824Y4160126D01*
X2207167Y4155263D01*
X2217449Y4152983D01*
X2227971Y4153443D01*
X2238016Y4156610D01*
X2246899Y4162269D01*
X2254014Y4170034D01*
X2258878Y4179376D01*
X2261157Y4189659D01*
X2260698Y4200181D01*
X2257531Y4210226D01*
X2251872Y4219109D01*
X2244107Y4226224D01*
X2234764Y4231087D01*
X2224482Y4233367D01*
D02*
G37*
G36*
X2245000Y4071946D02*
X2241221Y4071195D01*
X2233778Y4066222D01*
X2228805Y4058779D01*
X2228054Y4055000D01*
X2245000D01*
Y4071946D01*
D02*
G37*
G36*
X3292401Y4606920D02*
X3281959Y4605545D01*
X3272229Y4601515D01*
X3263873Y4595103D01*
X3257461Y4586747D01*
X3253431Y4577017D01*
X3252056Y4566575D01*
X3253431Y4556133D01*
X3257461Y4546402D01*
X3263873Y4538046D01*
X3272229Y4531635D01*
X3281959Y4527604D01*
X3292401Y4526230D01*
X3302843Y4527604D01*
X3312574Y4531635D01*
X3320930Y4538046D01*
X3327341Y4546402D01*
X3331372Y4556133D01*
X3332747Y4566575D01*
X3331372Y4577017D01*
X3327341Y4586747D01*
X3320930Y4595103D01*
X3312574Y4601515D01*
X3302843Y4605545D01*
X3292401Y4606920D01*
D02*
G37*
G36*
X3680000Y4521946D02*
Y4505000D01*
X3696946D01*
X3696195Y4508779D01*
X3691222Y4516222D01*
X3683779Y4521194D01*
X3680000Y4521946D01*
D02*
G37*
G36*
X3670000D02*
X3666221Y4521194D01*
X3658778Y4516222D01*
X3653805Y4508779D01*
X3653054Y4505000D01*
X3670000D01*
Y4521946D01*
D02*
G37*
G36*
X3696946Y4495000D02*
X3680000D01*
Y4478054D01*
X3683779Y4478806D01*
X3691222Y4483778D01*
X3696195Y4491221D01*
X3696946Y4495000D01*
D02*
G37*
G36*
X3670000D02*
X3653054D01*
X3653805Y4491221D01*
X3658778Y4483778D01*
X3666221Y4478806D01*
X3670000Y4478054D01*
Y4495000D01*
D02*
G37*
G36*
X3143465Y4490591D02*
Y4460000D01*
X3165197D01*
Y4490591D01*
X3143465D01*
D02*
G37*
G36*
X3165197Y4450000D02*
X3143465D01*
Y4419409D01*
X3165197D01*
Y4450000D01*
D02*
G37*
G36*
X3745000Y4371946D02*
X3741221Y4371194D01*
X3733778Y4366222D01*
X3728805Y4358779D01*
X3728054Y4355000D01*
X3745000D01*
Y4371946D01*
D02*
G37*
G36*
X3605000D02*
Y4355000D01*
X3621946D01*
X3621195Y4358779D01*
X3616222Y4366221D01*
X3616222Y4366222D01*
X3616221D01*
X3608779Y4371194D01*
X3605000Y4371946D01*
D02*
G37*
G36*
X3305000Y4371946D02*
Y4355000D01*
X3321946D01*
X3321195Y4358779D01*
X3316222Y4366222D01*
X3308779Y4371194D01*
X3305000Y4371946D01*
D02*
G37*
G36*
X3295000D02*
X3291221Y4371194D01*
X3283778Y4366222D01*
X3278805Y4358779D01*
X3278054Y4355000D01*
X3295000D01*
Y4371946D01*
D02*
G37*
G36*
X3155000D02*
Y4355000D01*
X3171946D01*
X3171195Y4358779D01*
X3166222Y4366222D01*
X3158779Y4371194D01*
X3155000Y4371946D01*
D02*
G37*
G36*
X3145000D02*
X3141221Y4371194D01*
X3133778Y4366222D01*
X3128805Y4358779D01*
X3128054Y4355000D01*
X3145000D01*
Y4371946D01*
D02*
G37*
G36*
X3471946Y4345000D02*
X3455000D01*
Y4328054D01*
X3458779Y4328806D01*
X3458779Y4328805D01*
X3466222Y4333778D01*
X3471195Y4341221D01*
X3471195Y4341221D01*
X3471946Y4345000D01*
D02*
G37*
G36*
X3895000D02*
X3878054D01*
X3878805Y4341221D01*
X3883778Y4333778D01*
X3891221Y4328806D01*
X3895000Y4328054D01*
Y4345000D01*
D02*
G37*
G36*
X3745000D02*
X3728054D01*
X3728805Y4341221D01*
X3733778Y4333778D01*
X3741221Y4328806D01*
X3745000Y4328054D01*
Y4345000D01*
D02*
G37*
G36*
X3621946D02*
X3605000D01*
Y4328054D01*
X3608779Y4328806D01*
X3616222Y4333778D01*
X3619446Y4338604D01*
X3621195Y4341221D01*
Y4341221D01*
X3621946Y4345000D01*
D02*
G37*
G36*
X3321946D02*
X3305000D01*
Y4328054D01*
X3308779Y4328806D01*
X3316222Y4333778D01*
X3321195Y4341221D01*
X3321946Y4345000D01*
D02*
G37*
G36*
X3295000D02*
X3278054D01*
X3278805Y4341221D01*
X3283778Y4333778D01*
X3291221Y4328806D01*
X3295000Y4328054D01*
Y4345000D01*
D02*
G37*
G36*
X3171946D02*
X3155000D01*
Y4328054D01*
X3158779Y4328806D01*
X3166222Y4333778D01*
X3171195Y4341221D01*
X3171946Y4345000D01*
D02*
G37*
G36*
X3145000D02*
X3128054D01*
X3128805Y4341221D01*
X3133778Y4333778D01*
X3141221Y4328806D01*
X3145000Y4328054D01*
Y4345000D01*
D02*
G37*
G36*
X3595000D02*
X3578054D01*
X3578805Y4341221D01*
X3583778Y4333778D01*
X3591221Y4328806D01*
X3591221Y4328805D01*
X3595000Y4328054D01*
Y4345000D01*
D02*
G37*
G36*
X3771946D02*
X3755000D01*
Y4328054D01*
X3758779Y4328805D01*
X3758779Y4328806D01*
X3766222Y4333778D01*
X3771195Y4341221D01*
X3771946Y4345000D01*
D02*
G37*
G36*
X3465590Y4386535D02*
X3394410D01*
Y4364803D01*
X3399496D01*
X3427059Y4350000D01*
X3428805Y4341221D01*
X3428806Y4341221D01*
X3433778Y4333778D01*
X3433779D01*
X3441221Y4328806D01*
X3445000Y4328054D01*
Y4350000D01*
X3450000D01*
Y4355000D01*
X3471946D01*
X3471195Y4358779D01*
X3466222Y4366221D01*
X3466222Y4366222D01*
X3465590Y4366643D01*
Y4386535D01*
D02*
G37*
G36*
X3680000Y4221946D02*
Y4205000D01*
X3696946D01*
X3696195Y4208779D01*
X3691222Y4216222D01*
X3683779Y4221194D01*
X3680000Y4221946D01*
D02*
G37*
G36*
X3670000D02*
X3666221Y4221194D01*
X3658778Y4216222D01*
X3653805Y4208779D01*
X3653054Y4205000D01*
X3670000D01*
Y4221946D01*
D02*
G37*
G36*
X3530000D02*
Y4205000D01*
X3546946D01*
X3546195Y4208779D01*
X3541222Y4216222D01*
X3533779Y4221194D01*
X3530000Y4221946D01*
D02*
G37*
G36*
X3520000D02*
X3516221Y4221194D01*
X3508778Y4216222D01*
X3503805Y4208779D01*
X3503054Y4205000D01*
X3520000D01*
Y4221946D01*
D02*
G37*
G36*
X3380000D02*
Y4205000D01*
X3396946D01*
X3396195Y4208779D01*
X3391222Y4216222D01*
X3383779Y4221194D01*
X3380000Y4221946D01*
D02*
G37*
G36*
X3370000D02*
X3366221Y4221194D01*
X3358778Y4216222D01*
X3353805Y4208779D01*
X3353054Y4205000D01*
X3370000D01*
Y4221946D01*
D02*
G37*
G36*
X3230000D02*
Y4205000D01*
X3246946D01*
X3246195Y4208779D01*
X3241222Y4216222D01*
X3233779Y4221194D01*
X3230000Y4221946D01*
D02*
G37*
G36*
X3220000D02*
X3216221Y4221194D01*
X3208778Y4216222D01*
X3203805Y4208779D01*
X3203054Y4205000D01*
X3220000D01*
Y4221946D01*
D02*
G37*
G36*
X3080000D02*
Y4205000D01*
X3096946D01*
X3096195Y4208779D01*
X3091222Y4216222D01*
X3083779Y4221194D01*
X3080000Y4221946D01*
D02*
G37*
G36*
X3070000D02*
X3066221Y4221194D01*
X3058778Y4216222D01*
X3053805Y4208779D01*
X3053054Y4205000D01*
X3070000D01*
Y4221946D01*
D02*
G37*
G36*
X3826532Y4228766D02*
X3804800D01*
Y4198175D01*
X3826532D01*
Y4228766D01*
D02*
G37*
G36*
X3696946Y4195000D02*
X3680000D01*
Y4178054D01*
X3683779Y4178806D01*
X3691222Y4183778D01*
X3696195Y4191221D01*
X3696946Y4195000D01*
D02*
G37*
G36*
X3670000D02*
X3653054D01*
X3653805Y4191221D01*
X3658778Y4183778D01*
X3666221Y4178806D01*
X3670000Y4178054D01*
Y4195000D01*
D02*
G37*
G36*
X3546946D02*
X3530000D01*
Y4178054D01*
X3533779Y4178806D01*
X3541222Y4183778D01*
X3546195Y4191221D01*
X3546946Y4195000D01*
D02*
G37*
G36*
X3520000D02*
X3503054D01*
X3503805Y4191221D01*
X3508778Y4183778D01*
X3516221Y4178806D01*
X3520000Y4178054D01*
Y4195000D01*
D02*
G37*
G36*
X3396946D02*
X3380000D01*
Y4178054D01*
X3383779Y4178806D01*
X3391222Y4183778D01*
X3396195Y4191221D01*
X3396946Y4195000D01*
D02*
G37*
G36*
X3370000D02*
X3353054D01*
X3353805Y4191221D01*
X3358778Y4183778D01*
X3366221Y4178806D01*
X3370000Y4178054D01*
Y4195000D01*
D02*
G37*
G36*
X3246946D02*
X3230000D01*
Y4178054D01*
X3233779Y4178806D01*
X3241222Y4183778D01*
X3246195Y4191221D01*
X3246946Y4195000D01*
D02*
G37*
G36*
X3220000D02*
X3203054D01*
X3203805Y4191221D01*
X3208778Y4183778D01*
X3216221Y4178806D01*
X3220000Y4178054D01*
Y4195000D01*
D02*
G37*
G36*
X3096946D02*
X3080000D01*
Y4178054D01*
X3083779Y4178806D01*
X3091222Y4183778D01*
X3096195Y4191221D01*
X3096946Y4195000D01*
D02*
G37*
G36*
X3070000D02*
X3053054D01*
X3053805Y4191221D01*
X3058778Y4183778D01*
X3066221Y4178806D01*
X3070000Y4178054D01*
Y4195000D01*
D02*
G37*
G36*
X2946946D02*
X2930000D01*
Y4178054D01*
X2933779Y4178805D01*
X2933779Y4178806D01*
X2941222Y4183778D01*
X2941222Y4183779D01*
X2946194Y4191221D01*
X2946195Y4191221D01*
X2946809Y4194308D01*
X2946946Y4195000D01*
D02*
G37*
G36*
X3996946D02*
X3980000D01*
Y4178054D01*
X3983779Y4178806D01*
X3991222Y4183778D01*
Y4183779D01*
X3996194Y4191221D01*
X3996195Y4191221D01*
X3996809Y4194308D01*
X3996946Y4195000D01*
D02*
G37*
G36*
X3826532Y4188175D02*
X3804800D01*
Y4157585D01*
X3826532D01*
Y4188175D01*
D02*
G37*
G36*
X2700000Y4159762D02*
Y4142816D01*
X2716946D01*
X2716195Y4146595D01*
X2711222Y4154037D01*
X2703779Y4159010D01*
X2700000Y4159762D01*
D02*
G37*
G36*
X2690000D02*
X2686221Y4159010D01*
X2678778Y4154037D01*
X2673805Y4146595D01*
X2673054Y4142816D01*
X2690000D01*
Y4159762D01*
D02*
G37*
G36*
X2716946Y4132816D02*
X2700000D01*
Y4115869D01*
X2703779Y4116621D01*
X2711222Y4121594D01*
X2716195Y4129037D01*
X2716946Y4132816D01*
D02*
G37*
G36*
X2690000D02*
X2673054D01*
X2673805Y4129037D01*
X2678778Y4121594D01*
X2686221Y4116621D01*
X2690000Y4115869D01*
Y4132816D01*
D02*
G37*
G36*
X4205000Y4071946D02*
Y4055000D01*
X4221946D01*
X4221194Y4058779D01*
X4216222Y4066222D01*
X4208779Y4071195D01*
X4205000Y4071946D01*
D02*
G37*
G36*
X4195000D02*
X4191221Y4071195D01*
X4183778Y4066222D01*
X4178806Y4058779D01*
X4178054Y4055000D01*
X4195000D01*
Y4071946D01*
D02*
G37*
G36*
X4055000D02*
Y4055000D01*
X4071946D01*
X4071195Y4058779D01*
X4066222Y4066222D01*
X4058779Y4071195D01*
X4055000Y4071946D01*
D02*
G37*
G36*
X4045000D02*
X4041221Y4071195D01*
X4033778Y4066222D01*
X4028805Y4058779D01*
X4028054Y4055000D01*
X4045000D01*
Y4071946D01*
D02*
G37*
G36*
X3755000D02*
Y4055000D01*
X3771946D01*
X3771195Y4058779D01*
X3766222Y4066222D01*
X3758779Y4071195D01*
X3755000Y4071946D01*
D02*
G37*
G36*
X3745000D02*
X3741221Y4071195D01*
X3733778Y4066222D01*
X3728805Y4058779D01*
X3728054Y4055000D01*
X3745000D01*
Y4071946D01*
D02*
G37*
G36*
X3155000D02*
Y4055000D01*
X3171946D01*
X3171195Y4058779D01*
X3166222Y4066222D01*
X3158779Y4071195D01*
X3155000Y4071946D01*
D02*
G37*
G36*
X3145000D02*
X3141221Y4071195D01*
X3133778Y4066222D01*
X3128805Y4058779D01*
X3128054Y4055000D01*
X3145000D01*
Y4071946D01*
D02*
G37*
G36*
X2395000D02*
X2391221Y4071195D01*
X2391221D01*
X2383778Y4066222D01*
X2378805Y4058779D01*
Y4058779D01*
X2378054Y4055000D01*
X2395000D01*
Y4071946D01*
D02*
G37*
G36*
X4221946Y4045000D02*
X4205000D01*
Y4028054D01*
X4208779Y4028805D01*
X4216222Y4033778D01*
X4221194Y4041221D01*
X4221946Y4045000D01*
D02*
G37*
G36*
X4195000D02*
X4178054D01*
X4178806Y4041221D01*
X4183778Y4033778D01*
X4191221Y4028805D01*
X4195000Y4028054D01*
Y4045000D01*
D02*
G37*
G36*
X4071946D02*
X4055000D01*
Y4028054D01*
X4058779Y4028805D01*
X4066222Y4033778D01*
X4071195Y4041221D01*
X4071946Y4045000D01*
D02*
G37*
G36*
X4045000D02*
X4028054D01*
X4028805Y4041221D01*
X4033778Y4033778D01*
X4041221Y4028805D01*
X4045000Y4028054D01*
Y4045000D01*
D02*
G37*
G36*
X3771946D02*
X3755000D01*
Y4028054D01*
X3758779Y4028805D01*
X3766222Y4033778D01*
X3771195Y4041221D01*
X3771946Y4045000D01*
D02*
G37*
G36*
X3745000D02*
X3728054D01*
X3728805Y4041221D01*
X3733778Y4033778D01*
X3741221Y4028805D01*
X3745000Y4028054D01*
Y4045000D01*
D02*
G37*
G36*
X3171946D02*
X3155000D01*
Y4028054D01*
X3158779Y4028805D01*
X3166222Y4033778D01*
X3171195Y4041221D01*
X3171946Y4045000D01*
D02*
G37*
G36*
X3145000D02*
X3128054D01*
X3128805Y4041221D01*
X3133778Y4033778D01*
X3141221Y4028805D01*
X3145000Y4028054D01*
Y4045000D01*
D02*
G37*
G36*
X4280000Y3921946D02*
Y3905000D01*
X4296946D01*
X4296194Y3908779D01*
X4291222Y3916222D01*
X4283779Y3921195D01*
X4280000Y3921946D01*
D02*
G37*
G36*
X4270000D02*
X4266221Y3921195D01*
X4258778Y3916222D01*
X4253806Y3908779D01*
X4253054Y3905000D01*
X4270000D01*
Y3921946D01*
D02*
G37*
G36*
X4130000D02*
Y3905000D01*
X4146946D01*
X4146194Y3908779D01*
X4141222Y3916222D01*
X4133779Y3921195D01*
X4130000Y3921946D01*
D02*
G37*
G36*
X4120000D02*
X4116221Y3921195D01*
X4108778Y3916222D01*
X4103806Y3908779D01*
X4103054Y3905000D01*
X4120000D01*
Y3921946D01*
D02*
G37*
G36*
X3830000D02*
Y3905000D01*
X3846946D01*
X3846195Y3908779D01*
X3841222Y3916222D01*
X3833779Y3921195D01*
X3830000Y3921946D01*
D02*
G37*
G36*
X3820000D02*
X3816221Y3921195D01*
X3808778Y3916222D01*
X3803805Y3908779D01*
X3803054Y3905000D01*
X3820000D01*
Y3921946D01*
D02*
G37*
G36*
X3680000D02*
Y3905000D01*
X3696946D01*
X3696195Y3908779D01*
X3691222Y3916222D01*
X3683779Y3921195D01*
X3680000Y3921946D01*
D02*
G37*
G36*
X3670000D02*
X3666221Y3921195D01*
X3658778Y3916222D01*
X3653805Y3908779D01*
X3653054Y3905000D01*
X3670000D01*
Y3921946D01*
D02*
G37*
G36*
X3530000D02*
Y3905000D01*
X3546946D01*
X3546195Y3908779D01*
X3541222Y3916222D01*
X3533779Y3921195D01*
X3530000Y3921946D01*
D02*
G37*
G36*
X3520000D02*
X3516221Y3921195D01*
X3508778Y3916222D01*
X3503805Y3908779D01*
X3503054Y3905000D01*
X3520000D01*
Y3921946D01*
D02*
G37*
G36*
X3080000D02*
Y3905000D01*
X3096946D01*
X3096195Y3908779D01*
X3091222Y3916222D01*
X3083779Y3921195D01*
X3080000Y3921946D01*
D02*
G37*
G36*
X3070000D02*
X3066221Y3921195D01*
X3058778Y3916222D01*
X3053805Y3908779D01*
X3053054Y3905000D01*
X3070000D01*
Y3921946D01*
D02*
G37*
G36*
X2780000D02*
Y3905000D01*
X2796946D01*
X2796195Y3908779D01*
X2791222Y3916222D01*
X2783779Y3921195D01*
X2780000Y3921946D01*
D02*
G37*
G36*
X2770000D02*
X2766221Y3921195D01*
X2758778Y3916222D01*
X2753805Y3908779D01*
X2753054Y3905000D01*
X2770000D01*
Y3921946D01*
D02*
G37*
G36*
X2630000D02*
Y3905000D01*
X2646946D01*
X2646195Y3908779D01*
X2641222Y3916222D01*
X2633779Y3921195D01*
X2630000Y3921946D01*
D02*
G37*
G36*
X2620000D02*
X2616221Y3921195D01*
X2608778Y3916222D01*
X2603805Y3908779D01*
X2603054Y3905000D01*
X2620000D01*
Y3921946D01*
D02*
G37*
G36*
X2480000D02*
Y3905000D01*
X2496946D01*
X2496195Y3908779D01*
X2491222Y3916222D01*
X2483779Y3921195D01*
X2480000Y3921946D01*
D02*
G37*
G36*
X2470000D02*
X2466221Y3921195D01*
X2458778Y3916222D01*
X2453805Y3908779D01*
X2453054Y3905000D01*
X2470000D01*
Y3921946D01*
D02*
G37*
G36*
X4296946Y3895000D02*
X4280000D01*
Y3878054D01*
X4283779Y3878805D01*
X4291222Y3883778D01*
X4296194Y3891221D01*
X4296946Y3895000D01*
D02*
G37*
G36*
X4270000D02*
X4253054D01*
X4253806Y3891221D01*
X4258778Y3883778D01*
X4266221Y3878805D01*
X4270000Y3878054D01*
Y3895000D01*
D02*
G37*
G36*
X4146946D02*
X4130000D01*
Y3878054D01*
X4133779Y3878805D01*
X4141222Y3883778D01*
X4146194Y3891221D01*
X4146946Y3895000D01*
D02*
G37*
G36*
X4120000D02*
X4103054D01*
X4103806Y3891221D01*
X4108778Y3883778D01*
X4116221Y3878805D01*
X4120000Y3878054D01*
Y3895000D01*
D02*
G37*
G36*
X3846946D02*
X3830000D01*
Y3878054D01*
X3833779Y3878805D01*
X3841222Y3883778D01*
X3846195Y3891221D01*
X3846946Y3895000D01*
D02*
G37*
G36*
X3820000D02*
X3803054D01*
X3803805Y3891221D01*
X3808778Y3883778D01*
X3816221Y3878805D01*
X3820000Y3878054D01*
Y3895000D01*
D02*
G37*
G36*
X3696946D02*
X3680000D01*
Y3878054D01*
X3683779Y3878805D01*
X3691222Y3883778D01*
X3696195Y3891221D01*
X3696946Y3895000D01*
D02*
G37*
G36*
X3670000D02*
X3653054D01*
X3653805Y3891221D01*
X3658778Y3883778D01*
X3666221Y3878805D01*
X3670000Y3878054D01*
Y3895000D01*
D02*
G37*
G36*
X3546946D02*
X3530000D01*
Y3878054D01*
X3533779Y3878805D01*
X3541222Y3883778D01*
X3546195Y3891221D01*
X3546946Y3895000D01*
D02*
G37*
G36*
X3520000D02*
X3503054D01*
X3503805Y3891221D01*
X3508778Y3883778D01*
X3516221Y3878805D01*
X3520000Y3878054D01*
Y3895000D01*
D02*
G37*
G36*
X3096946D02*
X3080000D01*
Y3878054D01*
X3083779Y3878805D01*
X3091222Y3883778D01*
X3096195Y3891221D01*
X3096946Y3895000D01*
D02*
G37*
G36*
X3070000D02*
X3053054D01*
X3053805Y3891221D01*
X3058778Y3883778D01*
X3066221Y3878805D01*
X3070000Y3878054D01*
Y3895000D01*
D02*
G37*
G36*
X2920000D02*
X2903054D01*
X2903805Y3891221D01*
X2903805Y3891221D01*
X2906292Y3887500D01*
X2908778Y3883778D01*
X2908779D01*
X2916221Y3878805D01*
X2916221Y3878805D01*
X2919308Y3878191D01*
X2920000Y3878054D01*
Y3895000D01*
D02*
G37*
G36*
X2796946D02*
X2780000D01*
Y3878054D01*
X2783779Y3878805D01*
X2791222Y3883778D01*
X2796195Y3891221D01*
X2796946Y3895000D01*
D02*
G37*
G36*
X2770000D02*
X2753054D01*
X2753805Y3891221D01*
X2758778Y3883778D01*
X2766221Y3878805D01*
X2770000Y3878054D01*
Y3895000D01*
D02*
G37*
G36*
X2646946D02*
X2630000D01*
Y3878054D01*
X2633779Y3878805D01*
X2641222Y3883778D01*
X2646195Y3891221D01*
X2646946Y3895000D01*
D02*
G37*
G36*
X2620000D02*
X2603054D01*
X2603805Y3891221D01*
X2608778Y3883778D01*
X2616221Y3878805D01*
X2620000Y3878054D01*
Y3895000D01*
D02*
G37*
G36*
X2496946D02*
X2480000D01*
Y3878054D01*
X2483779Y3878805D01*
X2491222Y3883778D01*
X2496195Y3891221D01*
X2496946Y3895000D01*
D02*
G37*
G36*
X2470000D02*
X2453054D01*
X2453805Y3891221D01*
X2458778Y3883778D01*
X2466221Y3878805D01*
X2470000Y3878054D01*
Y3895000D01*
D02*
G37*
G36*
X4420000D02*
X4403054D01*
X4403806Y3891221D01*
X4408778Y3883778D01*
X4416221Y3878805D01*
X4420000Y3878054D01*
Y3895000D01*
D02*
G37*
G36*
X3745000Y3771946D02*
X3741221Y3771195D01*
X3741221Y3771195D01*
X3733779Y3766222D01*
X3733778Y3766222D01*
X3728805Y3758779D01*
X3728054Y3755000D01*
X3745000D01*
Y3771946D01*
D02*
G37*
G36*
X4355000Y3771946D02*
Y3755000D01*
X4371946D01*
X4371194Y3758779D01*
X4366222Y3766222D01*
X4358779Y3771195D01*
X4355000Y3771946D01*
D02*
G37*
G36*
X4345000D02*
X4341221Y3771195D01*
X4333778Y3766222D01*
X4328806Y3758779D01*
X4328054Y3755000D01*
X4345000D01*
Y3771946D01*
D02*
G37*
G36*
X3605000D02*
Y3755000D01*
X3621946D01*
X3621195Y3758779D01*
X3616222Y3766222D01*
X3608779Y3771195D01*
X3605000Y3771946D01*
D02*
G37*
G36*
X3595000D02*
X3591221Y3771195D01*
X3583778Y3766222D01*
X3578805Y3758779D01*
X3578054Y3755000D01*
X3595000D01*
Y3771946D01*
D02*
G37*
G36*
X3155000D02*
Y3755000D01*
X3171946D01*
X3171195Y3758779D01*
X3166222Y3766222D01*
X3158779Y3771195D01*
X3155000Y3771946D01*
D02*
G37*
G36*
X3145000D02*
X3141221Y3771195D01*
X3133778Y3766222D01*
X3128805Y3758779D01*
X3128054Y3755000D01*
X3145000D01*
Y3771946D01*
D02*
G37*
G36*
X2855000D02*
Y3755000D01*
X2871946D01*
X2871195Y3758779D01*
X2866222Y3766222D01*
X2858779Y3771195D01*
X2855000Y3771946D01*
D02*
G37*
G36*
X2845000D02*
X2841221Y3771195D01*
X2833778Y3766222D01*
X2828805Y3758779D01*
X2828054Y3755000D01*
X2845000D01*
Y3771946D01*
D02*
G37*
G36*
X2705000D02*
Y3755000D01*
X2721946D01*
X2721195Y3758779D01*
X2716222Y3766222D01*
X2708779Y3771195D01*
X2705000Y3771946D01*
D02*
G37*
G36*
X2695000D02*
X2691221Y3771195D01*
X2683778Y3766222D01*
X2678805Y3758779D01*
X2678054Y3755000D01*
X2695000D01*
Y3771946D01*
D02*
G37*
G36*
X2405000D02*
Y3755000D01*
X2421946D01*
X2421195Y3758779D01*
X2416222Y3766222D01*
X2408779Y3771195D01*
X2405000Y3771946D01*
D02*
G37*
G36*
X2395000D02*
X2391221Y3771195D01*
X2383778Y3766222D01*
X2378805Y3758779D01*
X2378054Y3755000D01*
X2395000D01*
Y3771946D01*
D02*
G37*
G36*
X3864997Y3775387D02*
X3849314Y3773843D01*
X3834234Y3769268D01*
X3820336Y3761839D01*
X3819519Y3761169D01*
X3795875Y3745825D01*
X3782793Y3748207D01*
X3772117Y3754145D01*
X3771195Y3758779D01*
X3771194Y3758780D01*
X3766222Y3766222D01*
X3766221D01*
X3758779Y3771195D01*
X3755000Y3771946D01*
Y3750000D01*
Y3728054D01*
X3758779Y3728805D01*
X3760689Y3730081D01*
X3782434Y3719003D01*
X3787326Y3714546D01*
X3786154Y3710683D01*
X3784610Y3695000D01*
X3786154Y3679317D01*
X3790729Y3664237D01*
X3798157Y3650339D01*
X3801317Y3646489D01*
X3808778Y3616222D01*
X3806311Y3612528D01*
X3803805Y3608779D01*
X3803805Y3608779D01*
Y3608778D01*
X3803054Y3605000D01*
X3825000D01*
Y3600000D01*
X3830000D01*
Y3578054D01*
X3833779Y3578805D01*
X3841222Y3583778D01*
X3846194Y3591220D01*
X3846195Y3591221D01*
X3846195Y3591221D01*
X3847941Y3600000D01*
X3874974Y3615596D01*
X3880680Y3616157D01*
X3895760Y3620732D01*
X3909657Y3628161D01*
X3921839Y3638158D01*
X3931836Y3650339D01*
X3939265Y3664237D01*
X3943839Y3679317D01*
X3945384Y3695000D01*
X3943839Y3710683D01*
X3939265Y3725763D01*
X3931836Y3739661D01*
X3921839Y3751842D01*
X3909657Y3761839D01*
X3895760Y3769268D01*
X3880680Y3773843D01*
X3864997Y3775387D01*
D02*
G37*
G36*
X4371946Y3745000D02*
X4355000D01*
Y3728054D01*
X4358779Y3728805D01*
X4366222Y3733778D01*
X4371194Y3741221D01*
X4371946Y3745000D01*
D02*
G37*
G36*
X4345000D02*
X4328054D01*
X4328806Y3741221D01*
X4333778Y3733778D01*
X4341221Y3728805D01*
X4345000Y3728054D01*
Y3745000D01*
D02*
G37*
G36*
X4045000D02*
X4028054D01*
X4028805Y3741221D01*
X4028805Y3741221D01*
X4033778Y3733778D01*
X4041221Y3728805D01*
X4045000Y3728054D01*
Y3745000D01*
D02*
G37*
G36*
X3745000D02*
X3728054D01*
X3728805Y3741221D01*
X3733778Y3733778D01*
X3733779D01*
X3741221Y3728805D01*
X3745000Y3728054D01*
Y3745000D01*
D02*
G37*
G36*
X3621946D02*
X3605000D01*
Y3728054D01*
X3608779Y3728805D01*
X3616222Y3733778D01*
X3621195Y3741221D01*
X3621946Y3745000D01*
D02*
G37*
G36*
X3595000D02*
X3578054D01*
X3578805Y3741221D01*
X3583778Y3733778D01*
X3591221Y3728805D01*
X3595000Y3728054D01*
Y3745000D01*
D02*
G37*
G36*
X3171946D02*
X3155000D01*
Y3728054D01*
X3158779Y3728805D01*
X3166222Y3733778D01*
X3171195Y3741221D01*
X3171946Y3745000D01*
D02*
G37*
G36*
X3145000D02*
X3128054D01*
X3128805Y3741221D01*
X3133778Y3733778D01*
X3141221Y3728805D01*
X3145000Y3728054D01*
Y3745000D01*
D02*
G37*
G36*
X2871946D02*
X2855000D01*
Y3728054D01*
X2858779Y3728805D01*
X2866222Y3733778D01*
X2871195Y3741221D01*
X2871946Y3745000D01*
D02*
G37*
G36*
X2845000D02*
X2828054D01*
X2828805Y3741221D01*
X2833778Y3733778D01*
X2841221Y3728805D01*
X2845000Y3728054D01*
Y3745000D01*
D02*
G37*
G36*
X2721946D02*
X2705000D01*
Y3728054D01*
X2708779Y3728805D01*
X2716222Y3733778D01*
X2721195Y3741221D01*
X2721946Y3745000D01*
D02*
G37*
G36*
X2695000D02*
X2678054D01*
X2678805Y3741221D01*
X2683778Y3733778D01*
X2691221Y3728805D01*
X2695000Y3728054D01*
Y3745000D01*
D02*
G37*
G36*
X2421946D02*
X2405000D01*
Y3728054D01*
X2408779Y3728805D01*
X2416222Y3733778D01*
X2421195Y3741221D01*
X2421946Y3745000D01*
D02*
G37*
G36*
X2395000D02*
X2378054D01*
X2378805Y3741221D01*
X2383778Y3733778D01*
X2391221Y3728805D01*
X2395000Y3728054D01*
Y3745000D01*
D02*
G37*
G36*
X4420000Y3621946D02*
X4416221Y3621195D01*
X4416221Y3621194D01*
X4408778Y3616222D01*
Y3616221D01*
X4403806Y3608779D01*
X4403054Y3605000D01*
X4420000D01*
Y3621946D01*
D02*
G37*
G36*
X4130000Y3621946D02*
Y3605000D01*
X4146946D01*
X4146194Y3608779D01*
X4141222Y3616222D01*
X4133779Y3621195D01*
X4130000Y3621946D01*
D02*
G37*
G36*
X4120000D02*
X4116221Y3621195D01*
X4108778Y3616222D01*
X4103806Y3608779D01*
X4103054Y3605000D01*
X4120000D01*
Y3621946D01*
D02*
G37*
G36*
X3980000D02*
Y3605000D01*
X3996946D01*
X3996195Y3608779D01*
X3991222Y3616222D01*
X3983779Y3621195D01*
X3980000Y3621946D01*
D02*
G37*
G36*
X3970000D02*
X3966221Y3621195D01*
X3958778Y3616222D01*
X3953805Y3608779D01*
X3953054Y3605000D01*
X3970000D01*
Y3621946D01*
D02*
G37*
G36*
X3680000D02*
Y3605000D01*
X3696946D01*
X3696195Y3608779D01*
X3691222Y3616222D01*
X3683779Y3621195D01*
X3680000Y3621946D01*
D02*
G37*
G36*
X3670000D02*
X3666221Y3621195D01*
X3658778Y3616222D01*
X3653805Y3608779D01*
X3653054Y3605000D01*
X3670000D01*
Y3621946D01*
D02*
G37*
G36*
X3530000D02*
Y3605000D01*
X3546946D01*
X3546195Y3608779D01*
X3541222Y3616222D01*
X3533779Y3621195D01*
X3530000Y3621946D01*
D02*
G37*
G36*
X3520000D02*
X3516221Y3621195D01*
X3508778Y3616222D01*
X3503805Y3608779D01*
X3503054Y3605000D01*
X3520000D01*
Y3621946D01*
D02*
G37*
G36*
X3380000D02*
Y3605000D01*
X3396946D01*
X3396195Y3608779D01*
X3391222Y3616222D01*
X3383779Y3621195D01*
X3380000Y3621946D01*
D02*
G37*
G36*
X3370000D02*
X3366221Y3621195D01*
X3358778Y3616222D01*
X3353805Y3608779D01*
X3353054Y3605000D01*
X3370000D01*
Y3621946D01*
D02*
G37*
G36*
X3230000D02*
Y3605000D01*
X3246946D01*
X3246195Y3608779D01*
X3241222Y3616222D01*
X3233779Y3621195D01*
X3230000Y3621946D01*
D02*
G37*
G36*
X3220000D02*
X3216221Y3621195D01*
X3208778Y3616222D01*
X3203805Y3608779D01*
X3203054Y3605000D01*
X3220000D01*
Y3621946D01*
D02*
G37*
G36*
X3080000D02*
Y3605000D01*
X3096946D01*
X3096195Y3608779D01*
X3091222Y3616222D01*
X3083779Y3621195D01*
X3080000Y3621946D01*
D02*
G37*
G36*
X3070000D02*
X3066221Y3621195D01*
X3058778Y3616222D01*
X3053805Y3608779D01*
X3053054Y3605000D01*
X3070000D01*
Y3621946D01*
D02*
G37*
G36*
X2920000D02*
X2916221Y3621195D01*
X2908778Y3616222D01*
X2903805Y3608779D01*
X2903054Y3605000D01*
X2920000D01*
Y3621946D01*
D02*
G37*
G36*
X2780000D02*
Y3605000D01*
X2796946D01*
X2796195Y3608779D01*
X2791222Y3616222D01*
X2783779Y3621195D01*
X2780000Y3621946D01*
D02*
G37*
G36*
X2770000D02*
X2766221Y3621195D01*
X2758778Y3616222D01*
X2753805Y3608779D01*
X2753054Y3605000D01*
X2770000D01*
Y3621946D01*
D02*
G37*
G36*
X2630000D02*
Y3605000D01*
X2646946D01*
X2646195Y3608779D01*
X2641222Y3616222D01*
X2633779Y3621195D01*
X2630000Y3621946D01*
D02*
G37*
G36*
X2620000D02*
X2616221Y3621195D01*
X2608778Y3616222D01*
X2603805Y3608779D01*
X2603054Y3605000D01*
X2620000D01*
Y3621946D01*
D02*
G37*
G36*
X2480000D02*
Y3605000D01*
X2496946D01*
X2496195Y3608779D01*
X2491222Y3616222D01*
X2483779Y3621195D01*
X2480000Y3621946D01*
D02*
G37*
G36*
X2470000D02*
X2466221Y3621195D01*
X2458778Y3616222D01*
X2453805Y3608779D01*
X2453054Y3605000D01*
X2470000D01*
Y3621946D01*
D02*
G37*
G36*
X4146946Y3595000D02*
X4130000D01*
Y3578054D01*
X4133779Y3578805D01*
X4141222Y3583778D01*
X4146194Y3591221D01*
X4146946Y3595000D01*
D02*
G37*
G36*
X4120000D02*
X4103054D01*
X4103806Y3591221D01*
X4108778Y3583778D01*
X4116221Y3578805D01*
X4120000Y3578054D01*
Y3595000D01*
D02*
G37*
G36*
X3996946D02*
X3980000D01*
Y3578054D01*
X3983779Y3578805D01*
X3991222Y3583778D01*
X3996195Y3591221D01*
X3996946Y3595000D01*
D02*
G37*
G36*
X3970000D02*
X3953054D01*
X3953805Y3591221D01*
X3958778Y3583778D01*
X3966221Y3578805D01*
X3970000Y3578054D01*
Y3595000D01*
D02*
G37*
G36*
X3696946D02*
X3680000D01*
Y3578054D01*
X3683779Y3578805D01*
X3691222Y3583778D01*
X3696195Y3591221D01*
X3696946Y3595000D01*
D02*
G37*
G36*
X3670000D02*
X3653054D01*
X3653805Y3591221D01*
X3658778Y3583778D01*
X3666221Y3578805D01*
X3670000Y3578054D01*
Y3595000D01*
D02*
G37*
G36*
X3546946D02*
X3530000D01*
Y3578054D01*
X3533779Y3578805D01*
X3541222Y3583778D01*
X3546195Y3591221D01*
X3546946Y3595000D01*
D02*
G37*
G36*
X3520000D02*
X3503054D01*
X3503805Y3591221D01*
X3508778Y3583778D01*
X3516221Y3578805D01*
X3520000Y3578054D01*
Y3595000D01*
D02*
G37*
G36*
X3396946D02*
X3380000D01*
Y3578054D01*
X3383779Y3578805D01*
X3391222Y3583778D01*
X3396195Y3591221D01*
X3396946Y3595000D01*
D02*
G37*
G36*
X3370000D02*
X3353054D01*
X3353805Y3591221D01*
X3358778Y3583778D01*
X3366221Y3578805D01*
X3370000Y3578054D01*
Y3595000D01*
D02*
G37*
G36*
X3246946D02*
X3230000D01*
Y3578054D01*
X3233779Y3578805D01*
X3241222Y3583778D01*
X3246195Y3591221D01*
X3246946Y3595000D01*
D02*
G37*
G36*
X3220000D02*
X3203054D01*
X3203805Y3591221D01*
X3208778Y3583778D01*
X3216221Y3578805D01*
X3220000Y3578054D01*
Y3595000D01*
D02*
G37*
G36*
X3096946D02*
X3080000D01*
Y3578054D01*
X3083779Y3578805D01*
X3091222Y3583778D01*
X3096195Y3591221D01*
X3096946Y3595000D01*
D02*
G37*
G36*
X3070000D02*
X3053054D01*
X3053805Y3591221D01*
X3058778Y3583778D01*
X3066221Y3578805D01*
X3070000Y3578054D01*
Y3595000D01*
D02*
G37*
G36*
X2920000D02*
X2903054D01*
X2903805Y3591221D01*
X2908778Y3583778D01*
X2916221Y3578805D01*
X2920000Y3578054D01*
Y3595000D01*
D02*
G37*
G36*
X2796946D02*
X2780000D01*
Y3578054D01*
X2783779Y3578805D01*
X2791222Y3583778D01*
X2796195Y3591221D01*
X2796946Y3595000D01*
D02*
G37*
G36*
X2770000D02*
X2753054D01*
X2753805Y3591221D01*
X2758778Y3583778D01*
X2766221Y3578805D01*
X2770000Y3578054D01*
Y3595000D01*
D02*
G37*
G36*
X2646946D02*
X2630000D01*
Y3578054D01*
X2633779Y3578805D01*
X2641222Y3583778D01*
X2646195Y3591221D01*
X2646946Y3595000D01*
D02*
G37*
G36*
X2620000D02*
X2603054D01*
X2603805Y3591221D01*
X2608778Y3583778D01*
X2616221Y3578805D01*
X2620000Y3578054D01*
Y3595000D01*
D02*
G37*
G36*
X2496946D02*
X2480000D01*
Y3578054D01*
X2483779Y3578805D01*
X2491222Y3583778D01*
X2496195Y3591221D01*
X2496946Y3595000D01*
D02*
G37*
G36*
X2470000D02*
X2453054D01*
X2453805Y3591221D01*
X2458778Y3583778D01*
X2466221Y3578805D01*
X2470000Y3578054D01*
Y3595000D01*
D02*
G37*
G36*
X4420000D02*
X4403054D01*
X4403806Y3591221D01*
X4403805Y3591221D01*
X4408778Y3583779D01*
X4408778Y3583778D01*
X4416221Y3578806D01*
X4416221Y3578805D01*
X4419308Y3578191D01*
X4420000Y3578054D01*
Y3595000D01*
D02*
G37*
G36*
X3820000D02*
X3803054D01*
X3803805Y3591221D01*
X3808778Y3583779D01*
X3808778Y3583778D01*
X3816221Y3578805D01*
X3820000Y3578054D01*
Y3595000D01*
D02*
G37*
G36*
X3440000Y3506846D02*
X3431278Y3505987D01*
X3418082Y3501985D01*
X3405922Y3495485D01*
X3395263Y3486737D01*
X3386515Y3476078D01*
X3380570Y3464955D01*
X3373144Y3463016D01*
X3363088Y3461697D01*
X3348658Y3463894D01*
X3345130Y3470495D01*
X3337632Y3479632D01*
X3328495Y3487130D01*
X3318072Y3492701D01*
X3306762Y3496132D01*
X3300000Y3496798D01*
Y3437000D01*
Y3377202D01*
X3306762Y3377868D01*
X3318072Y3381299D01*
X3328495Y3386870D01*
X3337632Y3394368D01*
X3345130Y3403505D01*
X3348658Y3410106D01*
X3363088Y3412303D01*
X3373144Y3410984D01*
X3380570Y3409045D01*
X3386515Y3397922D01*
X3395263Y3387263D01*
X3405922Y3378515D01*
X3418082Y3372015D01*
X3431278Y3368013D01*
X3440000Y3367154D01*
Y3437000D01*
Y3506846D01*
D02*
G37*
G36*
X2695000Y3471946D02*
X2691221Y3471195D01*
X2683778Y3466222D01*
X2683778Y3466221D01*
X2679842Y3460331D01*
X2673582Y3459269D01*
X2649843Y3461496D01*
X2639770Y3461496D01*
X2639769Y3461496D01*
X2635000D01*
Y3413189D01*
X2649843D01*
Y3427539D01*
X2656874Y3430705D01*
D01*
X2677619Y3440046D01*
X2679842Y3439669D01*
X2683778Y3433779D01*
X2683778Y3433778D01*
X2691221Y3428805D01*
X2695000Y3428054D01*
Y3450000D01*
Y3471946D01*
D02*
G37*
G36*
X4205000D02*
Y3455000D01*
X4221946D01*
X4221194Y3458779D01*
X4216222Y3466222D01*
X4208779Y3471195D01*
X4205000Y3471946D01*
D02*
G37*
G36*
X4195000D02*
X4191221Y3471195D01*
X4183778Y3466222D01*
X4178806Y3458779D01*
X4178054Y3455000D01*
X4195000D01*
Y3471946D01*
D02*
G37*
G36*
X4055000D02*
Y3455000D01*
X4071946D01*
X4071195Y3458779D01*
X4066222Y3466222D01*
X4058779Y3471195D01*
X4055000Y3471946D01*
D02*
G37*
G36*
X4045000D02*
X4041221Y3471195D01*
X4033778Y3466222D01*
X4028805Y3458779D01*
X4028054Y3455000D01*
X4045000D01*
Y3471946D01*
D02*
G37*
G36*
X3905000D02*
Y3455000D01*
X3921946D01*
X3921195Y3458779D01*
X3916222Y3466222D01*
X3908779Y3471195D01*
X3905000Y3471946D01*
D02*
G37*
G36*
X3895000D02*
X3891221Y3471195D01*
X3883778Y3466222D01*
X3878805Y3458779D01*
X3878054Y3455000D01*
X3895000D01*
Y3471946D01*
D02*
G37*
G36*
X3755000D02*
Y3455000D01*
X3771946D01*
X3771195Y3458779D01*
X3766222Y3466222D01*
X3758779Y3471195D01*
X3755000Y3471946D01*
D02*
G37*
G36*
X3745000D02*
X3741221Y3471195D01*
X3733778Y3466222D01*
X3728805Y3458779D01*
X3728054Y3455000D01*
X3745000D01*
Y3471946D01*
D02*
G37*
G36*
X3605000D02*
Y3455000D01*
X3621946D01*
X3621195Y3458779D01*
X3616222Y3466222D01*
X3608779Y3471195D01*
X3605000Y3471946D01*
D02*
G37*
G36*
X3595000D02*
X3591221Y3471195D01*
X3583778Y3466222D01*
X3578805Y3458779D01*
X3578054Y3455000D01*
X3595000D01*
Y3471946D01*
D02*
G37*
G36*
X2705000D02*
Y3455000D01*
X2721946D01*
X2721195Y3458779D01*
X2716222Y3466222D01*
X2711465Y3469400D01*
X2708779Y3471195D01*
X2708779Y3471195D01*
X2705000Y3471946D01*
D02*
G37*
G36*
X3450000Y3506846D02*
Y3442000D01*
X3514846D01*
X3513987Y3450722D01*
X3509985Y3463918D01*
X3503485Y3476078D01*
X3494737Y3486737D01*
X3484078Y3495485D01*
X3471918Y3501985D01*
X3458722Y3505987D01*
X3450000Y3506846D01*
D02*
G37*
G36*
X3290000Y3496798D02*
X3283238Y3496132D01*
X3271928Y3492701D01*
X3261505Y3487130D01*
X3252368Y3479632D01*
X3244870Y3470495D01*
X3239299Y3460072D01*
X3235868Y3448762D01*
X3235202Y3442000D01*
X3290000D01*
Y3496798D01*
D02*
G37*
G36*
X2721946Y3445000D02*
X2705000D01*
Y3428054D01*
X2708779Y3428805D01*
X2708779Y3428805D01*
X2716222Y3433778D01*
X2721195Y3441221D01*
X2721946Y3445000D01*
D02*
G37*
G36*
X4221946D02*
X4205000D01*
Y3428054D01*
X4208779Y3428805D01*
X4216222Y3433778D01*
X4221194Y3441221D01*
X4221946Y3445000D01*
D02*
G37*
G36*
X4195000D02*
X4178054D01*
X4178806Y3441221D01*
X4183778Y3433778D01*
X4191221Y3428805D01*
X4195000Y3428054D01*
Y3445000D01*
D02*
G37*
G36*
X4071946D02*
X4055000D01*
Y3428054D01*
X4058779Y3428805D01*
X4066222Y3433778D01*
X4071195Y3441221D01*
X4071946Y3445000D01*
D02*
G37*
G36*
X4045000D02*
X4028054D01*
X4028805Y3441221D01*
X4033778Y3433778D01*
X4041221Y3428805D01*
X4045000Y3428054D01*
Y3445000D01*
D02*
G37*
G36*
X3921946D02*
X3905000D01*
Y3428054D01*
X3908779Y3428805D01*
X3916222Y3433778D01*
X3921195Y3441221D01*
X3921946Y3445000D01*
D02*
G37*
G36*
X3895000D02*
X3878054D01*
X3878805Y3441221D01*
X3883778Y3433778D01*
X3891221Y3428805D01*
X3895000Y3428054D01*
Y3445000D01*
D02*
G37*
G36*
X3771946D02*
X3755000D01*
Y3428054D01*
X3758779Y3428805D01*
X3766222Y3433778D01*
X3771195Y3441221D01*
X3771946Y3445000D01*
D02*
G37*
G36*
X3745000D02*
X3728054D01*
X3728805Y3441221D01*
X3733778Y3433778D01*
X3741221Y3428805D01*
X3745000Y3428054D01*
Y3445000D01*
D02*
G37*
G36*
X3621946D02*
X3605000D01*
Y3428054D01*
X3608779Y3428805D01*
X3616222Y3433778D01*
X3621195Y3441221D01*
X3621946Y3445000D01*
D02*
G37*
G36*
X3595000D02*
X3578054D01*
X3578805Y3441221D01*
X3583778Y3433778D01*
X3591221Y3428805D01*
X3595000Y3428054D01*
Y3445000D01*
D02*
G37*
G36*
X2245000D02*
X2228054D01*
X2228805Y3441221D01*
X2233778Y3433778D01*
X2233779D01*
X2241221Y3428805D01*
X2241221Y3428805D01*
X2245000Y3428054D01*
Y3445000D01*
D02*
G37*
G36*
X3145000Y3492475D02*
X3130642Y3490584D01*
X3117263Y3485042D01*
X3105773Y3476227D01*
X3096958Y3464737D01*
X3091416Y3451358D01*
X3089525Y3437000D01*
X3091416Y3422642D01*
X3096958Y3409263D01*
X3105773Y3397773D01*
X3117263Y3388958D01*
X3130642Y3383416D01*
X3145000Y3381525D01*
X3159358Y3383416D01*
X3172737Y3388958D01*
X3184227Y3397773D01*
X3193042Y3409263D01*
X3198584Y3422642D01*
X3200475Y3437000D01*
X3198584Y3451358D01*
X3193042Y3464737D01*
X3184227Y3476227D01*
X3172737Y3485042D01*
X3159358Y3490584D01*
X3145000Y3492475D01*
D02*
G37*
G36*
X3290000Y3432000D02*
X3235202D01*
X3235868Y3425238D01*
X3239299Y3413928D01*
X3244870Y3403505D01*
X3252368Y3394368D01*
X3261505Y3386870D01*
X3271928Y3381299D01*
X3283238Y3377868D01*
X3290000Y3377202D01*
Y3432000D01*
D02*
G37*
G36*
X3514846D02*
X3450000D01*
Y3367154D01*
X3458722Y3368013D01*
X3471918Y3372015D01*
X3484078Y3378515D01*
X3494737Y3387263D01*
X3503485Y3397922D01*
X3509985Y3410082D01*
X3513987Y3423278D01*
X3514846Y3432000D01*
D02*
G37*
G36*
X4230709Y3379865D02*
X4222877Y3378834D01*
X4215579Y3375811D01*
X4209312Y3371003D01*
X4204504Y3364736D01*
X4201481Y3357438D01*
X4200450Y3349606D01*
X4201481Y3341775D01*
X4204504Y3334477D01*
X4209312Y3328210D01*
X4215579Y3323401D01*
X4222877Y3320378D01*
X4230709Y3319347D01*
X4238540Y3320378D01*
X4245838Y3323401D01*
X4252105Y3328210D01*
X4256914Y3334477D01*
X4259937Y3341775D01*
X4260968Y3349606D01*
X4259937Y3357438D01*
X4256914Y3364736D01*
X4252105Y3371003D01*
X4245838Y3375811D01*
X4238540Y3378834D01*
X4230709Y3379865D01*
D02*
G37*
G36*
X3980000Y3321946D02*
Y3305000D01*
X3996946D01*
X3996195Y3308779D01*
X3991222Y3316222D01*
X3983779Y3321195D01*
X3980000Y3321946D01*
D02*
G37*
G36*
X3970000D02*
X3966221Y3321195D01*
X3958778Y3316222D01*
X3953805Y3308779D01*
X3953054Y3305000D01*
X3970000D01*
Y3321946D01*
D02*
G37*
G36*
X3830000D02*
Y3305000D01*
X3846946D01*
X3846195Y3308779D01*
X3841222Y3316222D01*
X3833779Y3321195D01*
X3830000Y3321946D01*
D02*
G37*
G36*
X3820000D02*
X3816221Y3321195D01*
X3808778Y3316222D01*
X3803805Y3308779D01*
X3803054Y3305000D01*
X3820000D01*
Y3321946D01*
D02*
G37*
G36*
X3680000D02*
Y3305000D01*
X3696946D01*
X3696195Y3308779D01*
X3691222Y3316222D01*
X3683779Y3321195D01*
X3680000Y3321946D01*
D02*
G37*
G36*
X3670000D02*
X3666221Y3321195D01*
X3658778Y3316222D01*
X3653805Y3308779D01*
X3653054Y3305000D01*
X3670000D01*
Y3321946D01*
D02*
G37*
G36*
X3530000D02*
Y3305000D01*
X3546946D01*
X3546195Y3308779D01*
X3541222Y3316222D01*
X3533779Y3321195D01*
X3530000Y3321946D01*
D02*
G37*
G36*
X3520000D02*
X3516221Y3321195D01*
X3508778Y3316222D01*
X3503805Y3308779D01*
X3503054Y3305000D01*
X3520000D01*
Y3321946D01*
D02*
G37*
G36*
X3380000D02*
Y3305000D01*
X3396946D01*
X3396195Y3308779D01*
X3391222Y3316222D01*
X3383779Y3321195D01*
X3380000Y3321946D01*
D02*
G37*
G36*
X3370000D02*
X3366221Y3321195D01*
X3358778Y3316222D01*
X3353805Y3308779D01*
X3353054Y3305000D01*
X3370000D01*
Y3321946D01*
D02*
G37*
G36*
X3230000D02*
Y3305000D01*
X3246946D01*
X3246195Y3308779D01*
X3241222Y3316222D01*
X3233779Y3321195D01*
X3230000Y3321946D01*
D02*
G37*
G36*
X3220000D02*
X3216221Y3321195D01*
X3208778Y3316222D01*
X3203805Y3308779D01*
X3203054Y3305000D01*
X3220000D01*
Y3321946D01*
D02*
G37*
G36*
X3080000D02*
Y3305000D01*
X3096946D01*
X3096195Y3308779D01*
X3091222Y3316222D01*
X3083779Y3321195D01*
X3080000Y3321946D01*
D02*
G37*
G36*
X3070000D02*
X3066221Y3321195D01*
X3058778Y3316222D01*
X3053805Y3308779D01*
X3053054Y3305000D01*
X3070000D01*
Y3321946D01*
D02*
G37*
G36*
X2930000D02*
Y3305000D01*
X2946946D01*
X2946195Y3308779D01*
X2941222Y3316222D01*
X2933779Y3321195D01*
X2930000Y3321946D01*
D02*
G37*
G36*
X2920000D02*
X2916221Y3321195D01*
X2908778Y3316222D01*
X2903805Y3308779D01*
X2903054Y3305000D01*
X2920000D01*
Y3321946D01*
D02*
G37*
G36*
X2780000D02*
Y3305000D01*
X2796946D01*
X2796195Y3308779D01*
X2791222Y3316222D01*
X2783779Y3321195D01*
X2780000Y3321946D01*
D02*
G37*
G36*
X2770000D02*
X2766221Y3321195D01*
X2758778Y3316222D01*
X2753805Y3308779D01*
X2753054Y3305000D01*
X2770000D01*
Y3321946D01*
D02*
G37*
G36*
X2180000D02*
Y3305000D01*
X2196946D01*
X2196195Y3308779D01*
X2191222Y3316222D01*
X2183779Y3321195D01*
X2180000Y3321946D01*
D02*
G37*
G36*
X2170000D02*
X2166221Y3321195D01*
X2158778Y3316222D01*
X2153805Y3308779D01*
X2153054Y3305000D01*
X2170000D01*
Y3321946D01*
D02*
G37*
G36*
X3996946Y3295000D02*
X3980000D01*
Y3278054D01*
X3983779Y3278805D01*
X3991222Y3283778D01*
X3996195Y3291221D01*
X3996946Y3295000D01*
D02*
G37*
G36*
X3970000D02*
X3953054D01*
X3953805Y3291221D01*
X3958778Y3283778D01*
X3966221Y3278805D01*
X3970000Y3278054D01*
Y3295000D01*
D02*
G37*
G36*
X3846946D02*
X3830000D01*
Y3278054D01*
X3833779Y3278805D01*
X3841222Y3283778D01*
X3846195Y3291221D01*
X3846946Y3295000D01*
D02*
G37*
G36*
X3820000D02*
X3803054D01*
X3803805Y3291221D01*
X3808778Y3283778D01*
X3816221Y3278805D01*
X3820000Y3278054D01*
Y3295000D01*
D02*
G37*
G36*
X3696946D02*
X3680000D01*
Y3278054D01*
X3683779Y3278805D01*
X3691222Y3283778D01*
X3696195Y3291221D01*
X3696946Y3295000D01*
D02*
G37*
G36*
X3670000D02*
X3653054D01*
X3653805Y3291221D01*
X3658778Y3283778D01*
X3666221Y3278805D01*
X3670000Y3278054D01*
Y3295000D01*
D02*
G37*
G36*
X3546946D02*
X3530000D01*
Y3278054D01*
X3533779Y3278805D01*
X3541222Y3283778D01*
X3546195Y3291221D01*
X3546946Y3295000D01*
D02*
G37*
G36*
X3520000D02*
X3503054D01*
X3503805Y3291221D01*
X3508778Y3283778D01*
X3516221Y3278805D01*
X3520000Y3278054D01*
Y3295000D01*
D02*
G37*
G36*
X3396946D02*
X3380000D01*
Y3278054D01*
X3383779Y3278805D01*
X3391222Y3283778D01*
X3396195Y3291221D01*
X3396946Y3295000D01*
D02*
G37*
G36*
X3370000D02*
X3353054D01*
X3353805Y3291221D01*
X3358778Y3283778D01*
X3366221Y3278805D01*
X3370000Y3278054D01*
Y3295000D01*
D02*
G37*
G36*
X3246946D02*
X3230000D01*
Y3278054D01*
X3233779Y3278805D01*
X3241222Y3283778D01*
X3246195Y3291221D01*
X3246946Y3295000D01*
D02*
G37*
G36*
X3220000D02*
X3203054D01*
X3203805Y3291221D01*
X3208778Y3283778D01*
X3216221Y3278805D01*
X3220000Y3278054D01*
Y3295000D01*
D02*
G37*
G36*
X3096946D02*
X3080000D01*
Y3278054D01*
X3083779Y3278805D01*
X3091222Y3283778D01*
X3096195Y3291221D01*
X3096946Y3295000D01*
D02*
G37*
G36*
X3070000D02*
X3053054D01*
X3053805Y3291221D01*
X3058778Y3283778D01*
X3066221Y3278805D01*
X3070000Y3278054D01*
Y3295000D01*
D02*
G37*
G36*
X2946946D02*
X2930000D01*
Y3278054D01*
X2933779Y3278805D01*
X2941222Y3283778D01*
X2946195Y3291221D01*
X2946946Y3295000D01*
D02*
G37*
G36*
X2920000D02*
X2903054D01*
X2903805Y3291221D01*
X2908778Y3283778D01*
X2916221Y3278805D01*
X2920000Y3278054D01*
Y3295000D01*
D02*
G37*
G36*
X2796946D02*
X2780000D01*
Y3278054D01*
X2783779Y3278805D01*
X2791222Y3283778D01*
X2796195Y3291221D01*
X2796946Y3295000D01*
D02*
G37*
G36*
X2770000D02*
X2753054D01*
X2753805Y3291221D01*
X2758778Y3283778D01*
X2766221Y3278805D01*
X2770000Y3278054D01*
Y3295000D01*
D02*
G37*
G36*
X2196946D02*
X2180000D01*
Y3278054D01*
X2183779Y3278805D01*
X2191222Y3283778D01*
X2196195Y3291221D01*
X2196946Y3295000D01*
D02*
G37*
G36*
X2170000D02*
X2153054D01*
X2153805Y3291221D01*
X2158778Y3283778D01*
X2166221Y3278805D01*
X2170000Y3278054D01*
Y3295000D01*
D02*
G37*
G36*
X4330709Y3279865D02*
X4322877Y3278834D01*
X4315579Y3275811D01*
X4309312Y3271003D01*
X4304504Y3264736D01*
X4301481Y3257438D01*
X4300450Y3249606D01*
X4301481Y3241775D01*
X4304504Y3234477D01*
X4309312Y3228210D01*
X4315579Y3223401D01*
X4322877Y3220378D01*
X4330709Y3219347D01*
X4338540Y3220378D01*
X4345838Y3223401D01*
X4352105Y3228210D01*
X4356914Y3234477D01*
X4359937Y3241775D01*
X4360968Y3249606D01*
X4359937Y3257438D01*
X4356914Y3264736D01*
X4352105Y3271003D01*
X4345838Y3275811D01*
X4338540Y3278834D01*
X4330709Y3279865D01*
D02*
G37*
G36*
X3605000Y3171946D02*
Y3155000D01*
X3621946D01*
X3621195Y3158779D01*
X3616222Y3166222D01*
X3608779Y3171195D01*
X3605000Y3171946D01*
D02*
G37*
G36*
X3595000D02*
X3591221Y3171195D01*
X3583778Y3166222D01*
X3578805Y3158779D01*
X3578054Y3155000D01*
X3595000D01*
Y3171946D01*
D02*
G37*
G36*
X3455000D02*
Y3155000D01*
X3471946D01*
X3471195Y3158779D01*
X3466222Y3166222D01*
X3458779Y3171195D01*
X3455000Y3171946D01*
D02*
G37*
G36*
X3445000D02*
X3441221Y3171195D01*
X3433778Y3166222D01*
X3428805Y3158779D01*
X3428054Y3155000D01*
X3445000D01*
Y3171946D01*
D02*
G37*
G36*
X3305000D02*
Y3155000D01*
X3321946D01*
X3321195Y3158779D01*
X3316222Y3166222D01*
X3308779Y3171195D01*
X3305000Y3171946D01*
D02*
G37*
G36*
X3295000D02*
X3291221Y3171195D01*
X3283778Y3166222D01*
X3278805Y3158779D01*
X3278054Y3155000D01*
X3295000D01*
Y3171946D01*
D02*
G37*
G36*
X3155000D02*
Y3155000D01*
X3171946D01*
X3171195Y3158779D01*
X3166222Y3166222D01*
X3158779Y3171195D01*
X3155000Y3171946D01*
D02*
G37*
G36*
X3145000D02*
X3141221Y3171195D01*
X3133778Y3166222D01*
X3128805Y3158779D01*
X3128054Y3155000D01*
X3145000D01*
Y3171946D01*
D02*
G37*
G36*
X3005000D02*
Y3155000D01*
X3021946D01*
X3021195Y3158779D01*
X3016222Y3166222D01*
X3008779Y3171195D01*
X3005000Y3171946D01*
D02*
G37*
G36*
X2995000D02*
X2991221Y3171195D01*
X2983778Y3166222D01*
X2978805Y3158779D01*
X2978054Y3155000D01*
X2995000D01*
Y3171946D01*
D02*
G37*
G36*
X2855000D02*
Y3155000D01*
X2871946D01*
X2871195Y3158779D01*
X2866222Y3166222D01*
X2858779Y3171195D01*
X2855000Y3171946D01*
D02*
G37*
G36*
X2845000D02*
X2841221Y3171195D01*
X2833778Y3166222D01*
X2828805Y3158779D01*
X2828054Y3155000D01*
X2845000D01*
Y3171946D01*
D02*
G37*
G36*
X2705000D02*
Y3155000D01*
X2721946D01*
X2721195Y3158779D01*
X2716222Y3166222D01*
X2708779Y3171195D01*
X2705000Y3171946D01*
D02*
G37*
G36*
X2695000D02*
X2691221Y3171195D01*
X2683778Y3166222D01*
X2678805Y3158779D01*
X2678054Y3155000D01*
X2695000D01*
Y3171946D01*
D02*
G37*
G36*
X2405000D02*
Y3155000D01*
X2421946D01*
X2421195Y3158779D01*
X2416222Y3166222D01*
X2408779Y3171195D01*
X2405000Y3171946D01*
D02*
G37*
G36*
X2395000D02*
X2391221Y3171195D01*
X2383778Y3166222D01*
X2378805Y3158779D01*
X2378054Y3155000D01*
X2395000D01*
Y3171946D01*
D02*
G37*
G36*
X3921946Y3145000D02*
X3905000D01*
Y3128054D01*
X3908779Y3128805D01*
X3916222Y3133778D01*
X3921195Y3141221D01*
X3921946Y3145000D01*
D02*
G37*
G36*
X3621946D02*
X3605000D01*
Y3128054D01*
X3608779Y3128805D01*
X3616222Y3133778D01*
X3621195Y3141221D01*
X3621946Y3145000D01*
D02*
G37*
G36*
X3595000D02*
X3578054D01*
X3578805Y3141221D01*
X3583778Y3133778D01*
X3591221Y3128805D01*
X3595000Y3128054D01*
Y3145000D01*
D02*
G37*
G36*
X3471946D02*
X3455000D01*
Y3128054D01*
X3458779Y3128805D01*
X3466222Y3133778D01*
X3471195Y3141221D01*
X3471946Y3145000D01*
D02*
G37*
G36*
X3445000D02*
X3428054D01*
X3428805Y3141221D01*
X3433778Y3133778D01*
X3441221Y3128805D01*
X3445000Y3128054D01*
Y3145000D01*
D02*
G37*
G36*
X3321946D02*
X3305000D01*
Y3128054D01*
X3308779Y3128805D01*
X3316222Y3133778D01*
X3321195Y3141221D01*
X3321946Y3145000D01*
D02*
G37*
G36*
X3295000D02*
X3278054D01*
X3278805Y3141221D01*
X3283778Y3133778D01*
X3291221Y3128805D01*
X3295000Y3128054D01*
Y3145000D01*
D02*
G37*
G36*
X3171946D02*
X3155000D01*
Y3128054D01*
X3158779Y3128805D01*
X3166222Y3133778D01*
X3171195Y3141221D01*
X3171946Y3145000D01*
D02*
G37*
G36*
X3145000D02*
X3128054D01*
X3128805Y3141221D01*
X3133778Y3133778D01*
X3141221Y3128805D01*
X3145000Y3128054D01*
Y3145000D01*
D02*
G37*
G36*
X3021946D02*
X3005000D01*
Y3128054D01*
X3008779Y3128805D01*
X3016222Y3133778D01*
X3021195Y3141221D01*
X3021946Y3145000D01*
D02*
G37*
G36*
X2995000D02*
X2978054D01*
X2978805Y3141221D01*
X2983778Y3133778D01*
X2991221Y3128805D01*
X2995000Y3128054D01*
Y3145000D01*
D02*
G37*
G36*
X2871946D02*
X2855000D01*
Y3128054D01*
X2858779Y3128805D01*
X2866222Y3133778D01*
X2871195Y3141221D01*
X2871946Y3145000D01*
D02*
G37*
G36*
X2845000D02*
X2828054D01*
X2828805Y3141221D01*
X2833778Y3133778D01*
X2841221Y3128805D01*
X2845000Y3128054D01*
Y3145000D01*
D02*
G37*
G36*
X2721946D02*
X2705000D01*
Y3128054D01*
X2708779Y3128805D01*
X2716222Y3133778D01*
X2721195Y3141221D01*
X2721946Y3145000D01*
D02*
G37*
G36*
X2695000D02*
X2678054D01*
X2678805Y3141221D01*
X2683778Y3133778D01*
X2691221Y3128805D01*
X2695000Y3128054D01*
Y3145000D01*
D02*
G37*
G36*
X2421946D02*
X2405000D01*
Y3128054D01*
X2408779Y3128805D01*
X2416222Y3133778D01*
X2421195Y3141221D01*
X2421946Y3145000D01*
D02*
G37*
G36*
X2395000D02*
X2378054D01*
X2378805Y3141221D01*
X2383778Y3133778D01*
X2391221Y3128805D01*
X2395000Y3128054D01*
Y3145000D01*
D02*
G37*
G36*
X2121946D02*
X2105000D01*
Y3128054D01*
X2108779Y3128805D01*
X2108779Y3128806D01*
X2116222Y3133778D01*
X2121195Y3141221D01*
X2121946Y3145000D01*
D02*
G37*
G36*
X4230709Y3079865D02*
X4222877Y3078834D01*
X4215579Y3075811D01*
X4209312Y3071003D01*
X4204504Y3064736D01*
X4201481Y3057438D01*
X4200450Y3049606D01*
X4201481Y3041775D01*
X4204504Y3034477D01*
X4209312Y3028210D01*
X4215579Y3023401D01*
X4222877Y3020378D01*
X4230709Y3019347D01*
X4238540Y3020378D01*
X4245838Y3023401D01*
X4252105Y3028210D01*
X4256914Y3034477D01*
X4259937Y3041775D01*
X4260968Y3049606D01*
X4259937Y3057438D01*
X4256914Y3064736D01*
X4252105Y3071003D01*
X4245838Y3075811D01*
X4238540Y3078834D01*
X4230709Y3079865D01*
D02*
G37*
G36*
X4420000Y3021946D02*
X4416221Y3021195D01*
X4408778Y3016222D01*
X4403806Y3008779D01*
X4403054Y3005000D01*
X4420000D01*
Y3021946D01*
D02*
G37*
G36*
X4130000D02*
Y3005000D01*
X4146946D01*
X4146194Y3008779D01*
X4141222Y3016222D01*
X4133779Y3021195D01*
X4130000Y3021946D01*
D02*
G37*
G36*
X4120000D02*
X4116221Y3021195D01*
X4108778Y3016222D01*
X4103806Y3008779D01*
X4103054Y3005000D01*
X4120000D01*
Y3021946D01*
D02*
G37*
G36*
X3980000D02*
Y3005000D01*
X3996946D01*
X3996195Y3008779D01*
X3991222Y3016222D01*
X3983779Y3021195D01*
X3980000Y3021946D01*
D02*
G37*
G36*
X3970000D02*
X3966221Y3021195D01*
X3958778Y3016222D01*
X3953805Y3008779D01*
X3953054Y3005000D01*
X3970000D01*
Y3021946D01*
D02*
G37*
G36*
X3530000D02*
Y3005000D01*
X3546946D01*
X3546195Y3008779D01*
X3541222Y3016222D01*
X3533779Y3021195D01*
X3530000Y3021946D01*
D02*
G37*
G36*
X3520000D02*
X3516221Y3021195D01*
X3508778Y3016222D01*
X3503805Y3008779D01*
X3503054Y3005000D01*
X3520000D01*
Y3021946D01*
D02*
G37*
G36*
X3380000D02*
Y3005000D01*
X3396946D01*
X3396195Y3008779D01*
X3391222Y3016222D01*
X3383779Y3021195D01*
X3380000Y3021946D01*
D02*
G37*
G36*
X3370000D02*
X3366221Y3021195D01*
X3358778Y3016222D01*
X3353805Y3008779D01*
X3353054Y3005000D01*
X3370000D01*
Y3021946D01*
D02*
G37*
G36*
X3230000D02*
Y3005000D01*
X3246946D01*
X3246195Y3008779D01*
X3241222Y3016222D01*
X3233779Y3021195D01*
X3230000Y3021946D01*
D02*
G37*
G36*
X3220000D02*
X3216221Y3021195D01*
X3208778Y3016222D01*
X3203805Y3008779D01*
X3203054Y3005000D01*
X3220000D01*
Y3021946D01*
D02*
G37*
G36*
X2930000D02*
Y3005000D01*
X2946946D01*
X2946195Y3008779D01*
X2941222Y3016222D01*
X2933779Y3021195D01*
X2930000Y3021946D01*
D02*
G37*
G36*
X2920000D02*
X2916221Y3021195D01*
X2908778Y3016222D01*
X2903805Y3008779D01*
X2903054Y3005000D01*
X2920000D01*
Y3021946D01*
D02*
G37*
G36*
X2630000Y3021946D02*
Y3005000D01*
X2646946D01*
X2646195Y3008779D01*
X2641222Y3016222D01*
X2633779Y3021194D01*
X2633779Y3021195D01*
X2630000Y3021946D01*
D02*
G37*
G36*
X2620000Y3021946D02*
X2616221Y3021195D01*
X2608779Y3016222D01*
X2608778D01*
X2603805Y3008779D01*
X2603054Y3005000D01*
X2620000D01*
Y3021946D01*
D02*
G37*
G36*
X3246946Y2995000D02*
X3230000D01*
Y2978054D01*
X3233779Y2978805D01*
X3241222Y2983778D01*
X3246195Y2991221D01*
X3246946Y2995000D01*
D02*
G37*
G36*
X3220000D02*
X3203054D01*
X3203805Y2991221D01*
X3208778Y2983778D01*
X3216221Y2978805D01*
X3220000Y2978054D01*
Y2995000D01*
D02*
G37*
G36*
X2946946D02*
X2930000D01*
Y2978054D01*
X2933779Y2978805D01*
X2941222Y2983778D01*
X2946195Y2991221D01*
X2946946Y2995000D01*
D02*
G37*
G36*
X2920000D02*
X2903054D01*
X2903805Y2991221D01*
X2908778Y2983778D01*
X2916221Y2978805D01*
X2920000Y2978054D01*
Y2995000D01*
D02*
G37*
G36*
X2046946D02*
X2030000D01*
Y2978054D01*
X2033779Y2978805D01*
X2041222Y2983778D01*
X2046195Y2991221D01*
X2046946Y2995000D01*
D02*
G37*
G36*
X4146946D02*
X4130000D01*
Y2978054D01*
X4133779Y2978805D01*
X4141222Y2983778D01*
X4146194Y2991221D01*
X4146946Y2995000D01*
D02*
G37*
G36*
X4120000D02*
X4103054D01*
X4103806Y2991221D01*
X4108778Y2983778D01*
X4116221Y2978805D01*
X4120000Y2978054D01*
Y2995000D01*
D02*
G37*
G36*
X3996946D02*
X3980000D01*
Y2978054D01*
X3983779Y2978805D01*
X3991222Y2983778D01*
X3996195Y2991221D01*
X3996946Y2995000D01*
D02*
G37*
G36*
X3970000D02*
X3953054D01*
X3953805Y2991221D01*
X3958778Y2983778D01*
X3966221Y2978805D01*
X3970000Y2978054D01*
Y2995000D01*
D02*
G37*
G36*
X3546946D02*
X3530000D01*
Y2978054D01*
X3533779Y2978805D01*
X3541222Y2983778D01*
X3546195Y2991221D01*
X3546946Y2995000D01*
D02*
G37*
G36*
X3520000D02*
X3503054D01*
X3503805Y2991221D01*
X3508778Y2983778D01*
X3516221Y2978805D01*
X3520000Y2978054D01*
Y2995000D01*
D02*
G37*
G36*
X3396946D02*
X3380000D01*
Y2978054D01*
X3383779Y2978805D01*
X3391222Y2983778D01*
X3396195Y2991221D01*
X3396946Y2995000D01*
D02*
G37*
G36*
X3370000D02*
X3353054D01*
X3353805Y2991221D01*
X3358778Y2983778D01*
X3366221Y2978805D01*
X3370000Y2978054D01*
Y2995000D01*
D02*
G37*
G36*
X4420000D02*
X4403054D01*
X4403806Y2991221D01*
X4408778Y2983778D01*
X4416221Y2978805D01*
X4420000Y2978054D01*
Y2995000D01*
D02*
G37*
G36*
X4205000Y2871946D02*
Y2855000D01*
X4221946D01*
X4221194Y2858779D01*
X4217971Y2863604D01*
X4216222Y2866222D01*
X4216221D01*
X4208779Y2871194D01*
X4208779Y2871195D01*
X4205000Y2871946D01*
D02*
G37*
G36*
X4195000D02*
X4191221Y2871195D01*
X4191221Y2871194D01*
X4183779Y2866222D01*
X4183778D01*
X4178806Y2858779D01*
X4178054Y2855000D01*
X4195000D01*
Y2871946D01*
D02*
G37*
G36*
X4055000D02*
Y2855000D01*
X4071946D01*
X4071195Y2858779D01*
X4067970Y2863604D01*
X4066222Y2866222D01*
X4066221D01*
X4058779Y2871194D01*
X4058779Y2871195D01*
X4055000Y2871946D01*
D02*
G37*
G36*
X4045000D02*
X4041221Y2871195D01*
X4041220Y2871194D01*
X4033779Y2866222D01*
X4033778D01*
X4028805Y2858779D01*
X4028054Y2855000D01*
X4045000D01*
Y2871946D01*
D02*
G37*
G36*
X3905000D02*
Y2855000D01*
X3921946D01*
X3921195Y2858779D01*
X3917970Y2863604D01*
X3916222Y2866222D01*
X3916221D01*
X3908779Y2871194D01*
X3908779Y2871195D01*
X3905000Y2871946D01*
D02*
G37*
G36*
X3895000D02*
X3891221Y2871195D01*
X3891220Y2871194D01*
X3883779Y2866222D01*
X3883778D01*
X3878805Y2858779D01*
X3878054Y2855000D01*
X3895000D01*
Y2871946D01*
D02*
G37*
G36*
X3005000Y2871946D02*
Y2855000D01*
X3021946D01*
X3021195Y2858779D01*
X3016222Y2866222D01*
X3008779Y2871195D01*
X3005000Y2871946D01*
D02*
G37*
G36*
X2995000D02*
X2991221Y2871195D01*
X2983778Y2866222D01*
X2978805Y2858779D01*
X2978054Y2855000D01*
X2995000D01*
Y2871946D01*
D02*
G37*
G36*
X2705000D02*
Y2855000D01*
X2721946D01*
X2721195Y2858779D01*
X2716222Y2866222D01*
X2708779Y2871195D01*
X2705000Y2871946D01*
D02*
G37*
G36*
X2695000D02*
X2691221Y2871195D01*
X2683778Y2866222D01*
X2678805Y2858779D01*
X2678054Y2855000D01*
X2695000D01*
Y2871946D01*
D02*
G37*
G36*
X3621946Y2845000D02*
X3605000D01*
Y2828054D01*
X3608779Y2828805D01*
X3608779Y2828805D01*
X3616221Y2833778D01*
X3616222Y2833778D01*
X3621194Y2841221D01*
X3621195Y2841221D01*
X3621946Y2845000D01*
D02*
G37*
G36*
X3021946D02*
X3005000D01*
Y2828054D01*
X3008779Y2828805D01*
X3016222Y2833778D01*
X3021195Y2841221D01*
X3021946Y2845000D01*
D02*
G37*
G36*
X2995000D02*
X2978054D01*
X2978805Y2841221D01*
X2983778Y2833778D01*
X2991221Y2828805D01*
X2995000Y2828054D01*
Y2845000D01*
D02*
G37*
G36*
X2721946D02*
X2705000D01*
Y2828054D01*
X2708779Y2828805D01*
X2716222Y2833778D01*
X2721195Y2841221D01*
X2721946Y2845000D01*
D02*
G37*
G36*
X2695000D02*
X2678054D01*
X2678805Y2841221D01*
X2683778Y2833778D01*
X2691221Y2828805D01*
X2695000Y2828054D01*
Y2845000D01*
D02*
G37*
G36*
X2421946D02*
X2405000D01*
Y2828054D01*
X2408779Y2828805D01*
X2416222Y2833778D01*
X2421195Y2841221D01*
X2421946Y2845000D01*
D02*
G37*
G36*
X2395000D02*
X2378054D01*
X2378805Y2841221D01*
X2383778Y2833778D01*
X2391221Y2828805D01*
X2395000Y2828054D01*
Y2845000D01*
D02*
G37*
G36*
X2571946D02*
X2555000D01*
Y2828054D01*
X2558779Y2828805D01*
X2558780Y2828806D01*
X2566222Y2833778D01*
X2571194Y2841220D01*
X2571195Y2841221D01*
X2571195Y2841221D01*
X2571946Y2845000D01*
D02*
G37*
G36*
X2545000D02*
X2528054D01*
X2528805Y2841221D01*
X2528806Y2841221D01*
X2533778Y2833778D01*
X2541221Y2828805D01*
X2545000Y2828054D01*
Y2845000D01*
D02*
G37*
G36*
X2245000D02*
X2228054D01*
X2228805Y2841221D01*
X2228805Y2841221D01*
X2228806Y2841220D01*
X2233778Y2833778D01*
X2241220Y2828806D01*
X2241221Y2828805D01*
X2245000Y2828054D01*
Y2845000D01*
D02*
G37*
G36*
X4420000Y2721946D02*
X4416221Y2721195D01*
X4408778Y2716222D01*
X4403806Y2708779D01*
X4403054Y2705000D01*
X4420000D01*
Y2721946D01*
D02*
G37*
G36*
X4280000D02*
Y2705000D01*
X4296946D01*
X4296194Y2708779D01*
X4291222Y2716222D01*
X4283779Y2721195D01*
X4280000Y2721946D01*
D02*
G37*
G36*
X4270000D02*
X4266221Y2721195D01*
X4258778Y2716222D01*
X4253806Y2708779D01*
X4253054Y2705000D01*
X4270000D01*
Y2721946D01*
D02*
G37*
G36*
X4130000D02*
Y2705000D01*
X4146946D01*
X4146194Y2708779D01*
X4141222Y2716222D01*
X4133779Y2721195D01*
X4130000Y2721946D01*
D02*
G37*
G36*
X4120000D02*
X4116221Y2721195D01*
X4108778Y2716222D01*
X4103806Y2708779D01*
X4103054Y2705000D01*
X4120000D01*
Y2721946D01*
D02*
G37*
G36*
X3980000D02*
Y2705000D01*
X3996946D01*
X3996195Y2708779D01*
X3991222Y2716222D01*
X3983779Y2721195D01*
X3980000Y2721946D01*
D02*
G37*
G36*
X3970000D02*
X3966221Y2721195D01*
X3958778Y2716222D01*
X3953805Y2708779D01*
X3953054Y2705000D01*
X3970000D01*
Y2721946D01*
D02*
G37*
G36*
X3830000D02*
Y2705000D01*
X3846946D01*
X3846195Y2708779D01*
X3841222Y2716222D01*
X3833779Y2721195D01*
X3830000Y2721946D01*
D02*
G37*
G36*
X3820000D02*
X3816221Y2721195D01*
X3808778Y2716222D01*
X3803805Y2708779D01*
X3803054Y2705000D01*
X3820000D01*
Y2721946D01*
D02*
G37*
G36*
X3070000D02*
X3066221Y2721195D01*
X3066221D01*
X3058778Y2716222D01*
X3053805Y2708779D01*
Y2708779D01*
X3053054Y2705000D01*
X3070000D01*
Y2721946D01*
D02*
G37*
G36*
X2930000D02*
Y2705000D01*
X2946946D01*
X2946195Y2708779D01*
X2941222Y2716222D01*
X2933779Y2721195D01*
X2930000Y2721946D01*
D02*
G37*
G36*
X2920000D02*
X2916221Y2721195D01*
X2908778Y2716222D01*
X2903805Y2708779D01*
X2903054Y2705000D01*
X2920000D01*
Y2721946D01*
D02*
G37*
G36*
X2780000D02*
Y2705000D01*
X2796946D01*
X2796195Y2708779D01*
X2791222Y2716222D01*
X2783779Y2721195D01*
X2780000Y2721946D01*
D02*
G37*
G36*
X2770000D02*
X2766221Y2721195D01*
X2758778Y2716222D01*
X2753805Y2708779D01*
X2753054Y2705000D01*
X2770000D01*
Y2721946D01*
D02*
G37*
G36*
X2630000D02*
Y2705000D01*
X2646946D01*
X2646195Y2708779D01*
X2641222Y2716222D01*
X2633779Y2721195D01*
X2630000Y2721946D01*
D02*
G37*
G36*
X2180000D02*
Y2705000D01*
X2196946D01*
X2196195Y2708779D01*
X2191222Y2716222D01*
X2183779Y2721195D01*
X2180000Y2721946D01*
D02*
G37*
G36*
X2170000D02*
X2166221Y2721195D01*
X2158778Y2716222D01*
X2153805Y2708779D01*
X2153054Y2705000D01*
X2170000D01*
Y2721946D01*
D02*
G37*
G36*
X4296946Y2695000D02*
X4280000D01*
Y2678054D01*
X4283779Y2678805D01*
X4291222Y2683778D01*
X4296194Y2691221D01*
X4296946Y2695000D01*
D02*
G37*
G36*
X4270000D02*
X4253054D01*
X4253806Y2691221D01*
X4258778Y2683778D01*
X4266221Y2678805D01*
X4270000Y2678054D01*
Y2695000D01*
D02*
G37*
G36*
X4146946D02*
X4130000D01*
Y2678054D01*
X4133779Y2678805D01*
X4141222Y2683778D01*
X4146194Y2691221D01*
X4146946Y2695000D01*
D02*
G37*
G36*
X4120000D02*
X4103054D01*
X4103806Y2691221D01*
X4108778Y2683778D01*
X4116221Y2678805D01*
X4120000Y2678054D01*
Y2695000D01*
D02*
G37*
G36*
X3996946D02*
X3980000D01*
Y2678054D01*
X3983779Y2678805D01*
X3991222Y2683778D01*
X3996195Y2691221D01*
X3996946Y2695000D01*
D02*
G37*
G36*
X3970000D02*
X3953054D01*
X3953805Y2691221D01*
X3958778Y2683778D01*
X3966221Y2678805D01*
X3970000Y2678054D01*
Y2695000D01*
D02*
G37*
G36*
X3846946D02*
X3830000D01*
Y2678054D01*
X3833779Y2678805D01*
X3841222Y2683778D01*
X3846195Y2691221D01*
X3846946Y2695000D01*
D02*
G37*
G36*
X3820000D02*
X3803054D01*
X3803805Y2691221D01*
X3808778Y2683778D01*
X3816221Y2678805D01*
X3820000Y2678054D01*
Y2695000D01*
D02*
G37*
G36*
X2946946D02*
X2930000D01*
Y2678054D01*
X2933779Y2678805D01*
X2941222Y2683778D01*
X2946195Y2691221D01*
X2946946Y2695000D01*
D02*
G37*
G36*
X2920000D02*
X2903054D01*
X2903805Y2691221D01*
X2908778Y2683778D01*
X2916221Y2678805D01*
X2920000Y2678054D01*
Y2695000D01*
D02*
G37*
G36*
X2796946D02*
X2780000D01*
Y2678054D01*
X2783779Y2678805D01*
X2791222Y2683778D01*
X2796195Y2691221D01*
X2796946Y2695000D01*
D02*
G37*
G36*
X2770000D02*
X2753054D01*
X2753805Y2691221D01*
X2758778Y2683778D01*
X2766221Y2678805D01*
X2770000Y2678054D01*
Y2695000D01*
D02*
G37*
G36*
X2196946D02*
X2180000D01*
Y2678054D01*
X2183779Y2678805D01*
X2191222Y2683778D01*
X2196195Y2691221D01*
X2196946Y2695000D01*
D02*
G37*
G36*
X2170000D02*
X2153054D01*
X2153805Y2691221D01*
X2158778Y2683778D01*
X2166221Y2678805D01*
X2170000Y2678054D01*
Y2695000D01*
D02*
G37*
G36*
X4420000D02*
X4403054D01*
X4403806Y2691221D01*
X4408778Y2683778D01*
X4416221Y2678805D01*
X4420000Y2678054D01*
Y2695000D01*
D02*
G37*
G36*
X2366536Y2680590D02*
X2344803D01*
Y2650000D01*
X2366536D01*
Y2680590D01*
D02*
G37*
G36*
Y2640000D02*
X2344803D01*
Y2609410D01*
X2366536D01*
Y2640000D01*
D02*
G37*
G36*
X3395000Y2634165D02*
Y2602000D01*
X3427165D01*
X3426535Y2606789D01*
X3422756Y2615912D01*
X3416745Y2623745D01*
X3408912Y2629756D01*
X3399789Y2633535D01*
X3395000Y2634165D01*
D02*
G37*
G36*
X2915000D02*
Y2602000D01*
X2947165D01*
X2946535Y2606789D01*
X2942756Y2615912D01*
X2936745Y2623745D01*
X2928912Y2629756D01*
X2919789Y2633535D01*
X2915000Y2634165D01*
D02*
G37*
G36*
X3385000D02*
X3380211Y2633535D01*
X3371088Y2629756D01*
X3363255Y2623745D01*
X3357244Y2615912D01*
X3353465Y2606789D01*
X3352835Y2602000D01*
X3385000D01*
Y2634165D01*
D02*
G37*
G36*
X2947165Y2592000D02*
X2915000D01*
Y2559835D01*
X2919789Y2560465D01*
X2928912Y2564244D01*
X2936745Y2570255D01*
X2942756Y2578088D01*
X2946535Y2587211D01*
X2947165Y2592000D01*
D02*
G37*
G36*
X4355000Y2571946D02*
Y2555000D01*
X4371946D01*
X4371194Y2558779D01*
X4366222Y2566222D01*
X4358779Y2571195D01*
X4355000Y2571946D01*
D02*
G37*
G36*
X4345000D02*
X4341221Y2571195D01*
X4333778Y2566222D01*
X4328806Y2558779D01*
X4328054Y2555000D01*
X4345000D01*
Y2571946D01*
D02*
G37*
G36*
X3755000D02*
Y2555000D01*
X3771946D01*
X3771195Y2558779D01*
X3766222Y2566222D01*
X3758779Y2571195D01*
X3755000Y2571946D01*
D02*
G37*
G36*
X3745000D02*
X3741221Y2571195D01*
X3733778Y2566222D01*
X3728805Y2558779D01*
X3728054Y2555000D01*
X3745000D01*
Y2571946D01*
D02*
G37*
G36*
X3290000Y2629780D02*
X3281516Y2628663D01*
X3273610Y2625389D01*
X3266821Y2620179D01*
X3261611Y2613390D01*
X3258337Y2605484D01*
X3257220Y2597000D01*
X3258337Y2588516D01*
X3261611Y2580610D01*
X3266821Y2573821D01*
X3273610Y2568611D01*
X3278805Y2558779D01*
X3278054Y2555000D01*
X3321946D01*
X3321195Y2558779D01*
X3316222Y2566221D01*
Y2566222D01*
X3318389Y2580610D01*
X3321663Y2588516D01*
X3322780Y2597000D01*
X3321663Y2605484D01*
X3318389Y2613390D01*
X3313179Y2620179D01*
X3306390Y2625389D01*
X3298484Y2628663D01*
X3290000Y2629780D01*
D02*
G37*
G36*
X2705000Y2571946D02*
Y2555000D01*
X2721946D01*
X2721195Y2558779D01*
X2716222Y2566222D01*
X2708779Y2571195D01*
X2705000Y2571946D01*
D02*
G37*
G36*
X2695000D02*
X2691221Y2571195D01*
X2683778Y2566222D01*
X2678805Y2558779D01*
X2678054Y2555000D01*
X2695000D01*
Y2571946D01*
D02*
G37*
G36*
X2395000D02*
X2391221Y2571195D01*
X2383779Y2566222D01*
X2383778Y2566222D01*
X2378805Y2558779D01*
X2378054Y2555000D01*
X2395000D01*
Y2571946D01*
D02*
G37*
G36*
X4230709Y2590259D02*
X4222877Y2589228D01*
X4215579Y2586205D01*
X4209312Y2581396D01*
X4204504Y2575129D01*
X4201481Y2567832D01*
X4200450Y2560000D01*
X4183243Y2539843D01*
X4176366Y2535196D01*
X4156487Y2535196D01*
X4127983D01*
X4100503Y2535196D01*
X4082615Y2544804D01*
X4073595Y2556589D01*
X4066222Y2566222D01*
X4064566Y2567328D01*
X4058779Y2571195D01*
X4058779Y2571195D01*
X4055000Y2571946D01*
Y2550000D01*
X4045000D01*
Y2571946D01*
X4041221Y2571195D01*
X4041221Y2571195D01*
X4037471Y2568689D01*
X4033778Y2566222D01*
X4026405Y2556589D01*
X4017385Y2544804D01*
X3999497Y2535196D01*
X3983194Y2535196D01*
X3914265D01*
X3912109Y2538309D01*
X3911205Y2540130D01*
X3906396Y2546396D01*
X3900129Y2551205D01*
X3892832Y2554228D01*
X3885000Y2555259D01*
X3877168Y2554228D01*
X3869871Y2551205D01*
X3863604Y2546396D01*
X3858795Y2540129D01*
X3855772Y2532832D01*
X3854741Y2525000D01*
X3855772Y2517168D01*
X3858795Y2509871D01*
X3863604Y2503604D01*
X3869871Y2498795D01*
X3877168Y2495772D01*
X3885000Y2494741D01*
X3892832Y2495772D01*
X3900129Y2498795D01*
X3906396Y2503604D01*
X3908976Y2506966D01*
X3911205Y2509870D01*
X3911921Y2511312D01*
X3914252Y2514804D01*
X3991228D01*
X4024932D01*
Y2514804D01*
X4024932D01*
Y2514804D01*
X4049979Y2514804D01*
X4075068Y2514804D01*
X4075068Y2514804D01*
X4075068D01*
Y2514804D01*
X4114857D01*
X4167861D01*
X4195709Y2514804D01*
X4199610Y2515580D01*
X4201082Y2516563D01*
X4217916Y2526203D01*
X4236754Y2530537D01*
X4238540Y2530772D01*
X4245838Y2533795D01*
X4252105Y2538604D01*
X4256914Y2544871D01*
X4259937Y2552168D01*
X4260968Y2560000D01*
X4259937Y2567832D01*
X4256914Y2575129D01*
X4252105Y2581396D01*
X4245838Y2586205D01*
X4238540Y2589228D01*
X4230709Y2590259D01*
D02*
G37*
G36*
X4371946Y2545000D02*
X4355000D01*
Y2528054D01*
X4358779Y2528805D01*
X4366222Y2533778D01*
X4371194Y2541221D01*
X4371946Y2545000D01*
D02*
G37*
G36*
X4345000D02*
X4328054D01*
X4328806Y2541221D01*
X4333778Y2533778D01*
X4341221Y2528805D01*
X4345000Y2528054D01*
Y2545000D01*
D02*
G37*
G36*
X3771946D02*
X3755000D01*
Y2528054D01*
X3758779Y2528805D01*
X3766222Y2533778D01*
X3771195Y2541221D01*
X3771946Y2545000D01*
D02*
G37*
G36*
X3745000D02*
X3728054D01*
X3728805Y2541221D01*
X3733778Y2533778D01*
X3741221Y2528805D01*
X3745000Y2528054D01*
Y2545000D01*
D02*
G37*
G36*
X2721946D02*
X2705000D01*
Y2528054D01*
X2708779Y2528805D01*
X2716222Y2533778D01*
X2721195Y2541221D01*
X2721946Y2545000D01*
D02*
G37*
G36*
X2695000D02*
X2678054D01*
X2678805Y2541221D01*
X2683778Y2533778D01*
X2691221Y2528805D01*
X2695000Y2528054D01*
Y2545000D01*
D02*
G37*
G36*
X3471946D02*
X3455000D01*
Y2528054D01*
X3458779Y2528805D01*
X3458779Y2528806D01*
X3466222Y2533778D01*
X3471194Y2541221D01*
X3471195Y2541221D01*
X3471845Y2544489D01*
X3471946Y2545000D01*
D02*
G37*
G36*
X2395000D02*
X2378054D01*
X2378805Y2541221D01*
X2383778Y2533778D01*
X2383779Y2533778D01*
X2391221Y2528805D01*
X2395000Y2528054D01*
Y2545000D01*
D02*
G37*
G36*
X4270000Y2421946D02*
X4266221Y2421195D01*
X4266221Y2421194D01*
X4258778Y2416222D01*
X4253805Y2408779D01*
X4253191Y2405692D01*
X4253054Y2405000D01*
X4270000D01*
Y2421946D01*
D02*
G37*
G36*
X4130000Y2421946D02*
Y2405000D01*
X4146946D01*
X4146194Y2408779D01*
X4141222Y2416222D01*
X4133779Y2421195D01*
X4130000Y2421946D01*
D02*
G37*
G36*
X4120000D02*
X4116221Y2421195D01*
X4108778Y2416222D01*
X4103806Y2408779D01*
X4103054Y2405000D01*
X4120000D01*
Y2421946D01*
D02*
G37*
G36*
X3980000D02*
Y2405000D01*
X3996946D01*
X3996195Y2408779D01*
X3991222Y2416222D01*
X3983779Y2421195D01*
X3980000Y2421946D01*
D02*
G37*
G36*
X3970000D02*
X3966221Y2421195D01*
X3958778Y2416222D01*
X3953805Y2408779D01*
X3953054Y2405000D01*
X3970000D01*
Y2421946D01*
D02*
G37*
G36*
X3530000D02*
Y2405000D01*
X3546946D01*
X3546195Y2408779D01*
X3541222Y2416222D01*
X3533779Y2421195D01*
X3530000Y2421946D01*
D02*
G37*
G36*
X3520000D02*
X3516221Y2421195D01*
X3508778Y2416222D01*
X3503805Y2408779D01*
X3503054Y2405000D01*
X3520000D01*
Y2421946D01*
D02*
G37*
G36*
X2780000D02*
Y2405000D01*
X2796946D01*
X2796195Y2408779D01*
X2791222Y2416221D01*
Y2416222D01*
X2783779Y2421195D01*
X2780000Y2421946D01*
D02*
G37*
G36*
X2480000D02*
Y2405000D01*
X2496946D01*
X2496195Y2408779D01*
X2491222Y2416222D01*
X2483779Y2421195D01*
X2480000Y2421946D01*
D02*
G37*
G36*
X2470000D02*
X2466221Y2421195D01*
X2458778Y2416222D01*
X2453805Y2408779D01*
X2453054Y2405000D01*
X2470000D01*
Y2421946D01*
D02*
G37*
G36*
X4146946Y2395000D02*
X4130000D01*
Y2378054D01*
X4133779Y2378805D01*
X4141222Y2383778D01*
X4146194Y2391221D01*
X4146946Y2395000D01*
D02*
G37*
G36*
X4120000D02*
X4103054D01*
X4103806Y2391221D01*
X4108778Y2383778D01*
X4116221Y2378805D01*
X4120000Y2378054D01*
Y2395000D01*
D02*
G37*
G36*
X3996946D02*
X3980000D01*
Y2378054D01*
X3983779Y2378805D01*
X3991222Y2383778D01*
X3996195Y2391221D01*
X3996946Y2395000D01*
D02*
G37*
G36*
X3970000D02*
X3953054D01*
X3953805Y2391221D01*
X3958778Y2383778D01*
X3966221Y2378805D01*
X3970000Y2378054D01*
Y2395000D01*
D02*
G37*
G36*
X3546946D02*
X3530000D01*
Y2378054D01*
X3533779Y2378805D01*
X3541222Y2383778D01*
X3546195Y2391221D01*
X3546946Y2395000D01*
D02*
G37*
G36*
X3520000D02*
X3503054D01*
X3503805Y2391221D01*
X3508778Y2383778D01*
X3516221Y2378805D01*
X3520000Y2378054D01*
Y2395000D01*
D02*
G37*
G36*
X2796946D02*
X2780000D01*
Y2378054D01*
X2783779Y2378805D01*
X2791222Y2383778D01*
X2796194Y2391220D01*
X2796195Y2391221D01*
X2796946Y2395000D01*
D02*
G37*
G36*
X2496946D02*
X2480000D01*
Y2378054D01*
X2483779Y2378805D01*
X2491222Y2383778D01*
X2496195Y2391221D01*
X2496946Y2395000D01*
D02*
G37*
G36*
X2470000D02*
X2453054D01*
X2453805Y2391221D01*
X2458778Y2383778D01*
X2466221Y2378805D01*
X2470000Y2378054D01*
Y2395000D01*
D02*
G37*
G36*
X3859331Y2422891D02*
X3849289Y2421569D01*
X3839932Y2417693D01*
X3831898Y2411528D01*
X3825732Y2403493D01*
X3821856Y2394136D01*
X3820534Y2384095D01*
X3821856Y2374053D01*
X3825732Y2364696D01*
X3831898Y2356661D01*
X3839932Y2350496D01*
X3849289Y2346620D01*
X3859331Y2345298D01*
X3869372Y2346620D01*
X3878729Y2350496D01*
X3886764Y2356661D01*
X3892929Y2364696D01*
X3896805Y2374053D01*
X3898127Y2384095D01*
X3896805Y2394136D01*
X3892929Y2403493D01*
X3886764Y2411528D01*
X3878729Y2417693D01*
X3869372Y2421569D01*
X3859331Y2422891D01*
D02*
G37*
G36*
X2664997Y2465387D02*
X2649314Y2463843D01*
X2634234Y2459268D01*
X2620336Y2451839D01*
X2608155Y2441842D01*
X2598157Y2429661D01*
X2590729Y2415763D01*
X2586154Y2400683D01*
X2584610Y2385000D01*
X2586154Y2369317D01*
X2590729Y2354237D01*
X2598157Y2340339D01*
X2608155Y2328158D01*
X2620336Y2318161D01*
X2634234Y2310732D01*
X2649314Y2306157D01*
X2664997Y2304613D01*
X2680680Y2306157D01*
X2695760Y2310732D01*
X2709657Y2318161D01*
X2721839Y2328158D01*
X2731836Y2340339D01*
X2739265Y2354237D01*
X2741113Y2360329D01*
X2758270Y2372954D01*
X2770000Y2375911D01*
Y2400000D01*
Y2421946D01*
X2768811Y2421710D01*
X2766221Y2421195D01*
X2738096Y2426538D01*
X2731836Y2429661D01*
X2721839Y2441842D01*
X2709657Y2451839D01*
X2695760Y2459268D01*
X2680680Y2463843D01*
X2664997Y2465387D01*
D02*
G37*
G36*
X3455000Y2271946D02*
Y2255000D01*
X3471946D01*
X3471195Y2258779D01*
X3466222Y2266222D01*
X3458779Y2271195D01*
X3455000Y2271946D01*
D02*
G37*
G36*
X3445000D02*
X3441221Y2271195D01*
X3433778Y2266222D01*
X3428805Y2258779D01*
X3428054Y2255000D01*
X3445000D01*
Y2271946D01*
D02*
G37*
G36*
X3305000D02*
Y2255000D01*
X3321946D01*
X3321195Y2258779D01*
X3316222Y2266222D01*
X3308779Y2271195D01*
X3305000Y2271946D01*
D02*
G37*
G36*
X3295000D02*
X3291221Y2271195D01*
X3283778Y2266222D01*
X3278805Y2258779D01*
X3278054Y2255000D01*
X3295000D01*
Y2271946D01*
D02*
G37*
G36*
X3005000D02*
Y2255000D01*
X3021946D01*
X3021195Y2258779D01*
X3016222Y2266222D01*
X3008779Y2271195D01*
X3005000Y2271946D01*
D02*
G37*
G36*
X2995000D02*
X2991221Y2271195D01*
X2983778Y2266222D01*
X2978805Y2258779D01*
X2978054Y2255000D01*
X2995000D01*
Y2271946D01*
D02*
G37*
G36*
X2555000D02*
Y2255000D01*
X2571946D01*
X2571195Y2258779D01*
X2566222Y2266222D01*
X2561671Y2269262D01*
X2558779Y2271195D01*
X2558779Y2271195D01*
X2555000Y2271946D01*
D02*
G37*
G36*
X3471946Y2245000D02*
X3455000D01*
Y2228054D01*
X3458779Y2228805D01*
X3466222Y2233778D01*
X3471195Y2241221D01*
X3471946Y2245000D01*
D02*
G37*
G36*
X3445000D02*
X3428054D01*
X3428805Y2241221D01*
X3433778Y2233778D01*
X3441221Y2228805D01*
X3445000Y2228054D01*
Y2245000D01*
D02*
G37*
G36*
X3321946D02*
X3305000D01*
Y2228054D01*
X3308779Y2228805D01*
X3316222Y2233778D01*
X3321195Y2241221D01*
X3321946Y2245000D01*
D02*
G37*
G36*
X3295000D02*
X3278054D01*
X3278805Y2241221D01*
X3283778Y2233778D01*
X3291221Y2228805D01*
X3295000Y2228054D01*
Y2245000D01*
D02*
G37*
G36*
X3021946D02*
X3005000D01*
Y2228054D01*
X3008779Y2228805D01*
X3016222Y2233778D01*
X3021195Y2241221D01*
X3021946Y2245000D01*
D02*
G37*
G36*
X2995000D02*
X2978054D01*
X2978805Y2241221D01*
X2983778Y2233778D01*
X2991221Y2228805D01*
X2995000Y2228054D01*
Y2245000D01*
D02*
G37*
G36*
X2845000D02*
X2828054D01*
X2828805Y2241221D01*
X2833778Y2233778D01*
X2841221Y2228805D01*
X2845000Y2228054D01*
Y2245000D01*
D02*
G37*
G36*
X2571946D02*
X2555000D01*
Y2228054D01*
X2558779Y2228805D01*
X2566221Y2233778D01*
X2566222Y2233778D01*
X2571194Y2241221D01*
X2571195Y2241221D01*
X2571809Y2244308D01*
X2571946Y2245000D01*
D02*
G37*
G36*
X3230000Y2121946D02*
Y2105000D01*
X3246946D01*
X3246195Y2108779D01*
X3241222Y2116222D01*
X3233779Y2121195D01*
X3230000Y2121946D01*
D02*
G37*
G36*
X3220000D02*
X3216221Y2121195D01*
X3208778Y2116222D01*
X3203805Y2108779D01*
X3203054Y2105000D01*
X3220000D01*
Y2121946D01*
D02*
G37*
G36*
X3080000D02*
Y2105000D01*
X3096946D01*
X3096195Y2108779D01*
X3091222Y2116222D01*
X3083779Y2121195D01*
X3080000Y2121946D01*
D02*
G37*
G36*
X3070000D02*
X3066221Y2121195D01*
X3058778Y2116222D01*
X3053805Y2108779D01*
X3053054Y2105000D01*
X3070000D01*
Y2121946D01*
D02*
G37*
G36*
X2780000D02*
Y2105000D01*
X2796946D01*
X2796195Y2108779D01*
Y2108779D01*
X2791222Y2116222D01*
X2783779Y2121195D01*
X2780000Y2121946D01*
D02*
G37*
G36*
X3246946Y2095000D02*
X3230000D01*
Y2078054D01*
X3233779Y2078805D01*
X3241222Y2083778D01*
X3246195Y2091221D01*
X3246946Y2095000D01*
D02*
G37*
G36*
X3220000D02*
X3203054D01*
X3203805Y2091221D01*
X3208778Y2083778D01*
X3216221Y2078805D01*
X3220000Y2078054D01*
Y2095000D01*
D02*
G37*
G36*
X3096946D02*
X3080000D01*
Y2078054D01*
X3083779Y2078805D01*
X3091222Y2083778D01*
X3096195Y2091221D01*
X3096946Y2095000D01*
D02*
G37*
G36*
X3070000D02*
X3053054D01*
X3053805Y2091221D01*
X3058778Y2083778D01*
X3066221Y2078805D01*
X3070000Y2078054D01*
Y2095000D01*
D02*
G37*
G36*
X2796946D02*
X2780000D01*
Y2078054D01*
X2783779Y2078805D01*
X2791221Y2083778D01*
X2791222Y2083778D01*
X2796195Y2091221D01*
X2796946Y2095000D01*
D02*
G37*
G36*
X3370000Y2148737D02*
X3362821Y2147792D01*
X3356131Y2145021D01*
X3350387Y2140613D01*
X3345979Y2134869D01*
X3343208Y2128179D01*
X3342263Y2121000D01*
X3343208Y2113821D01*
X3345330Y2108698D01*
X3348494Y2090500D01*
X3345330Y2072302D01*
X3343208Y2067179D01*
X3342263Y2060000D01*
X3343208Y2052821D01*
X3345979Y2046131D01*
X3350387Y2040387D01*
X3356131Y2035979D01*
X3362821Y2033208D01*
X3370000Y2032263D01*
X3377179Y2033208D01*
X3383869Y2035979D01*
X3389613Y2040387D01*
X3394021Y2046131D01*
X3396792Y2052821D01*
X3397737Y2060000D01*
X3396792Y2067179D01*
X3394670Y2072302D01*
X3391506Y2090500D01*
X3394670Y2108698D01*
X3396792Y2113821D01*
X3397737Y2121000D01*
X3396792Y2128179D01*
X3394021Y2134869D01*
X3389613Y2140613D01*
X3383869Y2145021D01*
X3377179Y2147792D01*
X3370000Y2148737D01*
D02*
G37*
G36*
X1971946Y3745000D02*
X1955000D01*
Y3728054D01*
X1958779Y3728805D01*
X1958779Y3728805D01*
X1966221Y3733778D01*
X1966222D01*
X1971195Y3741221D01*
X1971946Y3745000D01*
D02*
G37*
G36*
X1870000Y3621946D02*
X1866221Y3621195D01*
X1858779Y3616222D01*
X1858778Y3616222D01*
X1853806Y3608779D01*
X1853805Y3608779D01*
X1853054Y3605000D01*
X1870000D01*
Y3621946D01*
D02*
G37*
G36*
X1955000Y3471946D02*
Y3455000D01*
X1971946D01*
X1971195Y3458779D01*
X1966222Y3466222D01*
X1958779Y3471195D01*
X1955000Y3471946D01*
D02*
G37*
G36*
X1945000D02*
X1941221Y3471195D01*
X1933778Y3466222D01*
X1928805Y3458779D01*
X1928054Y3455000D01*
X1945000D01*
Y3471946D01*
D02*
G37*
G36*
X1971946Y3445000D02*
X1955000D01*
Y3428054D01*
X1958779Y3428805D01*
X1966222Y3433778D01*
X1971195Y3441221D01*
X1971946Y3445000D01*
D02*
G37*
G36*
X1945000D02*
X1928054D01*
X1928805Y3441221D01*
X1933778Y3433778D01*
X1941221Y3428805D01*
X1945000Y3428054D01*
Y3445000D01*
D02*
G37*
G36*
X2204213Y2320000D02*
X2177559D01*
Y2290394D01*
X2204213D01*
Y2320000D01*
D02*
G37*
G36*
X1880000Y3921946D02*
Y3905000D01*
X1896946D01*
X1896195Y3908779D01*
X1891222Y3916222D01*
X1883779Y3921195D01*
X1880000Y3921946D01*
D02*
G37*
G36*
X1870000D02*
X1866221Y3921195D01*
X1858778Y3916222D01*
X1853805Y3908779D01*
X1853054Y3905000D01*
X1870000D01*
Y3921946D01*
D02*
G37*
G36*
X1896946Y3895000D02*
X1880000D01*
Y3878054D01*
X1883779Y3878805D01*
X1891222Y3883778D01*
X1896195Y3891221D01*
X1896946Y3895000D01*
D02*
G37*
G36*
X1870000D02*
X1853054D01*
X1853805Y3891221D01*
X1858778Y3883778D01*
X1866221Y3878805D01*
X1870000Y3878054D01*
Y3895000D01*
D02*
G37*
G36*
X1795000Y3771946D02*
X1791221Y3771195D01*
X1783778Y3766222D01*
X1778805Y3758779D01*
X1778054Y3755000D01*
X1795000D01*
Y3771946D01*
D02*
G37*
G36*
X4580000Y3621946D02*
Y3605000D01*
X4596946D01*
X4596194Y3608779D01*
X4591222Y3616222D01*
X4583779Y3621195D01*
X4580000Y3621946D01*
D02*
G37*
G36*
X4570000D02*
X4566221Y3621195D01*
X4558778Y3616222D01*
X4553806Y3608779D01*
X4553054Y3605000D01*
X4570000D01*
Y3621946D01*
D02*
G37*
G36*
X1720000D02*
X1716221Y3621195D01*
X1708778Y3616222D01*
X1703805Y3608779D01*
X1703054Y3605000D01*
X1720000D01*
Y3621946D01*
D02*
G37*
G36*
X4596946Y3595000D02*
X4580000D01*
Y3578054D01*
X4583779Y3578805D01*
X4591222Y3583778D01*
X4596194Y3591221D01*
X4596946Y3595000D01*
D02*
G37*
G36*
X4570000D02*
X4553054D01*
X4553806Y3591221D01*
X4558778Y3583778D01*
X4566221Y3578805D01*
X4570000Y3578054D01*
Y3595000D01*
D02*
G37*
G36*
X1720000D02*
X1703054D01*
X1703805Y3591221D01*
X1708778Y3583778D01*
X1716221Y3578805D01*
X1720000Y3578054D01*
Y3595000D01*
D02*
G37*
G36*
X4580000Y3321946D02*
Y3305000D01*
X4596946D01*
X4596194Y3308779D01*
X4591222Y3316222D01*
X4583779Y3321195D01*
X4580000Y3321946D01*
D02*
G37*
G36*
X4570000D02*
X4566221Y3321195D01*
X4558778Y3316222D01*
X4553806Y3308779D01*
X4553054Y3305000D01*
X4570000D01*
Y3321946D01*
D02*
G37*
G36*
X1720000D02*
X1716221Y3321195D01*
X1708779Y3316222D01*
X1708778Y3316222D01*
X1703805Y3308779D01*
X1703054Y3305000D01*
X1720000D01*
Y3321946D01*
D02*
G37*
G36*
X4596946Y3295000D02*
X4580000D01*
Y3278054D01*
X4583779Y3278805D01*
X4591222Y3283778D01*
X4596194Y3291221D01*
X4596946Y3295000D01*
D02*
G37*
G36*
X4570000D02*
X4553054D01*
X4553806Y3291221D01*
X4558778Y3283778D01*
X4566221Y3278805D01*
X4570000Y3278054D01*
Y3295000D01*
D02*
G37*
G36*
X1720000D02*
X1703054D01*
X1703805Y3291221D01*
Y3291221D01*
X1708778Y3283778D01*
X1716221Y3278805D01*
X1720000Y3278054D01*
Y3295000D01*
D02*
G37*
G36*
X1655000Y3171946D02*
Y3155000D01*
X1671946D01*
X1671195Y3158779D01*
X1666222Y3166222D01*
X1658779Y3171195D01*
X1655000Y3171946D01*
D02*
G37*
G36*
X1645000D02*
X1641221Y3171195D01*
X1633778Y3166222D01*
X1628805Y3158779D01*
X1628054Y3155000D01*
X1645000D01*
Y3171946D01*
D02*
G37*
G36*
X1671946Y3145000D02*
X1655000D01*
Y3128054D01*
X1658779Y3128805D01*
X1666222Y3133778D01*
X1671195Y3141221D01*
X1671946Y3145000D01*
D02*
G37*
G36*
X1645000D02*
X1628054D01*
X1628805Y3141221D01*
X1633778Y3133778D01*
X1641221Y3128805D01*
X1645000Y3128054D01*
Y3145000D01*
D02*
G37*
G36*
X4580000Y3021946D02*
Y3005000D01*
X4596946D01*
X4596194Y3008779D01*
X4591222Y3016222D01*
X4583779Y3021195D01*
X4580000Y3021946D01*
D02*
G37*
G36*
X4570000D02*
X4566221Y3021195D01*
X4558778Y3016222D01*
X4553806Y3008779D01*
X4553054Y3005000D01*
X4570000D01*
Y3021946D01*
D02*
G37*
G36*
X1730000D02*
Y3005000D01*
X1746946D01*
X1746195Y3008779D01*
X1741222Y3016222D01*
X1733779Y3021195D01*
X1730000Y3021946D01*
D02*
G37*
G36*
X1720000D02*
X1716221Y3021195D01*
X1708778Y3016222D01*
X1703805Y3008779D01*
X1703054Y3005000D01*
X1720000D01*
Y3021946D01*
D02*
G37*
G36*
X1746946Y2995000D02*
X1730000D01*
Y2978054D01*
X1733779Y2978805D01*
X1741222Y2983778D01*
X1746195Y2991221D01*
X1746946Y2995000D01*
D02*
G37*
G36*
X1720000D02*
X1703054D01*
X1703805Y2991221D01*
X1708778Y2983778D01*
X1716221Y2978805D01*
X1720000Y2978054D01*
Y2995000D01*
D02*
G37*
G36*
X4596946D02*
X4580000D01*
Y2978054D01*
X4583779Y2978805D01*
X4591222Y2983778D01*
X4596194Y2991221D01*
X4596946Y2995000D01*
D02*
G37*
G36*
X4570000D02*
X4553054D01*
X4553806Y2991221D01*
X4558778Y2983778D01*
X4566221Y2978805D01*
X4570000Y2978054D01*
Y2995000D01*
D02*
G37*
G36*
X1805000Y2871946D02*
Y2855000D01*
X1821946D01*
X1821195Y2858779D01*
X1816222Y2866222D01*
X1808779Y2871195D01*
X1805000Y2871946D01*
D02*
G37*
G36*
X1795000D02*
X1791221Y2871195D01*
X1783778Y2866222D01*
X1778805Y2858779D01*
X1778054Y2855000D01*
X1795000D01*
Y2871946D01*
D02*
G37*
G36*
X1821946Y2845000D02*
X1805000D01*
Y2828054D01*
X1808779Y2828805D01*
X1816222Y2833778D01*
X1821195Y2841221D01*
X1821946Y2845000D01*
D02*
G37*
G36*
X1795000D02*
X1778054D01*
X1778805Y2841221D01*
X1783778Y2833778D01*
X1791221Y2828805D01*
X1795000Y2828054D01*
Y2845000D01*
D02*
G37*
G36*
X4580000Y2721946D02*
Y2705000D01*
X4596946D01*
X4596194Y2708779D01*
X4591222Y2716222D01*
X4583779Y2721195D01*
X4580000Y2721946D01*
D02*
G37*
G36*
X4570000D02*
X4566221Y2721195D01*
X4558778Y2716222D01*
X4553806Y2708779D01*
X4553054Y2705000D01*
X4570000D01*
Y2721946D01*
D02*
G37*
G36*
X1730000D02*
Y2705000D01*
X1746946D01*
X1746195Y2708779D01*
X1741222Y2716222D01*
X1733779Y2721195D01*
X1730000Y2721946D01*
D02*
G37*
G36*
X1720000D02*
X1716221Y2721195D01*
X1708778Y2716222D01*
X1703805Y2708779D01*
X1703054Y2705000D01*
X1720000D01*
Y2721946D01*
D02*
G37*
G36*
X4596946Y2695000D02*
X4580000D01*
Y2678054D01*
X4583779Y2678805D01*
X4591222Y2683778D01*
X4596194Y2691221D01*
X4596946Y2695000D01*
D02*
G37*
G36*
X4570000D02*
X4553054D01*
X4553806Y2691221D01*
X4558778Y2683778D01*
X4566221Y2678805D01*
X4570000Y2678054D01*
Y2695000D01*
D02*
G37*
G36*
X1746946D02*
X1730000D01*
Y2678054D01*
X1733779Y2678805D01*
X1741222Y2683778D01*
X1746195Y2691221D01*
X1746946Y2695000D01*
D02*
G37*
G36*
X1720000D02*
X1703054D01*
X1703805Y2691221D01*
X1708778Y2683778D01*
X1716221Y2678805D01*
X1720000Y2678054D01*
Y2695000D01*
D02*
G37*
G36*
X1805000Y2571946D02*
Y2555000D01*
X1821946D01*
X1821195Y2558779D01*
X1816222Y2566222D01*
X1808779Y2571195D01*
X1805000Y2571946D01*
D02*
G37*
G36*
X1795000D02*
X1791221Y2571195D01*
X1783778Y2566222D01*
X1778805Y2558779D01*
X1778054Y2555000D01*
X1795000D01*
Y2571946D01*
D02*
G37*
G36*
X1821946Y2545000D02*
X1805000D01*
Y2528054D01*
X1808779Y2528805D01*
X1816222Y2533778D01*
X1821195Y2541221D01*
X1821946Y2545000D01*
D02*
G37*
G36*
X1795000D02*
X1778054D01*
X1778805Y2541221D01*
X1783778Y2533778D01*
X1791221Y2528805D01*
X1795000Y2528054D01*
Y2545000D01*
D02*
G37*
G36*
X4521946D02*
X4505000D01*
Y2528054D01*
X4508779Y2528805D01*
X4516222Y2533778D01*
X4521194Y2541221D01*
X4521946Y2545000D01*
D02*
G37*
G36*
X4446946Y2395000D02*
X4430000D01*
Y2378054D01*
X4433779Y2378805D01*
X4441221Y2383778D01*
X4441222Y2383778D01*
X4446194Y2391221D01*
X4446195Y2391221D01*
X4446809Y2394308D01*
X4446946Y2395000D01*
D02*
G37*
G36*
X4355000Y2271946D02*
Y2255000D01*
X4371946D01*
X4371194Y2258779D01*
X4366222Y2266222D01*
X4358779Y2271195D01*
X4355000Y2271946D01*
D02*
G37*
G36*
X4345000D02*
X4341221Y2271195D01*
X4333778Y2266222D01*
X4328806Y2258779D01*
X4328054Y2255000D01*
X4345000D01*
Y2271946D01*
D02*
G37*
G36*
X4371946Y2245000D02*
X4355000D01*
Y2228054D01*
X4358779Y2228805D01*
X4366222Y2233778D01*
X4371194Y2241221D01*
X4371946Y2245000D01*
D02*
G37*
G36*
X4345000D02*
X4328054D01*
X4328806Y2241221D01*
X4333778Y2233778D01*
X4341221Y2228805D01*
X4345000Y2228054D01*
Y2245000D01*
D02*
G37*
G36*
X1945000D02*
X1928054D01*
X1928805Y2241221D01*
X1933778Y2233778D01*
X1941221Y2228805D01*
X1945000Y2228054D01*
Y2245000D01*
D02*
G37*
G36*
X4130000Y2121946D02*
Y2105000D01*
X4146946D01*
X4146194Y2108779D01*
X4141222Y2116222D01*
X4133779Y2121195D01*
X4130000Y2121946D01*
D02*
G37*
G36*
X4120000D02*
X4116221Y2121195D01*
X4108778Y2116222D01*
X4103806Y2108779D01*
X4103054Y2105000D01*
X4120000D01*
Y2121946D01*
D02*
G37*
G36*
X4146946Y2095000D02*
X4130000D01*
Y2078054D01*
X4133779Y2078805D01*
X4141222Y2083778D01*
X4146194Y2091221D01*
X4146946Y2095000D01*
D02*
G37*
G36*
X4120000D02*
X4103054D01*
X4103806Y2091221D01*
X4108778Y2083778D01*
X4116221Y2078805D01*
X4120000Y2078054D01*
Y2095000D01*
D02*
G37*
G36*
X2346946D02*
X2330000D01*
Y2078054D01*
X2333779Y2078805D01*
X2341222Y2083778D01*
X2346195Y2091221D01*
X2346195Y2091221D01*
X2346946Y2095000D01*
D02*
G37*
G36*
X2320000D02*
X2303054D01*
X2303805Y2091221D01*
X2303805Y2091221D01*
X2308778Y2083778D01*
X2316221Y2078805D01*
X2320000Y2078054D01*
Y2095000D01*
D02*
G37*
G36*
X3859331Y2147300D02*
X3849289Y2145978D01*
X3839932Y2142103D01*
X3831898Y2135937D01*
X3825732Y2127902D01*
X3821856Y2118545D01*
X3820534Y2108504D01*
X3821856Y2098463D01*
X3825732Y2089106D01*
X3831898Y2081071D01*
X3839932Y2074905D01*
X3849289Y2071030D01*
X3859331Y2069707D01*
X3869372Y2071030D01*
X3878729Y2074905D01*
X3886764Y2081071D01*
X3892929Y2089106D01*
X3896805Y2098463D01*
X3898127Y2108504D01*
X3896805Y2118545D01*
X3892929Y2127902D01*
X3886764Y2135937D01*
X3878729Y2142103D01*
X3869372Y2145978D01*
X3859331Y2147300D01*
D02*
G37*
G36*
X2265551Y2088110D02*
X2234961D01*
Y2014213D01*
X2265551D01*
Y2088110D01*
D02*
G37*
G36*
X2493898Y2010591D02*
X2420000D01*
Y1980000D01*
X2493898D01*
Y2010591D01*
D02*
G37*
G36*
X2410000D02*
X2336102D01*
Y1980000D01*
X2410000D01*
Y2010591D01*
D02*
G37*
G36*
X4055000Y1971946D02*
Y1955000D01*
X4071946D01*
X4071195Y1958779D01*
X4066222Y1966222D01*
X4058779Y1971195D01*
X4055000Y1971946D01*
D02*
G37*
G36*
X4045000D02*
X4041221Y1971195D01*
X4033778Y1966222D01*
X4028805Y1958779D01*
X4028054Y1955000D01*
X4045000D01*
Y1971946D01*
D02*
G37*
G36*
X3905000D02*
Y1955000D01*
X3921946D01*
X3921195Y1958779D01*
X3916222Y1966222D01*
X3908779Y1971195D01*
X3905000Y1971946D01*
D02*
G37*
G36*
X3895000D02*
X3891221Y1971195D01*
X3883778Y1966222D01*
X3878805Y1958779D01*
X3878054Y1955000D01*
X3895000D01*
Y1971946D01*
D02*
G37*
G36*
X2555000D02*
Y1955000D01*
X2571946D01*
X2571195Y1958779D01*
X2566222Y1966222D01*
X2558779Y1971195D01*
X2555000Y1971946D01*
D02*
G37*
G36*
X2545000D02*
X2541221Y1971195D01*
X2533778Y1966222D01*
X2528805Y1958779D01*
X2528054Y1955000D01*
X2545000D01*
Y1971946D01*
D02*
G37*
G36*
X2255000D02*
Y1955000D01*
X2271946D01*
X2271195Y1958779D01*
X2266222Y1966222D01*
X2258779Y1971195D01*
X2255000Y1971946D01*
D02*
G37*
G36*
X2245000D02*
X2241221Y1971195D01*
X2233778Y1966222D01*
X2228805Y1958779D01*
X2228054Y1955000D01*
X2245000D01*
Y1971946D01*
D02*
G37*
G36*
X2493898Y1970000D02*
X2420000D01*
Y1939409D01*
X2493898D01*
Y1970000D01*
D02*
G37*
G36*
X2410000D02*
X2336102D01*
Y1939409D01*
X2410000D01*
Y1970000D01*
D02*
G37*
G36*
X4071946Y1945000D02*
X4055000D01*
Y1928054D01*
X4058779Y1928805D01*
X4066222Y1933778D01*
X4071195Y1941221D01*
X4071946Y1945000D01*
D02*
G37*
G36*
X4045000D02*
X4028054D01*
X4028805Y1941221D01*
X4033778Y1933778D01*
X4041221Y1928805D01*
X4045000Y1928054D01*
Y1945000D01*
D02*
G37*
G36*
X3921946D02*
X3905000D01*
Y1928054D01*
X3908779Y1928805D01*
X3916222Y1933778D01*
X3921195Y1941221D01*
X3921946Y1945000D01*
D02*
G37*
G36*
X3895000D02*
X3878054D01*
X3878805Y1941221D01*
X3883778Y1933778D01*
X3891221Y1928805D01*
X3895000Y1928054D01*
Y1945000D01*
D02*
G37*
G36*
X2571946D02*
X2555000D01*
Y1928054D01*
X2558779Y1928805D01*
X2566222Y1933778D01*
X2571195Y1941221D01*
X2571946Y1945000D01*
D02*
G37*
G36*
X2545000D02*
X2528054D01*
X2528805Y1941221D01*
X2533778Y1933778D01*
X2541221Y1928805D01*
X2545000Y1928054D01*
Y1945000D01*
D02*
G37*
G36*
X2271946D02*
X2255000D01*
Y1928054D01*
X2258779Y1928805D01*
X2266222Y1933778D01*
X2271195Y1941221D01*
X2271946Y1945000D01*
D02*
G37*
G36*
X2245000D02*
X2228054D01*
X2228805Y1941221D01*
X2233778Y1933778D01*
X2241221Y1928805D01*
X2245000Y1928054D01*
Y1945000D01*
D02*
G37*
G36*
X3680000Y1821946D02*
Y1805000D01*
X3696946D01*
X3696195Y1808779D01*
X3691222Y1816222D01*
X3683779Y1821195D01*
X3680000Y1821946D01*
D02*
G37*
G36*
X3670000D02*
X3666221Y1821195D01*
X3658778Y1816222D01*
X3653805Y1808779D01*
X3653054Y1805000D01*
X3670000D01*
Y1821946D01*
D02*
G37*
G36*
X3530000D02*
Y1805000D01*
X3546946D01*
X3546195Y1808779D01*
X3541222Y1816222D01*
X3533779Y1821195D01*
X3530000Y1821946D01*
D02*
G37*
G36*
X3520000D02*
X3516221Y1821195D01*
X3508778Y1816222D01*
X3503805Y1808779D01*
X3503054Y1805000D01*
X3520000D01*
Y1821946D01*
D02*
G37*
G36*
X3230000D02*
Y1805000D01*
X3246946D01*
X3246195Y1808779D01*
X3241222Y1816222D01*
X3233779Y1821195D01*
X3230000Y1821946D01*
D02*
G37*
G36*
X3220000D02*
X3216221Y1821195D01*
X3208778Y1816222D01*
X3203805Y1808779D01*
X3203054Y1805000D01*
X3220000D01*
Y1821946D01*
D02*
G37*
G36*
X3080000D02*
Y1805000D01*
X3096946D01*
X3096195Y1808779D01*
X3091222Y1816222D01*
X3083779Y1821195D01*
X3080000Y1821946D01*
D02*
G37*
G36*
X3070000D02*
X3066221Y1821195D01*
X3058778Y1816222D01*
X3053805Y1808779D01*
X3053054Y1805000D01*
X3070000D01*
Y1821946D01*
D02*
G37*
G36*
X2780000D02*
Y1805000D01*
X2796946D01*
X2796195Y1808779D01*
X2791222Y1816222D01*
X2783779Y1821195D01*
X2780000Y1821946D01*
D02*
G37*
G36*
X2770000D02*
X2766221Y1821195D01*
X2758778Y1816222D01*
X2753805Y1808779D01*
X2753054Y1805000D01*
X2770000D01*
Y1821946D01*
D02*
G37*
G36*
X2480000D02*
Y1805000D01*
X2496946D01*
X2496195Y1808779D01*
X2491222Y1816222D01*
X2483779Y1821195D01*
X2480000Y1821946D01*
D02*
G37*
G36*
X2470000D02*
X2466221Y1821195D01*
X2458778Y1816222D01*
X2453805Y1808779D01*
X2453054Y1805000D01*
X2470000D01*
Y1821946D01*
D02*
G37*
G36*
X3246946Y1795000D02*
X3230000D01*
Y1778054D01*
X3233779Y1778805D01*
X3241222Y1783778D01*
X3246195Y1791221D01*
X3246946Y1795000D01*
D02*
G37*
G36*
X3220000D02*
X3203054D01*
X3203805Y1791221D01*
X3208778Y1783778D01*
X3216221Y1778805D01*
X3220000Y1778054D01*
Y1795000D01*
D02*
G37*
G36*
X3096946D02*
X3080000D01*
Y1778054D01*
X3083779Y1778805D01*
X3091222Y1783778D01*
X3096195Y1791221D01*
X3096946Y1795000D01*
D02*
G37*
G36*
X3070000D02*
X3053054D01*
X3053805Y1791221D01*
X3058778Y1783778D01*
X3066221Y1778805D01*
X3070000Y1778054D01*
Y1795000D01*
D02*
G37*
G36*
X2796946D02*
X2780000D01*
Y1778054D01*
X2783779Y1778805D01*
X2791222Y1783778D01*
X2796195Y1791221D01*
X2796946Y1795000D01*
D02*
G37*
G36*
X2770000D02*
X2753054D01*
X2753805Y1791221D01*
X2758778Y1783778D01*
X2766221Y1778805D01*
X2770000Y1778054D01*
Y1795000D01*
D02*
G37*
G36*
X2496946D02*
X2480000D01*
Y1778054D01*
X2483779Y1778805D01*
X2491222Y1783778D01*
X2496195Y1791221D01*
X2496946Y1795000D01*
D02*
G37*
G36*
X2470000D02*
X2453054D01*
X2453805Y1791221D01*
X2458778Y1783778D01*
X2466221Y1778805D01*
X2470000Y1778054D01*
Y1795000D01*
D02*
G37*
G36*
X3696946D02*
X3680000D01*
Y1778054D01*
X3683779Y1778805D01*
X3691222Y1783778D01*
X3696195Y1791221D01*
X3696946Y1795000D01*
D02*
G37*
G36*
X3670000D02*
X3653054D01*
X3653805Y1791221D01*
X3658778Y1783778D01*
X3666221Y1778805D01*
X3670000Y1778054D01*
Y1795000D01*
D02*
G37*
G36*
X3546946D02*
X3530000D01*
Y1778054D01*
X3533779Y1778805D01*
X3541222Y1783778D01*
X3546195Y1791221D01*
X3546946Y1795000D01*
D02*
G37*
G36*
X3520000D02*
X3503054D01*
X3503805Y1791221D01*
X3508778Y1783778D01*
X3516221Y1778805D01*
X3520000Y1778054D01*
Y1795000D01*
D02*
G37*
G36*
X2646946D02*
X2630000D01*
Y1778054D01*
X2633779Y1778805D01*
X2641222Y1783778D01*
X2646195Y1791221D01*
X2646195Y1791221D01*
X2646195Y1791221D01*
X2646946Y1795000D01*
D02*
G37*
G36*
X2620000D02*
X2603054D01*
X2603805Y1791221D01*
X2603805Y1791221D01*
X2608778Y1783779D01*
X2608778Y1783778D01*
X2616221Y1778806D01*
X2616221Y1778805D01*
X2619308Y1778191D01*
X2620000Y1778054D01*
Y1795000D01*
D02*
G37*
G36*
X3400000Y1868324D02*
X3386866Y1867031D01*
X3374236Y1863199D01*
X3362597Y1856978D01*
X3352395Y1848605D01*
X3344022Y1838403D01*
X3337800Y1826764D01*
X3333969Y1814134D01*
X3332676Y1801000D01*
X3333969Y1787866D01*
X3337800Y1775236D01*
X3344022Y1763597D01*
X3352395Y1753395D01*
X3362597Y1745022D01*
X3374236Y1738801D01*
X3386866Y1734969D01*
X3400000Y1733676D01*
X3413134Y1734969D01*
X3425764Y1738801D01*
X3437403Y1745022D01*
X3447605Y1753395D01*
X3455978Y1763597D01*
X3462200Y1775236D01*
X3466031Y1787866D01*
X3467324Y1801000D01*
X3466031Y1814134D01*
X3462200Y1826764D01*
X3455978Y1838403D01*
X3447605Y1848605D01*
X3437403Y1856978D01*
X3425764Y1863199D01*
X3413134Y1867031D01*
X3400000Y1868324D01*
D02*
G37*
G36*
X2900000D02*
X2886866Y1867031D01*
X2874236Y1863199D01*
X2862597Y1856978D01*
X2852395Y1848605D01*
X2844022Y1838403D01*
X2837800Y1826764D01*
X2833969Y1814134D01*
X2832676Y1801000D01*
X2833969Y1787866D01*
X2837800Y1775236D01*
X2844022Y1763597D01*
X2852395Y1753395D01*
X2862597Y1745022D01*
X2874236Y1738801D01*
X2886866Y1734969D01*
X2900000Y1733676D01*
X2913134Y1734969D01*
X2925764Y1738801D01*
X2937403Y1745022D01*
X2947605Y1753395D01*
X2955978Y1763597D01*
X2962200Y1775236D01*
X2966031Y1787866D01*
X2967324Y1801000D01*
X2966031Y1814134D01*
X2962200Y1826764D01*
X2955978Y1838403D01*
X2947605Y1848605D01*
X2937403Y1856978D01*
X2925764Y1863199D01*
X2913134Y1867031D01*
X2900000Y1868324D01*
D02*
G37*
G36*
X3155000Y1671946D02*
Y1655000D01*
X3171946D01*
X3171195Y1658779D01*
X3166222Y1666222D01*
X3158779Y1671195D01*
X3155000Y1671946D01*
D02*
G37*
G36*
X3145000D02*
X3141221Y1671195D01*
X3133778Y1666222D01*
X3128805Y1658779D01*
X3128054Y1655000D01*
X3145000D01*
Y1671946D01*
D02*
G37*
G36*
X3171946Y1645000D02*
X3155000D01*
Y1628054D01*
X3158779Y1628805D01*
X3166222Y1633778D01*
X3171195Y1641221D01*
X3171946Y1645000D01*
D02*
G37*
G36*
X3145000D02*
X3128054D01*
X3128805Y1641221D01*
X3133778Y1633778D01*
X3141221Y1628805D01*
X3145000Y1628054D01*
Y1645000D01*
D02*
G37*
%LPD*%
D10*
X4724409Y3149606D02*
G03*
X4724409Y3149606I-1574803J0D01*
G01*
D11*
X2104291Y2378504D02*
D03*
Y2441496D02*
D03*
X2710000Y2061496D02*
D03*
Y1998504D02*
D03*
Y1941496D02*
D03*
Y1878504D02*
D03*
D12*
X2209213Y2325000D02*
D03*
X2110787D02*
D03*
D13*
X3645591Y2268307D02*
D03*
X3620000D02*
D03*
X3594410D02*
D03*
Y2181693D02*
D03*
X3620000D02*
D03*
X3645591D02*
D03*
D14*
X2590433Y2645000D02*
D03*
X2523504D02*
D03*
X2371535D02*
D03*
X2438465D02*
D03*
X2153465Y3910000D02*
D03*
X2086535D02*
D03*
X2603583Y4295000D02*
D03*
X2536653D02*
D03*
X3071535Y4455000D02*
D03*
X3138465D02*
D03*
X3898461Y4193175D02*
D03*
X3831532D02*
D03*
D15*
X2230000Y2951024D02*
D03*
Y3078976D02*
D03*
D16*
X2990000Y3637500D02*
D03*
D17*
Y3730000D02*
D03*
D18*
X2480000Y3181811D02*
D03*
X2530000D02*
D03*
X2580000D02*
D03*
X2630000D02*
D03*
Y3408189D02*
D03*
X2580000D02*
D03*
X2530000D02*
D03*
X2480000D02*
D03*
D19*
X2555000Y3295000D02*
D03*
D20*
X2302500Y2485000D02*
D03*
D21*
X2210000D02*
D03*
D22*
X3430000Y4458465D02*
D03*
Y4391535D02*
D03*
D23*
X2630118Y3090000D02*
D03*
X2575000D02*
D03*
X2522559Y3055000D02*
D03*
X2467441D02*
D03*
D24*
X2415000Y2952559D02*
D03*
Y2897441D02*
D03*
D25*
X2236023Y3085000D02*
X2464646D01*
Y3065000D02*
Y3085000D01*
X2519764Y3065000D02*
Y3085000D01*
X2705000Y2066496D02*
X2710000Y2061496D01*
X2705000Y2066496D02*
Y2224095D01*
X2636496Y1878504D02*
X2710000D01*
X3740000Y2268307D02*
X4221591D01*
X3645591D02*
X3740000D01*
Y1965000D02*
Y2268307D01*
X3685000Y1910000D02*
X3740000Y1965000D01*
X2820000Y1910000D02*
X3685000D01*
X2788504Y1878504D02*
X2820000Y1910000D01*
X2710000Y1878504D02*
X2788504D01*
X3355000Y4455000D02*
X3358465Y4458465D01*
X3430000D01*
X3523465Y4465000D02*
X3573465Y4515000D01*
X3448465Y4465000D02*
X3523465D01*
X3066023Y4665000D02*
X3098071Y4632952D01*
Y4540000D02*
Y4632952D01*
X3071535Y4513465D02*
X3098071Y4540000D01*
X3071535Y4455000D02*
Y4513465D01*
Y4376535D02*
Y4455000D01*
X2925000Y4230000D02*
X3071535Y4376535D01*
X2508189Y4230000D02*
X2925000D01*
X4159082Y4255000D02*
X4177142Y4236940D01*
X3960286Y4255000D02*
X4159082D01*
X3898461Y4193175D02*
X3960286Y4255000D01*
X3898461Y3961539D02*
Y4193175D01*
X2045000Y3910000D02*
X2086535D01*
X1775000Y3640000D02*
X2045000Y3910000D01*
X1775000Y3103976D02*
Y3640000D01*
X2562441Y2897441D02*
X2565000Y2900000D01*
X1810000Y3181693D02*
Y3481614D01*
X3898461Y3961539D02*
X4325709Y3534291D01*
Y3349606D02*
Y3534291D01*
X2025000Y3635000D02*
X2250000Y3860000D01*
X2025000Y3206102D02*
Y3635000D01*
X1968504Y3149606D02*
X2025000Y3206102D01*
X2443189Y4165000D02*
X2508189Y4230000D01*
X4465000Y3105000D02*
Y3350000D01*
Y2511716D02*
Y3105000D01*
X4275315D02*
X4465000D01*
X4230709Y3149606D02*
X4275315Y3105000D01*
X4221591Y2268307D02*
X4465000Y2511716D01*
X3560000Y1950000D02*
X3620000Y2010000D01*
Y2181693D01*
X3820000Y4515000D02*
X4045000Y4290000D01*
X3763583Y4515000D02*
X3820000D01*
X4464606Y3349606D02*
X4465000Y3350000D01*
Y3933463D01*
X3243189Y4665000D02*
X3310000D01*
X3390000Y4585000D01*
X3693583D01*
X3763583Y4515000D01*
X4045000Y4290000D02*
X4180650D01*
X4217142Y4253508D01*
Y4218777D02*
Y4253508D01*
Y4218777D02*
X4312858Y4123060D01*
Y4085604D02*
Y4123060D01*
Y4085604D02*
X4465000Y3933463D01*
X1930000Y3211102D02*
X1968504Y3249606D01*
X1930000Y2410000D02*
Y3211102D01*
Y2410000D02*
X2120905Y2219095D01*
X1910000Y2345385D02*
X2070385Y2185000D01*
X2270000D01*
X2460000Y2180000D02*
X2650000Y1990000D01*
X2310000Y2180000D02*
X2460000D01*
X2270905Y2219095D02*
X2310000Y2180000D01*
X2270000Y2185000D02*
X2295000Y2160000D01*
X2120905Y2219095D02*
X2270905D01*
X2445000Y2160000D02*
X2650000Y1955000D01*
X2295000Y2160000D02*
X2445000D01*
X3480000Y1955000D02*
X3594410Y2069410D01*
X2650000Y1955000D02*
X3480000D01*
X3594410Y2069410D02*
Y2181693D01*
X3470000Y1990000D02*
X3540000Y2060000D01*
X2650000Y1990000D02*
X3470000D01*
X3540000Y2060000D02*
Y2245000D01*
X3563307Y2268307D01*
X3594410D01*
X1910000Y3296102D02*
X1963504Y3349606D01*
X1910000Y2345385D02*
Y3296102D01*
X2104291Y2378504D02*
X2105000Y2377795D01*
Y2309213D02*
Y2377795D01*
X2104291Y2309213D02*
X2105000D01*
X2480000Y2643346D02*
X2523504D01*
X2443189Y3408189D02*
X2480000D01*
X2380689Y3345689D02*
X2443189Y3408189D01*
X2347500Y3345689D02*
X2380689D01*
X2630118Y3090000D02*
Y3186693D01*
X2625000Y3085000D02*
X2960000D01*
X2630000Y3181811D02*
Y3285000D01*
X2620000Y3295000D02*
X2630000Y3285000D01*
X2555000Y3295000D02*
X2620000D01*
X2480000Y3100354D02*
Y3181811D01*
X2464646Y3085000D02*
X2480000Y3100354D01*
X2580000Y3095000D02*
Y3181811D01*
X2575000Y3090000D02*
X2580000Y3095000D01*
X2530000Y3095236D02*
Y3174016D01*
X2519764Y3085000D02*
X2530000Y3095236D01*
X4195709Y2525000D02*
X4230709Y2560000D01*
X3885000Y2525000D02*
X4195709D01*
X4295709Y3014606D02*
X4330709Y3049606D01*
X4295709Y2826567D02*
Y3014606D01*
X2235000Y3086023D02*
X2236023Y3085000D01*
X2235000Y3086023D02*
Y3210000D01*
X4344048Y2934606D02*
X4344878Y2935437D01*
X4330709Y2934606D02*
X4344048D01*
X4330709Y2833282D02*
Y2934606D01*
X4283284Y2785858D02*
X4330709Y2833282D01*
X3729142Y2785858D02*
X4283284D01*
X3668284Y2725000D02*
X3729142Y2785858D01*
X3261654Y2725000D02*
X3668284D01*
X3180000Y2643346D02*
X3261654Y2725000D01*
X3180000Y2487000D02*
X3270000Y2397000D01*
X3180000Y2487000D02*
Y2643346D01*
X3660000Y2745000D02*
X3720858Y2805858D01*
X4275000D01*
X3253369Y2745000D02*
X3660000D01*
X3160000Y2651631D02*
X3253369Y2745000D01*
X3160000Y2427000D02*
Y2651631D01*
Y2427000D02*
X3190000Y2397000D01*
X4275000Y2805858D02*
X4295709Y2826567D01*
X3870394Y3195000D02*
X4255000D01*
X3495394Y2820000D02*
X3870394Y3195000D01*
X4255000D02*
X4300394Y3149606D01*
X4330709D01*
X3233000Y2820000D02*
X3495394D01*
X3010000Y2597000D02*
X3233000Y2820000D01*
X2281732Y4086804D02*
X2489928Y4295000D01*
X2536653D01*
X1810000Y3481614D02*
X2281732Y3953347D01*
Y4086804D01*
X1810000Y3181693D02*
X1842087Y3149606D01*
X1868504D01*
X1829370Y3049606D02*
X1868504D01*
X1775000Y3103976D02*
X1829370Y3049606D01*
X2086535Y3910000D02*
Y4063465D01*
X2026940Y4123060D02*
X2086535Y4063465D01*
X1984283Y4123060D02*
X2026940D01*
X2536653Y4295000D02*
X2541417Y4299764D01*
X2542205D01*
Y4514213D01*
X2541417Y4515000D02*
X2542205Y4514213D01*
X2120000Y4236940D02*
X2126235Y4243175D01*
X2415000Y2897441D02*
X2562441D01*
X2325000Y3323189D02*
X2347500Y3345689D01*
X2440118Y2643346D02*
X2480000D01*
X2475000Y2638346D02*
X2480000Y2643346D01*
X2475000Y2570000D02*
Y2638346D01*
X2337441Y2897441D02*
X2415000D01*
X2315000Y2875000D02*
X2337441Y2897441D01*
X2247047Y2875000D02*
X2315000D01*
X2236023Y2886023D02*
X2247047Y2875000D01*
X2236023Y2886023D02*
Y2945000D01*
X2230000Y2951024D02*
X2236023Y2945000D01*
X2438465Y2645000D02*
X2440118Y2643346D01*
X2302500Y2485000D02*
X2515000D01*
X2590433Y2560433D01*
Y2643346D01*
X2960000Y3085000D02*
X3145000Y2900000D01*
X2415000Y2952559D02*
Y3082441D01*
Y2952559D02*
X2792441D01*
X2845000Y2900000D01*
D26*
X2065000Y3475000D02*
X2313465Y3723465D01*
X2065000Y3146102D02*
Y3475000D01*
X1968504Y3049606D02*
X2065000Y3146102D01*
X2302500Y2331595D02*
Y2485000D01*
Y2331595D02*
X2415000Y2219095D01*
X2845000Y2335000D02*
Y2900000D01*
Y2335000D02*
X2930000Y2250000D01*
X2104291Y2441496D02*
X2147795Y2485000D01*
X2210000D01*
X2313465Y3723465D02*
Y3918465D01*
X2450000Y4055000D01*
X2850000D01*
X2990000Y3730000D02*
Y3915000D01*
X2850000Y4055000D02*
X2990000Y3915000D01*
Y3442000D02*
X2995000Y3437000D01*
X2990000Y3442000D02*
Y3637500D01*
X1968504Y2949606D02*
Y3049606D01*
Y2726496D02*
Y2949606D01*
Y2726496D02*
X2210000Y2485000D01*
X2845000Y3437000D02*
X2995000D01*
X2930000Y2121000D02*
Y2250000D01*
Y2060000D02*
Y2121000D01*
D27*
X2664997Y2385000D02*
D03*
X3864997Y3695000D02*
D03*
X2334997Y3525000D02*
D03*
X1984283Y4123060D02*
D03*
X2120000Y4236940D02*
D03*
X3230000Y2497000D02*
D03*
X3310000D02*
D03*
X3390000D02*
D03*
X3070000D02*
D03*
X2990000D02*
D03*
X2910000D02*
D03*
X2950000Y2397000D02*
D03*
X3030000D02*
D03*
X3110000D02*
D03*
X3190000D02*
D03*
X3270000D02*
D03*
X3350000D02*
D03*
X2718583Y4515000D02*
D03*
X2541417D02*
D03*
X3243189Y4665000D02*
D03*
X3066023D02*
D03*
X3763583Y4515000D02*
D03*
X3586417D02*
D03*
X4312858Y4123060D02*
D03*
X4177142Y4236940D02*
D03*
X4330709Y2949606D02*
D03*
Y3049606D02*
D03*
Y3149606D02*
D03*
Y3249606D02*
D03*
X4325709Y3349606D02*
D03*
X4230709D02*
D03*
Y3249606D02*
D03*
Y3149606D02*
D03*
Y3049606D02*
D03*
Y2949606D02*
D03*
X1968504D02*
D03*
Y3049606D02*
D03*
Y3149606D02*
D03*
Y3249606D02*
D03*
X1963504Y3349606D02*
D03*
X1868504D02*
D03*
Y3249606D02*
D03*
Y3149606D02*
D03*
Y3049606D02*
D03*
Y2949606D02*
D03*
D28*
X3859331Y2108504D02*
D03*
Y2384095D02*
D03*
D29*
X2009851Y4016029D02*
D03*
X2220965Y4193175D02*
D03*
X2767795Y4416575D02*
D03*
X2492205D02*
D03*
X3292401Y4566575D02*
D03*
X3016811D02*
D03*
X3812795Y4416575D02*
D03*
X3537205D02*
D03*
X4287291Y4016029D02*
D03*
X4076176Y4193175D02*
D03*
D30*
X2930000Y2121000D02*
D03*
X3370000D02*
D03*
X2930000Y2060000D02*
D03*
X3370000D02*
D03*
D31*
X2910000Y2597000D02*
D03*
X3010000D02*
D03*
X3290000D02*
D03*
X3390000D02*
D03*
D32*
X2900000Y1801000D02*
D03*
X3400000D02*
D03*
D33*
X2828000Y1676000D02*
D03*
X3472000D02*
D03*
D34*
X2845000Y3437000D02*
D03*
X3445000D02*
D03*
D35*
X2995000D02*
D03*
X3145000D02*
D03*
X3295000D02*
D03*
X2845000Y2900000D02*
D03*
X3145000D02*
D03*
X3445000D02*
D03*
D36*
X2229961Y2093110D02*
D03*
D37*
X2415000Y1975000D02*
D03*
D38*
Y2219095D02*
D03*
D39*
X4500000Y3750000D02*
D03*
X4575000Y3600000D02*
D03*
X4500000Y3450000D02*
D03*
X4575000Y3300000D02*
D03*
X4500000Y3150000D02*
D03*
X4575000Y3000000D02*
D03*
X4500000Y2850000D02*
D03*
X4575000Y2700000D02*
D03*
X4500000Y2550000D02*
D03*
X4425000Y3900000D02*
D03*
X4350000Y3750000D02*
D03*
X4425000Y3600000D02*
D03*
X4350000Y3450000D02*
D03*
X4425000Y3000000D02*
D03*
Y2700000D02*
D03*
X4350000Y2550000D02*
D03*
X4425000Y2400000D02*
D03*
X4350000Y2250000D02*
D03*
X4200000Y4050000D02*
D03*
X4275000Y3900000D02*
D03*
X4200000Y3450000D02*
D03*
Y2850000D02*
D03*
X4275000Y2700000D02*
D03*
Y2400000D02*
D03*
X4050000Y4050000D02*
D03*
X4125000Y3900000D02*
D03*
X4050000Y3750000D02*
D03*
X4125000Y3600000D02*
D03*
X4050000Y3450000D02*
D03*
X4125000Y3000000D02*
D03*
X4050000Y2850000D02*
D03*
X4125000Y2700000D02*
D03*
X4050000Y2550000D02*
D03*
X4125000Y2400000D02*
D03*
Y2100000D02*
D03*
X4050000Y1950000D02*
D03*
X3900000Y4350000D02*
D03*
X3975000Y4200000D02*
D03*
Y3600000D02*
D03*
X3900000Y3450000D02*
D03*
X3975000Y3300000D02*
D03*
X3900000Y3150000D02*
D03*
X3975000Y3000000D02*
D03*
X3900000Y2850000D02*
D03*
X3975000Y2700000D02*
D03*
Y2400000D02*
D03*
X3900000Y1950000D02*
D03*
X3750000Y4350000D02*
D03*
Y4050000D02*
D03*
X3825000Y3900000D02*
D03*
X3750000Y3750000D02*
D03*
X3825000Y3600000D02*
D03*
X3750000Y3450000D02*
D03*
X3825000Y3300000D02*
D03*
Y2700000D02*
D03*
X3750000Y2550000D02*
D03*
X3675000Y4500000D02*
D03*
X3600000Y4350000D02*
D03*
X3675000Y4200000D02*
D03*
Y3900000D02*
D03*
X3600000Y3750000D02*
D03*
X3675000Y3600000D02*
D03*
X3600000Y3450000D02*
D03*
X3675000Y3300000D02*
D03*
X3600000Y3150000D02*
D03*
Y2850000D02*
D03*
X3675000Y1800000D02*
D03*
X3450000Y4350000D02*
D03*
X3525000Y4200000D02*
D03*
Y3900000D02*
D03*
Y3600000D02*
D03*
Y3300000D02*
D03*
X3450000Y3150000D02*
D03*
X3525000Y3000000D02*
D03*
X3450000Y2550000D02*
D03*
X3525000Y2400000D02*
D03*
X3450000Y2250000D02*
D03*
X3525000Y1800000D02*
D03*
X3300000Y4350000D02*
D03*
X3375000Y4200000D02*
D03*
Y3600000D02*
D03*
Y3300000D02*
D03*
X3300000Y3150000D02*
D03*
X3375000Y3000000D02*
D03*
X3300000Y2850000D02*
D03*
X3375000Y2700000D02*
D03*
X3300000Y2550000D02*
D03*
Y2250000D02*
D03*
X3150000Y4350000D02*
D03*
X3225000Y4200000D02*
D03*
X3150000Y4050000D02*
D03*
Y3750000D02*
D03*
X3225000Y3600000D02*
D03*
Y3300000D02*
D03*
X3150000Y3150000D02*
D03*
X3225000Y3000000D02*
D03*
Y2100000D02*
D03*
Y1800000D02*
D03*
X3150000Y1650000D02*
D03*
X3000000Y4350000D02*
D03*
X3075000Y4200000D02*
D03*
Y3900000D02*
D03*
Y3600000D02*
D03*
Y3300000D02*
D03*
X3000000Y3150000D02*
D03*
Y2850000D02*
D03*
X3075000Y2700000D02*
D03*
X3000000Y2550000D02*
D03*
Y2250000D02*
D03*
X3075000Y2100000D02*
D03*
Y1800000D02*
D03*
X2925000Y4200000D02*
D03*
Y3900000D02*
D03*
X2850000Y3750000D02*
D03*
X2925000Y3600000D02*
D03*
Y3300000D02*
D03*
X2850000Y3150000D02*
D03*
X2925000Y3000000D02*
D03*
Y2700000D02*
D03*
X2850000Y2250000D02*
D03*
X2775000Y4200000D02*
D03*
Y3900000D02*
D03*
X2700000Y3750000D02*
D03*
X2775000Y3600000D02*
D03*
X2700000Y3450000D02*
D03*
X2775000Y3300000D02*
D03*
X2700000Y3150000D02*
D03*
Y2850000D02*
D03*
X2775000Y2700000D02*
D03*
X2700000Y2550000D02*
D03*
X2775000Y2400000D02*
D03*
Y2100000D02*
D03*
Y1800000D02*
D03*
X2625000Y4500000D02*
D03*
Y4200000D02*
D03*
Y3900000D02*
D03*
Y3600000D02*
D03*
Y3000000D02*
D03*
X2550000Y2850000D02*
D03*
X2625000Y2700000D02*
D03*
X2550000Y2250000D02*
D03*
Y1950000D02*
D03*
X2625000Y1800000D02*
D03*
X2475000Y4500000D02*
D03*
X2400000Y4050000D02*
D03*
X2475000Y3900000D02*
D03*
X2400000Y3750000D02*
D03*
X2475000Y3600000D02*
D03*
X2400000Y3450000D02*
D03*
X2475000Y3300000D02*
D03*
X2400000Y3150000D02*
D03*
X2475000Y3000000D02*
D03*
X2400000Y2850000D02*
D03*
X2475000Y2700000D02*
D03*
X2400000Y2550000D02*
D03*
X2475000Y2400000D02*
D03*
Y1800000D02*
D03*
X2250000Y4050000D02*
D03*
Y3450000D02*
D03*
Y2850000D02*
D03*
Y2250000D02*
D03*
X2325000Y2100000D02*
D03*
X2250000Y1950000D02*
D03*
X2100000Y3450000D02*
D03*
X2175000Y3300000D02*
D03*
X2100000Y3150000D02*
D03*
X2175000Y3000000D02*
D03*
Y2700000D02*
D03*
Y2400000D02*
D03*
Y2100000D02*
D03*
X1950000Y4050000D02*
D03*
Y3750000D02*
D03*
Y3450000D02*
D03*
X2025000Y3000000D02*
D03*
X1950000Y2250000D02*
D03*
X1875000Y3900000D02*
D03*
X1800000Y3750000D02*
D03*
X1875000Y3600000D02*
D03*
Y3300000D02*
D03*
Y3000000D02*
D03*
X1800000Y2850000D02*
D03*
X1875000Y2700000D02*
D03*
X1800000Y2550000D02*
D03*
X1875000Y2400000D02*
D03*
X1725000Y3600000D02*
D03*
Y3300000D02*
D03*
X1650000Y3150000D02*
D03*
X1725000Y3000000D02*
D03*
Y2700000D02*
D03*
X2260000Y2377795D02*
D03*
X2695000Y4137816D02*
D03*
X2675000Y4350000D02*
D03*
D40*
X2705000Y2224095D02*
D03*
X2636496Y1878504D02*
D03*
X3355000Y4455000D02*
D03*
X2565000Y2900000D02*
D03*
X2250000Y3860000D02*
D03*
X2443189Y4165000D02*
D03*
X3560000Y1950000D02*
D03*
X4230709Y2560000D02*
D03*
X3885000Y2525000D02*
D03*
X2235000Y3210000D02*
D03*
X2475000Y2570000D02*
D03*
X2325000Y3323189D02*
D03*
%TF.MD5,f365208bb25912b3ae2877b22e6b4d46*%
M02*
