%TF.GenerationSoftware,Altium Limited,Altium Designer,18.1.6 (161)*%
G04 Layer_Color=2752767*
%FSLAX26Y26*%
%MOIN*%
%TF.FileFunction,Drawing*%
%TF.Part,Single*%
G01*
G75*
%TA.AperFunction,NonConductor*%
%ADD48C,0.005000*%
%ADD110C,0.006667*%
%ADD111C,0.004000*%
D48*
X2644997Y2365000D02*
Y2405000D01*
X2684997D01*
Y2365000D01*
X2644997D01*
X3844997Y3675000D02*
Y3715000D01*
X3884997D01*
Y3675000D01*
X3844997D01*
X2314997Y3505000D02*
Y3545000D01*
X2354997D01*
Y3505000D01*
X2314997D01*
X1984283Y4103060D02*
X1964283Y4143060D01*
X2004283D01*
X1984283Y4103060D01*
X2120000Y4216940D02*
X2100000Y4256940D01*
X2140000D01*
X2120000Y4216940D01*
X2009851Y3996029D02*
X2019851Y4006029D01*
X2029851D01*
X2019851Y4016029D01*
X2029851Y4026029D01*
X2019851D01*
X2009851Y4036029D01*
X1999851Y4026029D01*
X1989851D01*
X1999851Y4016029D01*
X1989851Y4006029D01*
X1999851D01*
X2009851Y3996029D01*
X2220965Y4173175D02*
X2230965Y4183175D01*
X2240965D01*
X2230965Y4193175D01*
X2240965Y4203175D01*
X2230965D01*
X2220965Y4213175D01*
X2210965Y4203175D01*
X2200965D01*
X2210965Y4193175D01*
X2200965Y4183175D01*
X2210965D01*
X2220965Y4173175D01*
X3210000Y2477000D02*
X3220000Y2497000D01*
X3210000Y2517000D01*
X3230000Y2507000D01*
X3250000Y2517000D01*
X3240000Y2497000D01*
X3250000Y2477000D01*
X3230000Y2487000D01*
X3210000Y2477000D01*
X3290000D02*
X3300000Y2497000D01*
X3290000Y2517000D01*
X3310000Y2507000D01*
X3330000Y2517000D01*
X3320000Y2497000D01*
X3330000Y2477000D01*
X3310000Y2487000D01*
X3290000Y2477000D01*
X3370000D02*
X3380000Y2497000D01*
X3370000Y2517000D01*
X3390000Y2507000D01*
X3410000Y2517000D01*
X3400000Y2497000D01*
X3410000Y2477000D01*
X3390000Y2487000D01*
X3370000Y2477000D01*
X3050000D02*
X3060000Y2497000D01*
X3050000Y2517000D01*
X3070000Y2507000D01*
X3090000Y2517000D01*
X3080000Y2497000D01*
X3090000Y2477000D01*
X3070000Y2487000D01*
X3050000Y2477000D01*
X2970000D02*
X2980000Y2497000D01*
X2970000Y2517000D01*
X2990000Y2507000D01*
X3010000Y2517000D01*
X3000000Y2497000D01*
X3010000Y2477000D01*
X2990000Y2487000D01*
X2970000Y2477000D01*
X2890000D02*
X2900000Y2497000D01*
X2890000Y2517000D01*
X2910000Y2507000D01*
X2930000Y2517000D01*
X2920000Y2497000D01*
X2930000Y2477000D01*
X2910000Y2487000D01*
X2890000Y2477000D01*
X2930000Y2377000D02*
X2940000Y2397000D01*
X2930000Y2417000D01*
X2950000Y2407000D01*
X2970000Y2417000D01*
X2960000Y2397000D01*
X2970000Y2377000D01*
X2950000Y2387000D01*
X2930000Y2377000D01*
X3010000D02*
X3020000Y2397000D01*
X3010000Y2417000D01*
X3030000Y2407000D01*
X3050000Y2417000D01*
X3040000Y2397000D01*
X3050000Y2377000D01*
X3030000Y2387000D01*
X3010000Y2377000D01*
X3090000D02*
X3100000Y2397000D01*
X3090000Y2417000D01*
X3110000Y2407000D01*
X3130000Y2417000D01*
X3120000Y2397000D01*
X3130000Y2377000D01*
X3110000Y2387000D01*
X3090000Y2377000D01*
X3170000D02*
X3180000Y2397000D01*
X3170000Y2417000D01*
X3190000Y2407000D01*
X3210000Y2417000D01*
X3200000Y2397000D01*
X3210000Y2377000D01*
X3190000Y2387000D01*
X3170000Y2377000D01*
X3250000D02*
X3260000Y2397000D01*
X3250000Y2417000D01*
X3270000Y2407000D01*
X3290000Y2417000D01*
X3280000Y2397000D01*
X3290000Y2377000D01*
X3270000Y2387000D01*
X3250000Y2377000D01*
X3330000D02*
X3340000Y2397000D01*
X3330000Y2417000D01*
X3350000Y2407000D01*
X3370000Y2417000D01*
X3360000Y2397000D01*
X3370000Y2377000D01*
X3350000Y2387000D01*
X3330000Y2377000D01*
X2910000Y2101000D02*
X2920000Y2121000D01*
X2910000Y2141000D01*
X2930000Y2131000D01*
X2950000Y2141000D01*
X2940000Y2121000D01*
X2950000Y2101000D01*
X2930000Y2111000D01*
X2910000Y2101000D01*
X3350000D02*
X3360000Y2121000D01*
X3350000Y2141000D01*
X3370000Y2131000D01*
X3390000Y2141000D01*
X3380000Y2121000D01*
X3390000Y2101000D01*
X3370000Y2111000D01*
X3350000Y2101000D01*
X2910000Y2040000D02*
X2920000Y2060000D01*
X2910000Y2080000D01*
X2930000Y2070000D01*
X2950000Y2080000D01*
X2940000Y2060000D01*
X2950000Y2040000D01*
X2930000Y2050000D01*
X2910000Y2040000D01*
X3350000D02*
X3360000Y2060000D01*
X3350000Y2080000D01*
X3370000Y2070000D01*
X3390000Y2080000D01*
X3380000Y2060000D01*
X3390000Y2040000D01*
X3370000Y2050000D01*
X3350000Y2040000D01*
X2900000Y2587000D02*
Y2577000D01*
X2920000D01*
Y2587000D01*
X2930000D01*
Y2607000D01*
X2920000D01*
Y2617000D01*
X2900000D01*
Y2607000D01*
X2890000D01*
Y2587000D01*
X2900000D01*
X3000000D02*
Y2577000D01*
X3020000D01*
Y2587000D01*
X3030000D01*
Y2607000D01*
X3020000D01*
Y2617000D01*
X3000000D01*
Y2607000D01*
X2990000D01*
Y2587000D01*
X3000000D01*
X3280000D02*
Y2577000D01*
X3300000D01*
Y2587000D01*
X3310000D01*
Y2607000D01*
X3300000D01*
Y2617000D01*
X3280000D01*
Y2607000D01*
X3270000D01*
Y2587000D01*
X3280000D01*
X3380000D02*
Y2577000D01*
X3400000D01*
Y2587000D01*
X3410000D01*
Y2607000D01*
X3400000D01*
Y2617000D01*
X3380000D01*
Y2607000D01*
X3370000D01*
Y2587000D01*
X3380000D01*
X2880000Y1781000D02*
X2890000D01*
X2900000Y1791000D01*
X2910000Y1781000D01*
X2920000D01*
Y1791000D01*
X2910000Y1801000D01*
X2920000Y1811000D01*
Y1821000D01*
X2910000D01*
X2900000Y1811000D01*
X2890000Y1821000D01*
X2880000D01*
Y1811000D01*
X2890000Y1801000D01*
X2880000Y1791000D01*
Y1781000D01*
X3380000D02*
X3390000D01*
X3400000Y1791000D01*
X3410000Y1781000D01*
X3420000D01*
Y1791000D01*
X3410000Y1801000D01*
X3420000Y1811000D01*
Y1821000D01*
X3410000D01*
X3400000Y1811000D01*
X3390000Y1821000D01*
X3380000D01*
Y1811000D01*
X3390000Y1801000D01*
X3380000Y1791000D01*
Y1781000D01*
X2808000Y1676000D02*
X2828000Y1696000D01*
X2848000Y1676000D01*
X2828000Y1656000D01*
X2808000Y1676000D01*
X3452000D02*
X3472000Y1696000D01*
X3492000Y1676000D01*
X3472000Y1656000D01*
X3452000Y1676000D01*
X2767795Y4396575D02*
X2777795Y4406575D01*
X2787795D01*
X2777795Y4416575D01*
X2787795Y4426575D01*
X2777795D01*
X2767795Y4436575D01*
X2757795Y4426575D01*
X2747795D01*
X2757795Y4416575D01*
X2747795Y4406575D01*
X2757795D01*
X2767795Y4396575D01*
X2492205D02*
X2502205Y4406575D01*
X2512205D01*
X2502205Y4416575D01*
X2512205Y4426575D01*
X2502205D01*
X2492205Y4436575D01*
X2482205Y4426575D01*
X2472205D01*
X2482205Y4416575D01*
X2472205Y4406575D01*
X2482205D01*
X2492205Y4396575D01*
X2718583Y4495000D02*
X2698583Y4535000D01*
X2738583D01*
X2718583Y4495000D01*
X2541417D02*
X2521417Y4535000D01*
X2561417D01*
X2541417Y4495000D01*
X3292401Y4546575D02*
X3302401Y4556575D01*
X3312401D01*
X3302401Y4566575D01*
X3312401Y4576575D01*
X3302401D01*
X3292401Y4586575D01*
X3282401Y4576575D01*
X3272401D01*
X3282401Y4566575D01*
X3272401Y4556575D01*
X3282401D01*
X3292401Y4546575D01*
X3016811D02*
X3026811Y4556575D01*
X3036811D01*
X3026811Y4566575D01*
X3036811Y4576575D01*
X3026811D01*
X3016811Y4586575D01*
X3006811Y4576575D01*
X2996811D01*
X3006811Y4566575D01*
X2996811Y4556575D01*
X3006811D01*
X3016811Y4546575D01*
X3243189Y4645000D02*
X3223189Y4685000D01*
X3263189D01*
X3243189Y4645000D01*
X3066023D02*
X3046023Y4685000D01*
X3086023D01*
X3066023Y4645000D01*
X3812795Y4396575D02*
X3822795Y4406575D01*
X3832795D01*
X3822795Y4416575D01*
X3832795Y4426575D01*
X3822795D01*
X3812795Y4436575D01*
X3802795Y4426575D01*
X3792795D01*
X3802795Y4416575D01*
X3792795Y4406575D01*
X3802795D01*
X3812795Y4396575D01*
X3537205D02*
X3547205Y4406575D01*
X3557205D01*
X3547205Y4416575D01*
X3557205Y4426575D01*
X3547205D01*
X3537205Y4436575D01*
X3527205Y4426575D01*
X3517205D01*
X3527205Y4416575D01*
X3517205Y4406575D01*
X3527205D01*
X3537205Y4396575D01*
X3763583Y4495000D02*
X3743583Y4535000D01*
X3783583D01*
X3763583Y4495000D01*
X3586417D02*
X3566417Y4535000D01*
X3606417D01*
X3586417Y4495000D01*
X4287291Y3996029D02*
X4297291Y4006029D01*
X4307291D01*
X4297291Y4016029D01*
X4307291Y4026029D01*
X4297291D01*
X4287291Y4036029D01*
X4277291Y4026029D01*
X4267291D01*
X4277291Y4016029D01*
X4267291Y4006029D01*
X4277291D01*
X4287291Y3996029D01*
X4076176Y4173175D02*
X4086176Y4183175D01*
X4096176D01*
X4086176Y4193175D01*
X4096176Y4203175D01*
X4086176D01*
X4076176Y4213175D01*
X4066176Y4203175D01*
X4056176D01*
X4066176Y4193175D01*
X4056176Y4183175D01*
X4066176D01*
X4076176Y4173175D01*
X4312858Y4103060D02*
X4292858Y4143060D01*
X4332858D01*
X4312858Y4103060D01*
X4177142Y4216940D02*
X4157142Y4256940D01*
X4197142D01*
X4177142Y4216940D01*
X2825000Y3417000D02*
Y3457000D01*
X2865000D01*
Y3417000D01*
X2825000D01*
X2833000Y3425000D02*
Y3449000D01*
X2857000D01*
Y3425000D01*
X2833000D01*
X3425000Y3417000D02*
Y3457000D01*
X3465000D01*
Y3417000D01*
X3425000D01*
X3433000Y3425000D02*
Y3449000D01*
X3457000D01*
Y3425000D01*
X3433000D01*
X2229961Y2073110D02*
X2209961Y2113110D01*
X2249961D01*
X2229961Y2073110D01*
Y2081110D02*
X2217961Y2105110D01*
X2241961D01*
X2229961Y2081110D01*
X2415000Y1955000D02*
X2395000Y1995000D01*
X2435000D01*
X2415000Y1955000D01*
Y1963000D02*
X2403000Y1987000D01*
X2427000D01*
X2415000Y1963000D01*
Y2199095D02*
X2425000Y2209095D01*
X2435000D01*
X2425000Y2219095D01*
X2435000Y2229095D01*
X2425000D01*
X2415000Y2239095D01*
X2405000Y2229095D01*
X2395000D01*
X2405000Y2219095D01*
X2395000Y2209095D01*
X2405000D01*
X2415000Y2199095D01*
Y2207095D02*
X2421000Y2213095D01*
X2427000D01*
X2421000Y2219095D01*
X2427000Y2225095D01*
X2421000D01*
X2415000Y2231095D01*
X2409000Y2225095D01*
X2403000D01*
X2409000Y2219095D01*
X2403000Y2213095D01*
X2409000D01*
X2415000Y2207095D01*
X4320709Y2939606D02*
Y2929606D01*
X4340709D01*
Y2939606D01*
X4350709D01*
Y2959606D01*
X4340709D01*
Y2969606D01*
X4320709D01*
Y2959606D01*
X4310709D01*
Y2939606D01*
X4320709D01*
Y3039606D02*
Y3029606D01*
X4340709D01*
Y3039606D01*
X4350709D01*
Y3059606D01*
X4340709D01*
Y3069606D01*
X4320709D01*
Y3059606D01*
X4310709D01*
Y3039606D01*
X4320709D01*
Y3139606D02*
Y3129606D01*
X4340709D01*
Y3139606D01*
X4350709D01*
Y3159606D01*
X4340709D01*
Y3169606D01*
X4320709D01*
Y3159606D01*
X4310709D01*
Y3139606D01*
X4320709D01*
Y3239606D02*
Y3229606D01*
X4340709D01*
Y3239606D01*
X4350709D01*
Y3259606D01*
X4340709D01*
Y3269606D01*
X4320709D01*
Y3259606D01*
X4310709D01*
Y3239606D01*
X4320709D01*
X4315709Y3339606D02*
Y3329606D01*
X4335709D01*
Y3339606D01*
X4345709D01*
Y3359606D01*
X4335709D01*
Y3369606D01*
X4315709D01*
Y3359606D01*
X4305709D01*
Y3339606D01*
X4315709D01*
X4220709D02*
Y3329606D01*
X4240709D01*
Y3339606D01*
X4250709D01*
Y3359606D01*
X4240709D01*
Y3369606D01*
X4220709D01*
Y3359606D01*
X4210709D01*
Y3339606D01*
X4220709D01*
Y3239606D02*
Y3229606D01*
X4240709D01*
Y3239606D01*
X4250709D01*
Y3259606D01*
X4240709D01*
Y3269606D01*
X4220709D01*
Y3259606D01*
X4210709D01*
Y3239606D01*
X4220709D01*
Y3139606D02*
Y3129606D01*
X4240709D01*
Y3139606D01*
X4250709D01*
Y3159606D01*
X4240709D01*
Y3169606D01*
X4220709D01*
Y3159606D01*
X4210709D01*
Y3139606D01*
X4220709D01*
Y3039606D02*
Y3029606D01*
X4240709D01*
Y3039606D01*
X4250709D01*
Y3059606D01*
X4240709D01*
Y3069606D01*
X4220709D01*
Y3059606D01*
X4210709D01*
Y3039606D01*
X4220709D01*
Y2939606D02*
Y2929606D01*
X4240709D01*
Y2939606D01*
X4250709D01*
Y2959606D01*
X4240709D01*
Y2969606D01*
X4220709D01*
Y2959606D01*
X4210709D01*
Y2939606D01*
X4220709D01*
X1958504D02*
Y2929606D01*
X1978504D01*
Y2939606D01*
X1988504D01*
Y2959606D01*
X1978504D01*
Y2969606D01*
X1958504D01*
Y2959606D01*
X1948504D01*
Y2939606D01*
X1958504D01*
Y3039606D02*
Y3029606D01*
X1978504D01*
Y3039606D01*
X1988504D01*
Y3059606D01*
X1978504D01*
Y3069606D01*
X1958504D01*
Y3059606D01*
X1948504D01*
Y3039606D01*
X1958504D01*
Y3139606D02*
Y3129606D01*
X1978504D01*
Y3139606D01*
X1988504D01*
Y3159606D01*
X1978504D01*
Y3169606D01*
X1958504D01*
Y3159606D01*
X1948504D01*
Y3139606D01*
X1958504D01*
Y3239606D02*
Y3229606D01*
X1978504D01*
Y3239606D01*
X1988504D01*
Y3259606D01*
X1978504D01*
Y3269606D01*
X1958504D01*
Y3259606D01*
X1948504D01*
Y3239606D01*
X1958504D01*
X1953504Y3339606D02*
Y3329606D01*
X1973504D01*
Y3339606D01*
X1983504D01*
Y3359606D01*
X1973504D01*
Y3369606D01*
X1953504D01*
Y3359606D01*
X1943504D01*
Y3339606D01*
X1953504D01*
X1858504D02*
Y3329606D01*
X1878504D01*
Y3339606D01*
X1888504D01*
Y3359606D01*
X1878504D01*
Y3369606D01*
X1858504D01*
Y3359606D01*
X1848504D01*
Y3339606D01*
X1858504D01*
Y3239606D02*
Y3229606D01*
X1878504D01*
Y3239606D01*
X1888504D01*
Y3259606D01*
X1878504D01*
Y3269606D01*
X1858504D01*
Y3259606D01*
X1848504D01*
Y3239606D01*
X1858504D01*
Y3139606D02*
Y3129606D01*
X1878504D01*
Y3139606D01*
X1888504D01*
Y3159606D01*
X1878504D01*
Y3169606D01*
X1858504D01*
Y3159606D01*
X1848504D01*
Y3139606D01*
X1858504D01*
Y3039606D02*
Y3029606D01*
X1878504D01*
Y3039606D01*
X1888504D01*
Y3059606D01*
X1878504D01*
Y3069606D01*
X1858504D01*
Y3059606D01*
X1848504D01*
Y3039606D01*
X1858504D01*
Y2939606D02*
Y2929606D01*
X1878504D01*
Y2939606D01*
X1888504D01*
Y2959606D01*
X1878504D01*
Y2969606D01*
X1858504D01*
Y2959606D01*
X1848504D01*
Y2939606D01*
X1858504D01*
X4480000Y3730000D02*
X4490000Y3750000D01*
X4480000Y3770000D01*
X4500000Y3760000D01*
X4520000Y3770000D01*
X4510000Y3750000D01*
X4520000Y3730000D01*
X4500000Y3740000D01*
X4480000Y3730000D01*
X4488000Y3738000D02*
X4494000Y3750000D01*
X4488000Y3762000D01*
X4500000Y3756000D01*
X4512000Y3762000D01*
X4506000Y3750000D01*
X4512000Y3738000D01*
X4500000Y3744000D01*
X4488000Y3738000D01*
X4555000Y3580000D02*
X4565000Y3600000D01*
X4555000Y3620000D01*
X4575000Y3610000D01*
X4595000Y3620000D01*
X4585000Y3600000D01*
X4595000Y3580000D01*
X4575000Y3590000D01*
X4555000Y3580000D01*
X4563000Y3588000D02*
X4569000Y3600000D01*
X4563000Y3612000D01*
X4575000Y3606000D01*
X4587000Y3612000D01*
X4581000Y3600000D01*
X4587000Y3588000D01*
X4575000Y3594000D01*
X4563000Y3588000D01*
X4480000Y3430000D02*
X4490000Y3450000D01*
X4480000Y3470000D01*
X4500000Y3460000D01*
X4520000Y3470000D01*
X4510000Y3450000D01*
X4520000Y3430000D01*
X4500000Y3440000D01*
X4480000Y3430000D01*
X4488000Y3438000D02*
X4494000Y3450000D01*
X4488000Y3462000D01*
X4500000Y3456000D01*
X4512000Y3462000D01*
X4506000Y3450000D01*
X4512000Y3438000D01*
X4500000Y3444000D01*
X4488000Y3438000D01*
X4555000Y3280000D02*
X4565000Y3300000D01*
X4555000Y3320000D01*
X4575000Y3310000D01*
X4595000Y3320000D01*
X4585000Y3300000D01*
X4595000Y3280000D01*
X4575000Y3290000D01*
X4555000Y3280000D01*
X4563000Y3288000D02*
X4569000Y3300000D01*
X4563000Y3312000D01*
X4575000Y3306000D01*
X4587000Y3312000D01*
X4581000Y3300000D01*
X4587000Y3288000D01*
X4575000Y3294000D01*
X4563000Y3288000D01*
X4480000Y3130000D02*
X4490000Y3150000D01*
X4480000Y3170000D01*
X4500000Y3160000D01*
X4520000Y3170000D01*
X4510000Y3150000D01*
X4520000Y3130000D01*
X4500000Y3140000D01*
X4480000Y3130000D01*
X4488000Y3138000D02*
X4494000Y3150000D01*
X4488000Y3162000D01*
X4500000Y3156000D01*
X4512000Y3162000D01*
X4506000Y3150000D01*
X4512000Y3138000D01*
X4500000Y3144000D01*
X4488000Y3138000D01*
X4555000Y2980000D02*
X4565000Y3000000D01*
X4555000Y3020000D01*
X4575000Y3010000D01*
X4595000Y3020000D01*
X4585000Y3000000D01*
X4595000Y2980000D01*
X4575000Y2990000D01*
X4555000Y2980000D01*
X4563000Y2988000D02*
X4569000Y3000000D01*
X4563000Y3012000D01*
X4575000Y3006000D01*
X4587000Y3012000D01*
X4581000Y3000000D01*
X4587000Y2988000D01*
X4575000Y2994000D01*
X4563000Y2988000D01*
X4480000Y2830000D02*
X4490000Y2850000D01*
X4480000Y2870000D01*
X4500000Y2860000D01*
X4520000Y2870000D01*
X4510000Y2850000D01*
X4520000Y2830000D01*
X4500000Y2840000D01*
X4480000Y2830000D01*
X4488000Y2838000D02*
X4494000Y2850000D01*
X4488000Y2862000D01*
X4500000Y2856000D01*
X4512000Y2862000D01*
X4506000Y2850000D01*
X4512000Y2838000D01*
X4500000Y2844000D01*
X4488000Y2838000D01*
X4555000Y2680000D02*
X4565000Y2700000D01*
X4555000Y2720000D01*
X4575000Y2710000D01*
X4595000Y2720000D01*
X4585000Y2700000D01*
X4595000Y2680000D01*
X4575000Y2690000D01*
X4555000Y2680000D01*
X4563000Y2688000D02*
X4569000Y2700000D01*
X4563000Y2712000D01*
X4575000Y2706000D01*
X4587000Y2712000D01*
X4581000Y2700000D01*
X4587000Y2688000D01*
X4575000Y2694000D01*
X4563000Y2688000D01*
X4480000Y2530000D02*
X4490000Y2550000D01*
X4480000Y2570000D01*
X4500000Y2560000D01*
X4520000Y2570000D01*
X4510000Y2550000D01*
X4520000Y2530000D01*
X4500000Y2540000D01*
X4480000Y2530000D01*
X4488000Y2538000D02*
X4494000Y2550000D01*
X4488000Y2562000D01*
X4500000Y2556000D01*
X4512000Y2562000D01*
X4506000Y2550000D01*
X4512000Y2538000D01*
X4500000Y2544000D01*
X4488000Y2538000D01*
X4405000Y3880000D02*
X4415000Y3900000D01*
X4405000Y3920000D01*
X4425000Y3910000D01*
X4445000Y3920000D01*
X4435000Y3900000D01*
X4445000Y3880000D01*
X4425000Y3890000D01*
X4405000Y3880000D01*
X4413000Y3888000D02*
X4419000Y3900000D01*
X4413000Y3912000D01*
X4425000Y3906000D01*
X4437000Y3912000D01*
X4431000Y3900000D01*
X4437000Y3888000D01*
X4425000Y3894000D01*
X4413000Y3888000D01*
X4330000Y3730000D02*
X4340000Y3750000D01*
X4330000Y3770000D01*
X4350000Y3760000D01*
X4370000Y3770000D01*
X4360000Y3750000D01*
X4370000Y3730000D01*
X4350000Y3740000D01*
X4330000Y3730000D01*
X4338000Y3738000D02*
X4344000Y3750000D01*
X4338000Y3762000D01*
X4350000Y3756000D01*
X4362000Y3762000D01*
X4356000Y3750000D01*
X4362000Y3738000D01*
X4350000Y3744000D01*
X4338000Y3738000D01*
X4405000Y3580000D02*
X4415000Y3600000D01*
X4405000Y3620000D01*
X4425000Y3610000D01*
X4445000Y3620000D01*
X4435000Y3600000D01*
X4445000Y3580000D01*
X4425000Y3590000D01*
X4405000Y3580000D01*
X4413000Y3588000D02*
X4419000Y3600000D01*
X4413000Y3612000D01*
X4425000Y3606000D01*
X4437000Y3612000D01*
X4431000Y3600000D01*
X4437000Y3588000D01*
X4425000Y3594000D01*
X4413000Y3588000D01*
X4330000Y3430000D02*
X4340000Y3450000D01*
X4330000Y3470000D01*
X4350000Y3460000D01*
X4370000Y3470000D01*
X4360000Y3450000D01*
X4370000Y3430000D01*
X4350000Y3440000D01*
X4330000Y3430000D01*
X4338000Y3438000D02*
X4344000Y3450000D01*
X4338000Y3462000D01*
X4350000Y3456000D01*
X4362000Y3462000D01*
X4356000Y3450000D01*
X4362000Y3438000D01*
X4350000Y3444000D01*
X4338000Y3438000D01*
X4405000Y2980000D02*
X4415000Y3000000D01*
X4405000Y3020000D01*
X4425000Y3010000D01*
X4445000Y3020000D01*
X4435000Y3000000D01*
X4445000Y2980000D01*
X4425000Y2990000D01*
X4405000Y2980000D01*
X4413000Y2988000D02*
X4419000Y3000000D01*
X4413000Y3012000D01*
X4425000Y3006000D01*
X4437000Y3012000D01*
X4431000Y3000000D01*
X4437000Y2988000D01*
X4425000Y2994000D01*
X4413000Y2988000D01*
X4405000Y2680000D02*
X4415000Y2700000D01*
X4405000Y2720000D01*
X4425000Y2710000D01*
X4445000Y2720000D01*
X4435000Y2700000D01*
X4445000Y2680000D01*
X4425000Y2690000D01*
X4405000Y2680000D01*
X4413000Y2688000D02*
X4419000Y2700000D01*
X4413000Y2712000D01*
X4425000Y2706000D01*
X4437000Y2712000D01*
X4431000Y2700000D01*
X4437000Y2688000D01*
X4425000Y2694000D01*
X4413000Y2688000D01*
X4330000Y2530000D02*
X4340000Y2550000D01*
X4330000Y2570000D01*
X4350000Y2560000D01*
X4370000Y2570000D01*
X4360000Y2550000D01*
X4370000Y2530000D01*
X4350000Y2540000D01*
X4330000Y2530000D01*
X4338000Y2538000D02*
X4344000Y2550000D01*
X4338000Y2562000D01*
X4350000Y2556000D01*
X4362000Y2562000D01*
X4356000Y2550000D01*
X4362000Y2538000D01*
X4350000Y2544000D01*
X4338000Y2538000D01*
X4405000Y2380000D02*
X4415000Y2400000D01*
X4405000Y2420000D01*
X4425000Y2410000D01*
X4445000Y2420000D01*
X4435000Y2400000D01*
X4445000Y2380000D01*
X4425000Y2390000D01*
X4405000Y2380000D01*
X4413000Y2388000D02*
X4419000Y2400000D01*
X4413000Y2412000D01*
X4425000Y2406000D01*
X4437000Y2412000D01*
X4431000Y2400000D01*
X4437000Y2388000D01*
X4425000Y2394000D01*
X4413000Y2388000D01*
X4330000Y2230000D02*
X4340000Y2250000D01*
X4330000Y2270000D01*
X4350000Y2260000D01*
X4370000Y2270000D01*
X4360000Y2250000D01*
X4370000Y2230000D01*
X4350000Y2240000D01*
X4330000Y2230000D01*
X4338000Y2238000D02*
X4344000Y2250000D01*
X4338000Y2262000D01*
X4350000Y2256000D01*
X4362000Y2262000D01*
X4356000Y2250000D01*
X4362000Y2238000D01*
X4350000Y2244000D01*
X4338000Y2238000D01*
X4180000Y4030000D02*
X4190000Y4050000D01*
X4180000Y4070000D01*
X4200000Y4060000D01*
X4220000Y4070000D01*
X4210000Y4050000D01*
X4220000Y4030000D01*
X4200000Y4040000D01*
X4180000Y4030000D01*
X4188000Y4038000D02*
X4194000Y4050000D01*
X4188000Y4062000D01*
X4200000Y4056000D01*
X4212000Y4062000D01*
X4206000Y4050000D01*
X4212000Y4038000D01*
X4200000Y4044000D01*
X4188000Y4038000D01*
X4255000Y3880000D02*
X4265000Y3900000D01*
X4255000Y3920000D01*
X4275000Y3910000D01*
X4295000Y3920000D01*
X4285000Y3900000D01*
X4295000Y3880000D01*
X4275000Y3890000D01*
X4255000Y3880000D01*
X4263000Y3888000D02*
X4269000Y3900000D01*
X4263000Y3912000D01*
X4275000Y3906000D01*
X4287000Y3912000D01*
X4281000Y3900000D01*
X4287000Y3888000D01*
X4275000Y3894000D01*
X4263000Y3888000D01*
X4180000Y3430000D02*
X4190000Y3450000D01*
X4180000Y3470000D01*
X4200000Y3460000D01*
X4220000Y3470000D01*
X4210000Y3450000D01*
X4220000Y3430000D01*
X4200000Y3440000D01*
X4180000Y3430000D01*
X4188000Y3438000D02*
X4194000Y3450000D01*
X4188000Y3462000D01*
X4200000Y3456000D01*
X4212000Y3462000D01*
X4206000Y3450000D01*
X4212000Y3438000D01*
X4200000Y3444000D01*
X4188000Y3438000D01*
X4180000Y2830000D02*
X4190000Y2850000D01*
X4180000Y2870000D01*
X4200000Y2860000D01*
X4220000Y2870000D01*
X4210000Y2850000D01*
X4220000Y2830000D01*
X4200000Y2840000D01*
X4180000Y2830000D01*
X4188000Y2838000D02*
X4194000Y2850000D01*
X4188000Y2862000D01*
X4200000Y2856000D01*
X4212000Y2862000D01*
X4206000Y2850000D01*
X4212000Y2838000D01*
X4200000Y2844000D01*
X4188000Y2838000D01*
X4255000Y2680000D02*
X4265000Y2700000D01*
X4255000Y2720000D01*
X4275000Y2710000D01*
X4295000Y2720000D01*
X4285000Y2700000D01*
X4295000Y2680000D01*
X4275000Y2690000D01*
X4255000Y2680000D01*
X4263000Y2688000D02*
X4269000Y2700000D01*
X4263000Y2712000D01*
X4275000Y2706000D01*
X4287000Y2712000D01*
X4281000Y2700000D01*
X4287000Y2688000D01*
X4275000Y2694000D01*
X4263000Y2688000D01*
X4255000Y2380000D02*
X4265000Y2400000D01*
X4255000Y2420000D01*
X4275000Y2410000D01*
X4295000Y2420000D01*
X4285000Y2400000D01*
X4295000Y2380000D01*
X4275000Y2390000D01*
X4255000Y2380000D01*
X4263000Y2388000D02*
X4269000Y2400000D01*
X4263000Y2412000D01*
X4275000Y2406000D01*
X4287000Y2412000D01*
X4281000Y2400000D01*
X4287000Y2388000D01*
X4275000Y2394000D01*
X4263000Y2388000D01*
X4030000Y4030000D02*
X4040000Y4050000D01*
X4030000Y4070000D01*
X4050000Y4060000D01*
X4070000Y4070000D01*
X4060000Y4050000D01*
X4070000Y4030000D01*
X4050000Y4040000D01*
X4030000Y4030000D01*
X4038000Y4038000D02*
X4044000Y4050000D01*
X4038000Y4062000D01*
X4050000Y4056000D01*
X4062000Y4062000D01*
X4056000Y4050000D01*
X4062000Y4038000D01*
X4050000Y4044000D01*
X4038000Y4038000D01*
X4105000Y3880000D02*
X4115000Y3900000D01*
X4105000Y3920000D01*
X4125000Y3910000D01*
X4145000Y3920000D01*
X4135000Y3900000D01*
X4145000Y3880000D01*
X4125000Y3890000D01*
X4105000Y3880000D01*
X4113000Y3888000D02*
X4119000Y3900000D01*
X4113000Y3912000D01*
X4125000Y3906000D01*
X4137000Y3912000D01*
X4131000Y3900000D01*
X4137000Y3888000D01*
X4125000Y3894000D01*
X4113000Y3888000D01*
X4030000Y3730000D02*
X4040000Y3750000D01*
X4030000Y3770000D01*
X4050000Y3760000D01*
X4070000Y3770000D01*
X4060000Y3750000D01*
X4070000Y3730000D01*
X4050000Y3740000D01*
X4030000Y3730000D01*
X4038000Y3738000D02*
X4044000Y3750000D01*
X4038000Y3762000D01*
X4050000Y3756000D01*
X4062000Y3762000D01*
X4056000Y3750000D01*
X4062000Y3738000D01*
X4050000Y3744000D01*
X4038000Y3738000D01*
X4105000Y3580000D02*
X4115000Y3600000D01*
X4105000Y3620000D01*
X4125000Y3610000D01*
X4145000Y3620000D01*
X4135000Y3600000D01*
X4145000Y3580000D01*
X4125000Y3590000D01*
X4105000Y3580000D01*
X4113000Y3588000D02*
X4119000Y3600000D01*
X4113000Y3612000D01*
X4125000Y3606000D01*
X4137000Y3612000D01*
X4131000Y3600000D01*
X4137000Y3588000D01*
X4125000Y3594000D01*
X4113000Y3588000D01*
X4030000Y3430000D02*
X4040000Y3450000D01*
X4030000Y3470000D01*
X4050000Y3460000D01*
X4070000Y3470000D01*
X4060000Y3450000D01*
X4070000Y3430000D01*
X4050000Y3440000D01*
X4030000Y3430000D01*
X4038000Y3438000D02*
X4044000Y3450000D01*
X4038000Y3462000D01*
X4050000Y3456000D01*
X4062000Y3462000D01*
X4056000Y3450000D01*
X4062000Y3438000D01*
X4050000Y3444000D01*
X4038000Y3438000D01*
X4105000Y2980000D02*
X4115000Y3000000D01*
X4105000Y3020000D01*
X4125000Y3010000D01*
X4145000Y3020000D01*
X4135000Y3000000D01*
X4145000Y2980000D01*
X4125000Y2990000D01*
X4105000Y2980000D01*
X4113000Y2988000D02*
X4119000Y3000000D01*
X4113000Y3012000D01*
X4125000Y3006000D01*
X4137000Y3012000D01*
X4131000Y3000000D01*
X4137000Y2988000D01*
X4125000Y2994000D01*
X4113000Y2988000D01*
X4030000Y2830000D02*
X4040000Y2850000D01*
X4030000Y2870000D01*
X4050000Y2860000D01*
X4070000Y2870000D01*
X4060000Y2850000D01*
X4070000Y2830000D01*
X4050000Y2840000D01*
X4030000Y2830000D01*
X4038000Y2838000D02*
X4044000Y2850000D01*
X4038000Y2862000D01*
X4050000Y2856000D01*
X4062000Y2862000D01*
X4056000Y2850000D01*
X4062000Y2838000D01*
X4050000Y2844000D01*
X4038000Y2838000D01*
X4105000Y2680000D02*
X4115000Y2700000D01*
X4105000Y2720000D01*
X4125000Y2710000D01*
X4145000Y2720000D01*
X4135000Y2700000D01*
X4145000Y2680000D01*
X4125000Y2690000D01*
X4105000Y2680000D01*
X4113000Y2688000D02*
X4119000Y2700000D01*
X4113000Y2712000D01*
X4125000Y2706000D01*
X4137000Y2712000D01*
X4131000Y2700000D01*
X4137000Y2688000D01*
X4125000Y2694000D01*
X4113000Y2688000D01*
X4030000Y2530000D02*
X4040000Y2550000D01*
X4030000Y2570000D01*
X4050000Y2560000D01*
X4070000Y2570000D01*
X4060000Y2550000D01*
X4070000Y2530000D01*
X4050000Y2540000D01*
X4030000Y2530000D01*
X4038000Y2538000D02*
X4044000Y2550000D01*
X4038000Y2562000D01*
X4050000Y2556000D01*
X4062000Y2562000D01*
X4056000Y2550000D01*
X4062000Y2538000D01*
X4050000Y2544000D01*
X4038000Y2538000D01*
X4105000Y2380000D02*
X4115000Y2400000D01*
X4105000Y2420000D01*
X4125000Y2410000D01*
X4145000Y2420000D01*
X4135000Y2400000D01*
X4145000Y2380000D01*
X4125000Y2390000D01*
X4105000Y2380000D01*
X4113000Y2388000D02*
X4119000Y2400000D01*
X4113000Y2412000D01*
X4125000Y2406000D01*
X4137000Y2412000D01*
X4131000Y2400000D01*
X4137000Y2388000D01*
X4125000Y2394000D01*
X4113000Y2388000D01*
X4105000Y2080000D02*
X4115000Y2100000D01*
X4105000Y2120000D01*
X4125000Y2110000D01*
X4145000Y2120000D01*
X4135000Y2100000D01*
X4145000Y2080000D01*
X4125000Y2090000D01*
X4105000Y2080000D01*
X4113000Y2088000D02*
X4119000Y2100000D01*
X4113000Y2112000D01*
X4125000Y2106000D01*
X4137000Y2112000D01*
X4131000Y2100000D01*
X4137000Y2088000D01*
X4125000Y2094000D01*
X4113000Y2088000D01*
X4030000Y1930000D02*
X4040000Y1950000D01*
X4030000Y1970000D01*
X4050000Y1960000D01*
X4070000Y1970000D01*
X4060000Y1950000D01*
X4070000Y1930000D01*
X4050000Y1940000D01*
X4030000Y1930000D01*
X4038000Y1938000D02*
X4044000Y1950000D01*
X4038000Y1962000D01*
X4050000Y1956000D01*
X4062000Y1962000D01*
X4056000Y1950000D01*
X4062000Y1938000D01*
X4050000Y1944000D01*
X4038000Y1938000D01*
X3880000Y4330000D02*
X3890000Y4350000D01*
X3880000Y4370000D01*
X3900000Y4360000D01*
X3920000Y4370000D01*
X3910000Y4350000D01*
X3920000Y4330000D01*
X3900000Y4340000D01*
X3880000Y4330000D01*
X3888000Y4338000D02*
X3894000Y4350000D01*
X3888000Y4362000D01*
X3900000Y4356000D01*
X3912000Y4362000D01*
X3906000Y4350000D01*
X3912000Y4338000D01*
X3900000Y4344000D01*
X3888000Y4338000D01*
X3955000Y4180000D02*
X3965000Y4200000D01*
X3955000Y4220000D01*
X3975000Y4210000D01*
X3995000Y4220000D01*
X3985000Y4200000D01*
X3995000Y4180000D01*
X3975000Y4190000D01*
X3955000Y4180000D01*
X3963000Y4188000D02*
X3969000Y4200000D01*
X3963000Y4212000D01*
X3975000Y4206000D01*
X3987000Y4212000D01*
X3981000Y4200000D01*
X3987000Y4188000D01*
X3975000Y4194000D01*
X3963000Y4188000D01*
X3955000Y3580000D02*
X3965000Y3600000D01*
X3955000Y3620000D01*
X3975000Y3610000D01*
X3995000Y3620000D01*
X3985000Y3600000D01*
X3995000Y3580000D01*
X3975000Y3590000D01*
X3955000Y3580000D01*
X3963000Y3588000D02*
X3969000Y3600000D01*
X3963000Y3612000D01*
X3975000Y3606000D01*
X3987000Y3612000D01*
X3981000Y3600000D01*
X3987000Y3588000D01*
X3975000Y3594000D01*
X3963000Y3588000D01*
X3880000Y3430000D02*
X3890000Y3450000D01*
X3880000Y3470000D01*
X3900000Y3460000D01*
X3920000Y3470000D01*
X3910000Y3450000D01*
X3920000Y3430000D01*
X3900000Y3440000D01*
X3880000Y3430000D01*
X3888000Y3438000D02*
X3894000Y3450000D01*
X3888000Y3462000D01*
X3900000Y3456000D01*
X3912000Y3462000D01*
X3906000Y3450000D01*
X3912000Y3438000D01*
X3900000Y3444000D01*
X3888000Y3438000D01*
X3955000Y3280000D02*
X3965000Y3300000D01*
X3955000Y3320000D01*
X3975000Y3310000D01*
X3995000Y3320000D01*
X3985000Y3300000D01*
X3995000Y3280000D01*
X3975000Y3290000D01*
X3955000Y3280000D01*
X3963000Y3288000D02*
X3969000Y3300000D01*
X3963000Y3312000D01*
X3975000Y3306000D01*
X3987000Y3312000D01*
X3981000Y3300000D01*
X3987000Y3288000D01*
X3975000Y3294000D01*
X3963000Y3288000D01*
X3880000Y3130000D02*
X3890000Y3150000D01*
X3880000Y3170000D01*
X3900000Y3160000D01*
X3920000Y3170000D01*
X3910000Y3150000D01*
X3920000Y3130000D01*
X3900000Y3140000D01*
X3880000Y3130000D01*
X3888000Y3138000D02*
X3894000Y3150000D01*
X3888000Y3162000D01*
X3900000Y3156000D01*
X3912000Y3162000D01*
X3906000Y3150000D01*
X3912000Y3138000D01*
X3900000Y3144000D01*
X3888000Y3138000D01*
X3955000Y2980000D02*
X3965000Y3000000D01*
X3955000Y3020000D01*
X3975000Y3010000D01*
X3995000Y3020000D01*
X3985000Y3000000D01*
X3995000Y2980000D01*
X3975000Y2990000D01*
X3955000Y2980000D01*
X3963000Y2988000D02*
X3969000Y3000000D01*
X3963000Y3012000D01*
X3975000Y3006000D01*
X3987000Y3012000D01*
X3981000Y3000000D01*
X3987000Y2988000D01*
X3975000Y2994000D01*
X3963000Y2988000D01*
X3880000Y2830000D02*
X3890000Y2850000D01*
X3880000Y2870000D01*
X3900000Y2860000D01*
X3920000Y2870000D01*
X3910000Y2850000D01*
X3920000Y2830000D01*
X3900000Y2840000D01*
X3880000Y2830000D01*
X3888000Y2838000D02*
X3894000Y2850000D01*
X3888000Y2862000D01*
X3900000Y2856000D01*
X3912000Y2862000D01*
X3906000Y2850000D01*
X3912000Y2838000D01*
X3900000Y2844000D01*
X3888000Y2838000D01*
X3955000Y2680000D02*
X3965000Y2700000D01*
X3955000Y2720000D01*
X3975000Y2710000D01*
X3995000Y2720000D01*
X3985000Y2700000D01*
X3995000Y2680000D01*
X3975000Y2690000D01*
X3955000Y2680000D01*
X3963000Y2688000D02*
X3969000Y2700000D01*
X3963000Y2712000D01*
X3975000Y2706000D01*
X3987000Y2712000D01*
X3981000Y2700000D01*
X3987000Y2688000D01*
X3975000Y2694000D01*
X3963000Y2688000D01*
X3955000Y2380000D02*
X3965000Y2400000D01*
X3955000Y2420000D01*
X3975000Y2410000D01*
X3995000Y2420000D01*
X3985000Y2400000D01*
X3995000Y2380000D01*
X3975000Y2390000D01*
X3955000Y2380000D01*
X3963000Y2388000D02*
X3969000Y2400000D01*
X3963000Y2412000D01*
X3975000Y2406000D01*
X3987000Y2412000D01*
X3981000Y2400000D01*
X3987000Y2388000D01*
X3975000Y2394000D01*
X3963000Y2388000D01*
X3880000Y1930000D02*
X3890000Y1950000D01*
X3880000Y1970000D01*
X3900000Y1960000D01*
X3920000Y1970000D01*
X3910000Y1950000D01*
X3920000Y1930000D01*
X3900000Y1940000D01*
X3880000Y1930000D01*
X3888000Y1938000D02*
X3894000Y1950000D01*
X3888000Y1962000D01*
X3900000Y1956000D01*
X3912000Y1962000D01*
X3906000Y1950000D01*
X3912000Y1938000D01*
X3900000Y1944000D01*
X3888000Y1938000D01*
X3730000Y4330000D02*
X3740000Y4350000D01*
X3730000Y4370000D01*
X3750000Y4360000D01*
X3770000Y4370000D01*
X3760000Y4350000D01*
X3770000Y4330000D01*
X3750000Y4340000D01*
X3730000Y4330000D01*
X3738000Y4338000D02*
X3744000Y4350000D01*
X3738000Y4362000D01*
X3750000Y4356000D01*
X3762000Y4362000D01*
X3756000Y4350000D01*
X3762000Y4338000D01*
X3750000Y4344000D01*
X3738000Y4338000D01*
X3730000Y4030000D02*
X3740000Y4050000D01*
X3730000Y4070000D01*
X3750000Y4060000D01*
X3770000Y4070000D01*
X3760000Y4050000D01*
X3770000Y4030000D01*
X3750000Y4040000D01*
X3730000Y4030000D01*
X3738000Y4038000D02*
X3744000Y4050000D01*
X3738000Y4062000D01*
X3750000Y4056000D01*
X3762000Y4062000D01*
X3756000Y4050000D01*
X3762000Y4038000D01*
X3750000Y4044000D01*
X3738000Y4038000D01*
X3805000Y3880000D02*
X3815000Y3900000D01*
X3805000Y3920000D01*
X3825000Y3910000D01*
X3845000Y3920000D01*
X3835000Y3900000D01*
X3845000Y3880000D01*
X3825000Y3890000D01*
X3805000Y3880000D01*
X3813000Y3888000D02*
X3819000Y3900000D01*
X3813000Y3912000D01*
X3825000Y3906000D01*
X3837000Y3912000D01*
X3831000Y3900000D01*
X3837000Y3888000D01*
X3825000Y3894000D01*
X3813000Y3888000D01*
X3730000Y3730000D02*
X3740000Y3750000D01*
X3730000Y3770000D01*
X3750000Y3760000D01*
X3770000Y3770000D01*
X3760000Y3750000D01*
X3770000Y3730000D01*
X3750000Y3740000D01*
X3730000Y3730000D01*
X3738000Y3738000D02*
X3744000Y3750000D01*
X3738000Y3762000D01*
X3750000Y3756000D01*
X3762000Y3762000D01*
X3756000Y3750000D01*
X3762000Y3738000D01*
X3750000Y3744000D01*
X3738000Y3738000D01*
X3805000Y3580000D02*
X3815000Y3600000D01*
X3805000Y3620000D01*
X3825000Y3610000D01*
X3845000Y3620000D01*
X3835000Y3600000D01*
X3845000Y3580000D01*
X3825000Y3590000D01*
X3805000Y3580000D01*
X3813000Y3588000D02*
X3819000Y3600000D01*
X3813000Y3612000D01*
X3825000Y3606000D01*
X3837000Y3612000D01*
X3831000Y3600000D01*
X3837000Y3588000D01*
X3825000Y3594000D01*
X3813000Y3588000D01*
X3730000Y3430000D02*
X3740000Y3450000D01*
X3730000Y3470000D01*
X3750000Y3460000D01*
X3770000Y3470000D01*
X3760000Y3450000D01*
X3770000Y3430000D01*
X3750000Y3440000D01*
X3730000Y3430000D01*
X3738000Y3438000D02*
X3744000Y3450000D01*
X3738000Y3462000D01*
X3750000Y3456000D01*
X3762000Y3462000D01*
X3756000Y3450000D01*
X3762000Y3438000D01*
X3750000Y3444000D01*
X3738000Y3438000D01*
X3805000Y3280000D02*
X3815000Y3300000D01*
X3805000Y3320000D01*
X3825000Y3310000D01*
X3845000Y3320000D01*
X3835000Y3300000D01*
X3845000Y3280000D01*
X3825000Y3290000D01*
X3805000Y3280000D01*
X3813000Y3288000D02*
X3819000Y3300000D01*
X3813000Y3312000D01*
X3825000Y3306000D01*
X3837000Y3312000D01*
X3831000Y3300000D01*
X3837000Y3288000D01*
X3825000Y3294000D01*
X3813000Y3288000D01*
X3805000Y2680000D02*
X3815000Y2700000D01*
X3805000Y2720000D01*
X3825000Y2710000D01*
X3845000Y2720000D01*
X3835000Y2700000D01*
X3845000Y2680000D01*
X3825000Y2690000D01*
X3805000Y2680000D01*
X3813000Y2688000D02*
X3819000Y2700000D01*
X3813000Y2712000D01*
X3825000Y2706000D01*
X3837000Y2712000D01*
X3831000Y2700000D01*
X3837000Y2688000D01*
X3825000Y2694000D01*
X3813000Y2688000D01*
X3730000Y2530000D02*
X3740000Y2550000D01*
X3730000Y2570000D01*
X3750000Y2560000D01*
X3770000Y2570000D01*
X3760000Y2550000D01*
X3770000Y2530000D01*
X3750000Y2540000D01*
X3730000Y2530000D01*
X3738000Y2538000D02*
X3744000Y2550000D01*
X3738000Y2562000D01*
X3750000Y2556000D01*
X3762000Y2562000D01*
X3756000Y2550000D01*
X3762000Y2538000D01*
X3750000Y2544000D01*
X3738000Y2538000D01*
X3655000Y4480000D02*
X3665000Y4500000D01*
X3655000Y4520000D01*
X3675000Y4510000D01*
X3695000Y4520000D01*
X3685000Y4500000D01*
X3695000Y4480000D01*
X3675000Y4490000D01*
X3655000Y4480000D01*
X3663000Y4488000D02*
X3669000Y4500000D01*
X3663000Y4512000D01*
X3675000Y4506000D01*
X3687000Y4512000D01*
X3681000Y4500000D01*
X3687000Y4488000D01*
X3675000Y4494000D01*
X3663000Y4488000D01*
X3580000Y4330000D02*
X3590000Y4350000D01*
X3580000Y4370000D01*
X3600000Y4360000D01*
X3620000Y4370000D01*
X3610000Y4350000D01*
X3620000Y4330000D01*
X3600000Y4340000D01*
X3580000Y4330000D01*
X3588000Y4338000D02*
X3594000Y4350000D01*
X3588000Y4362000D01*
X3600000Y4356000D01*
X3612000Y4362000D01*
X3606000Y4350000D01*
X3612000Y4338000D01*
X3600000Y4344000D01*
X3588000Y4338000D01*
X3655000Y4180000D02*
X3665000Y4200000D01*
X3655000Y4220000D01*
X3675000Y4210000D01*
X3695000Y4220000D01*
X3685000Y4200000D01*
X3695000Y4180000D01*
X3675000Y4190000D01*
X3655000Y4180000D01*
X3663000Y4188000D02*
X3669000Y4200000D01*
X3663000Y4212000D01*
X3675000Y4206000D01*
X3687000Y4212000D01*
X3681000Y4200000D01*
X3687000Y4188000D01*
X3675000Y4194000D01*
X3663000Y4188000D01*
X3655000Y3880000D02*
X3665000Y3900000D01*
X3655000Y3920000D01*
X3675000Y3910000D01*
X3695000Y3920000D01*
X3685000Y3900000D01*
X3695000Y3880000D01*
X3675000Y3890000D01*
X3655000Y3880000D01*
X3663000Y3888000D02*
X3669000Y3900000D01*
X3663000Y3912000D01*
X3675000Y3906000D01*
X3687000Y3912000D01*
X3681000Y3900000D01*
X3687000Y3888000D01*
X3675000Y3894000D01*
X3663000Y3888000D01*
X3580000Y3730000D02*
X3590000Y3750000D01*
X3580000Y3770000D01*
X3600000Y3760000D01*
X3620000Y3770000D01*
X3610000Y3750000D01*
X3620000Y3730000D01*
X3600000Y3740000D01*
X3580000Y3730000D01*
X3588000Y3738000D02*
X3594000Y3750000D01*
X3588000Y3762000D01*
X3600000Y3756000D01*
X3612000Y3762000D01*
X3606000Y3750000D01*
X3612000Y3738000D01*
X3600000Y3744000D01*
X3588000Y3738000D01*
X3655000Y3580000D02*
X3665000Y3600000D01*
X3655000Y3620000D01*
X3675000Y3610000D01*
X3695000Y3620000D01*
X3685000Y3600000D01*
X3695000Y3580000D01*
X3675000Y3590000D01*
X3655000Y3580000D01*
X3663000Y3588000D02*
X3669000Y3600000D01*
X3663000Y3612000D01*
X3675000Y3606000D01*
X3687000Y3612000D01*
X3681000Y3600000D01*
X3687000Y3588000D01*
X3675000Y3594000D01*
X3663000Y3588000D01*
X3580000Y3430000D02*
X3590000Y3450000D01*
X3580000Y3470000D01*
X3600000Y3460000D01*
X3620000Y3470000D01*
X3610000Y3450000D01*
X3620000Y3430000D01*
X3600000Y3440000D01*
X3580000Y3430000D01*
X3588000Y3438000D02*
X3594000Y3450000D01*
X3588000Y3462000D01*
X3600000Y3456000D01*
X3612000Y3462000D01*
X3606000Y3450000D01*
X3612000Y3438000D01*
X3600000Y3444000D01*
X3588000Y3438000D01*
X3655000Y3280000D02*
X3665000Y3300000D01*
X3655000Y3320000D01*
X3675000Y3310000D01*
X3695000Y3320000D01*
X3685000Y3300000D01*
X3695000Y3280000D01*
X3675000Y3290000D01*
X3655000Y3280000D01*
X3663000Y3288000D02*
X3669000Y3300000D01*
X3663000Y3312000D01*
X3675000Y3306000D01*
X3687000Y3312000D01*
X3681000Y3300000D01*
X3687000Y3288000D01*
X3675000Y3294000D01*
X3663000Y3288000D01*
X3580000Y3130000D02*
X3590000Y3150000D01*
X3580000Y3170000D01*
X3600000Y3160000D01*
X3620000Y3170000D01*
X3610000Y3150000D01*
X3620000Y3130000D01*
X3600000Y3140000D01*
X3580000Y3130000D01*
X3588000Y3138000D02*
X3594000Y3150000D01*
X3588000Y3162000D01*
X3600000Y3156000D01*
X3612000Y3162000D01*
X3606000Y3150000D01*
X3612000Y3138000D01*
X3600000Y3144000D01*
X3588000Y3138000D01*
X3580000Y2830000D02*
X3590000Y2850000D01*
X3580000Y2870000D01*
X3600000Y2860000D01*
X3620000Y2870000D01*
X3610000Y2850000D01*
X3620000Y2830000D01*
X3600000Y2840000D01*
X3580000Y2830000D01*
X3588000Y2838000D02*
X3594000Y2850000D01*
X3588000Y2862000D01*
X3600000Y2856000D01*
X3612000Y2862000D01*
X3606000Y2850000D01*
X3612000Y2838000D01*
X3600000Y2844000D01*
X3588000Y2838000D01*
X3655000Y1780000D02*
X3665000Y1800000D01*
X3655000Y1820000D01*
X3675000Y1810000D01*
X3695000Y1820000D01*
X3685000Y1800000D01*
X3695000Y1780000D01*
X3675000Y1790000D01*
X3655000Y1780000D01*
X3663000Y1788000D02*
X3669000Y1800000D01*
X3663000Y1812000D01*
X3675000Y1806000D01*
X3687000Y1812000D01*
X3681000Y1800000D01*
X3687000Y1788000D01*
X3675000Y1794000D01*
X3663000Y1788000D01*
X3430000Y4330000D02*
X3440000Y4350000D01*
X3430000Y4370000D01*
X3450000Y4360000D01*
X3470000Y4370000D01*
X3460000Y4350000D01*
X3470000Y4330000D01*
X3450000Y4340000D01*
X3430000Y4330000D01*
X3438000Y4338000D02*
X3444000Y4350000D01*
X3438000Y4362000D01*
X3450000Y4356000D01*
X3462000Y4362000D01*
X3456000Y4350000D01*
X3462000Y4338000D01*
X3450000Y4344000D01*
X3438000Y4338000D01*
X3505000Y4180000D02*
X3515000Y4200000D01*
X3505000Y4220000D01*
X3525000Y4210000D01*
X3545000Y4220000D01*
X3535000Y4200000D01*
X3545000Y4180000D01*
X3525000Y4190000D01*
X3505000Y4180000D01*
X3513000Y4188000D02*
X3519000Y4200000D01*
X3513000Y4212000D01*
X3525000Y4206000D01*
X3537000Y4212000D01*
X3531000Y4200000D01*
X3537000Y4188000D01*
X3525000Y4194000D01*
X3513000Y4188000D01*
X3505000Y3880000D02*
X3515000Y3900000D01*
X3505000Y3920000D01*
X3525000Y3910000D01*
X3545000Y3920000D01*
X3535000Y3900000D01*
X3545000Y3880000D01*
X3525000Y3890000D01*
X3505000Y3880000D01*
X3513000Y3888000D02*
X3519000Y3900000D01*
X3513000Y3912000D01*
X3525000Y3906000D01*
X3537000Y3912000D01*
X3531000Y3900000D01*
X3537000Y3888000D01*
X3525000Y3894000D01*
X3513000Y3888000D01*
X3505000Y3580000D02*
X3515000Y3600000D01*
X3505000Y3620000D01*
X3525000Y3610000D01*
X3545000Y3620000D01*
X3535000Y3600000D01*
X3545000Y3580000D01*
X3525000Y3590000D01*
X3505000Y3580000D01*
X3513000Y3588000D02*
X3519000Y3600000D01*
X3513000Y3612000D01*
X3525000Y3606000D01*
X3537000Y3612000D01*
X3531000Y3600000D01*
X3537000Y3588000D01*
X3525000Y3594000D01*
X3513000Y3588000D01*
X3505000Y3280000D02*
X3515000Y3300000D01*
X3505000Y3320000D01*
X3525000Y3310000D01*
X3545000Y3320000D01*
X3535000Y3300000D01*
X3545000Y3280000D01*
X3525000Y3290000D01*
X3505000Y3280000D01*
X3513000Y3288000D02*
X3519000Y3300000D01*
X3513000Y3312000D01*
X3525000Y3306000D01*
X3537000Y3312000D01*
X3531000Y3300000D01*
X3537000Y3288000D01*
X3525000Y3294000D01*
X3513000Y3288000D01*
X3430000Y3130000D02*
X3440000Y3150000D01*
X3430000Y3170000D01*
X3450000Y3160000D01*
X3470000Y3170000D01*
X3460000Y3150000D01*
X3470000Y3130000D01*
X3450000Y3140000D01*
X3430000Y3130000D01*
X3438000Y3138000D02*
X3444000Y3150000D01*
X3438000Y3162000D01*
X3450000Y3156000D01*
X3462000Y3162000D01*
X3456000Y3150000D01*
X3462000Y3138000D01*
X3450000Y3144000D01*
X3438000Y3138000D01*
X3505000Y2980000D02*
X3515000Y3000000D01*
X3505000Y3020000D01*
X3525000Y3010000D01*
X3545000Y3020000D01*
X3535000Y3000000D01*
X3545000Y2980000D01*
X3525000Y2990000D01*
X3505000Y2980000D01*
X3513000Y2988000D02*
X3519000Y3000000D01*
X3513000Y3012000D01*
X3525000Y3006000D01*
X3537000Y3012000D01*
X3531000Y3000000D01*
X3537000Y2988000D01*
X3525000Y2994000D01*
X3513000Y2988000D01*
X3430000Y2530000D02*
X3440000Y2550000D01*
X3430000Y2570000D01*
X3450000Y2560000D01*
X3470000Y2570000D01*
X3460000Y2550000D01*
X3470000Y2530000D01*
X3450000Y2540000D01*
X3430000Y2530000D01*
X3438000Y2538000D02*
X3444000Y2550000D01*
X3438000Y2562000D01*
X3450000Y2556000D01*
X3462000Y2562000D01*
X3456000Y2550000D01*
X3462000Y2538000D01*
X3450000Y2544000D01*
X3438000Y2538000D01*
X3505000Y2380000D02*
X3515000Y2400000D01*
X3505000Y2420000D01*
X3525000Y2410000D01*
X3545000Y2420000D01*
X3535000Y2400000D01*
X3545000Y2380000D01*
X3525000Y2390000D01*
X3505000Y2380000D01*
X3513000Y2388000D02*
X3519000Y2400000D01*
X3513000Y2412000D01*
X3525000Y2406000D01*
X3537000Y2412000D01*
X3531000Y2400000D01*
X3537000Y2388000D01*
X3525000Y2394000D01*
X3513000Y2388000D01*
X3430000Y2230000D02*
X3440000Y2250000D01*
X3430000Y2270000D01*
X3450000Y2260000D01*
X3470000Y2270000D01*
X3460000Y2250000D01*
X3470000Y2230000D01*
X3450000Y2240000D01*
X3430000Y2230000D01*
X3438000Y2238000D02*
X3444000Y2250000D01*
X3438000Y2262000D01*
X3450000Y2256000D01*
X3462000Y2262000D01*
X3456000Y2250000D01*
X3462000Y2238000D01*
X3450000Y2244000D01*
X3438000Y2238000D01*
X3505000Y1780000D02*
X3515000Y1800000D01*
X3505000Y1820000D01*
X3525000Y1810000D01*
X3545000Y1820000D01*
X3535000Y1800000D01*
X3545000Y1780000D01*
X3525000Y1790000D01*
X3505000Y1780000D01*
X3513000Y1788000D02*
X3519000Y1800000D01*
X3513000Y1812000D01*
X3525000Y1806000D01*
X3537000Y1812000D01*
X3531000Y1800000D01*
X3537000Y1788000D01*
X3525000Y1794000D01*
X3513000Y1788000D01*
X3280000Y4330000D02*
X3290000Y4350000D01*
X3280000Y4370000D01*
X3300000Y4360000D01*
X3320000Y4370000D01*
X3310000Y4350000D01*
X3320000Y4330000D01*
X3300000Y4340000D01*
X3280000Y4330000D01*
X3288000Y4338000D02*
X3294000Y4350000D01*
X3288000Y4362000D01*
X3300000Y4356000D01*
X3312000Y4362000D01*
X3306000Y4350000D01*
X3312000Y4338000D01*
X3300000Y4344000D01*
X3288000Y4338000D01*
X3355000Y4180000D02*
X3365000Y4200000D01*
X3355000Y4220000D01*
X3375000Y4210000D01*
X3395000Y4220000D01*
X3385000Y4200000D01*
X3395000Y4180000D01*
X3375000Y4190000D01*
X3355000Y4180000D01*
X3363000Y4188000D02*
X3369000Y4200000D01*
X3363000Y4212000D01*
X3375000Y4206000D01*
X3387000Y4212000D01*
X3381000Y4200000D01*
X3387000Y4188000D01*
X3375000Y4194000D01*
X3363000Y4188000D01*
X3355000Y3580000D02*
X3365000Y3600000D01*
X3355000Y3620000D01*
X3375000Y3610000D01*
X3395000Y3620000D01*
X3385000Y3600000D01*
X3395000Y3580000D01*
X3375000Y3590000D01*
X3355000Y3580000D01*
X3363000Y3588000D02*
X3369000Y3600000D01*
X3363000Y3612000D01*
X3375000Y3606000D01*
X3387000Y3612000D01*
X3381000Y3600000D01*
X3387000Y3588000D01*
X3375000Y3594000D01*
X3363000Y3588000D01*
X3355000Y3280000D02*
X3365000Y3300000D01*
X3355000Y3320000D01*
X3375000Y3310000D01*
X3395000Y3320000D01*
X3385000Y3300000D01*
X3395000Y3280000D01*
X3375000Y3290000D01*
X3355000Y3280000D01*
X3363000Y3288000D02*
X3369000Y3300000D01*
X3363000Y3312000D01*
X3375000Y3306000D01*
X3387000Y3312000D01*
X3381000Y3300000D01*
X3387000Y3288000D01*
X3375000Y3294000D01*
X3363000Y3288000D01*
X3280000Y3130000D02*
X3290000Y3150000D01*
X3280000Y3170000D01*
X3300000Y3160000D01*
X3320000Y3170000D01*
X3310000Y3150000D01*
X3320000Y3130000D01*
X3300000Y3140000D01*
X3280000Y3130000D01*
X3288000Y3138000D02*
X3294000Y3150000D01*
X3288000Y3162000D01*
X3300000Y3156000D01*
X3312000Y3162000D01*
X3306000Y3150000D01*
X3312000Y3138000D01*
X3300000Y3144000D01*
X3288000Y3138000D01*
X3355000Y2980000D02*
X3365000Y3000000D01*
X3355000Y3020000D01*
X3375000Y3010000D01*
X3395000Y3020000D01*
X3385000Y3000000D01*
X3395000Y2980000D01*
X3375000Y2990000D01*
X3355000Y2980000D01*
X3363000Y2988000D02*
X3369000Y3000000D01*
X3363000Y3012000D01*
X3375000Y3006000D01*
X3387000Y3012000D01*
X3381000Y3000000D01*
X3387000Y2988000D01*
X3375000Y2994000D01*
X3363000Y2988000D01*
X3280000Y2830000D02*
X3290000Y2850000D01*
X3280000Y2870000D01*
X3300000Y2860000D01*
X3320000Y2870000D01*
X3310000Y2850000D01*
X3320000Y2830000D01*
X3300000Y2840000D01*
X3280000Y2830000D01*
X3288000Y2838000D02*
X3294000Y2850000D01*
X3288000Y2862000D01*
X3300000Y2856000D01*
X3312000Y2862000D01*
X3306000Y2850000D01*
X3312000Y2838000D01*
X3300000Y2844000D01*
X3288000Y2838000D01*
X3355000Y2680000D02*
X3365000Y2700000D01*
X3355000Y2720000D01*
X3375000Y2710000D01*
X3395000Y2720000D01*
X3385000Y2700000D01*
X3395000Y2680000D01*
X3375000Y2690000D01*
X3355000Y2680000D01*
X3363000Y2688000D02*
X3369000Y2700000D01*
X3363000Y2712000D01*
X3375000Y2706000D01*
X3387000Y2712000D01*
X3381000Y2700000D01*
X3387000Y2688000D01*
X3375000Y2694000D01*
X3363000Y2688000D01*
X3280000Y2530000D02*
X3290000Y2550000D01*
X3280000Y2570000D01*
X3300000Y2560000D01*
X3320000Y2570000D01*
X3310000Y2550000D01*
X3320000Y2530000D01*
X3300000Y2540000D01*
X3280000Y2530000D01*
X3288000Y2538000D02*
X3294000Y2550000D01*
X3288000Y2562000D01*
X3300000Y2556000D01*
X3312000Y2562000D01*
X3306000Y2550000D01*
X3312000Y2538000D01*
X3300000Y2544000D01*
X3288000Y2538000D01*
X3280000Y2230000D02*
X3290000Y2250000D01*
X3280000Y2270000D01*
X3300000Y2260000D01*
X3320000Y2270000D01*
X3310000Y2250000D01*
X3320000Y2230000D01*
X3300000Y2240000D01*
X3280000Y2230000D01*
X3288000Y2238000D02*
X3294000Y2250000D01*
X3288000Y2262000D01*
X3300000Y2256000D01*
X3312000Y2262000D01*
X3306000Y2250000D01*
X3312000Y2238000D01*
X3300000Y2244000D01*
X3288000Y2238000D01*
X3130000Y4330000D02*
X3140000Y4350000D01*
X3130000Y4370000D01*
X3150000Y4360000D01*
X3170000Y4370000D01*
X3160000Y4350000D01*
X3170000Y4330000D01*
X3150000Y4340000D01*
X3130000Y4330000D01*
X3138000Y4338000D02*
X3144000Y4350000D01*
X3138000Y4362000D01*
X3150000Y4356000D01*
X3162000Y4362000D01*
X3156000Y4350000D01*
X3162000Y4338000D01*
X3150000Y4344000D01*
X3138000Y4338000D01*
X3205000Y4180000D02*
X3215000Y4200000D01*
X3205000Y4220000D01*
X3225000Y4210000D01*
X3245000Y4220000D01*
X3235000Y4200000D01*
X3245000Y4180000D01*
X3225000Y4190000D01*
X3205000Y4180000D01*
X3213000Y4188000D02*
X3219000Y4200000D01*
X3213000Y4212000D01*
X3225000Y4206000D01*
X3237000Y4212000D01*
X3231000Y4200000D01*
X3237000Y4188000D01*
X3225000Y4194000D01*
X3213000Y4188000D01*
X3130000Y4030000D02*
X3140000Y4050000D01*
X3130000Y4070000D01*
X3150000Y4060000D01*
X3170000Y4070000D01*
X3160000Y4050000D01*
X3170000Y4030000D01*
X3150000Y4040000D01*
X3130000Y4030000D01*
X3138000Y4038000D02*
X3144000Y4050000D01*
X3138000Y4062000D01*
X3150000Y4056000D01*
X3162000Y4062000D01*
X3156000Y4050000D01*
X3162000Y4038000D01*
X3150000Y4044000D01*
X3138000Y4038000D01*
X3130000Y3730000D02*
X3140000Y3750000D01*
X3130000Y3770000D01*
X3150000Y3760000D01*
X3170000Y3770000D01*
X3160000Y3750000D01*
X3170000Y3730000D01*
X3150000Y3740000D01*
X3130000Y3730000D01*
X3138000Y3738000D02*
X3144000Y3750000D01*
X3138000Y3762000D01*
X3150000Y3756000D01*
X3162000Y3762000D01*
X3156000Y3750000D01*
X3162000Y3738000D01*
X3150000Y3744000D01*
X3138000Y3738000D01*
X3205000Y3580000D02*
X3215000Y3600000D01*
X3205000Y3620000D01*
X3225000Y3610000D01*
X3245000Y3620000D01*
X3235000Y3600000D01*
X3245000Y3580000D01*
X3225000Y3590000D01*
X3205000Y3580000D01*
X3213000Y3588000D02*
X3219000Y3600000D01*
X3213000Y3612000D01*
X3225000Y3606000D01*
X3237000Y3612000D01*
X3231000Y3600000D01*
X3237000Y3588000D01*
X3225000Y3594000D01*
X3213000Y3588000D01*
X3205000Y3280000D02*
X3215000Y3300000D01*
X3205000Y3320000D01*
X3225000Y3310000D01*
X3245000Y3320000D01*
X3235000Y3300000D01*
X3245000Y3280000D01*
X3225000Y3290000D01*
X3205000Y3280000D01*
X3213000Y3288000D02*
X3219000Y3300000D01*
X3213000Y3312000D01*
X3225000Y3306000D01*
X3237000Y3312000D01*
X3231000Y3300000D01*
X3237000Y3288000D01*
X3225000Y3294000D01*
X3213000Y3288000D01*
X3130000Y3130000D02*
X3140000Y3150000D01*
X3130000Y3170000D01*
X3150000Y3160000D01*
X3170000Y3170000D01*
X3160000Y3150000D01*
X3170000Y3130000D01*
X3150000Y3140000D01*
X3130000Y3130000D01*
X3138000Y3138000D02*
X3144000Y3150000D01*
X3138000Y3162000D01*
X3150000Y3156000D01*
X3162000Y3162000D01*
X3156000Y3150000D01*
X3162000Y3138000D01*
X3150000Y3144000D01*
X3138000Y3138000D01*
X3205000Y2980000D02*
X3215000Y3000000D01*
X3205000Y3020000D01*
X3225000Y3010000D01*
X3245000Y3020000D01*
X3235000Y3000000D01*
X3245000Y2980000D01*
X3225000Y2990000D01*
X3205000Y2980000D01*
X3213000Y2988000D02*
X3219000Y3000000D01*
X3213000Y3012000D01*
X3225000Y3006000D01*
X3237000Y3012000D01*
X3231000Y3000000D01*
X3237000Y2988000D01*
X3225000Y2994000D01*
X3213000Y2988000D01*
X3205000Y2080000D02*
X3215000Y2100000D01*
X3205000Y2120000D01*
X3225000Y2110000D01*
X3245000Y2120000D01*
X3235000Y2100000D01*
X3245000Y2080000D01*
X3225000Y2090000D01*
X3205000Y2080000D01*
X3213000Y2088000D02*
X3219000Y2100000D01*
X3213000Y2112000D01*
X3225000Y2106000D01*
X3237000Y2112000D01*
X3231000Y2100000D01*
X3237000Y2088000D01*
X3225000Y2094000D01*
X3213000Y2088000D01*
X3205000Y1780000D02*
X3215000Y1800000D01*
X3205000Y1820000D01*
X3225000Y1810000D01*
X3245000Y1820000D01*
X3235000Y1800000D01*
X3245000Y1780000D01*
X3225000Y1790000D01*
X3205000Y1780000D01*
X3213000Y1788000D02*
X3219000Y1800000D01*
X3213000Y1812000D01*
X3225000Y1806000D01*
X3237000Y1812000D01*
X3231000Y1800000D01*
X3237000Y1788000D01*
X3225000Y1794000D01*
X3213000Y1788000D01*
X3130000Y1630000D02*
X3140000Y1650000D01*
X3130000Y1670000D01*
X3150000Y1660000D01*
X3170000Y1670000D01*
X3160000Y1650000D01*
X3170000Y1630000D01*
X3150000Y1640000D01*
X3130000Y1630000D01*
X3138000Y1638000D02*
X3144000Y1650000D01*
X3138000Y1662000D01*
X3150000Y1656000D01*
X3162000Y1662000D01*
X3156000Y1650000D01*
X3162000Y1638000D01*
X3150000Y1644000D01*
X3138000Y1638000D01*
X2980000Y4330000D02*
X2990000Y4350000D01*
X2980000Y4370000D01*
X3000000Y4360000D01*
X3020000Y4370000D01*
X3010000Y4350000D01*
X3020000Y4330000D01*
X3000000Y4340000D01*
X2980000Y4330000D01*
X2988000Y4338000D02*
X2994000Y4350000D01*
X2988000Y4362000D01*
X3000000Y4356000D01*
X3012000Y4362000D01*
X3006000Y4350000D01*
X3012000Y4338000D01*
X3000000Y4344000D01*
X2988000Y4338000D01*
X3055000Y4180000D02*
X3065000Y4200000D01*
X3055000Y4220000D01*
X3075000Y4210000D01*
X3095000Y4220000D01*
X3085000Y4200000D01*
X3095000Y4180000D01*
X3075000Y4190000D01*
X3055000Y4180000D01*
X3063000Y4188000D02*
X3069000Y4200000D01*
X3063000Y4212000D01*
X3075000Y4206000D01*
X3087000Y4212000D01*
X3081000Y4200000D01*
X3087000Y4188000D01*
X3075000Y4194000D01*
X3063000Y4188000D01*
X3055000Y3880000D02*
X3065000Y3900000D01*
X3055000Y3920000D01*
X3075000Y3910000D01*
X3095000Y3920000D01*
X3085000Y3900000D01*
X3095000Y3880000D01*
X3075000Y3890000D01*
X3055000Y3880000D01*
X3063000Y3888000D02*
X3069000Y3900000D01*
X3063000Y3912000D01*
X3075000Y3906000D01*
X3087000Y3912000D01*
X3081000Y3900000D01*
X3087000Y3888000D01*
X3075000Y3894000D01*
X3063000Y3888000D01*
X3055000Y3580000D02*
X3065000Y3600000D01*
X3055000Y3620000D01*
X3075000Y3610000D01*
X3095000Y3620000D01*
X3085000Y3600000D01*
X3095000Y3580000D01*
X3075000Y3590000D01*
X3055000Y3580000D01*
X3063000Y3588000D02*
X3069000Y3600000D01*
X3063000Y3612000D01*
X3075000Y3606000D01*
X3087000Y3612000D01*
X3081000Y3600000D01*
X3087000Y3588000D01*
X3075000Y3594000D01*
X3063000Y3588000D01*
X3055000Y3280000D02*
X3065000Y3300000D01*
X3055000Y3320000D01*
X3075000Y3310000D01*
X3095000Y3320000D01*
X3085000Y3300000D01*
X3095000Y3280000D01*
X3075000Y3290000D01*
X3055000Y3280000D01*
X3063000Y3288000D02*
X3069000Y3300000D01*
X3063000Y3312000D01*
X3075000Y3306000D01*
X3087000Y3312000D01*
X3081000Y3300000D01*
X3087000Y3288000D01*
X3075000Y3294000D01*
X3063000Y3288000D01*
X2980000Y3130000D02*
X2990000Y3150000D01*
X2980000Y3170000D01*
X3000000Y3160000D01*
X3020000Y3170000D01*
X3010000Y3150000D01*
X3020000Y3130000D01*
X3000000Y3140000D01*
X2980000Y3130000D01*
X2988000Y3138000D02*
X2994000Y3150000D01*
X2988000Y3162000D01*
X3000000Y3156000D01*
X3012000Y3162000D01*
X3006000Y3150000D01*
X3012000Y3138000D01*
X3000000Y3144000D01*
X2988000Y3138000D01*
X2980000Y2830000D02*
X2990000Y2850000D01*
X2980000Y2870000D01*
X3000000Y2860000D01*
X3020000Y2870000D01*
X3010000Y2850000D01*
X3020000Y2830000D01*
X3000000Y2840000D01*
X2980000Y2830000D01*
X2988000Y2838000D02*
X2994000Y2850000D01*
X2988000Y2862000D01*
X3000000Y2856000D01*
X3012000Y2862000D01*
X3006000Y2850000D01*
X3012000Y2838000D01*
X3000000Y2844000D01*
X2988000Y2838000D01*
X3055000Y2680000D02*
X3065000Y2700000D01*
X3055000Y2720000D01*
X3075000Y2710000D01*
X3095000Y2720000D01*
X3085000Y2700000D01*
X3095000Y2680000D01*
X3075000Y2690000D01*
X3055000Y2680000D01*
X3063000Y2688000D02*
X3069000Y2700000D01*
X3063000Y2712000D01*
X3075000Y2706000D01*
X3087000Y2712000D01*
X3081000Y2700000D01*
X3087000Y2688000D01*
X3075000Y2694000D01*
X3063000Y2688000D01*
X2980000Y2530000D02*
X2990000Y2550000D01*
X2980000Y2570000D01*
X3000000Y2560000D01*
X3020000Y2570000D01*
X3010000Y2550000D01*
X3020000Y2530000D01*
X3000000Y2540000D01*
X2980000Y2530000D01*
X2988000Y2538000D02*
X2994000Y2550000D01*
X2988000Y2562000D01*
X3000000Y2556000D01*
X3012000Y2562000D01*
X3006000Y2550000D01*
X3012000Y2538000D01*
X3000000Y2544000D01*
X2988000Y2538000D01*
X2980000Y2230000D02*
X2990000Y2250000D01*
X2980000Y2270000D01*
X3000000Y2260000D01*
X3020000Y2270000D01*
X3010000Y2250000D01*
X3020000Y2230000D01*
X3000000Y2240000D01*
X2980000Y2230000D01*
X2988000Y2238000D02*
X2994000Y2250000D01*
X2988000Y2262000D01*
X3000000Y2256000D01*
X3012000Y2262000D01*
X3006000Y2250000D01*
X3012000Y2238000D01*
X3000000Y2244000D01*
X2988000Y2238000D01*
X3055000Y2080000D02*
X3065000Y2100000D01*
X3055000Y2120000D01*
X3075000Y2110000D01*
X3095000Y2120000D01*
X3085000Y2100000D01*
X3095000Y2080000D01*
X3075000Y2090000D01*
X3055000Y2080000D01*
X3063000Y2088000D02*
X3069000Y2100000D01*
X3063000Y2112000D01*
X3075000Y2106000D01*
X3087000Y2112000D01*
X3081000Y2100000D01*
X3087000Y2088000D01*
X3075000Y2094000D01*
X3063000Y2088000D01*
X3055000Y1780000D02*
X3065000Y1800000D01*
X3055000Y1820000D01*
X3075000Y1810000D01*
X3095000Y1820000D01*
X3085000Y1800000D01*
X3095000Y1780000D01*
X3075000Y1790000D01*
X3055000Y1780000D01*
X3063000Y1788000D02*
X3069000Y1800000D01*
X3063000Y1812000D01*
X3075000Y1806000D01*
X3087000Y1812000D01*
X3081000Y1800000D01*
X3087000Y1788000D01*
X3075000Y1794000D01*
X3063000Y1788000D01*
X2905000Y4180000D02*
X2915000Y4200000D01*
X2905000Y4220000D01*
X2925000Y4210000D01*
X2945000Y4220000D01*
X2935000Y4200000D01*
X2945000Y4180000D01*
X2925000Y4190000D01*
X2905000Y4180000D01*
X2913000Y4188000D02*
X2919000Y4200000D01*
X2913000Y4212000D01*
X2925000Y4206000D01*
X2937000Y4212000D01*
X2931000Y4200000D01*
X2937000Y4188000D01*
X2925000Y4194000D01*
X2913000Y4188000D01*
X2905000Y3880000D02*
X2915000Y3900000D01*
X2905000Y3920000D01*
X2925000Y3910000D01*
X2945000Y3920000D01*
X2935000Y3900000D01*
X2945000Y3880000D01*
X2925000Y3890000D01*
X2905000Y3880000D01*
X2913000Y3888000D02*
X2919000Y3900000D01*
X2913000Y3912000D01*
X2925000Y3906000D01*
X2937000Y3912000D01*
X2931000Y3900000D01*
X2937000Y3888000D01*
X2925000Y3894000D01*
X2913000Y3888000D01*
X2830000Y3730000D02*
X2840000Y3750000D01*
X2830000Y3770000D01*
X2850000Y3760000D01*
X2870000Y3770000D01*
X2860000Y3750000D01*
X2870000Y3730000D01*
X2850000Y3740000D01*
X2830000Y3730000D01*
X2838000Y3738000D02*
X2844000Y3750000D01*
X2838000Y3762000D01*
X2850000Y3756000D01*
X2862000Y3762000D01*
X2856000Y3750000D01*
X2862000Y3738000D01*
X2850000Y3744000D01*
X2838000Y3738000D01*
X2905000Y3580000D02*
X2915000Y3600000D01*
X2905000Y3620000D01*
X2925000Y3610000D01*
X2945000Y3620000D01*
X2935000Y3600000D01*
X2945000Y3580000D01*
X2925000Y3590000D01*
X2905000Y3580000D01*
X2913000Y3588000D02*
X2919000Y3600000D01*
X2913000Y3612000D01*
X2925000Y3606000D01*
X2937000Y3612000D01*
X2931000Y3600000D01*
X2937000Y3588000D01*
X2925000Y3594000D01*
X2913000Y3588000D01*
X2905000Y3280000D02*
X2915000Y3300000D01*
X2905000Y3320000D01*
X2925000Y3310000D01*
X2945000Y3320000D01*
X2935000Y3300000D01*
X2945000Y3280000D01*
X2925000Y3290000D01*
X2905000Y3280000D01*
X2913000Y3288000D02*
X2919000Y3300000D01*
X2913000Y3312000D01*
X2925000Y3306000D01*
X2937000Y3312000D01*
X2931000Y3300000D01*
X2937000Y3288000D01*
X2925000Y3294000D01*
X2913000Y3288000D01*
X2830000Y3130000D02*
X2840000Y3150000D01*
X2830000Y3170000D01*
X2850000Y3160000D01*
X2870000Y3170000D01*
X2860000Y3150000D01*
X2870000Y3130000D01*
X2850000Y3140000D01*
X2830000Y3130000D01*
X2838000Y3138000D02*
X2844000Y3150000D01*
X2838000Y3162000D01*
X2850000Y3156000D01*
X2862000Y3162000D01*
X2856000Y3150000D01*
X2862000Y3138000D01*
X2850000Y3144000D01*
X2838000Y3138000D01*
X2905000Y2980000D02*
X2915000Y3000000D01*
X2905000Y3020000D01*
X2925000Y3010000D01*
X2945000Y3020000D01*
X2935000Y3000000D01*
X2945000Y2980000D01*
X2925000Y2990000D01*
X2905000Y2980000D01*
X2913000Y2988000D02*
X2919000Y3000000D01*
X2913000Y3012000D01*
X2925000Y3006000D01*
X2937000Y3012000D01*
X2931000Y3000000D01*
X2937000Y2988000D01*
X2925000Y2994000D01*
X2913000Y2988000D01*
X2905000Y2680000D02*
X2915000Y2700000D01*
X2905000Y2720000D01*
X2925000Y2710000D01*
X2945000Y2720000D01*
X2935000Y2700000D01*
X2945000Y2680000D01*
X2925000Y2690000D01*
X2905000Y2680000D01*
X2913000Y2688000D02*
X2919000Y2700000D01*
X2913000Y2712000D01*
X2925000Y2706000D01*
X2937000Y2712000D01*
X2931000Y2700000D01*
X2937000Y2688000D01*
X2925000Y2694000D01*
X2913000Y2688000D01*
X2830000Y2230000D02*
X2840000Y2250000D01*
X2830000Y2270000D01*
X2850000Y2260000D01*
X2870000Y2270000D01*
X2860000Y2250000D01*
X2870000Y2230000D01*
X2850000Y2240000D01*
X2830000Y2230000D01*
X2838000Y2238000D02*
X2844000Y2250000D01*
X2838000Y2262000D01*
X2850000Y2256000D01*
X2862000Y2262000D01*
X2856000Y2250000D01*
X2862000Y2238000D01*
X2850000Y2244000D01*
X2838000Y2238000D01*
X2755000Y4180000D02*
X2765000Y4200000D01*
X2755000Y4220000D01*
X2775000Y4210000D01*
X2795000Y4220000D01*
X2785000Y4200000D01*
X2795000Y4180000D01*
X2775000Y4190000D01*
X2755000Y4180000D01*
X2763000Y4188000D02*
X2769000Y4200000D01*
X2763000Y4212000D01*
X2775000Y4206000D01*
X2787000Y4212000D01*
X2781000Y4200000D01*
X2787000Y4188000D01*
X2775000Y4194000D01*
X2763000Y4188000D01*
X2755000Y3880000D02*
X2765000Y3900000D01*
X2755000Y3920000D01*
X2775000Y3910000D01*
X2795000Y3920000D01*
X2785000Y3900000D01*
X2795000Y3880000D01*
X2775000Y3890000D01*
X2755000Y3880000D01*
X2763000Y3888000D02*
X2769000Y3900000D01*
X2763000Y3912000D01*
X2775000Y3906000D01*
X2787000Y3912000D01*
X2781000Y3900000D01*
X2787000Y3888000D01*
X2775000Y3894000D01*
X2763000Y3888000D01*
X2680000Y3730000D02*
X2690000Y3750000D01*
X2680000Y3770000D01*
X2700000Y3760000D01*
X2720000Y3770000D01*
X2710000Y3750000D01*
X2720000Y3730000D01*
X2700000Y3740000D01*
X2680000Y3730000D01*
X2688000Y3738000D02*
X2694000Y3750000D01*
X2688000Y3762000D01*
X2700000Y3756000D01*
X2712000Y3762000D01*
X2706000Y3750000D01*
X2712000Y3738000D01*
X2700000Y3744000D01*
X2688000Y3738000D01*
X2755000Y3580000D02*
X2765000Y3600000D01*
X2755000Y3620000D01*
X2775000Y3610000D01*
X2795000Y3620000D01*
X2785000Y3600000D01*
X2795000Y3580000D01*
X2775000Y3590000D01*
X2755000Y3580000D01*
X2763000Y3588000D02*
X2769000Y3600000D01*
X2763000Y3612000D01*
X2775000Y3606000D01*
X2787000Y3612000D01*
X2781000Y3600000D01*
X2787000Y3588000D01*
X2775000Y3594000D01*
X2763000Y3588000D01*
X2680000Y3430000D02*
X2690000Y3450000D01*
X2680000Y3470000D01*
X2700000Y3460000D01*
X2720000Y3470000D01*
X2710000Y3450000D01*
X2720000Y3430000D01*
X2700000Y3440000D01*
X2680000Y3430000D01*
X2688000Y3438000D02*
X2694000Y3450000D01*
X2688000Y3462000D01*
X2700000Y3456000D01*
X2712000Y3462000D01*
X2706000Y3450000D01*
X2712000Y3438000D01*
X2700000Y3444000D01*
X2688000Y3438000D01*
X2755000Y3280000D02*
X2765000Y3300000D01*
X2755000Y3320000D01*
X2775000Y3310000D01*
X2795000Y3320000D01*
X2785000Y3300000D01*
X2795000Y3280000D01*
X2775000Y3290000D01*
X2755000Y3280000D01*
X2763000Y3288000D02*
X2769000Y3300000D01*
X2763000Y3312000D01*
X2775000Y3306000D01*
X2787000Y3312000D01*
X2781000Y3300000D01*
X2787000Y3288000D01*
X2775000Y3294000D01*
X2763000Y3288000D01*
X2680000Y3130000D02*
X2690000Y3150000D01*
X2680000Y3170000D01*
X2700000Y3160000D01*
X2720000Y3170000D01*
X2710000Y3150000D01*
X2720000Y3130000D01*
X2700000Y3140000D01*
X2680000Y3130000D01*
X2688000Y3138000D02*
X2694000Y3150000D01*
X2688000Y3162000D01*
X2700000Y3156000D01*
X2712000Y3162000D01*
X2706000Y3150000D01*
X2712000Y3138000D01*
X2700000Y3144000D01*
X2688000Y3138000D01*
X2680000Y2830000D02*
X2690000Y2850000D01*
X2680000Y2870000D01*
X2700000Y2860000D01*
X2720000Y2870000D01*
X2710000Y2850000D01*
X2720000Y2830000D01*
X2700000Y2840000D01*
X2680000Y2830000D01*
X2688000Y2838000D02*
X2694000Y2850000D01*
X2688000Y2862000D01*
X2700000Y2856000D01*
X2712000Y2862000D01*
X2706000Y2850000D01*
X2712000Y2838000D01*
X2700000Y2844000D01*
X2688000Y2838000D01*
X2755000Y2680000D02*
X2765000Y2700000D01*
X2755000Y2720000D01*
X2775000Y2710000D01*
X2795000Y2720000D01*
X2785000Y2700000D01*
X2795000Y2680000D01*
X2775000Y2690000D01*
X2755000Y2680000D01*
X2763000Y2688000D02*
X2769000Y2700000D01*
X2763000Y2712000D01*
X2775000Y2706000D01*
X2787000Y2712000D01*
X2781000Y2700000D01*
X2787000Y2688000D01*
X2775000Y2694000D01*
X2763000Y2688000D01*
X2680000Y2530000D02*
X2690000Y2550000D01*
X2680000Y2570000D01*
X2700000Y2560000D01*
X2720000Y2570000D01*
X2710000Y2550000D01*
X2720000Y2530000D01*
X2700000Y2540000D01*
X2680000Y2530000D01*
X2688000Y2538000D02*
X2694000Y2550000D01*
X2688000Y2562000D01*
X2700000Y2556000D01*
X2712000Y2562000D01*
X2706000Y2550000D01*
X2712000Y2538000D01*
X2700000Y2544000D01*
X2688000Y2538000D01*
X2755000Y2380000D02*
X2765000Y2400000D01*
X2755000Y2420000D01*
X2775000Y2410000D01*
X2795000Y2420000D01*
X2785000Y2400000D01*
X2795000Y2380000D01*
X2775000Y2390000D01*
X2755000Y2380000D01*
X2763000Y2388000D02*
X2769000Y2400000D01*
X2763000Y2412000D01*
X2775000Y2406000D01*
X2787000Y2412000D01*
X2781000Y2400000D01*
X2787000Y2388000D01*
X2775000Y2394000D01*
X2763000Y2388000D01*
X2755000Y2080000D02*
X2765000Y2100000D01*
X2755000Y2120000D01*
X2775000Y2110000D01*
X2795000Y2120000D01*
X2785000Y2100000D01*
X2795000Y2080000D01*
X2775000Y2090000D01*
X2755000Y2080000D01*
X2763000Y2088000D02*
X2769000Y2100000D01*
X2763000Y2112000D01*
X2775000Y2106000D01*
X2787000Y2112000D01*
X2781000Y2100000D01*
X2787000Y2088000D01*
X2775000Y2094000D01*
X2763000Y2088000D01*
X2755000Y1780000D02*
X2765000Y1800000D01*
X2755000Y1820000D01*
X2775000Y1810000D01*
X2795000Y1820000D01*
X2785000Y1800000D01*
X2795000Y1780000D01*
X2775000Y1790000D01*
X2755000Y1780000D01*
X2763000Y1788000D02*
X2769000Y1800000D01*
X2763000Y1812000D01*
X2775000Y1806000D01*
X2787000Y1812000D01*
X2781000Y1800000D01*
X2787000Y1788000D01*
X2775000Y1794000D01*
X2763000Y1788000D01*
X2605000Y4480000D02*
X2615000Y4500000D01*
X2605000Y4520000D01*
X2625000Y4510000D01*
X2645000Y4520000D01*
X2635000Y4500000D01*
X2645000Y4480000D01*
X2625000Y4490000D01*
X2605000Y4480000D01*
X2613000Y4488000D02*
X2619000Y4500000D01*
X2613000Y4512000D01*
X2625000Y4506000D01*
X2637000Y4512000D01*
X2631000Y4500000D01*
X2637000Y4488000D01*
X2625000Y4494000D01*
X2613000Y4488000D01*
X2605000Y4180000D02*
X2615000Y4200000D01*
X2605000Y4220000D01*
X2625000Y4210000D01*
X2645000Y4220000D01*
X2635000Y4200000D01*
X2645000Y4180000D01*
X2625000Y4190000D01*
X2605000Y4180000D01*
X2613000Y4188000D02*
X2619000Y4200000D01*
X2613000Y4212000D01*
X2625000Y4206000D01*
X2637000Y4212000D01*
X2631000Y4200000D01*
X2637000Y4188000D01*
X2625000Y4194000D01*
X2613000Y4188000D01*
X2605000Y3880000D02*
X2615000Y3900000D01*
X2605000Y3920000D01*
X2625000Y3910000D01*
X2645000Y3920000D01*
X2635000Y3900000D01*
X2645000Y3880000D01*
X2625000Y3890000D01*
X2605000Y3880000D01*
X2613000Y3888000D02*
X2619000Y3900000D01*
X2613000Y3912000D01*
X2625000Y3906000D01*
X2637000Y3912000D01*
X2631000Y3900000D01*
X2637000Y3888000D01*
X2625000Y3894000D01*
X2613000Y3888000D01*
X2605000Y3580000D02*
X2615000Y3600000D01*
X2605000Y3620000D01*
X2625000Y3610000D01*
X2645000Y3620000D01*
X2635000Y3600000D01*
X2645000Y3580000D01*
X2625000Y3590000D01*
X2605000Y3580000D01*
X2613000Y3588000D02*
X2619000Y3600000D01*
X2613000Y3612000D01*
X2625000Y3606000D01*
X2637000Y3612000D01*
X2631000Y3600000D01*
X2637000Y3588000D01*
X2625000Y3594000D01*
X2613000Y3588000D01*
X2605000Y2980000D02*
X2615000Y3000000D01*
X2605000Y3020000D01*
X2625000Y3010000D01*
X2645000Y3020000D01*
X2635000Y3000000D01*
X2645000Y2980000D01*
X2625000Y2990000D01*
X2605000Y2980000D01*
X2613000Y2988000D02*
X2619000Y3000000D01*
X2613000Y3012000D01*
X2625000Y3006000D01*
X2637000Y3012000D01*
X2631000Y3000000D01*
X2637000Y2988000D01*
X2625000Y2994000D01*
X2613000Y2988000D01*
X2530000Y2830000D02*
X2540000Y2850000D01*
X2530000Y2870000D01*
X2550000Y2860000D01*
X2570000Y2870000D01*
X2560000Y2850000D01*
X2570000Y2830000D01*
X2550000Y2840000D01*
X2530000Y2830000D01*
X2538000Y2838000D02*
X2544000Y2850000D01*
X2538000Y2862000D01*
X2550000Y2856000D01*
X2562000Y2862000D01*
X2556000Y2850000D01*
X2562000Y2838000D01*
X2550000Y2844000D01*
X2538000Y2838000D01*
X2605000Y2680000D02*
X2615000Y2700000D01*
X2605000Y2720000D01*
X2625000Y2710000D01*
X2645000Y2720000D01*
X2635000Y2700000D01*
X2645000Y2680000D01*
X2625000Y2690000D01*
X2605000Y2680000D01*
X2613000Y2688000D02*
X2619000Y2700000D01*
X2613000Y2712000D01*
X2625000Y2706000D01*
X2637000Y2712000D01*
X2631000Y2700000D01*
X2637000Y2688000D01*
X2625000Y2694000D01*
X2613000Y2688000D01*
X2530000Y2230000D02*
X2540000Y2250000D01*
X2530000Y2270000D01*
X2550000Y2260000D01*
X2570000Y2270000D01*
X2560000Y2250000D01*
X2570000Y2230000D01*
X2550000Y2240000D01*
X2530000Y2230000D01*
X2538000Y2238000D02*
X2544000Y2250000D01*
X2538000Y2262000D01*
X2550000Y2256000D01*
X2562000Y2262000D01*
X2556000Y2250000D01*
X2562000Y2238000D01*
X2550000Y2244000D01*
X2538000Y2238000D01*
X2530000Y1930000D02*
X2540000Y1950000D01*
X2530000Y1970000D01*
X2550000Y1960000D01*
X2570000Y1970000D01*
X2560000Y1950000D01*
X2570000Y1930000D01*
X2550000Y1940000D01*
X2530000Y1930000D01*
X2538000Y1938000D02*
X2544000Y1950000D01*
X2538000Y1962000D01*
X2550000Y1956000D01*
X2562000Y1962000D01*
X2556000Y1950000D01*
X2562000Y1938000D01*
X2550000Y1944000D01*
X2538000Y1938000D01*
X2605000Y1780000D02*
X2615000Y1800000D01*
X2605000Y1820000D01*
X2625000Y1810000D01*
X2645000Y1820000D01*
X2635000Y1800000D01*
X2645000Y1780000D01*
X2625000Y1790000D01*
X2605000Y1780000D01*
X2613000Y1788000D02*
X2619000Y1800000D01*
X2613000Y1812000D01*
X2625000Y1806000D01*
X2637000Y1812000D01*
X2631000Y1800000D01*
X2637000Y1788000D01*
X2625000Y1794000D01*
X2613000Y1788000D01*
X2455000Y4480000D02*
X2465000Y4500000D01*
X2455000Y4520000D01*
X2475000Y4510000D01*
X2495000Y4520000D01*
X2485000Y4500000D01*
X2495000Y4480000D01*
X2475000Y4490000D01*
X2455000Y4480000D01*
X2463000Y4488000D02*
X2469000Y4500000D01*
X2463000Y4512000D01*
X2475000Y4506000D01*
X2487000Y4512000D01*
X2481000Y4500000D01*
X2487000Y4488000D01*
X2475000Y4494000D01*
X2463000Y4488000D01*
X2380000Y4030000D02*
X2390000Y4050000D01*
X2380000Y4070000D01*
X2400000Y4060000D01*
X2420000Y4070000D01*
X2410000Y4050000D01*
X2420000Y4030000D01*
X2400000Y4040000D01*
X2380000Y4030000D01*
X2388000Y4038000D02*
X2394000Y4050000D01*
X2388000Y4062000D01*
X2400000Y4056000D01*
X2412000Y4062000D01*
X2406000Y4050000D01*
X2412000Y4038000D01*
X2400000Y4044000D01*
X2388000Y4038000D01*
X2455000Y3880000D02*
X2465000Y3900000D01*
X2455000Y3920000D01*
X2475000Y3910000D01*
X2495000Y3920000D01*
X2485000Y3900000D01*
X2495000Y3880000D01*
X2475000Y3890000D01*
X2455000Y3880000D01*
X2463000Y3888000D02*
X2469000Y3900000D01*
X2463000Y3912000D01*
X2475000Y3906000D01*
X2487000Y3912000D01*
X2481000Y3900000D01*
X2487000Y3888000D01*
X2475000Y3894000D01*
X2463000Y3888000D01*
X2380000Y3730000D02*
X2390000Y3750000D01*
X2380000Y3770000D01*
X2400000Y3760000D01*
X2420000Y3770000D01*
X2410000Y3750000D01*
X2420000Y3730000D01*
X2400000Y3740000D01*
X2380000Y3730000D01*
X2388000Y3738000D02*
X2394000Y3750000D01*
X2388000Y3762000D01*
X2400000Y3756000D01*
X2412000Y3762000D01*
X2406000Y3750000D01*
X2412000Y3738000D01*
X2400000Y3744000D01*
X2388000Y3738000D01*
X2455000Y3580000D02*
X2465000Y3600000D01*
X2455000Y3620000D01*
X2475000Y3610000D01*
X2495000Y3620000D01*
X2485000Y3600000D01*
X2495000Y3580000D01*
X2475000Y3590000D01*
X2455000Y3580000D01*
X2463000Y3588000D02*
X2469000Y3600000D01*
X2463000Y3612000D01*
X2475000Y3606000D01*
X2487000Y3612000D01*
X2481000Y3600000D01*
X2487000Y3588000D01*
X2475000Y3594000D01*
X2463000Y3588000D01*
X2380000Y3430000D02*
X2390000Y3450000D01*
X2380000Y3470000D01*
X2400000Y3460000D01*
X2420000Y3470000D01*
X2410000Y3450000D01*
X2420000Y3430000D01*
X2400000Y3440000D01*
X2380000Y3430000D01*
X2388000Y3438000D02*
X2394000Y3450000D01*
X2388000Y3462000D01*
X2400000Y3456000D01*
X2412000Y3462000D01*
X2406000Y3450000D01*
X2412000Y3438000D01*
X2400000Y3444000D01*
X2388000Y3438000D01*
X2455000Y3280000D02*
X2465000Y3300000D01*
X2455000Y3320000D01*
X2475000Y3310000D01*
X2495000Y3320000D01*
X2485000Y3300000D01*
X2495000Y3280000D01*
X2475000Y3290000D01*
X2455000Y3280000D01*
X2463000Y3288000D02*
X2469000Y3300000D01*
X2463000Y3312000D01*
X2475000Y3306000D01*
X2487000Y3312000D01*
X2481000Y3300000D01*
X2487000Y3288000D01*
X2475000Y3294000D01*
X2463000Y3288000D01*
X2380000Y3130000D02*
X2390000Y3150000D01*
X2380000Y3170000D01*
X2400000Y3160000D01*
X2420000Y3170000D01*
X2410000Y3150000D01*
X2420000Y3130000D01*
X2400000Y3140000D01*
X2380000Y3130000D01*
X2388000Y3138000D02*
X2394000Y3150000D01*
X2388000Y3162000D01*
X2400000Y3156000D01*
X2412000Y3162000D01*
X2406000Y3150000D01*
X2412000Y3138000D01*
X2400000Y3144000D01*
X2388000Y3138000D01*
X2455000Y2980000D02*
X2465000Y3000000D01*
X2455000Y3020000D01*
X2475000Y3010000D01*
X2495000Y3020000D01*
X2485000Y3000000D01*
X2495000Y2980000D01*
X2475000Y2990000D01*
X2455000Y2980000D01*
X2463000Y2988000D02*
X2469000Y3000000D01*
X2463000Y3012000D01*
X2475000Y3006000D01*
X2487000Y3012000D01*
X2481000Y3000000D01*
X2487000Y2988000D01*
X2475000Y2994000D01*
X2463000Y2988000D01*
X2380000Y2830000D02*
X2390000Y2850000D01*
X2380000Y2870000D01*
X2400000Y2860000D01*
X2420000Y2870000D01*
X2410000Y2850000D01*
X2420000Y2830000D01*
X2400000Y2840000D01*
X2380000Y2830000D01*
X2388000Y2838000D02*
X2394000Y2850000D01*
X2388000Y2862000D01*
X2400000Y2856000D01*
X2412000Y2862000D01*
X2406000Y2850000D01*
X2412000Y2838000D01*
X2400000Y2844000D01*
X2388000Y2838000D01*
X2455000Y2680000D02*
X2465000Y2700000D01*
X2455000Y2720000D01*
X2475000Y2710000D01*
X2495000Y2720000D01*
X2485000Y2700000D01*
X2495000Y2680000D01*
X2475000Y2690000D01*
X2455000Y2680000D01*
X2463000Y2688000D02*
X2469000Y2700000D01*
X2463000Y2712000D01*
X2475000Y2706000D01*
X2487000Y2712000D01*
X2481000Y2700000D01*
X2487000Y2688000D01*
X2475000Y2694000D01*
X2463000Y2688000D01*
X2380000Y2530000D02*
X2390000Y2550000D01*
X2380000Y2570000D01*
X2400000Y2560000D01*
X2420000Y2570000D01*
X2410000Y2550000D01*
X2420000Y2530000D01*
X2400000Y2540000D01*
X2380000Y2530000D01*
X2388000Y2538000D02*
X2394000Y2550000D01*
X2388000Y2562000D01*
X2400000Y2556000D01*
X2412000Y2562000D01*
X2406000Y2550000D01*
X2412000Y2538000D01*
X2400000Y2544000D01*
X2388000Y2538000D01*
X2455000Y2380000D02*
X2465000Y2400000D01*
X2455000Y2420000D01*
X2475000Y2410000D01*
X2495000Y2420000D01*
X2485000Y2400000D01*
X2495000Y2380000D01*
X2475000Y2390000D01*
X2455000Y2380000D01*
X2463000Y2388000D02*
X2469000Y2400000D01*
X2463000Y2412000D01*
X2475000Y2406000D01*
X2487000Y2412000D01*
X2481000Y2400000D01*
X2487000Y2388000D01*
X2475000Y2394000D01*
X2463000Y2388000D01*
X2455000Y1780000D02*
X2465000Y1800000D01*
X2455000Y1820000D01*
X2475000Y1810000D01*
X2495000Y1820000D01*
X2485000Y1800000D01*
X2495000Y1780000D01*
X2475000Y1790000D01*
X2455000Y1780000D01*
X2463000Y1788000D02*
X2469000Y1800000D01*
X2463000Y1812000D01*
X2475000Y1806000D01*
X2487000Y1812000D01*
X2481000Y1800000D01*
X2487000Y1788000D01*
X2475000Y1794000D01*
X2463000Y1788000D01*
X2230000Y4030000D02*
X2240000Y4050000D01*
X2230000Y4070000D01*
X2250000Y4060000D01*
X2270000Y4070000D01*
X2260000Y4050000D01*
X2270000Y4030000D01*
X2250000Y4040000D01*
X2230000Y4030000D01*
X2238000Y4038000D02*
X2244000Y4050000D01*
X2238000Y4062000D01*
X2250000Y4056000D01*
X2262000Y4062000D01*
X2256000Y4050000D01*
X2262000Y4038000D01*
X2250000Y4044000D01*
X2238000Y4038000D01*
X2230000Y3430000D02*
X2240000Y3450000D01*
X2230000Y3470000D01*
X2250000Y3460000D01*
X2270000Y3470000D01*
X2260000Y3450000D01*
X2270000Y3430000D01*
X2250000Y3440000D01*
X2230000Y3430000D01*
X2238000Y3438000D02*
X2244000Y3450000D01*
X2238000Y3462000D01*
X2250000Y3456000D01*
X2262000Y3462000D01*
X2256000Y3450000D01*
X2262000Y3438000D01*
X2250000Y3444000D01*
X2238000Y3438000D01*
X2230000Y2830000D02*
X2240000Y2850000D01*
X2230000Y2870000D01*
X2250000Y2860000D01*
X2270000Y2870000D01*
X2260000Y2850000D01*
X2270000Y2830000D01*
X2250000Y2840000D01*
X2230000Y2830000D01*
X2238000Y2838000D02*
X2244000Y2850000D01*
X2238000Y2862000D01*
X2250000Y2856000D01*
X2262000Y2862000D01*
X2256000Y2850000D01*
X2262000Y2838000D01*
X2250000Y2844000D01*
X2238000Y2838000D01*
X2230000Y2230000D02*
X2240000Y2250000D01*
X2230000Y2270000D01*
X2250000Y2260000D01*
X2270000Y2270000D01*
X2260000Y2250000D01*
X2270000Y2230000D01*
X2250000Y2240000D01*
X2230000Y2230000D01*
X2238000Y2238000D02*
X2244000Y2250000D01*
X2238000Y2262000D01*
X2250000Y2256000D01*
X2262000Y2262000D01*
X2256000Y2250000D01*
X2262000Y2238000D01*
X2250000Y2244000D01*
X2238000Y2238000D01*
X2305000Y2080000D02*
X2315000Y2100000D01*
X2305000Y2120000D01*
X2325000Y2110000D01*
X2345000Y2120000D01*
X2335000Y2100000D01*
X2345000Y2080000D01*
X2325000Y2090000D01*
X2305000Y2080000D01*
X2313000Y2088000D02*
X2319000Y2100000D01*
X2313000Y2112000D01*
X2325000Y2106000D01*
X2337000Y2112000D01*
X2331000Y2100000D01*
X2337000Y2088000D01*
X2325000Y2094000D01*
X2313000Y2088000D01*
X2230000Y1930000D02*
X2240000Y1950000D01*
X2230000Y1970000D01*
X2250000Y1960000D01*
X2270000Y1970000D01*
X2260000Y1950000D01*
X2270000Y1930000D01*
X2250000Y1940000D01*
X2230000Y1930000D01*
X2238000Y1938000D02*
X2244000Y1950000D01*
X2238000Y1962000D01*
X2250000Y1956000D01*
X2262000Y1962000D01*
X2256000Y1950000D01*
X2262000Y1938000D01*
X2250000Y1944000D01*
X2238000Y1938000D01*
X2080000Y3430000D02*
X2090000Y3450000D01*
X2080000Y3470000D01*
X2100000Y3460000D01*
X2120000Y3470000D01*
X2110000Y3450000D01*
X2120000Y3430000D01*
X2100000Y3440000D01*
X2080000Y3430000D01*
X2088000Y3438000D02*
X2094000Y3450000D01*
X2088000Y3462000D01*
X2100000Y3456000D01*
X2112000Y3462000D01*
X2106000Y3450000D01*
X2112000Y3438000D01*
X2100000Y3444000D01*
X2088000Y3438000D01*
X2155000Y3280000D02*
X2165000Y3300000D01*
X2155000Y3320000D01*
X2175000Y3310000D01*
X2195000Y3320000D01*
X2185000Y3300000D01*
X2195000Y3280000D01*
X2175000Y3290000D01*
X2155000Y3280000D01*
X2163000Y3288000D02*
X2169000Y3300000D01*
X2163000Y3312000D01*
X2175000Y3306000D01*
X2187000Y3312000D01*
X2181000Y3300000D01*
X2187000Y3288000D01*
X2175000Y3294000D01*
X2163000Y3288000D01*
X2080000Y3130000D02*
X2090000Y3150000D01*
X2080000Y3170000D01*
X2100000Y3160000D01*
X2120000Y3170000D01*
X2110000Y3150000D01*
X2120000Y3130000D01*
X2100000Y3140000D01*
X2080000Y3130000D01*
X2088000Y3138000D02*
X2094000Y3150000D01*
X2088000Y3162000D01*
X2100000Y3156000D01*
X2112000Y3162000D01*
X2106000Y3150000D01*
X2112000Y3138000D01*
X2100000Y3144000D01*
X2088000Y3138000D01*
X2155000Y2980000D02*
X2165000Y3000000D01*
X2155000Y3020000D01*
X2175000Y3010000D01*
X2195000Y3020000D01*
X2185000Y3000000D01*
X2195000Y2980000D01*
X2175000Y2990000D01*
X2155000Y2980000D01*
X2163000Y2988000D02*
X2169000Y3000000D01*
X2163000Y3012000D01*
X2175000Y3006000D01*
X2187000Y3012000D01*
X2181000Y3000000D01*
X2187000Y2988000D01*
X2175000Y2994000D01*
X2163000Y2988000D01*
X2155000Y2680000D02*
X2165000Y2700000D01*
X2155000Y2720000D01*
X2175000Y2710000D01*
X2195000Y2720000D01*
X2185000Y2700000D01*
X2195000Y2680000D01*
X2175000Y2690000D01*
X2155000Y2680000D01*
X2163000Y2688000D02*
X2169000Y2700000D01*
X2163000Y2712000D01*
X2175000Y2706000D01*
X2187000Y2712000D01*
X2181000Y2700000D01*
X2187000Y2688000D01*
X2175000Y2694000D01*
X2163000Y2688000D01*
X2155000Y2380000D02*
X2165000Y2400000D01*
X2155000Y2420000D01*
X2175000Y2410000D01*
X2195000Y2420000D01*
X2185000Y2400000D01*
X2195000Y2380000D01*
X2175000Y2390000D01*
X2155000Y2380000D01*
X2163000Y2388000D02*
X2169000Y2400000D01*
X2163000Y2412000D01*
X2175000Y2406000D01*
X2187000Y2412000D01*
X2181000Y2400000D01*
X2187000Y2388000D01*
X2175000Y2394000D01*
X2163000Y2388000D01*
X2155000Y2080000D02*
X2165000Y2100000D01*
X2155000Y2120000D01*
X2175000Y2110000D01*
X2195000Y2120000D01*
X2185000Y2100000D01*
X2195000Y2080000D01*
X2175000Y2090000D01*
X2155000Y2080000D01*
X2163000Y2088000D02*
X2169000Y2100000D01*
X2163000Y2112000D01*
X2175000Y2106000D01*
X2187000Y2112000D01*
X2181000Y2100000D01*
X2187000Y2088000D01*
X2175000Y2094000D01*
X2163000Y2088000D01*
X1930000Y4030000D02*
X1940000Y4050000D01*
X1930000Y4070000D01*
X1950000Y4060000D01*
X1970000Y4070000D01*
X1960000Y4050000D01*
X1970000Y4030000D01*
X1950000Y4040000D01*
X1930000Y4030000D01*
X1938000Y4038000D02*
X1944000Y4050000D01*
X1938000Y4062000D01*
X1950000Y4056000D01*
X1962000Y4062000D01*
X1956000Y4050000D01*
X1962000Y4038000D01*
X1950000Y4044000D01*
X1938000Y4038000D01*
X1930000Y3730000D02*
X1940000Y3750000D01*
X1930000Y3770000D01*
X1950000Y3760000D01*
X1970000Y3770000D01*
X1960000Y3750000D01*
X1970000Y3730000D01*
X1950000Y3740000D01*
X1930000Y3730000D01*
X1938000Y3738000D02*
X1944000Y3750000D01*
X1938000Y3762000D01*
X1950000Y3756000D01*
X1962000Y3762000D01*
X1956000Y3750000D01*
X1962000Y3738000D01*
X1950000Y3744000D01*
X1938000Y3738000D01*
X1930000Y3430000D02*
X1940000Y3450000D01*
X1930000Y3470000D01*
X1950000Y3460000D01*
X1970000Y3470000D01*
X1960000Y3450000D01*
X1970000Y3430000D01*
X1950000Y3440000D01*
X1930000Y3430000D01*
X1938000Y3438000D02*
X1944000Y3450000D01*
X1938000Y3462000D01*
X1950000Y3456000D01*
X1962000Y3462000D01*
X1956000Y3450000D01*
X1962000Y3438000D01*
X1950000Y3444000D01*
X1938000Y3438000D01*
X2005000Y2980000D02*
X2015000Y3000000D01*
X2005000Y3020000D01*
X2025000Y3010000D01*
X2045000Y3020000D01*
X2035000Y3000000D01*
X2045000Y2980000D01*
X2025000Y2990000D01*
X2005000Y2980000D01*
X2013000Y2988000D02*
X2019000Y3000000D01*
X2013000Y3012000D01*
X2025000Y3006000D01*
X2037000Y3012000D01*
X2031000Y3000000D01*
X2037000Y2988000D01*
X2025000Y2994000D01*
X2013000Y2988000D01*
X1930000Y2230000D02*
X1940000Y2250000D01*
X1930000Y2270000D01*
X1950000Y2260000D01*
X1970000Y2270000D01*
X1960000Y2250000D01*
X1970000Y2230000D01*
X1950000Y2240000D01*
X1930000Y2230000D01*
X1938000Y2238000D02*
X1944000Y2250000D01*
X1938000Y2262000D01*
X1950000Y2256000D01*
X1962000Y2262000D01*
X1956000Y2250000D01*
X1962000Y2238000D01*
X1950000Y2244000D01*
X1938000Y2238000D01*
X1855000Y3880000D02*
X1865000Y3900000D01*
X1855000Y3920000D01*
X1875000Y3910000D01*
X1895000Y3920000D01*
X1885000Y3900000D01*
X1895000Y3880000D01*
X1875000Y3890000D01*
X1855000Y3880000D01*
X1863000Y3888000D02*
X1869000Y3900000D01*
X1863000Y3912000D01*
X1875000Y3906000D01*
X1887000Y3912000D01*
X1881000Y3900000D01*
X1887000Y3888000D01*
X1875000Y3894000D01*
X1863000Y3888000D01*
X1780000Y3730000D02*
X1790000Y3750000D01*
X1780000Y3770000D01*
X1800000Y3760000D01*
X1820000Y3770000D01*
X1810000Y3750000D01*
X1820000Y3730000D01*
X1800000Y3740000D01*
X1780000Y3730000D01*
X1788000Y3738000D02*
X1794000Y3750000D01*
X1788000Y3762000D01*
X1800000Y3756000D01*
X1812000Y3762000D01*
X1806000Y3750000D01*
X1812000Y3738000D01*
X1800000Y3744000D01*
X1788000Y3738000D01*
X1855000Y3580000D02*
X1865000Y3600000D01*
X1855000Y3620000D01*
X1875000Y3610000D01*
X1895000Y3620000D01*
X1885000Y3600000D01*
X1895000Y3580000D01*
X1875000Y3590000D01*
X1855000Y3580000D01*
X1863000Y3588000D02*
X1869000Y3600000D01*
X1863000Y3612000D01*
X1875000Y3606000D01*
X1887000Y3612000D01*
X1881000Y3600000D01*
X1887000Y3588000D01*
X1875000Y3594000D01*
X1863000Y3588000D01*
X1855000Y3280000D02*
X1865000Y3300000D01*
X1855000Y3320000D01*
X1875000Y3310000D01*
X1895000Y3320000D01*
X1885000Y3300000D01*
X1895000Y3280000D01*
X1875000Y3290000D01*
X1855000Y3280000D01*
X1863000Y3288000D02*
X1869000Y3300000D01*
X1863000Y3312000D01*
X1875000Y3306000D01*
X1887000Y3312000D01*
X1881000Y3300000D01*
X1887000Y3288000D01*
X1875000Y3294000D01*
X1863000Y3288000D01*
X1855000Y2980000D02*
X1865000Y3000000D01*
X1855000Y3020000D01*
X1875000Y3010000D01*
X1895000Y3020000D01*
X1885000Y3000000D01*
X1895000Y2980000D01*
X1875000Y2990000D01*
X1855000Y2980000D01*
X1863000Y2988000D02*
X1869000Y3000000D01*
X1863000Y3012000D01*
X1875000Y3006000D01*
X1887000Y3012000D01*
X1881000Y3000000D01*
X1887000Y2988000D01*
X1875000Y2994000D01*
X1863000Y2988000D01*
X1780000Y2830000D02*
X1790000Y2850000D01*
X1780000Y2870000D01*
X1800000Y2860000D01*
X1820000Y2870000D01*
X1810000Y2850000D01*
X1820000Y2830000D01*
X1800000Y2840000D01*
X1780000Y2830000D01*
X1788000Y2838000D02*
X1794000Y2850000D01*
X1788000Y2862000D01*
X1800000Y2856000D01*
X1812000Y2862000D01*
X1806000Y2850000D01*
X1812000Y2838000D01*
X1800000Y2844000D01*
X1788000Y2838000D01*
X1855000Y2680000D02*
X1865000Y2700000D01*
X1855000Y2720000D01*
X1875000Y2710000D01*
X1895000Y2720000D01*
X1885000Y2700000D01*
X1895000Y2680000D01*
X1875000Y2690000D01*
X1855000Y2680000D01*
X1863000Y2688000D02*
X1869000Y2700000D01*
X1863000Y2712000D01*
X1875000Y2706000D01*
X1887000Y2712000D01*
X1881000Y2700000D01*
X1887000Y2688000D01*
X1875000Y2694000D01*
X1863000Y2688000D01*
X1780000Y2530000D02*
X1790000Y2550000D01*
X1780000Y2570000D01*
X1800000Y2560000D01*
X1820000Y2570000D01*
X1810000Y2550000D01*
X1820000Y2530000D01*
X1800000Y2540000D01*
X1780000Y2530000D01*
X1788000Y2538000D02*
X1794000Y2550000D01*
X1788000Y2562000D01*
X1800000Y2556000D01*
X1812000Y2562000D01*
X1806000Y2550000D01*
X1812000Y2538000D01*
X1800000Y2544000D01*
X1788000Y2538000D01*
X1855000Y2380000D02*
X1865000Y2400000D01*
X1855000Y2420000D01*
X1875000Y2410000D01*
X1895000Y2420000D01*
X1885000Y2400000D01*
X1895000Y2380000D01*
X1875000Y2390000D01*
X1855000Y2380000D01*
X1863000Y2388000D02*
X1869000Y2400000D01*
X1863000Y2412000D01*
X1875000Y2406000D01*
X1887000Y2412000D01*
X1881000Y2400000D01*
X1887000Y2388000D01*
X1875000Y2394000D01*
X1863000Y2388000D01*
X1705000Y3580000D02*
X1715000Y3600000D01*
X1705000Y3620000D01*
X1725000Y3610000D01*
X1745000Y3620000D01*
X1735000Y3600000D01*
X1745000Y3580000D01*
X1725000Y3590000D01*
X1705000Y3580000D01*
X1713000Y3588000D02*
X1719000Y3600000D01*
X1713000Y3612000D01*
X1725000Y3606000D01*
X1737000Y3612000D01*
X1731000Y3600000D01*
X1737000Y3588000D01*
X1725000Y3594000D01*
X1713000Y3588000D01*
X1705000Y3280000D02*
X1715000Y3300000D01*
X1705000Y3320000D01*
X1725000Y3310000D01*
X1745000Y3320000D01*
X1735000Y3300000D01*
X1745000Y3280000D01*
X1725000Y3290000D01*
X1705000Y3280000D01*
X1713000Y3288000D02*
X1719000Y3300000D01*
X1713000Y3312000D01*
X1725000Y3306000D01*
X1737000Y3312000D01*
X1731000Y3300000D01*
X1737000Y3288000D01*
X1725000Y3294000D01*
X1713000Y3288000D01*
X1630000Y3130000D02*
X1640000Y3150000D01*
X1630000Y3170000D01*
X1650000Y3160000D01*
X1670000Y3170000D01*
X1660000Y3150000D01*
X1670000Y3130000D01*
X1650000Y3140000D01*
X1630000Y3130000D01*
X1638000Y3138000D02*
X1644000Y3150000D01*
X1638000Y3162000D01*
X1650000Y3156000D01*
X1662000Y3162000D01*
X1656000Y3150000D01*
X1662000Y3138000D01*
X1650000Y3144000D01*
X1638000Y3138000D01*
X1705000Y2980000D02*
X1715000Y3000000D01*
X1705000Y3020000D01*
X1725000Y3010000D01*
X1745000Y3020000D01*
X1735000Y3000000D01*
X1745000Y2980000D01*
X1725000Y2990000D01*
X1705000Y2980000D01*
X1713000Y2988000D02*
X1719000Y3000000D01*
X1713000Y3012000D01*
X1725000Y3006000D01*
X1737000Y3012000D01*
X1731000Y3000000D01*
X1737000Y2988000D01*
X1725000Y2994000D01*
X1713000Y2988000D01*
X1705000Y2680000D02*
X1715000Y2700000D01*
X1705000Y2720000D01*
X1725000Y2710000D01*
X1745000Y2720000D01*
X1735000Y2700000D01*
X1745000Y2680000D01*
X1725000Y2690000D01*
X1705000Y2680000D01*
X1713000Y2688000D02*
X1719000Y2700000D01*
X1713000Y2712000D01*
X1725000Y2706000D01*
X1737000Y2712000D01*
X1731000Y2700000D01*
X1737000Y2688000D01*
X1725000Y2694000D01*
X1713000Y2688000D01*
X2250000Y2367795D02*
Y2357795D01*
X2270000D01*
Y2367795D01*
X2280000D01*
Y2387795D01*
X2270000D01*
Y2397795D01*
X2250000D01*
Y2387795D01*
X2240000D01*
Y2367795D01*
X2250000D01*
X2254000Y2371795D02*
Y2365795D01*
X2266000D01*
Y2371795D01*
X2272000D01*
Y2383795D01*
X2266000D01*
Y2389795D01*
X2254000D01*
Y2383795D01*
X2248000D01*
Y2371795D01*
X2254000D01*
X2685000Y4127816D02*
Y4117816D01*
X2705000D01*
Y4127816D01*
X2715000D01*
Y4147816D01*
X2705000D01*
Y4157816D01*
X2685000D01*
Y4147816D01*
X2675000D01*
Y4127816D01*
X2685000D01*
X2689000Y4131816D02*
Y4125816D01*
X2701000D01*
Y4131816D01*
X2707000D01*
Y4143816D01*
X2701000D01*
Y4149816D01*
X2689000D01*
Y4143816D01*
X2683000D01*
Y4131816D01*
X2689000D01*
X2665000Y4340000D02*
Y4330000D01*
X2685000D01*
Y4340000D01*
X2695000D01*
Y4360000D01*
X2685000D01*
Y4370000D01*
X2665000D01*
Y4360000D01*
X2655000D01*
Y4340000D01*
X2665000D01*
X2669000Y4344000D02*
Y4338000D01*
X2681000D01*
Y4344000D01*
X2687000D01*
Y4356000D01*
X2681000D01*
Y4362000D01*
X2669000D01*
Y4356000D01*
X2663000D01*
Y4344000D01*
X2669000D01*
X2685000Y2204095D02*
X2695000D01*
X2705000Y2214095D01*
X2715000Y2204095D01*
X2725000D01*
Y2214095D01*
X2715000Y2224095D01*
X2725000Y2234095D01*
Y2244095D01*
X2715000D01*
X2705000Y2234095D01*
X2695000Y2244095D01*
X2685000D01*
Y2234095D01*
X2695000Y2224095D01*
X2685000Y2214095D01*
Y2204095D01*
X2693000Y2212095D02*
X2699000D01*
X2705000Y2218095D01*
X2711000Y2212095D01*
X2717000D01*
Y2218095D01*
X2711000Y2224095D01*
X2717000Y2230095D01*
Y2236095D01*
X2711000D01*
X2705000Y2230095D01*
X2699000Y2236095D01*
X2693000D01*
Y2230095D01*
X2699000Y2224095D01*
X2693000Y2218095D01*
Y2212095D01*
X2616496Y1858504D02*
X2626496D01*
X2636496Y1868504D01*
X2646496Y1858504D01*
X2656496D01*
Y1868504D01*
X2646496Y1878504D01*
X2656496Y1888504D01*
Y1898504D01*
X2646496D01*
X2636496Y1888504D01*
X2626496Y1898504D01*
X2616496D01*
Y1888504D01*
X2626496Y1878504D01*
X2616496Y1868504D01*
Y1858504D01*
X2624496Y1866504D02*
X2630496D01*
X2636496Y1872504D01*
X2642496Y1866504D01*
X2648496D01*
Y1872504D01*
X2642496Y1878504D01*
X2648496Y1884504D01*
Y1890504D01*
X2642496D01*
X2636496Y1884504D01*
X2630496Y1890504D01*
X2624496D01*
Y1884504D01*
X2630496Y1878504D01*
X2624496Y1872504D01*
Y1866504D01*
X3335000Y4435000D02*
X3345000D01*
X3355000Y4445000D01*
X3365000Y4435000D01*
X3375000D01*
Y4445000D01*
X3365000Y4455000D01*
X3375000Y4465000D01*
Y4475000D01*
X3365000D01*
X3355000Y4465000D01*
X3345000Y4475000D01*
X3335000D01*
Y4465000D01*
X3345000Y4455000D01*
X3335000Y4445000D01*
Y4435000D01*
X3343000Y4443000D02*
X3349000D01*
X3355000Y4449000D01*
X3361000Y4443000D01*
X3367000D01*
Y4449000D01*
X3361000Y4455000D01*
X3367000Y4461000D01*
Y4467000D01*
X3361000D01*
X3355000Y4461000D01*
X3349000Y4467000D01*
X3343000D01*
Y4461000D01*
X3349000Y4455000D01*
X3343000Y4449000D01*
Y4443000D01*
X2545000Y2880000D02*
X2555000D01*
X2565000Y2890000D01*
X2575000Y2880000D01*
X2585000D01*
Y2890000D01*
X2575000Y2900000D01*
X2585000Y2910000D01*
Y2920000D01*
X2575000D01*
X2565000Y2910000D01*
X2555000Y2920000D01*
X2545000D01*
Y2910000D01*
X2555000Y2900000D01*
X2545000Y2890000D01*
Y2880000D01*
X2553000Y2888000D02*
X2559000D01*
X2565000Y2894000D01*
X2571000Y2888000D01*
X2577000D01*
Y2894000D01*
X2571000Y2900000D01*
X2577000Y2906000D01*
Y2912000D01*
X2571000D01*
X2565000Y2906000D01*
X2559000Y2912000D01*
X2553000D01*
Y2906000D01*
X2559000Y2900000D01*
X2553000Y2894000D01*
Y2888000D01*
X2230000Y3840000D02*
X2240000D01*
X2250000Y3850000D01*
X2260000Y3840000D01*
X2270000D01*
Y3850000D01*
X2260000Y3860000D01*
X2270000Y3870000D01*
Y3880000D01*
X2260000D01*
X2250000Y3870000D01*
X2240000Y3880000D01*
X2230000D01*
Y3870000D01*
X2240000Y3860000D01*
X2230000Y3850000D01*
Y3840000D01*
X2238000Y3848000D02*
X2244000D01*
X2250000Y3854000D01*
X2256000Y3848000D01*
X2262000D01*
Y3854000D01*
X2256000Y3860000D01*
X2262000Y3866000D01*
Y3872000D01*
X2256000D01*
X2250000Y3866000D01*
X2244000Y3872000D01*
X2238000D01*
Y3866000D01*
X2244000Y3860000D01*
X2238000Y3854000D01*
Y3848000D01*
X2423189Y4145000D02*
X2433189D01*
X2443189Y4155000D01*
X2453189Y4145000D01*
X2463189D01*
Y4155000D01*
X2453189Y4165000D01*
X2463189Y4175000D01*
Y4185000D01*
X2453189D01*
X2443189Y4175000D01*
X2433189Y4185000D01*
X2423189D01*
Y4175000D01*
X2433189Y4165000D01*
X2423189Y4155000D01*
Y4145000D01*
X2431189Y4153000D02*
X2437189D01*
X2443189Y4159000D01*
X2449189Y4153000D01*
X2455189D01*
Y4159000D01*
X2449189Y4165000D01*
X2455189Y4171000D01*
Y4177000D01*
X2449189D01*
X2443189Y4171000D01*
X2437189Y4177000D01*
X2431189D01*
Y4171000D01*
X2437189Y4165000D01*
X2431189Y4159000D01*
Y4153000D01*
X3540000Y1930000D02*
X3550000D01*
X3560000Y1940000D01*
X3570000Y1930000D01*
X3580000D01*
Y1940000D01*
X3570000Y1950000D01*
X3580000Y1960000D01*
Y1970000D01*
X3570000D01*
X3560000Y1960000D01*
X3550000Y1970000D01*
X3540000D01*
Y1960000D01*
X3550000Y1950000D01*
X3540000Y1940000D01*
Y1930000D01*
X3548000Y1938000D02*
X3554000D01*
X3560000Y1944000D01*
X3566000Y1938000D01*
X3572000D01*
Y1944000D01*
X3566000Y1950000D01*
X3572000Y1956000D01*
Y1962000D01*
X3566000D01*
X3560000Y1956000D01*
X3554000Y1962000D01*
X3548000D01*
Y1956000D01*
X3554000Y1950000D01*
X3548000Y1944000D01*
Y1938000D01*
X4210709Y2540000D02*
X4220709D01*
X4230709Y2550000D01*
X4240709Y2540000D01*
X4250709D01*
Y2550000D01*
X4240709Y2560000D01*
X4250709Y2570000D01*
Y2580000D01*
X4240709D01*
X4230709Y2570000D01*
X4220709Y2580000D01*
X4210709D01*
Y2570000D01*
X4220709Y2560000D01*
X4210709Y2550000D01*
Y2540000D01*
X4218709Y2548000D02*
X4224709D01*
X4230709Y2554000D01*
X4236709Y2548000D01*
X4242709D01*
Y2554000D01*
X4236709Y2560000D01*
X4242709Y2566000D01*
Y2572000D01*
X4236709D01*
X4230709Y2566000D01*
X4224709Y2572000D01*
X4218709D01*
Y2566000D01*
X4224709Y2560000D01*
X4218709Y2554000D01*
Y2548000D01*
X3865000Y2505000D02*
X3875000D01*
X3885000Y2515000D01*
X3895000Y2505000D01*
X3905000D01*
Y2515000D01*
X3895000Y2525000D01*
X3905000Y2535000D01*
Y2545000D01*
X3895000D01*
X3885000Y2535000D01*
X3875000Y2545000D01*
X3865000D01*
Y2535000D01*
X3875000Y2525000D01*
X3865000Y2515000D01*
Y2505000D01*
X3873000Y2513000D02*
X3879000D01*
X3885000Y2519000D01*
X3891000Y2513000D01*
X3897000D01*
Y2519000D01*
X3891000Y2525000D01*
X3897000Y2531000D01*
Y2537000D01*
X3891000D01*
X3885000Y2531000D01*
X3879000Y2537000D01*
X3873000D01*
Y2531000D01*
X3879000Y2525000D01*
X3873000Y2519000D01*
Y2513000D01*
X2215000Y3190000D02*
X2225000D01*
X2235000Y3200000D01*
X2245000Y3190000D01*
X2255000D01*
Y3200000D01*
X2245000Y3210000D01*
X2255000Y3220000D01*
Y3230000D01*
X2245000D01*
X2235000Y3220000D01*
X2225000Y3230000D01*
X2215000D01*
Y3220000D01*
X2225000Y3210000D01*
X2215000Y3200000D01*
Y3190000D01*
X2223000Y3198000D02*
X2229000D01*
X2235000Y3204000D01*
X2241000Y3198000D01*
X2247000D01*
Y3204000D01*
X2241000Y3210000D01*
X2247000Y3216000D01*
Y3222000D01*
X2241000D01*
X2235000Y3216000D01*
X2229000Y3222000D01*
X2223000D01*
Y3216000D01*
X2229000Y3210000D01*
X2223000Y3204000D01*
Y3198000D01*
X2455000Y2550000D02*
X2465000D01*
X2475000Y2560000D01*
X2485000Y2550000D01*
X2495000D01*
Y2560000D01*
X2485000Y2570000D01*
X2495000Y2580000D01*
Y2590000D01*
X2485000D01*
X2475000Y2580000D01*
X2465000Y2590000D01*
X2455000D01*
Y2580000D01*
X2465000Y2570000D01*
X2455000Y2560000D01*
Y2550000D01*
X2463000Y2558000D02*
X2469000D01*
X2475000Y2564000D01*
X2481000Y2558000D01*
X2487000D01*
Y2564000D01*
X2481000Y2570000D01*
X2487000Y2576000D01*
Y2582000D01*
X2481000D01*
X2475000Y2576000D01*
X2469000Y2582000D01*
X2463000D01*
Y2576000D01*
X2469000Y2570000D01*
X2463000Y2564000D01*
Y2558000D01*
X2305000Y3303189D02*
X2315000D01*
X2325000Y3313189D01*
X2335000Y3303189D01*
X2345000D01*
Y3313189D01*
X2335000Y3323189D01*
X2345000Y3333189D01*
Y3343189D01*
X2335000D01*
X2325000Y3333189D01*
X2315000Y3343189D01*
X2305000D01*
Y3333189D01*
X2315000Y3323189D01*
X2305000Y3313189D01*
Y3303189D01*
X2313000Y3311189D02*
X2319000D01*
X2325000Y3317189D01*
X2331000Y3311189D01*
X2337000D01*
Y3317189D01*
X2331000Y3323189D01*
X2337000Y3329189D01*
Y3335189D01*
X2331000D01*
X2325000Y3329189D01*
X2319000Y3335189D01*
X2313000D01*
Y3329189D01*
X2319000Y3323189D01*
X2313000Y3317189D01*
Y3311189D01*
D110*
X3879331Y2108504D02*
G03*
X3879331Y2108504I-20000J0D01*
G01*
Y2384095D02*
G03*
X3879331Y2384095I-20000J0D01*
G01*
X3015000Y3437000D02*
G03*
X3015000Y3437000I-20000J0D01*
G01*
X3165000D02*
G03*
X3165000Y3437000I-20000J0D01*
G01*
X3315000D02*
G03*
X3315000Y3437000I-20000J0D01*
G01*
X2865000Y2900000D02*
G03*
X2865000Y2900000I-20000J0D01*
G01*
X3165000D02*
G03*
X3165000Y2900000I-20000J0D01*
G01*
X3465000D02*
G03*
X3465000Y2900000I-20000J0D01*
G01*
D111*
X3007000Y3437000D02*
G03*
X3007000Y3437000I-12000J0D01*
G01*
X3157000D02*
G03*
X3157000Y3437000I-12000J0D01*
G01*
X3307000D02*
G03*
X3307000Y3437000I-12000J0D01*
G01*
X2857000Y2900000D02*
G03*
X2857000Y2900000I-12000J0D01*
G01*
X3157000D02*
G03*
X3157000Y2900000I-12000J0D01*
G01*
X3457000D02*
G03*
X3457000Y2900000I-12000J0D01*
G01*
%TF.MD5,06ebd59fca0b3caf6356d476def60a8f*%
M02*
