%TF.GenerationSoftware,Altium Limited,Altium Designer,18.1.6 (161)*%
G04 Layer_Color=8421504*
%FSLAX26Y26*%
%MOIN*%
%TF.FileFunction,Paste,Top*%
%TF.Part,Single*%
G01*
G75*
%TA.AperFunction,SMDPad,CuDef*%
%ADD12R,0.027559X0.037402*%
%ADD13R,0.100000X0.105000*%
%ADD14R,0.050000X0.030000*%
%ADD15R,0.039370X0.035433*%
%ADD16R,0.043307X0.049213*%
%ADD17R,0.015748X0.035433*%
%ADD18R,0.033465X0.051181*%
%ADD19R,0.066929X0.110236*%
%ADD20R,0.019685X0.086614*%
%ADD21R,0.122047X0.094488*%
%ADD22R,0.030000X0.050000*%
%ADD23R,0.105000X0.100000*%
%ADD24R,0.051181X0.033465*%
%ADD25R,0.027559X0.035433*%
%ADD26R,0.035433X0.027559*%
D12*
X2907862Y3830000D02*
D03*
X2854712D02*
D03*
D13*
X2990000Y3730000D02*
D03*
D14*
Y3637500D02*
D03*
D15*
X2104291Y2378504D02*
D03*
Y2441496D02*
D03*
X2710000Y2061496D02*
D03*
Y1998504D02*
D03*
Y1941496D02*
D03*
Y1878504D02*
D03*
D16*
X2209213Y2325000D02*
D03*
X2110787D02*
D03*
D17*
X3645591Y2268307D02*
D03*
X3620000D02*
D03*
X3594410D02*
D03*
Y2181693D02*
D03*
X3620000D02*
D03*
X3645591D02*
D03*
D18*
X2590433Y2645000D02*
D03*
X2523504D02*
D03*
X2371535D02*
D03*
X2438465D02*
D03*
X2153465Y3910000D02*
D03*
X2086535D02*
D03*
X2603583Y4295000D02*
D03*
X2536653D02*
D03*
X3071535Y4455000D02*
D03*
X3138465D02*
D03*
X3898461Y4193175D02*
D03*
X3831532D02*
D03*
D19*
X2230000Y2951024D02*
D03*
Y3078976D02*
D03*
D20*
X2480000Y3181811D02*
D03*
X2530000D02*
D03*
X2580000D02*
D03*
X2630000D02*
D03*
Y3408189D02*
D03*
X2580000D02*
D03*
X2530000D02*
D03*
X2480000D02*
D03*
D21*
X2555000Y3295000D02*
D03*
D22*
X2302500Y2485000D02*
D03*
D23*
X2210000D02*
D03*
D24*
X3430000Y4458465D02*
D03*
Y4391535D02*
D03*
D25*
X2630118Y3090000D02*
D03*
X2575000D02*
D03*
X2522559Y3055000D02*
D03*
X2467441D02*
D03*
D26*
X2415000Y2952559D02*
D03*
Y2897441D02*
D03*
%TF.MD5,75c3877527670b945a76cba139290dcf*%
M02*
