%TF.GenerationSoftware,Altium Limited,Altium Designer,18.1.6 (161)*%
G04 Layer_Color=32896*
%FSLAX26Y26*%
%MOIN*%
%TF.FileFunction,Legend,Bot*%
%TF.Part,Single*%
G01*
G75*
%TA.AperFunction,NonConductor*%
%ADD10C,0.010000*%
%ADD46C,0.015748*%
%ADD47C,0.007874*%
%ADD48C,0.005000*%
%ADD49C,0.003000*%
D10*
X2248013Y2952149D02*
X2258010Y2962146D01*
X2278003D01*
X2288000Y2952149D01*
Y2912162D01*
X2278003Y2902165D01*
X2258010D01*
X2248013Y2912162D01*
X2188032Y2962146D02*
X2208026Y2952149D01*
X2228019Y2932156D01*
Y2912162D01*
X2218023Y2902165D01*
X2198029D01*
X2188032Y2912162D01*
Y2922159D01*
X2198029Y2932156D01*
X2228019D01*
X3468013Y4223984D02*
X3478010Y4233981D01*
X3498003D01*
X3508000Y4223984D01*
Y4183997D01*
X3498003Y4174000D01*
X3478010D01*
X3468013Y4183997D01*
X3408032Y4233981D02*
X3448019D01*
Y4203990D01*
X3428026Y4213987D01*
X3418029D01*
X3408032Y4203990D01*
Y4183997D01*
X3418029Y4174000D01*
X3438023D01*
X3448019Y4183997D01*
X3088013Y4223984D02*
X3098010Y4233981D01*
X3118003D01*
X3128000Y4223984D01*
Y4183997D01*
X3118003Y4174000D01*
X3098010D01*
X3088013Y4183997D01*
X3038029Y4174000D02*
Y4233981D01*
X3068019Y4203990D01*
X3028032D01*
X2718013Y4228984D02*
X2728010Y4238981D01*
X2748003D01*
X2758000Y4228984D01*
Y4188997D01*
X2748003Y4179000D01*
X2728010D01*
X2718013Y4188997D01*
X2698019Y4228984D02*
X2688023Y4238981D01*
X2668029D01*
X2658032Y4228984D01*
Y4218987D01*
X2668029Y4208990D01*
X2678026D01*
X2668029D01*
X2658032Y4198993D01*
Y4188997D01*
X2668029Y4179000D01*
X2688023D01*
X2698019Y4188997D01*
X2547013Y2339981D02*
X2567006D01*
X2557010D01*
Y2289997D01*
X2567006Y2280000D01*
X2577003D01*
X2587000Y2289997D01*
X2487032Y2339981D02*
X2527019D01*
Y2309990D01*
X2507026Y2319987D01*
X2497029D01*
X2487032Y2309990D01*
Y2289997D01*
X2497029Y2280000D01*
X2517023D01*
X2527019Y2289997D01*
X2315013Y4299984D02*
X2325010Y4309981D01*
X2345003D01*
X2355000Y4299984D01*
Y4289987D01*
X2345003Y4279990D01*
X2325010D01*
X2315013Y4269993D01*
Y4259997D01*
X2325010Y4250000D01*
X2345003D01*
X2355000Y4259997D01*
X2255032Y4309981D02*
X2295019D01*
Y4279990D01*
X2275026Y4289987D01*
X2265029D01*
X2255032Y4279990D01*
Y4259997D01*
X2265029Y4250000D01*
X2285023D01*
X2295019Y4259997D01*
X2760013Y4324984D02*
X2770010Y4334981D01*
X2790003D01*
X2800000Y4324984D01*
Y4314987D01*
X2790003Y4304990D01*
X2770010D01*
X2760013Y4294993D01*
Y4284997D01*
X2770010Y4275000D01*
X2790003D01*
X2800000Y4284997D01*
X2710029Y4275000D02*
Y4334981D01*
X2740019Y4304990D01*
X2700032D01*
X3274619Y4469984D02*
X3284616Y4479981D01*
X3304609D01*
X3314606Y4469984D01*
Y4459987D01*
X3304609Y4449990D01*
X3284616D01*
X3274619Y4439993D01*
Y4429997D01*
X3284616Y4420000D01*
X3304609D01*
X3314606Y4429997D01*
X3254626Y4469984D02*
X3244629Y4479981D01*
X3224635D01*
X3214638Y4469984D01*
Y4459987D01*
X3224635Y4449990D01*
X3234632D01*
X3224635D01*
X3214638Y4439993D01*
Y4429997D01*
X3224635Y4420000D01*
X3244629D01*
X3254626Y4429997D01*
X3815013Y4324984D02*
X3825010Y4334981D01*
X3845003D01*
X3855000Y4324984D01*
Y4314987D01*
X3845003Y4304990D01*
X3825010D01*
X3815013Y4294993D01*
Y4284997D01*
X3825010Y4275000D01*
X3845003D01*
X3855000Y4284997D01*
X3755032Y4275000D02*
X3795019D01*
X3755032Y4314987D01*
Y4324984D01*
X3765029Y4334981D01*
X3785023D01*
X3795019Y4324984D01*
X4217992Y3929963D02*
X4229573Y3921854D01*
X4233045Y3902164D01*
X4224936Y3890584D01*
X4215091Y3888848D01*
X4203510Y3896957D01*
X4200038Y3916646D01*
X4188457Y3924755D01*
X4178612Y3923019D01*
X4170503Y3911439D01*
X4173975Y3891749D01*
X4185556Y3883640D01*
X4165296Y3940973D02*
X4161824Y3960663D01*
X4163560Y3950818D01*
X4222629Y3961234D01*
X4214520Y3949653D01*
X4021438Y2642485D02*
X4041432D01*
X4031435D01*
Y2592501D01*
X4041432Y2582504D01*
X4051428D01*
X4061425Y2592501D01*
X3971454Y2582504D02*
Y2642485D01*
X4001445Y2612494D01*
X3961458D01*
X3458013Y2747981D02*
X3478006D01*
X3468010D01*
Y2697997D01*
X3478006Y2688000D01*
X3488003D01*
X3498000Y2697997D01*
X3438019Y2688000D02*
X3418026D01*
X3428023D01*
Y2747981D01*
X3438019Y2737984D01*
D46*
X3719567Y1882126D02*
G03*
X3719567Y1882126I-7874J0D01*
G01*
D47*
X2237835Y1681685D02*
G03*
X2247678Y1671842I9843J0D01*
G01*
X2582322D02*
G03*
X2592165Y1681685I0J9843D01*
G01*
X1957953Y2811693D02*
X2030787D01*
X1873307Y2727047D02*
X1957953Y2811693D01*
X2202047D02*
X2286693Y2727047D01*
X2129213Y2811693D02*
X2202047D01*
X1873307Y2398307D02*
Y2727047D01*
Y2398307D02*
X2030787D01*
X2129213D02*
X2286693D01*
Y2727047D01*
X2422677Y3832146D02*
Y4102323D01*
X2539803D01*
X2640197D02*
X2757323D01*
Y3832146D02*
Y4102323D01*
X2487146Y3767677D02*
X2539803D01*
X2422677Y3832146D02*
X2487146Y3767677D01*
X2692854D02*
X2757323Y3832146D01*
X2640197Y3767677D02*
X2692854D01*
X2792677Y3827146D02*
Y4097323D01*
X2909803D01*
X3010197D02*
X3127323D01*
Y3827146D02*
Y4097323D01*
X2857146Y3762677D02*
X2909803D01*
X2792677Y3827146D02*
X2857146Y3762677D01*
X3062854D02*
X3127323Y3827146D01*
X3010197Y3762677D02*
X3062854D01*
X3172677Y3827146D02*
Y4097323D01*
X3289803D01*
X3390197D02*
X3507323D01*
Y3827146D02*
Y4097323D01*
X3237146Y3762677D02*
X3289803D01*
X3172677Y3827146D02*
X3237146Y3762677D01*
X3442854D02*
X3507323Y3827146D01*
X3390197Y3762677D02*
X3442854D01*
X2509488Y2242709D02*
X2592165D01*
X2237835Y2177756D02*
Y2242709D01*
Y1681685D02*
Y2008465D01*
Y2242709D02*
X2320512D01*
X2247678Y1671842D02*
X2582322D01*
X2592165Y1681685D02*
Y2242709D01*
D48*
X3977441Y1931339D02*
Y2077008D01*
X3957756Y1931339D02*
X3977441D01*
X3782559D02*
X3957756D01*
Y1872284D02*
Y1931339D01*
X3760905Y1872284D02*
X3957756D01*
X3760905D02*
Y1903780D01*
X3741220Y2116378D02*
Y2360472D01*
Y2504173D02*
Y2541575D01*
X3977441Y2195118D02*
Y2541575D01*
X3741220D02*
X3977441D01*
D49*
X2010056Y3942347D02*
X2289662Y4176965D01*
X2167532Y4322513D02*
X2289662Y4176965D01*
X1887926Y4087896D02*
X2167532Y4322513D01*
X1887926Y4087896D02*
X2010056Y3942347D01*
X2825000Y2657000D02*
X3485000D01*
Y1367000D02*
Y2657000D01*
X2825000Y1367000D02*
X3485000D01*
X2825000D02*
Y2657000D01*
X2445000Y4360000D02*
Y4550000D01*
X2810000D01*
Y4360000D02*
Y4550000D01*
X2445000Y4360000D02*
X2810000D01*
X2969606Y4510000D02*
Y4700000D01*
X3334606D01*
Y4510000D02*
Y4700000D01*
X2969606Y4510000D02*
X3334606D01*
X3490000Y4360000D02*
Y4550000D01*
X3855000D01*
Y4360000D02*
Y4550000D01*
X3490000Y4360000D02*
X3855000D01*
X4003650Y4180179D02*
X4125779Y4325727D01*
X4405386Y4091110D01*
X4283256Y3945561D02*
X4405386Y4091110D01*
X4003650Y4180179D02*
X4283256Y3945561D01*
%TF.MD5,a0a21ee1e7d38da2cefe614361343f7d*%
M02*
