%TF.GenerationSoftware,Altium Limited,Altium Designer,18.1.6 (161)*%
G04 Layer_Color=0*
%FSLAX26Y26*%
%MOIN*%
%TF.FileFunction,Plated,1,2,PTH,Drill*%
%TF.Part,Single*%
G01*
G75*
%TA.AperFunction,ComponentDrill*%
%ADD91C,0.150000*%
%ADD92C,0.035000*%
%ADD93C,0.040000*%
%ADD94C,0.149606*%
%ADD95C,0.063000*%
%ADD96C,0.039370*%
%ADD97C,0.051181*%
%ADD98C,0.051181*%
%ADD99C,0.039370*%
%ADD100C,0.051181*%
%ADD101C,0.039370*%
%ADD102C,0.084000*%
%ADD103C,0.062000*%
%ADD104R,0.031496X0.118110*%
%ADD105R,0.118110X0.031496*%
%ADD106R,0.137795X0.031496*%
%ADD107C,0.040000*%
%TA.AperFunction,ViaDrill,NotFilled*%
%ADD108C,0.013000*%
%ADD109C,0.012000*%
%ADD110C,0.028000*%
D91*
X2334997Y3525000D02*
D03*
X2664997Y2385000D02*
D03*
X3864997Y3695000D02*
D03*
D92*
X3390000Y2497000D02*
D03*
X3310000D02*
D03*
X3230000D02*
D03*
X3070000D02*
D03*
X2990000D02*
D03*
X2910000D02*
D03*
X2950000Y2397000D02*
D03*
X3030000D02*
D03*
X3110000D02*
D03*
X3190000D02*
D03*
X3270000D02*
D03*
X3350000D02*
D03*
X2930000Y2121000D02*
D03*
X3370000D02*
D03*
X2930000Y2060000D02*
D03*
X3370000D02*
D03*
D93*
X2910000Y2597000D02*
D03*
X3010000D02*
D03*
X3290000D02*
D03*
X3390000D02*
D03*
D94*
X2900000Y1801000D02*
D03*
X3400000D02*
D03*
D95*
X2828000Y1676000D02*
D03*
X3472000D02*
D03*
D96*
X1984283Y4123060D02*
D03*
X2120000Y4236940D02*
D03*
D97*
X2009851Y4016029D02*
D03*
X2220965Y4193175D02*
D03*
D98*
X2767795Y4416575D02*
D03*
X2492205D02*
D03*
X3292401Y4566575D02*
D03*
X3016811D02*
D03*
X3812795Y4416575D02*
D03*
X3537205D02*
D03*
D99*
X2718583Y4515000D02*
D03*
X2541417D02*
D03*
X3243189Y4665000D02*
D03*
X3066023D02*
D03*
X3763583Y4515000D02*
D03*
X3586417D02*
D03*
D100*
X4287291Y4016029D02*
D03*
X4076176Y4193175D02*
D03*
D101*
X4312858Y4123060D02*
D03*
X4177142Y4236940D02*
D03*
D102*
X2845000Y3437000D02*
D03*
X3445000D02*
D03*
D103*
X2995000D02*
D03*
X3145000D02*
D03*
X3295000D02*
D03*
X2845000Y2900000D02*
D03*
X3145000D02*
D03*
X3445000D02*
D03*
D104*
X2229961Y2093110D02*
D03*
D105*
X2415000Y1975000D02*
D03*
D106*
Y2219095D02*
D03*
D107*
X4330709Y2949606D02*
D03*
Y3049606D02*
D03*
Y3149606D02*
D03*
Y3249606D02*
D03*
X4325709Y3349606D02*
D03*
X4230709D02*
D03*
Y3249606D02*
D03*
Y3149606D02*
D03*
Y3049606D02*
D03*
Y2949606D02*
D03*
X1968504D02*
D03*
Y3049606D02*
D03*
Y3149606D02*
D03*
Y3249606D02*
D03*
X1963504Y3349606D02*
D03*
X1868504D02*
D03*
Y3249606D02*
D03*
Y3149606D02*
D03*
Y3049606D02*
D03*
Y2949606D02*
D03*
D108*
X2260000Y2377795D02*
D03*
X2695000Y4137816D02*
D03*
X2675000Y4350000D02*
D03*
D109*
X4500000Y3750000D02*
D03*
X4575000Y3600000D02*
D03*
X4500000Y3450000D02*
D03*
X4575000Y3300000D02*
D03*
X4500000Y3150000D02*
D03*
X4575000Y3000000D02*
D03*
X4500000Y2850000D02*
D03*
X4575000Y2700000D02*
D03*
X4500000Y2550000D02*
D03*
X4425000Y3900000D02*
D03*
X4350000Y3750000D02*
D03*
X4425000Y3600000D02*
D03*
X4350000Y3450000D02*
D03*
X4425000Y3000000D02*
D03*
Y2700000D02*
D03*
X4350000Y2550000D02*
D03*
X4425000Y2400000D02*
D03*
X4350000Y2250000D02*
D03*
X4200000Y4050000D02*
D03*
X4275000Y3900000D02*
D03*
X4200000Y3450000D02*
D03*
X4275000Y2700000D02*
D03*
Y2400000D02*
D03*
X4050000Y4050000D02*
D03*
X4125000Y3900000D02*
D03*
X4050000Y3750000D02*
D03*
X4125000Y3600000D02*
D03*
X4050000Y3450000D02*
D03*
X4125000Y3000000D02*
D03*
Y2700000D02*
D03*
X4050000Y2550000D02*
D03*
X4125000Y2400000D02*
D03*
Y2100000D02*
D03*
X4050000Y1950000D02*
D03*
X3900000Y4350000D02*
D03*
X3975000Y4200000D02*
D03*
Y3600000D02*
D03*
X3900000Y3450000D02*
D03*
X3975000Y3300000D02*
D03*
Y3000000D02*
D03*
Y2700000D02*
D03*
Y2400000D02*
D03*
X3900000Y1950000D02*
D03*
X3750000Y4350000D02*
D03*
Y4050000D02*
D03*
X3825000Y3900000D02*
D03*
X3750000Y3750000D02*
D03*
X3825000Y3600000D02*
D03*
X3750000Y3450000D02*
D03*
X3825000Y3300000D02*
D03*
Y2700000D02*
D03*
X3750000Y2550000D02*
D03*
X3675000Y4500000D02*
D03*
X3600000Y4350000D02*
D03*
X3675000Y4200000D02*
D03*
Y3900000D02*
D03*
X3600000Y3750000D02*
D03*
X3675000Y3600000D02*
D03*
X3600000Y3450000D02*
D03*
X3675000Y3300000D02*
D03*
X3600000Y3150000D02*
D03*
Y2850000D02*
D03*
X3675000Y1800000D02*
D03*
X3450000Y4350000D02*
D03*
X3525000Y4200000D02*
D03*
Y3900000D02*
D03*
Y3600000D02*
D03*
Y3300000D02*
D03*
X3450000Y3150000D02*
D03*
X3525000Y3000000D02*
D03*
Y2400000D02*
D03*
X3450000Y2250000D02*
D03*
X3300000Y4350000D02*
D03*
X3375000Y4200000D02*
D03*
Y3600000D02*
D03*
Y3300000D02*
D03*
X3300000Y3150000D02*
D03*
X3375000Y3000000D02*
D03*
Y2700000D02*
D03*
X3300000Y2250000D02*
D03*
X3150000Y4350000D02*
D03*
X3225000Y4200000D02*
D03*
X3150000Y4050000D02*
D03*
Y3750000D02*
D03*
X3225000Y3600000D02*
D03*
Y3300000D02*
D03*
X3150000Y3150000D02*
D03*
X3225000Y3000000D02*
D03*
Y2100000D02*
D03*
Y1800000D02*
D03*
X3150000Y1650000D02*
D03*
X3000000Y4350000D02*
D03*
X3075000Y4200000D02*
D03*
Y3900000D02*
D03*
Y3600000D02*
D03*
Y3300000D02*
D03*
X3000000Y3150000D02*
D03*
X3075000Y2700000D02*
D03*
X3000000Y2250000D02*
D03*
X3075000Y2100000D02*
D03*
Y1800000D02*
D03*
X2925000Y4200000D02*
D03*
Y3900000D02*
D03*
X2850000Y3750000D02*
D03*
X2925000Y3600000D02*
D03*
Y3300000D02*
D03*
X2850000Y3150000D02*
D03*
X2925000Y2700000D02*
D03*
X2850000Y2250000D02*
D03*
X2775000Y4200000D02*
D03*
X2700000Y3750000D02*
D03*
X2775000Y3600000D02*
D03*
X2700000Y3450000D02*
D03*
X2775000Y3300000D02*
D03*
X2700000Y3150000D02*
D03*
Y2850000D02*
D03*
X2775000Y2700000D02*
D03*
X2700000Y2550000D02*
D03*
X2775000Y2400000D02*
D03*
Y2100000D02*
D03*
X2625000Y4500000D02*
D03*
Y4200000D02*
D03*
Y3900000D02*
D03*
Y3600000D02*
D03*
Y3000000D02*
D03*
X2550000Y2850000D02*
D03*
X2625000Y2700000D02*
D03*
X2550000Y2250000D02*
D03*
Y1950000D02*
D03*
X2625000Y1800000D02*
D03*
X2475000Y4500000D02*
D03*
X2400000Y4050000D02*
D03*
X2475000Y3900000D02*
D03*
X2400000Y3750000D02*
D03*
X2475000Y3600000D02*
D03*
X2400000Y3450000D02*
D03*
Y3150000D02*
D03*
X2475000Y3000000D02*
D03*
Y2700000D02*
D03*
X2400000Y2550000D02*
D03*
X2475000Y2400000D02*
D03*
Y1800000D02*
D03*
X2250000Y4050000D02*
D03*
Y3450000D02*
D03*
Y2850000D02*
D03*
Y2250000D02*
D03*
X2325000Y2100000D02*
D03*
X2250000Y1950000D02*
D03*
X2100000Y3450000D02*
D03*
X2175000Y3300000D02*
D03*
X2100000Y3150000D02*
D03*
X2175000Y2700000D02*
D03*
Y2100000D02*
D03*
X1950000Y4050000D02*
D03*
Y3750000D02*
D03*
Y3450000D02*
D03*
X2025000Y3000000D02*
D03*
X1950000Y2250000D02*
D03*
X1875000Y3900000D02*
D03*
X1800000Y3750000D02*
D03*
X1875000Y3600000D02*
D03*
X1800000Y2850000D02*
D03*
X1875000Y2700000D02*
D03*
X1800000Y2550000D02*
D03*
X1875000Y2400000D02*
D03*
X1725000Y3600000D02*
D03*
Y3300000D02*
D03*
X1650000Y3150000D02*
D03*
X1725000Y3000000D02*
D03*
Y2700000D02*
D03*
D110*
X2705000Y2224095D02*
D03*
X2636496Y1878504D02*
D03*
X3355000Y4455000D02*
D03*
X2565000Y2900000D02*
D03*
X2250000Y3860000D02*
D03*
X2443189Y4165000D02*
D03*
X3560000Y1950000D02*
D03*
X4230709Y2560000D02*
D03*
X3885000Y2525000D02*
D03*
X2235000Y3210000D02*
D03*
X2475000Y2570000D02*
D03*
X2325000Y3323189D02*
D03*
%TF.MD5,e1dcf5e210a47c329a126bf07fa04e2e*%
M02*
