%TF.GenerationSoftware,Altium Limited,Altium Designer,18.1.6 (161)*%
G04 Layer_Color=16711935*
%FSLAX26Y26*%
%MOIN*%
%TF.FileFunction,Other,Mechanical_13*%
%TF.Part,Single*%
G01*
G75*
%TA.AperFunction,NonConductor*%
%ADD70C,0.003937*%
%ADD87R,0.109843X0.023829*%
D70*
X2582322Y1671842D02*
G03*
X2592165Y1681685I0J9843D01*
G01*
X2237835D02*
G03*
X2247678Y1671842I9843J0D01*
G01*
X2912783Y3812284D02*
Y3847716D01*
X2849791Y3812284D02*
Y3847716D01*
Y3812284D02*
X2912783D01*
X2849791Y3847716D02*
X2912783D01*
X2085591Y2376535D02*
X2122992D01*
X2085591Y2443465D02*
X2122992D01*
X2085591Y2376535D02*
Y2443465D01*
X2122992Y2376535D02*
Y2443465D01*
X2728701Y1996535D02*
Y2063465D01*
X2691299Y1996535D02*
Y2063465D01*
X2728701D01*
X2691299Y1996535D02*
X2728701D01*
Y1876535D02*
Y1943465D01*
X2691299Y1876535D02*
Y1943465D01*
X2728701D01*
X2691299Y1876535D02*
X2728701D01*
X2120630Y2349608D02*
X2199370D01*
X2120630Y2300395D02*
X2199370D01*
X2120630D02*
Y2349608D01*
X2199370Y2300395D02*
Y2349608D01*
X2132441Y2300394D02*
Y2349606D01*
X2187559Y2300394D02*
Y2349606D01*
X3580630Y2249606D02*
X3659370D01*
X3580630Y2200394D02*
X3659370D01*
Y2249606D01*
X3580630Y2200394D02*
Y2249606D01*
X2513661Y2618425D02*
X2600276D01*
X2513661Y2671575D02*
X2600276D01*
Y2618425D02*
Y2671575D01*
X2513661Y2618425D02*
Y2671575D01*
X2175079Y2926417D02*
Y3103583D01*
X2284921Y2926417D02*
Y3103583D01*
X2175079Y2926417D02*
X2284921D01*
X2175079Y3103583D02*
X2284921D01*
X1873307Y2727047D02*
X1957953Y2811693D01*
X1873307Y2398307D02*
Y2727047D01*
Y2398307D02*
X2286693D01*
Y2727047D01*
X2202047Y2811693D02*
X2286693Y2727047D01*
X1957953Y2811693D02*
X2202047D01*
X2487146Y3767677D02*
X2692854D01*
X2422677Y3832146D02*
X2487146Y3767677D01*
X2422677Y3832146D02*
Y4102323D01*
X2757323D01*
Y3832146D02*
Y4102323D01*
X2692854Y3767677D02*
X2757323Y3832146D01*
X2857146Y3762677D02*
X3062854D01*
X2792677Y3827146D02*
X2857146Y3762677D01*
X2792677Y3827146D02*
Y4097323D01*
X3127323D01*
Y3827146D02*
Y4097323D01*
X3062854Y3762677D02*
X3127323Y3827146D01*
X3237146Y3762677D02*
X3442854D01*
X3172677Y3827146D02*
X3237146Y3762677D01*
X3172677Y3827146D02*
Y4097323D01*
X3507323D01*
Y3827146D02*
Y4097323D01*
X3442854Y3762677D02*
X3507323Y3827146D01*
X2361693Y2618425D02*
Y2671575D01*
X2448307Y2618425D02*
Y2671575D01*
X2361693D02*
X2448307D01*
X2361693Y2618425D02*
X2448307D01*
X2163307Y3883425D02*
Y3936575D01*
X2076693Y3883425D02*
Y3936575D01*
Y3883425D02*
X2163307D01*
X2076693Y3936575D02*
X2163307D01*
X2613425Y4268425D02*
Y4321575D01*
X2526811Y4268425D02*
Y4321575D01*
Y4268425D02*
X2613425D01*
X2526811Y4321575D02*
X2613425D01*
X3061693Y4428425D02*
Y4481575D01*
X3148307Y4428425D02*
Y4481575D01*
X3061693D02*
X3148307D01*
X3061693Y4428425D02*
X3148307D01*
X3403425Y4468307D02*
X3456575D01*
X3403425Y4381693D02*
X3456575D01*
Y4468307D01*
X3403425Y4381693D02*
Y4468307D01*
X3908304Y4166600D02*
Y4219750D01*
X3821690Y4166600D02*
Y4219750D01*
Y4166600D02*
X3908304D01*
X3821690Y4219750D02*
X3908304D01*
X2636024Y3071299D02*
Y3108701D01*
X2569095Y3071299D02*
Y3108701D01*
Y3071299D02*
X2636024D01*
X2569095Y3108701D02*
X2636024D01*
X2528465Y3036299D02*
Y3073701D01*
X2461535Y3036299D02*
Y3073701D01*
Y3036299D02*
X2528465D01*
X2461535Y3073701D02*
X2528465D01*
X2592165Y1681685D02*
Y2242709D01*
X2247678Y1671842D02*
X2582322D01*
X2237835Y2242709D02*
X2592165D01*
X2237835Y1681685D02*
Y2242709D01*
X2396299Y2959449D02*
X2433701D01*
X2396299Y2890551D02*
X2433701D01*
Y2959449D01*
X2396299Y2890551D02*
Y2959449D01*
D87*
X2230000Y3091668D02*
D03*
%TF.MD5,f3fe79502d7a9dd21aadc851d261b70a*%
M02*
