%TF.GenerationSoftware,Altium Limited,Altium Designer,18.1.6 (161)*%
G04 Layer_Color=255*
%FSLAX26Y26*%
%MOIN*%
%TF.FileFunction,Pads,Top*%
%TF.Part,Single*%
G01*
G75*
%TA.AperFunction,SMDPad,CuDef*%
%ADD12R,0.027559X0.037402*%
%ADD13R,0.100000X0.105000*%
%ADD14R,0.050000X0.030000*%
%ADD15R,0.039370X0.035433*%
%ADD16R,0.043307X0.049213*%
%ADD17R,0.015748X0.035433*%
%ADD18R,0.033465X0.051181*%
%ADD19R,0.066929X0.110236*%
%ADD20R,0.019685X0.086614*%
%ADD21R,0.122047X0.094488*%
%ADD22R,0.030000X0.050000*%
%ADD23R,0.105000X0.100000*%
%ADD24R,0.051181X0.033465*%
%ADD25R,0.027559X0.035433*%
%ADD26R,0.035433X0.027559*%
%TA.AperFunction,ComponentPad*%
%ADD28C,0.050000*%
%ADD29C,0.045000*%
%ADD30C,0.055000*%
%ADD31C,0.181102*%
%ADD32C,0.063000*%
%ADD33C,0.066929*%
%ADD34C,0.070000*%
%ADD35C,0.120000*%
%ADD36C,0.100000*%
%ADD37R,0.051181X0.137795*%
%ADD38R,0.137795X0.051181*%
%ADD39R,0.157480X0.051181*%
D12*
X2907862Y3830000D02*
D03*
X2854712D02*
D03*
D13*
X2990000Y3730000D02*
D03*
D14*
Y3637500D02*
D03*
D15*
X2104291Y2378504D02*
D03*
Y2441496D02*
D03*
X2710000Y2061496D02*
D03*
Y1998504D02*
D03*
Y1941496D02*
D03*
Y1878504D02*
D03*
D16*
X2209213Y2325000D02*
D03*
X2110787D02*
D03*
D17*
X3645591Y2268307D02*
D03*
X3620000D02*
D03*
X3594410D02*
D03*
Y2181693D02*
D03*
X3620000D02*
D03*
X3645591D02*
D03*
D18*
X2590433Y2645000D02*
D03*
X2523504D02*
D03*
X2371535D02*
D03*
X2438465D02*
D03*
X2153465Y3910000D02*
D03*
X2086535D02*
D03*
X2603583Y4295000D02*
D03*
X2536653D02*
D03*
X3071535Y4455000D02*
D03*
X3138465D02*
D03*
X3898461Y4193175D02*
D03*
X3831532D02*
D03*
D19*
X2230000Y2951024D02*
D03*
Y3078976D02*
D03*
D20*
X2480000Y3181811D02*
D03*
X2530000D02*
D03*
X2580000D02*
D03*
X2630000D02*
D03*
Y3408189D02*
D03*
X2580000D02*
D03*
X2530000D02*
D03*
X2480000D02*
D03*
D21*
X2555000Y3295000D02*
D03*
D22*
X2302500Y2485000D02*
D03*
D23*
X2210000D02*
D03*
D24*
X3430000Y4458465D02*
D03*
Y4391535D02*
D03*
D25*
X2630118Y3090000D02*
D03*
X2575000D02*
D03*
X2522559Y3055000D02*
D03*
X2467441D02*
D03*
D26*
X2415000Y2952559D02*
D03*
Y2897441D02*
D03*
D28*
X2334997Y3525000D02*
D03*
X3390000Y2497000D02*
D03*
X3310000D02*
D03*
X3230000D02*
D03*
X3070000D02*
D03*
X2990000D02*
D03*
X2910000D02*
D03*
X2950000Y2397000D02*
D03*
X3030000D02*
D03*
X3110000D02*
D03*
X3190000D02*
D03*
X3270000D02*
D03*
X3350000D02*
D03*
X2664997Y2385000D02*
D03*
X3864997Y3695000D02*
D03*
X1984283Y4123060D02*
D03*
X2120000Y4236940D02*
D03*
X2718583Y4515000D02*
D03*
X2541417D02*
D03*
X3243189Y4665000D02*
D03*
X3066023D02*
D03*
X3763583Y4515000D02*
D03*
X3586417D02*
D03*
X4312858Y4123060D02*
D03*
X4177142Y4236940D02*
D03*
X4330709Y2949606D02*
D03*
Y3049606D02*
D03*
Y3149606D02*
D03*
Y3249606D02*
D03*
X4325709Y3349606D02*
D03*
X4230709D02*
D03*
Y3249606D02*
D03*
Y3149606D02*
D03*
Y3049606D02*
D03*
Y2949606D02*
D03*
X1968504D02*
D03*
Y3049606D02*
D03*
Y3149606D02*
D03*
Y3249606D02*
D03*
X1963504Y3349606D02*
D03*
X1868504D02*
D03*
Y3249606D02*
D03*
Y3149606D02*
D03*
Y3049606D02*
D03*
Y2949606D02*
D03*
D29*
X2930000Y2121000D02*
D03*
X3370000D02*
D03*
X2930000Y2060000D02*
D03*
X3370000D02*
D03*
D30*
X2910000Y2597000D02*
D03*
X3010000D02*
D03*
X3290000D02*
D03*
X3390000D02*
D03*
D31*
X2900000Y1801000D02*
D03*
X3400000D02*
D03*
D32*
X2828000Y1676000D02*
D03*
X3472000D02*
D03*
D33*
X3859331Y2108504D02*
D03*
Y2384095D02*
D03*
D34*
X2009851Y4016029D02*
D03*
X2220965Y4193175D02*
D03*
X2767795Y4416575D02*
D03*
X2492205D02*
D03*
X3292401Y4566575D02*
D03*
X3016811D02*
D03*
X3812795Y4416575D02*
D03*
X3537205D02*
D03*
X4287291Y4016029D02*
D03*
X4076176Y4193175D02*
D03*
D35*
X2845000Y3437000D02*
D03*
X3445000D02*
D03*
D36*
X2995000D02*
D03*
X3145000D02*
D03*
X3295000D02*
D03*
X2845000Y2900000D02*
D03*
X3145000D02*
D03*
X3445000D02*
D03*
D37*
X2229961Y2093110D02*
D03*
D38*
X2415000Y1975000D02*
D03*
D39*
Y2219095D02*
D03*
%TF.MD5,31f45e6ca5f5ea7be60444d84f178502*%
M02*
