%TF.GenerationSoftware,Altium Limited,Altium Designer,18.1.6 (161)*%
G04 Layer_Color=8388736*
%FSLAX26Y26*%
%MOIN*%
%TF.FileFunction,Soldermask,Top*%
%TF.Part,Single*%
G01*
G75*
%TA.AperFunction,ComponentPad*%
%ADD33C,0.063000*%
%ADD55C,0.058000*%
%ADD56C,0.074929*%
%ADD57C,0.078000*%
%ADD58C,0.053000*%
%ADD59C,0.132000*%
%ADD60C,0.071000*%
%ADD61C,0.128000*%
%ADD62C,0.108000*%
%ADD63R,0.059181X0.145795*%
%ADD64R,0.145795X0.059181*%
%ADD65R,0.165480X0.059181*%
%TA.AperFunction,ViaPad*%
%ADD66C,0.033000*%
%ADD67C,0.058000*%
%TA.AperFunction,SMDPad,CuDef*%
%ADD71R,0.047370X0.043433*%
%ADD72R,0.051307X0.057213*%
%ADD73R,0.023748X0.043433*%
%ADD74R,0.041465X0.059181*%
%ADD75R,0.074929X0.118236*%
%ADD76R,0.058000X0.038000*%
%ADD77R,0.108000X0.113000*%
%ADD78R,0.027685X0.094614*%
%ADD79R,0.130047X0.102488*%
%ADD80R,0.038000X0.058000*%
%ADD81R,0.113000X0.108000*%
%ADD82R,0.059181X0.041465*%
%ADD83R,0.035559X0.043433*%
%ADD84R,0.043433X0.035559*%
D33*
X2910000Y2597000D02*
D03*
X3010000D02*
D03*
X3290000D02*
D03*
X3390000D02*
D03*
D55*
X2664997Y2385000D02*
D03*
X3864997Y3695000D02*
D03*
X2334997Y3525000D02*
D03*
X1984283Y4123060D02*
D03*
X2120000Y4236940D02*
D03*
X3230000Y2497000D02*
D03*
X3310000D02*
D03*
X3390000D02*
D03*
X3070000D02*
D03*
X2990000D02*
D03*
X2910000D02*
D03*
X2950000Y2397000D02*
D03*
X3030000D02*
D03*
X3110000D02*
D03*
X3190000D02*
D03*
X3270000D02*
D03*
X3350000D02*
D03*
X2718583Y4515000D02*
D03*
X2541417D02*
D03*
X3243189Y4665000D02*
D03*
X3066023D02*
D03*
X3763583Y4515000D02*
D03*
X3586417D02*
D03*
X4312858Y4123060D02*
D03*
X4177142Y4236940D02*
D03*
X4330709Y2949606D02*
D03*
Y3049606D02*
D03*
Y3149606D02*
D03*
Y3249606D02*
D03*
X4325709Y3349606D02*
D03*
X4230709D02*
D03*
Y3249606D02*
D03*
Y3149606D02*
D03*
Y3049606D02*
D03*
Y2949606D02*
D03*
X1968504D02*
D03*
Y3049606D02*
D03*
Y3149606D02*
D03*
Y3249606D02*
D03*
X1963504Y3349606D02*
D03*
X1868504D02*
D03*
Y3249606D02*
D03*
Y3149606D02*
D03*
Y3049606D02*
D03*
Y2949606D02*
D03*
D56*
X3859331Y2108504D02*
D03*
Y2384095D02*
D03*
D57*
X2009851Y4016029D02*
D03*
X2220965Y4193175D02*
D03*
X2767795Y4416575D02*
D03*
X2492205D02*
D03*
X3292401Y4566575D02*
D03*
X3016811D02*
D03*
X3812795Y4416575D02*
D03*
X3537205D02*
D03*
X4287291Y4016029D02*
D03*
X4076176Y4193175D02*
D03*
D58*
X2930000Y2121000D02*
D03*
X3370000D02*
D03*
X2930000Y2060000D02*
D03*
X3370000D02*
D03*
D59*
X2900000Y1801000D02*
D03*
X3400000D02*
D03*
D60*
X2828000Y1676000D02*
D03*
X3472000D02*
D03*
D61*
X2845000Y3437000D02*
D03*
X3445000D02*
D03*
D62*
X2995000D02*
D03*
X3145000D02*
D03*
X3295000D02*
D03*
X2845000Y2900000D02*
D03*
X3145000D02*
D03*
X3445000D02*
D03*
D63*
X2229961Y2093110D02*
D03*
D64*
X2415000Y1975000D02*
D03*
D65*
Y2219095D02*
D03*
D66*
X4500000Y3750000D02*
D03*
X4575000Y3600000D02*
D03*
X4500000Y3450000D02*
D03*
X4575000Y3300000D02*
D03*
X4500000Y3150000D02*
D03*
X4575000Y3000000D02*
D03*
X4500000Y2850000D02*
D03*
X4575000Y2700000D02*
D03*
X4500000Y2550000D02*
D03*
X4425000Y3900000D02*
D03*
X4350000Y3750000D02*
D03*
X4425000Y3600000D02*
D03*
X4350000Y3450000D02*
D03*
X4425000Y3000000D02*
D03*
Y2700000D02*
D03*
X4350000Y2550000D02*
D03*
X4425000Y2400000D02*
D03*
X4350000Y2250000D02*
D03*
X4200000Y4050000D02*
D03*
X4275000Y3900000D02*
D03*
X4200000Y3450000D02*
D03*
Y2850000D02*
D03*
X4275000Y2700000D02*
D03*
Y2400000D02*
D03*
X4050000Y4050000D02*
D03*
X4125000Y3900000D02*
D03*
X4050000Y3750000D02*
D03*
X4125000Y3600000D02*
D03*
X4050000Y3450000D02*
D03*
X4125000Y3000000D02*
D03*
X4050000Y2850000D02*
D03*
X4125000Y2700000D02*
D03*
X4050000Y2550000D02*
D03*
X4125000Y2400000D02*
D03*
Y2100000D02*
D03*
X4050000Y1950000D02*
D03*
X3900000Y4350000D02*
D03*
X3975000Y4200000D02*
D03*
Y3600000D02*
D03*
X3900000Y3450000D02*
D03*
X3975000Y3300000D02*
D03*
X3900000Y3150000D02*
D03*
X3975000Y3000000D02*
D03*
X3900000Y2850000D02*
D03*
X3975000Y2700000D02*
D03*
Y2400000D02*
D03*
X3900000Y1950000D02*
D03*
X3750000Y4350000D02*
D03*
Y4050000D02*
D03*
X3825000Y3900000D02*
D03*
X3750000Y3750000D02*
D03*
X3825000Y3600000D02*
D03*
X3750000Y3450000D02*
D03*
X3825000Y3300000D02*
D03*
Y2700000D02*
D03*
X3750000Y2550000D02*
D03*
X3675000Y4500000D02*
D03*
X3600000Y4350000D02*
D03*
X3675000Y4200000D02*
D03*
Y3900000D02*
D03*
X3600000Y3750000D02*
D03*
X3675000Y3600000D02*
D03*
X3600000Y3450000D02*
D03*
X3675000Y3300000D02*
D03*
X3600000Y3150000D02*
D03*
Y2850000D02*
D03*
X3675000Y1800000D02*
D03*
X3450000Y4350000D02*
D03*
X3525000Y4200000D02*
D03*
Y3900000D02*
D03*
Y3600000D02*
D03*
Y3300000D02*
D03*
X3450000Y3150000D02*
D03*
X3525000Y3000000D02*
D03*
X3450000Y2550000D02*
D03*
X3525000Y2400000D02*
D03*
X3450000Y2250000D02*
D03*
X3525000Y1800000D02*
D03*
X3300000Y4350000D02*
D03*
X3375000Y4200000D02*
D03*
Y3600000D02*
D03*
Y3300000D02*
D03*
X3300000Y3150000D02*
D03*
X3375000Y3000000D02*
D03*
X3300000Y2850000D02*
D03*
X3375000Y2700000D02*
D03*
X3300000Y2550000D02*
D03*
Y2250000D02*
D03*
X3150000Y4350000D02*
D03*
X3225000Y4200000D02*
D03*
X3150000Y4050000D02*
D03*
Y3750000D02*
D03*
X3225000Y3600000D02*
D03*
Y3300000D02*
D03*
X3150000Y3150000D02*
D03*
X3225000Y3000000D02*
D03*
Y2100000D02*
D03*
Y1800000D02*
D03*
X3150000Y1650000D02*
D03*
X3000000Y4350000D02*
D03*
X3075000Y4200000D02*
D03*
Y3900000D02*
D03*
Y3600000D02*
D03*
Y3300000D02*
D03*
X3000000Y3150000D02*
D03*
Y2850000D02*
D03*
X3075000Y2700000D02*
D03*
X3000000Y2550000D02*
D03*
Y2250000D02*
D03*
X3075000Y2100000D02*
D03*
Y1800000D02*
D03*
X2925000Y4200000D02*
D03*
Y3900000D02*
D03*
X2850000Y3750000D02*
D03*
X2925000Y3600000D02*
D03*
Y3300000D02*
D03*
X2850000Y3150000D02*
D03*
X2925000Y3000000D02*
D03*
Y2700000D02*
D03*
X2850000Y2250000D02*
D03*
X2775000Y4200000D02*
D03*
Y3900000D02*
D03*
X2700000Y3750000D02*
D03*
X2775000Y3600000D02*
D03*
X2700000Y3450000D02*
D03*
X2775000Y3300000D02*
D03*
X2700000Y3150000D02*
D03*
Y2850000D02*
D03*
X2775000Y2700000D02*
D03*
X2700000Y2550000D02*
D03*
X2775000Y2400000D02*
D03*
Y2100000D02*
D03*
Y1800000D02*
D03*
X2625000Y4500000D02*
D03*
Y4200000D02*
D03*
Y3900000D02*
D03*
Y3600000D02*
D03*
Y3000000D02*
D03*
X2550000Y2850000D02*
D03*
X2625000Y2700000D02*
D03*
X2550000Y2250000D02*
D03*
Y1950000D02*
D03*
X2625000Y1800000D02*
D03*
X2475000Y4500000D02*
D03*
X2400000Y4050000D02*
D03*
X2475000Y3900000D02*
D03*
X2400000Y3750000D02*
D03*
X2475000Y3600000D02*
D03*
X2400000Y3450000D02*
D03*
X2475000Y3300000D02*
D03*
X2400000Y3150000D02*
D03*
X2475000Y3000000D02*
D03*
X2400000Y2850000D02*
D03*
X2475000Y2700000D02*
D03*
X2400000Y2550000D02*
D03*
X2475000Y2400000D02*
D03*
Y1800000D02*
D03*
X2250000Y4050000D02*
D03*
Y3450000D02*
D03*
Y2850000D02*
D03*
Y2250000D02*
D03*
X2325000Y2100000D02*
D03*
X2250000Y1950000D02*
D03*
X2100000Y3450000D02*
D03*
X2175000Y3300000D02*
D03*
X2100000Y3150000D02*
D03*
X2175000Y3000000D02*
D03*
Y2700000D02*
D03*
Y2400000D02*
D03*
Y2100000D02*
D03*
X1950000Y4050000D02*
D03*
Y3750000D02*
D03*
Y3450000D02*
D03*
X2025000Y3000000D02*
D03*
X1950000Y2250000D02*
D03*
X1875000Y3900000D02*
D03*
X1800000Y3750000D02*
D03*
X1875000Y3600000D02*
D03*
Y3300000D02*
D03*
Y3000000D02*
D03*
X1800000Y2850000D02*
D03*
X1875000Y2700000D02*
D03*
X1800000Y2550000D02*
D03*
X1875000Y2400000D02*
D03*
X1725000Y3600000D02*
D03*
Y3300000D02*
D03*
X1650000Y3150000D02*
D03*
X1725000Y3000000D02*
D03*
Y2700000D02*
D03*
X2260000Y2377795D02*
D03*
X2695000Y4137816D02*
D03*
X2675000Y4350000D02*
D03*
D67*
X2705000Y2224095D02*
D03*
X2636496Y1878504D02*
D03*
X3355000Y4455000D02*
D03*
X2565000Y2900000D02*
D03*
X2250000Y3860000D02*
D03*
X2443189Y4165000D02*
D03*
X3560000Y1950000D02*
D03*
X4230709Y2560000D02*
D03*
X3885000Y2525000D02*
D03*
X2235000Y3210000D02*
D03*
X2475000Y2570000D02*
D03*
X2325000Y3323189D02*
D03*
D71*
X2104291Y2378504D02*
D03*
Y2441496D02*
D03*
X2710000Y2061496D02*
D03*
Y1998504D02*
D03*
Y1941496D02*
D03*
Y1878504D02*
D03*
D72*
X2209213Y2325000D02*
D03*
X2110787D02*
D03*
D73*
X3645591Y2268307D02*
D03*
X3620000D02*
D03*
X3594410D02*
D03*
Y2181693D02*
D03*
X3620000D02*
D03*
X3645591D02*
D03*
D74*
X2590433Y2645000D02*
D03*
X2523504D02*
D03*
X2371535D02*
D03*
X2438465D02*
D03*
X2153465Y3910000D02*
D03*
X2086535D02*
D03*
X2603583Y4295000D02*
D03*
X2536653D02*
D03*
X3071535Y4455000D02*
D03*
X3138465D02*
D03*
X3898461Y4193175D02*
D03*
X3831532D02*
D03*
D75*
X2230000Y2951024D02*
D03*
Y3078976D02*
D03*
D76*
X2990000Y3637500D02*
D03*
D77*
Y3730000D02*
D03*
D78*
X2480000Y3181811D02*
D03*
X2530000D02*
D03*
X2580000D02*
D03*
X2630000D02*
D03*
Y3408189D02*
D03*
X2580000D02*
D03*
X2530000D02*
D03*
X2480000D02*
D03*
D79*
X2555000Y3295000D02*
D03*
D80*
X2302500Y2485000D02*
D03*
D81*
X2210000D02*
D03*
D82*
X3430000Y4458465D02*
D03*
Y4391535D02*
D03*
D83*
X2630118Y3090000D02*
D03*
X2575000D02*
D03*
X2522559Y3055000D02*
D03*
X2467441D02*
D03*
D84*
X2415000Y2952559D02*
D03*
Y2897441D02*
D03*
%TF.MD5,2cb9339cad4b8d3eca8a7a2e47c687d3*%
M02*
