%TF.GenerationSoftware,Altium Limited,Altium Designer,18.1.6 (161)*%
G04 Layer_Physical_Order=2*
G04 Layer_Color=16711680*
%FSLAX26Y26*%
%MOIN*%
%TF.FileFunction,Copper,L2,Bot,Signal*%
%TF.Part,Single*%
G01*
G75*
%TA.AperFunction,Conductor*%
%ADD25C,0.010000*%
%ADD26C,0.020000*%
%TA.AperFunction,ComponentPad*%
%ADD27C,0.050000*%
%ADD28C,0.066929*%
%ADD29C,0.070000*%
%ADD30C,0.045000*%
%ADD31C,0.055000*%
%ADD32C,0.124000*%
%ADD33C,0.063000*%
%ADD34C,0.120000*%
%ADD35C,0.100000*%
%ADD36R,0.051181X0.137795*%
%ADD37R,0.137795X0.051181*%
%ADD38R,0.157480X0.051181*%
%TA.AperFunction,ViaPad*%
%ADD39C,0.025000*%
%ADD40C,0.050000*%
%TA.AperFunction,SMDPad,CuDef*%
%ADD41R,0.110236X0.078740*%
%ADD42R,0.102362X0.110236*%
%ADD43R,0.110236X0.086614*%
%ADD44R,0.074803X0.155512*%
%ADD45R,0.076772X0.137795*%
G36*
X3265491Y4720615D02*
X3342437Y4713037D01*
X3418919Y4701692D01*
X3494751Y4686608D01*
X3569753Y4667821D01*
X3643742Y4645377D01*
X3716541Y4619329D01*
X3787974Y4589740D01*
X3857869Y4556682D01*
X3926058Y4520235D01*
X3992376Y4480485D01*
X4056664Y4437529D01*
X4118767Y4391471D01*
X4178535Y4342420D01*
X4235824Y4290496D01*
X4290496Y4235824D01*
X4342420Y4178535D01*
X4391471Y4118767D01*
X4437529Y4056664D01*
X4480485Y3992376D01*
X4520235Y3926058D01*
X4556682Y3857869D01*
X4589740Y3787974D01*
X4619329Y3716541D01*
X4645377Y3643742D01*
X4667821Y3569753D01*
X4686608Y3494751D01*
X4701692Y3418919D01*
X4713037Y3342437D01*
X4720615Y3265491D01*
X4724409Y3188265D01*
Y3149606D01*
Y3110947D01*
X4720615Y3033722D01*
X4713037Y2956776D01*
X4701692Y2880294D01*
X4686608Y2804461D01*
X4667821Y2729460D01*
X4645377Y2655470D01*
X4619329Y2582672D01*
X4589740Y2511239D01*
X4556682Y2441344D01*
X4520235Y2373155D01*
X4480485Y2306836D01*
X4437529Y2242548D01*
X4391471Y2180446D01*
X4342420Y2120678D01*
X4290496Y2063389D01*
X4235824Y2008716D01*
X4178535Y1956792D01*
X4118767Y1907742D01*
X4056664Y1861683D01*
X3992376Y1818727D01*
X3926058Y1778978D01*
X3857869Y1742530D01*
X3787974Y1709472D01*
X3716541Y1679884D01*
X3643742Y1653836D01*
X3569753Y1631391D01*
X3494751Y1612605D01*
X3418919Y1597521D01*
X3342437Y1586176D01*
X3265491Y1578597D01*
X3188265Y1574803D01*
X3110947D01*
X3033722Y1578597D01*
X2956776Y1586176D01*
X2880294Y1597521D01*
X2804461Y1612605D01*
X2729460Y1631391D01*
X2655470Y1653836D01*
X2582672Y1679884D01*
X2511239Y1709472D01*
X2441344Y1742530D01*
X2373155Y1778978D01*
X2306836Y1818727D01*
X2242548Y1861683D01*
X2180446Y1907742D01*
X2120678Y1956792D01*
X2063389Y2008716D01*
X2008716Y2063389D01*
X1956792Y2120678D01*
X1907742Y2180446D01*
X1861683Y2242548D01*
X1818727Y2306836D01*
X1778978Y2373155D01*
X1742530Y2441344D01*
X1709472Y2511239D01*
X1679884Y2582672D01*
X1653836Y2655470D01*
X1631391Y2729460D01*
X1612605Y2804461D01*
X1597521Y2880294D01*
X1586176Y2956776D01*
X1578597Y3033722D01*
X1574803Y3110947D01*
Y3149606D01*
Y3188265D01*
X1578597Y3265491D01*
X1586176Y3342437D01*
X1597521Y3418919D01*
X1612605Y3494751D01*
X1631391Y3569753D01*
X1653836Y3643742D01*
X1679884Y3716541D01*
X1709472Y3787974D01*
X1742530Y3857869D01*
X1778978Y3926058D01*
X1818727Y3992376D01*
X1861683Y4056664D01*
X1907742Y4118767D01*
X1956792Y4178535D01*
X2008716Y4235824D01*
X2063389Y4290496D01*
X2120678Y4342420D01*
X2180446Y4391471D01*
X2242548Y4437529D01*
X2306836Y4480485D01*
X2373155Y4520235D01*
X2441344Y4556682D01*
X2511239Y4589740D01*
X2582672Y4619329D01*
X2655470Y4645377D01*
X2729460Y4667821D01*
X2804461Y4686608D01*
X2880294Y4701692D01*
X2956776Y4713037D01*
X3033722Y4720615D01*
X3110947Y4724409D01*
X3188265D01*
X3265491Y4720615D01*
D02*
G37*
%LPC*%
G36*
X3243189Y4695259D02*
X3235357Y4694228D01*
X3228059Y4691205D01*
X3221793Y4686396D01*
X3216984Y4680129D01*
X3213961Y4672832D01*
X3212930Y4665000D01*
X3213961Y4657168D01*
X3216984Y4649871D01*
X3221793Y4643604D01*
X3228059Y4638795D01*
X3235357Y4635772D01*
X3243189Y4634741D01*
X3251020Y4635772D01*
X3258318Y4638795D01*
X3264585Y4643604D01*
X3269394Y4649871D01*
X3272417Y4657168D01*
X3273448Y4665000D01*
X3272417Y4672832D01*
X3269394Y4680129D01*
X3264585Y4686396D01*
X3258318Y4691205D01*
X3251020Y4694228D01*
X3243189Y4695259D01*
D02*
G37*
G36*
X3066023D02*
X3058192Y4694228D01*
X3050894Y4691205D01*
X3044627Y4686396D01*
X3039818Y4680129D01*
X3036796Y4672832D01*
X3035765Y4665000D01*
X3036796Y4657168D01*
X3039818Y4649871D01*
X3044627Y4643604D01*
X3050894Y4638795D01*
X3058192Y4635772D01*
X3066023Y4634741D01*
X3073855Y4635772D01*
X3081153Y4638795D01*
X3087420Y4643604D01*
X3092228Y4649871D01*
X3095251Y4657168D01*
X3096282Y4665000D01*
X3095251Y4672832D01*
X3092228Y4680129D01*
X3087420Y4686396D01*
X3081153Y4691205D01*
X3073855Y4694228D01*
X3066023Y4695259D01*
D02*
G37*
G36*
X3292401Y4606920D02*
X3281959Y4605545D01*
X3272229Y4601515D01*
X3263873Y4595103D01*
X3257461Y4586747D01*
X3253431Y4577017D01*
X3252056Y4566575D01*
X3253431Y4556133D01*
X3257461Y4546402D01*
X3258387Y4545196D01*
X3249175Y4525196D01*
X3060037D01*
X3050825Y4545196D01*
X3051751Y4546402D01*
X3055781Y4556133D01*
X3057156Y4566575D01*
X3055781Y4577017D01*
X3051751Y4586747D01*
X3045339Y4595103D01*
X3036983Y4601515D01*
X3027253Y4605545D01*
X3016811Y4606920D01*
X3006369Y4605545D01*
X2996638Y4601515D01*
X2988282Y4595103D01*
X2981871Y4586747D01*
X2977840Y4577017D01*
X2976466Y4566575D01*
X2977840Y4556133D01*
X2981871Y4546402D01*
X2982796Y4545196D01*
X2973585Y4525196D01*
X2746831D01*
X2744788Y4530130D01*
X2739979Y4536396D01*
X2733712Y4541205D01*
X2726414Y4544228D01*
X2718583Y4545259D01*
X2710751Y4544228D01*
X2703453Y4541205D01*
X2697186Y4536396D01*
X2692378Y4530130D01*
X2689355Y4522832D01*
X2688324Y4515000D01*
X2689355Y4507168D01*
X2691398Y4502235D01*
X2534359Y4345196D01*
X2218060D01*
X2214158Y4344420D01*
X2210851Y4342210D01*
X2132760Y4264119D01*
X2130349Y4265374D01*
X2122637Y4267084D01*
X2114746Y4266739D01*
X2107212Y4264364D01*
X2100550Y4260120D01*
X2095213Y4254296D01*
X2091566Y4247289D01*
X2089856Y4239577D01*
X2090201Y4231685D01*
X2092576Y4224152D01*
X2096820Y4217490D01*
X2102644Y4212153D01*
X2109651Y4208506D01*
X2117363Y4206796D01*
X2125254Y4207141D01*
X2132788Y4209516D01*
X2139450Y4213760D01*
X2144787Y4219584D01*
X2148434Y4226591D01*
X2150144Y4234303D01*
X2149799Y4242194D01*
X2147424Y4249728D01*
X2147340Y4249860D01*
X2222283Y4324804D01*
X2538583D01*
X2542485Y4325580D01*
X2545792Y4327790D01*
X2705818Y4487816D01*
X2710751Y4485772D01*
X2718583Y4484741D01*
X2726414Y4485772D01*
X2733712Y4488795D01*
X2739979Y4493604D01*
X2744788Y4499870D01*
X2746831Y4504804D01*
X3341674D01*
X3347670Y4484804D01*
X3347168Y4484228D01*
X3339871Y4481205D01*
X3333604Y4476396D01*
X3328795Y4470129D01*
X3326751Y4465196D01*
X2975000D01*
X2971098Y4464420D01*
X2967790Y4462210D01*
X2790777Y4285196D01*
X2370000D01*
X2366098Y4284420D01*
X2362790Y4282210D01*
X2280719Y4200138D01*
X2274901Y4200150D01*
X2258727Y4206431D01*
X2257531Y4210226D01*
X2251872Y4219109D01*
X2244107Y4226224D01*
X2234764Y4231087D01*
X2224482Y4233367D01*
X2213960Y4232907D01*
X2203915Y4229740D01*
X2195032Y4224081D01*
X2187917Y4216316D01*
X2183053Y4206974D01*
X2180774Y4196691D01*
X2181233Y4186169D01*
X2184400Y4176124D01*
X2190059Y4167242D01*
X2197824Y4160126D01*
X2207167Y4155263D01*
X2207488Y4155192D01*
X2214235Y4133654D01*
X1841217Y3760636D01*
X1836409Y3760190D01*
X1817141Y3764845D01*
X1816222Y3766222D01*
X1808779Y3771195D01*
X1805000Y3771946D01*
Y3750000D01*
X1800000D01*
Y3745000D01*
X1778054D01*
X1778805Y3741221D01*
X1783778Y3733778D01*
X1785155Y3732859D01*
X1789810Y3713591D01*
X1789364Y3708783D01*
X1772790Y3692210D01*
X1770580Y3688902D01*
X1769804Y3685000D01*
Y3038110D01*
X1770580Y3034208D01*
X1772790Y3030901D01*
X1841320Y2962371D01*
X1839276Y2957438D01*
X1838245Y2949606D01*
X1839276Y2941775D01*
X1842299Y2934477D01*
X1847108Y2928210D01*
X1853374Y2923401D01*
X1860672Y2920378D01*
X1868504Y2919347D01*
X1876335Y2920378D01*
X1883633Y2923401D01*
X1889900Y2928210D01*
X1894709Y2934477D01*
X1897732Y2941775D01*
X1898763Y2949606D01*
X1897732Y2957438D01*
X1894709Y2964736D01*
X1891222Y2983778D01*
X1896195Y2991221D01*
X1896946Y2995000D01*
X1875000D01*
Y3005000D01*
X1896946D01*
X1896195Y3008779D01*
X1891222Y3016222D01*
X1894709Y3034477D01*
X1897732Y3041775D01*
X1898763Y3049606D01*
X1897774Y3057120D01*
X1897732Y3057438D01*
X1897585Y3059763D01*
X1897728Y3062848D01*
X1915450Y3071522D01*
X1916720Y3071652D01*
X1938305Y3050066D01*
X1938245Y3049606D01*
X1939276Y3041775D01*
X1942299Y3034477D01*
X1947108Y3028210D01*
X1953374Y3023401D01*
X1960672Y3020378D01*
X1968504Y3019347D01*
X1976335Y3020378D01*
X1983633Y3023401D01*
X1989900Y3028210D01*
X1994709Y3034477D01*
X1997732Y3041775D01*
X1998763Y3049606D01*
X1997732Y3057438D01*
X1994709Y3064736D01*
X1989900Y3071003D01*
X1983633Y3075811D01*
X1976335Y3078834D01*
X1968504Y3079865D01*
X1960672Y3078834D01*
X1955102Y3076527D01*
X1932707Y3098922D01*
X1933936Y3117142D01*
X1952036Y3124428D01*
X1953374Y3123401D01*
X1960672Y3120378D01*
X1968504Y3119347D01*
X1976335Y3120378D01*
X1983633Y3123401D01*
X1989900Y3128210D01*
X1994709Y3134477D01*
X1997732Y3141775D01*
X1998763Y3149606D01*
X1997732Y3157438D01*
X1994709Y3164736D01*
X1989900Y3171003D01*
X1983633Y3175811D01*
X1976335Y3178834D01*
X1968504Y3179865D01*
X1960672Y3178834D01*
X1953374Y3175811D01*
X1950294Y3173448D01*
X1938445Y3176640D01*
X1930294Y3181944D01*
Y3217268D01*
X1938445Y3222573D01*
X1950294Y3225765D01*
X1953374Y3223401D01*
X1960672Y3220378D01*
X1968504Y3219347D01*
X1976335Y3220378D01*
X1983633Y3223401D01*
X1989900Y3228210D01*
X1994709Y3234477D01*
X1997732Y3241775D01*
X1998763Y3249606D01*
X1997732Y3257438D01*
X1994709Y3264736D01*
X1989900Y3271003D01*
X1983633Y3275811D01*
X1976335Y3278834D01*
X1968504Y3279865D01*
X1960672Y3278834D01*
X1953374Y3275811D01*
X1950294Y3273448D01*
X1938445Y3276640D01*
X1930294Y3281944D01*
Y3312066D01*
X1942729Y3319862D01*
X1950294Y3322606D01*
X1955672Y3320378D01*
X1963504Y3319347D01*
X1971335Y3320378D01*
X1978633Y3323401D01*
X1984900Y3328210D01*
X1989709Y3334477D01*
X1992732Y3341775D01*
X1993763Y3349606D01*
X1992732Y3357438D01*
X1989709Y3364736D01*
X1984900Y3371003D01*
X1978633Y3375811D01*
X1971335Y3378834D01*
X1963504Y3379865D01*
X1955672Y3378834D01*
X1950294Y3376606D01*
X1942729Y3379351D01*
X1930294Y3387147D01*
Y3412139D01*
X1932330Y3415245D01*
X1945000Y3423716D01*
Y3450000D01*
Y3476284D01*
X1932330Y3484755D01*
X1930294Y3487861D01*
Y3658665D01*
X2056492Y3784864D01*
X2375679D01*
X2381298Y3771931D01*
X2382871Y3764864D01*
X2378805Y3758779D01*
X2378054Y3755000D01*
X2421946D01*
X2421195Y3758779D01*
X2417129Y3764864D01*
X2418702Y3771931D01*
X2424321Y3784864D01*
X2546614D01*
Y3726260D01*
X2633386D01*
Y3784864D01*
X2675679D01*
X2681298Y3771931D01*
X2682871Y3764864D01*
X2678805Y3758779D01*
X2678054Y3755000D01*
X2721946D01*
X2721195Y3758779D01*
X2717129Y3764864D01*
X2718702Y3771931D01*
X2724321Y3784864D01*
X2825679D01*
X2831298Y3771931D01*
X2832871Y3764864D01*
X2828805Y3758779D01*
X2828054Y3755000D01*
X2871946D01*
X2871195Y3758779D01*
X2867129Y3764864D01*
X2868702Y3771931D01*
X2874321Y3784864D01*
X2916614D01*
Y3721260D01*
X3003386D01*
Y3779864D01*
X3120671D01*
X3121151Y3779364D01*
X3129530Y3759864D01*
X3128805Y3758779D01*
X3128054Y3755000D01*
X3171946D01*
X3171195Y3758779D01*
X3170470Y3759864D01*
X3178849Y3779364D01*
X3179329Y3779864D01*
X3296614D01*
Y3721260D01*
X3383386D01*
Y3869055D01*
X3296614D01*
Y3810451D01*
X3003386D01*
Y3869055D01*
X2953607D01*
X2951466Y3871600D01*
X2944747Y3889055D01*
X2946195Y3891221D01*
X2946946Y3895000D01*
X2903054D01*
X2903805Y3891221D01*
X2907715Y3885369D01*
X2909740Y3881658D01*
X2916470Y3866815D01*
X2916614Y3859889D01*
Y3815451D01*
X2633386D01*
Y3859889D01*
X2633530Y3866815D01*
X2641222Y3883778D01*
X2646195Y3891221D01*
X2646946Y3895000D01*
X2603054D01*
X2603242Y3894055D01*
X2600197Y3886298D01*
X2591222Y3874055D01*
X2546614D01*
Y3815451D01*
X2272917D01*
X2267575Y3828034D01*
X2267288Y3835451D01*
X2271396Y3838604D01*
X2276205Y3844871D01*
X2279228Y3852168D01*
X2280259Y3860000D01*
X2279228Y3867832D01*
X2276205Y3875129D01*
X2271396Y3881396D01*
X2265129Y3886205D01*
X2260196Y3888249D01*
Y3967588D01*
X2359813Y4067205D01*
X2377729Y4058946D01*
X2378590Y4057698D01*
X2378054Y4055000D01*
X2395000D01*
Y4071946D01*
X2392302Y4071410D01*
X2391054Y4072271D01*
X2382795Y4090187D01*
X2430424Y4137816D01*
X2435357Y4135772D01*
X2443189Y4134741D01*
X2451021Y4135772D01*
X2458318Y4138795D01*
X2464585Y4143604D01*
X2469394Y4149871D01*
X2472417Y4157168D01*
X2473448Y4165000D01*
X2472417Y4172832D01*
X2469394Y4180129D01*
X2464585Y4186396D01*
X2458318Y4191205D01*
X2451021Y4194228D01*
X2443189Y4195259D01*
X2435357Y4194228D01*
X2428060Y4191205D01*
X2421793Y4186396D01*
X2416984Y4180129D01*
X2413961Y4172832D01*
X2412930Y4165000D01*
X2413961Y4157168D01*
X2416005Y4152235D01*
X2242790Y3979021D01*
X2240580Y3975713D01*
X2239804Y3971811D01*
Y3888249D01*
X2234871Y3886205D01*
X2228604Y3881396D01*
X2223795Y3875129D01*
X2220772Y3867832D01*
X2219741Y3860000D01*
X2220772Y3852168D01*
X2223795Y3844871D01*
X2228604Y3838604D01*
X2232712Y3835451D01*
X2232425Y3828034D01*
X2227083Y3815451D01*
X2050157D01*
X2044305Y3814287D01*
X2039343Y3810972D01*
X1990850Y3762479D01*
X1986943Y3761744D01*
X1966256Y3766169D01*
X1966222Y3766222D01*
X1958779Y3771195D01*
X1955000Y3771946D01*
Y3750000D01*
X1950000D01*
Y3745000D01*
X1928054D01*
X1928805Y3741221D01*
X1933778Y3733778D01*
X1933831Y3733744D01*
X1938256Y3713057D01*
X1937521Y3709150D01*
X1904186Y3675814D01*
X1900870Y3670853D01*
X1899706Y3665000D01*
Y3634606D01*
X1893674Y3629527D01*
X1880000Y3622163D01*
Y3600000D01*
Y3577837D01*
X1893674Y3570473D01*
X1899706Y3565394D01*
Y3394990D01*
X1895972Y3390909D01*
X1879706Y3382850D01*
X1877641Y3383705D01*
X1873504Y3384250D01*
Y3349606D01*
X1868504D01*
Y3344606D01*
X1833860D01*
X1834405Y3340470D01*
X1837931Y3331955D01*
X1843542Y3324644D01*
X1850853Y3319034D01*
X1853914Y3308942D01*
X1853805Y3308779D01*
X1853054Y3305000D01*
X1875000D01*
Y3295000D01*
X1853054D01*
X1853805Y3291221D01*
X1850853Y3280179D01*
X1843542Y3274568D01*
X1837931Y3267257D01*
X1834405Y3258743D01*
X1833860Y3254606D01*
X1868504D01*
Y3249606D01*
X1873504D01*
Y3214963D01*
X1877641Y3215507D01*
X1879706Y3216363D01*
X1895972Y3208304D01*
X1897027Y3207151D01*
X1895965Y3187311D01*
X1879074Y3177700D01*
X1876335Y3178834D01*
X1868504Y3179865D01*
X1860672Y3178834D01*
X1853374Y3175811D01*
X1847108Y3171003D01*
X1842299Y3164736D01*
X1839276Y3157438D01*
X1838245Y3149606D01*
X1839276Y3141775D01*
X1842299Y3134477D01*
X1847108Y3128210D01*
X1853374Y3123401D01*
X1860672Y3120378D01*
X1868504Y3119347D01*
X1876335Y3120378D01*
X1879706Y3121774D01*
X1892282Y3116473D01*
X1899706Y3110525D01*
Y3097524D01*
X1899706Y3095000D01*
X1899859Y3093942D01*
X1891020Y3081857D01*
X1879943Y3077340D01*
X1876335Y3078834D01*
X1868504Y3079865D01*
X1860672Y3078834D01*
X1853374Y3075811D01*
X1847108Y3071003D01*
X1842299Y3064736D01*
X1839276Y3057438D01*
X1838245Y3049606D01*
X1839276Y3041775D01*
X1842299Y3034477D01*
X1847108Y3028210D01*
X1849444Y3025810D01*
X1847697Y3012480D01*
X1827342Y3005188D01*
X1790196Y3042334D01*
Y3680777D01*
X2374223Y4264804D01*
X2795000D01*
X2798902Y4265580D01*
X2802210Y4267790D01*
X2979223Y4444804D01*
X3326751D01*
X3328795Y4439871D01*
X3333604Y4433604D01*
X3339871Y4428795D01*
X3347168Y4425772D01*
X3355000Y4424741D01*
X3362832Y4425772D01*
X3370129Y4428795D01*
X3376396Y4433604D01*
X3381205Y4439871D01*
X3384228Y4447168D01*
X3385259Y4455000D01*
X3384228Y4462832D01*
X3381205Y4470129D01*
X3376396Y4476396D01*
X3370129Y4481205D01*
X3362832Y4484228D01*
X3362330Y4484804D01*
X3368326Y4504804D01*
X3520777D01*
X3550199Y4475382D01*
X3540857Y4456439D01*
X3537205Y4456920D01*
X3526763Y4455545D01*
X3517032Y4451515D01*
X3508676Y4445103D01*
X3502265Y4436747D01*
X3498234Y4427017D01*
X3496860Y4416575D01*
X3498234Y4406133D01*
X3502265Y4396402D01*
X3508676Y4388046D01*
X3517032Y4381635D01*
X3526763Y4377604D01*
X3537205Y4376230D01*
X3547647Y4377604D01*
X3557377Y4381635D01*
X3565733Y4388046D01*
X3572145Y4396402D01*
X3576175Y4406133D01*
X3577550Y4416575D01*
X3577069Y4420227D01*
X3596012Y4429569D01*
X3619804Y4405777D01*
Y4387841D01*
X3617693Y4384653D01*
X3605000Y4376251D01*
Y4350000D01*
Y4323749D01*
X3617693Y4315347D01*
X3619804Y4312159D01*
Y4300000D01*
X3620580Y4296098D01*
X3622790Y4292790D01*
X3673503Y4242078D01*
X3666221Y4221194D01*
X3658778Y4216222D01*
X3653805Y4208779D01*
X3653054Y4205000D01*
X3675000D01*
Y4200000D01*
X3680000D01*
Y4178054D01*
X3683779Y4178806D01*
X3691222Y4183778D01*
X3696195Y4191221D01*
X3717078Y4198502D01*
X4414804Y3500777D01*
Y3149223D01*
X4384764Y3119183D01*
X4369408Y3120840D01*
X4358975Y3139453D01*
X4359937Y3141775D01*
X4360968Y3149606D01*
X4359937Y3157438D01*
X4356914Y3164736D01*
X4352105Y3171003D01*
X4345838Y3175811D01*
X4338540Y3178834D01*
X4330709Y3179865D01*
X4322877Y3178834D01*
X4315579Y3175811D01*
X4309312Y3171003D01*
X4304504Y3164736D01*
X4301481Y3157438D01*
X4300450Y3149606D01*
X4301481Y3141775D01*
X4303097Y3137874D01*
X4293018Y3119831D01*
X4276582Y3118153D01*
X4257893Y3136841D01*
X4259937Y3141775D01*
X4260968Y3149606D01*
X4259937Y3157438D01*
X4256914Y3164736D01*
X4252105Y3171003D01*
X4245838Y3175811D01*
X4238540Y3178834D01*
X4230709Y3179865D01*
X4222877Y3178834D01*
X4215579Y3175811D01*
X4209312Y3171003D01*
X4204504Y3164736D01*
X4201481Y3157438D01*
X4200450Y3149606D01*
X4201481Y3141775D01*
X4204504Y3134477D01*
X4209312Y3128210D01*
X4215579Y3123401D01*
X4222877Y3120378D01*
X4230709Y3119347D01*
X4238540Y3120378D01*
X4243474Y3122422D01*
X4268105Y3097790D01*
X4271413Y3095580D01*
X4275315Y3094804D01*
X4303395D01*
X4314353Y3076951D01*
X4314267Y3074804D01*
X4309312Y3071003D01*
X4304504Y3064736D01*
X4301481Y3057438D01*
X4300450Y3049606D01*
X4301481Y3041775D01*
X4304504Y3034477D01*
X4309312Y3028210D01*
X4315579Y3023401D01*
X4322877Y3020378D01*
X4330709Y3019347D01*
X4338540Y3020378D01*
X4345838Y3023401D01*
X4352105Y3028210D01*
X4356914Y3034477D01*
X4359937Y3041775D01*
X4360968Y3049606D01*
X4359937Y3057438D01*
X4356914Y3064736D01*
X4352105Y3071003D01*
X4347151Y3074804D01*
X4347065Y3076951D01*
X4358022Y3094804D01*
X4385000D01*
X4388902Y3095580D01*
X4392210Y3097790D01*
X4432210Y3137790D01*
X4434420Y3141098D01*
X4435196Y3145000D01*
Y3505000D01*
X4434420Y3508902D01*
X4432210Y3512210D01*
X3640196Y4304223D01*
Y4410000D01*
X3639420Y4413902D01*
X3637210Y4417210D01*
X3589451Y4464968D01*
X3592766Y4479340D01*
X3596146Y4486558D01*
X3601547Y4488795D01*
X3607814Y4493604D01*
X3612622Y4499870D01*
X3615645Y4507168D01*
X3616676Y4515000D01*
X3615645Y4522832D01*
X3612622Y4530130D01*
X3607814Y4536396D01*
X3601547Y4541205D01*
X3594249Y4544228D01*
X3586417Y4545259D01*
X3578586Y4544228D01*
X3571288Y4541205D01*
X3565021Y4536396D01*
X3560212Y4530130D01*
X3557975Y4524728D01*
X3550757Y4521348D01*
X3536385Y4518034D01*
X3532210Y4522210D01*
X3528902Y4524420D01*
X3525000Y4525196D01*
X3335627D01*
X3326416Y4545196D01*
X3327341Y4546402D01*
X3331372Y4556133D01*
X3332747Y4566575D01*
X3331372Y4577017D01*
X3327341Y4586747D01*
X3320930Y4595103D01*
X3312574Y4601515D01*
X3302843Y4605545D01*
X3292401Y4606920D01*
D02*
G37*
G36*
X2541417Y4545259D02*
X2533586Y4544228D01*
X2526288Y4541205D01*
X2520021Y4536396D01*
X2515212Y4530130D01*
X2512189Y4522832D01*
X2511970Y4521168D01*
X2492023Y4515022D01*
X2491222Y4516222D01*
X2483779Y4521194D01*
X2480000Y4521946D01*
Y4500000D01*
Y4478054D01*
X2483779Y4478806D01*
X2491222Y4483778D01*
X2496195Y4491221D01*
X2496504Y4492775D01*
X2506187Y4496448D01*
X2517364Y4497066D01*
X2520021Y4493604D01*
X2526288Y4488795D01*
X2533586Y4485772D01*
X2541417Y4484741D01*
X2549249Y4485772D01*
X2556547Y4488795D01*
X2562814Y4493604D01*
X2567622Y4499870D01*
X2570645Y4507168D01*
X2571676Y4515000D01*
X2570645Y4522832D01*
X2567622Y4530130D01*
X2562814Y4536396D01*
X2556547Y4541205D01*
X2549249Y4544228D01*
X2541417Y4545259D01*
D02*
G37*
G36*
X3680000Y4521946D02*
Y4505000D01*
X3696946D01*
X3696195Y4508779D01*
X3691222Y4516222D01*
X3683779Y4521194D01*
X3680000Y4521946D01*
D02*
G37*
G36*
X3670000D02*
X3666221Y4521194D01*
X3658778Y4516222D01*
X3653805Y4508779D01*
X3653054Y4505000D01*
X3670000D01*
Y4521946D01*
D02*
G37*
G36*
X2630000D02*
Y4505000D01*
X2646946D01*
X2646195Y4508779D01*
X2641222Y4516222D01*
X2633779Y4521194D01*
X2630000Y4521946D01*
D02*
G37*
G36*
X2620000D02*
X2616221Y4521194D01*
X2608778Y4516222D01*
X2603805Y4508779D01*
X2603054Y4505000D01*
X2620000D01*
Y4521946D01*
D02*
G37*
G36*
X2470000D02*
X2466221Y4521194D01*
X2458778Y4516222D01*
X2453805Y4508779D01*
X2453054Y4505000D01*
X2470000D01*
Y4521946D01*
D02*
G37*
G36*
X3763583Y4545259D02*
X3755751Y4544228D01*
X3748453Y4541205D01*
X3742186Y4536396D01*
X3737378Y4530130D01*
X3734355Y4522832D01*
X3733324Y4515000D01*
X3734355Y4507168D01*
X3737378Y4499870D01*
X3742186Y4493604D01*
X3748453Y4488795D01*
X3755751Y4485772D01*
X3763583Y4484741D01*
X3771414Y4485772D01*
X3778712Y4488795D01*
X3784979Y4493604D01*
X3789788Y4499870D01*
X3792811Y4507168D01*
X3793842Y4515000D01*
X3792811Y4522832D01*
X3789788Y4530130D01*
X3784979Y4536396D01*
X3778712Y4541205D01*
X3771414Y4544228D01*
X3763583Y4545259D01*
D02*
G37*
G36*
X3696946Y4495000D02*
X3680000D01*
Y4478054D01*
X3683779Y4478806D01*
X3691222Y4483778D01*
X3696195Y4491221D01*
X3696946Y4495000D01*
D02*
G37*
G36*
X3670000D02*
X3653054D01*
X3653805Y4491221D01*
X3658778Y4483778D01*
X3666221Y4478806D01*
X3670000Y4478054D01*
Y4495000D01*
D02*
G37*
G36*
X2646946D02*
X2630000D01*
Y4478054D01*
X2633779Y4478806D01*
X2641222Y4483778D01*
X2646195Y4491221D01*
X2646946Y4495000D01*
D02*
G37*
G36*
X2620000D02*
X2603054D01*
X2603805Y4491221D01*
X2608778Y4483778D01*
X2616221Y4478806D01*
X2620000Y4478054D01*
Y4495000D01*
D02*
G37*
G36*
X2470000D02*
X2453054D01*
X2453805Y4491221D01*
X2458778Y4483778D01*
X2466221Y4478806D01*
X2470000Y4478054D01*
Y4495000D01*
D02*
G37*
G36*
X3812795Y4456920D02*
X3802353Y4455545D01*
X3792623Y4451515D01*
X3784267Y4445103D01*
X3777855Y4436747D01*
X3773825Y4427017D01*
X3772450Y4416575D01*
X3773825Y4406133D01*
X3777855Y4396402D01*
X3784267Y4388046D01*
X3792623Y4381635D01*
X3802353Y4377604D01*
X3812795Y4376230D01*
X3823237Y4377604D01*
X3832968Y4381635D01*
X3841324Y4388046D01*
X3847735Y4396402D01*
X3851766Y4406133D01*
X3853140Y4416575D01*
X3851766Y4427017D01*
X3847735Y4436747D01*
X3841324Y4445103D01*
X3832968Y4451515D01*
X3823237Y4455545D01*
X3812795Y4456920D01*
D02*
G37*
G36*
X2767795D02*
X2757353Y4455545D01*
X2747623Y4451515D01*
X2739267Y4445103D01*
X2732855Y4436747D01*
X2728825Y4427017D01*
X2727450Y4416575D01*
X2728825Y4406133D01*
X2732855Y4396402D01*
X2739267Y4388046D01*
X2747623Y4381635D01*
X2757353Y4377604D01*
X2767795Y4376230D01*
X2778237Y4377604D01*
X2787968Y4381635D01*
X2796324Y4388046D01*
X2802735Y4396402D01*
X2806766Y4406133D01*
X2808140Y4416575D01*
X2806766Y4427017D01*
X2802735Y4436747D01*
X2796324Y4445103D01*
X2787968Y4451515D01*
X2778237Y4455545D01*
X2767795Y4456920D01*
D02*
G37*
G36*
X2492205D02*
X2481763Y4455545D01*
X2472032Y4451515D01*
X2463676Y4445103D01*
X2457265Y4436747D01*
X2453234Y4427017D01*
X2451860Y4416575D01*
X2453234Y4406133D01*
X2457265Y4396402D01*
X2463676Y4388046D01*
X2472032Y4381635D01*
X2481763Y4377604D01*
X2492205Y4376230D01*
X2502647Y4377604D01*
X2512377Y4381635D01*
X2520733Y4388046D01*
X2527145Y4396402D01*
X2531175Y4406133D01*
X2532550Y4416575D01*
X2531175Y4427017D01*
X2527145Y4436747D01*
X2520733Y4445103D01*
X2512377Y4451515D01*
X2502647Y4455545D01*
X2492205Y4456920D01*
D02*
G37*
G36*
X3905000Y4371946D02*
Y4355000D01*
X3921946D01*
X3921195Y4358779D01*
X3916222Y4366222D01*
X3908779Y4371194D01*
X3905000Y4371946D01*
D02*
G37*
G36*
X3895000D02*
X3891221Y4371194D01*
X3883778Y4366222D01*
X3878805Y4358779D01*
X3878054Y4355000D01*
X3895000D01*
Y4371946D01*
D02*
G37*
G36*
X3755000D02*
Y4355000D01*
X3771946D01*
X3771195Y4358779D01*
X3766222Y4366222D01*
X3758779Y4371194D01*
X3755000Y4371946D01*
D02*
G37*
G36*
X3745000D02*
X3741221Y4371194D01*
X3733778Y4366222D01*
X3728805Y4358779D01*
X3728054Y4355000D01*
X3745000D01*
Y4371946D01*
D02*
G37*
G36*
X3595000D02*
X3591221Y4371194D01*
X3583778Y4366222D01*
X3578805Y4358779D01*
X3578054Y4355000D01*
X3595000D01*
Y4371946D01*
D02*
G37*
G36*
X3455000D02*
Y4355000D01*
X3471946D01*
X3471195Y4358779D01*
X3466222Y4366222D01*
X3458779Y4371194D01*
X3455000Y4371946D01*
D02*
G37*
G36*
X3445000D02*
X3441221Y4371194D01*
X3433778Y4366222D01*
X3428805Y4358779D01*
X3428054Y4355000D01*
X3445000D01*
Y4371946D01*
D02*
G37*
G36*
X3305000D02*
Y4355000D01*
X3321946D01*
X3321195Y4358779D01*
X3316222Y4366222D01*
X3308779Y4371194D01*
X3305000Y4371946D01*
D02*
G37*
G36*
X3295000D02*
X3291221Y4371194D01*
X3283778Y4366222D01*
X3278805Y4358779D01*
X3278054Y4355000D01*
X3295000D01*
Y4371946D01*
D02*
G37*
G36*
X3155000D02*
Y4355000D01*
X3171946D01*
X3171195Y4358779D01*
X3166222Y4366222D01*
X3158779Y4371194D01*
X3155000Y4371946D01*
D02*
G37*
G36*
X3145000D02*
X3141221Y4371194D01*
X3133778Y4366222D01*
X3128805Y4358779D01*
X3128054Y4355000D01*
X3145000D01*
Y4371946D01*
D02*
G37*
G36*
X3005000D02*
Y4355000D01*
X3021946D01*
X3021195Y4358779D01*
X3016222Y4366222D01*
X3008779Y4371194D01*
X3005000Y4371946D01*
D02*
G37*
G36*
X2995000D02*
X2991221Y4371194D01*
X2983778Y4366222D01*
X2978805Y4358779D01*
X2978054Y4355000D01*
X2995000D01*
Y4371946D01*
D02*
G37*
G36*
X2680000D02*
Y4355000D01*
X2696946D01*
X2696195Y4358779D01*
X2691222Y4366222D01*
X2683779Y4371194D01*
X2680000Y4371946D01*
D02*
G37*
G36*
X2670000D02*
X2666221Y4371194D01*
X2658778Y4366222D01*
X2653805Y4358779D01*
X2653054Y4355000D01*
X2670000D01*
Y4371946D01*
D02*
G37*
G36*
X3921946Y4345000D02*
X3905000D01*
Y4328054D01*
X3908779Y4328806D01*
X3916222Y4333778D01*
X3921195Y4341221D01*
X3921946Y4345000D01*
D02*
G37*
G36*
X3895000D02*
X3878054D01*
X3878805Y4341221D01*
X3883778Y4333778D01*
X3891221Y4328806D01*
X3895000Y4328054D01*
Y4345000D01*
D02*
G37*
G36*
X3771946D02*
X3755000D01*
Y4328054D01*
X3758779Y4328806D01*
X3766222Y4333778D01*
X3771195Y4341221D01*
X3771946Y4345000D01*
D02*
G37*
G36*
X3745000D02*
X3728054D01*
X3728805Y4341221D01*
X3733778Y4333778D01*
X3741221Y4328806D01*
X3745000Y4328054D01*
Y4345000D01*
D02*
G37*
G36*
X3471946D02*
X3455000D01*
Y4328054D01*
X3458779Y4328806D01*
X3466222Y4333778D01*
X3471195Y4341221D01*
X3471946Y4345000D01*
D02*
G37*
G36*
X3445000D02*
X3428054D01*
X3428805Y4341221D01*
X3433778Y4333778D01*
X3441221Y4328806D01*
X3445000Y4328054D01*
Y4345000D01*
D02*
G37*
G36*
X3321946D02*
X3305000D01*
Y4328054D01*
X3308779Y4328806D01*
X3316222Y4333778D01*
X3321195Y4341221D01*
X3321946Y4345000D01*
D02*
G37*
G36*
X3295000D02*
X3278054D01*
X3278805Y4341221D01*
X3283778Y4333778D01*
X3291221Y4328806D01*
X3295000Y4328054D01*
Y4345000D01*
D02*
G37*
G36*
X3171946D02*
X3155000D01*
Y4328054D01*
X3158779Y4328806D01*
X3166222Y4333778D01*
X3171195Y4341221D01*
X3171946Y4345000D01*
D02*
G37*
G36*
X3145000D02*
X3128054D01*
X3128805Y4341221D01*
X3133778Y4333778D01*
X3141221Y4328806D01*
X3145000Y4328054D01*
Y4345000D01*
D02*
G37*
G36*
X3021946D02*
X3005000D01*
Y4328054D01*
X3008779Y4328806D01*
X3016222Y4333778D01*
X3021195Y4341221D01*
X3021946Y4345000D01*
D02*
G37*
G36*
X2995000D02*
X2978054D01*
X2978805Y4341221D01*
X2983778Y4333778D01*
X2991221Y4328806D01*
X2995000Y4328054D01*
Y4345000D01*
D02*
G37*
G36*
X2696946D02*
X2680000D01*
Y4328054D01*
X2683779Y4328806D01*
X2691222Y4333778D01*
X2696195Y4341221D01*
X2696946Y4345000D01*
D02*
G37*
G36*
X2670000D02*
X2653054D01*
X2653805Y4341221D01*
X2658778Y4333778D01*
X2666221Y4328806D01*
X2670000Y4328054D01*
Y4345000D01*
D02*
G37*
G36*
X3595000D02*
X3578054D01*
X3578805Y4341221D01*
X3583778Y4333778D01*
X3591221Y4328806D01*
X3595000Y4328054D01*
Y4345000D01*
D02*
G37*
G36*
X4174505Y4267084D02*
X4166793Y4265374D01*
X4159786Y4261726D01*
X4153962Y4256390D01*
X4149718Y4249728D01*
X4147342Y4242194D01*
X4146998Y4234303D01*
X4148708Y4226591D01*
X4152355Y4219584D01*
X4157692Y4213760D01*
X4164354Y4209516D01*
X4171887Y4207141D01*
X4179779Y4206796D01*
X4187491Y4208506D01*
X4194498Y4212153D01*
X4200321Y4217490D01*
X4204566Y4224152D01*
X4206941Y4231685D01*
X4207285Y4239577D01*
X4205576Y4247289D01*
X4201928Y4254296D01*
X4196592Y4260119D01*
X4189930Y4264364D01*
X4182396Y4266739D01*
X4174505Y4267084D01*
D02*
G37*
G36*
X3980000Y4221946D02*
Y4205000D01*
X3996946D01*
X3996195Y4208779D01*
X3991222Y4216222D01*
X3983779Y4221194D01*
X3980000Y4221946D01*
D02*
G37*
G36*
X3970000D02*
X3966221Y4221194D01*
X3958778Y4216222D01*
X3953805Y4208779D01*
X3953054Y4205000D01*
X3970000D01*
Y4221946D01*
D02*
G37*
G36*
X3530000D02*
Y4205000D01*
X3546946D01*
X3546195Y4208779D01*
X3541222Y4216222D01*
X3533779Y4221194D01*
X3530000Y4221946D01*
D02*
G37*
G36*
X3520000D02*
X3516221Y4221194D01*
X3508778Y4216222D01*
X3503805Y4208779D01*
X3503054Y4205000D01*
X3520000D01*
Y4221946D01*
D02*
G37*
G36*
X3380000D02*
Y4205000D01*
X3396946D01*
X3396195Y4208779D01*
X3391222Y4216222D01*
X3383779Y4221194D01*
X3380000Y4221946D01*
D02*
G37*
G36*
X3370000D02*
X3366221Y4221194D01*
X3358778Y4216222D01*
X3353805Y4208779D01*
X3353054Y4205000D01*
X3370000D01*
Y4221946D01*
D02*
G37*
G36*
X3230000D02*
Y4205000D01*
X3246946D01*
X3246195Y4208779D01*
X3241222Y4216222D01*
X3233779Y4221194D01*
X3230000Y4221946D01*
D02*
G37*
G36*
X3220000D02*
X3216221Y4221194D01*
X3208778Y4216222D01*
X3203805Y4208779D01*
X3203054Y4205000D01*
X3220000D01*
Y4221946D01*
D02*
G37*
G36*
X3080000D02*
Y4205000D01*
X3096946D01*
X3096195Y4208779D01*
X3091222Y4216222D01*
X3083779Y4221194D01*
X3080000Y4221946D01*
D02*
G37*
G36*
X3070000D02*
X3066221Y4221194D01*
X3058778Y4216222D01*
X3053805Y4208779D01*
X3053054Y4205000D01*
X3070000D01*
Y4221946D01*
D02*
G37*
G36*
X2930000D02*
Y4205000D01*
X2946946D01*
X2946195Y4208779D01*
X2941222Y4216222D01*
X2933779Y4221194D01*
X2930000Y4221946D01*
D02*
G37*
G36*
X2920000D02*
X2916221Y4221194D01*
X2908778Y4216222D01*
X2903805Y4208779D01*
X2903054Y4205000D01*
X2920000D01*
Y4221946D01*
D02*
G37*
G36*
X2780000D02*
Y4205000D01*
X2796946D01*
X2796195Y4208779D01*
X2791222Y4216222D01*
X2783779Y4221194D01*
X2780000Y4221946D01*
D02*
G37*
G36*
X2770000D02*
X2766221Y4221194D01*
X2758778Y4216222D01*
X2753805Y4208779D01*
X2753054Y4205000D01*
X2770000D01*
Y4221946D01*
D02*
G37*
G36*
X2630000D02*
Y4205000D01*
X2646946D01*
X2646195Y4208779D01*
X2641222Y4216222D01*
X2633779Y4221194D01*
X2630000Y4221946D01*
D02*
G37*
G36*
X2620000D02*
X2616221Y4221194D01*
X2608778Y4216222D01*
X2603805Y4208779D01*
X2603054Y4205000D01*
X2620000D01*
Y4221946D01*
D02*
G37*
G36*
X3246946Y4195000D02*
X3230000D01*
Y4178054D01*
X3233779Y4178806D01*
X3241222Y4183778D01*
X3246195Y4191221D01*
X3246946Y4195000D01*
D02*
G37*
G36*
X3220000D02*
X3203054D01*
X3203805Y4191221D01*
X3208778Y4183778D01*
X3216221Y4178806D01*
X3220000Y4178054D01*
Y4195000D01*
D02*
G37*
G36*
X3096946D02*
X3080000D01*
Y4178054D01*
X3083779Y4178806D01*
X3091222Y4183778D01*
X3096195Y4191221D01*
X3096946Y4195000D01*
D02*
G37*
G36*
X3070000D02*
X3053054D01*
X3053805Y4191221D01*
X3058778Y4183778D01*
X3066221Y4178806D01*
X3070000Y4178054D01*
Y4195000D01*
D02*
G37*
G36*
X2946946D02*
X2930000D01*
Y4178054D01*
X2933779Y4178806D01*
X2941222Y4183778D01*
X2946195Y4191221D01*
X2946946Y4195000D01*
D02*
G37*
G36*
X2920000D02*
X2903054D01*
X2903805Y4191221D01*
X2908778Y4183778D01*
X2916221Y4178806D01*
X2920000Y4178054D01*
Y4195000D01*
D02*
G37*
G36*
X2796946D02*
X2780000D01*
Y4178054D01*
X2783779Y4178806D01*
X2791222Y4183778D01*
X2796195Y4191221D01*
X2796946Y4195000D01*
D02*
G37*
G36*
X2770000D02*
X2753054D01*
X2753805Y4191221D01*
X2758778Y4183778D01*
X2766221Y4178806D01*
X2770000Y4178054D01*
Y4195000D01*
D02*
G37*
G36*
X2646946D02*
X2630000D01*
Y4178054D01*
X2633779Y4178806D01*
X2641222Y4183778D01*
X2646195Y4191221D01*
X2646946Y4195000D01*
D02*
G37*
G36*
X2620000D02*
X2603054D01*
X2603805Y4191221D01*
X2608778Y4183778D01*
X2616221Y4178806D01*
X2620000Y4178054D01*
Y4195000D01*
D02*
G37*
G36*
X3996946D02*
X3980000D01*
Y4178054D01*
X3983779Y4178806D01*
X3991222Y4183778D01*
X3996195Y4191221D01*
X3996946Y4195000D01*
D02*
G37*
G36*
X3970000D02*
X3953054D01*
X3953805Y4191221D01*
X3958778Y4183778D01*
X3966221Y4178806D01*
X3970000Y4178054D01*
Y4195000D01*
D02*
G37*
G36*
X3670000D02*
X3653054D01*
X3653805Y4191221D01*
X3658778Y4183778D01*
X3666221Y4178806D01*
X3670000Y4178054D01*
Y4195000D01*
D02*
G37*
G36*
X3546946D02*
X3530000D01*
Y4178054D01*
X3533779Y4178806D01*
X3541222Y4183778D01*
X3546195Y4191221D01*
X3546946Y4195000D01*
D02*
G37*
G36*
X3520000D02*
X3503054D01*
X3503805Y4191221D01*
X3508778Y4183778D01*
X3516221Y4178806D01*
X3520000Y4178054D01*
Y4195000D01*
D02*
G37*
G36*
X3396946D02*
X3380000D01*
Y4178054D01*
X3383779Y4178806D01*
X3391222Y4183778D01*
X3396195Y4191221D01*
X3396946Y4195000D01*
D02*
G37*
G36*
X3370000D02*
X3353054D01*
X3353805Y4191221D01*
X3358778Y4183778D01*
X3366221Y4178806D01*
X3370000Y4178054D01*
Y4195000D01*
D02*
G37*
G36*
X4072660Y4233367D02*
X4062377Y4231087D01*
X4053035Y4226224D01*
X4045270Y4219108D01*
X4039611Y4210226D01*
X4036444Y4200181D01*
X4035985Y4189659D01*
X4038264Y4179376D01*
X4043127Y4170034D01*
X4050243Y4162269D01*
X4059126Y4156610D01*
X4069170Y4153443D01*
X4079693Y4152983D01*
X4089975Y4155263D01*
X4099317Y4160126D01*
X4107082Y4167242D01*
X4112741Y4176124D01*
X4115908Y4186169D01*
X4116368Y4196691D01*
X4114088Y4206974D01*
X4109225Y4216316D01*
X4102110Y4224081D01*
X4093227Y4229740D01*
X4083182Y4232907D01*
X4072660Y4233367D01*
D02*
G37*
G36*
X2700000Y4159762D02*
Y4142816D01*
X2716946D01*
X2716195Y4146595D01*
X2711222Y4154037D01*
X2703779Y4159010D01*
X2700000Y4159762D01*
D02*
G37*
G36*
X2690000D02*
X2686221Y4159010D01*
X2678778Y4154037D01*
X2673805Y4146595D01*
X2673054Y4142816D01*
X2690000D01*
Y4159762D01*
D02*
G37*
G36*
X2716946Y4132816D02*
X2700000D01*
Y4115869D01*
X2703779Y4116621D01*
X2711222Y4121594D01*
X2716195Y4129037D01*
X2716946Y4132816D01*
D02*
G37*
G36*
X2690000D02*
X2673054D01*
X2673805Y4129037D01*
X2678778Y4121594D01*
X2686221Y4116621D01*
X2690000Y4115869D01*
Y4132816D01*
D02*
G37*
G36*
X1986921Y4153204D02*
X1979029Y4152859D01*
X1971495Y4150484D01*
X1964833Y4146240D01*
X1959497Y4140416D01*
X1955849Y4133409D01*
X1954140Y4125697D01*
X1954484Y4117806D01*
X1956860Y4110272D01*
X1961104Y4103610D01*
X1966928Y4098274D01*
X1973934Y4094626D01*
X1981646Y4092916D01*
X1989538Y4093261D01*
X1997071Y4095636D01*
X2003733Y4099881D01*
X2009070Y4105704D01*
X2012717Y4112711D01*
X2014427Y4120423D01*
X2014083Y4128315D01*
X2011707Y4135848D01*
X2007463Y4142510D01*
X2001639Y4147847D01*
X1994633Y4151494D01*
X1986921Y4153204D01*
D02*
G37*
G36*
X4310221Y4153204D02*
X4302509Y4151494D01*
X4295502Y4147847D01*
X4289679Y4142510D01*
X4285434Y4135848D01*
X4283059Y4128315D01*
X4282715Y4120423D01*
X4284424Y4112711D01*
X4288072Y4105704D01*
X4293408Y4099880D01*
X4300070Y4095636D01*
X4307604Y4093261D01*
X4315495Y4092916D01*
X4323207Y4094626D01*
X4330214Y4098273D01*
X4336038Y4103610D01*
X4340282Y4110272D01*
X4342658Y4117806D01*
X4343002Y4125697D01*
X4341292Y4133409D01*
X4337645Y4140416D01*
X4332308Y4146240D01*
X4325646Y4150484D01*
X4318113Y4152859D01*
X4310221Y4153204D01*
D02*
G37*
G36*
X2638386Y4148740D02*
X2595000D01*
Y4074843D01*
X2638386D01*
Y4148740D01*
D02*
G37*
G36*
X2585000D02*
X2541614D01*
Y4074843D01*
X2585000D01*
Y4148740D01*
D02*
G37*
G36*
X3388386Y4143740D02*
X3345000D01*
Y4069843D01*
X3388386D01*
Y4143740D01*
D02*
G37*
G36*
X3335000D02*
X3291614D01*
Y4069843D01*
X3335000D01*
Y4143740D01*
D02*
G37*
G36*
X3008386D02*
X2965000D01*
Y4069843D01*
X3008386D01*
Y4143740D01*
D02*
G37*
G36*
X2955000D02*
X2911614D01*
Y4069843D01*
X2955000D01*
Y4143740D01*
D02*
G37*
G36*
X4205000Y4071946D02*
Y4055000D01*
X4221946D01*
X4221194Y4058779D01*
X4216222Y4066222D01*
X4208779Y4071195D01*
X4205000Y4071946D01*
D02*
G37*
G36*
X4195000D02*
X4191221Y4071195D01*
X4183778Y4066222D01*
X4178806Y4058779D01*
X4178054Y4055000D01*
X4195000D01*
Y4071946D01*
D02*
G37*
G36*
X4055000D02*
Y4055000D01*
X4071946D01*
X4071195Y4058779D01*
X4066222Y4066222D01*
X4058779Y4071195D01*
X4055000Y4071946D01*
D02*
G37*
G36*
X4045000D02*
X4041221Y4071195D01*
X4033778Y4066222D01*
X4028805Y4058779D01*
X4028054Y4055000D01*
X4045000D01*
Y4071946D01*
D02*
G37*
G36*
X3755000D02*
Y4055000D01*
X3771946D01*
X3771195Y4058779D01*
X3766222Y4066222D01*
X3758779Y4071195D01*
X3755000Y4071946D01*
D02*
G37*
G36*
X3745000D02*
X3741221Y4071195D01*
X3733778Y4066222D01*
X3728805Y4058779D01*
X3728054Y4055000D01*
X3745000D01*
Y4071946D01*
D02*
G37*
G36*
X3155000D02*
Y4055000D01*
X3171946D01*
X3171195Y4058779D01*
X3166222Y4066222D01*
X3158779Y4071195D01*
X3155000Y4071946D01*
D02*
G37*
G36*
X3145000D02*
X3141221Y4071195D01*
X3133778Y4066222D01*
X3128805Y4058779D01*
X3128054Y4055000D01*
X3145000D01*
Y4071946D01*
D02*
G37*
G36*
X2405000D02*
Y4055000D01*
X2421946D01*
X2421195Y4058779D01*
X2416222Y4066222D01*
X2408779Y4071195D01*
X2405000Y4071946D01*
D02*
G37*
G36*
X2255000D02*
Y4055000D01*
X2271946D01*
X2271195Y4058779D01*
X2266222Y4066222D01*
X2258779Y4071195D01*
X2255000Y4071946D01*
D02*
G37*
G36*
X2245000D02*
X2241221Y4071195D01*
X2233778Y4066222D01*
X2228805Y4058779D01*
X2228054Y4055000D01*
X2245000D01*
Y4071946D01*
D02*
G37*
G36*
X1945000D02*
X1941221Y4071195D01*
X1933778Y4066222D01*
X1928805Y4058779D01*
X1928054Y4055000D01*
X1945000D01*
Y4071946D01*
D02*
G37*
G36*
X3171946Y4045000D02*
X3155000D01*
Y4028054D01*
X3158779Y4028805D01*
X3166222Y4033778D01*
X3171195Y4041221D01*
X3171946Y4045000D01*
D02*
G37*
G36*
X3145000D02*
X3128054D01*
X3128805Y4041221D01*
X3133778Y4033778D01*
X3141221Y4028805D01*
X3145000Y4028054D01*
Y4045000D01*
D02*
G37*
G36*
X2421946D02*
X2405000D01*
Y4028054D01*
X2408779Y4028805D01*
X2416222Y4033778D01*
X2421195Y4041221D01*
X2421946Y4045000D01*
D02*
G37*
G36*
X2395000D02*
X2378054D01*
X2378805Y4041221D01*
X2383778Y4033778D01*
X2391221Y4028805D01*
X2395000Y4028054D01*
Y4045000D01*
D02*
G37*
G36*
X2271946D02*
X2255000D01*
Y4028054D01*
X2258779Y4028805D01*
X2266222Y4033778D01*
X2271195Y4041221D01*
X2271946Y4045000D01*
D02*
G37*
G36*
X2245000D02*
X2228054D01*
X2228805Y4041221D01*
X2233778Y4033778D01*
X2241221Y4028805D01*
X2245000Y4028054D01*
Y4045000D01*
D02*
G37*
G36*
X1945000D02*
X1928054D01*
X1928805Y4041221D01*
X1933778Y4033778D01*
X1941221Y4028805D01*
X1945000Y4028054D01*
Y4045000D01*
D02*
G37*
G36*
X4221946D02*
X4205000D01*
Y4028054D01*
X4208779Y4028805D01*
X4216222Y4033778D01*
X4221194Y4041221D01*
X4221946Y4045000D01*
D02*
G37*
G36*
X4195000D02*
X4178054D01*
X4178806Y4041221D01*
X4183778Y4033778D01*
X4191221Y4028805D01*
X4195000Y4028054D01*
Y4045000D01*
D02*
G37*
G36*
X4071946D02*
X4055000D01*
Y4028054D01*
X4058779Y4028805D01*
X4066222Y4033778D01*
X4071195Y4041221D01*
X4071946Y4045000D01*
D02*
G37*
G36*
X4045000D02*
X4028054D01*
X4028805Y4041221D01*
X4033778Y4033778D01*
X4041221Y4028805D01*
X4045000Y4028054D01*
Y4045000D01*
D02*
G37*
G36*
X3771946D02*
X3755000D01*
Y4028054D01*
X3758779Y4028805D01*
X3766222Y4033778D01*
X3771195Y4041221D01*
X3771946Y4045000D01*
D02*
G37*
G36*
X3745000D02*
X3728054D01*
X3728805Y4041221D01*
X3733778Y4033778D01*
X3741221Y4028805D01*
X3745000Y4028054D01*
Y4045000D01*
D02*
G37*
G36*
X2638386Y4064843D02*
X2595000D01*
Y3990945D01*
X2638386D01*
Y4064843D01*
D02*
G37*
G36*
X2585000D02*
X2541614D01*
Y3990945D01*
X2585000D01*
Y4064843D01*
D02*
G37*
G36*
X3388386Y4059843D02*
X3345000D01*
Y3985945D01*
X3388386D01*
Y4059843D01*
D02*
G37*
G36*
X3335000D02*
X3291614D01*
Y3985945D01*
X3335000D01*
Y4059843D01*
D02*
G37*
G36*
X3008386D02*
X2965000D01*
Y3985945D01*
X3008386D01*
Y4059843D01*
D02*
G37*
G36*
X2955000D02*
X2911614D01*
Y3985945D01*
X2955000D01*
Y4059843D01*
D02*
G37*
G36*
X4283775Y4056220D02*
X4273492Y4053941D01*
X4264150Y4049078D01*
X4256385Y4041962D01*
X4250726Y4033079D01*
X4247559Y4023035D01*
X4247099Y4012512D01*
X4249379Y4002230D01*
X4254242Y3992888D01*
X4261357Y3985123D01*
X4270240Y3979464D01*
X4280285Y3976296D01*
X4290807Y3975837D01*
X4301090Y3978117D01*
X4310432Y3982980D01*
X4318197Y3990095D01*
X4323856Y3998978D01*
X4327023Y4009023D01*
X4327483Y4019545D01*
X4325203Y4029828D01*
X4320340Y4039170D01*
X4313224Y4046935D01*
X4304341Y4052594D01*
X4294297Y4055761D01*
X4283775Y4056220D01*
D02*
G37*
G36*
X1955000Y4071946D02*
Y4050000D01*
Y4025546D01*
X1956129Y4025084D01*
X1967438Y4015994D01*
X1969978Y4012235D01*
X1970119Y4009023D01*
X1973286Y3998978D01*
X1978945Y3990095D01*
X1986710Y3982980D01*
X1996052Y3978117D01*
X2006335Y3975837D01*
X2016857Y3976296D01*
X2026901Y3979464D01*
X2035784Y3985123D01*
X2042900Y3992888D01*
X2047763Y4002230D01*
X2050043Y4012512D01*
X2049583Y4023035D01*
X2046416Y4033079D01*
X2040757Y4041962D01*
X2032992Y4049078D01*
X2023650Y4053941D01*
X2013367Y4056220D01*
X2002845Y4055761D01*
X1992800Y4052594D01*
X1992223Y4052226D01*
X1972207Y4058464D01*
X1969864Y4060770D01*
X1966222Y4066222D01*
X1958779Y4071195D01*
X1955000Y4071946D01*
D02*
G37*
G36*
X4430000Y3921946D02*
Y3905000D01*
X4446946D01*
X4446194Y3908779D01*
X4441222Y3916222D01*
X4433779Y3921195D01*
X4430000Y3921946D01*
D02*
G37*
G36*
X4420000D02*
X4416221Y3921195D01*
X4408778Y3916222D01*
X4403806Y3908779D01*
X4403054Y3905000D01*
X4420000D01*
Y3921946D01*
D02*
G37*
G36*
X4280000D02*
Y3905000D01*
X4296946D01*
X4296194Y3908779D01*
X4291222Y3916222D01*
X4283779Y3921195D01*
X4280000Y3921946D01*
D02*
G37*
G36*
X4270000D02*
X4266221Y3921195D01*
X4258778Y3916222D01*
X4253806Y3908779D01*
X4253054Y3905000D01*
X4270000D01*
Y3921946D01*
D02*
G37*
G36*
X4130000D02*
Y3905000D01*
X4146946D01*
X4146194Y3908779D01*
X4141222Y3916222D01*
X4133779Y3921195D01*
X4130000Y3921946D01*
D02*
G37*
G36*
X4120000D02*
X4116221Y3921195D01*
X4108778Y3916222D01*
X4103806Y3908779D01*
X4103054Y3905000D01*
X4120000D01*
Y3921946D01*
D02*
G37*
G36*
X3830000D02*
Y3905000D01*
X3846946D01*
X3846195Y3908779D01*
X3841222Y3916222D01*
X3833779Y3921195D01*
X3830000Y3921946D01*
D02*
G37*
G36*
X3820000D02*
X3816221Y3921195D01*
X3808778Y3916222D01*
X3803805Y3908779D01*
X3803054Y3905000D01*
X3820000D01*
Y3921946D01*
D02*
G37*
G36*
X3680000D02*
Y3905000D01*
X3696946D01*
X3696195Y3908779D01*
X3691222Y3916222D01*
X3683779Y3921195D01*
X3680000Y3921946D01*
D02*
G37*
G36*
X3670000D02*
X3666221Y3921195D01*
X3658778Y3916222D01*
X3653805Y3908779D01*
X3653054Y3905000D01*
X3670000D01*
Y3921946D01*
D02*
G37*
G36*
X3530000D02*
Y3905000D01*
X3546946D01*
X3546195Y3908779D01*
X3541222Y3916222D01*
X3533779Y3921195D01*
X3530000Y3921946D01*
D02*
G37*
G36*
X3520000D02*
X3516221Y3921195D01*
X3508778Y3916222D01*
X3503805Y3908779D01*
X3503054Y3905000D01*
X3520000D01*
Y3921946D01*
D02*
G37*
G36*
X3080000D02*
Y3905000D01*
X3096946D01*
X3096195Y3908779D01*
X3091222Y3916222D01*
X3083779Y3921195D01*
X3080000Y3921946D01*
D02*
G37*
G36*
X3070000D02*
X3066221Y3921195D01*
X3058778Y3916222D01*
X3053805Y3908779D01*
X3053054Y3905000D01*
X3070000D01*
Y3921946D01*
D02*
G37*
G36*
X2930000D02*
Y3905000D01*
X2946946D01*
X2946195Y3908779D01*
X2941222Y3916222D01*
X2933779Y3921195D01*
X2930000Y3921946D01*
D02*
G37*
G36*
X2920000D02*
X2916221Y3921195D01*
X2908778Y3916222D01*
X2903805Y3908779D01*
X2903054Y3905000D01*
X2920000D01*
Y3921946D01*
D02*
G37*
G36*
X2780000D02*
Y3905000D01*
X2796946D01*
X2796195Y3908779D01*
X2791222Y3916222D01*
X2783779Y3921195D01*
X2780000Y3921946D01*
D02*
G37*
G36*
X2770000D02*
X2766221Y3921195D01*
X2758778Y3916222D01*
X2753805Y3908779D01*
X2753054Y3905000D01*
X2770000D01*
Y3921946D01*
D02*
G37*
G36*
X2630000D02*
Y3905000D01*
X2646946D01*
X2646195Y3908779D01*
X2641222Y3916222D01*
X2633779Y3921195D01*
X2630000Y3921946D01*
D02*
G37*
G36*
X2620000D02*
X2616221Y3921195D01*
X2608778Y3916222D01*
X2603805Y3908779D01*
X2603054Y3905000D01*
X2620000D01*
Y3921946D01*
D02*
G37*
G36*
X2480000D02*
Y3905000D01*
X2496946D01*
X2496195Y3908779D01*
X2491222Y3916222D01*
X2483779Y3921195D01*
X2480000Y3921946D01*
D02*
G37*
G36*
X2470000D02*
X2466221Y3921195D01*
X2458778Y3916222D01*
X2453805Y3908779D01*
X2453054Y3905000D01*
X2470000D01*
Y3921946D01*
D02*
G37*
G36*
X1880000D02*
Y3905000D01*
X1896946D01*
X1896195Y3908779D01*
X1891222Y3916222D01*
X1883779Y3921195D01*
X1880000Y3921946D01*
D02*
G37*
G36*
X1870000D02*
X1866221Y3921195D01*
X1858778Y3916222D01*
X1853805Y3908779D01*
X1853054Y3905000D01*
X1870000D01*
Y3921946D01*
D02*
G37*
G36*
X4446946Y3895000D02*
X4430000D01*
Y3878054D01*
X4433779Y3878805D01*
X4441222Y3883778D01*
X4446194Y3891221D01*
X4446946Y3895000D01*
D02*
G37*
G36*
X4420000D02*
X4403054D01*
X4403806Y3891221D01*
X4408778Y3883778D01*
X4416221Y3878805D01*
X4420000Y3878054D01*
Y3895000D01*
D02*
G37*
G36*
X4296946D02*
X4280000D01*
Y3878054D01*
X4283779Y3878805D01*
X4291222Y3883778D01*
X4296194Y3891221D01*
X4296946Y3895000D01*
D02*
G37*
G36*
X4270000D02*
X4253054D01*
X4253806Y3891221D01*
X4258778Y3883778D01*
X4266221Y3878805D01*
X4270000Y3878054D01*
Y3895000D01*
D02*
G37*
G36*
X4146946D02*
X4130000D01*
Y3878054D01*
X4133779Y3878805D01*
X4141222Y3883778D01*
X4146194Y3891221D01*
X4146946Y3895000D01*
D02*
G37*
G36*
X4120000D02*
X4103054D01*
X4103806Y3891221D01*
X4108778Y3883778D01*
X4116221Y3878805D01*
X4120000Y3878054D01*
Y3895000D01*
D02*
G37*
G36*
X3846946D02*
X3830000D01*
Y3878054D01*
X3833779Y3878805D01*
X3841222Y3883778D01*
X3846195Y3891221D01*
X3846946Y3895000D01*
D02*
G37*
G36*
X3820000D02*
X3803054D01*
X3803805Y3891221D01*
X3808778Y3883778D01*
X3816221Y3878805D01*
X3820000Y3878054D01*
Y3895000D01*
D02*
G37*
G36*
X3696946D02*
X3680000D01*
Y3878054D01*
X3683779Y3878805D01*
X3691222Y3883778D01*
X3696195Y3891221D01*
X3696946Y3895000D01*
D02*
G37*
G36*
X3670000D02*
X3653054D01*
X3653805Y3891221D01*
X3658778Y3883778D01*
X3666221Y3878805D01*
X3670000Y3878054D01*
Y3895000D01*
D02*
G37*
G36*
X3546946D02*
X3530000D01*
Y3878054D01*
X3533779Y3878805D01*
X3541222Y3883778D01*
X3546195Y3891221D01*
X3546946Y3895000D01*
D02*
G37*
G36*
X3520000D02*
X3503054D01*
X3503805Y3891221D01*
X3508778Y3883778D01*
X3516221Y3878805D01*
X3520000Y3878054D01*
Y3895000D01*
D02*
G37*
G36*
X3096946D02*
X3080000D01*
Y3878054D01*
X3083779Y3878805D01*
X3091222Y3883778D01*
X3096195Y3891221D01*
X3096946Y3895000D01*
D02*
G37*
G36*
X3070000D02*
X3053054D01*
X3053805Y3891221D01*
X3058778Y3883778D01*
X3066221Y3878805D01*
X3070000Y3878054D01*
Y3895000D01*
D02*
G37*
G36*
X2796946D02*
X2780000D01*
Y3878054D01*
X2783779Y3878805D01*
X2791222Y3883778D01*
X2796195Y3891221D01*
X2796946Y3895000D01*
D02*
G37*
G36*
X2770000D02*
X2753054D01*
X2753805Y3891221D01*
X2758778Y3883778D01*
X2766221Y3878805D01*
X2770000Y3878054D01*
Y3895000D01*
D02*
G37*
G36*
X2496946D02*
X2480000D01*
Y3878054D01*
X2483779Y3878805D01*
X2491222Y3883778D01*
X2496195Y3891221D01*
X2496946Y3895000D01*
D02*
G37*
G36*
X2470000D02*
X2453054D01*
X2453805Y3891221D01*
X2458778Y3883778D01*
X2466221Y3878805D01*
X2470000Y3878054D01*
Y3895000D01*
D02*
G37*
G36*
X1896946D02*
X1880000D01*
Y3878054D01*
X1883779Y3878805D01*
X1891222Y3883778D01*
X1896195Y3891221D01*
X1896946Y3895000D01*
D02*
G37*
G36*
X1870000D02*
X1853054D01*
X1853805Y3891221D01*
X1858778Y3883778D01*
X1866221Y3878805D01*
X1870000Y3878054D01*
Y3895000D01*
D02*
G37*
G36*
X4505000Y3771946D02*
Y3755000D01*
X4521946D01*
X4521194Y3758779D01*
X4516222Y3766222D01*
X4508779Y3771195D01*
X4505000Y3771946D01*
D02*
G37*
G36*
X4495000D02*
X4491221Y3771195D01*
X4483778Y3766222D01*
X4478806Y3758779D01*
X4478054Y3755000D01*
X4495000D01*
Y3771946D01*
D02*
G37*
G36*
X4355000D02*
Y3755000D01*
X4371946D01*
X4371194Y3758779D01*
X4366222Y3766222D01*
X4358779Y3771195D01*
X4355000Y3771946D01*
D02*
G37*
G36*
X4345000D02*
X4341221Y3771195D01*
X4333778Y3766222D01*
X4328806Y3758779D01*
X4328054Y3755000D01*
X4345000D01*
Y3771946D01*
D02*
G37*
G36*
X4055000D02*
Y3755000D01*
X4071946D01*
X4071195Y3758779D01*
X4066222Y3766222D01*
X4058779Y3771195D01*
X4055000Y3771946D01*
D02*
G37*
G36*
X4045000D02*
X4041221Y3771195D01*
X4033778Y3766222D01*
X4028805Y3758779D01*
X4028054Y3755000D01*
X4045000D01*
Y3771946D01*
D02*
G37*
G36*
X3755000D02*
Y3755000D01*
X3771946D01*
X3771195Y3758779D01*
X3766222Y3766222D01*
X3758779Y3771195D01*
X3755000Y3771946D01*
D02*
G37*
G36*
X3745000D02*
X3741221Y3771195D01*
X3733778Y3766222D01*
X3728805Y3758779D01*
X3728054Y3755000D01*
X3745000D01*
Y3771946D01*
D02*
G37*
G36*
X3605000D02*
Y3755000D01*
X3621946D01*
X3621195Y3758779D01*
X3616222Y3766222D01*
X3608779Y3771195D01*
X3605000Y3771946D01*
D02*
G37*
G36*
X3595000D02*
X3591221Y3771195D01*
X3583778Y3766222D01*
X3578805Y3758779D01*
X3578054Y3755000D01*
X3595000D01*
Y3771946D01*
D02*
G37*
G36*
X1945000D02*
X1941221Y3771195D01*
X1933778Y3766222D01*
X1928805Y3758779D01*
X1928054Y3755000D01*
X1945000D01*
Y3771946D01*
D02*
G37*
G36*
X1795000D02*
X1791221Y3771195D01*
X1783778Y3766222D01*
X1778805Y3758779D01*
X1778054Y3755000D01*
X1795000D01*
Y3771946D01*
D02*
G37*
G36*
X4521946Y3745000D02*
X4505000D01*
Y3728054D01*
X4508779Y3728805D01*
X4516222Y3733778D01*
X4521194Y3741221D01*
X4521946Y3745000D01*
D02*
G37*
G36*
X4495000D02*
X4478054D01*
X4478806Y3741221D01*
X4483778Y3733778D01*
X4491221Y3728805D01*
X4495000Y3728054D01*
Y3745000D01*
D02*
G37*
G36*
X4371946D02*
X4355000D01*
Y3728054D01*
X4358779Y3728805D01*
X4366222Y3733778D01*
X4371194Y3741221D01*
X4371946Y3745000D01*
D02*
G37*
G36*
X4345000D02*
X4328054D01*
X4328806Y3741221D01*
X4333778Y3733778D01*
X4341221Y3728805D01*
X4345000Y3728054D01*
Y3745000D01*
D02*
G37*
G36*
X4071946D02*
X4055000D01*
Y3728054D01*
X4058779Y3728805D01*
X4066222Y3733778D01*
X4071195Y3741221D01*
X4071946Y3745000D01*
D02*
G37*
G36*
X4045000D02*
X4028054D01*
X4028805Y3741221D01*
X4033778Y3733778D01*
X4041221Y3728805D01*
X4045000Y3728054D01*
Y3745000D01*
D02*
G37*
G36*
X3771946D02*
X3755000D01*
Y3728054D01*
X3758779Y3728805D01*
X3766222Y3733778D01*
X3771195Y3741221D01*
X3771946Y3745000D01*
D02*
G37*
G36*
X3745000D02*
X3728054D01*
X3728805Y3741221D01*
X3733778Y3733778D01*
X3741221Y3728805D01*
X3745000Y3728054D01*
Y3745000D01*
D02*
G37*
G36*
X3621946D02*
X3605000D01*
Y3728054D01*
X3608779Y3728805D01*
X3616222Y3733778D01*
X3621195Y3741221D01*
X3621946Y3745000D01*
D02*
G37*
G36*
X3595000D02*
X3578054D01*
X3578805Y3741221D01*
X3583778Y3733778D01*
X3591221Y3728805D01*
X3595000Y3728054D01*
Y3745000D01*
D02*
G37*
G36*
X3171946D02*
X3155000D01*
Y3728054D01*
X3158779Y3728805D01*
X3166222Y3733778D01*
X3171195Y3741221D01*
X3171946Y3745000D01*
D02*
G37*
G36*
X3145000D02*
X3128054D01*
X3128805Y3741221D01*
X3133778Y3733778D01*
X3141221Y3728805D01*
X3145000Y3728054D01*
Y3745000D01*
D02*
G37*
G36*
X2871946D02*
X2855000D01*
Y3728054D01*
X2858779Y3728805D01*
X2866222Y3733778D01*
X2871195Y3741221D01*
X2871946Y3745000D01*
D02*
G37*
G36*
X2845000D02*
X2828054D01*
X2828805Y3741221D01*
X2833778Y3733778D01*
X2841221Y3728805D01*
X2845000Y3728054D01*
Y3745000D01*
D02*
G37*
G36*
X2721946D02*
X2705000D01*
Y3728054D01*
X2708779Y3728805D01*
X2716222Y3733778D01*
X2721195Y3741221D01*
X2721946Y3745000D01*
D02*
G37*
G36*
X2695000D02*
X2678054D01*
X2678805Y3741221D01*
X2683778Y3733778D01*
X2691221Y3728805D01*
X2695000Y3728054D01*
Y3745000D01*
D02*
G37*
G36*
X2421946D02*
X2405000D01*
Y3728054D01*
X2408779Y3728805D01*
X2416222Y3733778D01*
X2421195Y3741221D01*
X2421946Y3745000D01*
D02*
G37*
G36*
X2395000D02*
X2378054D01*
X2378805Y3741221D01*
X2383778Y3733778D01*
X2391221Y3728805D01*
X2395000Y3728054D01*
Y3745000D01*
D02*
G37*
G36*
X3864997Y3775387D02*
X3849314Y3773843D01*
X3834234Y3769268D01*
X3820336Y3761839D01*
X3808155Y3751842D01*
X3798157Y3739661D01*
X3790729Y3725763D01*
X3786154Y3710683D01*
X3784610Y3695000D01*
X3786154Y3679317D01*
X3790729Y3664237D01*
X3798157Y3650339D01*
X3808155Y3638158D01*
X3808778Y3616222D01*
X3803805Y3608779D01*
X3803054Y3605000D01*
X3825000D01*
Y3600000D01*
X3830000D01*
Y3578054D01*
X3833779Y3578805D01*
X3841222Y3583778D01*
X3846195Y3591221D01*
X3847941Y3600000D01*
X3864486Y3614663D01*
X3864997Y3614613D01*
X3880680Y3616157D01*
X3895760Y3620732D01*
X3909657Y3628161D01*
X3921839Y3638158D01*
X3931836Y3650339D01*
X3939265Y3664237D01*
X3943839Y3679317D01*
X3945384Y3695000D01*
X3943839Y3710683D01*
X3939265Y3725763D01*
X3931836Y3739661D01*
X3921839Y3751842D01*
X3909657Y3761839D01*
X3895760Y3769268D01*
X3880680Y3773843D01*
X3864997Y3775387D01*
D02*
G37*
G36*
X4580000Y3621946D02*
Y3605000D01*
X4596946D01*
X4596194Y3608779D01*
X4591222Y3616222D01*
X4583779Y3621195D01*
X4580000Y3621946D01*
D02*
G37*
G36*
X4570000D02*
X4566221Y3621195D01*
X4558778Y3616222D01*
X4553806Y3608779D01*
X4553054Y3605000D01*
X4570000D01*
Y3621946D01*
D02*
G37*
G36*
X4430000D02*
Y3605000D01*
X4446946D01*
X4446194Y3608779D01*
X4441222Y3616222D01*
X4433779Y3621195D01*
X4430000Y3621946D01*
D02*
G37*
G36*
X4420000D02*
X4416221Y3621195D01*
X4408778Y3616222D01*
X4403806Y3608779D01*
X4403054Y3605000D01*
X4420000D01*
Y3621946D01*
D02*
G37*
G36*
X4130000D02*
Y3605000D01*
X4146946D01*
X4146194Y3608779D01*
X4141222Y3616222D01*
X4133779Y3621195D01*
X4130000Y3621946D01*
D02*
G37*
G36*
X4120000D02*
X4116221Y3621195D01*
X4108778Y3616222D01*
X4103806Y3608779D01*
X4103054Y3605000D01*
X4120000D01*
Y3621946D01*
D02*
G37*
G36*
X3980000D02*
Y3605000D01*
X3996946D01*
X3996195Y3608779D01*
X3991222Y3616222D01*
X3983779Y3621195D01*
X3980000Y3621946D01*
D02*
G37*
G36*
X3970000D02*
X3966221Y3621195D01*
X3958778Y3616222D01*
X3953805Y3608779D01*
X3953054Y3605000D01*
X3970000D01*
Y3621946D01*
D02*
G37*
G36*
X3680000D02*
Y3605000D01*
X3696946D01*
X3696195Y3608779D01*
X3691222Y3616222D01*
X3683779Y3621195D01*
X3680000Y3621946D01*
D02*
G37*
G36*
X3670000D02*
X3666221Y3621195D01*
X3658778Y3616222D01*
X3653805Y3608779D01*
X3653054Y3605000D01*
X3670000D01*
Y3621946D01*
D02*
G37*
G36*
X3530000D02*
Y3605000D01*
X3546946D01*
X3546195Y3608779D01*
X3541222Y3616222D01*
X3533779Y3621195D01*
X3530000Y3621946D01*
D02*
G37*
G36*
X3520000D02*
X3516221Y3621195D01*
X3508778Y3616222D01*
X3503805Y3608779D01*
X3503054Y3605000D01*
X3520000D01*
Y3621946D01*
D02*
G37*
G36*
X3380000D02*
Y3605000D01*
X3396946D01*
X3396195Y3608779D01*
X3391222Y3616222D01*
X3383779Y3621195D01*
X3380000Y3621946D01*
D02*
G37*
G36*
X3370000D02*
X3366221Y3621195D01*
X3358778Y3616222D01*
X3353805Y3608779D01*
X3353054Y3605000D01*
X3370000D01*
Y3621946D01*
D02*
G37*
G36*
X3230000D02*
Y3605000D01*
X3246946D01*
X3246195Y3608779D01*
X3241222Y3616222D01*
X3233779Y3621195D01*
X3230000Y3621946D01*
D02*
G37*
G36*
X3220000D02*
X3216221Y3621195D01*
X3208778Y3616222D01*
X3203805Y3608779D01*
X3203054Y3605000D01*
X3220000D01*
Y3621946D01*
D02*
G37*
G36*
X3080000D02*
Y3605000D01*
X3096946D01*
X3096195Y3608779D01*
X3091222Y3616222D01*
X3083779Y3621195D01*
X3080000Y3621946D01*
D02*
G37*
G36*
X3070000D02*
X3066221Y3621195D01*
X3058778Y3616222D01*
X3053805Y3608779D01*
X3053054Y3605000D01*
X3070000D01*
Y3621946D01*
D02*
G37*
G36*
X2930000D02*
Y3605000D01*
X2946946D01*
X2946195Y3608779D01*
X2941222Y3616222D01*
X2933779Y3621195D01*
X2930000Y3621946D01*
D02*
G37*
G36*
X2920000D02*
X2916221Y3621195D01*
X2908778Y3616222D01*
X2903805Y3608779D01*
X2903054Y3605000D01*
X2920000D01*
Y3621946D01*
D02*
G37*
G36*
X2780000D02*
Y3605000D01*
X2796946D01*
X2796195Y3608779D01*
X2791222Y3616222D01*
X2783779Y3621195D01*
X2780000Y3621946D01*
D02*
G37*
G36*
X2770000D02*
X2766221Y3621195D01*
X2758778Y3616222D01*
X2753805Y3608779D01*
X2753054Y3605000D01*
X2770000D01*
Y3621946D01*
D02*
G37*
G36*
X2630000D02*
Y3605000D01*
X2646946D01*
X2646195Y3608779D01*
X2641222Y3616222D01*
X2633779Y3621195D01*
X2630000Y3621946D01*
D02*
G37*
G36*
X2620000D02*
X2616221Y3621195D01*
X2608778Y3616222D01*
X2603805Y3608779D01*
X2603054Y3605000D01*
X2620000D01*
Y3621946D01*
D02*
G37*
G36*
X2480000D02*
Y3605000D01*
X2496946D01*
X2496195Y3608779D01*
X2491222Y3616222D01*
X2483779Y3621195D01*
X2480000Y3621946D01*
D02*
G37*
G36*
X2470000D02*
X2466221Y3621195D01*
X2458778Y3616222D01*
X2453805Y3608779D01*
X2453054Y3605000D01*
X2470000D01*
Y3621946D01*
D02*
G37*
G36*
X1870000D02*
X1866221Y3621195D01*
X1858778Y3616222D01*
X1853805Y3608779D01*
X1853054Y3605000D01*
X1870000D01*
Y3621946D01*
D02*
G37*
G36*
X1730000D02*
Y3605000D01*
X1746946D01*
X1746195Y3608779D01*
X1741222Y3616222D01*
X1733779Y3621195D01*
X1730000Y3621946D01*
D02*
G37*
G36*
X1720000D02*
X1716221Y3621195D01*
X1708778Y3616222D01*
X1703805Y3608779D01*
X1703054Y3605000D01*
X1720000D01*
Y3621946D01*
D02*
G37*
G36*
X3246946Y3595000D02*
X3230000D01*
Y3578054D01*
X3233779Y3578805D01*
X3241222Y3583778D01*
X3246195Y3591221D01*
X3246946Y3595000D01*
D02*
G37*
G36*
X3220000D02*
X3203054D01*
X3203805Y3591221D01*
X3208778Y3583778D01*
X3216221Y3578805D01*
X3220000Y3578054D01*
Y3595000D01*
D02*
G37*
G36*
X3096946D02*
X3080000D01*
Y3578054D01*
X3083779Y3578805D01*
X3091222Y3583778D01*
X3096195Y3591221D01*
X3096946Y3595000D01*
D02*
G37*
G36*
X3070000D02*
X3053054D01*
X3053805Y3591221D01*
X3058778Y3583778D01*
X3066221Y3578805D01*
X3070000Y3578054D01*
Y3595000D01*
D02*
G37*
G36*
X2946946D02*
X2930000D01*
Y3578054D01*
X2933779Y3578805D01*
X2941222Y3583778D01*
X2946195Y3591221D01*
X2946946Y3595000D01*
D02*
G37*
G36*
X2920000D02*
X2903054D01*
X2903805Y3591221D01*
X2908778Y3583778D01*
X2916221Y3578805D01*
X2920000Y3578054D01*
Y3595000D01*
D02*
G37*
G36*
X2796946D02*
X2780000D01*
Y3578054D01*
X2783779Y3578805D01*
X2791222Y3583778D01*
X2796195Y3591221D01*
X2796946Y3595000D01*
D02*
G37*
G36*
X2770000D02*
X2753054D01*
X2753805Y3591221D01*
X2758778Y3583778D01*
X2766221Y3578805D01*
X2770000Y3578054D01*
Y3595000D01*
D02*
G37*
G36*
X2646946D02*
X2630000D01*
Y3578054D01*
X2633779Y3578805D01*
X2641222Y3583778D01*
X2646195Y3591221D01*
X2646946Y3595000D01*
D02*
G37*
G36*
X2620000D02*
X2603054D01*
X2603805Y3591221D01*
X2608778Y3583778D01*
X2616221Y3578805D01*
X2620000Y3578054D01*
Y3595000D01*
D02*
G37*
G36*
X2496946D02*
X2480000D01*
Y3578054D01*
X2483779Y3578805D01*
X2491222Y3583778D01*
X2496195Y3591221D01*
X2496946Y3595000D01*
D02*
G37*
G36*
X2470000D02*
X2453054D01*
X2453805Y3591221D01*
X2458778Y3583778D01*
X2466221Y3578805D01*
X2470000Y3578054D01*
Y3595000D01*
D02*
G37*
G36*
X1870000D02*
X1853054D01*
X1853805Y3591221D01*
X1858778Y3583778D01*
X1866221Y3578805D01*
X1870000Y3578054D01*
Y3595000D01*
D02*
G37*
G36*
X1746946D02*
X1730000D01*
Y3578054D01*
X1733779Y3578805D01*
X1741222Y3583778D01*
X1746195Y3591221D01*
X1746946Y3595000D01*
D02*
G37*
G36*
X1720000D02*
X1703054D01*
X1703805Y3591221D01*
X1708778Y3583778D01*
X1716221Y3578805D01*
X1720000Y3578054D01*
Y3595000D01*
D02*
G37*
G36*
X4596946D02*
X4580000D01*
Y3578054D01*
X4583779Y3578805D01*
X4591222Y3583778D01*
X4596194Y3591221D01*
X4596946Y3595000D01*
D02*
G37*
G36*
X4570000D02*
X4553054D01*
X4553806Y3591221D01*
X4558778Y3583778D01*
X4566221Y3578805D01*
X4570000Y3578054D01*
Y3595000D01*
D02*
G37*
G36*
X4446946D02*
X4430000D01*
Y3578054D01*
X4433779Y3578805D01*
X4441222Y3583778D01*
X4446194Y3591221D01*
X4446946Y3595000D01*
D02*
G37*
G36*
X4420000D02*
X4403054D01*
X4403806Y3591221D01*
X4408778Y3583778D01*
X4416221Y3578805D01*
X4420000Y3578054D01*
Y3595000D01*
D02*
G37*
G36*
X4146946D02*
X4130000D01*
Y3578054D01*
X4133779Y3578805D01*
X4141222Y3583778D01*
X4146194Y3591221D01*
X4146946Y3595000D01*
D02*
G37*
G36*
X4120000D02*
X4103054D01*
X4103806Y3591221D01*
X4108778Y3583778D01*
X4116221Y3578805D01*
X4120000Y3578054D01*
Y3595000D01*
D02*
G37*
G36*
X3996946D02*
X3980000D01*
Y3578054D01*
X3983779Y3578805D01*
X3991222Y3583778D01*
X3996195Y3591221D01*
X3996946Y3595000D01*
D02*
G37*
G36*
X3970000D02*
X3953054D01*
X3953805Y3591221D01*
X3958778Y3583778D01*
X3966221Y3578805D01*
X3970000Y3578054D01*
Y3595000D01*
D02*
G37*
G36*
X3820000D02*
X3803054D01*
X3803805Y3591221D01*
X3808778Y3583778D01*
X3816221Y3578805D01*
X3820000Y3578054D01*
Y3595000D01*
D02*
G37*
G36*
X3696946D02*
X3680000D01*
Y3578054D01*
X3683779Y3578805D01*
X3691222Y3583778D01*
X3696195Y3591221D01*
X3696946Y3595000D01*
D02*
G37*
G36*
X3670000D02*
X3653054D01*
X3653805Y3591221D01*
X3658778Y3583778D01*
X3666221Y3578805D01*
X3670000Y3578054D01*
Y3595000D01*
D02*
G37*
G36*
X3546946D02*
X3530000D01*
Y3578054D01*
X3533779Y3578805D01*
X3541222Y3583778D01*
X3546195Y3591221D01*
X3546946Y3595000D01*
D02*
G37*
G36*
X3520000D02*
X3503054D01*
X3503805Y3591221D01*
X3508778Y3583778D01*
X3516221Y3578805D01*
X3520000Y3578054D01*
Y3595000D01*
D02*
G37*
G36*
X3396946D02*
X3380000D01*
Y3578054D01*
X3383779Y3578805D01*
X3391222Y3583778D01*
X3396195Y3591221D01*
X3396946Y3595000D01*
D02*
G37*
G36*
X3370000D02*
X3353054D01*
X3353805Y3591221D01*
X3358778Y3583778D01*
X3366221Y3578805D01*
X3370000Y3578054D01*
Y3595000D01*
D02*
G37*
G36*
X4505000Y3471946D02*
Y3455000D01*
X4521946D01*
X4521194Y3458779D01*
X4516222Y3466222D01*
X4508779Y3471195D01*
X4505000Y3471946D01*
D02*
G37*
G36*
X4495000D02*
X4491221Y3471195D01*
X4483778Y3466222D01*
X4478806Y3458779D01*
X4478054Y3455000D01*
X4495000D01*
Y3471946D01*
D02*
G37*
G36*
X4355000D02*
Y3455000D01*
X4371946D01*
X4371194Y3458779D01*
X4366222Y3466222D01*
X4358779Y3471195D01*
X4355000Y3471946D01*
D02*
G37*
G36*
X4345000D02*
X4341221Y3471195D01*
X4333778Y3466222D01*
X4328806Y3458779D01*
X4328054Y3455000D01*
X4345000D01*
Y3471946D01*
D02*
G37*
G36*
X4205000D02*
Y3455000D01*
X4221946D01*
X4221194Y3458779D01*
X4216222Y3466222D01*
X4208779Y3471195D01*
X4205000Y3471946D01*
D02*
G37*
G36*
X4195000D02*
X4191221Y3471195D01*
X4183778Y3466222D01*
X4178806Y3458779D01*
X4178054Y3455000D01*
X4195000D01*
Y3471946D01*
D02*
G37*
G36*
X4055000D02*
Y3455000D01*
X4071946D01*
X4071195Y3458779D01*
X4066222Y3466222D01*
X4058779Y3471195D01*
X4055000Y3471946D01*
D02*
G37*
G36*
X4045000D02*
X4041221Y3471195D01*
X4033778Y3466222D01*
X4028805Y3458779D01*
X4028054Y3455000D01*
X4045000D01*
Y3471946D01*
D02*
G37*
G36*
X3905000D02*
Y3455000D01*
X3921946D01*
X3921195Y3458779D01*
X3916222Y3466222D01*
X3908779Y3471195D01*
X3905000Y3471946D01*
D02*
G37*
G36*
X3895000D02*
X3891221Y3471195D01*
X3883778Y3466222D01*
X3878805Y3458779D01*
X3878054Y3455000D01*
X3895000D01*
Y3471946D01*
D02*
G37*
G36*
X3755000D02*
Y3455000D01*
X3771946D01*
X3771195Y3458779D01*
X3766222Y3466222D01*
X3758779Y3471195D01*
X3755000Y3471946D01*
D02*
G37*
G36*
X3745000D02*
X3741221Y3471195D01*
X3733778Y3466222D01*
X3728805Y3458779D01*
X3728054Y3455000D01*
X3745000D01*
Y3471946D01*
D02*
G37*
G36*
X3605000D02*
Y3455000D01*
X3621946D01*
X3621195Y3458779D01*
X3616222Y3466222D01*
X3608779Y3471195D01*
X3605000Y3471946D01*
D02*
G37*
G36*
X3595000D02*
X3591221Y3471195D01*
X3583778Y3466222D01*
X3578805Y3458779D01*
X3578054Y3455000D01*
X3595000D01*
Y3471946D01*
D02*
G37*
G36*
X2705000D02*
Y3455000D01*
X2721946D01*
X2721195Y3458779D01*
X2716222Y3466222D01*
X2708779Y3471195D01*
X2705000Y3471946D01*
D02*
G37*
G36*
X2695000D02*
X2691221Y3471195D01*
X2683778Y3466222D01*
X2678805Y3458779D01*
X2678054Y3455000D01*
X2695000D01*
Y3471946D01*
D02*
G37*
G36*
X2105000D02*
Y3455000D01*
X2121946D01*
X2121195Y3458779D01*
X2116222Y3466222D01*
X2108779Y3471195D01*
X2105000Y3471946D01*
D02*
G37*
G36*
X2095000D02*
X2091221Y3471195D01*
X2083778Y3466222D01*
X2078805Y3458779D01*
X2078054Y3455000D01*
X2095000D01*
Y3471946D01*
D02*
G37*
G36*
X1955000D02*
Y3455000D01*
X1971946D01*
X1971195Y3458779D01*
X1966222Y3466222D01*
X1958779Y3471195D01*
X1955000Y3471946D01*
D02*
G37*
G36*
X3440000Y3506846D02*
X3431278Y3505987D01*
X3418082Y3501985D01*
X3405922Y3495485D01*
X3395263Y3486737D01*
X3386515Y3476078D01*
X3380015Y3463918D01*
X3376601Y3452662D01*
X3376228Y3451432D01*
X3374511Y3450588D01*
X3356238Y3448951D01*
X3353775Y3450041D01*
X3353506Y3450824D01*
X3350701Y3460072D01*
X3345130Y3470495D01*
X3337632Y3479632D01*
X3328495Y3487130D01*
X3318072Y3492701D01*
X3306762Y3496132D01*
X3300000Y3496798D01*
Y3437000D01*
Y3377202D01*
X3306762Y3377868D01*
X3318072Y3381299D01*
X3328495Y3386870D01*
X3337632Y3394368D01*
X3345130Y3403505D01*
X3350701Y3413928D01*
X3353506Y3423176D01*
X3353775Y3423959D01*
X3356238Y3425049D01*
X3374511Y3423412D01*
X3376228Y3422568D01*
X3376601Y3421338D01*
X3380015Y3410082D01*
X3386515Y3397922D01*
X3395263Y3387263D01*
X3405922Y3378515D01*
X3418082Y3372015D01*
X3431278Y3368013D01*
X3440000Y3367154D01*
Y3437000D01*
Y3506846D01*
D02*
G37*
G36*
X3450000D02*
Y3442000D01*
X3514846D01*
X3513987Y3450722D01*
X3509985Y3463918D01*
X3503485Y3476078D01*
X3494737Y3486737D01*
X3484078Y3495485D01*
X3471918Y3501985D01*
X3458722Y3505987D01*
X3450000Y3506846D01*
D02*
G37*
G36*
X3290000Y3496798D02*
X3283238Y3496132D01*
X3271928Y3492701D01*
X3261505Y3487130D01*
X3252368Y3479632D01*
X3244870Y3470495D01*
X3239299Y3460072D01*
X3235868Y3448762D01*
X3235202Y3442000D01*
X3290000D01*
Y3496798D01*
D02*
G37*
G36*
X4521946Y3445000D02*
X4505000D01*
Y3428054D01*
X4508779Y3428805D01*
X4516222Y3433778D01*
X4521194Y3441221D01*
X4521946Y3445000D01*
D02*
G37*
G36*
X4495000D02*
X4478054D01*
X4478806Y3441221D01*
X4483778Y3433778D01*
X4491221Y3428805D01*
X4495000Y3428054D01*
Y3445000D01*
D02*
G37*
G36*
X4371946D02*
X4355000D01*
Y3428054D01*
X4358779Y3428805D01*
X4366222Y3433778D01*
X4371194Y3441221D01*
X4371946Y3445000D01*
D02*
G37*
G36*
X4345000D02*
X4328054D01*
X4328806Y3441221D01*
X4333778Y3433778D01*
X4341221Y3428805D01*
X4345000Y3428054D01*
Y3445000D01*
D02*
G37*
G36*
X4221946D02*
X4205000D01*
Y3428054D01*
X4208779Y3428805D01*
X4216222Y3433778D01*
X4221194Y3441221D01*
X4221946Y3445000D01*
D02*
G37*
G36*
X4195000D02*
X4178054D01*
X4178806Y3441221D01*
X4183778Y3433778D01*
X4191221Y3428805D01*
X4195000Y3428054D01*
Y3445000D01*
D02*
G37*
G36*
X4071946D02*
X4055000D01*
Y3428054D01*
X4058779Y3428805D01*
X4066222Y3433778D01*
X4071195Y3441221D01*
X4071946Y3445000D01*
D02*
G37*
G36*
X4045000D02*
X4028054D01*
X4028805Y3441221D01*
X4033778Y3433778D01*
X4041221Y3428805D01*
X4045000Y3428054D01*
Y3445000D01*
D02*
G37*
G36*
X3921946D02*
X3905000D01*
Y3428054D01*
X3908779Y3428805D01*
X3916222Y3433778D01*
X3921195Y3441221D01*
X3921946Y3445000D01*
D02*
G37*
G36*
X3895000D02*
X3878054D01*
X3878805Y3441221D01*
X3883778Y3433778D01*
X3891221Y3428805D01*
X3895000Y3428054D01*
Y3445000D01*
D02*
G37*
G36*
X3771946D02*
X3755000D01*
Y3428054D01*
X3758779Y3428805D01*
X3766222Y3433778D01*
X3771195Y3441221D01*
X3771946Y3445000D01*
D02*
G37*
G36*
X3745000D02*
X3728054D01*
X3728805Y3441221D01*
X3733778Y3433778D01*
X3741221Y3428805D01*
X3745000Y3428054D01*
Y3445000D01*
D02*
G37*
G36*
X3621946D02*
X3605000D01*
Y3428054D01*
X3608779Y3428805D01*
X3616222Y3433778D01*
X3621195Y3441221D01*
X3621946Y3445000D01*
D02*
G37*
G36*
X3595000D02*
X3578054D01*
X3578805Y3441221D01*
X3583778Y3433778D01*
X3591221Y3428805D01*
X3595000Y3428054D01*
Y3445000D01*
D02*
G37*
G36*
X2721946D02*
X2705000D01*
Y3428054D01*
X2708779Y3428805D01*
X2716222Y3433778D01*
X2721195Y3441221D01*
X2721946Y3445000D01*
D02*
G37*
G36*
X2695000D02*
X2678054D01*
X2678805Y3441221D01*
X2683778Y3433778D01*
X2691221Y3428805D01*
X2695000Y3428054D01*
Y3445000D01*
D02*
G37*
G36*
X2421946D02*
X2405000D01*
Y3428054D01*
X2408779Y3428805D01*
X2416222Y3433778D01*
X2421195Y3441221D01*
X2421946Y3445000D01*
D02*
G37*
G36*
X2334997Y3605387D02*
X2319314Y3603843D01*
X2304234Y3599268D01*
X2290336Y3591839D01*
X2278155Y3581842D01*
X2268157Y3569661D01*
X2260729Y3555763D01*
X2256154Y3540683D01*
X2254610Y3525000D01*
X2256154Y3509317D01*
X2260729Y3494237D01*
X2262546Y3490837D01*
X2250000Y3472941D01*
X2241221Y3471195D01*
X2233778Y3466222D01*
X2228805Y3458779D01*
X2228054Y3455000D01*
X2250000D01*
Y3450000D01*
X2255000D01*
Y3428054D01*
X2258779Y3428805D01*
X2266222Y3433778D01*
X2271195Y3441221D01*
X2272353Y3447046D01*
X2283913Y3454391D01*
X2291873Y3457339D01*
X2304234Y3450732D01*
X2319314Y3446157D01*
X2334997Y3444613D01*
X2350680Y3446157D01*
X2357890Y3448345D01*
X2378806Y3441221D01*
X2383778Y3433778D01*
X2391221Y3428805D01*
X2395000Y3428054D01*
Y3450000D01*
X2400000D01*
Y3455000D01*
X2421946D01*
X2421195Y3458779D01*
X2416222Y3466222D01*
X2416158Y3466264D01*
X2408680Y3473613D01*
X2407937Y3491754D01*
X2409265Y3494237D01*
X2413839Y3509317D01*
X2415384Y3525000D01*
X2413839Y3540683D01*
X2409265Y3555763D01*
X2401836Y3569661D01*
X2391839Y3581842D01*
X2379657Y3591839D01*
X2365760Y3599268D01*
X2350680Y3603843D01*
X2334997Y3605387D01*
D02*
G37*
G36*
X2245000Y3445000D02*
X2228054D01*
X2228805Y3441221D01*
X2233778Y3433778D01*
X2241221Y3428805D01*
X2245000Y3428054D01*
Y3445000D01*
D02*
G37*
G36*
X2121946D02*
X2105000D01*
Y3428054D01*
X2108779Y3428805D01*
X2116222Y3433778D01*
X2121195Y3441221D01*
X2121946Y3445000D01*
D02*
G37*
G36*
X2095000D02*
X2078054D01*
X2078805Y3441221D01*
X2083778Y3433778D01*
X2091221Y3428805D01*
X2095000Y3428054D01*
Y3445000D01*
D02*
G37*
G36*
X1971946D02*
X1955000D01*
Y3428054D01*
X1958779Y3428805D01*
X1966222Y3433778D01*
X1971195Y3441221D01*
X1971946Y3445000D01*
D02*
G37*
G36*
X3145000Y3492475D02*
X3130642Y3490584D01*
X3117263Y3485042D01*
X3105773Y3476227D01*
X3096958Y3464737D01*
X3091416Y3451358D01*
X3089525Y3437000D01*
X3091416Y3422642D01*
X3096958Y3409263D01*
X3105773Y3397773D01*
X3117263Y3388958D01*
X3130642Y3383416D01*
X3145000Y3381525D01*
X3159358Y3383416D01*
X3172737Y3388958D01*
X3184227Y3397773D01*
X3193042Y3409263D01*
X3198584Y3422642D01*
X3200475Y3437000D01*
X3198584Y3451358D01*
X3193042Y3464737D01*
X3184227Y3476227D01*
X3172737Y3485042D01*
X3159358Y3490584D01*
X3145000Y3492475D01*
D02*
G37*
G36*
X2995000D02*
X2980642Y3490584D01*
X2967263Y3485042D01*
X2955773Y3476227D01*
X2946958Y3464737D01*
X2941416Y3451358D01*
X2939525Y3437000D01*
X2941416Y3422642D01*
X2946958Y3409263D01*
X2955773Y3397773D01*
X2967263Y3388958D01*
X2980642Y3383416D01*
X2995000Y3381525D01*
X3009358Y3383416D01*
X3022737Y3388958D01*
X3034227Y3397773D01*
X3043042Y3409263D01*
X3048584Y3422642D01*
X3050475Y3437000D01*
X3048584Y3451358D01*
X3043042Y3464737D01*
X3034227Y3476227D01*
X3022737Y3485042D01*
X3009358Y3490584D01*
X2995000Y3492475D01*
D02*
G37*
G36*
X3290000Y3432000D02*
X3235202D01*
X3235868Y3425238D01*
X3239299Y3413928D01*
X3244870Y3403505D01*
X3252368Y3394368D01*
X3261505Y3386870D01*
X3271928Y3381299D01*
X3283238Y3377868D01*
X3290000Y3377202D01*
Y3432000D01*
D02*
G37*
G36*
X2845000Y3502314D02*
X2832258Y3501059D01*
X2820005Y3497343D01*
X2808713Y3491307D01*
X2798816Y3483184D01*
X2790693Y3473287D01*
X2784657Y3461995D01*
X2780941Y3449742D01*
X2779686Y3437000D01*
X2780941Y3424258D01*
X2784657Y3412005D01*
X2790693Y3400713D01*
X2798816Y3390816D01*
X2808713Y3382693D01*
X2820005Y3376657D01*
X2832258Y3372941D01*
X2845000Y3371686D01*
X2857742Y3372941D01*
X2869995Y3376657D01*
X2881287Y3382693D01*
X2891184Y3390816D01*
X2899307Y3400713D01*
X2905343Y3412005D01*
X2909059Y3424258D01*
X2910314Y3437000D01*
X2909059Y3449742D01*
X2905343Y3461995D01*
X2899307Y3473287D01*
X2891184Y3483184D01*
X2881287Y3491307D01*
X2869995Y3497343D01*
X2857742Y3501059D01*
X2845000Y3502314D01*
D02*
G37*
G36*
X3514846Y3432000D02*
X3450000D01*
Y3367154D01*
X3458722Y3368013D01*
X3471918Y3372015D01*
X3484078Y3378515D01*
X3494737Y3387263D01*
X3503485Y3397922D01*
X3509985Y3410082D01*
X3513987Y3423278D01*
X3514846Y3432000D01*
D02*
G37*
G36*
X1863504Y3384250D02*
X1859367Y3383705D01*
X1850853Y3380179D01*
X1843542Y3374569D01*
X1837931Y3367257D01*
X1834405Y3358743D01*
X1833860Y3354606D01*
X1863504D01*
Y3384250D01*
D02*
G37*
G36*
X4248554Y3399802D02*
X4009606D01*
X4005704Y3399026D01*
X4002397Y3396816D01*
X3557790Y2952210D01*
X3555580Y2948902D01*
X3554804Y2945000D01*
Y2729223D01*
X3490777Y2665196D01*
X3399410D01*
X3393809Y2677906D01*
X3392169Y2685196D01*
X3396195Y2691221D01*
X3396946Y2695000D01*
X3353054D01*
X3353805Y2691221D01*
X3357831Y2685196D01*
X3356191Y2677906D01*
X3350590Y2665196D01*
X3348000D01*
X3344098Y2664420D01*
X3340790Y2662210D01*
X3304678Y2626098D01*
X3298484Y2628663D01*
X3290000Y2629780D01*
X3281516Y2628663D01*
X3273610Y2625389D01*
X3266821Y2620179D01*
X3261611Y2613390D01*
X3258337Y2605484D01*
X3257220Y2597000D01*
X3258337Y2588516D01*
X3261611Y2580610D01*
X3266821Y2573821D01*
X3273610Y2568611D01*
X3278805Y2558779D01*
X3278054Y2555000D01*
X3321946D01*
X3321195Y2558779D01*
X3316222Y2566222D01*
X3318389Y2580610D01*
X3321663Y2588516D01*
X3322780Y2597000D01*
X3321663Y2605484D01*
X3319098Y2611678D01*
X3340652Y2633233D01*
X3344616Y2632309D01*
X3348491Y2627277D01*
X3354568Y2609452D01*
X3353465Y2606789D01*
X3352835Y2602000D01*
X3390000D01*
Y2597000D01*
D01*
Y2602000D01*
X3427165D01*
X3426535Y2606789D01*
X3422756Y2615912D01*
X3416745Y2623745D01*
X3415365Y2624804D01*
X3422155Y2644804D01*
X3495000D01*
X3498902Y2645580D01*
X3502210Y2647790D01*
X3572210Y2717790D01*
X3574420Y2721098D01*
X3575196Y2725000D01*
Y2815459D01*
X3581369Y2820600D01*
X3595000Y2827910D01*
Y2850000D01*
Y2872090D01*
X3581369Y2879400D01*
X3575196Y2884541D01*
Y2940777D01*
X3932922Y3298503D01*
X3953805Y3291221D01*
X3958778Y3283778D01*
X3966221Y3278805D01*
X3970000Y3278054D01*
Y3300000D01*
X3975000D01*
Y3305000D01*
X3996946D01*
X3996195Y3308779D01*
X3991222Y3316222D01*
X3983779Y3321195D01*
X3976497Y3342078D01*
X4013830Y3379410D01*
X4175667D01*
X4177636Y3359410D01*
X4175704Y3359026D01*
X4172397Y3356816D01*
X3647790Y2832210D01*
X3645580Y2828902D01*
X3644804Y2825000D01*
Y2623829D01*
X3491171Y2470196D01*
X3432206D01*
X3429450Y2472207D01*
X3419392Y2488895D01*
X3419363Y2490196D01*
X3420259Y2497000D01*
X3419228Y2504832D01*
X3416205Y2512129D01*
X3411396Y2518396D01*
X3405129Y2523205D01*
X3397832Y2526228D01*
X3390000Y2527259D01*
X3382168Y2526228D01*
X3374871Y2523205D01*
X3368604Y2518396D01*
X3363795Y2512129D01*
X3360772Y2504832D01*
X3360086Y2499622D01*
X3339914D01*
X3339228Y2504832D01*
X3336205Y2512129D01*
X3331396Y2518396D01*
X3329261Y2520035D01*
X3324793Y2524744D01*
X3321195Y2541221D01*
X3321604Y2543279D01*
X3321946Y2545000D01*
X3278054D01*
X3278805Y2541221D01*
X3283778Y2533778D01*
X3283790Y2518088D01*
X3277706Y2510501D01*
X3259476Y2511882D01*
X3254821Y2513934D01*
X3251396Y2518396D01*
X3245129Y2523205D01*
X3237832Y2526228D01*
X3230000Y2527259D01*
X3222168Y2526228D01*
X3214871Y2523205D01*
X3208604Y2518396D01*
X3203795Y2512129D01*
X3200772Y2504832D01*
X3199741Y2497000D01*
X3200772Y2489168D01*
X3203795Y2481871D01*
X3208604Y2475604D01*
X3214871Y2470795D01*
X3222168Y2467772D01*
X3230000Y2466741D01*
X3237832Y2467772D01*
X3242765Y2469816D01*
X3265714Y2446867D01*
X3263704Y2435167D01*
X3259269Y2425027D01*
X3254871Y2423205D01*
X3248604Y2418396D01*
X3244210Y2412670D01*
X3243795Y2412129D01*
X3243795Y2412129D01*
X3243003Y2410218D01*
X3242480Y2409393D01*
X3230000Y2405309D01*
X3217520Y2409393D01*
X3216997Y2410218D01*
X3216205Y2412129D01*
X3216205Y2412129D01*
X3215790Y2412670D01*
X3211396Y2418396D01*
X3205129Y2423205D01*
X3197832Y2426228D01*
X3190000Y2427259D01*
X3182168Y2426228D01*
X3174871Y2423205D01*
X3168604Y2418396D01*
X3164210Y2412670D01*
X3163795Y2412129D01*
X3163795Y2412129D01*
X3163003Y2410218D01*
X3162480Y2409393D01*
X3150000Y2405309D01*
X3137520Y2409393D01*
X3136997Y2410218D01*
X3136205Y2412129D01*
X3136205Y2412129D01*
X3135790Y2412670D01*
X3131396Y2418396D01*
X3125129Y2423205D01*
X3117832Y2426228D01*
X3116338Y2426425D01*
X3108781Y2442494D01*
X3108436Y2446807D01*
X3135814Y2474186D01*
X3139130Y2479147D01*
X3140294Y2485000D01*
Y2840398D01*
X3145000Y2844525D01*
X3159358Y2846416D01*
X3172737Y2851958D01*
X3184227Y2860773D01*
X3193042Y2872263D01*
X3198197Y2884706D01*
X3275443D01*
X3281014Y2872352D01*
X3282766Y2864706D01*
X3278805Y2858779D01*
X3278054Y2855000D01*
X3321946D01*
X3321195Y2858779D01*
X3317234Y2864706D01*
X3318986Y2872352D01*
X3324557Y2884706D01*
X3391803D01*
X3396958Y2872263D01*
X3405773Y2860773D01*
X3417263Y2851958D01*
X3430642Y2846416D01*
X3445000Y2844525D01*
X3459358Y2846416D01*
X3472737Y2851958D01*
X3484227Y2860773D01*
X3493042Y2872263D01*
X3498584Y2885642D01*
X3500475Y2900000D01*
X3498584Y2914358D01*
X3493042Y2927737D01*
X3484227Y2939227D01*
X3472737Y2948042D01*
X3459358Y2953584D01*
X3445000Y2955475D01*
X3430642Y2953584D01*
X3417263Y2948042D01*
X3405773Y2939227D01*
X3396958Y2927737D01*
X3391803Y2915294D01*
X3198197D01*
X3193042Y2927737D01*
X3184227Y2939227D01*
X3172737Y2948042D01*
X3159358Y2953584D01*
X3145000Y2955475D01*
X3130642Y2953584D01*
X3117263Y2948042D01*
X3105773Y2939227D01*
X3096958Y2927737D01*
X3091416Y2914358D01*
X3090868Y2910196D01*
X2989223D01*
X2939209Y2960211D01*
X2938654Y2962109D01*
X2941222Y2983778D01*
X2946195Y2991221D01*
X2946946Y2995000D01*
X2925000D01*
Y3000000D01*
X2920000D01*
Y3021946D01*
X2916221Y3021195D01*
X2908778Y3016222D01*
X2907771Y3015673D01*
X2888902Y3009420D01*
X2885000Y3010196D01*
X2675000D01*
X2671098Y3009420D01*
X2667790Y3007210D01*
X2667046Y3006466D01*
X2658489Y3007415D01*
X2644144Y3011848D01*
X2641222Y3016222D01*
X2633779Y3021195D01*
X2630000Y3021946D01*
Y3000000D01*
X2625000D01*
Y2995000D01*
X2603054D01*
X2603805Y2991221D01*
X2608778Y2983778D01*
X2613152Y2980856D01*
X2617585Y2966511D01*
X2618534Y2957954D01*
X2583896Y2923315D01*
X2580129Y2926205D01*
X2572832Y2929228D01*
X2565000Y2930259D01*
X2557168Y2929228D01*
X2549871Y2926205D01*
X2543604Y2921396D01*
X2538795Y2915129D01*
X2535772Y2907832D01*
X2534741Y2900000D01*
X2535772Y2892168D01*
X2536548Y2890295D01*
X2538313Y2883080D01*
X2533778Y2866222D01*
X2528805Y2858779D01*
X2528054Y2855000D01*
X2572824D01*
X2572827Y2861523D01*
X2580130Y2873795D01*
X2586396Y2878604D01*
X2591205Y2884871D01*
X2594228Y2892168D01*
X2595259Y2900000D01*
X2594580Y2905160D01*
X2679223Y2989804D01*
X2880777D01*
X2977790Y2892790D01*
X2981098Y2890580D01*
X2985000Y2889804D01*
X2989205Y2871209D01*
X2989140Y2869804D01*
X2983778Y2866222D01*
X2978805Y2858779D01*
X2978054Y2855000D01*
X3021946D01*
X3021195Y2858779D01*
X3016222Y2866222D01*
X3022275Y2886231D01*
X3025006Y2889804D01*
X3090868D01*
X3091416Y2885642D01*
X3096958Y2872263D01*
X3105773Y2860773D01*
X3109706Y2857756D01*
Y2724557D01*
X3097352Y2718986D01*
X3089706Y2717234D01*
X3083779Y2721195D01*
X3080000Y2721946D01*
Y2700000D01*
Y2678054D01*
X3083779Y2678805D01*
X3089706Y2682766D01*
X3097352Y2681014D01*
X3109706Y2675443D01*
Y2527388D01*
X3096944Y2521121D01*
X3089706Y2519693D01*
X3085129Y2523205D01*
X3077832Y2526228D01*
X3070000Y2527259D01*
X3062168Y2526228D01*
X3054871Y2523205D01*
X3048604Y2518396D01*
X3045179Y2513933D01*
X3042494Y2512030D01*
X3022294Y2510501D01*
X3016210Y2518088D01*
X3016220Y2531812D01*
X3017749Y2536064D01*
X3021195Y2541221D01*
X3021946Y2545000D01*
X2978054D01*
X2978570Y2542405D01*
X2975157Y2524691D01*
X2970739Y2520035D01*
X2968604Y2518396D01*
X2964210Y2512670D01*
X2963795Y2512129D01*
X2963795Y2512129D01*
X2963003Y2510218D01*
X2962480Y2509393D01*
X2950000Y2505309D01*
X2937520Y2509393D01*
X2936997Y2510218D01*
X2936205Y2512129D01*
X2936205Y2512129D01*
X2935790Y2512670D01*
X2931396Y2518396D01*
X2925129Y2523205D01*
X2917832Y2526228D01*
X2910000Y2527259D01*
X2902168Y2526228D01*
X2894871Y2523205D01*
X2888604Y2518396D01*
X2883795Y2512129D01*
X2880772Y2504832D01*
X2879741Y2497000D01*
X2880772Y2489168D01*
X2883795Y2481871D01*
X2888604Y2475604D01*
X2894871Y2470795D01*
X2902168Y2467772D01*
X2910000Y2466741D01*
X2917832Y2467772D01*
X2925129Y2470795D01*
X2931396Y2475604D01*
X2935790Y2481330D01*
X2936205Y2481871D01*
X2936205Y2481871D01*
X2936997Y2483782D01*
X2937520Y2484607D01*
X2950000Y2488691D01*
X2962480Y2484607D01*
X2963003Y2483782D01*
X2963795Y2481871D01*
X2963795Y2481871D01*
X2964210Y2481330D01*
X2968604Y2475604D01*
X2974871Y2470795D01*
X2982168Y2467772D01*
X2990000Y2466741D01*
X2997832Y2467772D01*
X3005129Y2470795D01*
X3011396Y2475604D01*
X3015790Y2481330D01*
X3016205Y2481871D01*
X3016205Y2481871D01*
X3017310Y2484539D01*
X3030000Y2488691D01*
X3042378Y2484641D01*
X3042872Y2483989D01*
X3043003Y2483782D01*
X3043795Y2481871D01*
X3043795Y2481871D01*
X3044210Y2481330D01*
X3048604Y2475604D01*
X3054871Y2470795D01*
X3059121Y2469034D01*
X3063679Y2458505D01*
X3065528Y2447157D01*
X3059186Y2440814D01*
X3057778Y2438709D01*
X3055123Y2435454D01*
X3040394Y2427595D01*
X3034706Y2426639D01*
X3030000Y2427259D01*
X3022168Y2426228D01*
X3014871Y2423205D01*
X3008604Y2418396D01*
X3004210Y2412670D01*
X3003795Y2412129D01*
X3003795Y2412129D01*
X3003003Y2410218D01*
X3002480Y2409393D01*
X2990000Y2405309D01*
X2977520Y2409393D01*
X2976997Y2410218D01*
X2976205Y2412129D01*
X2976205Y2412129D01*
X2975790Y2412670D01*
X2971396Y2418396D01*
X2965129Y2423205D01*
X2957832Y2426228D01*
X2950000Y2427259D01*
X2942168Y2426228D01*
X2934871Y2423205D01*
X2928604Y2418396D01*
X2923795Y2412129D01*
X2920772Y2404832D01*
X2919741Y2397000D01*
X2920772Y2389168D01*
X2923795Y2381871D01*
X2928604Y2375604D01*
X2934871Y2370795D01*
X2942168Y2367772D01*
X2950000Y2366741D01*
X2957832Y2367772D01*
X2965129Y2370795D01*
X2971396Y2375604D01*
X2975790Y2381330D01*
X2976205Y2381871D01*
X2976205Y2381871D01*
X2976997Y2383782D01*
X2977520Y2384607D01*
X2990000Y2388691D01*
X3002480Y2384607D01*
X3003003Y2383782D01*
X3003795Y2381871D01*
X3003795Y2381871D01*
X3004210Y2381330D01*
X3008604Y2375604D01*
X3014871Y2370795D01*
X3022168Y2367772D01*
X3030000Y2366741D01*
X3034706Y2367361D01*
X3041970Y2364454D01*
X3054697Y2354248D01*
X3054706Y2354232D01*
Y2310000D01*
X3055870Y2304147D01*
X3059186Y2299186D01*
X3216691Y2141680D01*
X3216542Y2135199D01*
X3211828Y2118259D01*
X3208778Y2116222D01*
X3203805Y2108779D01*
X3203054Y2105000D01*
X3225000D01*
Y2100000D01*
X3230000D01*
Y2078054D01*
X3233779Y2078805D01*
X3241222Y2083778D01*
X3245304Y2089888D01*
X3246195Y2091221D01*
X3246198Y2091225D01*
X3256090Y2102415D01*
X3267198Y2105706D01*
X3347073D01*
X3350387Y2101387D01*
X3350857Y2101026D01*
Y2079974D01*
X3350387Y2079613D01*
X3345979Y2073869D01*
X3343208Y2067179D01*
X3342263Y2060000D01*
X3343208Y2052821D01*
X3345979Y2046131D01*
X3350387Y2040387D01*
X3356131Y2035979D01*
X3362821Y2033208D01*
X3370000Y2032263D01*
X3377179Y2033208D01*
X3383869Y2035979D01*
X3389613Y2040387D01*
X3394021Y2046131D01*
X3396792Y2052821D01*
X3397737Y2060000D01*
X3396792Y2067179D01*
X3394021Y2073869D01*
X3389613Y2079613D01*
X3389143Y2079974D01*
Y2101026D01*
X3389613Y2101387D01*
X3394021Y2107131D01*
X3396792Y2113821D01*
X3397737Y2121000D01*
X3396792Y2128179D01*
X3394021Y2134869D01*
X3389613Y2140613D01*
X3383869Y2145021D01*
X3377179Y2147792D01*
X3370000Y2148737D01*
X3362821Y2147792D01*
X3356131Y2145021D01*
X3350387Y2140613D01*
X3347073Y2136294D01*
X3265335D01*
X3085294Y2316335D01*
Y2354232D01*
X3085303Y2354248D01*
X3098030Y2364454D01*
X3105294Y2367361D01*
X3110000Y2366741D01*
X3117832Y2367772D01*
X3125129Y2370795D01*
X3131396Y2375604D01*
X3135790Y2381330D01*
X3136205Y2381871D01*
X3136205Y2381871D01*
X3136997Y2383782D01*
X3137520Y2384607D01*
X3150000Y2388691D01*
X3162480Y2384607D01*
X3163003Y2383782D01*
X3163795Y2381871D01*
X3163795Y2381871D01*
X3164210Y2381330D01*
X3168604Y2375604D01*
X3174871Y2370795D01*
X3182168Y2367772D01*
X3190000Y2366741D01*
X3197832Y2367772D01*
X3205129Y2370795D01*
X3211396Y2375604D01*
X3215790Y2381330D01*
X3216205Y2381871D01*
X3216205Y2381871D01*
X3216997Y2383782D01*
X3217520Y2384607D01*
X3230000Y2388691D01*
X3242480Y2384607D01*
X3243003Y2383782D01*
X3243795Y2381871D01*
X3243795Y2381871D01*
X3244210Y2381330D01*
X3248604Y2375604D01*
X3254871Y2370795D01*
X3262168Y2367772D01*
X3270000Y2366741D01*
X3277832Y2367772D01*
X3285129Y2370795D01*
X3291396Y2375604D01*
X3295790Y2381330D01*
X3296205Y2381871D01*
X3296205Y2381871D01*
X3297310Y2384539D01*
X3310000Y2388691D01*
X3322690Y2384539D01*
X3323795Y2381871D01*
X3323795Y2381871D01*
X3324210Y2381330D01*
X3328604Y2375604D01*
X3334871Y2370795D01*
X3342168Y2367772D01*
X3350000Y2366741D01*
X3357832Y2367772D01*
X3365129Y2370795D01*
X3371396Y2375604D01*
X3376205Y2381871D01*
X3379228Y2389168D01*
X3380259Y2397000D01*
X3379228Y2404832D01*
X3377168Y2409804D01*
X3380457Y2418581D01*
X3387852Y2429804D01*
X3495631D01*
X3496042Y2429380D01*
X3504801Y2410269D01*
X3503805Y2408779D01*
X3503054Y2405000D01*
X3546946D01*
X3546195Y2408779D01*
X3541222Y2416222D01*
X3533779Y2421195D01*
X3528605Y2422224D01*
X3522694Y2433032D01*
X3520543Y2442446D01*
X3687210Y2609112D01*
X3689420Y2612420D01*
X3690196Y2616322D01*
Y2800777D01*
X4128830Y3239410D01*
X4202460D01*
X4204504Y3234477D01*
X4209312Y3228210D01*
X4215579Y3223401D01*
X4222877Y3220378D01*
X4230709Y3219347D01*
X4238540Y3220378D01*
X4245838Y3223401D01*
X4252105Y3228210D01*
X4256914Y3234477D01*
X4259937Y3241775D01*
X4260968Y3249606D01*
X4259937Y3257438D01*
X4256914Y3264736D01*
X4252105Y3271003D01*
X4245838Y3275811D01*
X4238540Y3278834D01*
X4230709Y3279865D01*
X4222877Y3278834D01*
X4215579Y3275811D01*
X4209312Y3271003D01*
X4204504Y3264736D01*
X4202460Y3259802D01*
X4132506D01*
X4123949Y3279530D01*
X4183830Y3339410D01*
X4202460D01*
X4204504Y3334477D01*
X4209312Y3328210D01*
X4215579Y3323401D01*
X4222877Y3320378D01*
X4230709Y3319347D01*
X4238540Y3320378D01*
X4245838Y3323401D01*
X4265119Y3313796D01*
Y3305000D01*
X4265895Y3301098D01*
X4268105Y3297790D01*
X4303524Y3262371D01*
X4301481Y3257438D01*
X4300450Y3249606D01*
X4301481Y3241775D01*
X4304504Y3234477D01*
X4309312Y3228210D01*
X4315579Y3223401D01*
X4322877Y3220378D01*
X4330709Y3219347D01*
X4338540Y3220378D01*
X4345838Y3223401D01*
X4352105Y3228210D01*
X4356914Y3234477D01*
X4359937Y3241775D01*
X4360968Y3249606D01*
X4359937Y3257438D01*
X4356914Y3264736D01*
X4352105Y3271003D01*
X4345838Y3275811D01*
X4338540Y3278834D01*
X4330709Y3279865D01*
X4322877Y3278834D01*
X4317944Y3276791D01*
X4293165Y3301569D01*
X4294433Y3310581D01*
X4300078Y3315063D01*
X4316112Y3321110D01*
X4317877Y3320378D01*
X4325709Y3319347D01*
X4333540Y3320378D01*
X4340838Y3323401D01*
X4347105Y3328210D01*
X4351914Y3334477D01*
X4354937Y3341775D01*
X4355968Y3349606D01*
X4354937Y3357438D01*
X4351914Y3364736D01*
X4347105Y3371003D01*
X4340838Y3375811D01*
X4333540Y3378834D01*
X4325709Y3379865D01*
X4317877Y3378834D01*
X4310579Y3375811D01*
X4304312Y3371003D01*
X4304207Y3370865D01*
X4297923Y3369536D01*
X4285685Y3369948D01*
X4280781Y3371798D01*
X4255764Y3396816D01*
X4252456Y3399026D01*
X4248554Y3399802D01*
D02*
G37*
G36*
X4580000Y3321946D02*
Y3305000D01*
X4596946D01*
X4596194Y3308779D01*
X4591222Y3316222D01*
X4583779Y3321195D01*
X4580000Y3321946D01*
D02*
G37*
G36*
X4570000D02*
X4566221Y3321195D01*
X4558778Y3316222D01*
X4553806Y3308779D01*
X4553054Y3305000D01*
X4570000D01*
Y3321946D01*
D02*
G37*
G36*
X3830000D02*
Y3305000D01*
X3846946D01*
X3846195Y3308779D01*
X3841222Y3316222D01*
X3833779Y3321195D01*
X3830000Y3321946D01*
D02*
G37*
G36*
X3820000D02*
X3816221Y3321195D01*
X3808778Y3316222D01*
X3803805Y3308779D01*
X3803054Y3305000D01*
X3820000D01*
Y3321946D01*
D02*
G37*
G36*
X3680000D02*
Y3305000D01*
X3696946D01*
X3696195Y3308779D01*
X3691222Y3316222D01*
X3683779Y3321195D01*
X3680000Y3321946D01*
D02*
G37*
G36*
X3670000D02*
X3666221Y3321195D01*
X3658778Y3316222D01*
X3653805Y3308779D01*
X3653054Y3305000D01*
X3670000D01*
Y3321946D01*
D02*
G37*
G36*
X3530000D02*
Y3305000D01*
X3546946D01*
X3546195Y3308779D01*
X3541222Y3316222D01*
X3533779Y3321195D01*
X3530000Y3321946D01*
D02*
G37*
G36*
X3520000D02*
X3516221Y3321195D01*
X3508778Y3316222D01*
X3503805Y3308779D01*
X3503054Y3305000D01*
X3520000D01*
Y3321946D01*
D02*
G37*
G36*
X3380000D02*
Y3305000D01*
X3396946D01*
X3396195Y3308779D01*
X3391222Y3316222D01*
X3383779Y3321195D01*
X3380000Y3321946D01*
D02*
G37*
G36*
X3370000D02*
X3366221Y3321195D01*
X3358778Y3316222D01*
X3353805Y3308779D01*
X3353054Y3305000D01*
X3370000D01*
Y3321946D01*
D02*
G37*
G36*
X3230000D02*
Y3305000D01*
X3246946D01*
X3246195Y3308779D01*
X3241222Y3316222D01*
X3233779Y3321195D01*
X3230000Y3321946D01*
D02*
G37*
G36*
X3220000D02*
X3216221Y3321195D01*
X3208778Y3316222D01*
X3203805Y3308779D01*
X3203054Y3305000D01*
X3220000D01*
Y3321946D01*
D02*
G37*
G36*
X3080000D02*
Y3305000D01*
X3096946D01*
X3096195Y3308779D01*
X3091222Y3316222D01*
X3083779Y3321195D01*
X3080000Y3321946D01*
D02*
G37*
G36*
X3070000D02*
X3066221Y3321195D01*
X3058778Y3316222D01*
X3053805Y3308779D01*
X3053054Y3305000D01*
X3070000D01*
Y3321946D01*
D02*
G37*
G36*
X2930000D02*
Y3305000D01*
X2946946D01*
X2946195Y3308779D01*
X2941222Y3316222D01*
X2933779Y3321195D01*
X2930000Y3321946D01*
D02*
G37*
G36*
X2920000D02*
X2916221Y3321195D01*
X2908778Y3316222D01*
X2903805Y3308779D01*
X2903054Y3305000D01*
X2920000D01*
Y3321946D01*
D02*
G37*
G36*
X2780000D02*
Y3305000D01*
X2796946D01*
X2796195Y3308779D01*
X2791222Y3316222D01*
X2783779Y3321195D01*
X2780000Y3321946D01*
D02*
G37*
G36*
X2770000D02*
X2766221Y3321195D01*
X2758778Y3316222D01*
X2753805Y3308779D01*
X2753054Y3305000D01*
X2770000D01*
Y3321946D01*
D02*
G37*
G36*
X2480000D02*
Y3305000D01*
X2496946D01*
X2496195Y3308779D01*
X2491222Y3316222D01*
X2483779Y3321195D01*
X2480000Y3321946D01*
D02*
G37*
G36*
X2470000D02*
X2466221Y3321195D01*
X2458778Y3316222D01*
X2453805Y3308779D01*
X2453054Y3305000D01*
X2470000D01*
Y3321946D01*
D02*
G37*
G36*
X2180000D02*
Y3305000D01*
X2196946D01*
X2196195Y3308779D01*
X2191222Y3316222D01*
X2183779Y3321195D01*
X2180000Y3321946D01*
D02*
G37*
G36*
X2170000D02*
X2166221Y3321195D01*
X2158778Y3316222D01*
X2153805Y3308779D01*
X2153054Y3305000D01*
X2170000D01*
Y3321946D01*
D02*
G37*
G36*
X1730000D02*
Y3305000D01*
X1746946D01*
X1746195Y3308779D01*
X1741222Y3316222D01*
X1733779Y3321195D01*
X1730000Y3321946D01*
D02*
G37*
G36*
X1720000D02*
X1716221Y3321195D01*
X1708778Y3316222D01*
X1703805Y3308779D01*
X1703054Y3305000D01*
X1720000D01*
Y3321946D01*
D02*
G37*
G36*
X4596946Y3295000D02*
X4580000D01*
Y3278054D01*
X4583779Y3278805D01*
X4591222Y3283778D01*
X4596194Y3291221D01*
X4596946Y3295000D01*
D02*
G37*
G36*
X4570000D02*
X4553054D01*
X4553806Y3291221D01*
X4558778Y3283778D01*
X4566221Y3278805D01*
X4570000Y3278054D01*
Y3295000D01*
D02*
G37*
G36*
X3996946D02*
X3980000D01*
Y3278054D01*
X3983779Y3278805D01*
X3991222Y3283778D01*
X3996195Y3291221D01*
X3996946Y3295000D01*
D02*
G37*
G36*
X3846946D02*
X3830000D01*
Y3278054D01*
X3833779Y3278805D01*
X3841222Y3283778D01*
X3846195Y3291221D01*
X3846946Y3295000D01*
D02*
G37*
G36*
X3820000D02*
X3803054D01*
X3803805Y3291221D01*
X3808778Y3283778D01*
X3816221Y3278805D01*
X3820000Y3278054D01*
Y3295000D01*
D02*
G37*
G36*
X3696946D02*
X3680000D01*
Y3278054D01*
X3683779Y3278805D01*
X3691222Y3283778D01*
X3696195Y3291221D01*
X3696946Y3295000D01*
D02*
G37*
G36*
X3670000D02*
X3653054D01*
X3653805Y3291221D01*
X3658778Y3283778D01*
X3666221Y3278805D01*
X3670000Y3278054D01*
Y3295000D01*
D02*
G37*
G36*
X3546946D02*
X3530000D01*
Y3278054D01*
X3533779Y3278805D01*
X3541222Y3283778D01*
X3546195Y3291221D01*
X3546946Y3295000D01*
D02*
G37*
G36*
X3520000D02*
X3503054D01*
X3503805Y3291221D01*
X3508778Y3283778D01*
X3516221Y3278805D01*
X3520000Y3278054D01*
Y3295000D01*
D02*
G37*
G36*
X3396946D02*
X3380000D01*
Y3278054D01*
X3383779Y3278805D01*
X3391222Y3283778D01*
X3396195Y3291221D01*
X3396946Y3295000D01*
D02*
G37*
G36*
X3370000D02*
X3353054D01*
X3353805Y3291221D01*
X3358778Y3283778D01*
X3366221Y3278805D01*
X3370000Y3278054D01*
Y3295000D01*
D02*
G37*
G36*
X3246946D02*
X3230000D01*
Y3278054D01*
X3233779Y3278805D01*
X3241222Y3283778D01*
X3246195Y3291221D01*
X3246946Y3295000D01*
D02*
G37*
G36*
X3220000D02*
X3203054D01*
X3203805Y3291221D01*
X3208778Y3283778D01*
X3216221Y3278805D01*
X3220000Y3278054D01*
Y3295000D01*
D02*
G37*
G36*
X3096946D02*
X3080000D01*
Y3278054D01*
X3083779Y3278805D01*
X3091222Y3283778D01*
X3096195Y3291221D01*
X3096946Y3295000D01*
D02*
G37*
G36*
X3070000D02*
X3053054D01*
X3053805Y3291221D01*
X3058778Y3283778D01*
X3066221Y3278805D01*
X3070000Y3278054D01*
Y3295000D01*
D02*
G37*
G36*
X2946946D02*
X2930000D01*
Y3278054D01*
X2933779Y3278805D01*
X2941222Y3283778D01*
X2946195Y3291221D01*
X2946946Y3295000D01*
D02*
G37*
G36*
X2920000D02*
X2903054D01*
X2903805Y3291221D01*
X2908778Y3283778D01*
X2916221Y3278805D01*
X2920000Y3278054D01*
Y3295000D01*
D02*
G37*
G36*
X2796946D02*
X2780000D01*
Y3278054D01*
X2783779Y3278805D01*
X2791222Y3283778D01*
X2796195Y3291221D01*
X2796946Y3295000D01*
D02*
G37*
G36*
X2770000D02*
X2753054D01*
X2753805Y3291221D01*
X2758778Y3283778D01*
X2766221Y3278805D01*
X2770000Y3278054D01*
Y3295000D01*
D02*
G37*
G36*
X2496946D02*
X2480000D01*
Y3278054D01*
X2483779Y3278805D01*
X2491222Y3283778D01*
X2496195Y3291221D01*
X2496946Y3295000D01*
D02*
G37*
G36*
X2470000D02*
X2453054D01*
X2453805Y3291221D01*
X2458778Y3283778D01*
X2466221Y3278805D01*
X2470000Y3278054D01*
Y3295000D01*
D02*
G37*
G36*
X2196946D02*
X2180000D01*
Y3278054D01*
X2183779Y3278805D01*
X2191222Y3283778D01*
X2196195Y3291221D01*
X2196946Y3295000D01*
D02*
G37*
G36*
X2170000D02*
X2153054D01*
X2153805Y3291221D01*
X2158778Y3283778D01*
X2166221Y3278805D01*
X2170000Y3278054D01*
Y3295000D01*
D02*
G37*
G36*
X1746946D02*
X1730000D01*
Y3278054D01*
X1733779Y3278805D01*
X1741222Y3283778D01*
X1746195Y3291221D01*
X1746946Y3295000D01*
D02*
G37*
G36*
X1720000D02*
X1703054D01*
X1703805Y3291221D01*
X1708778Y3283778D01*
X1716221Y3278805D01*
X1720000Y3278054D01*
Y3295000D01*
D02*
G37*
G36*
X1863504Y3244606D02*
X1833860D01*
X1834405Y3240470D01*
X1837931Y3231955D01*
X1843542Y3224644D01*
X1850853Y3219034D01*
X1859367Y3215507D01*
X1863504Y3214963D01*
Y3244606D01*
D02*
G37*
G36*
X2235000Y3240259D02*
X2227168Y3239228D01*
X2219871Y3236205D01*
X2213604Y3231396D01*
X2208795Y3225129D01*
X2205772Y3217832D01*
X2204741Y3210000D01*
X2205772Y3202168D01*
X2207816Y3197235D01*
X2072790Y3062210D01*
X2070580Y3058902D01*
X2069804Y3055000D01*
Y2864921D01*
X2037599D01*
Y2699410D01*
X2122401D01*
Y2864921D01*
X2090196D01*
Y3050777D01*
X2222235Y3182816D01*
X2227168Y3180772D01*
X2235000Y3179741D01*
X2242832Y3180772D01*
X2250129Y3183795D01*
X2256396Y3188604D01*
X2261205Y3194871D01*
X2264228Y3202168D01*
X2265259Y3210000D01*
X2264228Y3217832D01*
X2261205Y3225129D01*
X2256396Y3231396D01*
X2250129Y3236205D01*
X2242832Y3239228D01*
X2235000Y3240259D01*
D02*
G37*
G36*
X4505000Y3171946D02*
Y3155000D01*
X4521946D01*
X4521194Y3158779D01*
X4516222Y3166222D01*
X4508779Y3171195D01*
X4505000Y3171946D01*
D02*
G37*
G36*
X4495000D02*
X4491221Y3171195D01*
X4483778Y3166222D01*
X4478806Y3158779D01*
X4478054Y3155000D01*
X4495000D01*
Y3171946D01*
D02*
G37*
G36*
X3905000D02*
Y3155000D01*
X3921946D01*
X3921195Y3158779D01*
X3916222Y3166222D01*
X3908779Y3171195D01*
X3905000Y3171946D01*
D02*
G37*
G36*
X3895000D02*
X3891221Y3171195D01*
X3883778Y3166222D01*
X3878805Y3158779D01*
X3878054Y3155000D01*
X3895000D01*
Y3171946D01*
D02*
G37*
G36*
X3605000D02*
Y3155000D01*
X3621946D01*
X3621195Y3158779D01*
X3616222Y3166222D01*
X3608779Y3171195D01*
X3605000Y3171946D01*
D02*
G37*
G36*
X3595000D02*
X3591221Y3171195D01*
X3583778Y3166222D01*
X3578805Y3158779D01*
X3578054Y3155000D01*
X3595000D01*
Y3171946D01*
D02*
G37*
G36*
X3455000D02*
Y3155000D01*
X3471946D01*
X3471195Y3158779D01*
X3466222Y3166222D01*
X3458779Y3171195D01*
X3455000Y3171946D01*
D02*
G37*
G36*
X3445000D02*
X3441221Y3171195D01*
X3433778Y3166222D01*
X3428805Y3158779D01*
X3428054Y3155000D01*
X3445000D01*
Y3171946D01*
D02*
G37*
G36*
X3305000D02*
Y3155000D01*
X3321946D01*
X3321195Y3158779D01*
X3316222Y3166222D01*
X3308779Y3171195D01*
X3305000Y3171946D01*
D02*
G37*
G36*
X3295000D02*
X3291221Y3171195D01*
X3283778Y3166222D01*
X3278805Y3158779D01*
X3278054Y3155000D01*
X3295000D01*
Y3171946D01*
D02*
G37*
G36*
X3155000D02*
Y3155000D01*
X3171946D01*
X3171195Y3158779D01*
X3166222Y3166222D01*
X3158779Y3171195D01*
X3155000Y3171946D01*
D02*
G37*
G36*
X3145000D02*
X3141221Y3171195D01*
X3133778Y3166222D01*
X3128805Y3158779D01*
X3128054Y3155000D01*
X3145000D01*
Y3171946D01*
D02*
G37*
G36*
X3005000D02*
Y3155000D01*
X3021946D01*
X3021195Y3158779D01*
X3016222Y3166222D01*
X3008779Y3171195D01*
X3005000Y3171946D01*
D02*
G37*
G36*
X2995000D02*
X2991221Y3171195D01*
X2983778Y3166222D01*
X2978805Y3158779D01*
X2978054Y3155000D01*
X2995000D01*
Y3171946D01*
D02*
G37*
G36*
X2855000D02*
Y3155000D01*
X2871946D01*
X2871195Y3158779D01*
X2866222Y3166222D01*
X2858779Y3171195D01*
X2855000Y3171946D01*
D02*
G37*
G36*
X2845000D02*
X2841221Y3171195D01*
X2833778Y3166222D01*
X2828805Y3158779D01*
X2828054Y3155000D01*
X2845000D01*
Y3171946D01*
D02*
G37*
G36*
X2705000D02*
Y3155000D01*
X2721946D01*
X2721195Y3158779D01*
X2716222Y3166222D01*
X2708779Y3171195D01*
X2705000Y3171946D01*
D02*
G37*
G36*
X2695000D02*
X2691221Y3171195D01*
X2683778Y3166222D01*
X2678805Y3158779D01*
X2678054Y3155000D01*
X2695000D01*
Y3171946D01*
D02*
G37*
G36*
X2405000D02*
Y3155000D01*
X2421946D01*
X2421195Y3158779D01*
X2416222Y3166222D01*
X2408779Y3171195D01*
X2405000Y3171946D01*
D02*
G37*
G36*
X2395000D02*
X2391221Y3171195D01*
X2383778Y3166222D01*
X2378805Y3158779D01*
X2378054Y3155000D01*
X2395000D01*
Y3171946D01*
D02*
G37*
G36*
X2105000D02*
Y3155000D01*
X2121946D01*
X2121195Y3158779D01*
X2116222Y3166222D01*
X2108779Y3171195D01*
X2105000Y3171946D01*
D02*
G37*
G36*
X2095000D02*
X2091221Y3171195D01*
X2083778Y3166222D01*
X2078805Y3158779D01*
X2078054Y3155000D01*
X2095000D01*
Y3171946D01*
D02*
G37*
G36*
X1655000D02*
Y3155000D01*
X1671946D01*
X1671195Y3158779D01*
X1666222Y3166222D01*
X1658779Y3171195D01*
X1655000Y3171946D01*
D02*
G37*
G36*
X1645000D02*
X1641221Y3171195D01*
X1633778Y3166222D01*
X1628805Y3158779D01*
X1628054Y3155000D01*
X1645000D01*
Y3171946D01*
D02*
G37*
G36*
X4521946Y3145000D02*
X4505000D01*
Y3128054D01*
X4508779Y3128805D01*
X4516222Y3133778D01*
X4521194Y3141221D01*
X4521946Y3145000D01*
D02*
G37*
G36*
X4495000D02*
X4478054D01*
X4478806Y3141221D01*
X4483778Y3133778D01*
X4491221Y3128805D01*
X4495000Y3128054D01*
Y3145000D01*
D02*
G37*
G36*
X3921946D02*
X3905000D01*
Y3128054D01*
X3908779Y3128805D01*
X3916222Y3133778D01*
X3921195Y3141221D01*
X3921946Y3145000D01*
D02*
G37*
G36*
X3895000D02*
X3878054D01*
X3878805Y3141221D01*
X3883778Y3133778D01*
X3891221Y3128805D01*
X3895000Y3128054D01*
Y3145000D01*
D02*
G37*
G36*
X3621946D02*
X3605000D01*
Y3128054D01*
X3608779Y3128805D01*
X3616222Y3133778D01*
X3621195Y3141221D01*
X3621946Y3145000D01*
D02*
G37*
G36*
X3595000D02*
X3578054D01*
X3578805Y3141221D01*
X3583778Y3133778D01*
X3591221Y3128805D01*
X3595000Y3128054D01*
Y3145000D01*
D02*
G37*
G36*
X3471946D02*
X3455000D01*
Y3128054D01*
X3458779Y3128805D01*
X3466222Y3133778D01*
X3471195Y3141221D01*
X3471946Y3145000D01*
D02*
G37*
G36*
X3445000D02*
X3428054D01*
X3428805Y3141221D01*
X3433778Y3133778D01*
X3441221Y3128805D01*
X3445000Y3128054D01*
Y3145000D01*
D02*
G37*
G36*
X3321946D02*
X3305000D01*
Y3128054D01*
X3308779Y3128805D01*
X3316222Y3133778D01*
X3321195Y3141221D01*
X3321946Y3145000D01*
D02*
G37*
G36*
X3295000D02*
X3278054D01*
X3278805Y3141221D01*
X3283778Y3133778D01*
X3291221Y3128805D01*
X3295000Y3128054D01*
Y3145000D01*
D02*
G37*
G36*
X3171946D02*
X3155000D01*
Y3128054D01*
X3158779Y3128805D01*
X3166222Y3133778D01*
X3171195Y3141221D01*
X3171946Y3145000D01*
D02*
G37*
G36*
X3145000D02*
X3128054D01*
X3128805Y3141221D01*
X3133778Y3133778D01*
X3141221Y3128805D01*
X3145000Y3128054D01*
Y3145000D01*
D02*
G37*
G36*
X3021946D02*
X3005000D01*
Y3128054D01*
X3008779Y3128805D01*
X3016222Y3133778D01*
X3021195Y3141221D01*
X3021946Y3145000D01*
D02*
G37*
G36*
X2995000D02*
X2978054D01*
X2978805Y3141221D01*
X2983778Y3133778D01*
X2991221Y3128805D01*
X2995000Y3128054D01*
Y3145000D01*
D02*
G37*
G36*
X2871946D02*
X2855000D01*
Y3128054D01*
X2858779Y3128805D01*
X2866222Y3133778D01*
X2871195Y3141221D01*
X2871946Y3145000D01*
D02*
G37*
G36*
X2845000D02*
X2828054D01*
X2828805Y3141221D01*
X2833778Y3133778D01*
X2841221Y3128805D01*
X2845000Y3128054D01*
Y3145000D01*
D02*
G37*
G36*
X2721946D02*
X2705000D01*
Y3128054D01*
X2708779Y3128805D01*
X2716222Y3133778D01*
X2721195Y3141221D01*
X2721946Y3145000D01*
D02*
G37*
G36*
X2695000D02*
X2678054D01*
X2678805Y3141221D01*
X2683778Y3133778D01*
X2691221Y3128805D01*
X2695000Y3128054D01*
Y3145000D01*
D02*
G37*
G36*
X2421946D02*
X2405000D01*
Y3128054D01*
X2408779Y3128805D01*
X2416222Y3133778D01*
X2421195Y3141221D01*
X2421946Y3145000D01*
D02*
G37*
G36*
X2395000D02*
X2378054D01*
X2378805Y3141221D01*
X2383778Y3133778D01*
X2391221Y3128805D01*
X2395000Y3128054D01*
Y3145000D01*
D02*
G37*
G36*
X2121946D02*
X2105000D01*
Y3128054D01*
X2108779Y3128805D01*
X2116222Y3133778D01*
X2121195Y3141221D01*
X2121946Y3145000D01*
D02*
G37*
G36*
X2095000D02*
X2078054D01*
X2078805Y3141221D01*
X2083778Y3133778D01*
X2091221Y3128805D01*
X2095000Y3128054D01*
Y3145000D01*
D02*
G37*
G36*
X1671946D02*
X1655000D01*
Y3128054D01*
X1658779Y3128805D01*
X1666222Y3133778D01*
X1671195Y3141221D01*
X1671946Y3145000D01*
D02*
G37*
G36*
X1645000D02*
X1628054D01*
X1628805Y3141221D01*
X1633778Y3133778D01*
X1641221Y3128805D01*
X1645000Y3128054D01*
Y3145000D01*
D02*
G37*
G36*
X4230709Y3079865D02*
X4222877Y3078834D01*
X4215579Y3075811D01*
X4209312Y3071003D01*
X4204504Y3064736D01*
X4201481Y3057438D01*
X4200450Y3049606D01*
X4201481Y3041775D01*
X4203524Y3036841D01*
X4166805Y3000121D01*
X4146358Y3007959D01*
X4146194Y3008779D01*
X4141222Y3016222D01*
X4133779Y3021195D01*
X4130000Y3021946D01*
Y3000000D01*
X4125000D01*
Y2995000D01*
X4103054D01*
X4103806Y2991221D01*
X4108778Y2983778D01*
X4116221Y2978805D01*
X4117041Y2978642D01*
X4124879Y2958195D01*
X4074572Y2907889D01*
X4072362Y2904581D01*
X4071586Y2900679D01*
Y2886691D01*
X4068525Y2882988D01*
X4055000Y2874714D01*
Y2850000D01*
Y2825286D01*
X4068525Y2817012D01*
X4071586Y2813309D01*
Y2731005D01*
X3997790Y2657210D01*
X3995580Y2653902D01*
X3994804Y2650000D01*
Y2437841D01*
X3992693Y2434653D01*
X3980000Y2426251D01*
Y2400000D01*
Y2373749D01*
X3992693Y2365347D01*
X3994804Y2362159D01*
Y2188307D01*
X3944882D01*
Y2091693D01*
X4065118D01*
Y2188307D01*
X4015196D01*
Y2525590D01*
X4027906Y2531191D01*
X4035196Y2532831D01*
X4041221Y2528805D01*
X4045000Y2528054D01*
Y2550000D01*
Y2571946D01*
X4041221Y2571195D01*
X4035196Y2567169D01*
X4027906Y2568809D01*
X4015196Y2574410D01*
Y2645777D01*
X4080477Y2711058D01*
X4086646Y2717227D01*
X4094555Y2713333D01*
X4102667Y2705896D01*
X4102575Y2705000D01*
X4120000D01*
Y2721946D01*
X4116221Y2721195D01*
X4113461Y2719351D01*
X4113461Y2719351D01*
X4109796Y2718184D01*
X4092430Y2729152D01*
X4091978Y2732512D01*
X4091977Y2732517D01*
X4091977Y2735398D01*
Y2896456D01*
X4217944Y3022422D01*
X4222877Y3020378D01*
X4230709Y3019347D01*
X4238540Y3020378D01*
X4245838Y3023401D01*
X4252105Y3028210D01*
X4256914Y3034477D01*
X4259937Y3041775D01*
X4260968Y3049606D01*
X4259937Y3057438D01*
X4256914Y3064736D01*
X4252105Y3071003D01*
X4245838Y3075811D01*
X4238540Y3078834D01*
X4230709Y3079865D01*
D02*
G37*
G36*
X4580000Y3021946D02*
Y3005000D01*
X4596946D01*
X4596194Y3008779D01*
X4591222Y3016222D01*
X4583779Y3021195D01*
X4580000Y3021946D01*
D02*
G37*
G36*
X4570000D02*
X4566221Y3021195D01*
X4558778Y3016222D01*
X4553806Y3008779D01*
X4553054Y3005000D01*
X4570000D01*
Y3021946D01*
D02*
G37*
G36*
X4430000D02*
Y3005000D01*
X4446946D01*
X4446194Y3008779D01*
X4441222Y3016222D01*
X4433779Y3021195D01*
X4430000Y3021946D01*
D02*
G37*
G36*
X4420000D02*
X4416221Y3021195D01*
X4408778Y3016222D01*
X4403806Y3008779D01*
X4403054Y3005000D01*
X4420000D01*
Y3021946D01*
D02*
G37*
G36*
X4120000D02*
X4116221Y3021195D01*
X4108778Y3016222D01*
X4103806Y3008779D01*
X4103054Y3005000D01*
X4120000D01*
Y3021946D01*
D02*
G37*
G36*
X3980000D02*
Y3005000D01*
X3996946D01*
X3996195Y3008779D01*
X3991222Y3016222D01*
X3983779Y3021195D01*
X3980000Y3021946D01*
D02*
G37*
G36*
X3970000D02*
X3966221Y3021195D01*
X3958778Y3016222D01*
X3953805Y3008779D01*
X3953054Y3005000D01*
X3970000D01*
Y3021946D01*
D02*
G37*
G36*
X3530000D02*
Y3005000D01*
X3546946D01*
X3546195Y3008779D01*
X3541222Y3016222D01*
X3533779Y3021195D01*
X3530000Y3021946D01*
D02*
G37*
G36*
X3520000D02*
X3516221Y3021195D01*
X3508778Y3016222D01*
X3503805Y3008779D01*
X3503054Y3005000D01*
X3520000D01*
Y3021946D01*
D02*
G37*
G36*
X3380000D02*
Y3005000D01*
X3396946D01*
X3396195Y3008779D01*
X3391222Y3016222D01*
X3383779Y3021195D01*
X3380000Y3021946D01*
D02*
G37*
G36*
X3370000D02*
X3366221Y3021195D01*
X3358778Y3016222D01*
X3353805Y3008779D01*
X3353054Y3005000D01*
X3370000D01*
Y3021946D01*
D02*
G37*
G36*
X3230000D02*
Y3005000D01*
X3246946D01*
X3246195Y3008779D01*
X3241222Y3016222D01*
X3233779Y3021195D01*
X3230000Y3021946D01*
D02*
G37*
G36*
X3220000D02*
X3216221Y3021195D01*
X3208778Y3016222D01*
X3203805Y3008779D01*
X3203054Y3005000D01*
X3220000D01*
Y3021946D01*
D02*
G37*
G36*
X2930000D02*
Y3005000D01*
X2946946D01*
X2946195Y3008779D01*
X2941222Y3016222D01*
X2933779Y3021195D01*
X2930000Y3021946D01*
D02*
G37*
G36*
X2620000D02*
X2616221Y3021195D01*
X2608778Y3016222D01*
X2603805Y3008779D01*
X2603054Y3005000D01*
X2620000D01*
Y3021946D01*
D02*
G37*
G36*
X2480000D02*
Y3005000D01*
X2496946D01*
X2496195Y3008779D01*
X2491222Y3016222D01*
X2483779Y3021195D01*
X2480000Y3021946D01*
D02*
G37*
G36*
X2470000D02*
X2466221Y3021195D01*
X2458778Y3016222D01*
X2453805Y3008779D01*
X2453054Y3005000D01*
X2470000D01*
Y3021946D01*
D02*
G37*
G36*
X2180000D02*
Y3005000D01*
X2196946D01*
X2196195Y3008779D01*
X2191222Y3016222D01*
X2183779Y3021195D01*
X2180000Y3021946D01*
D02*
G37*
G36*
X2170000D02*
X2166221Y3021195D01*
X2158778Y3016222D01*
X2153805Y3008779D01*
X2153054Y3005000D01*
X2170000D01*
Y3021946D01*
D02*
G37*
G36*
X2030000D02*
Y3005000D01*
X2046946D01*
X2046195Y3008779D01*
X2041222Y3016222D01*
X2033779Y3021195D01*
X2030000Y3021946D01*
D02*
G37*
G36*
X2020000D02*
X2016221Y3021195D01*
X2008778Y3016222D01*
X2003805Y3008779D01*
X2003054Y3005000D01*
X2020000D01*
Y3021946D01*
D02*
G37*
G36*
X1730000D02*
Y3005000D01*
X1746946D01*
X1746195Y3008779D01*
X1741222Y3016222D01*
X1733779Y3021195D01*
X1730000Y3021946D01*
D02*
G37*
G36*
X1720000D02*
X1716221Y3021195D01*
X1708778Y3016222D01*
X1703805Y3008779D01*
X1703054Y3005000D01*
X1720000D01*
Y3021946D01*
D02*
G37*
G36*
X4596946Y2995000D02*
X4580000D01*
Y2978054D01*
X4583779Y2978805D01*
X4591222Y2983778D01*
X4596194Y2991221D01*
X4596946Y2995000D01*
D02*
G37*
G36*
X4570000D02*
X4553054D01*
X4553806Y2991221D01*
X4558778Y2983778D01*
X4566221Y2978805D01*
X4570000Y2978054D01*
Y2995000D01*
D02*
G37*
G36*
X4446946D02*
X4430000D01*
Y2978054D01*
X4433779Y2978805D01*
X4441222Y2983778D01*
X4446194Y2991221D01*
X4446946Y2995000D01*
D02*
G37*
G36*
X4420000D02*
X4403054D01*
X4403806Y2991221D01*
X4408778Y2983778D01*
X4416221Y2978805D01*
X4420000Y2978054D01*
Y2995000D01*
D02*
G37*
G36*
X3996946D02*
X3980000D01*
Y2978054D01*
X3983779Y2978805D01*
X3991222Y2983778D01*
X3996195Y2991221D01*
X3996946Y2995000D01*
D02*
G37*
G36*
X3970000D02*
X3953054D01*
X3953805Y2991221D01*
X3958778Y2983778D01*
X3966221Y2978805D01*
X3970000Y2978054D01*
Y2995000D01*
D02*
G37*
G36*
X3546946D02*
X3530000D01*
Y2978054D01*
X3533779Y2978805D01*
X3541222Y2983778D01*
X3546195Y2991221D01*
X3546946Y2995000D01*
D02*
G37*
G36*
X3520000D02*
X3503054D01*
X3503805Y2991221D01*
X3508778Y2983778D01*
X3516221Y2978805D01*
X3520000Y2978054D01*
Y2995000D01*
D02*
G37*
G36*
X3396946D02*
X3380000D01*
Y2978054D01*
X3383779Y2978805D01*
X3391222Y2983778D01*
X3396195Y2991221D01*
X3396946Y2995000D01*
D02*
G37*
G36*
X3370000D02*
X3353054D01*
X3353805Y2991221D01*
X3358778Y2983778D01*
X3366221Y2978805D01*
X3370000Y2978054D01*
Y2995000D01*
D02*
G37*
G36*
X3246946D02*
X3230000D01*
Y2978054D01*
X3233779Y2978805D01*
X3241222Y2983778D01*
X3246195Y2991221D01*
X3246946Y2995000D01*
D02*
G37*
G36*
X3220000D02*
X3203054D01*
X3203805Y2991221D01*
X3208778Y2983778D01*
X3216221Y2978805D01*
X3220000Y2978054D01*
Y2995000D01*
D02*
G37*
G36*
X2496946D02*
X2480000D01*
Y2978054D01*
X2483779Y2978805D01*
X2491222Y2983778D01*
X2496195Y2991221D01*
X2496946Y2995000D01*
D02*
G37*
G36*
X2470000D02*
X2453054D01*
X2453805Y2991221D01*
X2458778Y2983778D01*
X2466221Y2978805D01*
X2470000Y2978054D01*
Y2995000D01*
D02*
G37*
G36*
X2196946D02*
X2180000D01*
Y2978054D01*
X2183779Y2978805D01*
X2191222Y2983778D01*
X2196195Y2991221D01*
X2196946Y2995000D01*
D02*
G37*
G36*
X2170000D02*
X2153054D01*
X2153805Y2991221D01*
X2158778Y2983778D01*
X2166221Y2978805D01*
X2170000Y2978054D01*
Y2995000D01*
D02*
G37*
G36*
X2046946D02*
X2030000D01*
Y2978054D01*
X2033779Y2978805D01*
X2041222Y2983778D01*
X2046195Y2991221D01*
X2046946Y2995000D01*
D02*
G37*
G36*
X2020000D02*
X2003054D01*
X2003805Y2991221D01*
X2008778Y2983778D01*
X2016221Y2978805D01*
X2020000Y2978054D01*
Y2995000D01*
D02*
G37*
G36*
X1746946D02*
X1730000D01*
Y2978054D01*
X1733779Y2978805D01*
X1741222Y2983778D01*
X1746195Y2991221D01*
X1746946Y2995000D01*
D02*
G37*
G36*
X1720000D02*
X1703054D01*
X1703805Y2991221D01*
X1708778Y2983778D01*
X1716221Y2978805D01*
X1720000Y2978054D01*
Y2995000D01*
D02*
G37*
G36*
X4330709Y2979865D02*
X4322877Y2978834D01*
X4315579Y2975811D01*
X4309312Y2971003D01*
X4304504Y2964736D01*
X4301481Y2957438D01*
X4300450Y2949606D01*
X4301481Y2941775D01*
X4304504Y2934477D01*
X4309312Y2928210D01*
X4315579Y2923401D01*
X4322877Y2920378D01*
X4330709Y2919347D01*
X4338540Y2920378D01*
X4345838Y2923401D01*
X4352105Y2928210D01*
X4356914Y2934477D01*
X4359937Y2941775D01*
X4360968Y2949606D01*
X4359937Y2957438D01*
X4356914Y2964736D01*
X4352105Y2971003D01*
X4345838Y2975811D01*
X4338540Y2978834D01*
X4330709Y2979865D01*
D02*
G37*
G36*
X1968504D02*
X1960672Y2978834D01*
X1953374Y2975811D01*
X1947108Y2971003D01*
X1942299Y2964736D01*
X1939276Y2957438D01*
X1938245Y2949606D01*
X1939276Y2941775D01*
X1942299Y2934477D01*
X1947108Y2928210D01*
X1953374Y2923401D01*
X1960672Y2920378D01*
X1968504Y2919347D01*
X1976335Y2920378D01*
X1983633Y2923401D01*
X1989900Y2928210D01*
X1994709Y2934477D01*
X1997732Y2941775D01*
X1998763Y2949606D01*
X1997732Y2957438D01*
X1994709Y2964736D01*
X1989900Y2971003D01*
X1983633Y2975811D01*
X1976335Y2978834D01*
X1968504Y2979865D01*
D02*
G37*
G36*
X4505000Y2871946D02*
Y2855000D01*
X4521946D01*
X4521194Y2858779D01*
X4516222Y2866222D01*
X4508779Y2871195D01*
X4505000Y2871946D01*
D02*
G37*
G36*
X4495000D02*
X4491221Y2871195D01*
X4483778Y2866222D01*
X4478806Y2858779D01*
X4478054Y2855000D01*
X4495000D01*
Y2871946D01*
D02*
G37*
G36*
X4195000D02*
X4191221Y2871195D01*
X4183778Y2866222D01*
X4178806Y2858779D01*
X4178054Y2855000D01*
X4195000D01*
Y2871946D01*
D02*
G37*
G36*
X4045000D02*
X4041221Y2871195D01*
X4033778Y2866222D01*
X4028805Y2858779D01*
X4028054Y2855000D01*
X4045000D01*
Y2871946D01*
D02*
G37*
G36*
X3905000D02*
Y2855000D01*
X3921946D01*
X3921195Y2858779D01*
X3916222Y2866222D01*
X3908779Y2871195D01*
X3905000Y2871946D01*
D02*
G37*
G36*
X3895000D02*
X3891221Y2871195D01*
X3883778Y2866222D01*
X3878805Y2858779D01*
X3878054Y2855000D01*
X3895000D01*
Y2871946D01*
D02*
G37*
G36*
X3605000D02*
Y2855000D01*
X3621946D01*
X3621195Y2858779D01*
X3616222Y2866222D01*
X3608779Y2871195D01*
X3605000Y2871946D01*
D02*
G37*
G36*
X2705000D02*
Y2855000D01*
X2721946D01*
X2721195Y2858779D01*
X2716222Y2866222D01*
X2708779Y2871195D01*
X2705000Y2871946D01*
D02*
G37*
G36*
X2695000D02*
X2691221Y2871195D01*
X2683778Y2866222D01*
X2678805Y2858779D01*
X2678054Y2855000D01*
X2695000D01*
Y2871946D01*
D02*
G37*
G36*
X2405000D02*
Y2855000D01*
X2421946D01*
X2421195Y2858779D01*
X2416222Y2866222D01*
X2408779Y2871195D01*
X2405000Y2871946D01*
D02*
G37*
G36*
X2395000D02*
X2391221Y2871195D01*
X2383778Y2866222D01*
X2378805Y2858779D01*
X2378054Y2855000D01*
X2395000D01*
Y2871946D01*
D02*
G37*
G36*
X2255000D02*
Y2855000D01*
X2271946D01*
X2271195Y2858779D01*
X2266222Y2866222D01*
X2258779Y2871195D01*
X2255000Y2871946D01*
D02*
G37*
G36*
X2245000D02*
X2241221Y2871195D01*
X2233778Y2866222D01*
X2228805Y2858779D01*
X2228054Y2855000D01*
X2245000D01*
Y2871946D01*
D02*
G37*
G36*
X1805000D02*
Y2855000D01*
X1821946D01*
X1821195Y2858779D01*
X1816222Y2866222D01*
X1808779Y2871195D01*
X1805000Y2871946D01*
D02*
G37*
G36*
X1795000D02*
X1791221Y2871195D01*
X1783778Y2866222D01*
X1778805Y2858779D01*
X1778054Y2855000D01*
X1795000D01*
Y2871946D01*
D02*
G37*
G36*
X2845000Y2955475D02*
X2830642Y2953584D01*
X2817263Y2948042D01*
X2805773Y2939227D01*
X2796958Y2927737D01*
X2791416Y2914358D01*
X2789525Y2900000D01*
X2791416Y2885642D01*
X2796958Y2872263D01*
X2805773Y2860773D01*
X2817263Y2851958D01*
X2830642Y2846416D01*
X2845000Y2844525D01*
X2859358Y2846416D01*
X2872737Y2851958D01*
X2884227Y2860773D01*
X2893042Y2872263D01*
X2898584Y2885642D01*
X2900475Y2900000D01*
X2898584Y2914358D01*
X2893042Y2927737D01*
X2884227Y2939227D01*
X2872737Y2948042D01*
X2859358Y2953584D01*
X2845000Y2955475D01*
D02*
G37*
G36*
X3321946Y2845000D02*
X3305000D01*
Y2828054D01*
X3308779Y2828805D01*
X3316222Y2833778D01*
X3321195Y2841221D01*
X3321946Y2845000D01*
D02*
G37*
G36*
X3295000D02*
X3278054D01*
X3278805Y2841221D01*
X3283778Y2833778D01*
X3291221Y2828805D01*
X3295000Y2828054D01*
Y2845000D01*
D02*
G37*
G36*
X3021946D02*
X3005000D01*
Y2828054D01*
X3008779Y2828805D01*
X3016222Y2833778D01*
X3021195Y2841221D01*
X3021946Y2845000D01*
D02*
G37*
G36*
X2995000D02*
X2978054D01*
X2978805Y2841221D01*
X2983778Y2833778D01*
X2991221Y2828805D01*
X2995000Y2828054D01*
Y2845000D01*
D02*
G37*
G36*
X2721946D02*
X2705000D01*
Y2828054D01*
X2708779Y2828805D01*
X2716222Y2833778D01*
X2721195Y2841221D01*
X2721946Y2845000D01*
D02*
G37*
G36*
X2695000D02*
X2678054D01*
X2678805Y2841221D01*
X2683778Y2833778D01*
X2691221Y2828805D01*
X2695000Y2828054D01*
Y2845000D01*
D02*
G37*
G36*
X2571946D02*
X2555000D01*
Y2828054D01*
X2558779Y2828805D01*
X2566222Y2833778D01*
X2571195Y2841221D01*
X2571946Y2845000D01*
D02*
G37*
G36*
X2545000D02*
X2528054D01*
X2528805Y2841221D01*
X2533778Y2833778D01*
X2541221Y2828805D01*
X2545000Y2828054D01*
Y2845000D01*
D02*
G37*
G36*
X2421946D02*
X2405000D01*
Y2828054D01*
X2408779Y2828805D01*
X2416222Y2833778D01*
X2421195Y2841221D01*
X2421946Y2845000D01*
D02*
G37*
G36*
X2395000D02*
X2378054D01*
X2378805Y2841221D01*
X2383778Y2833778D01*
X2391221Y2828805D01*
X2395000Y2828054D01*
Y2845000D01*
D02*
G37*
G36*
X2271946D02*
X2255000D01*
Y2828054D01*
X2258779Y2828805D01*
X2266222Y2833778D01*
X2271195Y2841221D01*
X2271946Y2845000D01*
D02*
G37*
G36*
X2245000D02*
X2228054D01*
X2228805Y2841221D01*
X2233778Y2833778D01*
X2241221Y2828805D01*
X2245000Y2828054D01*
Y2845000D01*
D02*
G37*
G36*
X1821946D02*
X1805000D01*
Y2828054D01*
X1808779Y2828805D01*
X1816222Y2833778D01*
X1821195Y2841221D01*
X1821946Y2845000D01*
D02*
G37*
G36*
X1795000D02*
X1778054D01*
X1778805Y2841221D01*
X1783778Y2833778D01*
X1791221Y2828805D01*
X1795000Y2828054D01*
Y2845000D01*
D02*
G37*
G36*
X4521946D02*
X4505000D01*
Y2828054D01*
X4508779Y2828805D01*
X4516222Y2833778D01*
X4521194Y2841221D01*
X4521946Y2845000D01*
D02*
G37*
G36*
X4495000D02*
X4478054D01*
X4478806Y2841221D01*
X4483778Y2833778D01*
X4491221Y2828805D01*
X4495000Y2828054D01*
Y2845000D01*
D02*
G37*
G36*
X4195000D02*
X4178054D01*
X4178806Y2841221D01*
X4183778Y2833778D01*
X4191221Y2828805D01*
X4195000Y2828054D01*
Y2845000D01*
D02*
G37*
G36*
X4045000D02*
X4028054D01*
X4028805Y2841221D01*
X4033778Y2833778D01*
X4041221Y2828805D01*
X4045000Y2828054D01*
Y2845000D01*
D02*
G37*
G36*
X3921946D02*
X3905000D01*
Y2828054D01*
X3908779Y2828805D01*
X3916222Y2833778D01*
X3921195Y2841221D01*
X3921946Y2845000D01*
D02*
G37*
G36*
X3895000D02*
X3878054D01*
X3878805Y2841221D01*
X3883778Y2833778D01*
X3891221Y2828805D01*
X3895000Y2828054D01*
Y2845000D01*
D02*
G37*
G36*
X3621946D02*
X3605000D01*
Y2828054D01*
X3608779Y2828805D01*
X3616222Y2833778D01*
X3621195Y2841221D01*
X3621946Y2845000D01*
D02*
G37*
G36*
X4580000Y2721946D02*
Y2705000D01*
X4596946D01*
X4596194Y2708779D01*
X4591222Y2716222D01*
X4583779Y2721195D01*
X4580000Y2721946D01*
D02*
G37*
G36*
X4570000D02*
X4566221Y2721195D01*
X4558778Y2716222D01*
X4553806Y2708779D01*
X4553054Y2705000D01*
X4570000D01*
Y2721946D01*
D02*
G37*
G36*
X4430000D02*
Y2705000D01*
X4446946D01*
X4446194Y2708779D01*
X4441222Y2716222D01*
X4433779Y2721195D01*
X4430000Y2721946D01*
D02*
G37*
G36*
X4420000D02*
X4416221Y2721195D01*
X4408778Y2716222D01*
X4403806Y2708779D01*
X4403054Y2705000D01*
X4420000D01*
Y2721946D01*
D02*
G37*
G36*
X4280000D02*
Y2705000D01*
X4296946D01*
X4296194Y2708779D01*
X4291222Y2716222D01*
X4283779Y2721195D01*
X4280000Y2721946D01*
D02*
G37*
G36*
X4130000D02*
Y2705000D01*
X4146946D01*
X4146194Y2708779D01*
X4141222Y2716222D01*
X4133779Y2721195D01*
X4130000Y2721946D01*
D02*
G37*
G36*
X3980000D02*
Y2705000D01*
X3996946D01*
X3996195Y2708779D01*
X3991222Y2716222D01*
X3983779Y2721195D01*
X3980000Y2721946D01*
D02*
G37*
G36*
X3970000D02*
X3966221Y2721195D01*
X3958778Y2716222D01*
X3953805Y2708779D01*
X3953054Y2705000D01*
X3970000D01*
Y2721946D01*
D02*
G37*
G36*
X3830000D02*
Y2705000D01*
X3846946D01*
X3846195Y2708779D01*
X3841222Y2716222D01*
X3833779Y2721195D01*
X3830000Y2721946D01*
D02*
G37*
G36*
X3820000D02*
X3816221Y2721195D01*
X3808778Y2716222D01*
X3803805Y2708779D01*
X3803054Y2705000D01*
X3820000D01*
Y2721946D01*
D02*
G37*
G36*
X3380000D02*
Y2705000D01*
X3396946D01*
X3396195Y2708779D01*
X3391222Y2716222D01*
X3383779Y2721195D01*
X3380000Y2721946D01*
D02*
G37*
G36*
X3370000D02*
X3366221Y2721195D01*
X3358778Y2716222D01*
X3353805Y2708779D01*
X3353054Y2705000D01*
X3370000D01*
Y2721946D01*
D02*
G37*
G36*
X3070000D02*
X3066221Y2721195D01*
X3058778Y2716222D01*
X3053805Y2708779D01*
X3053054Y2705000D01*
X3070000D01*
Y2721946D01*
D02*
G37*
G36*
X2930000D02*
Y2705000D01*
X2946946D01*
X2946195Y2708779D01*
X2941222Y2716222D01*
X2933779Y2721195D01*
X2930000Y2721946D01*
D02*
G37*
G36*
X2920000D02*
X2916221Y2721195D01*
X2908778Y2716222D01*
X2903805Y2708779D01*
X2903054Y2705000D01*
X2920000D01*
Y2721946D01*
D02*
G37*
G36*
X2780000D02*
Y2705000D01*
X2796946D01*
X2796195Y2708779D01*
X2791222Y2716222D01*
X2783779Y2721195D01*
X2780000Y2721946D01*
D02*
G37*
G36*
X2770000D02*
X2766221Y2721195D01*
X2758778Y2716222D01*
X2753805Y2708779D01*
X2753054Y2705000D01*
X2770000D01*
Y2721946D01*
D02*
G37*
G36*
X2630000D02*
Y2705000D01*
X2646946D01*
X2646195Y2708779D01*
X2641222Y2716222D01*
X2633779Y2721195D01*
X2630000Y2721946D01*
D02*
G37*
G36*
X2620000D02*
X2616221Y2721195D01*
X2608778Y2716222D01*
X2603805Y2708779D01*
X2603054Y2705000D01*
X2620000D01*
Y2721946D01*
D02*
G37*
G36*
X2480000D02*
Y2705000D01*
X2496946D01*
X2496195Y2708779D01*
X2491222Y2716222D01*
X2483779Y2721195D01*
X2480000Y2721946D01*
D02*
G37*
G36*
X2470000D02*
X2466221Y2721195D01*
X2458778Y2716222D01*
X2453805Y2708779D01*
X2453054Y2705000D01*
X2470000D01*
Y2721946D01*
D02*
G37*
G36*
X2180000D02*
Y2705000D01*
X2196946D01*
X2196195Y2708779D01*
X2191222Y2716222D01*
X2183779Y2721195D01*
X2180000Y2721946D01*
D02*
G37*
G36*
X2170000D02*
X2166221Y2721195D01*
X2158778Y2716222D01*
X2153805Y2708779D01*
X2153054Y2705000D01*
X2170000D01*
Y2721946D01*
D02*
G37*
G36*
X1880000D02*
Y2705000D01*
X1896946D01*
X1896195Y2708779D01*
X1891222Y2716222D01*
X1883779Y2721195D01*
X1880000Y2721946D01*
D02*
G37*
G36*
X1870000D02*
X1866221Y2721195D01*
X1858778Y2716222D01*
X1853805Y2708779D01*
X1853054Y2705000D01*
X1870000D01*
Y2721946D01*
D02*
G37*
G36*
X1730000D02*
Y2705000D01*
X1746946D01*
X1746195Y2708779D01*
X1741222Y2716222D01*
X1733779Y2721195D01*
X1730000Y2721946D01*
D02*
G37*
G36*
X1720000D02*
X1716221Y2721195D01*
X1708778Y2716222D01*
X1703805Y2708779D01*
X1703054Y2705000D01*
X1720000D01*
Y2721946D01*
D02*
G37*
G36*
X4596946Y2695000D02*
X4580000D01*
Y2678054D01*
X4583779Y2678805D01*
X4591222Y2683778D01*
X4596194Y2691221D01*
X4596946Y2695000D01*
D02*
G37*
G36*
X4570000D02*
X4553054D01*
X4553806Y2691221D01*
X4558778Y2683778D01*
X4566221Y2678805D01*
X4570000Y2678054D01*
Y2695000D01*
D02*
G37*
G36*
X4446946D02*
X4430000D01*
Y2678054D01*
X4433779Y2678805D01*
X4441222Y2683778D01*
X4446194Y2691221D01*
X4446946Y2695000D01*
D02*
G37*
G36*
X4420000D02*
X4403054D01*
X4403806Y2691221D01*
X4408778Y2683778D01*
X4416221Y2678805D01*
X4420000Y2678054D01*
Y2695000D01*
D02*
G37*
G36*
X4296946D02*
X4280000D01*
Y2678054D01*
X4283779Y2678805D01*
X4291222Y2683778D01*
X4296194Y2691221D01*
X4296946Y2695000D01*
D02*
G37*
G36*
X4230709Y2979865D02*
X4222877Y2978834D01*
X4215579Y2975811D01*
X4209312Y2971003D01*
X4204504Y2964736D01*
X4201481Y2957438D01*
X4200450Y2949606D01*
X4201481Y2941775D01*
X4204504Y2934477D01*
X4209312Y2928210D01*
X4215579Y2923401D01*
X4220513Y2921358D01*
Y2887408D01*
X4218055Y2884012D01*
X4205000Y2875697D01*
Y2850000D01*
Y2824303D01*
X4218055Y2815988D01*
X4220513Y2812592D01*
Y2588249D01*
X4215579Y2586205D01*
X4209312Y2581396D01*
X4204504Y2575129D01*
X4201481Y2567832D01*
X4200450Y2560000D01*
X4201481Y2552168D01*
X4204504Y2544871D01*
X4209312Y2538604D01*
X4215579Y2533795D01*
X4222877Y2530772D01*
X4230709Y2529741D01*
X4238540Y2530772D01*
X4245838Y2533795D01*
X4252105Y2538604D01*
X4256914Y2544871D01*
X4259937Y2552168D01*
X4260968Y2560000D01*
X4259937Y2567832D01*
X4256914Y2575129D01*
X4252105Y2581396D01*
X4245838Y2586205D01*
X4240905Y2588249D01*
Y2674529D01*
X4251322Y2679920D01*
X4260905Y2682358D01*
X4266221Y2678805D01*
X4270000Y2678054D01*
Y2700000D01*
Y2721946D01*
X4266221Y2721195D01*
X4260905Y2717642D01*
X4251322Y2720080D01*
X4240905Y2725471D01*
Y2921358D01*
X4245838Y2923401D01*
X4252105Y2928210D01*
X4256914Y2934477D01*
X4259937Y2941775D01*
X4260968Y2949606D01*
X4259937Y2957438D01*
X4256914Y2964736D01*
X4252105Y2971003D01*
X4245838Y2975811D01*
X4238540Y2978834D01*
X4230709Y2979865D01*
D02*
G37*
G36*
X4146946Y2695000D02*
X4130000D01*
Y2678054D01*
X4133779Y2678805D01*
X4141222Y2683778D01*
X4146194Y2691221D01*
X4146946Y2695000D01*
D02*
G37*
G36*
X4120000D02*
X4103054D01*
X4103806Y2691221D01*
X4108778Y2683778D01*
X4116221Y2678805D01*
X4120000Y2678054D01*
Y2695000D01*
D02*
G37*
G36*
X3996946D02*
X3980000D01*
Y2678054D01*
X3983779Y2678805D01*
X3991222Y2683778D01*
X3996195Y2691221D01*
X3996946Y2695000D01*
D02*
G37*
G36*
X3970000D02*
X3953054D01*
X3953805Y2691221D01*
X3958778Y2683778D01*
X3966221Y2678805D01*
X3970000Y2678054D01*
Y2695000D01*
D02*
G37*
G36*
X3846946D02*
X3830000D01*
Y2678054D01*
X3833779Y2678805D01*
X3841222Y2683778D01*
X3846195Y2691221D01*
X3846946Y2695000D01*
D02*
G37*
G36*
X3820000D02*
X3803054D01*
X3803805Y2691221D01*
X3808778Y2683778D01*
X3816221Y2678805D01*
X3820000Y2678054D01*
Y2695000D01*
D02*
G37*
G36*
X3070000D02*
X3053054D01*
X3053805Y2691221D01*
X3058778Y2683778D01*
X3066221Y2678805D01*
X3070000Y2678054D01*
Y2695000D01*
D02*
G37*
G36*
X2946946D02*
X2930000D01*
Y2678054D01*
X2933779Y2678805D01*
X2941222Y2683778D01*
X2946195Y2691221D01*
X2946946Y2695000D01*
D02*
G37*
G36*
X2920000D02*
X2903054D01*
X2903805Y2691221D01*
X2908778Y2683778D01*
X2916221Y2678805D01*
X2920000Y2678054D01*
Y2695000D01*
D02*
G37*
G36*
X2796946D02*
X2780000D01*
Y2678054D01*
X2783779Y2678805D01*
X2791222Y2683778D01*
X2796195Y2691221D01*
X2796946Y2695000D01*
D02*
G37*
G36*
X2770000D02*
X2753054D01*
X2753805Y2691221D01*
X2758778Y2683778D01*
X2766221Y2678805D01*
X2770000Y2678054D01*
Y2695000D01*
D02*
G37*
G36*
X2646946D02*
X2630000D01*
Y2678054D01*
X2633779Y2678805D01*
X2641222Y2683778D01*
X2646195Y2691221D01*
X2646946Y2695000D01*
D02*
G37*
G36*
X2620000D02*
X2603054D01*
X2603805Y2691221D01*
X2608778Y2683778D01*
X2616221Y2678805D01*
X2620000Y2678054D01*
Y2695000D01*
D02*
G37*
G36*
X2496946D02*
X2480000D01*
Y2678054D01*
X2483779Y2678805D01*
X2491222Y2683778D01*
X2496195Y2691221D01*
X2496946Y2695000D01*
D02*
G37*
G36*
X2470000D02*
X2453054D01*
X2453805Y2691221D01*
X2458778Y2683778D01*
X2466221Y2678805D01*
X2470000Y2678054D01*
Y2695000D01*
D02*
G37*
G36*
X2196946D02*
X2180000D01*
Y2678054D01*
X2183779Y2678805D01*
X2191222Y2683778D01*
X2196195Y2691221D01*
X2196946Y2695000D01*
D02*
G37*
G36*
X2170000D02*
X2153054D01*
X2153805Y2691221D01*
X2158778Y2683778D01*
X2166221Y2678805D01*
X2170000Y2678054D01*
Y2695000D01*
D02*
G37*
G36*
X1896946D02*
X1880000D01*
Y2678054D01*
X1883779Y2678805D01*
X1891222Y2683778D01*
X1896195Y2691221D01*
X1896946Y2695000D01*
D02*
G37*
G36*
X1870000D02*
X1853054D01*
X1853805Y2691221D01*
X1858778Y2683778D01*
X1866221Y2678805D01*
X1870000Y2678054D01*
Y2695000D01*
D02*
G37*
G36*
X1746946D02*
X1730000D01*
Y2678054D01*
X1733779Y2678805D01*
X1741222Y2683778D01*
X1746195Y2691221D01*
X1746946Y2695000D01*
D02*
G37*
G36*
X1720000D02*
X1703054D01*
X1703805Y2691221D01*
X1708778Y2683778D01*
X1716221Y2678805D01*
X1720000Y2678054D01*
Y2695000D01*
D02*
G37*
G36*
X2915000Y2634165D02*
Y2602000D01*
X2947165D01*
X2946535Y2606789D01*
X2942756Y2615912D01*
X2936745Y2623745D01*
X2928912Y2629756D01*
X2919789Y2633535D01*
X2915000Y2634165D01*
D02*
G37*
G36*
X2905000D02*
X2900211Y2633535D01*
X2891088Y2629756D01*
X2883255Y2623745D01*
X2877244Y2615912D01*
X2873465Y2606789D01*
X2872835Y2602000D01*
X2905000D01*
Y2634165D01*
D02*
G37*
G36*
X2947165Y2592000D02*
X2915000D01*
Y2559835D01*
X2919789Y2560465D01*
X2928912Y2564244D01*
X2936745Y2570255D01*
X2942756Y2578088D01*
X2946535Y2587211D01*
X2947165Y2592000D01*
D02*
G37*
G36*
X2905000D02*
X2872835D01*
X2873465Y2587211D01*
X2877244Y2578088D01*
X2883255Y2570255D01*
X2891088Y2564244D01*
X2900211Y2560465D01*
X2905000Y2559835D01*
Y2592000D01*
D02*
G37*
G36*
X3385000D02*
X3352835D01*
X3353465Y2587211D01*
X3357244Y2578088D01*
X3363255Y2570255D01*
X3371088Y2564244D01*
X3380211Y2560465D01*
X3385000Y2559835D01*
Y2592000D01*
D02*
G37*
G36*
X4505000Y2571946D02*
Y2555000D01*
X4521946D01*
X4521194Y2558779D01*
X4516222Y2566222D01*
X4508779Y2571195D01*
X4505000Y2571946D01*
D02*
G37*
G36*
X4495000D02*
X4491221Y2571195D01*
X4483778Y2566222D01*
X4478806Y2558779D01*
X4478054Y2555000D01*
X4495000D01*
Y2571946D01*
D02*
G37*
G36*
X4355000D02*
Y2555000D01*
X4371946D01*
X4371194Y2558779D01*
X4366222Y2566222D01*
X4358779Y2571195D01*
X4355000Y2571946D01*
D02*
G37*
G36*
X4345000D02*
X4341221Y2571195D01*
X4333778Y2566222D01*
X4328806Y2558779D01*
X4328054Y2555000D01*
X4345000D01*
Y2571946D01*
D02*
G37*
G36*
X4055000D02*
Y2555000D01*
X4071946D01*
X4071195Y2558779D01*
X4066222Y2566222D01*
X4058779Y2571195D01*
X4055000Y2571946D01*
D02*
G37*
G36*
X3755000D02*
Y2555000D01*
X3771946D01*
X3771195Y2558779D01*
X3766222Y2566222D01*
X3758779Y2571195D01*
X3755000Y2571946D01*
D02*
G37*
G36*
X3745000D02*
X3741221Y2571195D01*
X3733778Y2566222D01*
X3728805Y2558779D01*
X3728054Y2555000D01*
X3745000D01*
Y2571946D01*
D02*
G37*
G36*
X3455000D02*
Y2555000D01*
X3471946D01*
X3471195Y2558779D01*
X3466222Y2566222D01*
X3458779Y2571195D01*
X3455000Y2571946D01*
D02*
G37*
G36*
X3427165Y2592000D02*
X3395000D01*
Y2559835D01*
X3399789Y2560465D01*
X3408912Y2564244D01*
X3411439Y2566183D01*
X3412229Y2565846D01*
X3425859Y2555000D01*
X3445000D01*
Y2571946D01*
X3441221Y2571195D01*
X3425518Y2584756D01*
X3426535Y2587211D01*
X3427165Y2592000D01*
D02*
G37*
G36*
X3010000Y2629780D02*
X3001516Y2628663D01*
X2993610Y2625389D01*
X2986821Y2620179D01*
X2981611Y2613390D01*
X2978337Y2605484D01*
X2977220Y2597000D01*
X2978337Y2588516D01*
X2981611Y2580610D01*
X2983778Y2566222D01*
X2978805Y2558779D01*
X2978054Y2555000D01*
X3021946D01*
X3021195Y2558779D01*
X3026390Y2568611D01*
X3033179Y2573821D01*
X3038389Y2580610D01*
X3041663Y2588516D01*
X3042780Y2597000D01*
X3041663Y2605484D01*
X3038389Y2613390D01*
X3033179Y2620179D01*
X3026390Y2625389D01*
X3018484Y2628663D01*
X3010000Y2629780D01*
D02*
G37*
G36*
X2705000Y2571946D02*
Y2555000D01*
X2721946D01*
X2721195Y2558779D01*
X2716222Y2566222D01*
X2708779Y2571195D01*
X2705000Y2571946D01*
D02*
G37*
G36*
X2695000D02*
X2691221Y2571195D01*
X2683778Y2566222D01*
X2678805Y2558779D01*
X2678054Y2555000D01*
X2695000D01*
Y2571946D01*
D02*
G37*
G36*
X2405000D02*
Y2555000D01*
X2421946D01*
X2421195Y2558779D01*
X2416222Y2566222D01*
X2408779Y2571195D01*
X2405000Y2571946D01*
D02*
G37*
G36*
X2395000D02*
X2391221Y2571195D01*
X2383778Y2566222D01*
X2378805Y2558779D01*
X2378054Y2555000D01*
X2395000D01*
Y2571946D01*
D02*
G37*
G36*
X1805000D02*
Y2555000D01*
X1821946D01*
X1821195Y2558779D01*
X1816222Y2566222D01*
X1808779Y2571195D01*
X1805000Y2571946D01*
D02*
G37*
G36*
X1795000D02*
X1791221Y2571195D01*
X1783778Y2566222D01*
X1778805Y2558779D01*
X1778054Y2555000D01*
X1795000D01*
Y2571946D01*
D02*
G37*
G36*
X2325000Y3353448D02*
X2317168Y3352417D01*
X2309871Y3349394D01*
X2303604Y3344585D01*
X2298795Y3338318D01*
X2295772Y3331021D01*
X2294741Y3323189D01*
X2295772Y3315357D01*
X2298795Y3308060D01*
X2303604Y3301793D01*
X2309871Y3296984D01*
X2314804Y3294940D01*
Y2720000D01*
X2315580Y2716098D01*
X2317790Y2712790D01*
X2447816Y2582765D01*
X2445772Y2577832D01*
X2444741Y2570000D01*
X2445772Y2562168D01*
X2448795Y2554871D01*
X2453604Y2548604D01*
X2459871Y2543795D01*
X2467168Y2540772D01*
X2475000Y2539741D01*
X2482832Y2540772D01*
X2490129Y2543795D01*
X2496396Y2548604D01*
X2501205Y2554871D01*
X2504228Y2562168D01*
X2505259Y2570000D01*
X2504228Y2577832D01*
X2501205Y2585129D01*
X2496396Y2591396D01*
X2490129Y2596205D01*
X2482832Y2599228D01*
X2475000Y2600259D01*
X2467168Y2599228D01*
X2462235Y2597184D01*
X2335196Y2724223D01*
Y3294940D01*
X2340129Y3296984D01*
X2346396Y3301793D01*
X2351205Y3308060D01*
X2354228Y3315357D01*
X2355259Y3323189D01*
X2354228Y3331021D01*
X2351205Y3338318D01*
X2346396Y3344585D01*
X2340129Y3349394D01*
X2332832Y3352417D01*
X2325000Y3353448D01*
D02*
G37*
G36*
X2721946Y2545000D02*
X2705000D01*
Y2528054D01*
X2708779Y2528805D01*
X2716222Y2533778D01*
X2721195Y2541221D01*
X2721946Y2545000D01*
D02*
G37*
G36*
X2695000D02*
X2678054D01*
X2678805Y2541221D01*
X2683778Y2533778D01*
X2691221Y2528805D01*
X2695000Y2528054D01*
Y2545000D01*
D02*
G37*
G36*
X2421946D02*
X2405000D01*
Y2528054D01*
X2408779Y2528805D01*
X2416222Y2533778D01*
X2421195Y2541221D01*
X2421946Y2545000D01*
D02*
G37*
G36*
X2395000D02*
X2378054D01*
X2378805Y2541221D01*
X2383778Y2533778D01*
X2391221Y2528805D01*
X2395000Y2528054D01*
Y2545000D01*
D02*
G37*
G36*
X1821946D02*
X1805000D01*
Y2528054D01*
X1808779Y2528805D01*
X1816222Y2533778D01*
X1821195Y2541221D01*
X1821946Y2545000D01*
D02*
G37*
G36*
X1795000D02*
X1778054D01*
X1778805Y2541221D01*
X1783778Y2533778D01*
X1791221Y2528805D01*
X1795000Y2528054D01*
Y2545000D01*
D02*
G37*
G36*
X4521946D02*
X4505000D01*
Y2528054D01*
X4508779Y2528805D01*
X4516222Y2533778D01*
X4521194Y2541221D01*
X4521946Y2545000D01*
D02*
G37*
G36*
X4495000D02*
X4478054D01*
X4478806Y2541221D01*
X4483778Y2533778D01*
X4491221Y2528805D01*
X4495000Y2528054D01*
Y2545000D01*
D02*
G37*
G36*
X4371946D02*
X4355000D01*
Y2528054D01*
X4358779Y2528805D01*
X4366222Y2533778D01*
X4371194Y2541221D01*
X4371946Y2545000D01*
D02*
G37*
G36*
X4345000D02*
X4328054D01*
X4328806Y2541221D01*
X4333778Y2533778D01*
X4341221Y2528805D01*
X4345000Y2528054D01*
Y2545000D01*
D02*
G37*
G36*
X4071946D02*
X4055000D01*
Y2528054D01*
X4058779Y2528805D01*
X4066222Y2533778D01*
X4071195Y2541221D01*
X4071946Y2545000D01*
D02*
G37*
G36*
X3771946D02*
X3755000D01*
Y2528054D01*
X3758779Y2528805D01*
X3766222Y2533778D01*
X3771195Y2541221D01*
X3771946Y2545000D01*
D02*
G37*
G36*
X3745000D02*
X3728054D01*
X3728805Y2541221D01*
X3733778Y2533778D01*
X3741221Y2528805D01*
X3745000Y2528054D01*
Y2545000D01*
D02*
G37*
G36*
X3471946D02*
X3455000D01*
Y2528054D01*
X3458779Y2528805D01*
X3466222Y2533778D01*
X3471195Y2541221D01*
X3471946Y2545000D01*
D02*
G37*
G36*
X3445000D02*
X3428054D01*
X3428805Y2541221D01*
X3433778Y2533778D01*
X3441221Y2528805D01*
X3445000Y2528054D01*
Y2545000D01*
D02*
G37*
G36*
X3885000Y2555259D02*
X3877168Y2554228D01*
X3869871Y2551205D01*
X3863604Y2546396D01*
X3858795Y2540129D01*
X3855772Y2532832D01*
X3854741Y2525000D01*
X3855772Y2517168D01*
X3857816Y2512235D01*
X3793780Y2448199D01*
X3773780Y2452056D01*
Y2495394D01*
X3661417D01*
Y2375157D01*
X3773780D01*
Y2425080D01*
X3795276D01*
X3799177Y2425856D01*
X3802485Y2428066D01*
X3872235Y2497816D01*
X3877168Y2495772D01*
X3885000Y2494741D01*
X3892832Y2495772D01*
X3900129Y2498795D01*
X3906396Y2503604D01*
X3911205Y2509871D01*
X3914228Y2517168D01*
X3915259Y2525000D01*
X3914228Y2532832D01*
X3911205Y2540129D01*
X3906396Y2546396D01*
X3900129Y2551205D01*
X3892832Y2554228D01*
X3885000Y2555259D01*
D02*
G37*
G36*
X2127401Y2515591D02*
X2085000D01*
Y2432835D01*
X2127401D01*
Y2515591D01*
D02*
G37*
G36*
X2075000D02*
X2032599D01*
Y2432835D01*
X2075000D01*
Y2515591D01*
D02*
G37*
G36*
X4430000Y2421946D02*
Y2405000D01*
X4446946D01*
X4446194Y2408779D01*
X4441222Y2416222D01*
X4433779Y2421195D01*
X4430000Y2421946D01*
D02*
G37*
G36*
X4420000D02*
X4416221Y2421195D01*
X4408778Y2416222D01*
X4403806Y2408779D01*
X4403054Y2405000D01*
X4420000D01*
Y2421946D01*
D02*
G37*
G36*
X4280000D02*
Y2405000D01*
X4296946D01*
X4296194Y2408779D01*
X4291222Y2416222D01*
X4283779Y2421195D01*
X4280000Y2421946D01*
D02*
G37*
G36*
X4270000D02*
X4266221Y2421195D01*
X4258778Y2416222D01*
X4253806Y2408779D01*
X4253054Y2405000D01*
X4270000D01*
Y2421946D01*
D02*
G37*
G36*
X4130000D02*
Y2405000D01*
X4146946D01*
X4146194Y2408779D01*
X4141222Y2416222D01*
X4133779Y2421195D01*
X4130000Y2421946D01*
D02*
G37*
G36*
X4120000D02*
X4116221Y2421195D01*
X4108778Y2416222D01*
X4103806Y2408779D01*
X4103054Y2405000D01*
X4120000D01*
Y2421946D01*
D02*
G37*
G36*
X3970000D02*
X3966221Y2421195D01*
X3958778Y2416222D01*
X3953805Y2408779D01*
X3953054Y2405000D01*
X3970000D01*
Y2421946D01*
D02*
G37*
G36*
X2780000D02*
Y2405000D01*
X2796946D01*
X2796195Y2408779D01*
X2791222Y2416222D01*
X2783779Y2421195D01*
X2780000Y2421946D01*
D02*
G37*
G36*
X2480000D02*
Y2405000D01*
X2496946D01*
X2496195Y2408779D01*
X2491222Y2416222D01*
X2483779Y2421195D01*
X2480000Y2421946D01*
D02*
G37*
G36*
X2470000D02*
X2466221Y2421195D01*
X2458778Y2416222D01*
X2453805Y2408779D01*
X2453054Y2405000D01*
X2470000D01*
Y2421946D01*
D02*
G37*
G36*
X2180000D02*
Y2405000D01*
X2196946D01*
X2196195Y2408779D01*
X2191222Y2416222D01*
X2183779Y2421195D01*
X2180000Y2421946D01*
D02*
G37*
G36*
X2170000D02*
X2166221Y2421195D01*
X2158778Y2416222D01*
X2153805Y2408779D01*
X2153054Y2405000D01*
X2170000D01*
Y2421946D01*
D02*
G37*
G36*
X1880000D02*
Y2405000D01*
X1896946D01*
X1896195Y2408779D01*
X1891222Y2416222D01*
X1883779Y2421195D01*
X1880000Y2421946D01*
D02*
G37*
G36*
X1870000D02*
X1866221Y2421195D01*
X1858778Y2416222D01*
X1853805Y2408779D01*
X1853054Y2405000D01*
X1870000D01*
Y2421946D01*
D02*
G37*
G36*
X2265000Y2399742D02*
Y2382795D01*
X2281946D01*
X2281195Y2386575D01*
X2276222Y2394017D01*
X2268779Y2398990D01*
X2265000Y2399742D01*
D02*
G37*
G36*
X2255000D02*
X2251221Y2398990D01*
X2243778Y2394017D01*
X2238805Y2386575D01*
X2238054Y2382795D01*
X2255000D01*
Y2399742D01*
D02*
G37*
G36*
X2796946Y2395000D02*
X2780000D01*
Y2378054D01*
X2783779Y2378805D01*
X2791222Y2383778D01*
X2796195Y2391221D01*
X2796946Y2395000D01*
D02*
G37*
G36*
X2664997Y2465387D02*
X2649314Y2463843D01*
X2634234Y2459268D01*
X2620336Y2451839D01*
X2608155Y2441842D01*
X2598157Y2429661D01*
X2590729Y2415763D01*
X2586154Y2400683D01*
X2584610Y2385000D01*
X2586154Y2369317D01*
X2590729Y2354237D01*
X2598157Y2340339D01*
X2608155Y2328158D01*
X2620336Y2318161D01*
X2634234Y2310732D01*
X2649314Y2306157D01*
X2664997Y2304613D01*
X2680680Y2306157D01*
X2695760Y2310732D01*
X2709657Y2318161D01*
X2721839Y2328158D01*
X2731836Y2340339D01*
X2739265Y2354237D01*
X2743839Y2369317D01*
X2744044Y2371400D01*
X2746044Y2373080D01*
X2764954Y2379652D01*
X2766221Y2378805D01*
X2770000Y2378054D01*
Y2400000D01*
Y2421946D01*
X2766221Y2421195D01*
X2759815Y2416914D01*
X2758293Y2416210D01*
X2752915Y2416084D01*
X2737144Y2419730D01*
X2731836Y2429661D01*
X2721839Y2441842D01*
X2709657Y2451839D01*
X2695760Y2459268D01*
X2680680Y2463843D01*
X2664997Y2465387D01*
D02*
G37*
G36*
X2496946Y2395000D02*
X2480000D01*
Y2378054D01*
X2483779Y2378805D01*
X2491222Y2383778D01*
X2496195Y2391221D01*
X2496946Y2395000D01*
D02*
G37*
G36*
X2470000D02*
X2453054D01*
X2453805Y2391221D01*
X2458778Y2383778D01*
X2466221Y2378805D01*
X2470000Y2378054D01*
Y2395000D01*
D02*
G37*
G36*
X2196946D02*
X2180000D01*
Y2378054D01*
X2183779Y2378805D01*
X2191222Y2383778D01*
X2196195Y2391221D01*
X2196946Y2395000D01*
D02*
G37*
G36*
X2170000D02*
X2153054D01*
X2153805Y2391221D01*
X2158778Y2383778D01*
X2166221Y2378805D01*
X2170000Y2378054D01*
Y2395000D01*
D02*
G37*
G36*
X1896946D02*
X1880000D01*
Y2378054D01*
X1883779Y2378805D01*
X1891222Y2383778D01*
X1896195Y2391221D01*
X1896946Y2395000D01*
D02*
G37*
G36*
X1870000D02*
X1853054D01*
X1853805Y2391221D01*
X1858778Y2383778D01*
X1866221Y2378805D01*
X1870000Y2378054D01*
Y2395000D01*
D02*
G37*
G36*
X4446946D02*
X4430000D01*
Y2378054D01*
X4433779Y2378805D01*
X4441222Y2383778D01*
X4446194Y2391221D01*
X4446946Y2395000D01*
D02*
G37*
G36*
X4420000D02*
X4403054D01*
X4403806Y2391221D01*
X4408778Y2383778D01*
X4416221Y2378805D01*
X4420000Y2378054D01*
Y2395000D01*
D02*
G37*
G36*
X4296946D02*
X4280000D01*
Y2378054D01*
X4283779Y2378805D01*
X4291222Y2383778D01*
X4296194Y2391221D01*
X4296946Y2395000D01*
D02*
G37*
G36*
X4270000D02*
X4253054D01*
X4253806Y2391221D01*
X4258778Y2383778D01*
X4266221Y2378805D01*
X4270000Y2378054D01*
Y2395000D01*
D02*
G37*
G36*
X4146946D02*
X4130000D01*
Y2378054D01*
X4133779Y2378805D01*
X4141222Y2383778D01*
X4146194Y2391221D01*
X4146946Y2395000D01*
D02*
G37*
G36*
X4120000D02*
X4103054D01*
X4103806Y2391221D01*
X4108778Y2383778D01*
X4116221Y2378805D01*
X4120000Y2378054D01*
Y2395000D01*
D02*
G37*
G36*
X3546946D02*
X3530000D01*
Y2378054D01*
X3533779Y2378805D01*
X3541222Y2383778D01*
X3546195Y2391221D01*
X3546946Y2395000D01*
D02*
G37*
G36*
X3520000D02*
X3503054D01*
X3503805Y2391221D01*
X3508778Y2383778D01*
X3516221Y2378805D01*
X3520000Y2378054D01*
Y2395000D01*
D02*
G37*
G36*
X3970000D02*
X3953054D01*
X3953805Y2391221D01*
X3958778Y2383778D01*
X3966221Y2378805D01*
X3970000Y2378054D01*
Y2395000D01*
D02*
G37*
G36*
X2281946Y2372795D02*
X2265000D01*
Y2355849D01*
X2268779Y2356601D01*
X2276222Y2361574D01*
X2281195Y2369016D01*
X2281946Y2372795D01*
D02*
G37*
G36*
X2255000D02*
X2238054D01*
X2238805Y2369016D01*
X2243778Y2361574D01*
X2251221Y2356601D01*
X2255000Y2355849D01*
Y2372795D01*
D02*
G37*
G36*
X3859331Y2422891D02*
X3849289Y2421569D01*
X3839932Y2417693D01*
X3831898Y2411528D01*
X3825732Y2403493D01*
X3821856Y2394136D01*
X3820534Y2384095D01*
X3821856Y2374053D01*
X3825732Y2364696D01*
X3831898Y2356661D01*
X3839932Y2350496D01*
X3849289Y2346620D01*
X3859331Y2345298D01*
X3869372Y2346620D01*
X3878729Y2350496D01*
X3886764Y2356661D01*
X3892929Y2364696D01*
X3896805Y2374053D01*
X3898127Y2384095D01*
X3896805Y2394136D01*
X3892929Y2403493D01*
X3886764Y2411528D01*
X3878729Y2417693D01*
X3869372Y2421569D01*
X3859331Y2422891D01*
D02*
G37*
G36*
X2127401Y2422835D02*
X2085000D01*
Y2340079D01*
X2127401D01*
Y2422835D01*
D02*
G37*
G36*
X2075000D02*
X2032599D01*
Y2340079D01*
X2075000D01*
Y2422835D01*
D02*
G37*
G36*
X4355000Y2271946D02*
Y2255000D01*
X4371946D01*
X4371194Y2258779D01*
X4366222Y2266222D01*
X4358779Y2271195D01*
X4355000Y2271946D01*
D02*
G37*
G36*
X4345000D02*
X4341221Y2271195D01*
X4333778Y2266222D01*
X4328806Y2258779D01*
X4328054Y2255000D01*
X4345000D01*
Y2271946D01*
D02*
G37*
G36*
X3455000D02*
Y2255000D01*
X3471946D01*
X3471195Y2258779D01*
X3466222Y2266222D01*
X3458779Y2271195D01*
X3455000Y2271946D01*
D02*
G37*
G36*
X3445000D02*
X3441221Y2271195D01*
X3433778Y2266222D01*
X3428805Y2258779D01*
X3428054Y2255000D01*
X3445000D01*
Y2271946D01*
D02*
G37*
G36*
X3305000D02*
Y2255000D01*
X3321946D01*
X3321195Y2258779D01*
X3316222Y2266222D01*
X3308779Y2271195D01*
X3305000Y2271946D01*
D02*
G37*
G36*
X3295000D02*
X3291221Y2271195D01*
X3283778Y2266222D01*
X3278805Y2258779D01*
X3278054Y2255000D01*
X3295000D01*
Y2271946D01*
D02*
G37*
G36*
X3005000D02*
Y2255000D01*
X3021946D01*
X3021195Y2258779D01*
X3016222Y2266222D01*
X3008779Y2271195D01*
X3005000Y2271946D01*
D02*
G37*
G36*
X2995000D02*
X2991221Y2271195D01*
X2983778Y2266222D01*
X2978805Y2258779D01*
X2978054Y2255000D01*
X2995000D01*
Y2271946D01*
D02*
G37*
G36*
X2855000D02*
Y2255000D01*
X2871946D01*
X2871195Y2258779D01*
X2866222Y2266222D01*
X2858779Y2271195D01*
X2855000Y2271946D01*
D02*
G37*
G36*
X2845000D02*
X2841221Y2271195D01*
X2833778Y2266222D01*
X2828805Y2258779D01*
X2828054Y2255000D01*
X2845000D01*
Y2271946D01*
D02*
G37*
G36*
X2555000D02*
Y2255000D01*
X2571946D01*
X2571195Y2258779D01*
X2566222Y2266222D01*
X2558779Y2271195D01*
X2555000Y2271946D01*
D02*
G37*
G36*
X2545000D02*
X2541221Y2271195D01*
X2533778Y2266222D01*
X2528805Y2258779D01*
X2528054Y2255000D01*
X2545000D01*
Y2271946D01*
D02*
G37*
G36*
X2255000D02*
Y2255000D01*
X2271946D01*
X2271195Y2258779D01*
X2266222Y2266222D01*
X2258779Y2271195D01*
X2255000Y2271946D01*
D02*
G37*
G36*
X2245000D02*
X2241221Y2271195D01*
X2233778Y2266222D01*
X2228805Y2258779D01*
X2228054Y2255000D01*
X2245000D01*
Y2271946D01*
D02*
G37*
G36*
X1955000D02*
Y2255000D01*
X1971946D01*
X1971195Y2258779D01*
X1966222Y2266222D01*
X1958779Y2271195D01*
X1955000Y2271946D01*
D02*
G37*
G36*
X1945000D02*
X1941221Y2271195D01*
X1933778Y2266222D01*
X1928805Y2258779D01*
X1928054Y2255000D01*
X1945000D01*
Y2271946D01*
D02*
G37*
G36*
X4371946Y2245000D02*
X4355000D01*
Y2228054D01*
X4358779Y2228805D01*
X4366222Y2233778D01*
X4371194Y2241221D01*
X4371946Y2245000D01*
D02*
G37*
G36*
X4345000D02*
X4328054D01*
X4328806Y2241221D01*
X4333778Y2233778D01*
X4341221Y2228805D01*
X4345000Y2228054D01*
Y2245000D01*
D02*
G37*
G36*
X3471946D02*
X3455000D01*
Y2228054D01*
X3458779Y2228805D01*
X3466222Y2233778D01*
X3471195Y2241221D01*
X3471946Y2245000D01*
D02*
G37*
G36*
X3445000D02*
X3428054D01*
X3428805Y2241221D01*
X3433778Y2233778D01*
X3441221Y2228805D01*
X3445000Y2228054D01*
Y2245000D01*
D02*
G37*
G36*
X3321946D02*
X3305000D01*
Y2228054D01*
X3308779Y2228805D01*
X3316222Y2233778D01*
X3321195Y2241221D01*
X3321946Y2245000D01*
D02*
G37*
G36*
X3295000D02*
X3278054D01*
X3278805Y2241221D01*
X3283778Y2233778D01*
X3291221Y2228805D01*
X3295000Y2228054D01*
Y2245000D01*
D02*
G37*
G36*
X3021946D02*
X3005000D01*
Y2228054D01*
X3008779Y2228805D01*
X3016222Y2233778D01*
X3021195Y2241221D01*
X3021946Y2245000D01*
D02*
G37*
G36*
X2995000D02*
X2978054D01*
X2978805Y2241221D01*
X2983778Y2233778D01*
X2991221Y2228805D01*
X2995000Y2228054D01*
Y2245000D01*
D02*
G37*
G36*
X2871946D02*
X2855000D01*
Y2228054D01*
X2858779Y2228805D01*
X2866222Y2233778D01*
X2871195Y2241221D01*
X2871946Y2245000D01*
D02*
G37*
G36*
X2845000D02*
X2828054D01*
X2828805Y2241221D01*
X2833778Y2233778D01*
X2841221Y2228805D01*
X2845000Y2228054D01*
Y2245000D01*
D02*
G37*
G36*
X2571946D02*
X2555000D01*
Y2228054D01*
X2558779Y2228805D01*
X2566222Y2233778D01*
X2571195Y2241221D01*
X2571946Y2245000D01*
D02*
G37*
G36*
X2545000D02*
X2528054D01*
X2528805Y2241221D01*
X2533778Y2233778D01*
X2541221Y2228805D01*
X2545000Y2228054D01*
Y2245000D01*
D02*
G37*
G36*
X2271946D02*
X2255000D01*
Y2228054D01*
X2258779Y2228805D01*
X2266222Y2233778D01*
X2271195Y2241221D01*
X2271946Y2245000D01*
D02*
G37*
G36*
X2245000D02*
X2228054D01*
X2228805Y2241221D01*
X2233778Y2233778D01*
X2241221Y2228805D01*
X2245000Y2228054D01*
Y2245000D01*
D02*
G37*
G36*
X1971946D02*
X1955000D01*
Y2228054D01*
X1958779Y2228805D01*
X1966222Y2233778D01*
X1971195Y2241221D01*
X1971946Y2245000D01*
D02*
G37*
G36*
X1945000D02*
X1928054D01*
X1928805Y2241221D01*
X1933778Y2233778D01*
X1941221Y2228805D01*
X1945000Y2228054D01*
Y2245000D01*
D02*
G37*
G36*
X2705000Y2254353D02*
X2697168Y2253322D01*
X2689871Y2250300D01*
X2683604Y2245491D01*
X2678795Y2239224D01*
X2675772Y2231926D01*
X2674741Y2224095D01*
X2675772Y2216263D01*
X2677816Y2211329D01*
X2629286Y2162800D01*
X2627076Y2159492D01*
X2626300Y2155590D01*
Y1906753D01*
X2621367Y1904709D01*
X2615100Y1899900D01*
X2610291Y1893633D01*
X2607268Y1886336D01*
X2606237Y1878504D01*
X2607268Y1870672D01*
X2610291Y1863375D01*
X2615100Y1857108D01*
X2621367Y1852299D01*
X2628664Y1849276D01*
X2636496Y1848245D01*
X2644328Y1849276D01*
X2651625Y1852299D01*
X2657892Y1857108D01*
X2662701Y1863375D01*
X2665724Y1870672D01*
X2666755Y1878504D01*
X2665724Y1886336D01*
X2662701Y1893633D01*
X2657892Y1899900D01*
X2651625Y1904709D01*
X2646692Y1906753D01*
Y2151367D01*
X2692235Y2196910D01*
X2697168Y2194867D01*
X2705000Y2193836D01*
X2712832Y2194867D01*
X2720129Y2197890D01*
X2726396Y2202698D01*
X2731205Y2208965D01*
X2734228Y2216263D01*
X2735259Y2224095D01*
X2734228Y2231926D01*
X2731205Y2239224D01*
X2726396Y2245491D01*
X2720129Y2250300D01*
X2712832Y2253322D01*
X2705000Y2254353D01*
D02*
G37*
G36*
X2498740Y2249685D02*
X2331260D01*
Y2188504D01*
X2498740D01*
Y2249685D01*
D02*
G37*
G36*
X4130000Y2121946D02*
Y2105000D01*
X4146946D01*
X4146194Y2108779D01*
X4141222Y2116222D01*
X4133779Y2121195D01*
X4130000Y2121946D01*
D02*
G37*
G36*
X4120000D02*
X4116221Y2121195D01*
X4108778Y2116222D01*
X4103806Y2108779D01*
X4103054Y2105000D01*
X4120000D01*
Y2121946D01*
D02*
G37*
G36*
X3080000D02*
Y2105000D01*
X3096946D01*
X3096195Y2108779D01*
X3091222Y2116222D01*
X3083779Y2121195D01*
X3080000Y2121946D01*
D02*
G37*
G36*
X3070000D02*
X3066221Y2121195D01*
X3058778Y2116222D01*
X3053805Y2108779D01*
X3053054Y2105000D01*
X3070000D01*
Y2121946D01*
D02*
G37*
G36*
X2780000D02*
Y2105000D01*
X2796946D01*
X2796195Y2108779D01*
X2791222Y2116222D01*
X2783779Y2121195D01*
X2780000Y2121946D01*
D02*
G37*
G36*
X2770000D02*
X2766221Y2121195D01*
X2758778Y2116222D01*
X2753805Y2108779D01*
X2753054Y2105000D01*
X2770000D01*
Y2121946D01*
D02*
G37*
G36*
X2330000D02*
Y2105000D01*
X2346946D01*
X2346195Y2108779D01*
X2341222Y2116222D01*
X2333779Y2121195D01*
X2330000Y2121946D01*
D02*
G37*
G36*
X2320000D02*
X2316221Y2121195D01*
X2308778Y2116222D01*
X2303805Y2108779D01*
X2303054Y2105000D01*
X2320000D01*
Y2121946D01*
D02*
G37*
G36*
X2170000D02*
X2166221Y2121195D01*
X2158778Y2116222D01*
X2153805Y2108779D01*
X2153054Y2105000D01*
X2170000D01*
Y2121946D01*
D02*
G37*
G36*
X2265551Y2172008D02*
X2234961D01*
Y2098110D01*
X2265551D01*
Y2172008D01*
D02*
G37*
G36*
X4146946Y2095000D02*
X4130000D01*
Y2078054D01*
X4133779Y2078805D01*
X4141222Y2083778D01*
X4146194Y2091221D01*
X4146946Y2095000D01*
D02*
G37*
G36*
X4120000D02*
X4103054D01*
X4103806Y2091221D01*
X4108778Y2083778D01*
X4116221Y2078805D01*
X4120000Y2078054D01*
Y2095000D01*
D02*
G37*
G36*
X3220000D02*
X3203054D01*
X3203805Y2091221D01*
X3208778Y2083778D01*
X3216221Y2078805D01*
X3220000Y2078054D01*
Y2095000D01*
D02*
G37*
G36*
X3096946D02*
X3080000D01*
Y2078054D01*
X3083779Y2078805D01*
X3091222Y2083778D01*
X3096195Y2091221D01*
X3096946Y2095000D01*
D02*
G37*
G36*
X3070000D02*
X3053054D01*
X3053805Y2091221D01*
X3058778Y2083778D01*
X3066221Y2078805D01*
X3070000Y2078054D01*
Y2095000D01*
D02*
G37*
G36*
X2796946D02*
X2780000D01*
Y2078054D01*
X2783779Y2078805D01*
X2791222Y2083778D01*
X2796195Y2091221D01*
X2796946Y2095000D01*
D02*
G37*
G36*
X2770000D02*
X2753054D01*
X2753805Y2091221D01*
X2758778Y2083778D01*
X2766221Y2078805D01*
X2770000Y2078054D01*
Y2095000D01*
D02*
G37*
G36*
X2346946D02*
X2330000D01*
Y2078054D01*
X2333779Y2078805D01*
X2341222Y2083778D01*
X2346195Y2091221D01*
X2346946Y2095000D01*
D02*
G37*
G36*
X2320000D02*
X2303054D01*
X2303805Y2091221D01*
X2308778Y2083778D01*
X2316221Y2078805D01*
X2320000Y2078054D01*
Y2095000D01*
D02*
G37*
G36*
X2170000D02*
X2153054D01*
X2153805Y2091221D01*
X2158778Y2083778D01*
X2166221Y2078805D01*
X2170000Y2078054D01*
Y2095000D01*
D02*
G37*
G36*
X3778780Y2118504D02*
X3718662D01*
Y2070197D01*
X3778780D01*
Y2118504D01*
D02*
G37*
G36*
X3708662D02*
X3648543D01*
Y2070197D01*
X3708662D01*
Y2118504D01*
D02*
G37*
G36*
X3859331Y2147300D02*
X3849289Y2145978D01*
X3839932Y2142103D01*
X3831898Y2135937D01*
X3825732Y2127902D01*
X3821856Y2118545D01*
X3820534Y2108504D01*
X3821856Y2098463D01*
X3825732Y2089106D01*
X3831898Y2081071D01*
X3839932Y2074905D01*
X3849289Y2071030D01*
X3859331Y2069707D01*
X3869372Y2071030D01*
X3878729Y2074905D01*
X3886764Y2081071D01*
X3892929Y2089106D01*
X3896805Y2098463D01*
X3898127Y2108504D01*
X3896805Y2118545D01*
X3892929Y2127902D01*
X3886764Y2135937D01*
X3878729Y2142103D01*
X3869372Y2145978D01*
X3859331Y2147300D01*
D02*
G37*
G36*
X2930000Y2148737D02*
X2922821Y2147792D01*
X2916131Y2145021D01*
X2910387Y2140613D01*
X2905979Y2134869D01*
X2903208Y2128179D01*
X2902263Y2121000D01*
X2903208Y2113821D01*
X2905979Y2107131D01*
X2909279Y2102831D01*
X2910387Y2099790D01*
Y2081210D01*
X2909279Y2078169D01*
X2905979Y2073869D01*
X2903208Y2067179D01*
X2902263Y2060000D01*
X2903208Y2052821D01*
X2905979Y2046131D01*
X2910387Y2040387D01*
X2916131Y2035979D01*
X2922821Y2033208D01*
X2930000Y2032263D01*
X2937179Y2033208D01*
X2943869Y2035979D01*
X2949613Y2040387D01*
X2954021Y2046131D01*
X2956792Y2052821D01*
X2957737Y2060000D01*
X2956792Y2067179D01*
X2954021Y2073869D01*
X2950721Y2078169D01*
X2949613Y2081210D01*
Y2099790D01*
X2950721Y2102831D01*
X2954021Y2107131D01*
X2956792Y2113821D01*
X2957737Y2121000D01*
X2956792Y2128179D01*
X2954021Y2134869D01*
X2949613Y2140613D01*
X2943869Y2145021D01*
X2937179Y2147792D01*
X2930000Y2148737D01*
D02*
G37*
G36*
X2265551Y2088110D02*
X2234961D01*
Y2014213D01*
X2265551D01*
Y2088110D01*
D02*
G37*
G36*
X2224961Y2172008D02*
X2194370D01*
Y2137927D01*
X2192583Y2135105D01*
X2180000Y2126400D01*
Y2100000D01*
Y2073600D01*
X2192583Y2064895D01*
X2194370Y2062073D01*
Y2014213D01*
X2224961D01*
Y2093110D01*
Y2172008D01*
D02*
G37*
G36*
X2493898Y2010591D02*
X2420000D01*
Y1980000D01*
X2493898D01*
Y2010591D01*
D02*
G37*
G36*
X2410000D02*
X2336102D01*
Y1980000D01*
X2410000D01*
Y2010591D01*
D02*
G37*
G36*
X3778780Y2060197D02*
X3713662D01*
X3648543D01*
Y2017260D01*
X3648543Y2011890D01*
X3653543Y1993961D01*
Y1960196D01*
X3588249D01*
X3586205Y1965129D01*
X3581396Y1971396D01*
X3575129Y1976205D01*
X3567832Y1979228D01*
X3560000Y1980259D01*
X3552168Y1979228D01*
X3544871Y1976205D01*
X3538604Y1971396D01*
X3533795Y1965129D01*
X3530772Y1957832D01*
X3529741Y1950000D01*
X3530772Y1942168D01*
X3533795Y1934871D01*
X3538604Y1928604D01*
X3544871Y1923795D01*
X3552168Y1920772D01*
X3560000Y1919741D01*
X3567832Y1920772D01*
X3575129Y1923795D01*
X3581396Y1928604D01*
X3586205Y1934871D01*
X3588249Y1939804D01*
X3653543D01*
Y1910591D01*
X3773780D01*
Y1993961D01*
X3778780Y2011890D01*
X3778780Y2017260D01*
Y2060197D01*
D02*
G37*
G36*
X4055000Y1971946D02*
Y1955000D01*
X4071946D01*
X4071195Y1958779D01*
X4066222Y1966222D01*
X4058779Y1971195D01*
X4055000Y1971946D01*
D02*
G37*
G36*
X4045000D02*
X4041221Y1971195D01*
X4033778Y1966222D01*
X4028805Y1958779D01*
X4028054Y1955000D01*
X4045000D01*
Y1971946D01*
D02*
G37*
G36*
X3905000D02*
Y1955000D01*
X3921946D01*
X3921195Y1958779D01*
X3916222Y1966222D01*
X3908779Y1971195D01*
X3905000Y1971946D01*
D02*
G37*
G36*
X3895000D02*
X3891221Y1971195D01*
X3883778Y1966222D01*
X3878805Y1958779D01*
X3878054Y1955000D01*
X3895000D01*
Y1971946D01*
D02*
G37*
G36*
X2555000D02*
Y1955000D01*
X2571946D01*
X2571195Y1958779D01*
X2566222Y1966222D01*
X2558779Y1971195D01*
X2555000Y1971946D01*
D02*
G37*
G36*
X2545000D02*
X2541221Y1971195D01*
X2533778Y1966222D01*
X2528805Y1958779D01*
X2528054Y1955000D01*
X2545000D01*
Y1971946D01*
D02*
G37*
G36*
X2255000D02*
Y1955000D01*
X2271946D01*
X2271195Y1958779D01*
X2266222Y1966222D01*
X2258779Y1971195D01*
X2255000Y1971946D01*
D02*
G37*
G36*
X2245000D02*
X2241221Y1971195D01*
X2233778Y1966222D01*
X2228805Y1958779D01*
X2228054Y1955000D01*
X2245000D01*
Y1971946D01*
D02*
G37*
G36*
X2493898Y1970000D02*
X2420000D01*
Y1939409D01*
X2493898D01*
Y1970000D01*
D02*
G37*
G36*
X2410000D02*
X2336102D01*
Y1939409D01*
X2410000D01*
Y1970000D01*
D02*
G37*
G36*
X4071946Y1945000D02*
X4055000D01*
Y1928054D01*
X4058779Y1928805D01*
X4066222Y1933778D01*
X4071195Y1941221D01*
X4071946Y1945000D01*
D02*
G37*
G36*
X4045000D02*
X4028054D01*
X4028805Y1941221D01*
X4033778Y1933778D01*
X4041221Y1928805D01*
X4045000Y1928054D01*
Y1945000D01*
D02*
G37*
G36*
X3921946D02*
X3905000D01*
Y1928054D01*
X3908779Y1928805D01*
X3916222Y1933778D01*
X3921195Y1941221D01*
X3921946Y1945000D01*
D02*
G37*
G36*
X3895000D02*
X3878054D01*
X3878805Y1941221D01*
X3883778Y1933778D01*
X3891221Y1928805D01*
X3895000Y1928054D01*
Y1945000D01*
D02*
G37*
G36*
X2571946D02*
X2555000D01*
Y1928054D01*
X2558779Y1928805D01*
X2566222Y1933778D01*
X2571195Y1941221D01*
X2571946Y1945000D01*
D02*
G37*
G36*
X2545000D02*
X2528054D01*
X2528805Y1941221D01*
X2533778Y1933778D01*
X2541221Y1928805D01*
X2545000Y1928054D01*
Y1945000D01*
D02*
G37*
G36*
X2271946D02*
X2255000D01*
Y1928054D01*
X2258779Y1928805D01*
X2266222Y1933778D01*
X2271195Y1941221D01*
X2271946Y1945000D01*
D02*
G37*
G36*
X2245000D02*
X2228054D01*
X2228805Y1941221D01*
X2233778Y1933778D01*
X2241221Y1928805D01*
X2245000Y1928054D01*
Y1945000D01*
D02*
G37*
G36*
X3680000Y1821946D02*
Y1805000D01*
X3696946D01*
X3696195Y1808779D01*
X3691222Y1816222D01*
X3683779Y1821195D01*
X3680000Y1821946D01*
D02*
G37*
G36*
X3670000D02*
X3666221Y1821195D01*
X3658778Y1816222D01*
X3653805Y1808779D01*
X3653054Y1805000D01*
X3670000D01*
Y1821946D01*
D02*
G37*
G36*
X3530000D02*
Y1805000D01*
X3546946D01*
X3546195Y1808779D01*
X3541222Y1816222D01*
X3533779Y1821195D01*
X3530000Y1821946D01*
D02*
G37*
G36*
X3520000D02*
X3516221Y1821195D01*
X3508778Y1816222D01*
X3503805Y1808779D01*
X3503054Y1805000D01*
X3520000D01*
Y1821946D01*
D02*
G37*
G36*
X3230000D02*
Y1805000D01*
X3246946D01*
X3246195Y1808779D01*
X3241222Y1816222D01*
X3233779Y1821195D01*
X3230000Y1821946D01*
D02*
G37*
G36*
X3220000D02*
X3216221Y1821195D01*
X3208778Y1816222D01*
X3203805Y1808779D01*
X3203054Y1805000D01*
X3220000D01*
Y1821946D01*
D02*
G37*
G36*
X3080000D02*
Y1805000D01*
X3096946D01*
X3096195Y1808779D01*
X3091222Y1816222D01*
X3083779Y1821195D01*
X3080000Y1821946D01*
D02*
G37*
G36*
X3070000D02*
X3066221Y1821195D01*
X3058778Y1816222D01*
X3053805Y1808779D01*
X3053054Y1805000D01*
X3070000D01*
Y1821946D01*
D02*
G37*
G36*
X2780000D02*
Y1805000D01*
X2796946D01*
X2796195Y1808779D01*
X2791222Y1816222D01*
X2783779Y1821195D01*
X2780000Y1821946D01*
D02*
G37*
G36*
X2770000D02*
X2766221Y1821195D01*
X2758778Y1816222D01*
X2753805Y1808779D01*
X2753054Y1805000D01*
X2770000D01*
Y1821946D01*
D02*
G37*
G36*
X2630000D02*
Y1805000D01*
X2646946D01*
X2646195Y1808779D01*
X2641222Y1816222D01*
X2633779Y1821195D01*
X2630000Y1821946D01*
D02*
G37*
G36*
X2620000D02*
X2616221Y1821195D01*
X2608778Y1816222D01*
X2603805Y1808779D01*
X2603054Y1805000D01*
X2620000D01*
Y1821946D01*
D02*
G37*
G36*
X2480000D02*
Y1805000D01*
X2496946D01*
X2496195Y1808779D01*
X2491222Y1816222D01*
X2483779Y1821195D01*
X2480000Y1821946D01*
D02*
G37*
G36*
X2470000D02*
X2466221Y1821195D01*
X2458778Y1816222D01*
X2453805Y1808779D01*
X2453054Y1805000D01*
X2470000D01*
Y1821946D01*
D02*
G37*
G36*
X3696946Y1795000D02*
X3680000D01*
Y1778054D01*
X3683779Y1778805D01*
X3691222Y1783778D01*
X3696195Y1791221D01*
X3696946Y1795000D01*
D02*
G37*
G36*
X3670000D02*
X3653054D01*
X3653805Y1791221D01*
X3658778Y1783778D01*
X3666221Y1778805D01*
X3670000Y1778054D01*
Y1795000D01*
D02*
G37*
G36*
X3546946D02*
X3530000D01*
Y1778054D01*
X3533779Y1778805D01*
X3541222Y1783778D01*
X3546195Y1791221D01*
X3546946Y1795000D01*
D02*
G37*
G36*
X3520000D02*
X3503054D01*
X3503805Y1791221D01*
X3508778Y1783778D01*
X3516221Y1778805D01*
X3520000Y1778054D01*
Y1795000D01*
D02*
G37*
G36*
X3246946D02*
X3230000D01*
Y1778054D01*
X3233779Y1778805D01*
X3241222Y1783778D01*
X3246195Y1791221D01*
X3246946Y1795000D01*
D02*
G37*
G36*
X3220000D02*
X3203054D01*
X3203805Y1791221D01*
X3208778Y1783778D01*
X3216221Y1778805D01*
X3220000Y1778054D01*
Y1795000D01*
D02*
G37*
G36*
X3096946D02*
X3080000D01*
Y1778054D01*
X3083779Y1778805D01*
X3091222Y1783778D01*
X3096195Y1791221D01*
X3096946Y1795000D01*
D02*
G37*
G36*
X3070000D02*
X3053054D01*
X3053805Y1791221D01*
X3058778Y1783778D01*
X3066221Y1778805D01*
X3070000Y1778054D01*
Y1795000D01*
D02*
G37*
G36*
X2796946D02*
X2780000D01*
Y1778054D01*
X2783779Y1778805D01*
X2791222Y1783778D01*
X2796195Y1791221D01*
X2796946Y1795000D01*
D02*
G37*
G36*
X2770000D02*
X2753054D01*
X2753805Y1791221D01*
X2758778Y1783778D01*
X2766221Y1778805D01*
X2770000Y1778054D01*
Y1795000D01*
D02*
G37*
G36*
X2646946D02*
X2630000D01*
Y1778054D01*
X2633779Y1778805D01*
X2641222Y1783778D01*
X2646195Y1791221D01*
X2646946Y1795000D01*
D02*
G37*
G36*
X2620000D02*
X2603054D01*
X2603805Y1791221D01*
X2608778Y1783778D01*
X2616221Y1778805D01*
X2620000Y1778054D01*
Y1795000D01*
D02*
G37*
G36*
X2496946D02*
X2480000D01*
Y1778054D01*
X2483779Y1778805D01*
X2491222Y1783778D01*
X2496195Y1791221D01*
X2496946Y1795000D01*
D02*
G37*
G36*
X2470000D02*
X2453054D01*
X2453805Y1791221D01*
X2458778Y1783778D01*
X2466221Y1778805D01*
X2470000Y1778054D01*
Y1795000D01*
D02*
G37*
G36*
X3400000Y1868324D02*
X3386866Y1867031D01*
X3374236Y1863199D01*
X3362597Y1856978D01*
X3352395Y1848605D01*
X3344022Y1838403D01*
X3337800Y1826764D01*
X3333969Y1814134D01*
X3332676Y1801000D01*
X3333969Y1787866D01*
X3337800Y1775236D01*
X3344022Y1763597D01*
X3352395Y1753395D01*
X3362597Y1745022D01*
X3374236Y1738801D01*
X3386866Y1734969D01*
X3400000Y1733676D01*
X3413134Y1734969D01*
X3425764Y1738801D01*
X3437403Y1745022D01*
X3447605Y1753395D01*
X3455978Y1763597D01*
X3462200Y1775236D01*
X3466031Y1787866D01*
X3467324Y1801000D01*
X3466031Y1814134D01*
X3462200Y1826764D01*
X3455978Y1838403D01*
X3447605Y1848605D01*
X3437403Y1856978D01*
X3425764Y1863199D01*
X3413134Y1867031D01*
X3400000Y1868324D01*
D02*
G37*
G36*
X2900000D02*
X2886866Y1867031D01*
X2874236Y1863199D01*
X2862597Y1856978D01*
X2852395Y1848605D01*
X2844022Y1838403D01*
X2837800Y1826764D01*
X2833969Y1814134D01*
X2832676Y1801000D01*
X2833969Y1787866D01*
X2837800Y1775236D01*
X2844022Y1763597D01*
X2852395Y1753395D01*
X2862597Y1745022D01*
X2874236Y1738801D01*
X2886866Y1734969D01*
X2900000Y1733676D01*
X2913134Y1734969D01*
X2925764Y1738801D01*
X2937403Y1745022D01*
X2947605Y1753395D01*
X2955978Y1763597D01*
X2962200Y1775236D01*
X2966031Y1787866D01*
X2967324Y1801000D01*
X2966031Y1814134D01*
X2962200Y1826764D01*
X2955978Y1838403D01*
X2947605Y1848605D01*
X2937403Y1856978D01*
X2925764Y1863199D01*
X2913134Y1867031D01*
X2900000Y1868324D01*
D02*
G37*
G36*
X3155000Y1671946D02*
Y1655000D01*
X3171946D01*
X3171195Y1658779D01*
X3166222Y1666222D01*
X3158779Y1671195D01*
X3155000Y1671946D01*
D02*
G37*
G36*
X3145000D02*
X3141221Y1671195D01*
X3133778Y1666222D01*
X3128805Y1658779D01*
X3128054Y1655000D01*
X3145000D01*
Y1671946D01*
D02*
G37*
G36*
X3472000Y1712815D02*
X3462472Y1711561D01*
X3453593Y1707883D01*
X3445968Y1702032D01*
X3440117Y1694408D01*
X3436439Y1685528D01*
X3435185Y1676000D01*
X3436439Y1666472D01*
X3440117Y1657592D01*
X3445968Y1649968D01*
X3453593Y1644117D01*
X3462472Y1640439D01*
X3472000Y1639185D01*
X3481528Y1640439D01*
X3490407Y1644117D01*
X3498032Y1649968D01*
X3503883Y1657592D01*
X3507561Y1666472D01*
X3508815Y1676000D01*
X3507561Y1685528D01*
X3503883Y1694408D01*
X3498032Y1702032D01*
X3490407Y1707883D01*
X3481528Y1711561D01*
X3472000Y1712815D01*
D02*
G37*
G36*
X2828000D02*
X2818472Y1711561D01*
X2809593Y1707883D01*
X2801968Y1702032D01*
X2796117Y1694408D01*
X2792439Y1685528D01*
X2791185Y1676000D01*
X2792439Y1666472D01*
X2796117Y1657592D01*
X2801968Y1649968D01*
X2809593Y1644117D01*
X2818472Y1640439D01*
X2828000Y1639185D01*
X2837528Y1640439D01*
X2846407Y1644117D01*
X2854032Y1649968D01*
X2859883Y1657592D01*
X2863561Y1666472D01*
X2864815Y1676000D01*
X2863561Y1685528D01*
X2859883Y1694408D01*
X2854032Y1702032D01*
X2846407Y1707883D01*
X2837528Y1711561D01*
X2828000Y1712815D01*
D02*
G37*
G36*
X3171946Y1645000D02*
X3155000D01*
Y1628054D01*
X3158779Y1628805D01*
X3166222Y1633778D01*
X3171195Y1641221D01*
X3171946Y1645000D01*
D02*
G37*
G36*
X3145000D02*
X3128054D01*
X3128805Y1641221D01*
X3133778Y1633778D01*
X3141221Y1628805D01*
X3145000Y1628054D01*
Y1645000D01*
D02*
G37*
%LPD*%
D25*
X4248554Y3389606D02*
X4275315Y3362845D01*
Y3305000D02*
Y3362845D01*
Y3305000D02*
X4330709Y3249606D01*
X4009606Y3389606D02*
X4248554D01*
X2636496Y2155590D02*
X2705000Y2224095D01*
X2636496Y1878504D02*
Y2155590D01*
X2975000Y4455000D02*
X3355000D01*
X2565000Y2900000D02*
X2575000D01*
X2250000Y3860000D02*
Y3971811D01*
X2443189Y4165000D01*
X3708701Y1950000D02*
X3713661Y1954961D01*
X3560000Y1950000D02*
X3708701D01*
X2795000Y4275000D02*
X2975000Y4455000D01*
X2370000Y4275000D02*
X2795000D01*
X1780000Y3685000D02*
X2370000Y4275000D01*
X1780000Y3038110D02*
Y3685000D01*
Y3038110D02*
X1868504Y2949606D01*
X4230709Y2560000D02*
Y2949606D01*
X3795276Y2435276D02*
X3885000Y2525000D01*
X3717598Y2435276D02*
X3795276D01*
X4005000Y2650000D02*
X4081782Y2726782D01*
X4005000Y2140000D02*
Y2650000D01*
X2120000Y4236940D02*
X2218060Y4335000D01*
X2538583D01*
X2718583Y4515000D01*
X4081782Y2726782D02*
Y2900679D01*
X4230709Y3049606D01*
X4124606Y3249606D02*
X4230709D01*
X3680000Y2805000D02*
X4124606Y3249606D01*
X3680000Y2616322D02*
Y2805000D01*
X4179606Y3349606D02*
X4230709D01*
X3655000Y2825000D02*
X4179606Y3349606D01*
X3655000Y2619606D02*
Y2825000D01*
X3503678Y2440000D02*
X3680000Y2616322D01*
X3495394Y2460000D02*
X3655000Y2619606D01*
X3287000Y2440000D02*
X3503678D01*
X3347000Y2460000D02*
X3495394D01*
X3310000Y2497000D02*
X3347000Y2460000D01*
X3230000Y2497000D02*
X3287000Y2440000D01*
X2080000Y3055000D02*
X2235000Y3210000D01*
X2080000Y2782165D02*
Y3055000D01*
X3630000Y4300000D02*
Y4410000D01*
X3525000Y4515000D02*
X3630000Y4410000D01*
X2718583Y4515000D02*
X3525000D01*
X3630000Y4300000D02*
X4425000Y3505000D01*
Y3145000D02*
Y3505000D01*
X4385000Y3105000D02*
X4425000Y3145000D01*
X4275315Y3105000D02*
X4385000D01*
X4230709Y3149606D02*
X4275315Y3105000D01*
X3290000Y2597000D02*
X3348000Y2655000D01*
X3495000D01*
X3565000Y2725000D01*
Y2945000D01*
X4009606Y3389606D01*
X2575000Y2900000D02*
X2675000Y3000000D01*
X2885000D01*
X2985000Y2900000D01*
X3145000D01*
X2325000Y2720000D02*
X2475000Y2570000D01*
X2325000Y2720000D02*
Y3323189D01*
D26*
X1915000Y3665000D02*
X2050157Y3800157D01*
X1915000Y3095000D02*
Y3665000D01*
Y3095000D02*
X1960394Y3049606D01*
X2050157Y3800157D02*
X2590000D01*
X1960394Y3049606D02*
X1968504D01*
X2955000Y3800157D02*
X2960000Y3795157D01*
X3340000D01*
X2590000Y3800157D02*
X2955000D01*
X2410000Y2224095D02*
X2415000Y2219095D01*
X3145000Y2900000D02*
X3445000D01*
X3125000Y2880000D02*
X3145000Y2900000D01*
X3125000Y2485000D02*
Y2880000D01*
X3070000Y2430000D02*
X3125000Y2485000D01*
X3070000Y2310000D02*
Y2430000D01*
Y2310000D02*
X3259000Y2121000D01*
X3370000D01*
Y2060000D02*
Y2121000D01*
D27*
X2664997Y2385000D02*
D03*
X3864997Y3695000D02*
D03*
X2334997Y3525000D02*
D03*
X1984283Y4123060D02*
D03*
X2120000Y4236940D02*
D03*
X3230000Y2497000D02*
D03*
X3310000D02*
D03*
X3390000D02*
D03*
X3070000D02*
D03*
X2990000D02*
D03*
X2910000D02*
D03*
X2950000Y2397000D02*
D03*
X3030000D02*
D03*
X3110000D02*
D03*
X3190000D02*
D03*
X3270000D02*
D03*
X3350000D02*
D03*
X2718583Y4515000D02*
D03*
X2541417D02*
D03*
X3243189Y4665000D02*
D03*
X3066023D02*
D03*
X3763583Y4515000D02*
D03*
X3586417D02*
D03*
X4312858Y4123060D02*
D03*
X4177142Y4236940D02*
D03*
X4330709Y2949606D02*
D03*
Y3049606D02*
D03*
Y3149606D02*
D03*
Y3249606D02*
D03*
X4325709Y3349606D02*
D03*
X4230709D02*
D03*
Y3249606D02*
D03*
Y3149606D02*
D03*
Y3049606D02*
D03*
Y2949606D02*
D03*
X1968504D02*
D03*
Y3049606D02*
D03*
Y3149606D02*
D03*
Y3249606D02*
D03*
X1963504Y3349606D02*
D03*
X1868504D02*
D03*
Y3249606D02*
D03*
Y3149606D02*
D03*
Y3049606D02*
D03*
Y2949606D02*
D03*
D28*
X3859331Y2108504D02*
D03*
Y2384095D02*
D03*
D29*
X2009851Y4016029D02*
D03*
X2220965Y4193175D02*
D03*
X2767795Y4416575D02*
D03*
X2492205D02*
D03*
X3292401Y4566575D02*
D03*
X3016811D02*
D03*
X3812795Y4416575D02*
D03*
X3537205D02*
D03*
X4287291Y4016029D02*
D03*
X4076176Y4193175D02*
D03*
D30*
X2930000Y2121000D02*
D03*
X3370000D02*
D03*
X2930000Y2060000D02*
D03*
X3370000D02*
D03*
D31*
X2910000Y2597000D02*
D03*
X3010000D02*
D03*
X3290000D02*
D03*
X3390000D02*
D03*
D32*
X2900000Y1801000D02*
D03*
X3400000D02*
D03*
D33*
X2828000Y1676000D02*
D03*
X3472000D02*
D03*
D34*
X2845000Y3437000D02*
D03*
X3445000D02*
D03*
D35*
X2995000D02*
D03*
X3145000D02*
D03*
X3295000D02*
D03*
X2845000Y2900000D02*
D03*
X3145000D02*
D03*
X3445000D02*
D03*
D36*
X2229961Y2093110D02*
D03*
D37*
X2415000Y1975000D02*
D03*
D38*
Y2219095D02*
D03*
D39*
X4500000Y3750000D02*
D03*
X4575000Y3600000D02*
D03*
X4500000Y3450000D02*
D03*
X4575000Y3300000D02*
D03*
X4500000Y3150000D02*
D03*
X4575000Y3000000D02*
D03*
X4500000Y2850000D02*
D03*
X4575000Y2700000D02*
D03*
X4500000Y2550000D02*
D03*
X4425000Y3900000D02*
D03*
X4350000Y3750000D02*
D03*
X4425000Y3600000D02*
D03*
X4350000Y3450000D02*
D03*
X4425000Y3000000D02*
D03*
Y2700000D02*
D03*
X4350000Y2550000D02*
D03*
X4425000Y2400000D02*
D03*
X4350000Y2250000D02*
D03*
X4200000Y4050000D02*
D03*
X4275000Y3900000D02*
D03*
X4200000Y3450000D02*
D03*
Y2850000D02*
D03*
X4275000Y2700000D02*
D03*
Y2400000D02*
D03*
X4050000Y4050000D02*
D03*
X4125000Y3900000D02*
D03*
X4050000Y3750000D02*
D03*
X4125000Y3600000D02*
D03*
X4050000Y3450000D02*
D03*
X4125000Y3000000D02*
D03*
X4050000Y2850000D02*
D03*
X4125000Y2700000D02*
D03*
X4050000Y2550000D02*
D03*
X4125000Y2400000D02*
D03*
Y2100000D02*
D03*
X4050000Y1950000D02*
D03*
X3900000Y4350000D02*
D03*
X3975000Y4200000D02*
D03*
Y3600000D02*
D03*
X3900000Y3450000D02*
D03*
X3975000Y3300000D02*
D03*
X3900000Y3150000D02*
D03*
X3975000Y3000000D02*
D03*
X3900000Y2850000D02*
D03*
X3975000Y2700000D02*
D03*
Y2400000D02*
D03*
X3900000Y1950000D02*
D03*
X3750000Y4350000D02*
D03*
Y4050000D02*
D03*
X3825000Y3900000D02*
D03*
X3750000Y3750000D02*
D03*
X3825000Y3600000D02*
D03*
X3750000Y3450000D02*
D03*
X3825000Y3300000D02*
D03*
Y2700000D02*
D03*
X3750000Y2550000D02*
D03*
X3675000Y4500000D02*
D03*
X3600000Y4350000D02*
D03*
X3675000Y4200000D02*
D03*
Y3900000D02*
D03*
X3600000Y3750000D02*
D03*
X3675000Y3600000D02*
D03*
X3600000Y3450000D02*
D03*
X3675000Y3300000D02*
D03*
X3600000Y3150000D02*
D03*
Y2850000D02*
D03*
X3675000Y1800000D02*
D03*
X3450000Y4350000D02*
D03*
X3525000Y4200000D02*
D03*
Y3900000D02*
D03*
Y3600000D02*
D03*
Y3300000D02*
D03*
X3450000Y3150000D02*
D03*
X3525000Y3000000D02*
D03*
X3450000Y2550000D02*
D03*
X3525000Y2400000D02*
D03*
X3450000Y2250000D02*
D03*
X3525000Y1800000D02*
D03*
X3300000Y4350000D02*
D03*
X3375000Y4200000D02*
D03*
Y3600000D02*
D03*
Y3300000D02*
D03*
X3300000Y3150000D02*
D03*
X3375000Y3000000D02*
D03*
X3300000Y2850000D02*
D03*
X3375000Y2700000D02*
D03*
X3300000Y2550000D02*
D03*
Y2250000D02*
D03*
X3150000Y4350000D02*
D03*
X3225000Y4200000D02*
D03*
X3150000Y4050000D02*
D03*
Y3750000D02*
D03*
X3225000Y3600000D02*
D03*
Y3300000D02*
D03*
X3150000Y3150000D02*
D03*
X3225000Y3000000D02*
D03*
Y2100000D02*
D03*
Y1800000D02*
D03*
X3150000Y1650000D02*
D03*
X3000000Y4350000D02*
D03*
X3075000Y4200000D02*
D03*
Y3900000D02*
D03*
Y3600000D02*
D03*
Y3300000D02*
D03*
X3000000Y3150000D02*
D03*
Y2850000D02*
D03*
X3075000Y2700000D02*
D03*
X3000000Y2550000D02*
D03*
Y2250000D02*
D03*
X3075000Y2100000D02*
D03*
Y1800000D02*
D03*
X2925000Y4200000D02*
D03*
Y3900000D02*
D03*
X2850000Y3750000D02*
D03*
X2925000Y3600000D02*
D03*
Y3300000D02*
D03*
X2850000Y3150000D02*
D03*
X2925000Y3000000D02*
D03*
Y2700000D02*
D03*
X2850000Y2250000D02*
D03*
X2775000Y4200000D02*
D03*
Y3900000D02*
D03*
X2700000Y3750000D02*
D03*
X2775000Y3600000D02*
D03*
X2700000Y3450000D02*
D03*
X2775000Y3300000D02*
D03*
X2700000Y3150000D02*
D03*
Y2850000D02*
D03*
X2775000Y2700000D02*
D03*
X2700000Y2550000D02*
D03*
X2775000Y2400000D02*
D03*
Y2100000D02*
D03*
Y1800000D02*
D03*
X2625000Y4500000D02*
D03*
Y4200000D02*
D03*
Y3900000D02*
D03*
Y3600000D02*
D03*
Y3000000D02*
D03*
X2550000Y2850000D02*
D03*
X2625000Y2700000D02*
D03*
X2550000Y2250000D02*
D03*
Y1950000D02*
D03*
X2625000Y1800000D02*
D03*
X2475000Y4500000D02*
D03*
X2400000Y4050000D02*
D03*
X2475000Y3900000D02*
D03*
X2400000Y3750000D02*
D03*
X2475000Y3600000D02*
D03*
X2400000Y3450000D02*
D03*
X2475000Y3300000D02*
D03*
X2400000Y3150000D02*
D03*
X2475000Y3000000D02*
D03*
X2400000Y2850000D02*
D03*
X2475000Y2700000D02*
D03*
X2400000Y2550000D02*
D03*
X2475000Y2400000D02*
D03*
Y1800000D02*
D03*
X2250000Y4050000D02*
D03*
Y3450000D02*
D03*
Y2850000D02*
D03*
Y2250000D02*
D03*
X2325000Y2100000D02*
D03*
X2250000Y1950000D02*
D03*
X2100000Y3450000D02*
D03*
X2175000Y3300000D02*
D03*
X2100000Y3150000D02*
D03*
X2175000Y3000000D02*
D03*
Y2700000D02*
D03*
Y2400000D02*
D03*
Y2100000D02*
D03*
X1950000Y4050000D02*
D03*
Y3750000D02*
D03*
Y3450000D02*
D03*
X2025000Y3000000D02*
D03*
X1950000Y2250000D02*
D03*
X1875000Y3900000D02*
D03*
X1800000Y3750000D02*
D03*
X1875000Y3600000D02*
D03*
Y3300000D02*
D03*
Y3000000D02*
D03*
X1800000Y2850000D02*
D03*
X1875000Y2700000D02*
D03*
X1800000Y2550000D02*
D03*
X1875000Y2400000D02*
D03*
X1725000Y3600000D02*
D03*
Y3300000D02*
D03*
X1650000Y3150000D02*
D03*
X1725000Y3000000D02*
D03*
Y2700000D02*
D03*
X2260000Y2377795D02*
D03*
X2695000Y4137816D02*
D03*
X2675000Y4350000D02*
D03*
D40*
X2705000Y2224095D02*
D03*
X2636496Y1878504D02*
D03*
X3355000Y4455000D02*
D03*
X2565000Y2900000D02*
D03*
X2250000Y3860000D02*
D03*
X2443189Y4165000D02*
D03*
X3560000Y1950000D02*
D03*
X4230709Y2560000D02*
D03*
X3885000Y2525000D02*
D03*
X2235000Y3210000D02*
D03*
X2475000Y2570000D02*
D03*
X2325000Y3323189D02*
D03*
D41*
X3713661Y1954961D02*
D03*
D42*
X3717598Y2435276D02*
D03*
D43*
X4005000Y2140000D02*
D03*
X3713661Y2065197D02*
D03*
D44*
X2080000Y2782165D02*
D03*
Y2427835D02*
D03*
D45*
X2590000Y4069843D02*
D03*
Y3800157D02*
D03*
X2960000Y4064843D02*
D03*
Y3795157D02*
D03*
X3340000Y4064843D02*
D03*
Y3795157D02*
D03*
%TF.MD5,a24f053e19aa4456b99f32a9cb054ddf*%
M02*
