%TF.GenerationSoftware,Altium Limited,Altium Designer,18.1.6 (161)*%
G04 Layer_Color=32768*
%FSLAX26Y26*%
%MOIN*%
%TF.FileFunction,Other,Mechanical_15*%
%TF.Part,Single*%
G01*
G75*
%TA.AperFunction,NonConductor*%
%ADD70C,0.003937*%
%ADD88C,0.001968*%
D70*
X2863570Y3830000D02*
X2899003D01*
X2881287Y3812284D02*
Y3847716D01*
X2160000Y2305315D02*
Y2344685D01*
X2140315Y2325000D02*
X2179685D01*
X3620000Y2205315D02*
Y2244685D01*
X3600315Y2225000D02*
X3639685D01*
X2556968Y2625315D02*
Y2664685D01*
X2537283Y2645000D02*
X2576653D01*
X2210315Y3015000D02*
X2249685D01*
X2230000Y2995315D02*
Y3034685D01*
X2080000Y2585315D02*
Y2624685D01*
X2060315Y2605000D02*
X2099685D01*
X2570315Y3935000D02*
X2609685D01*
X2590000Y3915315D02*
Y3954685D01*
X2940315Y3930000D02*
X2979685D01*
X2960000Y3910315D02*
Y3949685D01*
X3320315Y3930000D02*
X3359685D01*
X3340000Y3910315D02*
Y3949685D01*
X2385315Y2645000D02*
X2424685D01*
X2405000Y2625315D02*
Y2664685D01*
X2100315Y3910000D02*
X2139685D01*
X2120000Y3890315D02*
Y3929685D01*
X2550433Y4295000D02*
X2589803D01*
X2570118Y4275315D02*
Y4314685D01*
X3085315Y4455000D02*
X3124685D01*
X3105000Y4435315D02*
Y4474685D01*
X3430000Y4405315D02*
Y4444685D01*
X3410315Y4425000D02*
X3449685D01*
X3845312Y4193175D02*
X3884682D01*
X3864997Y4173490D02*
Y4212860D01*
X2395315Y1975000D02*
X2434685D01*
X2415000Y1955315D02*
Y1994685D01*
D88*
X2932468Y3800472D02*
Y3859528D01*
X2830106Y3800472D02*
Y3859528D01*
Y3800472D02*
X2932468D01*
X2830106Y3859528D02*
X2932468D01*
X2074764Y2350945D02*
X2133819D01*
X2074764Y2469055D02*
X2133819D01*
X2074764Y2350945D02*
Y2469055D01*
X2133819Y2350945D02*
Y2469055D01*
X2104291Y2391299D02*
Y2428701D01*
X2085591Y2410000D02*
X2122992D01*
X2691299Y2030000D02*
X2728701D01*
X2710000Y2011299D02*
Y2048701D01*
X2739528Y1970945D02*
Y2089055D01*
X2680472Y1970945D02*
Y2089055D01*
X2739528D01*
X2680472Y1970945D02*
X2739528D01*
X2691299Y1910000D02*
X2728701D01*
X2710000Y1891299D02*
Y1928701D01*
X2739528Y1850945D02*
Y1969055D01*
X2680472Y1850945D02*
Y1969055D01*
X2739528D01*
X2680472Y1850945D02*
X2739528D01*
X2085197Y2353543D02*
X2234803D01*
Y2296457D02*
Y2353543D01*
X2085197Y2296457D02*
Y2353543D01*
Y2296457D02*
X2234803D01*
X3576693Y2289961D02*
X3663307D01*
X3576693Y2160039D02*
X3663307D01*
Y2289961D01*
X3576693Y2160039D02*
Y2289961D01*
X2501850Y2615472D02*
X2612087D01*
X2501850Y2674528D02*
X2612087D01*
Y2615472D02*
Y2674528D01*
X2501850Y2615472D02*
Y2674528D01*
X2155197Y2875236D02*
Y3154764D01*
X2304803Y2875236D02*
Y3154764D01*
X2155197Y2875236D02*
X2304803D01*
X2155197Y3154764D02*
X2304803D01*
X1863465Y2870748D02*
X2296535D01*
X1863465Y2339252D02*
X2296535D01*
X1863465D02*
Y2870748D01*
X2296535Y2339252D02*
Y2870748D01*
X2412835Y3722402D02*
Y4147598D01*
X2767165Y3722402D02*
Y4147598D01*
X2412835D02*
X2767165D01*
X2412835Y3722402D02*
X2767165D01*
X2782835Y3717402D02*
Y4142598D01*
X3137165Y3717402D02*
Y4142598D01*
X2782835D02*
X3137165D01*
X2782835Y3717402D02*
X3137165D01*
X3162835D02*
Y4142598D01*
X3517165Y3717402D02*
Y4142598D01*
X3162835D02*
X3517165D01*
X3162835Y3717402D02*
X3517165D01*
X2349882Y2615472D02*
Y2674528D01*
X2460118Y2615472D02*
Y2674528D01*
X2349882D02*
X2460118D01*
X2349882Y2615472D02*
X2460118D01*
X2175118Y3880472D02*
Y3939528D01*
X2064882Y3880472D02*
Y3939528D01*
Y3880472D02*
X2175118D01*
X2064882Y3939528D02*
X2175118D01*
X2625236Y4265472D02*
Y4324528D01*
X2515000Y4265472D02*
Y4324528D01*
Y4265472D02*
X2625236D01*
X2515000Y4324528D02*
X2625236D01*
X3049882Y4425472D02*
Y4484528D01*
X3160118Y4425472D02*
Y4484528D01*
X3049882D02*
X3160118D01*
X3049882Y4425472D02*
X3160118D01*
X3400472Y4480118D02*
X3459528D01*
X3400472Y4369882D02*
X3459528D01*
Y4480118D01*
X3400472Y4369882D02*
Y4480118D01*
X3920115Y4163648D02*
Y4222703D01*
X3809879Y4163648D02*
Y4222703D01*
Y4163648D02*
X3920115D01*
X3809879Y4222703D02*
X3920115D01*
X2647835Y3068347D02*
Y3111654D01*
X2557284Y3068347D02*
Y3111654D01*
Y3068347D02*
X2647835D01*
X2557284Y3111654D02*
X2647835D01*
X2583858Y3090000D02*
X2621260D01*
X2602559Y3071299D02*
Y3108701D01*
X2540276Y3033346D02*
Y3076653D01*
X2449724Y3033346D02*
Y3076653D01*
Y3033346D02*
X2540276D01*
X2449724Y3076653D02*
X2540276D01*
X2476299Y3055000D02*
X2513701D01*
X2495000Y3036299D02*
Y3073701D01*
X2200433Y2248622D02*
X2596102D01*
X2200433Y1667913D02*
Y2248622D01*
Y1667913D02*
X2596102D01*
Y2248622D01*
X2393347Y2970276D02*
X2436654D01*
X2393347Y2879724D02*
X2436654D01*
Y2970276D01*
X2393347Y2879724D02*
Y2970276D01*
X2415000Y2906299D02*
Y2943701D01*
X2396299Y2925000D02*
X2433701D01*
%TF.MD5,b95602f98d6e84d610a3708e00346f6e*%
M02*
