%TF.GenerationSoftware,Altium Limited,Altium Designer,18.1.6 (161)*%
G04 Layer_Color=255*
%FSLAX25Y25*%
%MOIN*%
%TF.FileFunction,Pads,Top*%
%TF.Part,Single*%
G01*
G75*
%TA.AperFunction,SMDPad,CuDef*%
%ADD12R,0.02756X0.03543*%
%ADD13R,0.05118X0.03347*%
%ADD14R,0.01772X0.02953*%
%ADD15R,0.05315X0.03740*%
%ADD16R,0.03150X0.02362*%
%ADD17R,0.03937X0.03543*%
%ADD18R,0.02362X0.03150*%
%ADD19R,0.04331X0.04921*%
%ADD20R,0.03543X0.03937*%
%ADD21R,0.04724X0.04724*%
%ADD22R,0.04921X0.04331*%
%ADD23R,0.03347X0.05118*%
%ADD24R,0.05984X0.02362*%
%ADD25R,0.03543X0.02756*%
%ADD26R,0.22047X0.08268*%
%ADD27R,0.01181X0.04724*%
%ADD28R,0.04724X0.01181*%
%ADD29R,0.06693X0.03150*%
G04:AMPARAMS|DCode=30|XSize=9.84mil|YSize=49.21mil|CornerRadius=1.97mil|HoleSize=0mil|Usage=FLASHONLY|Rotation=90.000|XOffset=0mil|YOffset=0mil|HoleType=Round|Shape=RoundedRectangle|*
%AMROUNDEDRECTD30*
21,1,0.00984,0.04528,0,0,90.0*
21,1,0.00591,0.04921,0,0,90.0*
1,1,0.00394,0.02264,0.00295*
1,1,0.00394,0.02264,-0.00295*
1,1,0.00394,-0.02264,-0.00295*
1,1,0.00394,-0.02264,0.00295*
%
%ADD30ROUNDEDRECTD30*%
G04:AMPARAMS|DCode=31|XSize=9.84mil|YSize=49.21mil|CornerRadius=1.97mil|HoleSize=0mil|Usage=FLASHONLY|Rotation=180.000|XOffset=0mil|YOffset=0mil|HoleType=Round|Shape=RoundedRectangle|*
%AMROUNDEDRECTD31*
21,1,0.00984,0.04528,0,0,180.0*
21,1,0.00591,0.04921,0,0,180.0*
1,1,0.00394,-0.00295,0.02264*
1,1,0.00394,0.00295,0.02264*
1,1,0.00394,0.00295,-0.02264*
1,1,0.00394,-0.00295,-0.02264*
%
%ADD31ROUNDEDRECTD31*%
%TA.AperFunction,ComponentPad*%
%ADD35C,0.05000*%
%ADD36C,0.05906*%
%ADD37O,0.08110X0.08110*%
D12*
X184634Y344500D02*
D03*
X179122D02*
D03*
X315256Y324000D02*
D03*
X309744D02*
D03*
X327256Y276839D02*
D03*
X321744D02*
D03*
X327256Y287933D02*
D03*
X321744D02*
D03*
X327256Y299027D02*
D03*
X321744D02*
D03*
X327256Y310122D02*
D03*
X321744D02*
D03*
X327256Y321217D02*
D03*
X321744D02*
D03*
X327256Y332311D02*
D03*
X321744D02*
D03*
X327256Y354500D02*
D03*
X321744D02*
D03*
X327256Y343406D02*
D03*
X321744D02*
D03*
X297244Y381000D02*
D03*
X302756D02*
D03*
X292768Y381000D02*
D03*
X287256D02*
D03*
D13*
X374108Y276654D02*
D03*
Y283347D02*
D03*
X263000Y185653D02*
D03*
Y192347D02*
D03*
X440000Y246654D02*
D03*
Y253346D02*
D03*
Y234653D02*
D03*
Y241347D02*
D03*
X405500Y261346D02*
D03*
Y254654D02*
D03*
X425251Y261347D02*
D03*
Y254654D02*
D03*
X415500Y261347D02*
D03*
Y254654D02*
D03*
D14*
X271500Y205500D02*
D03*
X268744D02*
D03*
Y198807D02*
D03*
X271500D02*
D03*
D15*
X273000Y186000D02*
D03*
Y192299D02*
D03*
D16*
X374500Y357559D02*
D03*
Y352441D02*
D03*
X404000Y325441D02*
D03*
Y330559D02*
D03*
X398000Y325441D02*
D03*
Y330559D02*
D03*
D17*
X384500Y350350D02*
D03*
Y356650D02*
D03*
X249000Y274000D02*
D03*
Y267701D02*
D03*
X178500Y332850D02*
D03*
Y339150D02*
D03*
X245500Y361150D02*
D03*
Y354850D02*
D03*
D18*
X451559Y326772D02*
D03*
X446441D02*
D03*
X451618Y314961D02*
D03*
X446500D02*
D03*
X373941Y290000D02*
D03*
X379059D02*
D03*
D19*
X336079Y186000D02*
D03*
X345921D02*
D03*
D20*
X262850Y268500D02*
D03*
X269150D02*
D03*
X214850Y336000D02*
D03*
X221150D02*
D03*
D21*
X275134Y259500D02*
D03*
X266866D02*
D03*
D22*
X255429Y257831D02*
D03*
Y267673D02*
D03*
D23*
X410153Y225000D02*
D03*
X416847D02*
D03*
D24*
X424437Y233000D02*
D03*
Y238000D02*
D03*
Y243000D02*
D03*
Y248000D02*
D03*
X402862Y233000D02*
D03*
Y238000D02*
D03*
Y243000D02*
D03*
Y248000D02*
D03*
D25*
X366516Y285756D02*
D03*
Y280244D02*
D03*
X205500Y263744D02*
D03*
Y269256D02*
D03*
X239000Y393756D02*
D03*
Y388244D02*
D03*
X251626Y393756D02*
D03*
Y388244D02*
D03*
X231500Y269756D02*
D03*
Y264244D02*
D03*
X223000Y269756D02*
D03*
Y264244D02*
D03*
X410500Y330756D02*
D03*
Y325244D02*
D03*
X411000Y307256D02*
D03*
Y301744D02*
D03*
X411000Y290744D02*
D03*
Y296256D02*
D03*
X410500Y314488D02*
D03*
Y320000D02*
D03*
X232500Y388244D02*
D03*
Y393756D02*
D03*
X340299Y392256D02*
D03*
Y386744D02*
D03*
X377500Y393256D02*
D03*
Y387744D02*
D03*
D26*
X310201Y368000D02*
D03*
X272799D02*
D03*
X340299Y371500D02*
D03*
X377701D02*
D03*
D27*
X283122Y345480D02*
D03*
X281153D02*
D03*
X279185D02*
D03*
X277217D02*
D03*
X275248D02*
D03*
X273280D02*
D03*
X271311D02*
D03*
X269342D02*
D03*
X267374D02*
D03*
X265406D02*
D03*
X263437D02*
D03*
X261469D02*
D03*
X259500D02*
D03*
X257531D02*
D03*
X255563D02*
D03*
X253594D02*
D03*
X251626D02*
D03*
X249658D02*
D03*
X247689D02*
D03*
X245721D02*
D03*
X243752D02*
D03*
X241783D02*
D03*
X239815D02*
D03*
X237846D02*
D03*
X235878D02*
D03*
Y284457D02*
D03*
X237846D02*
D03*
X239815D02*
D03*
X241783D02*
D03*
X243752D02*
D03*
X245721D02*
D03*
X247689D02*
D03*
X249658D02*
D03*
X251626D02*
D03*
X253594D02*
D03*
X255563D02*
D03*
X257531D02*
D03*
X259500D02*
D03*
X261469D02*
D03*
X263437D02*
D03*
X265406D02*
D03*
X267374D02*
D03*
X269342D02*
D03*
X271311D02*
D03*
X273280D02*
D03*
X275248D02*
D03*
X277217D02*
D03*
X279185D02*
D03*
X281153D02*
D03*
X283122D02*
D03*
D28*
X228988Y338591D02*
D03*
Y336622D02*
D03*
Y334653D02*
D03*
Y332685D02*
D03*
Y330716D02*
D03*
Y328748D02*
D03*
Y326780D02*
D03*
Y324811D02*
D03*
Y322843D02*
D03*
Y320874D02*
D03*
Y318905D02*
D03*
Y316937D02*
D03*
Y314968D02*
D03*
Y313000D02*
D03*
Y311032D02*
D03*
Y309063D02*
D03*
Y307095D02*
D03*
Y305126D02*
D03*
Y303157D02*
D03*
Y301189D02*
D03*
Y299220D02*
D03*
Y297252D02*
D03*
Y295284D02*
D03*
Y293315D02*
D03*
Y291347D02*
D03*
X290012D02*
D03*
Y293315D02*
D03*
Y295284D02*
D03*
Y297252D02*
D03*
Y299220D02*
D03*
Y301189D02*
D03*
Y303157D02*
D03*
Y305126D02*
D03*
Y307095D02*
D03*
Y309063D02*
D03*
Y311032D02*
D03*
Y313000D02*
D03*
Y314968D02*
D03*
Y316937D02*
D03*
Y318905D02*
D03*
Y320874D02*
D03*
Y322843D02*
D03*
Y324811D02*
D03*
Y326780D02*
D03*
Y328748D02*
D03*
Y330716D02*
D03*
Y332685D02*
D03*
Y334653D02*
D03*
Y336622D02*
D03*
Y338591D02*
D03*
D29*
X169500Y339004D02*
D03*
Y325618D02*
D03*
D30*
X351244Y309673D02*
D03*
Y311642D02*
D03*
Y313610D02*
D03*
Y315579D02*
D03*
Y317547D02*
D03*
Y319516D02*
D03*
Y321484D02*
D03*
Y323453D02*
D03*
Y325421D02*
D03*
Y327390D02*
D03*
Y329358D02*
D03*
Y331327D02*
D03*
X383724D02*
D03*
Y329358D02*
D03*
Y327390D02*
D03*
Y325421D02*
D03*
Y323453D02*
D03*
Y321484D02*
D03*
Y319516D02*
D03*
Y317547D02*
D03*
Y315579D02*
D03*
Y313610D02*
D03*
Y311642D02*
D03*
Y309673D02*
D03*
D31*
X356658Y336740D02*
D03*
X358626D02*
D03*
X360595D02*
D03*
X362563D02*
D03*
X364531D02*
D03*
X366500D02*
D03*
X368468D02*
D03*
X370437D02*
D03*
X372406D02*
D03*
X374374D02*
D03*
X376343D02*
D03*
X378311D02*
D03*
Y304260D02*
D03*
X376343D02*
D03*
X374374D02*
D03*
X372406D02*
D03*
X370437D02*
D03*
X368468D02*
D03*
X366500D02*
D03*
X364531D02*
D03*
X362563D02*
D03*
X360595D02*
D03*
X358626D02*
D03*
X356658D02*
D03*
D35*
X196850Y294961D02*
D03*
Y304961D02*
D03*
Y314961D02*
D03*
Y324961D02*
D03*
X196350Y334961D02*
D03*
X186850D02*
D03*
Y324961D02*
D03*
Y314961D02*
D03*
Y304961D02*
D03*
Y294961D02*
D03*
X423071D02*
D03*
Y304961D02*
D03*
Y314961D02*
D03*
Y324961D02*
D03*
Y334961D02*
D03*
X432571D02*
D03*
X433071Y324961D02*
D03*
Y314961D02*
D03*
Y304961D02*
D03*
Y294961D02*
D03*
X229713Y423713D02*
D03*
X236784Y416642D02*
D03*
X201429Y381287D02*
D03*
X208500Y388358D02*
D03*
X215571Y395429D02*
D03*
X222642Y402500D02*
D03*
X229360Y409925D02*
D03*
X222642Y416642D02*
D03*
X215571Y409571D02*
D03*
X208500Y402500D02*
D03*
X201429Y395429D02*
D03*
X194358Y388358D02*
D03*
X294961Y433071D02*
D03*
X304961D02*
D03*
X314961D02*
D03*
X324961D02*
D03*
X334961Y433571D02*
D03*
Y443071D02*
D03*
X324961D02*
D03*
X314961D02*
D03*
X304961D02*
D03*
X294961D02*
D03*
Y196850D02*
D03*
X304961D02*
D03*
X314961D02*
D03*
X324961D02*
D03*
X334961Y197350D02*
D03*
Y206850D02*
D03*
X324961D02*
D03*
X314961D02*
D03*
X304961D02*
D03*
X294961D02*
D03*
D36*
X370437Y228000D02*
D03*
Y238000D02*
D03*
Y248000D02*
D03*
D37*
X277327Y202153D02*
D03*
%TF.MD5,a6c91a1147968d8cc2613c6742d0071d*%
M02*
