%TF.GenerationSoftware,Altium Limited,Altium Designer,18.1.6 (161)*%
G04 Layer_Color=32896*
%FSLAX25Y25*%
%MOIN*%
%TF.FileFunction,Legend,Bot*%
%TF.Part,Single*%
G01*
G75*
%TA.AperFunction,NonConductor*%
%ADD45C,0.00984*%
%ADD46C,0.00787*%
%ADD47C,0.00300*%
%ADD48C,0.01575*%
%ADD49C,0.00700*%
D45*
X356803Y207614D02*
G03*
X356803Y207614I-492J0D01*
G01*
D46*
X257654Y207835D02*
X258048D01*
X257654Y212165D02*
X258048D01*
X267335Y218303D02*
Y218697D01*
X271665Y218303D02*
Y218697D01*
X359047Y226264D02*
X359441D01*
X359047Y221736D02*
X359441D01*
X392264Y205303D02*
Y205697D01*
X387736Y205303D02*
Y205697D01*
X349075Y206303D02*
Y206697D01*
X345925Y206303D02*
Y206697D01*
X374945Y217539D02*
Y247461D01*
X393055Y217539D02*
Y247461D01*
X374945D02*
X377799D01*
X374945Y217539D02*
X377799D01*
X390201Y247461D02*
X393055D01*
X390201Y217539D02*
X393055D01*
X382689Y190882D02*
Y201118D01*
X356311Y190882D02*
Y201118D01*
Y190882D02*
X382689D01*
X356311Y201118D02*
X382689D01*
X199236Y245803D02*
Y246197D01*
X203764Y245803D02*
Y246197D01*
X280957Y352228D02*
X281350D01*
X280957Y355772D02*
X281350D01*
X278791Y333803D02*
Y334197D01*
X275642Y333803D02*
Y334197D01*
X265012Y334303D02*
Y334697D01*
X261862Y334303D02*
Y334697D01*
X280425Y295303D02*
Y295697D01*
X283575Y295303D02*
Y295697D01*
X248575Y332803D02*
Y333197D01*
X245425Y332803D02*
Y333197D01*
X239303Y292913D02*
X239697D01*
X239303Y289764D02*
X239697D01*
X353382Y305878D02*
X353776D01*
X353382Y303122D02*
X353776D01*
X279744Y271303D02*
Y271697D01*
X282500Y271303D02*
Y271697D01*
X285622Y271303D02*
Y271697D01*
X288378Y271303D02*
Y271697D01*
X401972Y307557D02*
X402366D01*
X401972Y310313D02*
X402366D01*
X401972Y314010D02*
X402366D01*
X401972Y316766D02*
X402366D01*
X371622Y327803D02*
Y328197D01*
X374378Y327803D02*
Y328197D01*
X361803Y328622D02*
X362197D01*
X361803Y331378D02*
X362197D01*
X426925Y350902D02*
Y351295D01*
X430075Y350902D02*
Y351295D01*
X407055Y339039D02*
Y368961D01*
X388945Y339039D02*
Y368961D01*
X404201Y339039D02*
X407055D01*
X404201Y368961D02*
X407055D01*
X388945Y339039D02*
X391799D01*
X388945Y368961D02*
X391799D01*
X410425Y350902D02*
Y351295D01*
X413575Y350902D02*
Y351295D01*
X418425Y350902D02*
Y351295D01*
X421575Y350902D02*
Y351295D01*
D47*
X200850Y290961D02*
Y338961D01*
X183350Y290961D02*
X200850D01*
X183350D02*
Y338961D01*
X200850D01*
X419571D02*
X437071D01*
X419571Y290961D02*
Y338961D01*
Y290961D02*
X437071D01*
Y338961D01*
D48*
X374945Y250315D02*
X393055D01*
X388945Y336185D02*
X407055D01*
D49*
X262800Y215800D02*
Y219299D01*
X261051D01*
X260467Y218716D01*
Y217549D01*
X261051Y216966D01*
X262800D01*
X261634D02*
X260467Y215800D01*
X257552D02*
Y219299D01*
X259301Y217549D01*
X256969D01*
X255802Y218716D02*
X255219Y219299D01*
X254053D01*
X253470Y218716D01*
Y216383D01*
X254053Y215800D01*
X255219D01*
X255802Y216383D01*
Y218716D01*
X271900Y226800D02*
Y230299D01*
X270151D01*
X269567Y229716D01*
Y228549D01*
X270151Y227966D01*
X271900D01*
X270734D02*
X269567Y226800D01*
X268401Y229716D02*
X267818Y230299D01*
X266652D01*
X266069Y229716D01*
Y229133D01*
X266652Y228549D01*
X267235D01*
X266652D01*
X266069Y227966D01*
Y227383D01*
X266652Y226800D01*
X267818D01*
X268401Y227383D01*
X264902Y229716D02*
X264319Y230299D01*
X263153D01*
X262570Y229716D01*
Y229133D01*
X263153Y228549D01*
X262570Y227966D01*
Y227383D01*
X263153Y226800D01*
X264319D01*
X264902Y227383D01*
Y227966D01*
X264319Y228549D01*
X264902Y229133D01*
Y229716D01*
X264319Y228549D02*
X263153D01*
X361167Y231916D02*
X361751Y232499D01*
X362917D01*
X363500Y231916D01*
Y229583D01*
X362917Y229000D01*
X361751D01*
X361167Y229583D01*
X357669Y229000D02*
X360001D01*
X357669Y231333D01*
Y231916D01*
X358252Y232499D01*
X359418D01*
X360001Y231916D01*
X356502Y232499D02*
X354170D01*
Y231916D01*
X356502Y229583D01*
Y229000D01*
X390467Y257016D02*
X391051Y257599D01*
X392217D01*
X392800Y257016D01*
Y254683D01*
X392217Y254100D01*
X391051D01*
X390467Y254683D01*
X386969Y254100D02*
X389301D01*
X386969Y256433D01*
Y257016D01*
X387552Y257599D01*
X388718D01*
X389301Y257016D01*
X383470Y257599D02*
X384636Y257016D01*
X385802Y255849D01*
Y254683D01*
X385219Y254100D01*
X384053D01*
X383470Y254683D01*
Y255266D01*
X384053Y255849D01*
X385802D01*
X350110Y213000D02*
Y216499D01*
X348361D01*
X347778Y215916D01*
Y214749D01*
X348361Y214166D01*
X350110D01*
X348944D02*
X347778Y213000D01*
X346611Y215916D02*
X346028Y216499D01*
X344862D01*
X344279Y215916D01*
Y215333D01*
X344862Y214749D01*
X345445D01*
X344862D01*
X344279Y214166D01*
Y213583D01*
X344862Y213000D01*
X346028D01*
X346611Y213583D01*
X343112D02*
X342529Y213000D01*
X341363D01*
X340780Y213583D01*
Y215916D01*
X341363Y216499D01*
X342529D01*
X343112Y215916D01*
Y215333D01*
X342529Y214749D01*
X340780D01*
X213667Y247916D02*
X214251Y248499D01*
X215417D01*
X216000Y247916D01*
Y245583D01*
X215417Y245000D01*
X214251D01*
X213667Y245583D01*
X210169Y245000D02*
X212501D01*
X210169Y247333D01*
Y247916D01*
X210752Y248499D01*
X211918D01*
X212501Y247916D01*
X206670Y248499D02*
X209002D01*
Y246749D01*
X207836Y247333D01*
X207253D01*
X206670Y246749D01*
Y245583D01*
X207253Y245000D01*
X208419D01*
X209002Y245583D01*
X403334Y204416D02*
X403917Y204999D01*
X405083D01*
X405666Y204416D01*
Y202083D01*
X405083Y201500D01*
X403917D01*
X403334Y202083D01*
X399835Y201500D02*
X402168D01*
X399835Y203833D01*
Y204416D01*
X400418Y204999D01*
X401584D01*
X402168Y204416D01*
X396919Y201500D02*
Y204999D01*
X398669Y203249D01*
X396336D01*
X393158Y194999D02*
Y192083D01*
X392574Y191500D01*
X391408D01*
X390825Y192083D01*
Y194999D01*
X389659Y194416D02*
X389075Y194999D01*
X387909D01*
X387326Y194416D01*
Y193833D01*
X387909Y193249D01*
X388492D01*
X387909D01*
X387326Y192666D01*
Y192083D01*
X387909Y191500D01*
X389075D01*
X389659Y192083D01*
X348911Y332274D02*
X349495Y332857D01*
X350661D01*
X351244Y332274D01*
Y329941D01*
X350661Y329358D01*
X349495D01*
X348911Y329941D01*
X345413Y329358D02*
X347745D01*
X345413Y331691D01*
Y332274D01*
X345996Y332857D01*
X347162D01*
X347745Y332274D01*
X344246Y329358D02*
X343080D01*
X343663D01*
Y332857D01*
X344246Y332274D01*
X383667Y326916D02*
X384251Y327499D01*
X385417D01*
X386000Y326916D01*
Y324583D01*
X385417Y324000D01*
X384251D01*
X383667Y324583D01*
X380169Y324000D02*
X382501D01*
X380169Y326333D01*
Y326916D01*
X380752Y327499D01*
X381918D01*
X382501Y326916D01*
X379002D02*
X378419Y327499D01*
X377253D01*
X376670Y326916D01*
Y324583D01*
X377253Y324000D01*
X378419D01*
X379002Y324583D01*
Y326916D01*
X344167Y305916D02*
X344751Y306499D01*
X345917D01*
X346500Y305916D01*
Y303583D01*
X345917Y303000D01*
X344751D01*
X344167Y303583D01*
X343001Y303000D02*
X341835D01*
X342418D01*
Y306499D01*
X343001Y305916D01*
X340085Y303583D02*
X339502Y303000D01*
X338336D01*
X337753Y303583D01*
Y305916D01*
X338336Y306499D01*
X339502D01*
X340085Y305916D01*
Y305333D01*
X339502Y304749D01*
X337753D01*
X306167Y275416D02*
X306751Y275999D01*
X307917D01*
X308500Y275416D01*
Y273083D01*
X307917Y272500D01*
X306751D01*
X306167Y273083D01*
X305001Y272500D02*
X303835D01*
X304418D01*
Y275999D01*
X305001Y275416D01*
X302085D02*
X301502Y275999D01*
X300336D01*
X299753Y275416D01*
Y274833D01*
X300336Y274249D01*
X299753Y273666D01*
Y273083D01*
X300336Y272500D01*
X301502D01*
X302085Y273083D01*
Y273666D01*
X301502Y274249D01*
X302085Y274833D01*
Y275416D01*
X301502Y274249D02*
X300336D01*
X306167Y267416D02*
X306751Y267999D01*
X307917D01*
X308500Y267416D01*
Y265083D01*
X307917Y264500D01*
X306751D01*
X306167Y265083D01*
X305001Y264500D02*
X303835D01*
X304418D01*
Y267999D01*
X305001Y267416D01*
X302085Y267999D02*
X299753D01*
Y267416D01*
X302085Y265083D01*
Y264500D01*
X294667Y351916D02*
X295251Y352499D01*
X296417D01*
X297000Y351916D01*
Y349583D01*
X296417Y349000D01*
X295251D01*
X294667Y349583D01*
X293501Y349000D02*
X292335D01*
X292918D01*
Y352499D01*
X293501Y351916D01*
X288253Y352499D02*
X289419Y351916D01*
X290585Y350749D01*
Y349583D01*
X290002Y349000D01*
X288836D01*
X288253Y349583D01*
Y350166D01*
X288836Y350749D01*
X290585D01*
X277267Y289716D02*
X277851Y290299D01*
X279017D01*
X279600Y289716D01*
Y287383D01*
X279017Y286800D01*
X277851D01*
X277267Y287383D01*
X276101Y286800D02*
X274935D01*
X275518D01*
Y290299D01*
X276101Y289716D01*
X273185D02*
X272602Y290299D01*
X271436D01*
X270853Y289716D01*
Y289133D01*
X271436Y288549D01*
X272019D01*
X271436D01*
X270853Y287966D01*
Y287383D01*
X271436Y286800D01*
X272602D01*
X273185Y287383D01*
X277284Y345616D02*
X277867Y346199D01*
X279033D01*
X279616Y345616D01*
Y343283D01*
X279033Y342700D01*
X277867D01*
X277284Y343283D01*
X276118Y342700D02*
X274951D01*
X275535D01*
Y346199D01*
X276118Y345616D01*
X270869Y342700D02*
X273202D01*
X270869Y345033D01*
Y345616D01*
X271452Y346199D01*
X272619D01*
X273202Y345616D01*
X263504Y346116D02*
X264088Y346699D01*
X265254D01*
X265837Y346116D01*
Y343783D01*
X265254Y343200D01*
X264088D01*
X263504Y343783D01*
X262338Y343200D02*
X261172D01*
X261755D01*
Y346699D01*
X262338Y346116D01*
X259422Y343200D02*
X258256D01*
X258839D01*
Y346699D01*
X259422Y346116D01*
X247067Y344616D02*
X247651Y345199D01*
X248817D01*
X249400Y344616D01*
Y342283D01*
X248817Y341700D01*
X247651D01*
X247067Y342283D01*
X245901Y341700D02*
X244735D01*
X245318D01*
Y345199D01*
X245901Y344616D01*
X242985D02*
X242402Y345199D01*
X241236D01*
X240653Y344616D01*
Y342283D01*
X241236Y341700D01*
X242402D01*
X242985Y342283D01*
Y344616D01*
X228467Y296654D02*
X229051Y297237D01*
X230217D01*
X230800Y296654D01*
Y294322D01*
X230217Y293739D01*
X229051D01*
X228467Y294322D01*
X227301D02*
X226718Y293739D01*
X225552D01*
X224969Y294322D01*
Y296654D01*
X225552Y297237D01*
X226718D01*
X227301Y296654D01*
Y296071D01*
X226718Y295488D01*
X224969D01*
X413667Y361416D02*
X414251Y361999D01*
X415417D01*
X416000Y361416D01*
Y359083D01*
X415417Y358500D01*
X414251D01*
X413667Y359083D01*
X412501Y361416D02*
X411918Y361999D01*
X410752D01*
X410169Y361416D01*
Y360833D01*
X410752Y360249D01*
X410169Y359666D01*
Y359083D01*
X410752Y358500D01*
X411918D01*
X412501Y359083D01*
Y359666D01*
X411918Y360249D01*
X412501Y360833D01*
Y361416D01*
X411918Y360249D02*
X410752D01*
X423359Y361916D02*
X423942Y362499D01*
X425108D01*
X425691Y361916D01*
Y359583D01*
X425108Y359000D01*
X423942D01*
X423359Y359583D01*
X422192Y362499D02*
X419860D01*
Y361916D01*
X422192Y359583D01*
Y359000D01*
X432167Y361696D02*
X432751Y362279D01*
X433917D01*
X434500Y361696D01*
Y359364D01*
X433917Y358780D01*
X432751D01*
X432167Y359364D01*
X428668Y362279D02*
X429835Y361696D01*
X431001Y360530D01*
Y359364D01*
X430418Y358780D01*
X429252D01*
X428668Y359364D01*
Y359947D01*
X429252Y360530D01*
X431001D01*
X379167Y361416D02*
X379751Y361999D01*
X380917D01*
X381500Y361416D01*
Y359083D01*
X380917Y358500D01*
X379751D01*
X379167Y359083D01*
X375669Y361999D02*
X378001D01*
Y360249D01*
X376835Y360833D01*
X376252D01*
X375669Y360249D01*
Y359083D01*
X376252Y358500D01*
X377418D01*
X378001Y359083D01*
X388167Y320416D02*
X388751Y320999D01*
X389917D01*
X390500Y320416D01*
Y318083D01*
X389917Y317500D01*
X388751D01*
X388167Y318083D01*
X384669Y317500D02*
X387001D01*
X384669Y319833D01*
Y320416D01*
X385252Y320999D01*
X386418D01*
X387001Y320416D01*
X388167Y313416D02*
X388751Y313999D01*
X389917D01*
X390500Y313416D01*
Y311083D01*
X389917Y310500D01*
X388751D01*
X388167Y311083D01*
X387001Y310500D02*
X385835D01*
X386418D01*
Y313999D01*
X387001Y313416D01*
%TF.MD5,0d3fcbfb2abbccedf5ac3c92f0b1abf9*%
M02*
