%TF.GenerationSoftware,Altium Limited,Altium Designer,18.1.6 (161)*%
G04 Layer_Color=2752767*
%FSLAX25Y25*%
%MOIN*%
%TF.FileFunction,Drawing*%
%TF.Part,Single*%
G01*
G75*
%TA.AperFunction,NonConductor*%
%ADD93C,0.00500*%
%ADD94C,0.00667*%
D93*
X194850Y292961D02*
Y296961D01*
X198850D01*
Y292961D01*
X194850D01*
Y302961D02*
Y306961D01*
X198850D01*
Y302961D01*
X194850D01*
Y312961D02*
Y316961D01*
X198850D01*
Y312961D01*
X194850D01*
Y322961D02*
Y326961D01*
X198850D01*
Y322961D01*
X194850D01*
X194350Y332961D02*
Y336961D01*
X198350D01*
Y332961D01*
X194350D01*
X184850D02*
Y336961D01*
X188850D01*
Y332961D01*
X184850D01*
Y322961D02*
Y326961D01*
X188850D01*
Y322961D01*
X184850D01*
Y312961D02*
Y316961D01*
X188850D01*
Y312961D01*
X184850D01*
Y302961D02*
Y306961D01*
X188850D01*
Y302961D01*
X184850D01*
Y292961D02*
Y296961D01*
X188850D01*
Y292961D01*
X184850D01*
X421071D02*
Y296961D01*
X425071D01*
Y292961D01*
X421071D01*
Y302961D02*
Y306961D01*
X425071D01*
Y302961D01*
X421071D01*
Y312961D02*
Y316961D01*
X425071D01*
Y312961D01*
X421071D01*
Y322961D02*
Y326961D01*
X425071D01*
Y322961D01*
X421071D01*
Y332961D02*
Y336961D01*
X425071D01*
Y332961D01*
X421071D01*
X430571D02*
Y336961D01*
X434571D01*
Y332961D01*
X430571D01*
X431071Y322961D02*
Y326961D01*
X435071D01*
Y322961D01*
X431071D01*
Y312961D02*
Y316961D01*
X435071D01*
Y312961D01*
X431071D01*
Y302961D02*
Y306961D01*
X435071D01*
Y302961D01*
X431071D01*
Y292961D02*
Y296961D01*
X435071D01*
Y292961D01*
X431071D01*
X277327Y200153D02*
X275327Y204153D01*
X279327D01*
X277327Y200153D01*
X227713Y421713D02*
Y425713D01*
X231713D01*
Y421713D01*
X227713D01*
X234784Y414642D02*
Y418642D01*
X238784D01*
Y414642D01*
X234784D01*
X199429Y379287D02*
Y383287D01*
X203429D01*
Y379287D01*
X199429D01*
X206500Y386358D02*
Y390358D01*
X210500D01*
Y386358D01*
X206500D01*
X213571Y393429D02*
Y397429D01*
X217571D01*
Y393429D01*
X213571D01*
X220642Y400500D02*
Y404500D01*
X224642D01*
Y400500D01*
X220642D01*
X227360Y407925D02*
Y411925D01*
X231360D01*
Y407925D01*
X227360D01*
X220642Y414642D02*
Y418642D01*
X224642D01*
Y414642D01*
X220642D01*
X213571Y407571D02*
Y411571D01*
X217571D01*
Y407571D01*
X213571D01*
X206500Y400500D02*
Y404500D01*
X210500D01*
Y400500D01*
X206500D01*
X199429Y393429D02*
Y397429D01*
X203429D01*
Y393429D01*
X199429D01*
X192358Y386358D02*
Y390358D01*
X196358D01*
Y386358D01*
X192358D01*
X292961Y431071D02*
Y435071D01*
X296961D01*
Y431071D01*
X292961D01*
X302961D02*
Y435071D01*
X306961D01*
Y431071D01*
X302961D01*
X312961D02*
Y435071D01*
X316961D01*
Y431071D01*
X312961D01*
X322961D02*
Y435071D01*
X326961D01*
Y431071D01*
X322961D01*
X332961Y431571D02*
Y435571D01*
X336961D01*
Y431571D01*
X332961D01*
Y441071D02*
Y445071D01*
X336961D01*
Y441071D01*
X332961D01*
X322961D02*
Y445071D01*
X326961D01*
Y441071D01*
X322961D01*
X312961D02*
Y445071D01*
X316961D01*
Y441071D01*
X312961D01*
X302961D02*
Y445071D01*
X306961D01*
Y441071D01*
X302961D01*
X292961D02*
Y445071D01*
X296961D01*
Y441071D01*
X292961D01*
Y194850D02*
Y198850D01*
X296961D01*
Y194850D01*
X292961D01*
X302961D02*
Y198850D01*
X306961D01*
Y194850D01*
X302961D01*
X312961D02*
Y198850D01*
X316961D01*
Y194850D01*
X312961D01*
X322961D02*
Y198850D01*
X326961D01*
Y194850D01*
X322961D01*
X332961Y195350D02*
Y199350D01*
X336961D01*
Y195350D01*
X332961D01*
Y204850D02*
Y208850D01*
X336961D01*
Y204850D01*
X332961D01*
X322961D02*
Y208850D01*
X326961D01*
Y204850D01*
X322961D01*
X312961D02*
Y208850D01*
X316961D01*
Y204850D01*
X312961D01*
X302961D02*
Y208850D01*
X306961D01*
Y204850D01*
X302961D01*
X292961D02*
Y208850D01*
X296961D01*
Y204850D01*
X292961D01*
X203039Y329000D02*
X204039Y330000D01*
X205039D01*
X204039Y331000D01*
X205039Y332000D01*
X204039D01*
X203039Y333000D01*
X202039Y332000D01*
X201039D01*
X202039Y331000D01*
X201039Y330000D01*
X202039D01*
X203039Y329000D01*
X266500Y208000D02*
X267500Y209000D01*
X268500D01*
X267500Y210000D01*
X268500Y211000D01*
X267500D01*
X266500Y212000D01*
X265500Y211000D01*
X264500D01*
X265500Y210000D01*
X264500Y209000D01*
X265500D01*
X266500Y208000D01*
X252500Y223000D02*
X253500Y224000D01*
X254500D01*
X253500Y225000D01*
X254500Y226000D01*
X253500D01*
X252500Y227000D01*
X251500Y226000D01*
X250500D01*
X251500Y225000D01*
X250500Y224000D01*
X251500D01*
X252500Y223000D01*
X262500Y220000D02*
X263500Y221000D01*
X264500D01*
X263500Y222000D01*
X264500Y223000D01*
X263500D01*
X262500Y224000D01*
X261500Y223000D01*
X260500D01*
X261500Y222000D01*
X260500Y221000D01*
X261500D01*
X262500Y220000D01*
X273500Y209000D02*
X274500Y210000D01*
X275500D01*
X274500Y211000D01*
X275500Y212000D01*
X274500D01*
X273500Y213000D01*
X272500Y212000D01*
X271500D01*
X272500Y211000D01*
X271500Y210000D01*
X272500D01*
X273500Y209000D01*
X288000Y256000D02*
X289000Y257000D01*
X290000D01*
X289000Y258000D01*
X290000Y259000D01*
X289000D01*
X288000Y260000D01*
X287000Y259000D01*
X286000D01*
X287000Y258000D01*
X286000Y257000D01*
X287000D01*
X288000Y256000D01*
X378311Y194473D02*
X379311Y195473D01*
X380311D01*
X379311Y196473D01*
X380311Y197473D01*
X379311D01*
X378311Y198473D01*
X377311Y197473D01*
X376311D01*
X377311Y196473D01*
X376311Y195473D01*
X377311D01*
X378311Y194473D01*
X218500Y200654D02*
X219500Y201654D01*
X220500D01*
X219500Y202654D01*
X220500Y203654D01*
X219500D01*
X218500Y204654D01*
X217500Y203654D01*
X216500D01*
X217500Y202654D01*
X216500Y201654D01*
X217500D01*
X218500Y200654D01*
X222000Y196000D02*
X223000Y197000D01*
X224000D01*
X223000Y198000D01*
X224000Y199000D01*
X223000D01*
X222000Y200000D01*
X221000Y199000D01*
X220000D01*
X221000Y198000D01*
X220000Y197000D01*
X221000D01*
X222000Y196000D01*
X228000Y190000D02*
X229000Y191000D01*
X230000D01*
X229000Y192000D01*
X230000Y193000D01*
X229000D01*
X228000Y194000D01*
X227000Y193000D01*
X226000D01*
X227000Y192000D01*
X226000Y191000D01*
X227000D01*
X228000Y190000D01*
X212000Y205500D02*
X213000Y206500D01*
X214000D01*
X213000Y207500D01*
X214000Y208500D01*
X213000D01*
X212000Y209500D01*
X211000Y208500D01*
X210000D01*
X211000Y207500D01*
X210000Y206500D01*
X211000D01*
X212000Y205500D01*
X190851Y233550D02*
X191851Y234550D01*
X192851D01*
X191851Y235550D01*
X192851Y236550D01*
X191851D01*
X190851Y237550D01*
X189851Y236550D01*
X188851D01*
X189851Y235550D01*
X188851Y234550D01*
X189851D01*
X190851Y233550D01*
X193265Y242016D02*
X194265Y243016D01*
X195265D01*
X194265Y244016D01*
X195265Y245016D01*
X194265D01*
X193265Y246016D01*
X192265Y245016D01*
X191265D01*
X192265Y244016D01*
X191265Y243016D01*
X192265D01*
X193265Y242016D01*
X455500Y358000D02*
X456500Y360000D01*
X455500Y362000D01*
X457500Y361000D01*
X459500Y362000D01*
X458500Y360000D01*
X459500Y358000D01*
X457500Y359000D01*
X455500Y358000D01*
X172000Y360500D02*
X173000Y361500D01*
X174000D01*
X173000Y362500D01*
X174000Y363500D01*
X173000D01*
X172000Y364500D01*
X171000Y363500D01*
X170000D01*
X171000Y362500D01*
X170000Y361500D01*
X171000D01*
X172000Y360500D01*
X210418Y420208D02*
X211418Y421208D01*
X212418D01*
X211418Y422208D01*
X212418Y423208D01*
X211418D01*
X210418Y424208D01*
X209418Y423208D01*
X208418D01*
X209418Y422208D01*
X208418Y421208D01*
X209418D01*
X210418Y420208D01*
X182000Y318407D02*
X183000Y319407D01*
X184000D01*
X183000Y320407D01*
X184000Y321407D01*
X183000D01*
X182000Y322407D01*
X181000Y321407D01*
X180000D01*
X181000Y320407D01*
X180000Y319407D01*
X181000D01*
X182000Y318407D01*
X236280Y305055D02*
X237280Y306055D01*
X238280D01*
X237280Y307055D01*
X238280Y308055D01*
X237280D01*
X236280Y309055D01*
X235279Y308055D01*
X234279D01*
X235279Y307055D01*
X234279Y306055D01*
X235279D01*
X236280Y305055D01*
X222642Y251500D02*
X223642Y252500D01*
X224642D01*
X223642Y253500D01*
X224642Y254500D01*
X223642D01*
X222642Y255500D01*
X221642Y254500D01*
X220642D01*
X221642Y253500D01*
X220642Y252500D01*
X221642D01*
X222642Y251500D01*
X208400Y271500D02*
X209400Y272500D01*
X210400D01*
X209400Y273500D01*
X210400Y274500D01*
X209400D01*
X208400Y275500D01*
X207400Y274500D01*
X206400D01*
X207400Y273500D01*
X206400Y272500D01*
X207400D01*
X208400Y271500D01*
X199242Y347500D02*
X200242Y348500D01*
X201242D01*
X200242Y349500D01*
X201242Y350500D01*
X200242D01*
X199242Y351500D01*
X198242Y350500D01*
X197242D01*
X198242Y349500D01*
X197242Y348500D01*
X198242D01*
X199242Y347500D01*
X403000Y226500D02*
X404000Y227500D01*
X405000D01*
X404000Y228500D01*
X405000Y229500D01*
X404000D01*
X403000Y230500D01*
X402000Y229500D01*
X401000D01*
X402000Y228500D01*
X401000Y227500D01*
X402000D01*
X403000Y226500D01*
X446000Y257500D02*
X447000Y258500D01*
X448000D01*
X447000Y259500D01*
X448000Y260500D01*
X447000D01*
X446000Y261500D01*
X445000Y260500D01*
X444000D01*
X445000Y259500D01*
X444000Y258500D01*
X445000D01*
X446000Y257500D01*
X283394Y258280D02*
X284394Y259280D01*
X285394D01*
X284394Y260280D01*
X285394Y261280D01*
X284394D01*
X283394Y262280D01*
X282394Y261280D01*
X281394D01*
X282394Y260280D01*
X281394Y259280D01*
X282394D01*
X283394Y258280D01*
X263000Y386500D02*
X264000Y387500D01*
X265000D01*
X264000Y388500D01*
X265000Y389500D01*
X264000D01*
X263000Y390500D01*
X262000Y389500D01*
X261000D01*
X262000Y388500D01*
X261000Y387500D01*
X262000D01*
X263000Y386500D01*
X256500Y379500D02*
X257500Y380500D01*
X258500D01*
X257500Y381500D01*
X258500Y382500D01*
X257500D01*
X256500Y383500D01*
X255500Y382500D01*
X254500D01*
X255500Y381500D01*
X254500Y380500D01*
X255500D01*
X256500Y379500D01*
X257507Y358500D02*
X258507Y359500D01*
X259507D01*
X258507Y360500D01*
X259507Y361500D01*
X258507D01*
X257507Y362500D01*
X256507Y361500D01*
X255507D01*
X256507Y360500D01*
X255507Y359500D01*
X256507D01*
X257507Y358500D01*
X329000Y248000D02*
X330000Y249000D01*
X331000D01*
X330000Y250000D01*
X331000Y251000D01*
X330000D01*
X329000Y252000D01*
X328000Y251000D01*
X327000D01*
X328000Y250000D01*
X327000Y249000D01*
X328000D01*
X329000Y248000D01*
X234500Y223000D02*
X235500Y224000D01*
X236500D01*
X235500Y225000D01*
X236500Y226000D01*
X235500D01*
X234500Y227000D01*
X233500Y226000D01*
X232500D01*
X233500Y225000D01*
X232500Y224000D01*
X233500D01*
X234500Y223000D01*
X347000Y193693D02*
X348000Y194693D01*
X349000D01*
X348000Y195693D01*
X349000Y196693D01*
X348000D01*
X347000Y197693D01*
X346000Y196693D01*
X345000D01*
X346000Y195693D01*
X345000Y194693D01*
X346000D01*
X347000Y193693D01*
X300500Y234000D02*
X301500Y235000D01*
X302500D01*
X301500Y236000D01*
X302500Y237000D01*
X301500D01*
X300500Y238000D01*
X299500Y237000D01*
X298500D01*
X299500Y236000D01*
X298500Y235000D01*
X299500D01*
X300500Y234000D01*
X303500Y230500D02*
X304500Y231500D01*
X305500D01*
X304500Y232500D01*
X305500Y233500D01*
X304500D01*
X303500Y234500D01*
X302500Y233500D01*
X301500D01*
X302500Y232500D01*
X301500Y231500D01*
X302500D01*
X303500Y230500D01*
X425000Y266000D02*
X426000Y267000D01*
X427000D01*
X426000Y268000D01*
X427000Y269000D01*
X426000D01*
X425000Y270000D01*
X424000Y269000D01*
X423000D01*
X424000Y268000D01*
X423000Y267000D01*
X424000D01*
X425000Y266000D01*
X415500Y266921D02*
X416500Y267921D01*
X417500D01*
X416500Y268921D01*
X417500Y269921D01*
X416500D01*
X415500Y270921D01*
X414500Y269921D01*
X413500D01*
X414500Y268921D01*
X413500Y267921D01*
X414500D01*
X415500Y266921D01*
X235000Y228000D02*
X236000Y229000D01*
X237000D01*
X236000Y230000D01*
X237000Y231000D01*
X236000D01*
X235000Y232000D01*
X234000Y231000D01*
X233000D01*
X234000Y230000D01*
X233000Y229000D01*
X234000D01*
X235000Y228000D01*
X344500Y234250D02*
X345500Y235250D01*
X346500D01*
X345500Y236250D01*
X346500Y237250D01*
X345500D01*
X344500Y238250D01*
X343500Y237250D01*
X342500D01*
X343500Y236250D01*
X342500Y235250D01*
X343500D01*
X344500Y234250D01*
X374000Y268000D02*
X375000Y269000D01*
X376000D01*
X375000Y270000D01*
X376000Y271000D01*
X375000D01*
X374000Y272000D01*
X373000Y271000D01*
X372000D01*
X373000Y270000D01*
X372000Y269000D01*
X373000D01*
X374000Y268000D01*
X236500Y262244D02*
X237500Y263244D01*
X238500D01*
X237500Y264244D01*
X238500Y265244D01*
X237500D01*
X236500Y266244D01*
X235500Y265244D01*
X234500D01*
X235500Y264244D01*
X234500Y263244D01*
X235500D01*
X236500Y262244D01*
X205500Y340000D02*
X206500Y341000D01*
X207500D01*
X206500Y342000D01*
X207500Y343000D01*
X206500D01*
X205500Y344000D01*
X204500Y343000D01*
X203500D01*
X204500Y342000D01*
X203500Y341000D01*
X204500D01*
X205500Y340000D01*
X201677Y286442D02*
X202677Y287442D01*
X203678D01*
X202677Y288442D01*
X203678Y289442D01*
X202677D01*
X201677Y290442D01*
X200677Y289442D01*
X199678D01*
X200677Y288442D01*
X199678Y287442D01*
X200677D01*
X201677Y286442D01*
X222082Y297220D02*
X223082Y298220D01*
X224082D01*
X223082Y299220D01*
X224082Y300220D01*
X223082D01*
X222082Y301220D01*
X221082Y300220D01*
X220082D01*
X221082Y299220D01*
X220082Y298220D01*
X221082D01*
X222082Y297220D01*
X222500Y289338D02*
X223500Y290338D01*
X224500D01*
X223500Y291338D01*
X224500Y292338D01*
X223500D01*
X222500Y293338D01*
X221500Y292338D01*
X220500D01*
X221500Y291338D01*
X220500Y290338D01*
X221500D01*
X222500Y289338D01*
X224500Y241000D02*
X225500Y242000D01*
X226500D01*
X225500Y243000D01*
X226500Y244000D01*
X225500D01*
X224500Y245000D01*
X223500Y244000D01*
X222500D01*
X223500Y243000D01*
X222500Y242000D01*
X223500D01*
X224500Y241000D01*
X232000D02*
X233000Y242000D01*
X234000D01*
X233000Y243000D01*
X234000Y244000D01*
X233000D01*
X232000Y245000D01*
X231000Y244000D01*
X230000D01*
X231000Y243000D01*
X230000Y242000D01*
X231000D01*
X232000Y241000D01*
X218500Y346000D02*
X219500Y347000D01*
X220500D01*
X219500Y348000D01*
X220500Y349000D01*
X219500D01*
X218500Y350000D01*
X217500Y349000D01*
X216500D01*
X217500Y348000D01*
X216500Y347000D01*
X217500D01*
X218500Y346000D01*
X300052Y334000D02*
X301052Y335000D01*
X302052D01*
X301052Y336000D01*
X302052Y337000D01*
X301052D01*
X300052Y338000D01*
X299052Y337000D01*
X298052D01*
X299052Y336000D01*
X298052Y335000D01*
X299052D01*
X300052Y334000D01*
X268000Y349631D02*
X269000Y350631D01*
X270000D01*
X269000Y351631D01*
X270000Y352631D01*
X269000D01*
X268000Y353631D01*
X267000Y352631D01*
X266000D01*
X267000Y351631D01*
X266000Y350631D01*
X267000D01*
X268000Y349631D01*
X191000Y361315D02*
X192000Y362315D01*
X193000D01*
X192000Y363315D01*
X193000Y364315D01*
X192000D01*
X191000Y365315D01*
X190000Y364315D01*
X189000D01*
X190000Y363315D01*
X189000Y362315D01*
X190000D01*
X191000Y361315D01*
X192500Y355500D02*
X193500Y356500D01*
X194500D01*
X193500Y357500D01*
X194500Y358500D01*
X193500D01*
X192500Y359500D01*
X191500Y358500D01*
X190500D01*
X191500Y357500D01*
X190500Y356500D01*
X191500D01*
X192500Y355500D01*
X253500Y191461D02*
X254500Y192461D01*
X255500D01*
X254500Y193461D01*
X255500Y194461D01*
X254500D01*
X253500Y195461D01*
X252500Y194461D01*
X251500D01*
X252500Y193461D01*
X251500Y192461D01*
X252500D01*
X253500Y191461D01*
X357252Y314500D02*
X358252Y315500D01*
X359252D01*
X358252Y316500D01*
X359252Y317500D01*
X358252D01*
X357252Y318500D01*
X356252Y317500D01*
X355252D01*
X356252Y316500D01*
X355252Y315500D01*
X356252D01*
X357252Y314500D01*
X356500Y264500D02*
X357500Y265500D01*
X358500D01*
X357500Y266500D01*
X358500Y267500D01*
X357500D01*
X356500Y268500D01*
X355500Y267500D01*
X354500D01*
X355500Y266500D01*
X354500Y265500D01*
X355500D01*
X356500Y264500D01*
X292000Y351095D02*
X293000Y352095D01*
X294000D01*
X293000Y353095D01*
X294000Y354095D01*
X293000D01*
X292000Y355095D01*
X291000Y354095D01*
X290000D01*
X291000Y353095D01*
X290000Y352095D01*
X291000D01*
X292000Y351095D01*
X302000Y349189D02*
X303000Y350189D01*
X304000D01*
X303000Y351189D01*
X304000Y352189D01*
X303000D01*
X302000Y353189D01*
X301000Y352189D01*
X300000D01*
X301000Y351189D01*
X300000Y350189D01*
X301000D01*
X302000Y349189D01*
X448000Y373000D02*
X449000Y375000D01*
X448000Y377000D01*
X450000Y376000D01*
X452000Y377000D01*
X451000Y375000D01*
X452000Y373000D01*
X450000Y374000D01*
X448000Y373000D01*
Y343000D02*
X449000Y345000D01*
X448000Y347000D01*
X450000Y346000D01*
X452000Y347000D01*
X451000Y345000D01*
X452000Y343000D01*
X450000Y344000D01*
X448000Y343000D01*
X455500Y328000D02*
X456500Y330000D01*
X455500Y332000D01*
X457500Y331000D01*
X459500Y332000D01*
X458500Y330000D01*
X459500Y328000D01*
X457500Y329000D01*
X455500Y328000D01*
Y298000D02*
X456500Y300000D01*
X455500Y302000D01*
X457500Y301000D01*
X459500Y302000D01*
X458500Y300000D01*
X459500Y298000D01*
X457500Y299000D01*
X455500Y298000D01*
X448000Y283000D02*
X449000Y285000D01*
X448000Y287000D01*
X450000Y286000D01*
X452000Y287000D01*
X451000Y285000D01*
X452000Y283000D01*
X450000Y284000D01*
X448000Y283000D01*
X455500Y268000D02*
X456500Y270000D01*
X455500Y272000D01*
X457500Y271000D01*
X459500Y272000D01*
X458500Y270000D01*
X459500Y268000D01*
X457500Y269000D01*
X455500Y268000D01*
X448000Y253000D02*
X449000Y255000D01*
X448000Y257000D01*
X450000Y256000D01*
X452000Y257000D01*
X451000Y255000D01*
X452000Y253000D01*
X450000Y254000D01*
X448000Y253000D01*
X433000Y403000D02*
X434000Y405000D01*
X433000Y407000D01*
X435000Y406000D01*
X437000Y407000D01*
X436000Y405000D01*
X437000Y403000D01*
X435000Y404000D01*
X433000Y403000D01*
X440500Y388000D02*
X441500Y390000D01*
X440500Y392000D01*
X442500Y391000D01*
X444500Y392000D01*
X443500Y390000D01*
X444500Y388000D01*
X442500Y389000D01*
X440500Y388000D01*
X433000Y373000D02*
X434000Y375000D01*
X433000Y377000D01*
X435000Y376000D01*
X437000Y377000D01*
X436000Y375000D01*
X437000Y373000D01*
X435000Y374000D01*
X433000Y373000D01*
X440500Y358000D02*
X441500Y360000D01*
X440500Y362000D01*
X442500Y361000D01*
X444500Y362000D01*
X443500Y360000D01*
X444500Y358000D01*
X442500Y359000D01*
X440500Y358000D01*
X433000Y283000D02*
X434000Y285000D01*
X433000Y287000D01*
X435000Y286000D01*
X437000Y287000D01*
X436000Y285000D01*
X437000Y283000D01*
X435000Y284000D01*
X433000Y283000D01*
X418000Y403000D02*
X419000Y405000D01*
X418000Y407000D01*
X420000Y406000D01*
X422000Y407000D01*
X421000Y405000D01*
X422000Y403000D01*
X420000Y404000D01*
X418000Y403000D01*
X425500Y388000D02*
X426500Y390000D01*
X425500Y392000D01*
X427500Y391000D01*
X429500Y392000D01*
X428500Y390000D01*
X429500Y388000D01*
X427500Y389000D01*
X425500Y388000D01*
X418000Y373000D02*
X419000Y375000D01*
X418000Y377000D01*
X420000Y376000D01*
X422000Y377000D01*
X421000Y375000D01*
X422000Y373000D01*
X420000Y374000D01*
X418000Y373000D01*
X403000Y433000D02*
X404000Y435000D01*
X403000Y437000D01*
X405000Y436000D01*
X407000Y437000D01*
X406000Y435000D01*
X407000Y433000D01*
X405000Y434000D01*
X403000Y433000D01*
X410500Y418000D02*
X411500Y420000D01*
X410500Y422000D01*
X412500Y421000D01*
X414500Y422000D01*
X413500Y420000D01*
X414500Y418000D01*
X412500Y419000D01*
X410500Y418000D01*
X403000Y403000D02*
X404000Y405000D01*
X403000Y407000D01*
X405000Y406000D01*
X407000Y407000D01*
X406000Y405000D01*
X407000Y403000D01*
X405000Y404000D01*
X403000Y403000D01*
X410500Y388000D02*
X411500Y390000D01*
X410500Y392000D01*
X412500Y391000D01*
X414500Y392000D01*
X413500Y390000D01*
X414500Y388000D01*
X412500Y389000D01*
X410500Y388000D01*
X403000Y373000D02*
X404000Y375000D01*
X403000Y377000D01*
X405000Y376000D01*
X407000Y377000D01*
X406000Y375000D01*
X407000Y373000D01*
X405000Y374000D01*
X403000Y373000D01*
Y283000D02*
X404000Y285000D01*
X403000Y287000D01*
X405000Y286000D01*
X407000Y287000D01*
X406000Y285000D01*
X407000Y283000D01*
X405000Y284000D01*
X403000Y283000D01*
X410500Y208000D02*
X411500Y210000D01*
X410500Y212000D01*
X412500Y211000D01*
X414500Y212000D01*
X413500Y210000D01*
X414500Y208000D01*
X412500Y209000D01*
X410500Y208000D01*
X403000Y193000D02*
X404000Y195000D01*
X403000Y197000D01*
X405000Y196000D01*
X407000Y197000D01*
X406000Y195000D01*
X407000Y193000D01*
X405000Y194000D01*
X403000Y193000D01*
X395500Y388000D02*
X396500Y390000D01*
X395500Y392000D01*
X397500Y391000D01*
X399500Y392000D01*
X398500Y390000D01*
X399500Y388000D01*
X397500Y389000D01*
X395500Y388000D01*
X388000Y343000D02*
X389000Y345000D01*
X388000Y347000D01*
X390000Y346000D01*
X392000Y347000D01*
X391000Y345000D01*
X392000Y343000D01*
X390000Y344000D01*
X388000Y343000D01*
X395500Y298000D02*
X396500Y300000D01*
X395500Y302000D01*
X397500Y301000D01*
X399500Y302000D01*
X398500Y300000D01*
X399500Y298000D01*
X397500Y299000D01*
X395500Y298000D01*
Y268000D02*
X396500Y270000D01*
X395500Y272000D01*
X397500Y271000D01*
X399500Y272000D01*
X398500Y270000D01*
X399500Y268000D01*
X397500Y269000D01*
X395500Y268000D01*
Y208000D02*
X396500Y210000D01*
X395500Y212000D01*
X397500Y211000D01*
X399500Y212000D01*
X398500Y210000D01*
X399500Y208000D01*
X397500Y209000D01*
X395500Y208000D01*
X380500Y448000D02*
X381500Y450000D01*
X380500Y452000D01*
X382500Y451000D01*
X384500Y452000D01*
X383500Y450000D01*
X384500Y448000D01*
X382500Y449000D01*
X380500Y448000D01*
Y418000D02*
X381500Y420000D01*
X380500Y422000D01*
X382500Y421000D01*
X384500Y422000D01*
X383500Y420000D01*
X384500Y418000D01*
X382500Y419000D01*
X380500Y418000D01*
X373000Y403000D02*
X374000Y405000D01*
X373000Y407000D01*
X375000Y406000D01*
X377000Y407000D01*
X376000Y405000D01*
X377000Y403000D01*
X375000Y404000D01*
X373000Y403000D01*
Y313000D02*
X374000Y315000D01*
X373000Y317000D01*
X375000Y316000D01*
X377000Y317000D01*
X376000Y315000D01*
X377000Y313000D01*
X375000Y314000D01*
X373000Y313000D01*
X380500Y298000D02*
X381500Y300000D01*
X380500Y302000D01*
X382500Y301000D01*
X384500Y302000D01*
X383500Y300000D01*
X384500Y298000D01*
X382500Y299000D01*
X380500Y298000D01*
Y268000D02*
X381500Y270000D01*
X380500Y272000D01*
X382500Y271000D01*
X384500Y272000D01*
X383500Y270000D01*
X384500Y268000D01*
X382500Y269000D01*
X380500Y268000D01*
Y178000D02*
X381500Y180000D01*
X380500Y182000D01*
X382500Y181000D01*
X384500Y182000D01*
X383500Y180000D01*
X384500Y178000D01*
X382500Y179000D01*
X380500Y178000D01*
X365500Y448000D02*
X366500Y450000D01*
X365500Y452000D01*
X367500Y451000D01*
X369500Y452000D01*
X368500Y450000D01*
X369500Y448000D01*
X367500Y449000D01*
X365500Y448000D01*
Y388000D02*
X366500Y390000D01*
X365500Y392000D01*
X367500Y391000D01*
X369500Y392000D01*
X368500Y390000D01*
X369500Y388000D01*
X367500Y389000D01*
X365500Y388000D01*
X350500Y448000D02*
X351500Y450000D01*
X350500Y452000D01*
X352500Y451000D01*
X354500Y452000D01*
X353500Y450000D01*
X354500Y448000D01*
X352500Y449000D01*
X350500Y448000D01*
Y388000D02*
X351500Y390000D01*
X350500Y392000D01*
X352500Y391000D01*
X354500Y392000D01*
X353500Y390000D01*
X354500Y388000D01*
X352500Y389000D01*
X350500Y388000D01*
X343000Y223000D02*
X344000Y225000D01*
X343000Y227000D01*
X345000Y226000D01*
X347000Y227000D01*
X346000Y225000D01*
X347000Y223000D01*
X345000Y224000D01*
X343000Y223000D01*
X335500Y448000D02*
X336500Y450000D01*
X335500Y452000D01*
X337500Y451000D01*
X339500Y452000D01*
X338500Y450000D01*
X339500Y448000D01*
X337500Y449000D01*
X335500Y448000D01*
Y418000D02*
X336500Y420000D01*
X335500Y422000D01*
X337500Y421000D01*
X339500Y422000D01*
X338500Y420000D01*
X339500Y418000D01*
X337500Y419000D01*
X335500Y418000D01*
X328000Y403000D02*
X329000Y405000D01*
X328000Y407000D01*
X330000Y406000D01*
X332000Y407000D01*
X331000Y405000D01*
X332000Y403000D01*
X330000Y404000D01*
X328000Y403000D01*
Y313000D02*
X329000Y315000D01*
X328000Y317000D01*
X330000Y316000D01*
X332000Y317000D01*
X331000Y315000D01*
X332000Y313000D01*
X330000Y314000D01*
X328000Y313000D01*
X335500Y298000D02*
X336500Y300000D01*
X335500Y302000D01*
X337500Y301000D01*
X339500Y302000D01*
X338500Y300000D01*
X339500Y298000D01*
X337500Y299000D01*
X335500Y298000D01*
Y178000D02*
X336500Y180000D01*
X335500Y182000D01*
X337500Y181000D01*
X339500Y182000D01*
X338500Y180000D01*
X339500Y178000D01*
X337500Y179000D01*
X335500Y178000D01*
X328000Y163000D02*
X329000Y165000D01*
X328000Y167000D01*
X330000Y166000D01*
X332000Y167000D01*
X331000Y165000D01*
X332000Y163000D01*
X330000Y164000D01*
X328000Y163000D01*
X320500Y448000D02*
X321500Y450000D01*
X320500Y452000D01*
X322500Y451000D01*
X324500Y452000D01*
X323500Y450000D01*
X324500Y448000D01*
X322500Y449000D01*
X320500Y448000D01*
Y418000D02*
X321500Y420000D01*
X320500Y422000D01*
X322500Y421000D01*
X324500Y422000D01*
X323500Y420000D01*
X324500Y418000D01*
X322500Y419000D01*
X320500Y418000D01*
Y178000D02*
X321500Y180000D01*
X320500Y182000D01*
X322500Y181000D01*
X324500Y182000D01*
X323500Y180000D01*
X324500Y178000D01*
X322500Y179000D01*
X320500Y178000D01*
X313000Y163000D02*
X314000Y165000D01*
X313000Y167000D01*
X315000Y166000D01*
X317000Y167000D01*
X316000Y165000D01*
X317000Y163000D01*
X315000Y164000D01*
X313000Y163000D01*
X305500Y448000D02*
X306500Y450000D01*
X305500Y452000D01*
X307500Y451000D01*
X309500Y452000D01*
X308500Y450000D01*
X309500Y448000D01*
X307500Y449000D01*
X305500Y448000D01*
Y328000D02*
X306500Y330000D01*
X305500Y332000D01*
X307500Y331000D01*
X309500Y332000D01*
X308500Y330000D01*
X309500Y328000D01*
X307500Y329000D01*
X305500Y328000D01*
Y298000D02*
X306500Y300000D01*
X305500Y302000D01*
X307500Y301000D01*
X309500Y302000D01*
X308500Y300000D01*
X309500Y298000D01*
X307500Y299000D01*
X305500Y298000D01*
X298000Y223000D02*
X299000Y225000D01*
X298000Y227000D01*
X300000Y226000D01*
X302000Y227000D01*
X301000Y225000D01*
X302000Y223000D01*
X300000Y224000D01*
X298000Y223000D01*
X305500Y178000D02*
X306500Y180000D01*
X305500Y182000D01*
X307500Y181000D01*
X309500Y182000D01*
X308500Y180000D01*
X309500Y178000D01*
X307500Y179000D01*
X305500Y178000D01*
X298000Y163000D02*
X299000Y165000D01*
X298000Y167000D01*
X300000Y166000D01*
X302000Y167000D01*
X301000Y165000D01*
X302000Y163000D01*
X300000Y164000D01*
X298000Y163000D01*
X290500Y448000D02*
X291500Y450000D01*
X290500Y452000D01*
X292500Y451000D01*
X294500Y452000D01*
X293500Y450000D01*
X294500Y448000D01*
X292500Y449000D01*
X290500Y448000D01*
Y418000D02*
X291500Y420000D01*
X290500Y422000D01*
X292500Y421000D01*
X294500Y422000D01*
X293500Y420000D01*
X294500Y418000D01*
X292500Y419000D01*
X290500Y418000D01*
X283000Y313000D02*
X284000Y315000D01*
X283000Y317000D01*
X285000Y316000D01*
X287000Y317000D01*
X286000Y315000D01*
X287000Y313000D01*
X285000Y314000D01*
X283000Y313000D01*
Y223000D02*
X284000Y225000D01*
X283000Y227000D01*
X285000Y226000D01*
X287000Y227000D01*
X286000Y225000D01*
X287000Y223000D01*
X285000Y224000D01*
X283000Y223000D01*
X290500Y178000D02*
X291500Y180000D01*
X290500Y182000D01*
X292500Y181000D01*
X294500Y182000D01*
X293500Y180000D01*
X294500Y178000D01*
X292500Y179000D01*
X290500Y178000D01*
X275500Y448000D02*
X276500Y450000D01*
X275500Y452000D01*
X277500Y451000D01*
X279500Y452000D01*
X278500Y450000D01*
X279500Y448000D01*
X277500Y449000D01*
X275500Y448000D01*
Y418000D02*
X276500Y420000D01*
X275500Y422000D01*
X277500Y421000D01*
X279500Y422000D01*
X278500Y420000D01*
X279500Y418000D01*
X277500Y419000D01*
X275500Y418000D01*
Y388000D02*
X276500Y390000D01*
X275500Y392000D01*
X277500Y391000D01*
X279500Y392000D01*
X278500Y390000D01*
X279500Y388000D01*
X277500Y389000D01*
X275500Y388000D01*
X268000Y313000D02*
X269000Y315000D01*
X268000Y317000D01*
X270000Y316000D01*
X272000Y317000D01*
X271000Y315000D01*
X272000Y313000D01*
X270000Y314000D01*
X268000Y313000D01*
X275500Y178000D02*
X276500Y180000D01*
X275500Y182000D01*
X277500Y181000D01*
X279500Y182000D01*
X278500Y180000D01*
X279500Y178000D01*
X277500Y179000D01*
X275500Y178000D01*
X260500Y448000D02*
X261500Y450000D01*
X260500Y452000D01*
X262500Y451000D01*
X264500Y452000D01*
X263500Y450000D01*
X264500Y448000D01*
X262500Y449000D01*
X260500Y448000D01*
Y418000D02*
X261500Y420000D01*
X260500Y422000D01*
X262500Y421000D01*
X264500Y422000D01*
X263500Y420000D01*
X264500Y418000D01*
X262500Y419000D01*
X260500Y418000D01*
Y178000D02*
X261500Y180000D01*
X260500Y182000D01*
X262500Y181000D01*
X264500Y182000D01*
X263500Y180000D01*
X264500Y178000D01*
X262500Y179000D01*
X260500Y178000D01*
X245500Y448000D02*
X246500Y450000D01*
X245500Y452000D01*
X247500Y451000D01*
X249500Y452000D01*
X248500Y450000D01*
X249500Y448000D01*
X247500Y449000D01*
X245500Y448000D01*
Y418000D02*
X246500Y420000D01*
X245500Y422000D01*
X247500Y421000D01*
X249500Y422000D01*
X248500Y420000D01*
X249500Y418000D01*
X247500Y419000D01*
X245500Y418000D01*
Y388000D02*
X246500Y390000D01*
X245500Y392000D01*
X247500Y391000D01*
X249500Y392000D01*
X248500Y390000D01*
X249500Y388000D01*
X247500Y389000D01*
X245500Y388000D01*
X208000Y373000D02*
X209000Y375000D01*
X208000Y377000D01*
X210000Y376000D01*
X212000Y377000D01*
X211000Y375000D01*
X212000Y373000D01*
X210000Y374000D01*
X208000Y373000D01*
X193000Y223000D02*
X194000Y225000D01*
X193000Y227000D01*
X195000Y226000D01*
X197000Y227000D01*
X196000Y225000D01*
X197000Y223000D01*
X195000Y224000D01*
X193000Y223000D01*
X163000Y313000D02*
X164000Y315000D01*
X163000Y317000D01*
X165000Y316000D01*
X167000Y317000D01*
X166000Y315000D01*
X167000Y313000D01*
X165000Y314000D01*
X163000Y313000D01*
Y283000D02*
X164000Y285000D01*
X163000Y287000D01*
X165000Y286000D01*
X167000Y287000D01*
X166000Y285000D01*
X167000Y283000D01*
X165000Y284000D01*
X163000Y283000D01*
X208400Y276500D02*
X209400Y277500D01*
X210400D01*
X209400Y278500D01*
X210400Y279500D01*
X209400D01*
X208400Y280500D01*
X207400Y279500D01*
X206400D01*
X207400Y278500D01*
X206400Y277500D01*
X207400D01*
X208400Y276500D01*
X192000Y295244D02*
X193000Y296244D01*
X194000D01*
X193000Y297244D01*
X194000Y298244D01*
X193000D01*
X192000Y299244D01*
X191000Y298244D01*
X190000D01*
X191000Y297244D01*
X190000Y296244D01*
X191000D01*
X192000Y295244D01*
X268650Y271500D02*
X269650Y272500D01*
X270650D01*
X269650Y273500D01*
X270650Y274500D01*
X269650D01*
X268650Y275500D01*
X267650Y274500D01*
X266650D01*
X267650Y273500D01*
X266650Y272500D01*
X267650D01*
X268650Y271500D01*
X277217Y300000D02*
X278217Y301000D01*
X279217D01*
X278217Y302000D01*
X279217Y303000D01*
X278217D01*
X277217Y304000D01*
X276217Y303000D01*
X275217D01*
X276217Y302000D01*
X275217Y301000D01*
X276217D01*
X277217Y300000D01*
X247000Y277000D02*
X248000Y278000D01*
X249000D01*
X248000Y279000D01*
X249000Y280000D01*
X248000D01*
X247000Y281000D01*
X246000Y280000D01*
X245000D01*
X246000Y279000D01*
X245000Y278000D01*
X246000D01*
X247000Y277000D01*
X243500Y270500D02*
X244500Y271500D01*
X245500D01*
X244500Y272500D01*
X245500Y273500D01*
X244500D01*
X243500Y274500D01*
X242500Y273500D01*
X241500D01*
X242500Y272500D01*
X241500Y271500D01*
X242500D01*
X243500Y270500D01*
X443000Y335000D02*
X444000Y336000D01*
X445000D01*
X444000Y337000D01*
X445000Y338000D01*
X444000D01*
X443000Y339000D01*
X442000Y338000D01*
X441000D01*
X442000Y337000D01*
X441000Y336000D01*
X442000D01*
X443000Y335000D01*
X311500Y261744D02*
X312500Y262744D01*
X313500D01*
X312500Y263744D01*
X313500Y264744D01*
X312500D01*
X311500Y265744D01*
X310500Y264744D01*
X309500D01*
X310500Y263744D01*
X309500Y262744D01*
X310500D01*
X311500Y261744D01*
X310000Y268500D02*
X311000Y269500D01*
X312000D01*
X311000Y270500D01*
X312000Y271500D01*
X311000D01*
X310000Y272500D01*
X309000Y271500D01*
X308000D01*
X309000Y270500D01*
X308000Y269500D01*
X309000D01*
X310000Y268500D01*
X275500Y263500D02*
X276500Y264500D01*
X277500D01*
X276500Y265500D01*
X277500Y266500D01*
X276500D01*
X275500Y267500D01*
X274500Y266500D01*
X273500D01*
X274500Y265500D01*
X273500Y264500D01*
X274500D01*
X275500Y263500D01*
X393500Y373500D02*
X394500Y374500D01*
X395500D01*
X394500Y375500D01*
X395500Y376500D01*
X394500D01*
X393500Y377500D01*
X392500Y376500D01*
X391500D01*
X392500Y375500D01*
X391500Y374500D01*
X392500D01*
X393500Y373500D01*
X215000Y324000D02*
X216000Y325000D01*
X217000D01*
X216000Y326000D01*
X217000Y327000D01*
X216000D01*
X215000Y328000D01*
X214000Y327000D01*
X213000D01*
X214000Y326000D01*
X213000Y325000D01*
X214000D01*
X215000Y324000D01*
X174500Y343480D02*
X175500Y344480D01*
X176500D01*
X175500Y345480D01*
X176500Y346480D01*
X175500D01*
X174500Y347480D01*
X173500Y346480D01*
X172500D01*
X173500Y345480D01*
X172500Y344480D01*
X173500D01*
X174500Y343480D01*
X198500Y264500D02*
X199500Y265500D01*
X200500D01*
X199500Y266500D01*
X200500Y267500D01*
X199500D01*
X198500Y268500D01*
X197500Y267500D01*
X196500D01*
X197500Y266500D01*
X196500Y265500D01*
X197500D01*
X198500Y264500D01*
X206500Y226500D02*
X207500Y227500D01*
X208500D01*
X207500Y228500D01*
X208500Y229500D01*
X207500D01*
X206500Y230500D01*
X205500Y229500D01*
X204500D01*
X205500Y228500D01*
X204500Y227500D01*
X205500D01*
X206500Y226500D01*
X221000Y279000D02*
X222000Y280000D01*
X223000D01*
X222000Y281000D01*
X223000Y282000D01*
X222000D01*
X221000Y283000D01*
X220000Y282000D01*
X219000D01*
X220000Y281000D01*
X219000Y280000D01*
X220000D01*
X221000Y279000D01*
X201000Y253500D02*
X202000Y254500D01*
X203000D01*
X202000Y255500D01*
X203000Y256500D01*
X202000D01*
X201000Y257500D01*
X200000Y256500D01*
X199000D01*
X200000Y255500D01*
X199000Y254500D01*
X200000D01*
X201000Y253500D01*
X344000Y259346D02*
X345000Y260346D01*
X346000D01*
X345000Y261346D01*
X346000Y262346D01*
X345000D01*
X344000Y263346D01*
X343000Y262346D01*
X342000D01*
X343000Y261346D01*
X342000Y260346D01*
X343000D01*
X344000Y259346D01*
X278500Y315500D02*
X279500Y316500D01*
X280500D01*
X279500Y317500D01*
X280500Y318500D01*
X279500D01*
X278500Y319500D01*
X277500Y318500D01*
X276500D01*
X277500Y317500D01*
X276500Y316500D01*
X277500D01*
X278500Y315500D01*
X207500Y316500D02*
X208500Y317500D01*
X209500D01*
X208500Y318500D01*
X209500Y319500D01*
X208500D01*
X207500Y320500D01*
X206500Y319500D01*
X205500D01*
X206500Y318500D01*
X205500Y317500D01*
X206500D01*
X207500Y316500D01*
X209000Y312500D02*
X210000Y313500D01*
X211000D01*
X210000Y314500D01*
X211000Y315500D01*
X210000D01*
X209000Y316500D01*
X208000Y315500D01*
X207000D01*
X208000Y314500D01*
X207000Y313500D01*
X208000D01*
X209000Y312500D01*
X278000Y320000D02*
X279000Y321000D01*
X280000D01*
X279000Y322000D01*
X280000Y323000D01*
X279000D01*
X278000Y324000D01*
X277000Y323000D01*
X276000D01*
X277000Y322000D01*
X276000Y321000D01*
X277000D01*
X278000Y320000D01*
X305000Y257500D02*
X306000Y258500D01*
X307000D01*
X306000Y259500D01*
X307000Y260500D01*
X306000D01*
X305000Y261500D01*
X304000Y260500D01*
X303000D01*
X304000Y259500D01*
X303000Y258500D01*
X304000D01*
X305000Y257500D01*
X256000Y351095D02*
X257000Y352095D01*
X258000D01*
X257000Y353095D01*
X258000Y354095D01*
X257000D01*
X256000Y355095D01*
X255000Y354095D01*
X254000D01*
X255000Y353095D01*
X254000Y352095D01*
X255000D01*
X256000Y351095D01*
X212000Y213500D02*
X213000Y214500D01*
X214000D01*
X213000Y215500D01*
X214000Y216500D01*
X213000D01*
X212000Y217500D01*
X211000Y216500D01*
X210000D01*
X211000Y215500D01*
X210000Y214500D01*
X211000D01*
X212000Y213500D01*
X294000Y388500D02*
X295000Y389500D01*
X296000D01*
X295000Y390500D01*
X296000Y391500D01*
X295000D01*
X294000Y392500D01*
X293000Y391500D01*
X292000D01*
X293000Y390500D01*
X292000Y389500D01*
X293000D01*
X294000Y388500D01*
X310201Y379201D02*
X311201Y380201D01*
X312201D01*
X311201Y381201D01*
X312201Y382201D01*
X311201D01*
X310201Y383201D01*
X309201Y382201D01*
X308201D01*
X309201Y381201D01*
X308201Y380201D01*
X309201D01*
X310201Y379201D01*
X272500Y352543D02*
X273500Y353543D01*
X274500D01*
X273500Y354543D01*
X274500Y355543D01*
X273500D01*
X272500Y356543D01*
X271500Y355543D01*
X270500D01*
X271500Y354543D01*
X270500Y353543D01*
X271500D01*
X272500Y352543D01*
X317158Y357000D02*
X318158Y358000D01*
X319158D01*
X318158Y359000D01*
X319158Y360000D01*
X318158D01*
X317158Y361000D01*
X316158Y360000D01*
X315158D01*
X316158Y359000D01*
X315158Y358000D01*
X316158D01*
X317158Y357000D01*
X314961Y379201D02*
X315961Y380201D01*
X316961D01*
X315961Y381201D01*
X316961Y382201D01*
X315961D01*
X314961Y383201D01*
X313961Y382201D01*
X312961D01*
X313961Y381201D01*
X312961Y380201D01*
X313961D01*
X314961Y379201D01*
X318500Y387500D02*
X319500Y388500D01*
X320500D01*
X319500Y389500D01*
X320500Y390500D01*
X319500D01*
X318500Y391500D01*
X317500Y390500D01*
X316500D01*
X317500Y389500D01*
X316500Y388500D01*
X317500D01*
X318500Y387500D01*
X307000Y386500D02*
X308000Y387500D01*
X309000D01*
X308000Y388500D01*
X309000Y389500D01*
X308000D01*
X307000Y390500D01*
X306000Y389500D01*
X305000D01*
X306000Y388500D01*
X305000Y387500D01*
X306000D01*
X307000Y386500D01*
X239000Y352248D02*
X240000Y353248D01*
X241000D01*
X240000Y354248D01*
X241000Y355248D01*
X240000D01*
X239000Y356248D01*
X238000Y355248D01*
X237000D01*
X238000Y354248D01*
X237000Y353248D01*
X238000D01*
X239000Y352248D01*
X345000Y249689D02*
X346000Y250689D01*
X347000D01*
X346000Y251689D01*
X347000Y252689D01*
X346000D01*
X345000Y253689D01*
X344000Y252689D01*
X343000D01*
X344000Y251689D01*
X343000Y250689D01*
X344000D01*
X345000Y249689D01*
X301500Y260752D02*
X302500Y261752D01*
X303500D01*
X302500Y262752D01*
X303500Y263752D01*
X302500D01*
X301500Y264752D01*
X300500Y263752D01*
X299500D01*
X300500Y262752D01*
X299500Y261752D01*
X300500D01*
X301500Y260752D01*
X306000Y307500D02*
X307000Y308500D01*
X308000D01*
X307000Y309500D01*
X308000Y310500D01*
X307000D01*
X306000Y311500D01*
X305000Y310500D01*
X304000D01*
X305000Y309500D01*
X304000Y308500D01*
X305000D01*
X306000Y307500D01*
X184500Y347811D02*
X185500Y348811D01*
X186500D01*
X185500Y349811D01*
X186500Y350811D01*
X185500D01*
X184500Y351811D01*
X183500Y350811D01*
X182500D01*
X183500Y349811D01*
X182500Y348811D01*
X183500D01*
X184500Y347811D01*
X229360Y380000D02*
X230360Y381000D01*
X231360D01*
X230360Y382000D01*
X231360Y383000D01*
X230360D01*
X229360Y384000D01*
X228360Y383000D01*
X227360D01*
X228360Y382000D01*
X227360Y381000D01*
X228360D01*
X229360Y380000D01*
X346500Y175500D02*
X347500Y176500D01*
X348500D01*
X347500Y177500D01*
X348500Y178500D01*
X347500D01*
X346500Y179500D01*
X345500Y178500D01*
X344500D01*
X345500Y177500D01*
X344500Y176500D01*
X345500D01*
X346500Y175500D01*
X220500Y307811D02*
X221500Y308811D01*
X222500D01*
X221500Y309811D01*
X222500Y310811D01*
X221500D01*
X220500Y311811D01*
X219500Y310811D01*
X218500D01*
X219500Y309811D01*
X218500Y308811D01*
X219500D01*
X220500Y307811D01*
X216500Y304500D02*
X217500Y305500D01*
X218500D01*
X217500Y306500D01*
X218500Y307500D01*
X217500D01*
X216500Y308500D01*
X215500Y307500D01*
X214500D01*
X215500Y306500D01*
X214500Y305500D01*
X215500D01*
X216500Y304500D01*
X212000Y301366D02*
X213000Y302366D01*
X214000D01*
X213000Y303366D01*
X214000Y304366D01*
X213000D01*
X212000Y305366D01*
X211000Y304366D01*
X210000D01*
X211000Y303366D01*
X210000Y302366D01*
X211000D01*
X212000Y301366D01*
X210500Y284000D02*
X211500Y285000D01*
X212500D01*
X211500Y286000D01*
X212500Y287000D01*
X211500D01*
X210500Y288000D01*
X209500Y287000D01*
X208500D01*
X209500Y286000D01*
X208500Y285000D01*
X209500D01*
X210500Y284000D01*
X207000Y281000D02*
X208000Y282000D01*
X209000D01*
X208000Y283000D01*
X209000Y284000D01*
X208000D01*
X207000Y285000D01*
X206000Y284000D01*
X205000D01*
X206000Y283000D01*
X205000Y282000D01*
X206000D01*
X207000Y281000D01*
X336500Y318500D02*
X337500Y319500D01*
X338500D01*
X337500Y320500D01*
X338500Y321500D01*
X337500D01*
X336500Y322500D01*
X335500Y321500D01*
X334500D01*
X335500Y320500D01*
X334500Y319500D01*
X335500D01*
X336500Y318500D01*
X244500Y259500D02*
X245500Y260500D01*
X246500D01*
X245500Y261500D01*
X246500Y262500D01*
X245500D01*
X244500Y263500D01*
X243500Y262500D01*
X242500D01*
X243500Y261500D01*
X242500Y260500D01*
X243500D01*
X244500Y259500D01*
X258500Y291500D02*
X259500Y292500D01*
X260500D01*
X259500Y293500D01*
X260500Y294500D01*
X259500D01*
X258500Y295500D01*
X257500Y294500D01*
X256500D01*
X257500Y293500D01*
X256500Y292500D01*
X257500D01*
X258500Y291500D01*
X310201Y391000D02*
X311201Y392000D01*
X312201D01*
X311201Y393000D01*
X312201Y394000D01*
X311201D01*
X310201Y395000D01*
X309201Y394000D01*
X308201D01*
X309201Y393000D01*
X308201Y392000D01*
X309201D01*
X310201Y391000D01*
X232500Y364500D02*
X233500Y365500D01*
X234500D01*
X233500Y366500D01*
X234500Y367500D01*
X233500D01*
X232500Y368500D01*
X231500Y367500D01*
X230500D01*
X231500Y366500D01*
X230500Y365500D01*
X231500D01*
X232500Y364500D01*
X363500Y341000D02*
X364500Y342000D01*
X365500D01*
X364500Y343000D01*
X365500Y344000D01*
X364500D01*
X363500Y345000D01*
X362500Y344000D01*
X361500D01*
X362500Y343000D01*
X361500Y342000D01*
X362500D01*
X363500Y341000D01*
X369500Y356000D02*
X370500Y357000D01*
X371500D01*
X370500Y358000D01*
X371500Y359000D01*
X370500D01*
X369500Y360000D01*
X368500Y359000D01*
X367500D01*
X368500Y358000D01*
X367500Y357000D01*
X368500D01*
X369500Y356000D01*
X366500Y352248D02*
X367500Y353248D01*
X368500D01*
X367500Y354248D01*
X368500Y355248D01*
X367500D01*
X366500Y356248D01*
X365500Y355248D01*
X364500D01*
X365500Y354248D01*
X364500Y353248D01*
X365500D01*
X366500Y352248D01*
X333000Y344850D02*
X334000Y345850D01*
X335000D01*
X334000Y346850D01*
X335000Y347850D01*
X334000D01*
X333000Y348850D01*
X332000Y347850D01*
X331000D01*
X332000Y346850D01*
X331000Y345850D01*
X332000D01*
X333000Y344850D01*
X237000Y326500D02*
X238000Y327500D01*
X239000D01*
X238000Y328500D01*
X239000Y329500D01*
X238000D01*
X237000Y330500D01*
X236000Y329500D01*
X235000D01*
X236000Y328500D01*
X235000Y327500D01*
X236000D01*
X237000Y326500D01*
X392000Y352748D02*
X393000Y353748D01*
X394000D01*
X393000Y354748D01*
X394000Y355748D01*
X393000D01*
X392000Y356748D01*
X391000Y355748D01*
X390000D01*
X391000Y354748D01*
X390000Y353748D01*
X391000D01*
X392000Y352748D01*
X252500Y335500D02*
X253500Y336500D01*
X254500D01*
X253500Y337500D01*
X254500Y338500D01*
X253500D01*
X252500Y339500D01*
X251500Y338500D01*
X250500D01*
X251500Y337500D01*
X250500Y336500D01*
X251500D01*
X252500Y335500D01*
X242500Y338000D02*
X243500Y339000D01*
X244500D01*
X243500Y340000D01*
X244500Y341000D01*
X243500D01*
X242500Y342000D01*
X241500Y341000D01*
X240500D01*
X241500Y340000D01*
X240500Y339000D01*
X241500D01*
X242500Y338000D01*
X379500Y352500D02*
X380500Y353500D01*
X381500D01*
X380500Y354500D01*
X381500Y355500D01*
X380500D01*
X379500Y356500D01*
X378500Y355500D01*
X377500D01*
X378500Y354500D01*
X377500Y353500D01*
X378500D01*
X379500Y352500D01*
X391000Y318500D02*
X392000Y319500D01*
X393000D01*
X392000Y320500D01*
X393000Y321500D01*
X392000D01*
X391000Y322500D01*
X390000Y321500D01*
X389000D01*
X390000Y320500D01*
X389000Y319500D01*
X390000D01*
X391000Y318500D01*
X414756Y332500D02*
X415756Y333500D01*
X416756D01*
X415756Y334500D01*
X416756Y335500D01*
X415756D01*
X414756Y336500D01*
X413756Y335500D01*
X412756D01*
X413756Y334500D01*
X412756Y333500D01*
X413756D01*
X414756Y332500D01*
X373000Y319000D02*
X374000Y320000D01*
X375000D01*
X374000Y321000D01*
X375000Y322000D01*
X374000D01*
X373000Y323000D01*
X372000Y322000D01*
X371000D01*
X372000Y321000D01*
X371000Y320000D01*
X372000D01*
X373000Y319000D01*
X349500Y276114D02*
X350500Y277114D01*
X351500D01*
X350500Y278114D01*
X351500Y279114D01*
X350500D01*
X349500Y280114D01*
X348500Y279114D01*
X347500D01*
X348500Y278114D01*
X347500Y277114D01*
X348500D01*
X349500Y276114D01*
X289500Y283339D02*
X290500Y284339D01*
X291500D01*
X290500Y285339D01*
X291500Y286339D01*
X290500D01*
X289500Y287339D01*
X288500Y286339D01*
X287500D01*
X288500Y285339D01*
X287500Y284339D01*
X288500D01*
X289500Y283339D01*
X270000Y337000D02*
X271000Y338000D01*
X272000D01*
X271000Y339000D01*
X272000Y340000D01*
X271000D01*
X270000Y341000D01*
X269000Y340000D01*
X268000D01*
X269000Y339000D01*
X268000Y338000D01*
X269000D01*
X270000Y337000D01*
X235000Y331500D02*
X236000Y332500D01*
X237000D01*
X236000Y333500D01*
X237000Y334500D01*
X236000D01*
X235000Y335500D01*
X234000Y334500D01*
X233000D01*
X234000Y333500D01*
X233000Y332500D01*
X234000D01*
X235000Y331500D01*
X247500Y294500D02*
X248500Y295500D01*
X249500D01*
X248500Y296500D01*
X249500Y297500D01*
X248500D01*
X247500Y298500D01*
X246500Y297500D01*
X245500D01*
X246500Y296500D01*
X245500Y295500D01*
X246500D01*
X247500Y294500D01*
X369874Y341000D02*
X370874Y342000D01*
X371874D01*
X370874Y343000D01*
X371874Y344000D01*
X370874D01*
X369874Y345000D01*
X368874Y344000D01*
X367874D01*
X368874Y343000D01*
X367874Y342000D01*
X368874D01*
X369874Y341000D01*
X281000Y276500D02*
X282000Y277500D01*
X283000D01*
X282000Y278500D01*
X283000Y279500D01*
X282000D01*
X281000Y280500D01*
X280000Y279500D01*
X279000D01*
X280000Y278500D01*
X279000Y277500D01*
X280000D01*
X281000Y276500D01*
X292500Y342500D02*
X293500Y343500D01*
X294500D01*
X293500Y344500D01*
X294500Y345500D01*
X293500D01*
X292500Y346500D01*
X291500Y345500D01*
X290500D01*
X291500Y344500D01*
X290500Y343500D01*
X291500D01*
X292500Y342500D01*
X367000Y271500D02*
X368000Y272500D01*
X369000D01*
X368000Y273500D01*
X369000Y274500D01*
X368000D01*
X367000Y275500D01*
X366000Y274500D01*
X365000D01*
X366000Y273500D01*
X365000Y272500D01*
X366000D01*
X367000Y271500D01*
X302752Y327000D02*
X303752Y328000D01*
X304752D01*
X303752Y329000D01*
X304752Y330000D01*
X303752D01*
X302752Y331000D01*
X301752Y330000D01*
X300752D01*
X301752Y329000D01*
X300752Y328000D01*
X301752D01*
X302752Y327000D01*
X316500Y330500D02*
X317500Y331500D01*
X318500D01*
X317500Y332500D01*
X318500Y333500D01*
X317500D01*
X316500Y334500D01*
X315500Y333500D01*
X314500D01*
X315500Y332500D01*
X314500Y331500D01*
X315500D01*
X316500Y330500D01*
X283122Y332500D02*
X284122Y333500D01*
X285122D01*
X284122Y334500D01*
X285122Y335500D01*
X284122D01*
X283122Y336500D01*
X282122Y335500D01*
X281122D01*
X282122Y334500D01*
X281122Y333500D01*
X282122D01*
X283122Y332500D01*
X317000Y352500D02*
X318000Y353500D01*
X319000D01*
X318000Y354500D01*
X319000Y355500D01*
X318000D01*
X317000Y356500D01*
X316000Y355500D01*
X315000D01*
X316000Y354500D01*
X315000Y353500D01*
X316000D01*
X317000Y352500D01*
X235500Y368000D02*
X236500Y369000D01*
X237500D01*
X236500Y370000D01*
X237500Y371000D01*
X236500D01*
X235500Y372000D01*
X234500Y371000D01*
X233500D01*
X234500Y370000D01*
X233500Y369000D01*
X234500D01*
X235500Y368000D01*
X378311Y344000D02*
X379311Y345000D01*
X380311D01*
X379311Y346000D01*
X380311Y347000D01*
X379311D01*
X378311Y348000D01*
X377311Y347000D01*
X376311D01*
X377311Y346000D01*
X376311Y345000D01*
X377311D01*
X378311Y344000D01*
X364500Y311500D02*
X365500Y312500D01*
X366500D01*
X365500Y313500D01*
X366500Y314500D01*
X365500D01*
X364500Y315500D01*
X363500Y314500D01*
X362500D01*
X363500Y313500D01*
X362500Y312500D01*
X363500D01*
X364500Y311500D01*
X350244Y295244D02*
X351244Y296244D01*
X352244D01*
X351244Y297244D01*
X352244Y298244D01*
X351244D01*
X350244Y299244D01*
X349244Y298244D01*
X348244D01*
X349244Y297244D01*
X348244Y296244D01*
X349244D01*
X350244Y295244D01*
X353000Y283756D02*
X354000Y284756D01*
X355000D01*
X354000Y285756D01*
X355000Y286756D01*
X354000D01*
X353000Y287756D01*
X352000Y286756D01*
X351000D01*
X352000Y285756D01*
X351000Y284756D01*
X352000D01*
X353000Y283756D01*
X341500Y343000D02*
X342500Y344000D01*
X343500D01*
X342500Y345000D01*
X343500Y346000D01*
X342500D01*
X341500Y347000D01*
X340500Y346000D01*
X339500D01*
X340500Y345000D01*
X339500Y344000D01*
X340500D01*
X341500Y343000D01*
X336000Y353000D02*
X337000Y354000D01*
X338000D01*
X337000Y355000D01*
X338000Y356000D01*
X337000D01*
X336000Y357000D01*
X335000Y356000D01*
X334000D01*
X335000Y355000D01*
X334000Y354000D01*
X335000D01*
X336000Y353000D01*
X315661Y308122D02*
X316661Y309122D01*
X317661D01*
X316661Y310122D01*
X317661Y311122D01*
X316661D01*
X315661Y312122D01*
X314661Y311122D01*
X313661D01*
X314661Y310122D01*
X313661Y309122D01*
X314661D01*
X315661Y308122D01*
X215500Y310500D02*
X216500Y311500D01*
X217500D01*
X216500Y312500D01*
X217500Y313500D01*
X216500D01*
X215500Y314500D01*
X214500Y313500D01*
X213500D01*
X214500Y312500D01*
X213500Y311500D01*
X214500D01*
X215500Y310500D01*
X315323Y285933D02*
X316323Y286933D01*
X317323D01*
X316323Y287933D01*
X317323Y288933D01*
X316323D01*
X315323Y289933D01*
X314323Y288933D01*
X313323D01*
X314323Y287933D01*
X313323Y286933D01*
X314323D01*
X315323Y285933D01*
X315161Y274839D02*
X316161Y275839D01*
X317161D01*
X316161Y276839D01*
X317161Y277839D01*
X316161D01*
X315161Y278839D01*
X314161Y277839D01*
X313161D01*
X314161Y276839D01*
X313161Y275839D01*
X314161D01*
X315161Y274839D01*
X391250Y329750D02*
X392250Y330750D01*
X393250D01*
X392250Y331750D01*
X393250Y332750D01*
X392250D01*
X391250Y333750D01*
X390250Y332750D01*
X389250D01*
X390250Y331750D01*
X389250Y330750D01*
X390250D01*
X391250Y329750D01*
D94*
X372437Y228000D02*
G03*
X372437Y228000I-2000J0D01*
G01*
Y238000D02*
G03*
X372437Y238000I-2000J0D01*
G01*
Y248000D02*
G03*
X372437Y248000I-2000J0D01*
G01*
%TF.MD5,7339b61d710533591d7ab66c4704e7df*%
M02*
