%TF.GenerationSoftware,Altium Limited,Altium Designer,18.1.6 (161)*%
G04 Layer_Color=128*
%FSLAX25Y25*%
%MOIN*%
%TF.FileFunction,Paste,Bot*%
%TF.Part,Single*%
G01*
G75*
%TA.AperFunction,SMDPad,CuDef*%
%ADD12R,0.02756X0.03543*%
%ADD13R,0.05118X0.03347*%
%ADD15R,0.05315X0.03740*%
%ADD17R,0.03937X0.03543*%
%ADD20R,0.03543X0.03937*%
%ADD23R,0.03347X0.05118*%
%ADD25R,0.03543X0.02756*%
%ADD40R,0.03740X0.05315*%
%ADD41R,0.09252X0.08661*%
%ADD42R,0.12992X0.10630*%
%ADD43R,0.03937X0.10630*%
%ADD44R,0.04331X0.04331*%
D12*
X356335Y304500D02*
D03*
X350823D02*
D03*
X399413Y308935D02*
D03*
X404925D02*
D03*
X399413Y315388D02*
D03*
X404925D02*
D03*
X359244Y330000D02*
D03*
X364756D02*
D03*
D13*
X269500Y221847D02*
D03*
Y215154D02*
D03*
D15*
X390000Y202350D02*
D03*
Y208650D02*
D03*
X201500Y249150D02*
D03*
Y242850D02*
D03*
D17*
X347500Y209650D02*
D03*
Y203350D02*
D03*
X277217Y330850D02*
D03*
Y337150D02*
D03*
X263437Y331350D02*
D03*
Y337650D02*
D03*
X282000Y298650D02*
D03*
Y292350D02*
D03*
X247000Y329850D02*
D03*
Y336150D02*
D03*
X428500Y354248D02*
D03*
Y347949D02*
D03*
X412000Y354248D02*
D03*
Y347949D02*
D03*
X420000Y354248D02*
D03*
Y347949D02*
D03*
D20*
X242650Y291338D02*
D03*
X236350D02*
D03*
D23*
X254505Y210000D02*
D03*
X261198D02*
D03*
D25*
X281122Y274256D02*
D03*
Y268744D02*
D03*
X287000Y274256D02*
D03*
Y268744D02*
D03*
X373000Y330756D02*
D03*
Y325244D02*
D03*
D40*
X362394Y224000D02*
D03*
X356095D02*
D03*
D41*
X384000Y244016D02*
D03*
Y220984D02*
D03*
X398000Y342484D02*
D03*
Y365516D02*
D03*
D42*
X369500Y184386D02*
D03*
D43*
X378555Y207614D02*
D03*
X369500D02*
D03*
X360445D02*
D03*
D44*
X277610Y354000D02*
D03*
X284697D02*
D03*
%TF.MD5,ea2407febf1b777dc18650280c0fa164*%
M02*
