%TF.GenerationSoftware,Altium Limited,Altium Designer,18.1.6 (161)*%
G04 Layer_Color=128*
%FSLAX25Y25*%
%MOIN*%
%TF.FileFunction,Drillmap*%
%TF.Part,Single*%
G01*
G75*
%TA.AperFunction,NonConductor*%
%ADD93C,0.00500*%
D93*
X194850Y294961D02*
X198850D01*
X196850Y292961D02*
Y296961D01*
X194850Y304961D02*
X198850D01*
X196850Y302961D02*
Y306961D01*
X194850Y314961D02*
X198850D01*
X196850Y312961D02*
Y316961D01*
X194850Y324961D02*
X198850D01*
X196850Y322961D02*
Y326961D01*
X194350Y334961D02*
X198350D01*
X196350Y332961D02*
Y336961D01*
X184850Y334961D02*
X188850D01*
X186850Y332961D02*
Y336961D01*
X184850Y324961D02*
X188850D01*
X186850Y322961D02*
Y326961D01*
X184850Y314961D02*
X188850D01*
X186850Y312961D02*
Y316961D01*
X184850Y304961D02*
X188850D01*
X186850Y302961D02*
Y306961D01*
X184850Y294961D02*
X188850D01*
X186850Y292961D02*
Y296961D01*
X421071Y294961D02*
X425071D01*
X423071Y292961D02*
Y296961D01*
X421071Y304961D02*
X425071D01*
X423071Y302961D02*
Y306961D01*
X421071Y314961D02*
X425071D01*
X423071Y312961D02*
Y316961D01*
X421071Y324961D02*
X425071D01*
X423071Y322961D02*
Y326961D01*
X421071Y334961D02*
X425071D01*
X423071Y332961D02*
Y336961D01*
X430571Y334961D02*
X434571D01*
X432571Y332961D02*
Y336961D01*
X431071Y324961D02*
X435071D01*
X433071Y322961D02*
Y326961D01*
X431071Y314961D02*
X435071D01*
X433071Y312961D02*
Y316961D01*
X431071Y304961D02*
X435071D01*
X433071Y302961D02*
Y306961D01*
X431071Y294961D02*
X435071D01*
X433071Y292961D02*
Y296961D01*
X368468Y228000D02*
X372406D01*
X370437Y226031D02*
Y229969D01*
X368468Y238000D02*
X372406D01*
X370437Y236032D02*
Y239968D01*
X368468Y248000D02*
X372406D01*
X370437Y246031D02*
Y249969D01*
X275043Y202153D02*
X279610D01*
X277327Y199870D02*
Y204437D01*
X227713Y423713D02*
X231713D01*
X229713Y421713D02*
Y425713D01*
X234784Y416642D02*
X238784D01*
X236784Y414642D02*
Y418642D01*
X199429Y381287D02*
X203429D01*
X201429Y379287D02*
Y383287D01*
X206500Y388358D02*
X210500D01*
X208500Y386358D02*
Y390358D01*
X213571Y395429D02*
X217571D01*
X215571Y393429D02*
Y397429D01*
X220642Y402500D02*
X224642D01*
X222642Y400500D02*
Y404500D01*
X227360Y409925D02*
X231360D01*
X229360Y407925D02*
Y411925D01*
X220642Y416642D02*
X224642D01*
X222642Y414642D02*
Y418642D01*
X213571Y409571D02*
X217571D01*
X215571Y407571D02*
Y411571D01*
X206500Y402500D02*
X210500D01*
X208500Y400500D02*
Y404500D01*
X199429Y395429D02*
X203429D01*
X201429Y393429D02*
Y397429D01*
X192358Y388358D02*
X196358D01*
X194358Y386358D02*
Y390358D01*
X292961Y433071D02*
X296961D01*
X294961Y431071D02*
Y435071D01*
X302961Y433071D02*
X306961D01*
X304961Y431071D02*
Y435071D01*
X312961Y433071D02*
X316961D01*
X314961Y431071D02*
Y435071D01*
X322961Y433071D02*
X326961D01*
X324961Y431071D02*
Y435071D01*
X332961Y433571D02*
X336961D01*
X334961Y431571D02*
Y435571D01*
X332961Y443071D02*
X336961D01*
X334961Y441071D02*
Y445071D01*
X322961Y443071D02*
X326961D01*
X324961Y441071D02*
Y445071D01*
X312961Y443071D02*
X316961D01*
X314961Y441071D02*
Y445071D01*
X302961Y443071D02*
X306961D01*
X304961Y441071D02*
Y445071D01*
X292961Y443071D02*
X296961D01*
X294961Y441071D02*
Y445071D01*
X292961Y196850D02*
X296961D01*
X294961Y194850D02*
Y198850D01*
X302961Y196850D02*
X306961D01*
X304961Y194850D02*
Y198850D01*
X312961Y196850D02*
X316961D01*
X314961Y194850D02*
Y198850D01*
X322961Y196850D02*
X326961D01*
X324961Y194850D02*
Y198850D01*
X332961Y197350D02*
X336961D01*
X334961Y195350D02*
Y199350D01*
X332961Y206850D02*
X336961D01*
X334961Y204850D02*
Y208850D01*
X322961Y206850D02*
X326961D01*
X324961Y204850D02*
Y208850D01*
X312961Y206850D02*
X316961D01*
X314961Y204850D02*
Y208850D01*
X302961Y206850D02*
X306961D01*
X304961Y204850D02*
Y208850D01*
X292961Y206850D02*
X296961D01*
X294961Y204850D02*
Y208850D01*
X202039Y331000D02*
X204039D01*
X203039Y330000D02*
Y332000D01*
X265500Y210000D02*
X267500D01*
X266500Y209000D02*
Y211000D01*
X251500Y225000D02*
X253500D01*
X252500Y224000D02*
Y226000D01*
X261500Y222000D02*
X263500D01*
X262500Y221000D02*
Y223000D01*
X272500Y211000D02*
X274500D01*
X273500Y210000D02*
Y212000D01*
X287000Y258000D02*
X289000D01*
X288000Y257000D02*
Y259000D01*
X377311Y196473D02*
X379311D01*
X378311Y195473D02*
Y197473D01*
X217500Y202654D02*
X219500D01*
X218500Y201654D02*
Y203654D01*
X221000Y198000D02*
X223000D01*
X222000Y197000D02*
Y199000D01*
X227000Y192000D02*
X229000D01*
X228000Y191000D02*
Y193000D01*
X211000Y207500D02*
X213000D01*
X212000Y206500D02*
Y208500D01*
X189851Y235550D02*
X191851D01*
X190851Y234550D02*
Y236550D01*
X192265Y244016D02*
X194265D01*
X193265Y243016D02*
Y245016D01*
X456900Y360000D02*
X458100D01*
X457500Y359400D02*
Y360600D01*
X171000Y362500D02*
X173000D01*
X172000Y361500D02*
Y363500D01*
X209418Y422208D02*
X211418D01*
X210418Y421208D02*
Y423208D01*
X181000Y320407D02*
X183000D01*
X182000Y319407D02*
Y321407D01*
X235279Y307055D02*
X237280D01*
X236280Y306055D02*
Y308055D01*
X221642Y253500D02*
X223642D01*
X222642Y252500D02*
Y254500D01*
X207400Y273500D02*
X209400D01*
X208400Y272500D02*
Y274500D01*
X198242Y349500D02*
X200242D01*
X199242Y348500D02*
Y350500D01*
X402000Y228500D02*
X404000D01*
X403000Y227500D02*
Y229500D01*
X445000Y259500D02*
X447000D01*
X446000Y258500D02*
Y260500D01*
X282394Y260280D02*
X284394D01*
X283394Y259280D02*
Y261280D01*
X262000Y388500D02*
X264000D01*
X263000Y387500D02*
Y389500D01*
X255500Y381500D02*
X257500D01*
X256500Y380500D02*
Y382500D01*
X256507Y360500D02*
X258507D01*
X257507Y359500D02*
Y361500D01*
X328000Y250000D02*
X330000D01*
X329000Y249000D02*
Y251000D01*
X233500Y225000D02*
X235500D01*
X234500Y224000D02*
Y226000D01*
X346000Y195693D02*
X348000D01*
X347000Y194693D02*
Y196693D01*
X299500Y236000D02*
X301500D01*
X300500Y235000D02*
Y237000D01*
X302500Y232500D02*
X304500D01*
X303500Y231500D02*
Y233500D01*
X424000Y268000D02*
X426000D01*
X425000Y267000D02*
Y269000D01*
X414500Y268921D02*
X416500D01*
X415500Y267921D02*
Y269921D01*
X234000Y230000D02*
X236000D01*
X235000Y229000D02*
Y231000D01*
X343500Y236250D02*
X345500D01*
X344500Y235250D02*
Y237250D01*
X373000Y270000D02*
X375000D01*
X374000Y269000D02*
Y271000D01*
X235500Y264244D02*
X237500D01*
X236500Y263244D02*
Y265244D01*
X204500Y342000D02*
X206500D01*
X205500Y341000D02*
Y343000D01*
X200677Y288442D02*
X202677D01*
X201677Y287442D02*
Y289442D01*
X221082Y299220D02*
X223082D01*
X222082Y298220D02*
Y300220D01*
X221500Y291338D02*
X223500D01*
X222500Y290338D02*
Y292338D01*
X223500Y243000D02*
X225500D01*
X224500Y242000D02*
Y244000D01*
X231000Y243000D02*
X233000D01*
X232000Y242000D02*
Y244000D01*
X217500Y348000D02*
X219500D01*
X218500Y347000D02*
Y349000D01*
X299052Y336000D02*
X301052D01*
X300052Y335000D02*
Y337000D01*
X267000Y351631D02*
X269000D01*
X268000Y350631D02*
Y352631D01*
X190000Y363315D02*
X192000D01*
X191000Y362315D02*
Y364315D01*
X191500Y357500D02*
X193500D01*
X192500Y356500D02*
Y358500D01*
X252500Y193461D02*
X254500D01*
X253500Y192461D02*
Y194461D01*
X356252Y316500D02*
X358252D01*
X357252Y315500D02*
Y317500D01*
X355500Y266500D02*
X357500D01*
X356500Y265500D02*
Y267500D01*
X291000Y353095D02*
X293000D01*
X292000Y352095D02*
Y354095D01*
X301000Y351189D02*
X303000D01*
X302000Y350189D02*
Y352189D01*
X449400Y375000D02*
X450600D01*
X450000Y374400D02*
Y375600D01*
X449400Y345000D02*
X450600D01*
X450000Y344400D02*
Y345600D01*
X456900Y330000D02*
X458100D01*
X457500Y329400D02*
Y330600D01*
X456900Y300000D02*
X458100D01*
X457500Y299400D02*
Y300600D01*
X449400Y285000D02*
X450600D01*
X450000Y284400D02*
Y285600D01*
X456900Y270000D02*
X458100D01*
X457500Y269400D02*
Y270600D01*
X449400Y255000D02*
X450600D01*
X450000Y254400D02*
Y255600D01*
X434400Y405000D02*
X435600D01*
X435000Y404400D02*
Y405600D01*
X441900Y390000D02*
X443100D01*
X442500Y389400D02*
Y390600D01*
X434400Y375000D02*
X435600D01*
X435000Y374400D02*
Y375600D01*
X441900Y360000D02*
X443100D01*
X442500Y359400D02*
Y360600D01*
X434400Y285000D02*
X435600D01*
X435000Y284400D02*
Y285600D01*
X419400Y405000D02*
X420600D01*
X420000Y404400D02*
Y405600D01*
X426900Y390000D02*
X428100D01*
X427500Y389400D02*
Y390600D01*
X419400Y375000D02*
X420600D01*
X420000Y374400D02*
Y375600D01*
X404400Y435000D02*
X405600D01*
X405000Y434400D02*
Y435600D01*
X411900Y420000D02*
X413100D01*
X412500Y419400D02*
Y420600D01*
X404400Y405000D02*
X405600D01*
X405000Y404400D02*
Y405600D01*
X411900Y390000D02*
X413100D01*
X412500Y389400D02*
Y390600D01*
X404400Y375000D02*
X405600D01*
X405000Y374400D02*
Y375600D01*
X404400Y285000D02*
X405600D01*
X405000Y284400D02*
Y285600D01*
X411900Y210000D02*
X413100D01*
X412500Y209400D02*
Y210600D01*
X404400Y195000D02*
X405600D01*
X405000Y194400D02*
Y195600D01*
X396900Y390000D02*
X398100D01*
X397500Y389400D02*
Y390600D01*
X389400Y345000D02*
X390600D01*
X390000Y344400D02*
Y345600D01*
X396900Y300000D02*
X398100D01*
X397500Y299400D02*
Y300600D01*
X396900Y270000D02*
X398100D01*
X397500Y269400D02*
Y270600D01*
X396900Y210000D02*
X398100D01*
X397500Y209400D02*
Y210600D01*
X381900Y450000D02*
X383100D01*
X382500Y449400D02*
Y450600D01*
X381900Y420000D02*
X383100D01*
X382500Y419400D02*
Y420600D01*
X374400Y405000D02*
X375600D01*
X375000Y404400D02*
Y405600D01*
X374400Y315000D02*
X375600D01*
X375000Y314400D02*
Y315600D01*
X381900Y300000D02*
X383100D01*
X382500Y299400D02*
Y300600D01*
X381900Y270000D02*
X383100D01*
X382500Y269400D02*
Y270600D01*
X381900Y180000D02*
X383100D01*
X382500Y179400D02*
Y180600D01*
X366900Y450000D02*
X368100D01*
X367500Y449400D02*
Y450600D01*
X366900Y390000D02*
X368100D01*
X367500Y389400D02*
Y390600D01*
X351900Y450000D02*
X353100D01*
X352500Y449400D02*
Y450600D01*
X351900Y390000D02*
X353100D01*
X352500Y389400D02*
Y390600D01*
X344400Y225000D02*
X345600D01*
X345000Y224400D02*
Y225600D01*
X336900Y450000D02*
X338100D01*
X337500Y449400D02*
Y450600D01*
X336900Y420000D02*
X338100D01*
X337500Y419400D02*
Y420600D01*
X329400Y405000D02*
X330600D01*
X330000Y404400D02*
Y405600D01*
X329400Y315000D02*
X330600D01*
X330000Y314400D02*
Y315600D01*
X336900Y300000D02*
X338100D01*
X337500Y299400D02*
Y300600D01*
X336900Y180000D02*
X338100D01*
X337500Y179400D02*
Y180600D01*
X329400Y165000D02*
X330600D01*
X330000Y164400D02*
Y165600D01*
X321900Y450000D02*
X323100D01*
X322500Y449400D02*
Y450600D01*
X321900Y420000D02*
X323100D01*
X322500Y419400D02*
Y420600D01*
X321900Y180000D02*
X323100D01*
X322500Y179400D02*
Y180600D01*
X314400Y165000D02*
X315600D01*
X315000Y164400D02*
Y165600D01*
X306900Y450000D02*
X308100D01*
X307500Y449400D02*
Y450600D01*
X306900Y330000D02*
X308100D01*
X307500Y329400D02*
Y330600D01*
X306900Y300000D02*
X308100D01*
X307500Y299400D02*
Y300600D01*
X299400Y225000D02*
X300600D01*
X300000Y224400D02*
Y225600D01*
X306900Y180000D02*
X308100D01*
X307500Y179400D02*
Y180600D01*
X299400Y165000D02*
X300600D01*
X300000Y164400D02*
Y165600D01*
X291900Y450000D02*
X293100D01*
X292500Y449400D02*
Y450600D01*
X291900Y420000D02*
X293100D01*
X292500Y419400D02*
Y420600D01*
X284400Y315000D02*
X285600D01*
X285000Y314400D02*
Y315600D01*
X284400Y225000D02*
X285600D01*
X285000Y224400D02*
Y225600D01*
X291900Y180000D02*
X293100D01*
X292500Y179400D02*
Y180600D01*
X276900Y450000D02*
X278100D01*
X277500Y449400D02*
Y450600D01*
X276900Y420000D02*
X278100D01*
X277500Y419400D02*
Y420600D01*
X276900Y390000D02*
X278100D01*
X277500Y389400D02*
Y390600D01*
X269400Y315000D02*
X270600D01*
X270000Y314400D02*
Y315600D01*
X276900Y180000D02*
X278100D01*
X277500Y179400D02*
Y180600D01*
X261900Y450000D02*
X263100D01*
X262500Y449400D02*
Y450600D01*
X261900Y420000D02*
X263100D01*
X262500Y419400D02*
Y420600D01*
X261900Y180000D02*
X263100D01*
X262500Y179400D02*
Y180600D01*
X246900Y450000D02*
X248100D01*
X247500Y449400D02*
Y450600D01*
X246900Y420000D02*
X248100D01*
X247500Y419400D02*
Y420600D01*
X246900Y390000D02*
X248100D01*
X247500Y389400D02*
Y390600D01*
X209400Y375000D02*
X210600D01*
X210000Y374400D02*
Y375600D01*
X194400Y225000D02*
X195600D01*
X195000Y224400D02*
Y225600D01*
X164400Y315000D02*
X165600D01*
X165000Y314400D02*
Y315600D01*
X164400Y285000D02*
X165600D01*
X165000Y284400D02*
Y285600D01*
X207400Y278500D02*
X209400D01*
X208400Y277500D02*
Y279500D01*
X191000Y297244D02*
X193000D01*
X192000Y296244D02*
Y298244D01*
X267650Y273500D02*
X269650D01*
X268650Y272500D02*
Y274500D01*
X276217Y302000D02*
X278217D01*
X277217Y301000D02*
Y303000D01*
X246000Y279000D02*
X248000D01*
X247000Y278000D02*
Y280000D01*
X242500Y272500D02*
X244500D01*
X243500Y271500D02*
Y273500D01*
X442000Y337000D02*
X444000D01*
X443000Y336000D02*
Y338000D01*
X310500Y263744D02*
X312500D01*
X311500Y262744D02*
Y264744D01*
X309000Y270500D02*
X311000D01*
X310000Y269500D02*
Y271500D01*
X274500Y265500D02*
X276500D01*
X275500Y264500D02*
Y266500D01*
X392500Y375500D02*
X394500D01*
X393500Y374500D02*
Y376500D01*
X214000Y326000D02*
X216000D01*
X215000Y325000D02*
Y327000D01*
X173500Y345480D02*
X175500D01*
X174500Y344480D02*
Y346480D01*
X197500Y266500D02*
X199500D01*
X198500Y265500D02*
Y267500D01*
X205500Y228500D02*
X207500D01*
X206500Y227500D02*
Y229500D01*
X220000Y281000D02*
X222000D01*
X221000Y280000D02*
Y282000D01*
X200000Y255500D02*
X202000D01*
X201000Y254500D02*
Y256500D01*
X343000Y261346D02*
X345000D01*
X344000Y260346D02*
Y262346D01*
X277500Y317500D02*
X279500D01*
X278500Y316500D02*
Y318500D01*
X206500D02*
X208500D01*
X207500Y317500D02*
Y319500D01*
X208000Y314500D02*
X210000D01*
X209000Y313500D02*
Y315500D01*
X277000Y322000D02*
X279000D01*
X278000Y321000D02*
Y323000D01*
X304000Y259500D02*
X306000D01*
X305000Y258500D02*
Y260500D01*
X255000Y353095D02*
X257000D01*
X256000Y352095D02*
Y354095D01*
X211000Y215500D02*
X213000D01*
X212000Y214500D02*
Y216500D01*
X293000Y390500D02*
X295000D01*
X294000Y389500D02*
Y391500D01*
X309201Y381201D02*
X311201D01*
X310201Y380201D02*
Y382201D01*
X271500Y354543D02*
X273500D01*
X272500Y353543D02*
Y355543D01*
X316158Y359000D02*
X318158D01*
X317158Y358000D02*
Y360000D01*
X313961Y381201D02*
X315961D01*
X314961Y380201D02*
Y382201D01*
X317500Y389500D02*
X319500D01*
X318500Y388500D02*
Y390500D01*
X306000Y388500D02*
X308000D01*
X307000Y387500D02*
Y389500D01*
X238000Y354248D02*
X240000D01*
X239000Y353248D02*
Y355248D01*
X344000Y251689D02*
X346000D01*
X345000Y250689D02*
Y252689D01*
X300500Y262752D02*
X302500D01*
X301500Y261752D02*
Y263752D01*
X305000Y309500D02*
X307000D01*
X306000Y308500D02*
Y310500D01*
X183500Y349811D02*
X185500D01*
X184500Y348811D02*
Y350811D01*
X228360Y382000D02*
X230360D01*
X229360Y381000D02*
Y383000D01*
X345500Y177500D02*
X347500D01*
X346500Y176500D02*
Y178500D01*
X219500Y309811D02*
X221500D01*
X220500Y308811D02*
Y310811D01*
X215500Y306500D02*
X217500D01*
X216500Y305500D02*
Y307500D01*
X211000Y303366D02*
X213000D01*
X212000Y302366D02*
Y304366D01*
X209500Y286000D02*
X211500D01*
X210500Y285000D02*
Y287000D01*
X206000Y283000D02*
X208000D01*
X207000Y282000D02*
Y284000D01*
X335500Y320500D02*
X337500D01*
X336500Y319500D02*
Y321500D01*
X243500Y261500D02*
X245500D01*
X244500Y260500D02*
Y262500D01*
X257500Y293500D02*
X259500D01*
X258500Y292500D02*
Y294500D01*
X309201Y393000D02*
X311201D01*
X310201Y392000D02*
Y394000D01*
X231500Y366500D02*
X233500D01*
X232500Y365500D02*
Y367500D01*
X362500Y343000D02*
X364500D01*
X363500Y342000D02*
Y344000D01*
X368500Y358000D02*
X370500D01*
X369500Y357000D02*
Y359000D01*
X365500Y354248D02*
X367500D01*
X366500Y353248D02*
Y355248D01*
X332000Y346850D02*
X334000D01*
X333000Y345850D02*
Y347850D01*
X236000Y328500D02*
X238000D01*
X237000Y327500D02*
Y329500D01*
X391000Y354748D02*
X393000D01*
X392000Y353748D02*
Y355748D01*
X251500Y337500D02*
X253500D01*
X252500Y336500D02*
Y338500D01*
X241500Y340000D02*
X243500D01*
X242500Y339000D02*
Y341000D01*
X378500Y354500D02*
X380500D01*
X379500Y353500D02*
Y355500D01*
X390000Y320500D02*
X392000D01*
X391000Y319500D02*
Y321500D01*
X413756Y334500D02*
X415756D01*
X414756Y333500D02*
Y335500D01*
X372000Y321000D02*
X374000D01*
X373000Y320000D02*
Y322000D01*
X348500Y278114D02*
X350500D01*
X349500Y277114D02*
Y279114D01*
X288500Y285339D02*
X290500D01*
X289500Y284339D02*
Y286339D01*
X269000Y339000D02*
X271000D01*
X270000Y338000D02*
Y340000D01*
X234000Y333500D02*
X236000D01*
X235000Y332500D02*
Y334500D01*
X246500Y296500D02*
X248500D01*
X247500Y295500D02*
Y297500D01*
X368874Y343000D02*
X370874D01*
X369874Y342000D02*
Y344000D01*
X280000Y278500D02*
X282000D01*
X281000Y277500D02*
Y279500D01*
X291500Y344500D02*
X293500D01*
X292500Y343500D02*
Y345500D01*
X366000Y273500D02*
X368000D01*
X367000Y272500D02*
Y274500D01*
X301752Y329000D02*
X303752D01*
X302752Y328000D02*
Y330000D01*
X315500Y332500D02*
X317500D01*
X316500Y331500D02*
Y333500D01*
X282122Y334500D02*
X284122D01*
X283122Y333500D02*
Y335500D01*
X316000Y354500D02*
X318000D01*
X317000Y353500D02*
Y355500D01*
X234500Y370000D02*
X236500D01*
X235500Y369000D02*
Y371000D01*
X377311Y346000D02*
X379311D01*
X378311Y345000D02*
Y347000D01*
X363500Y313500D02*
X365500D01*
X364500Y312500D02*
Y314500D01*
X349244Y297244D02*
X351244D01*
X350244Y296244D02*
Y298244D01*
X352000Y285756D02*
X354000D01*
X353000Y284756D02*
Y286756D01*
X340500Y345000D02*
X342500D01*
X341500Y344000D02*
Y346000D01*
X335000Y355000D02*
X337000D01*
X336000Y354000D02*
Y356000D01*
X314661Y310122D02*
X316661D01*
X315661Y309122D02*
Y311122D01*
X214500Y312500D02*
X216500D01*
X215500Y311500D02*
Y313500D01*
X314323Y287933D02*
X316323D01*
X315323Y286933D02*
Y288933D01*
X314161Y276839D02*
X316161D01*
X315161Y275839D02*
Y277839D01*
X390250Y331750D02*
X392250D01*
X391250Y330750D02*
Y332750D01*
%TF.MD5,1b8a9e643e90efe1e808d86a0928ad69*%
M02*
